<?xml version="1.0" encoding="us-ascii" standalone="no"?><svg xmlns="http://www.w3.org/2000/svg" xmlns:xlink="http://www.w3.org/1999/xlink" contentStyleType="text/css" height="1418px" preserveAspectRatio="none" style="width:858px;height:1418px;background:#FFFFFF;" version="1.1" viewBox="0 0 858 1418" width="858px" zoomAndPan="magnify"><defs/><g><text fill="#000000" font-family="sans-serif" font-size="14" font-weight="bold" lengthAdjust="spacing" textLength="234" x="313.5" y="27.9951">acceptOffer Transaction Flow</text><text fill="#000000" font-family="sans-serif" font-size="14" font-weight="bold" lengthAdjust="spacing" textLength="285" x="288" y="44.292">(Happy Path - Successful Execution)</text><rect fill="#00CEEE" height="1150.9844" style="stroke:#181818;stroke-width:1.0;" width="10" x="294" y="166.0234"/><rect fill="#00EE20" height="147.9023" style="stroke:#181818;stroke-width:1.0;" width="10" x="575" y="484.3516"/><rect fill="#00EE20" height="86.3984" style="stroke:#181818;stroke-width:1.0;" width="10" x="575" y="721.0859"/><rect fill="#00EE20" height="81.832" style="stroke:#181818;stroke-width:1.0;" width="10" x="575" y="1055.8125"/><rect fill="#FFFFFF" height="271" style="stroke:#000000;stroke-width:1.5;" width="530" x="227" y="379.8203"/><rect fill="#FFFFFF" height="90.2031" style="stroke:#000000;stroke-width:1.5;" width="379.5" x="237" y="446.0859"/><rect fill="#FFFFFF" height="43.9375" style="stroke:none;stroke-width:1.0;" width="379.5" x="237" y="492.3516"/><rect fill="#FFFFFF" height="226.1953" style="stroke:#000000;stroke-width:1.5;" width="615" x="237" y="930.0156"/><line style="stroke:#181818;stroke-width:0.5;stroke-dasharray:5.0,5.0;" x1="60" x2="60" y1="134.8906" y2="1338.0078"/><line style="stroke:#181818;stroke-width:0.5;stroke-dasharray:5.0,5.0;" x1="299" x2="299" y1="134.8906" y2="1338.0078"/><line style="stroke:#181818;stroke-width:0.5;stroke-dasharray:5.0,5.0;" x1="579.5" x2="579.5" y1="134.8906" y2="1338.0078"/><text fill="#000000" font-family="sans-serif" font-size="14" lengthAdjust="spacing" textLength="104" x="5" y="131.5889">User or Service</text><ellipse cx="60" cy="67.0938" fill="#E2E2F0" rx="8" ry="8" style="stroke:#181818;stroke-width:0.5;"/><path d="M60,75.0938 L60,102.0938 M47,83.0938 L73,83.0938 M60,102.0938 L47,117.0938 M60,102.0938 L73,117.0938 " fill="none" style="stroke:#181818;stroke-width:0.5;"/><text fill="#000000" font-family="sans-serif" font-size="14" lengthAdjust="spacing" textLength="104" x="5" y="1350.0029">User or Service</text><ellipse cx="60" cy="1361.8047" fill="#E2E2F0" rx="8" ry="8" style="stroke:#181818;stroke-width:0.5;"/><path d="M60,1369.8047 L60,1396.8047 M47,1377.8047 L73,1377.8047 M60,1396.8047 L47,1411.8047 M60,1396.8047 L73,1411.8047 " fill="none" style="stroke:#181818;stroke-width:0.5;"/><rect fill="#00CEEE" height="30.2969" rx="2.5" ry="2.5" style="stroke:#181818;stroke-width:0.5;" width="104" x="247" y="103.5938"/><text fill="#000000" font-family="sans-serif" font-size="14" lengthAdjust="spacing" textLength="90" x="254" y="123.5889">NameService</text><rect fill="#00CEEE" height="30.2969" rx="2.5" ry="2.5" style="stroke:#181818;stroke-width:0.5;" width="104" x="247" y="1337.0078"/><text fill="#000000" font-family="sans-serif" font-size="14" lengthAdjust="spacing" textLength="90" x="254" y="1357.0029">NameService</text><rect fill="#00EE20" height="30.2969" rx="2.5" ry="2.5" style="stroke:#181818;stroke-width:0.5;" width="53" x="553.5" y="103.5938"/><text fill="#000000" font-family="sans-serif" font-size="14" lengthAdjust="spacing" textLength="39" x="560.5" y="123.5889">EVVM</text><rect fill="#00EE20" height="30.2969" rx="2.5" ry="2.5" style="stroke:#181818;stroke-width:0.5;" width="53" x="553.5" y="1337.0078"/><text fill="#000000" font-family="sans-serif" font-size="14" lengthAdjust="spacing" textLength="39" x="560.5" y="1357.0029">EVVM</text><rect fill="#00CEEE" height="1150.9844" style="stroke:#181818;stroke-width:1.0;" width="10" x="294" y="166.0234"/><rect fill="#00EE20" height="147.9023" style="stroke:#181818;stroke-width:1.0;" width="10" x="575" y="484.3516"/><rect fill="#00EE20" height="86.3984" style="stroke:#181818;stroke-width:1.0;" width="10" x="575" y="721.0859"/><rect fill="#00EE20" height="81.832" style="stroke:#181818;stroke-width:1.0;" width="10" x="575" y="1055.8125"/><polygon fill="#181818" points="282,162.0234,292,166.0234,282,170.0234,286,166.0234" style="stroke:#181818;stroke-width:1.0;"/><line style="stroke:#181818;stroke-width:1.0;" x1="60" x2="288" y1="166.0234" y2="166.0234"/><text fill="#000000" font-family="sans-serif" font-size="13" lengthAdjust="spacing" textLength="96" x="67" y="160.9575">acceptOffer(&#183;&#183;&#183;)</text><line style="stroke:#181818;stroke-width:1.0;" x1="304" x2="346" y1="195.1563" y2="195.1563"/><line style="stroke:#181818;stroke-width:1.0;" x1="346" x2="346" y1="195.1563" y2="208.1563"/><line style="stroke:#181818;stroke-width:1.0;" x1="305" x2="346" y1="208.1563" y2="208.1563"/><polygon fill="#181818" points="315,204.1563,305,208.1563,315,212.1563,311,208.1563" style="stroke:#181818;stroke-width:1.0;"/><text fill="#000000" font-family="sans-serif" font-size="13" lengthAdjust="spacing" textLength="238" x="311" y="190.0903">onlyOwnerOfIdentity(user, username)</text><line style="stroke:#181818;stroke-width:1.0;" x1="304" x2="346" y1="237.2891" y2="237.2891"/><line style="stroke:#181818;stroke-width:1.0;" x1="346" x2="346" y1="237.2891" y2="250.2891"/><line style="stroke:#181818;stroke-width:1.0;" x1="305" x2="346" y1="250.2891" y2="250.2891"/><polygon fill="#181818" points="315,246.2891,305,250.2891,315,254.2891,311,250.2891" style="stroke:#181818;stroke-width:1.0;"/><text fill="#000000" font-family="sans-serif" font-size="13" lengthAdjust="spacing" textLength="234" x="311" y="232.2231">verifyAsyncNonce(user, nonce)</text><line style="stroke:#181818;stroke-width:1.0;" x1="304" x2="346" y1="309.6875" y2="309.6875"/><line style="stroke:#181818;stroke-width:1.0;" x1="346" x2="346" y1="309.6875" y2="322.6875"/><line style="stroke:#181818;stroke-width:1.0;" x1="305" x2="346" y1="322.6875" y2="322.6875"/><polygon fill="#181818" points="315,318.6875,305,322.6875,315,326.6875,311,322.6875" style="stroke:#181818;stroke-width:1.0;"/><text fill="#000000" font-family="sans-serif" font-size="13" lengthAdjust="spacing" textLength="89" x="311" y="274.356">Validate offer:</text><text fill="#000000" font-family="sans-serif" font-size="13" lengthAdjust="spacing" textLength="145" x="311" y="289.4888">&#8226; Is the offer still valid?</text><text fill="#000000" font-family="sans-serif" font-size="13" lengthAdjust="spacing" textLength="169" x="311" y="304.6216">&#8226; the offer does not expire</text><line style="stroke:#181818;stroke-width:1.0;" x1="304" x2="346" y1="351.8203" y2="351.8203"/><line style="stroke:#181818;stroke-width:1.0;" x1="346" x2="346" y1="351.8203" y2="364.8203"/><line style="stroke:#181818;stroke-width:1.0;" x1="305" x2="346" y1="364.8203" y2="364.8203"/><polygon fill="#181818" points="315,360.8203,305,364.8203,315,368.8203,311,364.8203" style="stroke:#181818;stroke-width:1.0;"/><text fill="#000000" font-family="sans-serif" font-size="13" lengthAdjust="spacing" textLength="252" x="311" y="346.7544">verifyMessageSignedForAcceptOffer(&#183;&#183;&#183;)</text><path d="M227,379.8203 L291,379.8203 L291,386.9531 L281,396.9531 L227,396.9531 L227,379.8203 " fill="#EEEEEE" style="stroke:#000000;stroke-width:1.5;"/><rect fill="none" height="271" style="stroke:#000000;stroke-width:1.5;" width="530" x="227" y="379.8203"/><text fill="#000000" font-family="sans-serif" font-size="13" font-weight="bold" lengthAdjust="spacing" textLength="19" x="242" y="392.8872">alt</text><text fill="#000000" font-family="sans-serif" font-size="11" font-weight="bold" lengthAdjust="spacing" textLength="146" x="306" y="392.0308">[priorityFee_EVVM &gt; 0]</text><line style="stroke:#181818;stroke-width:1.0;" x1="304" x2="346" y1="418.0859" y2="418.0859"/><line style="stroke:#181818;stroke-width:1.0;" x1="346" x2="346" y1="418.0859" y2="431.0859"/><line style="stroke:#181818;stroke-width:1.0;" x1="305" x2="346" y1="431.0859" y2="431.0859"/><polygon fill="#181818" points="315,427.0859,305,431.0859,315,435.0859,311,431.0859" style="stroke:#181818;stroke-width:1.0;"/><text fill="#000000" font-family="sans-serif" font-size="13" lengthAdjust="spacing" textLength="252" x="311" y="413.02">makePay(user, 0, priorityFee_EVVM, &#183;&#183;&#183;)</text><path d="M237,446.0859 L301,446.0859 L301,453.2188 L291,463.2188 L237,463.2188 L237,446.0859 " fill="#EEEEEE" style="stroke:#000000;stroke-width:1.5;"/><rect fill="none" height="90.2031" style="stroke:#000000;stroke-width:1.5;" width="379.5" x="237" y="446.0859"/><text fill="#000000" font-family="sans-serif" font-size="13" font-weight="bold" lengthAdjust="spacing" textLength="19" x="252" y="459.1528">alt</text><text fill="#000000" font-family="sans-serif" font-size="11" font-weight="bold" lengthAdjust="spacing" textLength="177" x="316" y="458.2964">[priorityFlag_EVVM == true]</text><polygon fill="#181818" points="563,480.3516,573,484.3516,563,488.3516,567,484.3516" style="stroke:#181818;stroke-width:1.0;"/><line style="stroke:#181818;stroke-width:1.0;" x1="304" x2="569" y1="484.3516" y2="484.3516"/><text fill="#000000" font-family="sans-serif" font-size="13" lengthAdjust="spacing" textLength="131" x="311" y="479.2856">IEvvm.pay(...) (async)</text><line style="stroke:#000000;stroke-width:1.0;stroke-dasharray:2.0,2.0;" x1="237" x2="616.5" y1="493.3516" y2="493.3516"/><text fill="#000000" font-family="sans-serif" font-size="11" font-weight="bold" lengthAdjust="spacing" textLength="183" x="242" y="503.562">[priorityFlag_EVVM == false]</text><polygon fill="#181818" points="563,524.2891,573,528.2891,563,532.2891,567,528.2891" style="stroke:#181818;stroke-width:1.0;"/><line style="stroke:#181818;stroke-width:1.0;" x1="304" x2="569" y1="528.2891" y2="528.2891"/><text fill="#000000" font-family="sans-serif" font-size="13" lengthAdjust="spacing" textLength="123" x="311" y="523.2231">IEvvm.pay(...) (sync)</text><line style="stroke:#181818;stroke-width:1.0;" x1="585" x2="627" y1="579.5547" y2="579.5547"/><line style="stroke:#181818;stroke-width:1.0;" x1="627" x2="627" y1="579.5547" y2="592.5547"/><line style="stroke:#181818;stroke-width:1.0;" x1="586" x2="627" y1="592.5547" y2="592.5547"/><polygon fill="#181818" points="596,588.5547,586,592.5547,596,596.5547,592,592.5547" style="stroke:#181818;stroke-width:1.0;"/><text fill="#000000" font-family="sans-serif" font-size="13" lengthAdjust="spacing" textLength="140" x="592" y="559.356">Verify payment inputs</text><text fill="#000000" font-family="sans-serif" font-size="13" lengthAdjust="spacing" textLength="134" x="592" y="574.4888">and update balances</text><polygon fill="#181818" points="315,628.2539,305,632.2539,315,636.2539,311,632.2539" style="stroke:#181818;stroke-width:1.0;"/><line style="stroke:#181818;stroke-width:1.0;" x1="309" x2="579" y1="632.2539" y2="632.2539"/><text fill="#000000" font-family="sans-serif" font-size="13" lengthAdjust="spacing" textLength="199" x="321" y="627.188">Priority fee payment processed</text><path d="M590,605.5547 L590,645.5547 L742,645.5547 L742,615.5547 L732,605.5547 L590,605.5547 " fill="#FEFFDD" style="stroke:#181818;stroke-width:0.5;"/><path d="M732,605.5547 L732,615.5547 L742,615.5547 L732,605.5547 " fill="#FEFFDD" style="stroke:#181818;stroke-width:0.5;"/><text fill="#000000" font-family="sans-serif" font-size="13" lengthAdjust="spacing" textLength="125" x="596" y="622.6216">Optional priority fee</text><text fill="#000000" font-family="sans-serif" font-size="13" lengthAdjust="spacing" textLength="131" x="596" y="637.7544">for faster processing</text><line style="stroke:#181818;stroke-width:1.0;" x1="304" x2="346" y1="678.9531" y2="678.9531"/><line style="stroke:#181818;stroke-width:1.0;" x1="346" x2="346" y1="678.9531" y2="691.9531"/><line style="stroke:#181818;stroke-width:1.0;" x1="305" x2="346" y1="691.9531" y2="691.9531"/><polygon fill="#181818" points="315,687.9531,305,691.9531,315,695.9531,311,691.9531" style="stroke:#181818;stroke-width:1.0;"/><text fill="#000000" font-family="sans-serif" font-size="13" lengthAdjust="spacing" textLength="98" x="311" y="673.8872">makeCaPay(&#183;&#183;&#183;)</text><polygon fill="#181818" points="563,717.0859,573,721.0859,563,725.0859,567,721.0859" style="stroke:#181818;stroke-width:1.0;"/><line style="stroke:#181818;stroke-width:1.0;" x1="304" x2="569" y1="721.0859" y2="721.0859"/><text fill="#000000" font-family="sans-serif" font-size="13" lengthAdjust="spacing" textLength="134" x="311" y="716.02">caPay(user, amount)</text><line style="stroke:#181818;stroke-width:1.0;" x1="585" x2="627" y1="765.3516" y2="765.3516"/><line style="stroke:#181818;stroke-width:1.0;" x1="627" x2="627" y1="765.3516" y2="778.3516"/><line style="stroke:#181818;stroke-width:1.0;" x1="586" x2="627" y1="778.3516" y2="778.3516"/><polygon fill="#181818" points="596,774.3516,586,778.3516,596,782.3516,592,778.3516" style="stroke:#181818;stroke-width:1.0;"/><text fill="#000000" font-family="sans-serif" font-size="13" lengthAdjust="spacing" textLength="139" x="592" y="745.1528">Transfer offer amount</text><text fill="#000000" font-family="sans-serif" font-size="13" lengthAdjust="spacing" textLength="120" x="592" y="760.2856">to username seller</text><polygon fill="#181818" points="315,803.4844,305,807.4844,315,811.4844,311,807.4844" style="stroke:#181818;stroke-width:1.0;"/><line style="stroke:#181818;stroke-width:1.0;" x1="309" x2="579" y1="807.4844" y2="807.4844"/><text fill="#000000" font-family="sans-serif" font-size="13" lengthAdjust="spacing" textLength="184" x="321" y="802.4185">Payment to seller completed</text><line style="stroke:#181818;stroke-width:1.0;" x1="304" x2="346" y1="836.6172" y2="836.6172"/><line style="stroke:#181818;stroke-width:1.0;" x1="346" x2="346" y1="836.6172" y2="849.6172"/><line style="stroke:#181818;stroke-width:1.0;" x1="305" x2="346" y1="849.6172" y2="849.6172"/><polygon fill="#181818" points="315,845.6172,305,849.6172,315,853.6172,311,849.6172" style="stroke:#181818;stroke-width:1.0;"/><text fill="#000000" font-family="sans-serif" font-size="13" lengthAdjust="spacing" textLength="120" x="311" y="831.5513">Transfer ownership</text><line style="stroke:#181818;stroke-width:1.0;" x1="304" x2="346" y1="890.3828" y2="890.3828"/><line style="stroke:#181818;stroke-width:1.0;" x1="346" x2="346" y1="890.3828" y2="903.3828"/><line style="stroke:#181818;stroke-width:1.0;" x1="305" x2="346" y1="903.3828" y2="903.3828"/><polygon fill="#181818" points="315,899.3828,305,903.3828,315,907.3828,311,903.3828" style="stroke:#181818;stroke-width:1.0;"/><text fill="#000000" font-family="sans-serif" font-size="13" lengthAdjust="spacing" textLength="66" x="311" y="885.3169">Clear offer</text><path d="M389,862.6172 L389,917.6172 L601,917.6172 L601,872.6172 L591,862.6172 L389,862.6172 " fill="#FEFFDD" style="stroke:#181818;stroke-width:0.5;"/><path d="M591,862.6172 L591,872.6172 L601,872.6172 L591,862.6172 " fill="#FEFFDD" style="stroke:#181818;stroke-width:0.5;"/><text fill="#000000" font-family="sans-serif" font-size="13" lengthAdjust="spacing" textLength="162" x="395" y="879.6841">CRITICAL: Atomic transfer</text><text fill="#000000" font-family="sans-serif" font-size="13" lengthAdjust="spacing" textLength="191" x="395" y="894.8169">Payment + ownership change</text><text fill="#000000" font-family="sans-serif" font-size="13" lengthAdjust="spacing" textLength="155" x="395" y="909.9497">No partial state possible</text><path d="M237,930.0156 L301,930.0156 L301,937.1484 L291,947.1484 L237,947.1484 L237,930.0156 " fill="#EEEEEE" style="stroke:#000000;stroke-width:1.5;"/><rect fill="none" height="226.1953" style="stroke:#000000;stroke-width:1.5;" width="615" x="237" y="930.0156"/><text fill="#000000" font-family="sans-serif" font-size="13" font-weight="bold" lengthAdjust="spacing" textLength="19" x="252" y="943.0825">alt</text><text fill="#000000" font-family="sans-serif" font-size="11" font-weight="bold" lengthAdjust="spacing" textLength="197" x="316" y="942.2261">[isAddressStaker(msg.sender)]</text><line style="stroke:#181818;stroke-width:1.0;" x1="304" x2="346" y1="1013.6797" y2="1013.6797"/><line style="stroke:#181818;stroke-width:1.0;" x1="346" x2="346" y1="1013.6797" y2="1026.6797"/><line style="stroke:#181818;stroke-width:1.0;" x1="305" x2="346" y1="1026.6797" y2="1026.6797"/><polygon fill="#181818" points="315,1022.6797,305,1026.6797,315,1030.6797,311,1026.6797" style="stroke:#181818;stroke-width:1.0;"/><text fill="#000000" font-family="sans-serif" font-size="13" lengthAdjust="spacing" textLength="161" x="311" y="963.2153">makeCaPay(msg.sender,</text><text fill="#000000" font-family="sans-serif" font-size="13" lengthAdjust="spacing" textLength="143" x="311" y="978.3481">getRewardAmount() +</text><text fill="#000000" font-family="sans-serif" font-size="13" lengthAdjust="spacing" textLength="164" x="311" y="993.481">((amount * 1) / 199) / 4 +</text><text fill="#000000" font-family="sans-serif" font-size="13" lengthAdjust="spacing" textLength="116" x="311" y="1008.6138">priorityFee_EVVM)</text><polygon fill="#181818" points="563,1051.8125,573,1055.8125,563,1059.8125,567,1055.8125" style="stroke:#181818;stroke-width:1.0;"/><line style="stroke:#181818;stroke-width:1.0;" x1="304" x2="569" y1="1055.8125" y2="1055.8125"/><text fill="#000000" font-family="sans-serif" font-size="13" lengthAdjust="spacing" textLength="175" x="311" y="1050.7466">caPay(msg.sender, reward)</text><line style="stroke:#181818;stroke-width:1.0;" x1="585" x2="627" y1="1084.9453" y2="1084.9453"/><line style="stroke:#181818;stroke-width:1.0;" x1="627" x2="627" y1="1084.9453" y2="1097.9453"/><line style="stroke:#181818;stroke-width:1.0;" x1="586" x2="627" y1="1097.9453" y2="1097.9453"/><polygon fill="#181818" points="596,1093.9453,586,1097.9453,596,1101.9453,592,1097.9453" style="stroke:#181818;stroke-width:1.0;"/><text fill="#000000" font-family="sans-serif" font-size="13" lengthAdjust="spacing" textLength="160" x="592" y="1079.8794">Distribute staker rewards</text><polygon fill="#181818" points="315,1133.6445,305,1137.6445,315,1141.6445,311,1137.6445" style="stroke:#181818;stroke-width:1.0;"/><line style="stroke:#181818;stroke-width:1.0;" x1="309" x2="579" y1="1137.6445" y2="1137.6445"/><text fill="#000000" font-family="sans-serif" font-size="13" lengthAdjust="spacing" textLength="118" x="321" y="1132.5786">Reward distributed</text><path d="M590,1110.9453 L590,1150.9453 L837,1150.9453 L837,1120.9453 L827,1110.9453 L590,1110.9453 " fill="#FEFFDD" style="stroke:#181818;stroke-width:0.5;"/><path d="M827,1110.9453 L827,1120.9453 L837,1120.9453 L827,1110.9453 " fill="#FEFFDD" style="stroke:#181818;stroke-width:0.5;"/><text fill="#000000" font-family="sans-serif" font-size="13" lengthAdjust="spacing" textLength="129" x="596" y="1128.0122">Only stakers receive</text><text fill="#000000" font-family="sans-serif" font-size="13" lengthAdjust="spacing" textLength="226" x="596" y="1143.145">reward + commission + priority fee</text><line style="stroke:#181818;stroke-width:1.0;" x1="304" x2="346" y1="1214.6094" y2="1214.6094"/><line style="stroke:#181818;stroke-width:1.0;" x1="346" x2="346" y1="1214.6094" y2="1227.6094"/><line style="stroke:#181818;stroke-width:1.0;" x1="305" x2="346" y1="1227.6094" y2="1227.6094"/><polygon fill="#181818" points="315,1223.6094,305,1227.6094,315,1231.6094,311,1227.6094" style="stroke:#181818;stroke-width:1.0;"/><text fill="#000000" font-family="sans-serif" font-size="13" lengthAdjust="spacing" textLength="143" x="311" y="1179.2778">Update locked tokens:</text><text fill="#000000" font-family="sans-serif" font-size="13" lengthAdjust="spacing" textLength="252" x="311" y="1194.4106">principalTokenTokenLockedForWithdrawOffers -=</text><text fill="#000000" font-family="sans-serif" font-size="13" lengthAdjust="spacing" textLength="218" x="311" y="1209.5435">amount + ((amount * 1) / 199) / 4</text><line style="stroke:#181818;stroke-width:1.0;" x1="304" x2="346" y1="1256.7422" y2="1256.7422"/><line style="stroke:#181818;stroke-width:1.0;" x1="346" x2="346" y1="1256.7422" y2="1269.7422"/><line style="stroke:#181818;stroke-width:1.0;" x1="305" x2="346" y1="1269.7422" y2="1269.7422"/><polygon fill="#181818" points="315,1265.7422,305,1269.7422,315,1273.7422,311,1269.7422" style="stroke:#181818;stroke-width:1.0;"/><text fill="#000000" font-family="sans-serif" font-size="13" lengthAdjust="spacing" textLength="257" x="311" y="1251.6763">markAsyncNonceAsUsed(user, nonce)</text><polygon fill="#181818" points="71,1313.0078,61,1317.0078,71,1321.0078,67,1317.0078" style="stroke:#181818;stroke-width:1.0;"/><line style="stroke:#181818;stroke-width:1.0;stroke-dasharray:2.0,2.0;" x1="65" x2="298" y1="1317.0078" y2="1317.0078"/><text fill="#000000" font-family="sans-serif" font-size="13" lengthAdjust="spacing" textLength="174" x="77" y="1296.8091">Offer accepted successfully</text><text fill="#000000" font-family="sans-serif" font-size="13" lengthAdjust="spacing" textLength="210" x="77" y="1311.9419">Username ownership transferred</text><path d="M309,1282.7422 L309,1322.7422 L480,1322.7422 L480,1292.7422 L470,1282.7422 L309,1282.7422 " fill="#FEFFDD" style="stroke:#181818;stroke-width:0.5;"/><path d="M470,1282.7422 L470,1292.7422 L480,1292.7422 L470,1282.7422 " fill="#FEFFDD" style="stroke:#181818;stroke-width:0.5;"/><text fill="#000000" font-family="sans-serif" font-size="13" lengthAdjust="spacing" textLength="150" x="315" y="1299.8091">Username now belongs</text><text fill="#000000" font-family="sans-serif" font-size="13" lengthAdjust="spacing" textLength="121" x="315" y="1314.9419">to the offer creator</text><!--SRC=[bLRDRXCn4BxxAKRj9Q4j1CI5gYqA8OL8fQte3mU2aEkTJQnwxPNjJOWG4i_2It3dKNWInjvDDjkcIL6a96lFp3UU-Rxn7ZW_KtZ44YEA3BM7xmpW3HUtxwmfTD8pobYOZgL7zeCTFAki6HUUrhUk75gWFnTe9rBW5d071Qsnd5ilXSmvHTmwvHakM-Zw6ROxdLw_tsywzA-lFqHBd4ooODBll-WmvgLN25m8pFrPcXBqfUNQKIxIQ3XMPZhKhVSypsTmplqOzk2Y86Fdqa91_nkA8XYs6MCXHzWxQcIolnovzUTt-BJZIUM4UroPDLjUl1VFQ3KxcsgqP-aWeTfAFsi5vDrOes3RtX1XWbQciq5wQhJ0WUjEk5JyHc4LHeVbJJ6kkP99E8091ziVwhy_Vy70WHzNI-2yL0ecmUvrkLtl9GQfOSO3VikbnKVb-u5ApaTu8KSQasDZkolhgZniHs91RgMnL9nZnA-XzN047M8Xm5giZD_YEPzNjBDxBymkpC52hFYr2bJnKObwU0ZU5XWDLw17Bkv3pcSNdg3jL-vcMhIMCIB4d2yDxeOTL0xNegUSB1uDVmyTTLAVD9hNRjUnCS4xYbpglF1kgBbEeCWZEswuuiGcr_1kLloyIXfIn4Met9eWCIon4soSlyw7A8HWvMZiAT1P7eJ8rQ8C8U9GfpH9KkuyqQwAAlM8XMEnZKpeyS251RjM5q_mcZ0ye_dcssnrl-wKBywP88TI5ANlK7kpK38uL8e6tmELguf53gKT29Fb2ZsLxMx9rf-rpYGC5ZUM-GQ7da9UvSqQJUXz75mEUjsJVUXwaqb1v2z33_KytPqQ1SIOwn4rwTH0dDNKFUT3qhcXFj5CQaXQkcwIMEfWITPMvaPF7NKIRVjnoYxxMRlj3WdTVyGfjqatbh_LXXsQzwso6V04dhVX6Jn_zIhyl0nxTmS2yU9XOOcxW60ZM9dl6bKtcV9MEc_bJK6cBXwz2hDEL-Mf85cu_fUMw9Afe1nX2PGJwb89IWqadcMI6aGNv4v3Re_GrLKv6PGHjvWGTszHExe_Cbgy30ydSOC6_2VfnudbqpZY7UmTqcGfkx833pLe0_RIKxpyFWUXVVaSRxmlK4tgPWYA4UzrgacfqdZjKEPkyHQWPaDzDLTipUqvyorLVbcFI-5PKpoB8DfCuGQLqICNvq5zSmgBd5wIs3y0]--></g></svg>