<?xml version="1.0" encoding="us-ascii" standalone="no"?><svg xmlns="http://www.w3.org/2000/svg" xmlns:xlink="http://www.w3.org/1999/xlink" contentStyleType="text/css" height="1425px" preserveAspectRatio="none" style="width:832px;height:1425px;background:#FFFFFF;" version="1.1" viewBox="0 0 832 1425" width="832px" zoomAndPan="magnify"><defs/><g><text fill="#000000" font-family="sans-serif" font-size="14" font-weight="bold" lengthAdjust="spacing" textLength="223" x="306" y="27.9951">makeOffer Transaction Flow</text><text fill="#000000" font-family="sans-serif" font-size="14" font-weight="bold" lengthAdjust="spacing" textLength="285" x="275" y="44.292">(Happy Path - Successful Execution)</text><rect fill="#FFFFFF" height="21.1328" style="stroke:#181818;stroke-width:1.0;" width="10" x="55" y="144.8906"/><rect fill="#00CEEE" height="1157.1875" style="stroke:#181818;stroke-width:1.0;" width="10" x="248" y="166.0234"/><rect fill="#00EE20" height="137.3359" style="stroke:#181818;stroke-width:1.0;" width="10" x="645" y="448.3516"/><rect fill="#00EE20" height="96.9648" style="stroke:#181818;stroke-width:1.0;" width="10" x="645" y="916.6797"/><rect fill="#FFFFFF" height="90.2031" style="stroke:#000000;stroke-width:1.5;" width="495.5" x="191" y="410.0859"/><rect fill="#FFFFFF" height="43.9375" style="stroke:none;stroke-width:1.0;" width="495.5" x="191" y="456.3516"/><rect fill="#FFFFFF" height="211.0625" style="stroke:#000000;stroke-width:1.5;" width="635" x="191" y="821.1484"/><rect fill="#FFFFFF" height="116.2031" style="stroke:#000000;stroke-width:1.5;" width="415" x="191" y="1118.6094"/><rect fill="#FFFFFF" height="56.9375" style="stroke:none;stroke-width:1.0;" width="415" x="191" y="1177.875"/><line style="stroke:#181818;stroke-width:0.5;stroke-dasharray:5.0,5.0;" x1="60" x2="60" y1="134.8906" y2="1344.2109"/><line style="stroke:#181818;stroke-width:0.5;stroke-dasharray:5.0,5.0;" x1="253" x2="253" y1="134.8906" y2="1344.2109"/><line style="stroke:#181818;stroke-width:0.5;stroke-dasharray:5.0,5.0;" x1="649.5" x2="649.5" y1="134.8906" y2="1344.2109"/><text fill="#000000" font-family="sans-serif" font-size="14" lengthAdjust="spacing" textLength="104" x="5" y="131.5889">User or Service</text><ellipse cx="60" cy="67.0938" fill="#E2E2F0" rx="8" ry="8" style="stroke:#181818;stroke-width:0.5;"/><path d="M60,75.0938 L60,102.0938 M47,83.0938 L73,83.0938 M60,102.0938 L47,117.0938 M60,102.0938 L73,117.0938 " fill="none" style="stroke:#181818;stroke-width:0.5;"/><text fill="#000000" font-family="sans-serif" font-size="14" lengthAdjust="spacing" textLength="104" x="5" y="1356.2061">User or Service</text><ellipse cx="60" cy="1368.0078" fill="#E2E2F0" rx="8" ry="8" style="stroke:#181818;stroke-width:0.5;"/><path d="M60,1376.0078 L60,1403.0078 M47,1384.0078 L73,1384.0078 M60,1403.0078 L47,1418.0078 M60,1403.0078 L73,1418.0078 " fill="none" style="stroke:#181818;stroke-width:0.5;"/><rect fill="#00CEEE" height="30.2969" rx="2.5" ry="2.5" style="stroke:#181818;stroke-width:0.5;" width="104" x="201" y="103.5938"/><text fill="#000000" font-family="sans-serif" font-size="14" lengthAdjust="spacing" textLength="90" x="208" y="123.5889">NameService</text><rect fill="#00CEEE" height="30.2969" rx="2.5" ry="2.5" style="stroke:#181818;stroke-width:0.5;" width="104" x="201" y="1343.2109"/><text fill="#000000" font-family="sans-serif" font-size="14" lengthAdjust="spacing" textLength="90" x="208" y="1363.2061">NameService</text><rect fill="#00EE20" height="30.2969" rx="2.5" ry="2.5" style="stroke:#181818;stroke-width:0.5;" width="53" x="623.5" y="103.5938"/><text fill="#000000" font-family="sans-serif" font-size="14" lengthAdjust="spacing" textLength="39" x="630.5" y="123.5889">EVVM</text><rect fill="#00EE20" height="30.2969" rx="2.5" ry="2.5" style="stroke:#181818;stroke-width:0.5;" width="53" x="623.5" y="1343.2109"/><text fill="#000000" font-family="sans-serif" font-size="14" lengthAdjust="spacing" textLength="39" x="630.5" y="1363.2061">EVVM</text><rect fill="#FFFFFF" height="21.1328" style="stroke:#181818;stroke-width:1.0;" width="10" x="55" y="144.8906"/><rect fill="#00CEEE" height="1157.1875" style="stroke:#181818;stroke-width:1.0;" width="10" x="248" y="166.0234"/><rect fill="#00EE20" height="137.3359" style="stroke:#181818;stroke-width:1.0;" width="10" x="645" y="448.3516"/><rect fill="#00EE20" height="96.9648" style="stroke:#181818;stroke-width:1.0;" width="10" x="645" y="916.6797"/><polygon fill="#181818" points="236,162.0234,246,166.0234,236,170.0234,240,166.0234" style="stroke:#181818;stroke-width:1.0;"/><line style="stroke:#181818;stroke-width:1.0;" x1="60" x2="242" y1="166.0234" y2="166.0234"/><text fill="#000000" font-family="sans-serif" font-size="13" lengthAdjust="spacing" textLength="89" x="67" y="160.9575">makeOffer(&#183;&#183;&#183;)</text><line style="stroke:#181818;stroke-width:1.0;" x1="258" x2="300" y1="195.1563" y2="195.1563"/><line style="stroke:#181818;stroke-width:1.0;" x1="300" x2="300" y1="195.1563" y2="208.1563"/><line style="stroke:#181818;stroke-width:1.0;" x1="259" x2="300" y1="208.1563" y2="208.1563"/><polygon fill="#181818" points="269,204.1563,259,208.1563,269,212.1563,265,208.1563" style="stroke:#181818;stroke-width:1.0;"/><text fill="#000000" font-family="sans-serif" font-size="13" lengthAdjust="spacing" textLength="171" x="265" y="190.0903">verifyAsyncNonce(user, nonce)</text><line style="stroke:#181818;stroke-width:1.0;" x1="258" x2="300" y1="297.8203" y2="297.8203"/><line style="stroke:#181818;stroke-width:1.0;" x1="300" x2="300" y1="297.8203" y2="310.8203"/><line style="stroke:#181818;stroke-width:1.0;" x1="259" x2="300" y1="310.8203" y2="310.8203"/><polygon fill="#181818" points="269,306.8203,259,310.8203,269,314.8203,265,310.8203" style="stroke:#181818;stroke-width:1.0;"/><text fill="#000000" font-family="sans-serif" font-size="13" lengthAdjust="spacing" textLength="158" x="265" y="232.2231">Validate offer conditions:</text><text fill="#000000" font-family="sans-serif" font-size="13" lengthAdjust="spacing" textLength="189" x="265" y="247.356">&#8226; flagNotAUsername != 0x01</text><text fill="#000000" font-family="sans-serif" font-size="13" lengthAdjust="spacing" textLength="212" x="265" y="262.4888">&#8226; verifyIfIdentityExists(username)</text><text fill="#000000" font-family="sans-serif" font-size="13" lengthAdjust="spacing" textLength="89" x="265" y="277.6216">&#8226; amount &gt; 0</text><text fill="#000000" font-family="sans-serif" font-size="13" lengthAdjust="spacing" textLength="208" x="265" y="292.7544">&#8226; expireDate &gt; block.timestamp</text><line style="stroke:#181818;stroke-width:1.0;" x1="258" x2="300" y1="339.9531" y2="339.9531"/><line style="stroke:#181818;stroke-width:1.0;" x1="300" x2="300" y1="339.9531" y2="352.9531"/><line style="stroke:#181818;stroke-width:1.0;" x1="259" x2="300" y1="352.9531" y2="352.9531"/><polygon fill="#181818" points="269,348.9531,259,352.9531,269,356.9531,265,352.9531" style="stroke:#181818;stroke-width:1.0;"/><text fill="#000000" font-family="sans-serif" font-size="13" lengthAdjust="spacing" textLength="242" x="265" y="334.8872">verifyMessageSignedForMakeOffer(&#183;&#183;&#183;)</text><line style="stroke:#181818;stroke-width:1.0;" x1="258" x2="300" y1="382.0859" y2="382.0859"/><line style="stroke:#181818;stroke-width:1.0;" x1="300" x2="300" y1="382.0859" y2="395.0859"/><line style="stroke:#181818;stroke-width:1.0;" x1="259" x2="300" y1="395.0859" y2="395.0859"/><polygon fill="#181818" points="269,391.0859,259,395.0859,269,399.0859,265,395.0859" style="stroke:#181818;stroke-width:1.0;"/><text fill="#000000" font-family="sans-serif" font-size="13" lengthAdjust="spacing" textLength="175" x="265" y="377.02">makePay(user, amount, &#183;&#183;&#183;)</text><path d="M191,410.0859 L255,410.0859 L255,417.2188 L245,427.2188 L191,427.2188 L191,410.0859 " fill="#EEEEEE" style="stroke:#000000;stroke-width:1.5;"/><rect fill="none" height="90.2031" style="stroke:#000000;stroke-width:1.5;" width="495.5" x="191" y="410.0859"/><text fill="#000000" font-family="sans-serif" font-size="13" font-weight="bold" lengthAdjust="spacing" textLength="19" x="206" y="423.1528">alt</text><text fill="#000000" font-family="sans-serif" font-size="11" font-weight="bold" lengthAdjust="spacing" textLength="177" x="270" y="422.2964">[priorityFlag_EVVM == true]</text><polygon fill="#181818" points="633,444.3516,643,448.3516,633,452.3516,637,448.3516" style="stroke:#181818;stroke-width:1.0;"/><line style="stroke:#181818;stroke-width:1.0;" x1="258" x2="639" y1="448.3516" y2="448.3516"/><text fill="#000000" font-family="sans-serif" font-size="13" lengthAdjust="spacing" textLength="131" x="265" y="443.2856">IEvvm.pay(...) (async)</text><line style="stroke:#000000;stroke-width:1.0;stroke-dasharray:2.0,2.0;" x1="191" x2="686.5" y1="457.3516" y2="457.3516"/><text fill="#000000" font-family="sans-serif" font-size="11" font-weight="bold" lengthAdjust="spacing" textLength="183" x="196" y="467.562">[priorityFlag_EVVM == false]</text><polygon fill="#181818" points="633,488.2891,643,492.2891,633,496.2891,637,492.2891" style="stroke:#181818;stroke-width:1.0;"/><line style="stroke:#181818;stroke-width:1.0;" x1="258" x2="639" y1="492.2891" y2="492.2891"/><text fill="#000000" font-family="sans-serif" font-size="13" lengthAdjust="spacing" textLength="123" x="265" y="487.2231">IEvvm.pay(...) (sync)</text><line style="stroke:#181818;stroke-width:1.0;" x1="655" x2="697" y1="543.5547" y2="543.5547"/><line style="stroke:#181818;stroke-width:1.0;" x1="697" x2="697" y1="543.5547" y2="556.5547"/><line style="stroke:#181818;stroke-width:1.0;" x1="656" x2="697" y1="556.5547" y2="556.5547"/><polygon fill="#181818" points="666,552.5547,656,556.5547,666,560.5547,662,556.5547" style="stroke:#181818;stroke-width:1.0;"/><text fill="#000000" font-family="sans-serif" font-size="13" lengthAdjust="spacing" textLength="140" x="662" y="523.356">Verify payment inputs</text><text fill="#000000" font-family="sans-serif" font-size="13" lengthAdjust="spacing" textLength="134" x="662" y="538.4888">and update balances</text><polygon fill="#181818" points="269,581.6875,259,585.6875,269,589.6875,265,585.6875" style="stroke:#181818;stroke-width:1.0;"/><line style="stroke:#181818;stroke-width:1.0;" x1="263" x2="649" y1="585.6875" y2="585.6875"/><text fill="#000000" font-family="sans-serif" font-size="13" lengthAdjust="spacing" textLength="207" x="275" y="580.6216">Payment processed successfully</text><line style="stroke:#181818;stroke-width:1.0;" x1="258" x2="300" y1="675.3516" y2="675.3516"/><line style="stroke:#181818;stroke-width:1.0;" x1="300" x2="300" y1="675.3516" y2="688.3516"/><line style="stroke:#181818;stroke-width:1.0;" x1="259" x2="300" y1="688.3516" y2="688.3516"/><polygon fill="#181818" points="269,684.3516,259,688.3516,269,692.3516,265,688.3516" style="stroke:#181818;stroke-width:1.0;"/><text fill="#000000" font-family="sans-serif" font-size="13" lengthAdjust="spacing" textLength="136" x="265" y="609.7544">Find available offerID:</text><text fill="#000000" font-family="sans-serif" font-size="13" lengthAdjust="spacing" textLength="40" x="265" y="624.8872">while (</text><text fill="#000000" font-family="sans-serif" font-size="13" lengthAdjust="spacing" textLength="369" x="269" y="640.02">usernameOffers[username][offerID].offerer != address(0)</text><text fill="#000000" font-family="sans-serif" font-size="13" lengthAdjust="spacing" textLength="5" x="265" y="655.1528">)</text><text fill="#000000" font-family="sans-serif" font-size="13" lengthAdjust="spacing" textLength="64" x="281" y="670.2856">offerID++</text><line style="stroke:#181818;stroke-width:1.0;" x1="258" x2="300" y1="793.1484" y2="793.1484"/><line style="stroke:#181818;stroke-width:1.0;" x1="300" x2="300" y1="793.1484" y2="806.1484"/><line style="stroke:#181818;stroke-width:1.0;" x1="259" x2="300" y1="806.1484" y2="806.1484"/><polygon fill="#181818" points="269,802.1484,259,806.1484,269,810.1484,265,806.1484" style="stroke:#181818;stroke-width:1.0;"/><text fill="#000000" font-family="sans-serif" font-size="13" lengthAdjust="spacing" textLength="72" x="265" y="712.4185">Store offer:</text><text fill="#000000" font-family="sans-serif" font-size="13" lengthAdjust="spacing" textLength="257" x="265" y="727.5513">usernameOffers[username][offerID] = {</text><text fill="#000000" font-family="sans-serif" font-size="13" lengthAdjust="spacing" textLength="82" x="273" y="742.6841">offerer: user,</text><text fill="#000000" font-family="sans-serif" font-size="13" lengthAdjust="spacing" textLength="152" x="273" y="757.8169">expireDate: expireDate,</text><text fill="#000000" font-family="sans-serif" font-size="13" lengthAdjust="spacing" textLength="201" x="273" y="772.9497">amount: (amount * 995) / 1000</text><text fill="#000000" font-family="sans-serif" font-size="13" lengthAdjust="spacing" textLength="8" x="265" y="788.0825">}</text><path d="M534,719.9844 L534,789.9844 L698,789.9844 L698,729.9844 L688,719.9844 L534,719.9844 " fill="#FEFFDD" style="stroke:#181818;stroke-width:0.5;"/><path d="M688,719.9844 L688,729.9844 L698,729.9844 L688,719.9844 " fill="#FEFFDD" style="stroke:#181818;stroke-width:0.5;"/><text fill="#000000" font-family="sans-serif" font-size="13" lengthAdjust="spacing" textLength="140" x="540" y="737.0513">0.5% marketplace fee</text><text fill="#000000" font-family="sans-serif" font-size="13" lengthAdjust="spacing" textLength="110" x="540" y="752.1841">deducted upfront</text><text fill="#000000" font-family="sans-serif" font-size="13" lengthAdjust="spacing" textLength="127" x="540" y="767.3169">Amount locked until</text><text fill="#000000" font-family="sans-serif" font-size="13" lengthAdjust="spacing" textLength="143" x="540" y="782.4497">accepted or withdrawn</text><path d="M191,821.1484 L255,821.1484 L255,828.2813 L245,838.2813 L191,838.2813 L191,821.1484 " fill="#EEEEEE" style="stroke:#000000;stroke-width:1.5;"/><rect fill="none" height="211.0625" style="stroke:#000000;stroke-width:1.5;" width="635" x="191" y="821.1484"/><text fill="#000000" font-family="sans-serif" font-size="13" font-weight="bold" lengthAdjust="spacing" textLength="19" x="206" y="834.2153">alt</text><text fill="#000000" font-family="sans-serif" font-size="11" font-weight="bold" lengthAdjust="spacing" textLength="197" x="270" y="833.3589">[isAddressStaker(msg.sender)]</text><line style="stroke:#181818;stroke-width:1.0;" x1="258" x2="300" y1="874.5469" y2="874.5469"/><line style="stroke:#181818;stroke-width:1.0;" x1="300" x2="300" y1="874.5469" y2="887.5469"/><line style="stroke:#181818;stroke-width:1.0;" x1="259" x2="300" y1="887.5469" y2="887.5469"/><polygon fill="#181818" points="269,883.5469,259,887.5469,269,891.5469,265,887.5469" style="stroke:#181818;stroke-width:1.0;"/><text fill="#000000" font-family="sans-serif" font-size="13" lengthAdjust="spacing" textLength="161" x="265" y="854.3481">makeCaPay(msg.sender,</text><text fill="#000000" font-family="sans-serif" font-size="13" lengthAdjust="spacing" textLength="263" x="265" y="869.481">getRewardAmount() + priorityFee_EVVM)</text><polygon fill="#181818" points="633,912.6797,643,916.6797,633,920.6797,637,916.6797" style="stroke:#181818;stroke-width:1.0;"/><line style="stroke:#181818;stroke-width:1.0;" x1="258" x2="639" y1="916.6797" y2="916.6797"/><text fill="#000000" font-family="sans-serif" font-size="13" lengthAdjust="spacing" textLength="60" x="265" y="911.6138">caPay(&#183;&#183;&#183;)</text><line style="stroke:#181818;stroke-width:1.0;" x1="655" x2="697" y1="960.9453" y2="960.9453"/><line style="stroke:#181818;stroke-width:1.0;" x1="697" x2="697" y1="960.9453" y2="973.9453"/><line style="stroke:#181818;stroke-width:1.0;" x1="656" x2="697" y1="973.9453" y2="973.9453"/><polygon fill="#181818" points="666,969.9453,656,973.9453,666,977.9453,662,973.9453" style="stroke:#181818;stroke-width:1.0;"/><text fill="#000000" font-family="sans-serif" font-size="13" lengthAdjust="spacing" textLength="129" x="662" y="940.7466">Update balances for</text><text fill="#000000" font-family="sans-serif" font-size="13" lengthAdjust="spacing" textLength="94" x="662" y="955.8794">staker rewards</text><polygon fill="#181818" points="269,1009.6445,259,1013.6445,269,1017.6445,265,1013.6445" style="stroke:#181818;stroke-width:1.0;"/><line style="stroke:#181818;stroke-width:1.0;" x1="263" x2="649" y1="1013.6445" y2="1013.6445"/><text fill="#000000" font-family="sans-serif" font-size="13" lengthAdjust="spacing" textLength="198" x="275" y="1008.5786">Reward distributed successfully</text><path d="M660,986.9453 L660,1026.9453 L811,1026.9453 L811,996.9453 L801,986.9453 L660,986.9453 " fill="#FEFFDD" style="stroke:#181818;stroke-width:0.5;"/><path d="M801,986.9453 L801,996.9453 L811,996.9453 L801,986.9453 " fill="#FEFFDD" style="stroke:#181818;stroke-width:0.5;"/><text fill="#000000" font-family="sans-serif" font-size="13" lengthAdjust="spacing" textLength="129" x="666" y="1004.0122">Only stakers receive</text><text fill="#000000" font-family="sans-serif" font-size="13" lengthAdjust="spacing" textLength="130" x="666" y="1019.145">reward + priority fee</text><line style="stroke:#181818;stroke-width:1.0;" x1="258" x2="300" y1="1090.6094" y2="1090.6094"/><line style="stroke:#181818;stroke-width:1.0;" x1="300" x2="300" y1="1090.6094" y2="1103.6094"/><line style="stroke:#181818;stroke-width:1.0;" x1="259" x2="300" y1="1103.6094" y2="1103.6094"/><polygon fill="#181818" points="269,1099.6094,259,1103.6094,269,1107.6094,265,1103.6094" style="stroke:#181818;stroke-width:1.0;"/><text fill="#000000" font-family="sans-serif" font-size="13" lengthAdjust="spacing" textLength="143" x="265" y="1055.2778">Update locked tokens:</text><text fill="#000000" font-family="sans-serif" font-size="13" lengthAdjust="spacing" textLength="258" x="265" y="1070.4106">principalTokenTokenLockedForWithdrawOffers +=</text><text fill="#000000" font-family="sans-serif" font-size="13" lengthAdjust="spacing" textLength="268" x="265" y="1085.5435">((amount * 995) / 1000) + (amount / 800)</text><path d="M545,1047.7109 L545,1102.7109 L728,1102.7109 L728,1057.7109 L718,1047.7109 L545,1047.7109 " fill="#FEFFDD" style="stroke:#181818;stroke-width:0.5;"/><path d="M718,1047.7109 L718,1057.7109 L728,1057.7109 L718,1047.7109 " fill="#FEFFDD" style="stroke:#181818;stroke-width:0.5;"/><text fill="#000000" font-family="sans-serif" font-size="13" lengthAdjust="spacing" textLength="128" x="551" y="1064.7778">Global lock tracking:</text><text fill="#000000" font-family="sans-serif" font-size="13" lengthAdjust="spacing" textLength="146" x="551" y="1079.9106">Prevents NameService</text><text fill="#000000" font-family="sans-serif" font-size="13" lengthAdjust="spacing" textLength="162" x="551" y="1095.0435">from running out of funds</text><path d="M191,1118.6094 L255,1118.6094 L255,1125.7422 L245,1135.7422 L191,1135.7422 L191,1118.6094 " fill="#EEEEEE" style="stroke:#000000;stroke-width:1.5;"/><rect fill="none" height="116.2031" style="stroke:#000000;stroke-width:1.5;" width="415" x="191" y="1118.6094"/><text fill="#000000" font-family="sans-serif" font-size="13" font-weight="bold" lengthAdjust="spacing" textLength="19" x="206" y="1131.6763">alt</text><text fill="#000000" font-family="sans-serif" font-size="11" font-weight="bold" lengthAdjust="spacing" textLength="331" x="270" y="1130.8198">[offerID &gt; identityDetails[username].offerMaxSlots]</text><line style="stroke:#181818;stroke-width:1.0;" x1="258" x2="300" y1="1156.875" y2="1156.875"/><line style="stroke:#181818;stroke-width:1.0;" x1="300" x2="300" y1="1156.875" y2="1169.875"/><line style="stroke:#181818;stroke-width:1.0;" x1="259" x2="300" y1="1169.875" y2="1169.875"/><polygon fill="#181818" points="269,1165.875,259,1169.875,269,1173.875,265,1169.875" style="stroke:#181818;stroke-width:1.0;"/><text fill="#000000" font-family="sans-serif" font-size="13" lengthAdjust="spacing" textLength="279" x="265" y="1151.8091">identityDetails[username].offerMaxSlots++</text><line style="stroke:#000000;stroke-width:1.0;stroke-dasharray:2.0,2.0;" x1="191" x2="606" y1="1178.875" y2="1178.875"/><text fill="#000000" font-family="sans-serif" font-size="11" font-weight="bold" lengthAdjust="spacing" textLength="304" x="196" y="1189.0854">[identityDetails[username].offerMaxSlots == 0]</text><line style="stroke:#181818;stroke-width:1.0;" x1="258" x2="300" y1="1213.8125" y2="1213.8125"/><line style="stroke:#181818;stroke-width:1.0;" x1="300" x2="300" y1="1213.8125" y2="1226.8125"/><line style="stroke:#181818;stroke-width:1.0;" x1="259" x2="300" y1="1226.8125" y2="1226.8125"/><polygon fill="#181818" points="269,1222.8125,259,1226.8125,269,1230.8125,265,1226.8125" style="stroke:#181818;stroke-width:1.0;"/><text fill="#000000" font-family="sans-serif" font-size="13" lengthAdjust="spacing" textLength="279" x="265" y="1208.7466">identityDetails[username].offerMaxSlots++</text><line style="stroke:#181818;stroke-width:1.0;" x1="258" x2="300" y1="1262.9453" y2="1262.9453"/><line style="stroke:#181818;stroke-width:1.0;" x1="300" x2="300" y1="1262.9453" y2="1275.9453"/><line style="stroke:#181818;stroke-width:1.0;" x1="259" x2="300" y1="1275.9453" y2="1275.9453"/><polygon fill="#181818" points="269,1271.9453,259,1275.9453,269,1279.9453,265,1275.9453" style="stroke:#181818;stroke-width:1.0;"/><text fill="#000000" font-family="sans-serif" font-size="13" lengthAdjust="spacing" textLength="257" x="265" y="1257.8794">markAsyncNonceAsUsed(user, nonce)</text><polygon fill="#181818" points="71,1319.2109,61,1323.2109,71,1327.2109,67,1323.2109" style="stroke:#181818;stroke-width:1.0;"/><line style="stroke:#181818;stroke-width:1.0;stroke-dasharray:2.0,2.0;" x1="65" x2="252" y1="1323.2109" y2="1323.2109"/><text fill="#000000" font-family="sans-serif" font-size="13" lengthAdjust="spacing" textLength="164" x="77" y="1303.0122">Offer created successfully</text><text fill="#000000" font-family="sans-serif" font-size="13" lengthAdjust="spacing" textLength="137" x="77" y="1318.145">with offerID: {offerID}</text><path d="M263,1288.9453 L263,1328.9453 L458,1328.9453 L458,1298.9453 L448,1288.9453 L263,1288.9453 " fill="#FEFFDD" style="stroke:#181818;stroke-width:0.5;"/><path d="M448,1288.9453 L448,1298.9453 L458,1298.9453 L448,1288.9453 " fill="#FEFFDD" style="stroke:#181818;stroke-width:0.5;"/><text fill="#000000" font-family="sans-serif" font-size="13" lengthAdjust="spacing" textLength="144" x="269" y="1306.0122">Offer amount is locked</text><text fill="#000000" font-family="sans-serif" font-size="13" lengthAdjust="spacing" textLength="174" x="269" y="1321.145">until accepted or withdrawn</text><!--SRC=[hLRTRjis5BxNKvob660tQQ8EAB0QTG0lSRe0InhCINeH1mKZ7Jc4AL8bAST2463FqfVe_HvbJz93KhOb9urpCTWN97N-UCxtVT87Ook1-r6gaZ97QU4-0lY39TEFMfKoFL12QRYxvHQZX-Z3NcqTiSJI-TQ5GGsq6A6UyGItW1aewImgcBOyuGMZY5kdBCUcXLpjuLKS7mo7mxR3yFBon5lYR9Oxa-7mjpYABBS28MTJ_9HbbFXSCsce4gua70brDvQTFrbHL736x2syWL6P96XCLWeOpZ4fdM7Nryvdp6AeL2fQQJwvjT03Vvz2gnbFqVJ6yhz_li4vqnEqtjWL7Wv30Iod7jbmCfmNN5UGKk1mC102D7ujkSOK39z8PakD9efS97Yptsf3RtMjph_VtQyRfTYkTBbxgdzHy_1Hy1bgdbN7sQcI2HwRmOnnmMu4BdCzxtx917SN0-MldIYPSjVCHOiomIQdoWukwXx1Bts8v_7Ry7IH_3WbV75R3UVSMDDPDBGRh48lOH_Yi4VNJpnqMVVXHgXakcjvZiQol7ZHRKzez6o28-eyfaTAdpngyFDHt43EMENhtAdBsu6bBnCMNdbY462uqdIn8sh35uTTwFV1wXA9IW1hIJoaUr2mQcGfW_x2J2MJPKtEOpde5lnH67msOyR8uaKfMnbHfb7aJLQcbxw3piDh0fT5QSrOCfb2MNWat33124jcwTbktbdjILno57GCM99HL4reE_yDapZYb9SjC1j0U7n8sADcqBupbajs-W6RgyNs-gesljxr2m8lGPEbAH7HT6A27lrTnsgpxUqDfOn8zkeAAF_6hD27UvUWJjxpTUwuanMyUusrVnIWreDEJOdNyFxzkoximTiu9d8yj2KhtdttAs5LJz4MWb6H6P80fPYMYKKthamhfr634CmHoHqJ4mKDb6PIE3CdyjpUffhToHQskHc4RWNeT78psJK46TJTfw3sc487p95evKPN93dz6- -OJaDDdIvihn2Dw05D3FivaXCVSpDbt9CrP5-quGkPqcDf_Dr8hLrHfkNMlb0e6r8ICCrlIhkEQ-UvZcrt5kxI7DidAIe8UGqbJf3FQ6oXWaOxt3G3GvzjT7shUhXMJT5hSqw7vsxpbtz08lYv7d90B6ptwPtv9CxSJ1OFzk1tEcZ3xgDGr4EVaQIElXUud536Cuqpuhs1nZj_B0c2EUXIIZ82LLhY0sJqTM5QKAj9GtBFwpV58LeYVODOWSKdR3uIofhD07nX8A9zKrrVwEKqD_vVQzWuvyRElyfziEihwTPERFnBfns2OlWFZbxzpP9ePEku9IKbN2o55UxhrKFKLEf6sAWDXkRN42b6ZKFIHwSoyBJ8_000]--></g></svg>