<?xml version="1.0" encoding="us-ascii" standalone="no"?><svg xmlns="http://www.w3.org/2000/svg" xmlns:xlink="http://www.w3.org/1999/xlink" contentStyleType="text/css" height="1456px" preserveAspectRatio="none" style="width:969px;height:1456px;background:#FFFFFF;" version="1.1" viewBox="0 0 969 1456" width="969px" zoomAndPan="magnify"><defs/><g><text fill="#000000" font-family="sans-serif" font-size="14" font-weight="bold" lengthAdjust="spacing" textLength="342" x="314.5" y="27.9951">preRegistrationUsername Transaction Flow</text><text fill="#000000" font-family="sans-serif" font-size="14" font-weight="bold" lengthAdjust="spacing" textLength="227" x="372" y="44.292">(Failed Path - Error Handling)</text><rect fill="#00CEEE" height="1156.7422" style="stroke:#181818;stroke-width:1.0;" width="10" x="345" y="166.0234"/><rect fill="#00EE20" height="283.8047" style="stroke:#181818;stroke-width:1.0;" width="10" x="710" y="536.2266"/><rect fill="#00EE20" height="160.4688" style="stroke:#181818;stroke-width:1.0;" width="10" x="710" y="1162.2969"/><rect fill="#F5B7B1" height="1135.6094" style="stroke:#000000;stroke-width:1.5;" width="952" x="10" y="223.1563"/><rect fill="#FFFFFF" height="1074.2109" style="stroke:none;stroke-width:1.0;" width="952" x="10" y="284.5547"/><rect fill="#F5B7B1" height="1003.2734" style="stroke:#000000;stroke-width:1.5;" width="932" x="20" y="348.4922"/><rect fill="#FFFFFF" height="941.875" style="stroke:none;stroke-width:1.0;" width="932" x="20" y="409.8906"/><rect fill="#FFFFFF" height="403.3359" style="stroke:#000000;stroke-width:1.5;" width="860" x="40" y="431.6953"/><rect fill="#FFFFFF" height="90.2031" style="stroke:#000000;stroke-width:1.5;" width="463.5" x="288" y="497.9609"/><rect fill="#FFFFFF" height="43.9375" style="stroke:none;stroke-width:1.0;" width="463.5" x="288" y="544.2266"/><rect fill="#F5B7B1" height="183.7344" style="stroke:#000000;stroke-width:1.5;" width="840" x="50" y="644.2969"/><rect fill="#FFFFFF" height="86.0703" style="stroke:none;stroke-width:1.0;" width="840" x="50" y="741.9609"/><rect fill="#F5B7B1" height="445.4688" style="stroke:#000000;stroke-width:1.5;" width="912" x="30" y="899.2969"/><rect fill="#FFFFFF" height="384.0703" style="stroke:none;stroke-width:1.0;" width="912" x="30" y="960.6953"/><rect fill="#FFFFFF" height="271" style="stroke:#000000;stroke-width:1.5;" width="892" x="40" y="1066.7656"/><rect fill="#F5B7B1" height="153.4688" style="stroke:#000000;stroke-width:1.5;" width="872" x="50" y="1177.2969"/><rect fill="#FFFFFF" height="86.0703" style="stroke:none;stroke-width:1.0;" width="872" x="50" y="1244.6953"/><line style="stroke:#181818;stroke-width:0.5;stroke-dasharray:5.0,5.0;" x1="115" x2="115" y1="134.8906" y2="1375.7656"/><line style="stroke:#181818;stroke-width:0.5;stroke-dasharray:5.0,5.0;" x1="350" x2="350" y1="134.8906" y2="1375.7656"/><line style="stroke:#181818;stroke-width:0.5;stroke-dasharray:5.0,5.0;" x1="714.5" x2="714.5" y1="134.8906" y2="1375.7656"/><text fill="#000000" font-family="sans-serif" font-size="14" lengthAdjust="spacing" textLength="104" x="60" y="131.5889">User or Service</text><ellipse cx="115" cy="67.0938" fill="#E2E2F0" rx="8" ry="8" style="stroke:#181818;stroke-width:0.5;"/><path d="M115,75.0938 L115,102.0938 M102,83.0938 L128,83.0938 M115,102.0938 L102,117.0938 M115,102.0938 L128,117.0938 " fill="none" style="stroke:#181818;stroke-width:0.5;"/><text fill="#000000" font-family="sans-serif" font-size="14" lengthAdjust="spacing" textLength="104" x="60" y="1387.7607">User or Service</text><ellipse cx="115" cy="1399.5625" fill="#E2E2F0" rx="8" ry="8" style="stroke:#181818;stroke-width:0.5;"/><path d="M115,1407.5625 L115,1434.5625 M102,1415.5625 L128,1415.5625 M115,1434.5625 L102,1449.5625 M115,1434.5625 L128,1449.5625 " fill="none" style="stroke:#181818;stroke-width:0.5;"/><rect fill="#00CEEE" height="30.2969" rx="2.5" ry="2.5" style="stroke:#181818;stroke-width:0.5;" width="104" x="298" y="103.5938"/><text fill="#000000" font-family="sans-serif" font-size="14" lengthAdjust="spacing" textLength="90" x="305" y="123.5889">NameService</text><rect fill="#00CEEE" height="30.2969" rx="2.5" ry="2.5" style="stroke:#181818;stroke-width:0.5;" width="104" x="298" y="1374.7656"/><text fill="#000000" font-family="sans-serif" font-size="14" lengthAdjust="spacing" textLength="90" x="305" y="1394.7607">NameService</text><rect fill="#00EE20" height="30.2969" rx="2.5" ry="2.5" style="stroke:#181818;stroke-width:0.5;" width="53" x="688.5" y="103.5938"/><text fill="#000000" font-family="sans-serif" font-size="14" lengthAdjust="spacing" textLength="39" x="695.5" y="123.5889">EVVM</text><rect fill="#00EE20" height="30.2969" rx="2.5" ry="2.5" style="stroke:#181818;stroke-width:0.5;" width="53" x="688.5" y="1374.7656"/><text fill="#000000" font-family="sans-serif" font-size="14" lengthAdjust="spacing" textLength="39" x="695.5" y="1394.7607">EVVM</text><rect fill="#00CEEE" height="1156.7422" style="stroke:#181818;stroke-width:1.0;" width="10" x="345" y="166.0234"/><rect fill="#00EE20" height="283.8047" style="stroke:#181818;stroke-width:1.0;" width="10" x="710" y="536.2266"/><rect fill="#00EE20" height="160.4688" style="stroke:#181818;stroke-width:1.0;" width="10" x="710" y="1162.2969"/><polygon fill="#181818" points="333,162.0234,343,166.0234,333,170.0234,337,166.0234" style="stroke:#181818;stroke-width:1.0;"/><line style="stroke:#181818;stroke-width:1.0;" x1="115" x2="339" y1="166.0234" y2="166.0234"/><text fill="#000000" font-family="sans-serif" font-size="13" lengthAdjust="spacing" textLength="186" x="122" y="160.9575">preRegistrationUsername(&#183;&#183;&#183;)</text><line style="stroke:#181818;stroke-width:1.0;" x1="355" x2="397" y1="195.1563" y2="195.1563"/><line style="stroke:#181818;stroke-width:1.0;" x1="397" x2="397" y1="195.1563" y2="208.1563"/><line style="stroke:#181818;stroke-width:1.0;" x1="356" x2="397" y1="208.1563" y2="208.1563"/><polygon fill="#181818" points="366,204.1563,356,208.1563,366,212.1563,362,208.1563" style="stroke:#181818;stroke-width:1.0;"/><text fill="#000000" font-family="sans-serif" font-size="13" lengthAdjust="spacing" textLength="171" x="362" y="190.0903">verifyAsyncNonce(user, nonce)</text><path d="M10,223.1563 L74,223.1563 L74,230.2891 L64,240.2891 L10,240.2891 L10,223.1563 " fill="#EEEEEE" style="stroke:#000000;stroke-width:1.5;"/><rect fill="none" height="1135.6094" style="stroke:#000000;stroke-width:1.5;" width="952" x="10" y="223.1563"/><text fill="#000000" font-family="sans-serif" font-size="13" font-weight="bold" lengthAdjust="spacing" textLength="19" x="25" y="236.2231">alt</text><text fill="#000000" font-family="sans-serif" font-size="11" font-weight="bold" lengthAdjust="spacing" textLength="271" x="89" y="235.3667">[nameServiceNonce[user][nonce] == true]</text><line style="stroke:#181818;stroke-width:2.0;" x1="122" x2="132" y1="271.5547" y2="281.5547"/><line style="stroke:#181818;stroke-width:2.0;" x1="122" x2="132" y1="281.5547" y2="271.5547"/><line style="stroke:#181818;stroke-width:1.0;" x1="127" x2="344" y1="276.5547" y2="276.5547"/><text fill="#000000" font-family="sans-serif" font-size="13" lengthAdjust="spacing" textLength="70" x="132" y="256.356">Revert with</text><text fill="#000000" font-family="sans-serif" font-size="13" lengthAdjust="spacing" textLength="122" x="132" y="271.4888">AsyncNonceAlreadyUsed()</text><line style="stroke:#000000;stroke-width:1.0;stroke-dasharray:2.0,2.0;" x1="10" x2="962" y1="285.5547" y2="285.5547"/><text fill="#000000" font-family="sans-serif" font-size="11" font-weight="bold" lengthAdjust="spacing" textLength="128" x="15" y="295.7651">[Nonce is available]</text><line style="stroke:#181818;stroke-width:1.0;" x1="355" x2="397" y1="320.4922" y2="320.4922"/><line style="stroke:#181818;stroke-width:1.0;" x1="397" x2="397" y1="320.4922" y2="333.4922"/><line style="stroke:#181818;stroke-width:1.0;" x1="356" x2="397" y1="333.4922" y2="333.4922"/><polygon fill="#181818" points="366,329.4922,356,333.4922,366,337.4922,362,333.4922" style="stroke:#181818;stroke-width:1.0;"/><text fill="#000000" font-family="sans-serif" font-size="13" lengthAdjust="spacing" textLength="341" x="362" y="315.4263">verifyMessageSignedForPreRegistrationUsername(&#183;&#183;&#183;)</text><path d="M20,348.4922 L84,348.4922 L84,355.625 L74,365.625 L20,365.625 L20,348.4922 " fill="#EEEEEE" style="stroke:#000000;stroke-width:1.5;"/><rect fill="none" height="1003.2734" style="stroke:#000000;stroke-width:1.5;" width="932" x="20" y="348.4922"/><text fill="#000000" font-family="sans-serif" font-size="13" font-weight="bold" lengthAdjust="spacing" textLength="19" x="35" y="361.5591">alt</text><text fill="#000000" font-family="sans-serif" font-size="11" font-weight="bold" lengthAdjust="spacing" textLength="181" x="99" y="360.7026">[Signature verification fails]</text><line style="stroke:#181818;stroke-width:2.0;" x1="122" x2="132" y1="396.8906" y2="406.8906"/><line style="stroke:#181818;stroke-width:2.0;" x1="122" x2="132" y1="406.8906" y2="396.8906"/><line style="stroke:#181818;stroke-width:1.0;" x1="127" x2="344" y1="401.8906" y2="401.8906"/><text fill="#000000" font-family="sans-serif" font-size="13" lengthAdjust="spacing" textLength="70" x="132" y="381.6919">Revert with</text><text fill="#000000" font-family="sans-serif" font-size="13" lengthAdjust="spacing" textLength="206" x="132" y="396.8247">InvalidSignatureOnNameService</text><line style="stroke:#000000;stroke-width:1.0;stroke-dasharray:2.0,2.0;" x1="20" x2="952" y1="410.8906" y2="410.8906"/><text fill="#000000" font-family="sans-serif" font-size="11" font-weight="bold" lengthAdjust="spacing" textLength="122" x="25" y="421.1011">[Signature is valid]</text><path d="M40,431.6953 L104,431.6953 L104,438.8281 L94,448.8281 L40,448.8281 L40,431.6953 " fill="#EEEEEE" style="stroke:#000000;stroke-width:1.5;"/><rect fill="none" height="403.3359" style="stroke:#000000;stroke-width:1.5;" width="860" x="40" y="431.6953"/><text fill="#000000" font-family="sans-serif" font-size="13" font-weight="bold" lengthAdjust="spacing" textLength="19" x="55" y="444.7622">alt</text><text fill="#000000" font-family="sans-serif" font-size="11" font-weight="bold" lengthAdjust="spacing" textLength="146" x="119" y="443.9058">[priorityFee_EVVM &gt; 0]</text><line style="stroke:#181818;stroke-width:1.0;" x1="355" x2="397" y1="469.9609" y2="469.9609"/><line style="stroke:#181818;stroke-width:1.0;" x1="397" x2="397" y1="469.9609" y2="482.9609"/><line style="stroke:#181818;stroke-width:1.0;" x1="356" x2="397" y1="482.9609" y2="482.9609"/><polygon fill="#181818" points="366,478.9609,356,482.9609,366,486.9609,362,482.9609" style="stroke:#181818;stroke-width:1.0;"/><text fill="#000000" font-family="sans-serif" font-size="13" lengthAdjust="spacing" textLength="81" x="362" y="464.895">makePay(&#183;&#183;&#183;)</text><path d="M288,497.9609 L352,497.9609 L352,505.0938 L342,515.0938 L288,515.0938 L288,497.9609 " fill="#EEEEEE" style="stroke:#000000;stroke-width:1.5;"/><rect fill="none" height="90.2031" style="stroke:#000000;stroke-width:1.5;" width="463.5" x="288" y="497.9609"/><text fill="#000000" font-family="sans-serif" font-size="13" font-weight="bold" lengthAdjust="spacing" textLength="19" x="303" y="511.0278">alt</text><text fill="#000000" font-family="sans-serif" font-size="11" font-weight="bold" lengthAdjust="spacing" textLength="177" x="367" y="510.1714">[priorityFlag_EVVM == true]</text><polygon fill="#181818" points="698,532.2266,708,536.2266,698,540.2266,702,536.2266" style="stroke:#181818;stroke-width:1.0;"/><line style="stroke:#181818;stroke-width:1.0;" x1="355" x2="704" y1="536.2266" y2="536.2266"/><text fill="#000000" font-family="sans-serif" font-size="13" lengthAdjust="spacing" textLength="131" x="362" y="531.1606">IEvvm.pay(...) (async)</text><line style="stroke:#000000;stroke-width:1.0;stroke-dasharray:2.0,2.0;" x1="288" x2="751.5" y1="545.2266" y2="545.2266"/><text fill="#000000" font-family="sans-serif" font-size="11" font-weight="bold" lengthAdjust="spacing" textLength="183" x="293" y="555.437">[priorityFlag_EVVM == false]</text><polygon fill="#181818" points="698,576.1641,708,580.1641,698,584.1641,702,580.1641" style="stroke:#181818;stroke-width:1.0;"/><line style="stroke:#181818;stroke-width:1.0;" x1="355" x2="704" y1="580.1641" y2="580.1641"/><text fill="#000000" font-family="sans-serif" font-size="13" lengthAdjust="spacing" textLength="123" x="362" y="575.0981">IEvvm.pay(...) (sync)</text><line style="stroke:#181818;stroke-width:1.0;" x1="720" x2="762" y1="616.2969" y2="616.2969"/><line style="stroke:#181818;stroke-width:1.0;" x1="762" x2="762" y1="616.2969" y2="629.2969"/><line style="stroke:#181818;stroke-width:1.0;" x1="721" x2="762" y1="629.2969" y2="629.2969"/><polygon fill="#181818" points="731,625.2969,721,629.2969,731,633.2969,727,629.2969" style="stroke:#181818;stroke-width:1.0;"/><text fill="#000000" font-family="sans-serif" font-size="13" lengthAdjust="spacing" textLength="140" x="727" y="611.231">Verify payment inputs</text><path d="M50,644.2969 L114,644.2969 L114,651.4297 L104,661.4297 L50,661.4297 L50,644.2969 " fill="#EEEEEE" style="stroke:#000000;stroke-width:1.5;"/><rect fill="none" height="183.7344" style="stroke:#000000;stroke-width:1.5;" width="840" x="50" y="644.2969"/><text fill="#000000" font-family="sans-serif" font-size="13" font-weight="bold" lengthAdjust="spacing" textLength="19" x="65" y="657.3638">alt</text><text fill="#000000" font-family="sans-serif" font-size="11" font-weight="bold" lengthAdjust="spacing" textLength="174" x="129" y="656.5073">[Payment verification fails]</text><line style="stroke:#181818;stroke-width:2.0;" x1="122" x2="132" y1="710.8281" y2="720.8281"/><line style="stroke:#181818;stroke-width:2.0;" x1="122" x2="132" y1="720.8281" y2="710.8281"/><line style="stroke:#181818;stroke-width:1.0;" x1="127" x2="709" y1="715.8281" y2="715.8281"/><text fill="#000000" font-family="sans-serif" font-size="13" lengthAdjust="spacing" textLength="70" x="132" y="695.6294">Revert with</text><text fill="#000000" font-family="sans-serif" font-size="13" lengthAdjust="spacing" textLength="92" x="132" y="710.7622">payment error</text><path d="M725,666.4297 L725,736.4297 L880,736.4297 L880,676.4297 L870,666.4297 L725,666.4297 " fill="#FEFFDD" style="stroke:#181818;stroke-width:0.5;"/><path d="M870,666.4297 L870,676.4297 L880,676.4297 L870,666.4297 " fill="#FEFFDD" style="stroke:#181818;stroke-width:0.5;"/><text fill="#000000" font-family="sans-serif" font-size="13" lengthAdjust="spacing" textLength="60" x="731" y="683.4966">Could be:</text><text fill="#000000" font-family="sans-serif" font-size="13" lengthAdjust="spacing" textLength="134" x="731" y="698.6294">&#8226; Insufficient balance</text><text fill="#000000" font-family="sans-serif" font-size="13" lengthAdjust="spacing" textLength="95" x="731" y="713.7622">&#8226; Invalid nonce</text><text fill="#000000" font-family="sans-serif" font-size="13" lengthAdjust="spacing" textLength="116" x="731" y="728.895">&#8226; Invalid signature</text><line style="stroke:#000000;stroke-width:1.0;stroke-dasharray:2.0,2.0;" x1="50" x2="890" y1="742.9609" y2="742.9609"/><text fill="#000000" font-family="sans-serif" font-size="11" font-weight="bold" lengthAdjust="spacing" textLength="129" x="55" y="753.1714">[Payment succeeds]</text><line style="stroke:#181818;stroke-width:1.0;" x1="720" x2="762" y1="777.8984" y2="777.8984"/><line style="stroke:#181818;stroke-width:1.0;" x1="762" x2="762" y1="777.8984" y2="790.8984"/><line style="stroke:#181818;stroke-width:1.0;" x1="721" x2="762" y1="790.8984" y2="790.8984"/><polygon fill="#181818" points="731,786.8984,721,790.8984,731,794.8984,727,790.8984" style="stroke:#181818;stroke-width:1.0;"/><text fill="#000000" font-family="sans-serif" font-size="13" lengthAdjust="spacing" textLength="108" x="727" y="772.8325">Update balances</text><polygon fill="#181818" points="366,816.0313,356,820.0313,366,824.0313,362,820.0313" style="stroke:#181818;stroke-width:1.0;"/><line style="stroke:#181818;stroke-width:1.0;" x1="360" x2="714" y1="820.0313" y2="820.0313"/><text fill="#000000" font-family="sans-serif" font-size="13" lengthAdjust="spacing" textLength="127" x="372" y="814.9653">Payment processed</text><line style="stroke:#181818;stroke-width:1.0;" x1="355" x2="397" y1="867.2305" y2="867.2305"/><line style="stroke:#181818;stroke-width:1.0;" x1="397" x2="397" y1="867.2305" y2="880.2305"/><line style="stroke:#181818;stroke-width:1.0;" x1="356" x2="397" y1="880.2305" y2="880.2305"/><polygon fill="#181818" points="366,876.2305,356,880.2305,366,884.2305,362,880.2305" style="stroke:#181818;stroke-width:1.0;"/><text fill="#000000" font-family="sans-serif" font-size="13" lengthAdjust="spacing" textLength="265" x="362" y="862.1646">key = @&lt;HashPreRegisteredUsername&gt;</text><path d="M639,847.0313 L639,887.0313 L802,887.0313 L802,857.0313 L792,847.0313 L639,847.0313 " fill="#FEFFDD" style="stroke:#181818;stroke-width:0.5;"/><path d="M792,847.0313 L792,857.0313 L802,857.0313 L792,847.0313 " fill="#FEFFDD" style="stroke:#181818;stroke-width:0.5;"/><text fill="#000000" font-family="sans-serif" font-size="13" lengthAdjust="spacing" textLength="104" x="645" y="864.0981">Hash collision or</text><text fill="#000000" font-family="sans-serif" font-size="13" lengthAdjust="spacing" textLength="142" x="645" y="879.231">already pre-registered</text><path d="M30,899.2969 L94,899.2969 L94,906.4297 L84,916.4297 L30,916.4297 L30,899.2969 " fill="#EEEEEE" style="stroke:#000000;stroke-width:1.5;"/><rect fill="none" height="445.4688" style="stroke:#000000;stroke-width:1.5;" width="912" x="30" y="899.2969"/><text fill="#000000" font-family="sans-serif" font-size="13" font-weight="bold" lengthAdjust="spacing" textLength="19" x="45" y="912.3638">alt</text><text fill="#000000" font-family="sans-serif" font-size="11" font-weight="bold" lengthAdjust="spacing" textLength="230" x="109" y="911.5073">[identityDetails[key] already exists]</text><line style="stroke:#181818;stroke-width:2.0;" x1="122" x2="132" y1="947.6953" y2="957.6953"/><line style="stroke:#181818;stroke-width:2.0;" x1="122" x2="132" y1="957.6953" y2="947.6953"/><line style="stroke:#181818;stroke-width:1.0;" x1="127" x2="344" y1="952.6953" y2="952.6953"/><text fill="#000000" font-family="sans-serif" font-size="13" lengthAdjust="spacing" textLength="70" x="132" y="932.4966">Revert with</text><text fill="#000000" font-family="sans-serif" font-size="13" lengthAdjust="spacing" textLength="132" x="132" y="947.6294">IdentityAlreadyExists</text><line style="stroke:#000000;stroke-width:1.0;stroke-dasharray:2.0,2.0;" x1="30" x2="942" y1="961.6953" y2="961.6953"/><text fill="#000000" font-family="sans-serif" font-size="11" font-weight="bold" lengthAdjust="spacing" textLength="120" x="35" y="971.9058">[Hash is available]</text><line style="stroke:#181818;stroke-width:1.0;" x1="355" x2="397" y1="996.6328" y2="996.6328"/><line style="stroke:#181818;stroke-width:1.0;" x1="397" x2="397" y1="996.6328" y2="1009.6328"/><line style="stroke:#181818;stroke-width:1.0;" x1="356" x2="397" y1="1009.6328" y2="1009.6328"/><polygon fill="#181818" points="366,1005.6328,356,1009.6328,366,1013.6328,362,1009.6328" style="stroke:#181818;stroke-width:1.0;"/><text fill="#000000" font-family="sans-serif" font-size="13" lengthAdjust="spacing" textLength="198" x="362" y="991.5669">set waiting period (30 minutes)</text><line style="stroke:#181818;stroke-width:1.0;" x1="355" x2="397" y1="1038.7656" y2="1038.7656"/><line style="stroke:#181818;stroke-width:1.0;" x1="397" x2="397" y1="1038.7656" y2="1051.7656"/><line style="stroke:#181818;stroke-width:1.0;" x1="356" x2="397" y1="1051.7656" y2="1051.7656"/><polygon fill="#181818" points="366,1047.7656,356,1051.7656,366,1055.7656,362,1051.7656" style="stroke:#181818;stroke-width:1.0;"/><text fill="#000000" font-family="sans-serif" font-size="13" lengthAdjust="spacing" textLength="257" x="362" y="1033.6997">nameServiceNonce[user][nonce] = true</text><path d="M40,1066.7656 L104,1066.7656 L104,1073.8984 L94,1083.8984 L40,1083.8984 L40,1066.7656 " fill="#EEEEEE" style="stroke:#000000;stroke-width:1.5;"/><rect fill="none" height="271" style="stroke:#000000;stroke-width:1.5;" width="892" x="40" y="1066.7656"/><text fill="#000000" font-family="sans-serif" font-size="13" font-weight="bold" lengthAdjust="spacing" textLength="19" x="55" y="1079.8325">alt</text><text fill="#000000" font-family="sans-serif" font-size="11" font-weight="bold" lengthAdjust="spacing" textLength="197" x="119" y="1078.9761">[isAddressStaker(msg.sender)]</text><line style="stroke:#181818;stroke-width:1.0;" x1="355" x2="397" y1="1120.1641" y2="1120.1641"/><line style="stroke:#181818;stroke-width:1.0;" x1="397" x2="397" y1="1120.1641" y2="1133.1641"/><line style="stroke:#181818;stroke-width:1.0;" x1="356" x2="397" y1="1133.1641" y2="1133.1641"/><polygon fill="#181818" points="366,1129.1641,356,1133.1641,366,1137.1641,362,1133.1641" style="stroke:#181818;stroke-width:1.0;"/><text fill="#000000" font-family="sans-serif" font-size="13" lengthAdjust="spacing" textLength="161" x="362" y="1099.9653">makeCaPay(msg.sender,</text><text fill="#000000" font-family="sans-serif" font-size="13" lengthAdjust="spacing" textLength="275" x="362" y="1115.0981">getRewardAmount(...) + priorityFee_EVVM)</text><polygon fill="#181818" points="698,1158.2969,708,1162.2969,698,1166.2969,702,1162.2969" style="stroke:#181818;stroke-width:1.0;"/><line style="stroke:#181818;stroke-width:1.0;" x1="355" x2="704" y1="1162.2969" y2="1162.2969"/><text fill="#000000" font-family="sans-serif" font-size="13" lengthAdjust="spacing" textLength="60" x="362" y="1157.231">caPay(&#183;&#183;&#183;)</text><path d="M50,1177.2969 L114,1177.2969 L114,1184.4297 L104,1194.4297 L50,1194.4297 L50,1177.2969 " fill="#EEEEEE" style="stroke:#000000;stroke-width:1.5;"/><rect fill="none" height="153.4688" style="stroke:#000000;stroke-width:1.5;" width="872" x="50" y="1177.2969"/><text fill="#000000" font-family="sans-serif" font-size="13" font-weight="bold" lengthAdjust="spacing" textLength="19" x="65" y="1190.3638">alt</text><text fill="#000000" font-family="sans-serif" font-size="11" font-weight="bold" lengthAdjust="spacing" textLength="80" x="129" y="1189.5073">[caPay fails]</text><line style="stroke:#181818;stroke-width:2.0;" x1="122" x2="132" y1="1228.6953" y2="1238.6953"/><line style="stroke:#181818;stroke-width:2.0;" x1="122" x2="132" y1="1238.6953" y2="1228.6953"/><line style="stroke:#181818;stroke-width:1.0;" x1="127" x2="709" y1="1233.6953" y2="1233.6953"/><text fill="#000000" font-family="sans-serif" font-size="13" lengthAdjust="spacing" textLength="70" x="132" y="1213.4966">Revert with</text><text fill="#000000" font-family="sans-serif" font-size="13" lengthAdjust="spacing" textLength="73" x="132" y="1228.6294">caPay error</text><path d="M725,1199.4297 L725,1239.4297 L899,1239.4297 L899,1209.4297 L889,1199.4297 L725,1199.4297 " fill="#FEFFDD" style="stroke:#181818;stroke-width:0.5;"/><path d="M889,1199.4297 L889,1209.4297 L899,1209.4297 L889,1199.4297 " fill="#FEFFDD" style="stroke:#181818;stroke-width:0.5;"/><text fill="#000000" font-family="sans-serif" font-size="13" lengthAdjust="spacing" textLength="153" x="731" y="1216.4966">Contract balance issues</text><text fill="#000000" font-family="sans-serif" font-size="13" lengthAdjust="spacing" textLength="134" x="731" y="1231.6294">or other EVVM errors</text><line style="stroke:#000000;stroke-width:1.0;stroke-dasharray:2.0,2.0;" x1="50" x2="922" y1="1245.6953" y2="1245.6953"/><text fill="#000000" font-family="sans-serif" font-size="11" font-weight="bold" lengthAdjust="spacing" textLength="112" x="55" y="1255.9058">[caPay succeeds]</text><line style="stroke:#181818;stroke-width:1.0;" x1="720" x2="762" y1="1280.6328" y2="1280.6328"/><line style="stroke:#181818;stroke-width:1.0;" x1="762" x2="762" y1="1280.6328" y2="1293.6328"/><line style="stroke:#181818;stroke-width:1.0;" x1="721" x2="762" y1="1293.6328" y2="1293.6328"/><polygon fill="#181818" points="731,1289.6328,721,1293.6328,731,1297.6328,727,1293.6328" style="stroke:#181818;stroke-width:1.0;"/><text fill="#000000" font-family="sans-serif" font-size="13" lengthAdjust="spacing" textLength="183" x="727" y="1275.5669">Update balances for rewards</text><polygon fill="#181818" points="361,1318.7656,351,1322.7656,361,1326.7656,357,1322.7656" style="stroke:#181818;stroke-width:1.0;"/><line style="stroke:#181818;stroke-width:1.0;" x1="355" x2="714" y1="1322.7656" y2="1322.7656"/><text fill="#000000" font-family="sans-serif" font-size="13" lengthAdjust="spacing" textLength="118" x="367" y="1317.6997">Reward distributed</text><!--SRC=[bLRDRXen4BxxAKR91TI6qbPLfIX1fHGQ3abHqkGIeiYi1x2oU97jXQ2gKf-bBz5x7wLFqh5XbztiRY3aaFsP-RvlFEFFUsBiAiGM4r4Gpr1P-C60VfzvyF1LHx4IdIYCD2odqYBxoKxURE8P3omzFxWsg84khb0lP807m0t4z8pDkROoa7DEc0SNV8RP2BMzXyDcizFjTlC9tPkRSn-9YyNCXNIxxvgCCIjjY33NU8aJQQpcLaRAQN28y5rpPKWOFODU62s7gjRZCaG10swdS0HThKdh6LSYb6fIPyn9XQDMJj1n5Nxjxn_tLtUromMtM5e7opuiG2zGo_6gFxw8L81zqrwGFZuAjzYCXnOEnnz67qTlixa-uTRflRjLxleEJa_1wXXzmtAaZxu5n7Q9n6TXAUrqg3n2EzJ8nOfA4ZwFOMX8k-yl-0YG1dWYYnN1ooiwHsFu1A_aHA7eHNgmOmazRhPKbybjh74DA0EV1sCIOdpmdbNsrOA7KgHmtrHc-58WVv4jVKjFvNi4bWPxcUkmkPQHbdRLGxntCmejQAPnEvTgnXzmm5Vf8cGJMUwkZ3BaapLdjk_FSFkjGyFCLrUMYFKzDoiLb99xocIeSrik6v5Thr9LOquHBvPLgGgLo2zHvOt7t6BV-95q5DxIf9h7rbHdPyTmiCbvPWZpfELJc52ZCvpYYaIqWbfEffRoEb4S2XZXyL3z-_KR-ih4OsAMBdt4GqvRCddZvnByxiy_CidqLlOhgSl4GO0eggf9b_1wBjmiR0HKX-S7F66PwuYI4e_9_WJcvco_VhiNRAyTze0hE8LF9sVSJ5CBGeqYCQ3MasszQRiK99l6-GjQr-jRmhcZ0E-LW8y4ab-2N0ST6GHH64hZfYNIGvMaqabof5CHrKvHuMKRLHlJxXPriB9UUpr55zzh0GqIEPUMZaUOqnw81DJUDs4cLMpHr5-0jEFiMbjObUb9qnP2qmYjFQ8sCvE6eJ50NT_bBqNBxN1dkbk8rqCrGNk9Iwv5UqOVERRMQ3JgyAfWxq_ghNQpW5Vv-dxMMl2afmFg2IgCQ9SPhNFBhQZ4ZXITsK7gFTGA4wCPAlfmYkoKqBtRUxGIMyYCuPgsqd1scmwCYLFxDZsVdc_vkh4WtCU77D7OYjBaZ1EfaY-4VKshpBYAvrFMm99ezz-_g53o7m00]--></g></svg>