<?xml version="1.0" encoding="us-ascii" standalone="no"?><svg xmlns="http://www.w3.org/2000/svg" xmlns:xlink="http://www.w3.org/1999/xlink" contentStyleType="text/css" height="972px" preserveAspectRatio="none" style="width:817px;height:972px;background:#FFFFFF;" version="1.1" viewBox="0 0 817 972" width="817px" zoomAndPan="magnify"><defs/><g><text fill="#000000" font-family="sans-serif" font-size="14" font-weight="bold" lengthAdjust="spacing" textLength="342" x="239" y="27.9951">preRegistrationUsername Transaction Flow</text><text fill="#000000" font-family="sans-serif" font-size="14" font-weight="bold" lengthAdjust="spacing" textLength="285" x="267.5" y="44.292">(Happy Path - Successful Execution)</text><rect fill="#00CEEE" height="690.1602" style="stroke:#181818;stroke-width:1.0;" width="10" x="265" y="166.0234"/><rect fill="#00EE20" height="137.3359" style="stroke:#181818;stroke-width:1.0;" width="10" x="630" y="369.8203"/><rect fill="#00EE20" height="96.9648" style="stroke:#181818;stroke-width:1.0;" width="10" x="630" y="759.2188"/><rect fill="#FFFFFF" height="249.8672" style="stroke:#000000;stroke-width:1.5;" width="601" x="198" y="265.2891"/><rect fill="#FFFFFF" height="90.2031" style="stroke:#000000;stroke-width:1.5;" width="463.5" x="208" y="331.5547"/><rect fill="#FFFFFF" height="43.9375" style="stroke:none;stroke-width:1.0;" width="463.5" x="208" y="377.8203"/><rect fill="#FFFFFF" height="195.9297" style="stroke:#000000;stroke-width:1.5;" width="603" x="208" y="678.8203"/><line style="stroke:#181818;stroke-width:0.5;stroke-dasharray:5.0,5.0;" x1="60" x2="60" y1="134.8906" y2="891.75"/><line style="stroke:#181818;stroke-width:0.5;stroke-dasharray:5.0,5.0;" x1="270" x2="270" y1="134.8906" y2="891.75"/><line style="stroke:#181818;stroke-width:0.5;stroke-dasharray:5.0,5.0;" x1="634.5" x2="634.5" y1="134.8906" y2="891.75"/><text fill="#000000" font-family="sans-serif" font-size="14" lengthAdjust="spacing" textLength="104" x="5" y="131.5889">User or Service</text><ellipse cx="60" cy="67.0938" fill="#E2E2F0" rx="8" ry="8" style="stroke:#181818;stroke-width:0.5;"/><path d="M60,75.0938 L60,102.0938 M47,83.0938 L73,83.0938 M60,102.0938 L47,117.0938 M60,102.0938 L73,117.0938 " fill="none" style="stroke:#181818;stroke-width:0.5;"/><text fill="#000000" font-family="sans-serif" font-size="14" lengthAdjust="spacing" textLength="104" x="5" y="903.7451">User or Service</text><ellipse cx="60" cy="915.5469" fill="#E2E2F0" rx="8" ry="8" style="stroke:#181818;stroke-width:0.5;"/><path d="M60,923.5469 L60,950.5469 M47,931.5469 L73,931.5469 M60,950.5469 L47,965.5469 M60,950.5469 L73,965.5469 " fill="none" style="stroke:#181818;stroke-width:0.5;"/><rect fill="#00CEEE" height="30.2969" rx="2.5" ry="2.5" style="stroke:#181818;stroke-width:0.5;" width="104" x="218" y="103.5938"/><text fill="#000000" font-family="sans-serif" font-size="14" lengthAdjust="spacing" textLength="90" x="225" y="123.5889">NameService</text><rect fill="#00CEEE" height="30.2969" rx="2.5" ry="2.5" style="stroke:#181818;stroke-width:0.5;" width="104" x="218" y="890.75"/><text fill="#000000" font-family="sans-serif" font-size="14" lengthAdjust="spacing" textLength="90" x="225" y="910.7451">NameService</text><rect fill="#00EE20" height="30.2969" rx="2.5" ry="2.5" style="stroke:#181818;stroke-width:0.5;" width="53" x="608.5" y="103.5938"/><text fill="#000000" font-family="sans-serif" font-size="14" lengthAdjust="spacing" textLength="39" x="615.5" y="123.5889">EVVM</text><rect fill="#00EE20" height="30.2969" rx="2.5" ry="2.5" style="stroke:#181818;stroke-width:0.5;" width="53" x="608.5" y="890.75"/><text fill="#000000" font-family="sans-serif" font-size="14" lengthAdjust="spacing" textLength="39" x="615.5" y="910.7451">EVVM</text><rect fill="#00CEEE" height="690.1602" style="stroke:#181818;stroke-width:1.0;" width="10" x="265" y="166.0234"/><rect fill="#00EE20" height="137.3359" style="stroke:#181818;stroke-width:1.0;" width="10" x="630" y="369.8203"/><rect fill="#00EE20" height="96.9648" style="stroke:#181818;stroke-width:1.0;" width="10" x="630" y="759.2188"/><polygon fill="#181818" points="253,162.0234,263,166.0234,253,170.0234,257,166.0234" style="stroke:#181818;stroke-width:1.0;"/><line style="stroke:#181818;stroke-width:1.0;" x1="60" x2="259" y1="166.0234" y2="166.0234"/><text fill="#000000" font-family="sans-serif" font-size="13" lengthAdjust="spacing" textLength="186" x="67" y="160.9575">preRegistrationUsername(&#183;&#183;&#183;)</text><line style="stroke:#181818;stroke-width:1.0;" x1="275" x2="317" y1="195.1563" y2="195.1563"/><line style="stroke:#181818;stroke-width:1.0;" x1="317" x2="317" y1="195.1563" y2="208.1563"/><line style="stroke:#181818;stroke-width:1.0;" x1="276" x2="317" y1="208.1563" y2="208.1563"/><polygon fill="#181818" points="286,204.1563,276,208.1563,286,212.1563,282,208.1563" style="stroke:#181818;stroke-width:1.0;"/><text fill="#000000" font-family="sans-serif" font-size="13" lengthAdjust="spacing" textLength="171" x="282" y="190.0903">verifyIfNonceIsAvailable(&#183;&#183;&#183;)</text><line style="stroke:#181818;stroke-width:1.0;" x1="275" x2="317" y1="237.2891" y2="237.2891"/><line style="stroke:#181818;stroke-width:1.0;" x1="317" x2="317" y1="237.2891" y2="250.2891"/><line style="stroke:#181818;stroke-width:1.0;" x1="276" x2="317" y1="250.2891" y2="250.2891"/><polygon fill="#181818" points="286,246.2891,276,250.2891,286,254.2891,282,250.2891" style="stroke:#181818;stroke-width:1.0;"/><text fill="#000000" font-family="sans-serif" font-size="13" lengthAdjust="spacing" textLength="341" x="282" y="232.2231">verifyMessageSignedForPreRegistrationUsername(&#183;&#183;&#183;)</text><path d="M198,265.2891 L262,265.2891 L262,272.4219 L252,282.4219 L198,282.4219 L198,265.2891 " fill="#EEEEEE" style="stroke:#000000;stroke-width:1.5;"/><rect fill="none" height="249.8672" style="stroke:#000000;stroke-width:1.5;" width="601" x="198" y="265.2891"/><text fill="#000000" font-family="sans-serif" font-size="13" font-weight="bold" lengthAdjust="spacing" textLength="19" x="213" y="278.356">alt</text><text fill="#000000" font-family="sans-serif" font-size="11" font-weight="bold" lengthAdjust="spacing" textLength="146" x="277" y="277.4995">[priorityFee_EVVM &gt; 0]</text><line style="stroke:#181818;stroke-width:1.0;" x1="275" x2="317" y1="303.5547" y2="303.5547"/><line style="stroke:#181818;stroke-width:1.0;" x1="317" x2="317" y1="303.5547" y2="316.5547"/><line style="stroke:#181818;stroke-width:1.0;" x1="276" x2="317" y1="316.5547" y2="316.5547"/><polygon fill="#181818" points="286,312.5547,276,316.5547,286,320.5547,282,316.5547" style="stroke:#181818;stroke-width:1.0;"/><text fill="#000000" font-family="sans-serif" font-size="13" lengthAdjust="spacing" textLength="81" x="282" y="298.4888">makePay(&#183;&#183;&#183;)</text><path d="M208,331.5547 L272,331.5547 L272,338.6875 L262,348.6875 L208,348.6875 L208,331.5547 " fill="#EEEEEE" style="stroke:#000000;stroke-width:1.5;"/><rect fill="none" height="90.2031" style="stroke:#000000;stroke-width:1.5;" width="463.5" x="208" y="331.5547"/><text fill="#000000" font-family="sans-serif" font-size="13" font-weight="bold" lengthAdjust="spacing" textLength="19" x="223" y="344.6216">alt</text><text fill="#000000" font-family="sans-serif" font-size="11" font-weight="bold" lengthAdjust="spacing" textLength="177" x="287" y="343.7651">[priorityFlag_EVVM == true]</text><polygon fill="#181818" points="618,365.8203,628,369.8203,618,373.8203,622,369.8203" style="stroke:#181818;stroke-width:1.0;"/><line style="stroke:#181818;stroke-width:1.0;" x1="275" x2="624" y1="369.8203" y2="369.8203"/><text fill="#000000" font-family="sans-serif" font-size="13" lengthAdjust="spacing" textLength="131" x="282" y="364.7544">payStaker_async(&#183;&#183;&#183;)</text><line style="stroke:#000000;stroke-width:1.0;stroke-dasharray:2.0,2.0;" x1="208" x2="671.5" y1="378.8203" y2="378.8203"/><text fill="#000000" font-family="sans-serif" font-size="11" font-weight="bold" lengthAdjust="spacing" textLength="183" x="213" y="389.0308">[priorityFlag_EVVM == false]</text><polygon fill="#181818" points="618,409.7578,628,413.7578,618,417.7578,622,413.7578" style="stroke:#181818;stroke-width:1.0;"/><line style="stroke:#181818;stroke-width:1.0;" x1="275" x2="624" y1="413.7578" y2="413.7578"/><text fill="#000000" font-family="sans-serif" font-size="13" lengthAdjust="spacing" textLength="123" x="282" y="408.6919">payStaker_sync(&#183;&#183;&#183;)</text><line style="stroke:#181818;stroke-width:1.0;" x1="640" x2="682" y1="465.0234" y2="465.0234"/><line style="stroke:#181818;stroke-width:1.0;" x1="682" x2="682" y1="465.0234" y2="478.0234"/><line style="stroke:#181818;stroke-width:1.0;" x1="641" x2="682" y1="478.0234" y2="478.0234"/><polygon fill="#181818" points="651,474.0234,641,478.0234,651,482.0234,647,478.0234" style="stroke:#181818;stroke-width:1.0;"/><text fill="#000000" font-family="sans-serif" font-size="13" lengthAdjust="spacing" textLength="140" x="647" y="444.8247">Verify payment inputs</text><text fill="#000000" font-family="sans-serif" font-size="13" lengthAdjust="spacing" textLength="134" x="647" y="459.9575">and update balances</text><polygon fill="#181818" points="286,503.1563,276,507.1563,286,511.1563,282,507.1563" style="stroke:#181818;stroke-width:1.0;"/><line style="stroke:#181818;stroke-width:1.0;" x1="280" x2="634" y1="507.1563" y2="507.1563"/><text fill="#000000" font-family="sans-serif" font-size="13" lengthAdjust="spacing" textLength="207" x="292" y="502.0903">Payment processed successfully</text><line style="stroke:#181818;stroke-width:1.0;" x1="275" x2="317" y1="543.2891" y2="543.2891"/><line style="stroke:#181818;stroke-width:1.0;" x1="317" x2="317" y1="543.2891" y2="556.2891"/><line style="stroke:#181818;stroke-width:1.0;" x1="276" x2="317" y1="556.2891" y2="556.2891"/><polygon fill="#181818" points="286,552.2891,276,556.2891,286,560.2891,282,556.2891" style="stroke:#181818;stroke-width:1.0;"/><text fill="#000000" font-family="sans-serif" font-size="13" lengthAdjust="spacing" textLength="265" x="282" y="538.2231">key = @&lt;HashPreRegisteredUsername&gt;</text><line style="stroke:#181818;stroke-width:1.0;" x1="275" x2="317" y1="597.0547" y2="597.0547"/><line style="stroke:#181818;stroke-width:1.0;" x1="317" x2="317" y1="597.0547" y2="610.0547"/><line style="stroke:#181818;stroke-width:1.0;" x1="276" x2="317" y1="610.0547" y2="610.0547"/><polygon fill="#181818" points="286,606.0547,276,610.0547,286,614.0547,282,610.0547" style="stroke:#181818;stroke-width:1.0;"/><text fill="#000000" font-family="sans-serif" font-size="13" lengthAdjust="spacing" textLength="198" x="282" y="591.9888">set waiting period (30 minutes)</text><path d="M492,569.2891 L492,624.2891 L668,624.2891 L668,579.2891 L658,569.2891 L492,569.2891 " fill="#FEFFDD" style="stroke:#181818;stroke-width:0.5;"/><path d="M658,569.2891 L658,579.2891 L668,579.2891 L658,569.2891 " fill="#FEFFDD" style="stroke:#181818;stroke-width:0.5;"/><text fill="#000000" font-family="sans-serif" font-size="13" lengthAdjust="spacing" textLength="119" x="498" y="586.356">30-minute window:</text><text fill="#000000" font-family="sans-serif" font-size="13" lengthAdjust="spacing" textLength="155" x="498" y="601.4888">Must reveal and register</text><text fill="#000000" font-family="sans-serif" font-size="13" lengthAdjust="spacing" textLength="134" x="498" y="616.6216">within this timeframe</text><line style="stroke:#181818;stroke-width:1.0;" x1="275" x2="317" y1="650.8203" y2="650.8203"/><line style="stroke:#181818;stroke-width:1.0;" x1="317" x2="317" y1="650.8203" y2="663.8203"/><line style="stroke:#181818;stroke-width:1.0;" x1="276" x2="317" y1="663.8203" y2="663.8203"/><polygon fill="#181818" points="286,659.8203,276,663.8203,286,667.8203,282,663.8203" style="stroke:#181818;stroke-width:1.0;"/><text fill="#000000" font-family="sans-serif" font-size="13" lengthAdjust="spacing" textLength="257" x="282" y="645.7544">nameServiceNonce[user][nonce] = true</text><path d="M208,678.8203 L272,678.8203 L272,685.9531 L262,695.9531 L208,695.9531 L208,678.8203 " fill="#EEEEEE" style="stroke:#000000;stroke-width:1.5;"/><rect fill="none" height="195.9297" style="stroke:#000000;stroke-width:1.5;" width="603" x="208" y="678.8203"/><text fill="#000000" font-family="sans-serif" font-size="13" font-weight="bold" lengthAdjust="spacing" textLength="19" x="223" y="691.8872">alt</text><text fill="#000000" font-family="sans-serif" font-size="11" font-weight="bold" lengthAdjust="spacing" textLength="197" x="287" y="691.0308">[isAddressStaker(msg.sender)]</text><line style="stroke:#181818;stroke-width:1.0;" x1="275" x2="317" y1="717.0859" y2="717.0859"/><line style="stroke:#181818;stroke-width:1.0;" x1="317" x2="317" y1="717.0859" y2="730.0859"/><line style="stroke:#181818;stroke-width:1.0;" x1="276" x2="317" y1="730.0859" y2="730.0859"/><polygon fill="#181818" points="286,726.0859,276,730.0859,286,734.0859,282,730.0859" style="stroke:#181818;stroke-width:1.0;"/><text fill="#000000" font-family="sans-serif" font-size="13" lengthAdjust="spacing" textLength="94" x="282" y="712.02">makeCaPay(..)</text><polygon fill="#181818" points="618,755.2188,628,759.2188,618,763.2188,622,759.2188" style="stroke:#181818;stroke-width:1.0;"/><line style="stroke:#181818;stroke-width:1.0;" x1="275" x2="624" y1="759.2188" y2="759.2188"/><text fill="#000000" font-family="sans-serif" font-size="13" lengthAdjust="spacing" textLength="60" x="282" y="754.1528">caPay(&#183;&#183;&#183;)</text><line style="stroke:#181818;stroke-width:1.0;" x1="640" x2="682" y1="803.4844" y2="803.4844"/><line style="stroke:#181818;stroke-width:1.0;" x1="682" x2="682" y1="803.4844" y2="816.4844"/><line style="stroke:#181818;stroke-width:1.0;" x1="641" x2="682" y1="816.4844" y2="816.4844"/><polygon fill="#181818" points="651,812.4844,641,816.4844,651,820.4844,647,816.4844" style="stroke:#181818;stroke-width:1.0;"/><text fill="#000000" font-family="sans-serif" font-size="13" lengthAdjust="spacing" textLength="129" x="647" y="783.2856">Update balances for</text><text fill="#000000" font-family="sans-serif" font-size="13" lengthAdjust="spacing" textLength="94" x="647" y="798.4185">staker rewards</text><polygon fill="#181818" points="281,852.1836,271,856.1836,281,860.1836,277,856.1836" style="stroke:#181818;stroke-width:1.0;"/><line style="stroke:#181818;stroke-width:1.0;" x1="275" x2="634" y1="856.1836" y2="856.1836"/><text fill="#000000" font-family="sans-serif" font-size="13" lengthAdjust="spacing" textLength="198" x="287" y="851.1177">Reward distributed successfully</text><path d="M645,829.4844 L645,869.4844 L796,869.4844 L796,839.4844 L786,829.4844 L645,829.4844 " fill="#FEFFDD" style="stroke:#181818;stroke-width:0.5;"/><path d="M786,829.4844 L786,839.4844 L796,839.4844 L786,829.4844 " fill="#FEFFDD" style="stroke:#181818;stroke-width:0.5;"/><text fill="#000000" font-family="sans-serif" font-size="13" lengthAdjust="spacing" textLength="99" x="651" y="846.5513">Staker receives</text><text fill="#000000" font-family="sans-serif" font-size="13" lengthAdjust="spacing" textLength="130" x="651" y="861.6841">reward + priority fee</text><!--SRC=[ZLHTRzem57tFhxXgNq0J7MgrFQ0MhKDqHLehLDg-bAeozWrO97PaEs7HjD-rz_soNJi54fL2GOB4kH_dddjEpgqh4-n7GlCyHUNWTmJq-SxuyeVHkH83dMW3guLq6Fs9pZ-_naUCEpe_Uh1eW2ucQ0h9yGYOXPpEeemP9xdC6DKykcKfrYFKzXwEkzt1S3Xi9WmV7sz291P5waE6mzDk53df4eJCu1tEfNM6EQcLX-0BmhrXoX8kEeEhHA-cgdNDigo4CNCBwC0avnojZVC4Xh-Gvpwm7KLAEmGZvmi7FGZpS8FCeUrDrH8vPylJBrzR-RhB9w0sGgUtUJf3qvwggHhSZUv7WykVFHWRB8X52x7HodLChfHKy-aMuq8AWGfovMG2fZP55FaEqEatoEczDsphtr__ROT5o8BWxYGrgX- -gLsWaN4vYc-ruZYobmMJ2PibjU8VoRyXJjaS9tAkK5nfCpw4E6A9W-CWAHfFQYDTUONuufSEVUW61UvjdB8bZbcvBUapTbLDsBmgUt41pkHOHUwe7tH6RBDougYuUM6sL7pJO9sr8RkXI_y44ujxsyUC8ZxS_artL2ByLnE4-6tUOrY4JmyUbYhBdPqgqYdacV1uPonXj6JRo6wIEdxDpepsDa41TcEOf0o90Xi4L80yilqwMM895_3j_9hPnKOTQ52ijT4_KC2YWnMJZhm46Ssg1RJEkf1AbPDFsqqBdtKxrGDOIJBgYcnyari7tfei0K-AUKKmLIlf5b81_LXmCiNOKEC3Q6ftmJbFthdFJyfVFyDQQ7MLItifX24gg-ssKZi_iSGRlJy-9lO1yt8_EQd2e_SLn5dT5mSasnJHGrCf46lYnmR0HDYA6R5FFNSX0eJtlPmH-_lbKqj-NrbXpFfg9siq76M1fF0A5xsJrvQ3634eyZy0]--></g></svg>