<?xml version="1.0" encoding="us-ascii" standalone="no"?><svg xmlns="http://www.w3.org/2000/svg" xmlns:xlink="http://www.w3.org/1999/xlink" contentStyleType="text/css" height="2073px" preserveAspectRatio="none" style="width:1078px;height:2073px;background:#FFFFFF;" version="1.1" viewBox="0 0 1078 2073" width="1078px" zoomAndPan="magnify"><defs/><g><text fill="#000000" font-family="sans-serif" font-size="14" font-weight="bold" lengthAdjust="spacing" textLength="312" x="384" y="27.9951">registrationUsername Transaction Flow</text><text fill="#000000" font-family="sans-serif" font-size="14" font-weight="bold" lengthAdjust="spacing" textLength="227" x="426.5" y="44.292">(Failed Path - Error Handling)</text><rect fill="#00CEEE" height="1816.2734" style="stroke:#181818;stroke-width:1.0;" width="10" x="455" y="166.0234"/><rect fill="#00EE20" height="283.8047" style="stroke:#181818;stroke-width:1.0;" width="10" x="799" y="864.625"/><rect fill="#00EE20" height="160.4688" style="stroke:#181818;stroke-width:1.0;" width="10" x="799" y="1607.4922"/><rect fill="#F5B7B1" height="1752.1406" style="stroke:#000000;stroke-width:1.5;" width="1061" x="10" y="223.1563"/><rect fill="#FFFFFF" height="1690.7422" style="stroke:none;stroke-width:1.0;" width="1061" x="10" y="284.5547"/><rect fill="#FFFFFF" height="155.7969" style="stroke:#000000;stroke-width:1.5;" width="625" x="60" y="306.3594"/><rect fill="#F5B7B1" height="82.5313" style="stroke:#000000;stroke-width:1.5;" width="605" x="70" y="372.625"/><rect fill="#F5B7B1" height="1450.0078" style="stroke:#000000;stroke-width:1.5;" width="1041" x="20" y="518.2891"/><rect fill="#FFFFFF" height="1382.6094" style="stroke:none;stroke-width:1.0;" width="1041" x="20" y="585.6875"/><rect fill="#F5B7B1" height="1311.6719" style="stroke:#000000;stroke-width:1.5;" width="1021" x="30" y="649.625"/><rect fill="#FFFFFF" height="1198.875" style="stroke:none;stroke-width:1.0;" width="1021" x="30" y="762.4219"/><rect fill="#FFFFFF" height="90.2031" style="stroke:#000000;stroke-width:1.5;" width="442.5" x="398" y="826.3594"/><rect fill="#FFFFFF" height="43.9375" style="stroke:none;stroke-width:1.0;" width="442.5" x="398" y="872.625"/><rect fill="#F5B7B1" height="981.6016" style="stroke:#000000;stroke-width:1.5;" width="1001" x="40" y="972.6953"/><rect fill="#FFFFFF" height="883.9375" style="stroke:none;stroke-width:1.0;" width="1001" x="40" y="1070.3594"/><rect fill="#F5B7B1" height="699.6016" style="stroke:#000000;stroke-width:1.5;" width="981" x="50" y="1247.6953"/><rect fill="#FFFFFF" height="601.9375" style="stroke:none;stroke-width:1.0;" width="981" x="50" y="1345.3594"/><rect fill="#FFFFFF" height="428.3359" style="stroke:#000000;stroke-width:1.5;" width="961" x="60" y="1511.9609"/><rect fill="#F5B7B1" height="224.7344" style="stroke:#000000;stroke-width:1.5;" width="941" x="70" y="1622.4922"/><rect fill="#FFFFFF" height="157.3359" style="stroke:none;stroke-width:1.0;" width="941" x="70" y="1689.8906"/><rect fill="#FFFFFF" height="86.0703" style="stroke:none;stroke-width:1.0;" width="961" x="60" y="1854.2266"/><line style="stroke:#181818;stroke-width:0.5;stroke-dasharray:5.0,5.0;" x1="135" x2="135" y1="134.8906" y2="1992.2969"/><line style="stroke:#181818;stroke-width:0.5;stroke-dasharray:5.0,5.0;" x1="460" x2="460" y1="134.8906" y2="1992.2969"/><line style="stroke:#181818;stroke-width:0.5;stroke-dasharray:5.0,5.0;" x1="803.5" x2="803.5" y1="134.8906" y2="1992.2969"/><text fill="#000000" font-family="sans-serif" font-size="14" lengthAdjust="spacing" textLength="104" x="80" y="131.5889">User or Service</text><ellipse cx="135" cy="67.0938" fill="#E2E2F0" rx="8" ry="8" style="stroke:#181818;stroke-width:0.5;"/><path d="M135,75.0938 L135,102.0938 M122,83.0938 L148,83.0938 M135,102.0938 L122,117.0938 M135,102.0938 L148,117.0938 " fill="none" style="stroke:#181818;stroke-width:0.5;"/><text fill="#000000" font-family="sans-serif" font-size="14" lengthAdjust="spacing" textLength="104" x="80" y="2004.292">User or Service</text><ellipse cx="135" cy="2016.0938" fill="#E2E2F0" rx="8" ry="8" style="stroke:#181818;stroke-width:0.5;"/><path d="M135,2024.0938 L135,2051.0938 M122,2032.0938 L148,2032.0938 M135,2051.0938 L122,2066.0938 M135,2051.0938 L148,2066.0938 " fill="none" style="stroke:#181818;stroke-width:0.5;"/><rect fill="#00CEEE" height="30.2969" rx="2.5" ry="2.5" style="stroke:#181818;stroke-width:0.5;" width="104" x="408" y="103.5938"/><text fill="#000000" font-family="sans-serif" font-size="14" lengthAdjust="spacing" textLength="90" x="415" y="123.5889">NameService</text><rect fill="#00CEEE" height="30.2969" rx="2.5" ry="2.5" style="stroke:#181818;stroke-width:0.5;" width="104" x="408" y="1991.2969"/><text fill="#000000" font-family="sans-serif" font-size="14" lengthAdjust="spacing" textLength="90" x="415" y="2011.292">NameService</text><rect fill="#00EE20" height="30.2969" rx="2.5" ry="2.5" style="stroke:#181818;stroke-width:0.5;" width="53" x="777.5" y="103.5938"/><text fill="#000000" font-family="sans-serif" font-size="14" lengthAdjust="spacing" textLength="39" x="784.5" y="123.5889">EVVM</text><rect fill="#00EE20" height="30.2969" rx="2.5" ry="2.5" style="stroke:#181818;stroke-width:0.5;" width="53" x="777.5" y="1991.2969"/><text fill="#000000" font-family="sans-serif" font-size="14" lengthAdjust="spacing" textLength="39" x="784.5" y="2011.292">EVVM</text><rect fill="#00CEEE" height="1816.2734" style="stroke:#181818;stroke-width:1.0;" width="10" x="455" y="166.0234"/><rect fill="#00EE20" height="283.8047" style="stroke:#181818;stroke-width:1.0;" width="10" x="799" y="864.625"/><rect fill="#00EE20" height="160.4688" style="stroke:#181818;stroke-width:1.0;" width="10" x="799" y="1607.4922"/><polygon fill="#181818" points="443,162.0234,453,166.0234,443,170.0234,447,166.0234" style="stroke:#181818;stroke-width:1.0;"/><line style="stroke:#181818;stroke-width:1.0;" x1="135" x2="449" y1="166.0234" y2="166.0234"/><text fill="#000000" font-family="sans-serif" font-size="13" lengthAdjust="spacing" textLength="162" x="142" y="160.9575">registrationUsername(&#183;&#183;&#183;)</text><line style="stroke:#181818;stroke-width:1.0;" x1="465" x2="507" y1="195.1563" y2="195.1563"/><line style="stroke:#181818;stroke-width:1.0;" x1="507" x2="507" y1="195.1563" y2="208.1563"/><line style="stroke:#181818;stroke-width:1.0;" x1="466" x2="507" y1="208.1563" y2="208.1563"/><polygon fill="#181818" points="476,204.1563,466,208.1563,476,212.1563,472,208.1563" style="stroke:#181818;stroke-width:1.0;"/><text fill="#000000" font-family="sans-serif" font-size="13" lengthAdjust="spacing" textLength="171" x="472" y="190.0903">verifyIfNonceIsAvailable(&#183;&#183;&#183;)</text><path d="M10,223.1563 L74,223.1563 L74,230.2891 L64,240.2891 L10,240.2891 L10,223.1563 " fill="#EEEEEE" style="stroke:#000000;stroke-width:1.5;"/><rect fill="none" height="1752.1406" style="stroke:#000000;stroke-width:1.5;" width="1061" x="10" y="223.1563"/><text fill="#000000" font-family="sans-serif" font-size="13" font-weight="bold" lengthAdjust="spacing" textLength="19" x="25" y="236.2231">alt</text><text fill="#000000" font-family="sans-serif" font-size="11" font-weight="bold" lengthAdjust="spacing" textLength="271" x="89" y="235.3667">[nameServiceNonce[user][nonce] == true]</text><line style="stroke:#181818;stroke-width:2.0;" x1="142" x2="152" y1="271.5547" y2="281.5547"/><line style="stroke:#181818;stroke-width:2.0;" x1="142" x2="152" y1="281.5547" y2="271.5547"/><line style="stroke:#181818;stroke-width:1.0;" x1="147" x2="454" y1="276.5547" y2="276.5547"/><text fill="#000000" font-family="sans-serif" font-size="13" lengthAdjust="spacing" textLength="70" x="152" y="256.356">Revert with</text><text fill="#000000" font-family="sans-serif" font-size="13" lengthAdjust="spacing" textLength="122" x="152" y="271.4888">NonceAlreadyUsed</text><line style="stroke:#000000;stroke-width:1.0;stroke-dasharray:2.0,2.0;" x1="10" x2="1071" y1="285.5547" y2="285.5547"/><text fill="#000000" font-family="sans-serif" font-size="11" font-weight="bold" lengthAdjust="spacing" textLength="128" x="15" y="295.7651">[Nonce is available]</text><path d="M60,306.3594 L124,306.3594 L124,313.4922 L114,323.4922 L60,323.4922 L60,306.3594 " fill="#EEEEEE" style="stroke:#000000;stroke-width:1.5;"/><rect fill="none" height="155.7969" style="stroke:#000000;stroke-width:1.5;" width="625" x="60" y="306.3594"/><text fill="#000000" font-family="sans-serif" font-size="13" font-weight="bold" lengthAdjust="spacing" textLength="19" x="75" y="319.4263">alt</text><text fill="#000000" font-family="sans-serif" font-size="11" font-weight="bold" lengthAdjust="spacing" textLength="149" x="139" y="318.5698">[user != admin.current]</text><line style="stroke:#181818;stroke-width:1.0;" x1="465" x2="507" y1="344.625" y2="344.625"/><line style="stroke:#181818;stroke-width:1.0;" x1="507" x2="507" y1="344.625" y2="357.625"/><line style="stroke:#181818;stroke-width:1.0;" x1="466" x2="507" y1="357.625" y2="357.625"/><polygon fill="#181818" points="476,353.625,466,357.625,476,361.625,472,357.625" style="stroke:#181818;stroke-width:1.0;"/><text fill="#000000" font-family="sans-serif" font-size="13" lengthAdjust="spacing" textLength="183" x="472" y="339.5591">isValidUsername(username)</text><path d="M70,372.625 L134,372.625 L134,379.7578 L124,389.7578 L70,389.7578 L70,372.625 " fill="#EEEEEE" style="stroke:#000000;stroke-width:1.5;"/><rect fill="none" height="82.5313" style="stroke:#000000;stroke-width:1.5;" width="605" x="70" y="372.625"/><text fill="#000000" font-family="sans-serif" font-size="13" font-weight="bold" lengthAdjust="spacing" textLength="19" x="85" y="385.6919">alt</text><text fill="#000000" font-family="sans-serif" font-size="11" font-weight="bold" lengthAdjust="spacing" textLength="254" x="149" y="384.8354">[Invalid username characters or length]</text><line style="stroke:#181818;stroke-width:2.0;" x1="142" x2="152" y1="431.5898" y2="441.5898"/><line style="stroke:#181818;stroke-width:2.0;" x1="142" x2="152" y1="441.5898" y2="431.5898"/><line style="stroke:#181818;stroke-width:1.0;" x1="147" x2="454" y1="436.5898" y2="436.5898"/><text fill="#000000" font-family="sans-serif" font-size="13" lengthAdjust="spacing" textLength="70" x="152" y="416.3911">Revert with</text><text fill="#000000" font-family="sans-serif" font-size="13" lengthAdjust="spacing" textLength="107" x="152" y="431.5239">InvalidUsername</text><path d="M470,394.7578 L470,449.7578 L665,449.7578 L665,404.7578 L655,394.7578 L470,394.7578 " fill="#FEFFDD" style="stroke:#181818;stroke-width:0.5;"/><path d="M655,394.7578 L655,404.7578 L665,404.7578 L655,394.7578 " fill="#FEFFDD" style="stroke:#181818;stroke-width:0.5;"/><text fill="#000000" font-family="sans-serif" font-size="13" lengthAdjust="spacing" textLength="174" x="476" y="411.8247">Username validation failed:</text><text fill="#000000" font-family="sans-serif" font-size="13" lengthAdjust="spacing" textLength="124" x="476" y="426.9575">&#8226; Invalid characters</text><text fill="#000000" font-family="sans-serif" font-size="13" lengthAdjust="spacing" textLength="148" x="476" y="442.0903">&#8226; Length out of bounds</text><line style="stroke:#181818;stroke-width:1.0;" x1="465" x2="507" y1="490.2891" y2="490.2891"/><line style="stroke:#181818;stroke-width:1.0;" x1="507" x2="507" y1="490.2891" y2="503.2891"/><line style="stroke:#181818;stroke-width:1.0;" x1="466" x2="507" y1="503.2891" y2="503.2891"/><polygon fill="#181818" points="476,499.2891,466,503.2891,476,507.2891,472,503.2891" style="stroke:#181818;stroke-width:1.0;"/><text fill="#000000" font-family="sans-serif" font-size="13" lengthAdjust="spacing" textLength="209" x="472" y="485.2231">isUsernameAvailable(username)</text><path d="M20,518.2891 L84,518.2891 L84,525.4219 L74,535.4219 L20,535.4219 L20,518.2891 " fill="#EEEEEE" style="stroke:#000000;stroke-width:1.5;"/><rect fill="none" height="1450.0078" style="stroke:#000000;stroke-width:1.5;" width="1041" x="20" y="518.2891"/><text fill="#000000" font-family="sans-serif" font-size="13" font-weight="bold" lengthAdjust="spacing" textLength="19" x="35" y="531.356">alt</text><text fill="#000000" font-family="sans-serif" font-size="11" font-weight="bold" lengthAdjust="spacing" textLength="196" x="99" y="530.4995">[Username already registered]</text><line style="stroke:#181818;stroke-width:2.0;" x1="142" x2="152" y1="569.6875" y2="579.6875"/><line style="stroke:#181818;stroke-width:2.0;" x1="142" x2="152" y1="579.6875" y2="569.6875"/><line style="stroke:#181818;stroke-width:1.0;" x1="147" x2="454" y1="574.6875" y2="574.6875"/><text fill="#000000" font-family="sans-serif" font-size="13" lengthAdjust="spacing" textLength="70" x="152" y="554.4888">Revert with</text><text fill="#000000" font-family="sans-serif" font-size="13" lengthAdjust="spacing" textLength="183" x="152" y="569.6216">UsernameAlreadyRegistered</text><path d="M470,540.4219 L470,580.4219 L632,580.4219 L632,550.4219 L622,540.4219 L470,540.4219 " fill="#FEFFDD" style="stroke:#181818;stroke-width:0.5;"/><path d="M622,540.4219 L622,550.4219 L632,550.4219 L622,540.4219 " fill="#FEFFDD" style="stroke:#181818;stroke-width:0.5;"/><text fill="#000000" font-family="sans-serif" font-size="13" lengthAdjust="spacing" textLength="132" x="476" y="557.4888">Username is already</text><text fill="#000000" font-family="sans-serif" font-size="13" lengthAdjust="spacing" textLength="141" x="476" y="572.6216">taken by another user</text><line style="stroke:#000000;stroke-width:1.0;stroke-dasharray:2.0,2.0;" x1="20" x2="1061" y1="586.6875" y2="586.6875"/><text fill="#000000" font-family="sans-serif" font-size="11" font-weight="bold" lengthAdjust="spacing" textLength="152" x="25" y="596.8979">[Username is available]</text><line style="stroke:#181818;stroke-width:1.0;" x1="465" x2="507" y1="621.625" y2="621.625"/><line style="stroke:#181818;stroke-width:1.0;" x1="507" x2="507" y1="621.625" y2="634.625"/><line style="stroke:#181818;stroke-width:1.0;" x1="466" x2="507" y1="634.625" y2="634.625"/><polygon fill="#181818" points="476,630.625,466,634.625,476,638.625,472,634.625" style="stroke:#181818;stroke-width:1.0;"/><text fill="#000000" font-family="sans-serif" font-size="13" lengthAdjust="spacing" textLength="320" x="472" y="616.5591">verifyMessageSignedForRegistrationUsername(&#183;&#183;&#183;)</text><path d="M30,649.625 L94,649.625 L94,656.7578 L84,666.7578 L30,666.7578 L30,649.625 " fill="#EEEEEE" style="stroke:#000000;stroke-width:1.5;"/><rect fill="none" height="1311.6719" style="stroke:#000000;stroke-width:1.5;" width="1021" x="30" y="649.625"/><text fill="#000000" font-family="sans-serif" font-size="13" font-weight="bold" lengthAdjust="spacing" textLength="19" x="45" y="662.6919">alt</text><text fill="#000000" font-family="sans-serif" font-size="11" font-weight="bold" lengthAdjust="spacing" textLength="181" x="109" y="661.8354">[Signature verification fails]</text><line style="stroke:#181818;stroke-width:2.0;" x1="142" x2="152" y1="723.7227" y2="733.7227"/><line style="stroke:#181818;stroke-width:2.0;" x1="142" x2="152" y1="733.7227" y2="723.7227"/><line style="stroke:#181818;stroke-width:1.0;" x1="147" x2="454" y1="728.7227" y2="728.7227"/><text fill="#000000" font-family="sans-serif" font-size="13" lengthAdjust="spacing" textLength="70" x="152" y="708.5239">Revert with</text><text fill="#000000" font-family="sans-serif" font-size="13" lengthAdjust="spacing" textLength="206" x="152" y="723.6567">InvalidSignatureOnNameService</text><path d="M470,671.7578 L470,756.7578 L620,756.7578 L620,681.7578 L610,671.7578 L470,671.7578 " fill="#FEFFDD" style="stroke:#181818;stroke-width:0.5;"/><path d="M610,671.7578 L610,681.7578 L620,681.7578 L610,671.7578 " fill="#FEFFDD" style="stroke:#181818;stroke-width:0.5;"/><text fill="#000000" font-family="sans-serif" font-size="13" lengthAdjust="spacing" textLength="129" x="476" y="688.8247">Invalid signature for:</text><text fill="#000000" font-family="sans-serif" font-size="13" lengthAdjust="spacing" textLength="40" x="476" y="703.9575">&#8226; user</text><text fill="#000000" font-family="sans-serif" font-size="13" lengthAdjust="spacing" textLength="77" x="476" y="719.0903">&#8226; username</text><text fill="#000000" font-family="sans-serif" font-size="13" lengthAdjust="spacing" textLength="91" x="476" y="734.2231">&#8226; clowNumber</text><text fill="#000000" font-family="sans-serif" font-size="13" lengthAdjust="spacing" textLength="51" x="476" y="749.356">&#8226; nonce</text><line style="stroke:#000000;stroke-width:1.0;stroke-dasharray:2.0,2.0;" x1="30" x2="1051" y1="763.4219" y2="763.4219"/><text fill="#000000" font-family="sans-serif" font-size="11" font-weight="bold" lengthAdjust="spacing" textLength="122" x="35" y="773.6323">[Signature is valid]</text><line style="stroke:#181818;stroke-width:1.0;" x1="465" x2="507" y1="798.3594" y2="798.3594"/><line style="stroke:#181818;stroke-width:1.0;" x1="507" x2="507" y1="798.3594" y2="811.3594"/><line style="stroke:#181818;stroke-width:1.0;" x1="466" x2="507" y1="811.3594" y2="811.3594"/><polygon fill="#181818" points="476,807.3594,466,811.3594,476,815.3594,472,811.3594" style="stroke:#181818;stroke-width:1.0;"/><text fill="#000000" font-family="sans-serif" font-size="13" lengthAdjust="spacing" textLength="81" x="472" y="793.2935">makePay(&#183;&#183;&#183;)</text><path d="M398,826.3594 L462,826.3594 L462,833.4922 L452,843.4922 L398,843.4922 L398,826.3594 " fill="#EEEEEE" style="stroke:#000000;stroke-width:1.5;"/><rect fill="none" height="90.2031" style="stroke:#000000;stroke-width:1.5;" width="442.5" x="398" y="826.3594"/><text fill="#000000" font-family="sans-serif" font-size="13" font-weight="bold" lengthAdjust="spacing" textLength="19" x="413" y="839.4263">alt</text><text fill="#000000" font-family="sans-serif" font-size="11" font-weight="bold" lengthAdjust="spacing" textLength="177" x="477" y="838.5698">[priorityFlag_EVVM == true]</text><polygon fill="#181818" points="787,860.625,797,864.625,787,868.625,791,864.625" style="stroke:#181818;stroke-width:1.0;"/><line style="stroke:#181818;stroke-width:1.0;" x1="465" x2="793" y1="864.625" y2="864.625"/><text fill="#000000" font-family="sans-serif" font-size="13" lengthAdjust="spacing" textLength="131" x="472" y="859.5591">payStaker_async(&#183;&#183;&#183;)</text><line style="stroke:#000000;stroke-width:1.0;stroke-dasharray:2.0,2.0;" x1="398" x2="840.5" y1="873.625" y2="873.625"/><text fill="#000000" font-family="sans-serif" font-size="11" font-weight="bold" lengthAdjust="spacing" textLength="183" x="403" y="883.8354">[priorityFlag_EVVM == false]</text><polygon fill="#181818" points="787,904.5625,797,908.5625,787,912.5625,791,908.5625" style="stroke:#181818;stroke-width:1.0;"/><line style="stroke:#181818;stroke-width:1.0;" x1="465" x2="793" y1="908.5625" y2="908.5625"/><text fill="#000000" font-family="sans-serif" font-size="13" lengthAdjust="spacing" textLength="123" x="472" y="903.4966">payStaker_sync(&#183;&#183;&#183;)</text><line style="stroke:#181818;stroke-width:1.0;" x1="809" x2="851" y1="944.6953" y2="944.6953"/><line style="stroke:#181818;stroke-width:1.0;" x1="851" x2="851" y1="944.6953" y2="957.6953"/><line style="stroke:#181818;stroke-width:1.0;" x1="810" x2="851" y1="957.6953" y2="957.6953"/><polygon fill="#181818" points="820,953.6953,810,957.6953,820,961.6953,816,957.6953" style="stroke:#181818;stroke-width:1.0;"/><text fill="#000000" font-family="sans-serif" font-size="13" lengthAdjust="spacing" textLength="140" x="816" y="939.6294">Verify payment inputs</text><path d="M40,972.6953 L104,972.6953 L104,979.8281 L94,989.8281 L40,989.8281 L40,972.6953 " fill="#EEEEEE" style="stroke:#000000;stroke-width:1.5;"/><rect fill="none" height="981.6016" style="stroke:#000000;stroke-width:1.5;" width="1001" x="40" y="972.6953"/><text fill="#000000" font-family="sans-serif" font-size="13" font-weight="bold" lengthAdjust="spacing" textLength="19" x="55" y="985.7622">alt</text><text fill="#000000" font-family="sans-serif" font-size="11" font-weight="bold" lengthAdjust="spacing" textLength="174" x="119" y="984.9058">[Payment verification fails]</text><line style="stroke:#181818;stroke-width:2.0;" x1="142" x2="152" y1="1039.2266" y2="1049.2266"/><line style="stroke:#181818;stroke-width:2.0;" x1="142" x2="152" y1="1049.2266" y2="1039.2266"/><line style="stroke:#181818;stroke-width:1.0;" x1="147" x2="798" y1="1044.2266" y2="1044.2266"/><text fill="#000000" font-family="sans-serif" font-size="13" lengthAdjust="spacing" textLength="70" x="152" y="1024.0278">Revert with</text><text fill="#000000" font-family="sans-serif" font-size="13" lengthAdjust="spacing" textLength="92" x="152" y="1039.1606">payment error</text><path d="M814,994.8281 L814,1064.8281 L992,1064.8281 L992,1004.8281 L982,994.8281 L814,994.8281 " fill="#FEFFDD" style="stroke:#181818;stroke-width:0.5;"/><path d="M982,994.8281 L982,1004.8281 L992,1004.8281 L982,994.8281 " fill="#FEFFDD" style="stroke:#181818;stroke-width:0.5;"/><text fill="#000000" font-family="sans-serif" font-size="13" lengthAdjust="spacing" textLength="60" x="820" y="1011.895">Could be:</text><text fill="#000000" font-family="sans-serif" font-size="13" lengthAdjust="spacing" textLength="134" x="820" y="1027.0278">&#8226; Insufficient balance</text><text fill="#000000" font-family="sans-serif" font-size="13" lengthAdjust="spacing" textLength="136" x="820" y="1042.1606">&#8226; Invalid EVVM nonce</text><text fill="#000000" font-family="sans-serif" font-size="13" lengthAdjust="spacing" textLength="157" x="820" y="1057.2935">&#8226; Invalid EVVM signature</text><line style="stroke:#000000;stroke-width:1.0;stroke-dasharray:2.0,2.0;" x1="40" x2="1041" y1="1071.3594" y2="1071.3594"/><text fill="#000000" font-family="sans-serif" font-size="11" font-weight="bold" lengthAdjust="spacing" textLength="129" x="45" y="1081.5698">[Payment succeeds]</text><line style="stroke:#181818;stroke-width:1.0;" x1="809" x2="851" y1="1106.2969" y2="1106.2969"/><line style="stroke:#181818;stroke-width:1.0;" x1="851" x2="851" y1="1106.2969" y2="1119.2969"/><line style="stroke:#181818;stroke-width:1.0;" x1="810" x2="851" y1="1119.2969" y2="1119.2969"/><polygon fill="#181818" points="820,1115.2969,810,1119.2969,820,1123.2969,816,1119.2969" style="stroke:#181818;stroke-width:1.0;"/><text fill="#000000" font-family="sans-serif" font-size="13" lengthAdjust="spacing" textLength="108" x="816" y="1101.231">Update balances</text><polygon fill="#181818" points="476,1144.4297,466,1148.4297,476,1152.4297,472,1148.4297" style="stroke:#181818;stroke-width:1.0;"/><line style="stroke:#181818;stroke-width:1.0;" x1="470" x2="803" y1="1148.4297" y2="1148.4297"/><text fill="#000000" font-family="sans-serif" font-size="13" lengthAdjust="spacing" textLength="127" x="482" y="1143.3638">Payment processed</text><line style="stroke:#181818;stroke-width:1.0;" x1="465" x2="507" y1="1177.5625" y2="1177.5625"/><line style="stroke:#181818;stroke-width:1.0;" x1="507" x2="507" y1="1177.5625" y2="1190.5625"/><line style="stroke:#181818;stroke-width:1.0;" x1="466" x2="507" y1="1190.5625" y2="1190.5625"/><polygon fill="#181818" points="476,1186.5625,466,1190.5625,476,1194.5625,472,1190.5625" style="stroke:#181818;stroke-width:1.0;"/><text fill="#000000" font-family="sans-serif" font-size="13" lengthAdjust="spacing" textLength="265" x="472" y="1172.4966">key = @&lt;HashPreRegisteredUsername&gt;</text><line style="stroke:#181818;stroke-width:1.0;" x1="465" x2="507" y1="1219.6953" y2="1219.6953"/><line style="stroke:#181818;stroke-width:1.0;" x1="507" x2="507" y1="1219.6953" y2="1232.6953"/><line style="stroke:#181818;stroke-width:1.0;" x1="466" x2="507" y1="1232.6953" y2="1232.6953"/><polygon fill="#181818" points="476,1228.6953,466,1232.6953,476,1236.6953,472,1232.6953" style="stroke:#181818;stroke-width:1.0;"/><text fill="#000000" font-family="sans-serif" font-size="13" lengthAdjust="spacing" textLength="172" x="472" y="1214.6294">Verify pre-registration data</text><path d="M50,1247.6953 L114,1247.6953 L114,1254.8281 L104,1264.8281 L50,1264.8281 L50,1247.6953 " fill="#EEEEEE" style="stroke:#000000;stroke-width:1.5;"/><rect fill="none" height="699.6016" style="stroke:#000000;stroke-width:1.5;" width="981" x="50" y="1247.6953"/><text fill="#000000" font-family="sans-serif" font-size="13" font-weight="bold" lengthAdjust="spacing" textLength="19" x="65" y="1260.7622">alt</text><text fill="#000000" font-family="sans-serif" font-size="11" font-weight="bold" lengthAdjust="spacing" textLength="211" x="129" y="1259.9058">[Pre-registration validation fails]</text><line style="stroke:#181818;stroke-width:2.0;" x1="142" x2="152" y1="1314.2266" y2="1324.2266"/><line style="stroke:#181818;stroke-width:2.0;" x1="142" x2="152" y1="1324.2266" y2="1314.2266"/><line style="stroke:#181818;stroke-width:1.0;" x1="147" x2="454" y1="1319.2266" y2="1319.2266"/><text fill="#000000" font-family="sans-serif" font-size="13" lengthAdjust="spacing" textLength="70" x="152" y="1299.0278">Revert with</text><text fill="#000000" font-family="sans-serif" font-size="13" lengthAdjust="spacing" textLength="151" x="152" y="1314.1606">PreRegistrationNotValid</text><path d="M470,1269.8281 L470,1339.8281 L720,1339.8281 L720,1279.8281 L710,1269.8281 L470,1269.8281 " fill="#FEFFDD" style="stroke:#181818;stroke-width:0.5;"/><path d="M710,1269.8281 L710,1279.8281 L720,1279.8281 L710,1269.8281 " fill="#FEFFDD" style="stroke:#181818;stroke-width:0.5;"/><text fill="#000000" font-family="sans-serif" font-size="13" lengthAdjust="spacing" textLength="60" x="476" y="1286.895">Could be:</text><text fill="#000000" font-family="sans-serif" font-size="13" lengthAdjust="spacing" textLength="229" x="476" y="1302.0278">&#8226; identityDetails[key].owner != user</text><text fill="#000000" font-family="sans-serif" font-size="13" lengthAdjust="spacing" textLength="205" x="476" y="1317.1606">&#8226; Wait time (30 min) not passed</text><text fill="#000000" font-family="sans-serif" font-size="13" lengthAdjust="spacing" textLength="162" x="476" y="1332.2935">&#8226; Pre-registration expired</text><line style="stroke:#000000;stroke-width:1.0;stroke-dasharray:2.0,2.0;" x1="50" x2="1031" y1="1346.3594" y2="1346.3594"/><text fill="#000000" font-family="sans-serif" font-size="11" font-weight="bold" lengthAdjust="spacing" textLength="161" x="55" y="1356.5698">[Pre-registration is valid]</text><line style="stroke:#181818;stroke-width:1.0;" x1="465" x2="507" y1="1441.8281" y2="1441.8281"/><line style="stroke:#181818;stroke-width:1.0;" x1="507" x2="507" y1="1441.8281" y2="1454.8281"/><line style="stroke:#181818;stroke-width:1.0;" x1="466" x2="507" y1="1454.8281" y2="1454.8281"/><polygon fill="#181818" points="476,1450.8281,466,1454.8281,476,1458.8281,472,1454.8281" style="stroke:#181818;stroke-width:1.0;"/><text fill="#000000" font-family="sans-serif" font-size="13" lengthAdjust="spacing" textLength="193" x="472" y="1376.231">identityDetails[username] = {</text><text fill="#000000" font-family="sans-serif" font-size="13" lengthAdjust="spacing" textLength="78" x="480" y="1391.3638">owner: user,</text><text fill="#000000" font-family="sans-serif" font-size="13" lengthAdjust="spacing" textLength="266" x="480" y="1406.4966">expireDate: block.timestamp + 366 days,</text><text fill="#000000" font-family="sans-serif" font-size="13" lengthAdjust="spacing" textLength="12" x="480" y="1421.6294">...</text><text fill="#000000" font-family="sans-serif" font-size="13" lengthAdjust="spacing" textLength="8" x="472" y="1436.7622">}</text><line style="stroke:#181818;stroke-width:1.0;" x1="465" x2="507" y1="1483.9609" y2="1483.9609"/><line style="stroke:#181818;stroke-width:1.0;" x1="507" x2="507" y1="1483.9609" y2="1496.9609"/><line style="stroke:#181818;stroke-width:1.0;" x1="466" x2="507" y1="1496.9609" y2="1496.9609"/><polygon fill="#181818" points="476,1492.9609,466,1496.9609,476,1500.9609,472,1496.9609" style="stroke:#181818;stroke-width:1.0;"/><text fill="#000000" font-family="sans-serif" font-size="13" lengthAdjust="spacing" textLength="257" x="472" y="1478.895">nameServiceNonce[user][nonce] = true</text><path d="M60,1511.9609 L124,1511.9609 L124,1519.0938 L114,1529.0938 L60,1529.0938 L60,1511.9609 " fill="#EEEEEE" style="stroke:#000000;stroke-width:1.5;"/><rect fill="none" height="428.3359" style="stroke:#000000;stroke-width:1.5;" width="961" x="60" y="1511.9609"/><text fill="#000000" font-family="sans-serif" font-size="13" font-weight="bold" lengthAdjust="spacing" textLength="19" x="75" y="1525.0278">alt</text><text fill="#000000" font-family="sans-serif" font-size="11" font-weight="bold" lengthAdjust="spacing" textLength="197" x="139" y="1524.1714">[isAddressStaker(msg.sender)]</text><line style="stroke:#181818;stroke-width:1.0;" x1="465" x2="507" y1="1565.3594" y2="1565.3594"/><line style="stroke:#181818;stroke-width:1.0;" x1="507" x2="507" y1="1565.3594" y2="1578.3594"/><line style="stroke:#181818;stroke-width:1.0;" x1="466" x2="507" y1="1578.3594" y2="1578.3594"/><polygon fill="#181818" points="476,1574.3594,466,1578.3594,476,1582.3594,472,1578.3594" style="stroke:#181818;stroke-width:1.0;"/><text fill="#000000" font-family="sans-serif" font-size="13" lengthAdjust="spacing" textLength="161" x="472" y="1545.1606">makeCaPay(msg.sender,</text><text fill="#000000" font-family="sans-serif" font-size="13" lengthAdjust="spacing" textLength="304" x="472" y="1560.2935">(50 * getRewardAmount()) + priorityFee_EVVM)</text><polygon fill="#181818" points="787,1603.4922,797,1607.4922,787,1611.4922,791,1607.4922" style="stroke:#181818;stroke-width:1.0;"/><line style="stroke:#181818;stroke-width:1.0;" x1="465" x2="793" y1="1607.4922" y2="1607.4922"/><text fill="#000000" font-family="sans-serif" font-size="13" lengthAdjust="spacing" textLength="60" x="472" y="1602.4263">caPay(&#183;&#183;&#183;)</text><path d="M70,1622.4922 L134,1622.4922 L134,1629.625 L124,1639.625 L70,1639.625 L70,1622.4922 " fill="#EEEEEE" style="stroke:#000000;stroke-width:1.5;"/><rect fill="none" height="224.7344" style="stroke:#000000;stroke-width:1.5;" width="941" x="70" y="1622.4922"/><text fill="#000000" font-family="sans-serif" font-size="13" font-weight="bold" lengthAdjust="spacing" textLength="19" x="85" y="1635.5591">alt</text><text fill="#000000" font-family="sans-serif" font-size="11" font-weight="bold" lengthAdjust="spacing" textLength="80" x="149" y="1634.7026">[caPay fails]</text><line style="stroke:#181818;stroke-width:2.0;" x1="142" x2="152" y1="1673.8906" y2="1683.8906"/><line style="stroke:#181818;stroke-width:2.0;" x1="142" x2="152" y1="1683.8906" y2="1673.8906"/><line style="stroke:#181818;stroke-width:1.0;" x1="147" x2="798" y1="1678.8906" y2="1678.8906"/><text fill="#000000" font-family="sans-serif" font-size="13" lengthAdjust="spacing" textLength="70" x="152" y="1658.6919">Revert with</text><text fill="#000000" font-family="sans-serif" font-size="13" lengthAdjust="spacing" textLength="73" x="152" y="1673.8247">caPay error</text><path d="M814,1644.625 L814,1684.625 L988,1684.625 L988,1654.625 L978,1644.625 L814,1644.625 " fill="#FEFFDD" style="stroke:#181818;stroke-width:0.5;"/><path d="M978,1644.625 L978,1654.625 L988,1654.625 L978,1644.625 " fill="#FEFFDD" style="stroke:#181818;stroke-width:0.5;"/><text fill="#000000" font-family="sans-serif" font-size="13" lengthAdjust="spacing" textLength="153" x="820" y="1661.6919">Contract balance issues</text><text fill="#000000" font-family="sans-serif" font-size="13" lengthAdjust="spacing" textLength="134" x="820" y="1676.8247">or other EVVM errors</text><line style="stroke:#000000;stroke-width:1.0;stroke-dasharray:2.0,2.0;" x1="70" x2="1011" y1="1690.8906" y2="1690.8906"/><text fill="#000000" font-family="sans-serif" font-size="11" font-weight="bold" lengthAdjust="spacing" textLength="112" x="75" y="1701.1011">[caPay succeeds]</text><line style="stroke:#181818;stroke-width:1.0;" x1="809" x2="851" y1="1725.8281" y2="1725.8281"/><line style="stroke:#181818;stroke-width:1.0;" x1="851" x2="851" y1="1725.8281" y2="1738.8281"/><line style="stroke:#181818;stroke-width:1.0;" x1="810" x2="851" y1="1738.8281" y2="1738.8281"/><polygon fill="#181818" points="820,1734.8281,810,1738.8281,820,1742.8281,816,1738.8281" style="stroke:#181818;stroke-width:1.0;"/><text fill="#000000" font-family="sans-serif" font-size="13" lengthAdjust="spacing" textLength="183" x="816" y="1720.7622">Update balances for rewards</text><polygon fill="#181818" points="476,1763.9609,466,1767.9609,476,1771.9609,472,1767.9609" style="stroke:#181818;stroke-width:1.0;"/><line style="stroke:#181818;stroke-width:1.0;" x1="470" x2="803" y1="1767.9609" y2="1767.9609"/><text fill="#000000" font-family="sans-serif" font-size="13" lengthAdjust="spacing" textLength="118" x="482" y="1762.895">Reward distributed</text><line style="stroke:#181818;stroke-width:1.0;" x1="465" x2="507" y1="1797.0938" y2="1797.0938"/><line style="stroke:#181818;stroke-width:1.0;" x1="507" x2="507" y1="1797.0938" y2="1810.0938"/><line style="stroke:#181818;stroke-width:1.0;" x1="466" x2="507" y1="1810.0938" y2="1810.0938"/><polygon fill="#181818" points="476,1806.0938,466,1810.0938,476,1814.0938,472,1810.0938" style="stroke:#181818;stroke-width:1.0;"/><text fill="#000000" font-family="sans-serif" font-size="13" lengthAdjust="spacing" textLength="167" x="472" y="1792.0278">delete identityDetails[key]</text><polygon fill="#181818" points="146,1835.2266,136,1839.2266,146,1843.2266,142,1839.2266" style="stroke:#181818;stroke-width:1.0;"/><line style="stroke:#181818;stroke-width:1.0;stroke-dasharray:2.0,2.0;" x1="140" x2="454" y1="1839.2266" y2="1839.2266"/><text fill="#000000" font-family="sans-serif" font-size="13" lengthAdjust="spacing" textLength="296" x="152" y="1834.1606">Username registration completed successfully</text><line style="stroke:#000000;stroke-width:1.0;stroke-dasharray:2.0,2.0;" x1="60" x2="1021" y1="1855.2266" y2="1855.2266"/><text fill="#000000" font-family="sans-serif" font-size="11" font-weight="bold" lengthAdjust="spacing" textLength="88" x="65" y="1865.437">[Not a staker]</text><line style="stroke:#181818;stroke-width:1.0;" x1="465" x2="507" y1="1890.1641" y2="1890.1641"/><line style="stroke:#181818;stroke-width:1.0;" x1="507" x2="507" y1="1890.1641" y2="1903.1641"/><line style="stroke:#181818;stroke-width:1.0;" x1="466" x2="507" y1="1903.1641" y2="1903.1641"/><polygon fill="#181818" points="476,1899.1641,466,1903.1641,476,1907.1641,472,1903.1641" style="stroke:#181818;stroke-width:1.0;"/><text fill="#000000" font-family="sans-serif" font-size="13" lengthAdjust="spacing" textLength="167" x="472" y="1885.0981">delete identityDetails[key]</text><polygon fill="#181818" points="146,1928.2969,136,1932.2969,146,1936.2969,142,1932.2969" style="stroke:#181818;stroke-width:1.0;"/><line style="stroke:#181818;stroke-width:1.0;stroke-dasharray:2.0,2.0;" x1="140" x2="454" y1="1932.2969" y2="1932.2969"/><text fill="#000000" font-family="sans-serif" font-size="13" lengthAdjust="spacing" textLength="296" x="152" y="1927.231">Username registration completed successfully</text><!--SRC=[lLVDRjj64BxlKqoTYzJMgjiWAI3OHbr7JWmqhc4txi4oWXKvaXQcbiBkKWeH1EYpv2LoxwFqIJgx99UaH4fqK3G-XAHdlldxzjlniJPfXASiZ8DaWTB0HmRmAmyUNwiuaU5v7CKArdDXa7rYnp_arem7XhuVlDEeW1vkKQr4W0V0DIJqZIsvCY8GIqw81rTyWLKBMRx3iwEZyz5eL7SOtTszTPQuMYsioMZqqn5ZHfW8GU5CQAEu4R6qyIqQ_A6ur9GKVOEBA5wFPU-2YmX3kEPc3eSmKehoVCDb60avwpDcquJ3qreomqRmtjzVx4_V5YrMt61Z0QpwSGjtXKfCqylfLIm3lDHdAqgEJw8Ic_78mBFfYydFan-hlixXtYRxS2_jymESd81H2TASe1Rby8FhFKMxGOfdO2tCV2mTmbcaa8SfbHGwFuQHfjpTOC5PWD30YxIOCt8fPIOE-9iJuE52o46GA4LSSKPRMMoMBlGTZqJekvda3ttlxX-gFRYKA-i6XJa4Swve0gYqPLo4ScRcthDZBtBG8fUwUqnrAZ6R6_Bon7BsZWumTOGQZkK_VttswPLPPTz_Stb1d1Y8fp2nPqZxC2Ypxjl_MOV65LcKTAatZsqspQVDitddV4QLZxrZctpS3EMc0QInMPP2cSjO6lw84YOfSBATKmod2riZh_AmXbEdujvcPGViBMhDPtWhPXB3YrZTx3hEZRIphjma2ZD44PIprr_9DW_vkwmeOJlt2cffdyeqLZdjR9ZooUQGlGMaULV9ObByrab5BKHZnyjggUKkAcilShFb2vhmDK-t-xcX7KibOYLCUX7nsNihxJK5sn7EgVyGbZozjMnIxxbEPU3ZRNfxUQxT6bMBQkcDMKqvMJmvhTQi_3dt7wnh2N7dI6kHtDKhv38nkg6FEJUlSxizp2m3DTEo28VsIjmkjah5ypY9GfYW5psTJ2coiEuJ7d4YMLqENICT-Hg-UqAt3gMeK2T1W1YsrUKR-6uPse7dgRIRrubRH5cgc9nqHTQAVo7MoCJsKQAE_uWfdC0lns-udbyhBEMpaA3J9m8MF55uM5rGW8hdsr0rocowRDndsothg6s-hWptAZRkbc-6sq4f4T8aw1Y-GcFJkQVUFGpYjSpMZLBk_kJ2W15qEVIU7m4j8NqBIqV7pYypsQeLFoo5mkQSjgbIfU4cKhCwTbj_DWeiT9lsEFWubW2ksA4hzNlxdcNzYhWtX4aK1uy3MxOsVB64x-3vovSqzbGxqy5WC9QVlYAfFGjcfiwDi1LT5_ei31KTe4m6Umiz6sYIF5JzHjTE5yevjrTA2KLrzbuSmRSmGtE3Qwx2imKjLQRNxrCtl8WZEWtliwwHSm49UFK6Q_DjlbdQpIi7q0NOSTIw27Q6qIpNEywPD7OpBSIHngKJf2sLbkTi8NEQx53RKwkUYYoDLcdkBjDsdw7Dr0wp6qoT9XaD8BJ7KqmIqtB2EsjvPtw66A7bVODaFG6LOFCX-tstfZL1l5ZQE67MQgsdIHIbxHEIxUMpVICbsGOEsfrVzf_tvFzknzQwrTIVwdlrxp7dNE5A9KdsBm00]--></g></svg>