<?xml version="1.0" encoding="us-ascii" standalone="no"?><svg xmlns="http://www.w3.org/2000/svg" xmlns:xlink="http://www.w3.org/1999/xlink" contentStyleType="text/css" height="1317px" preserveAspectRatio="none" style="width:804px;height:1317px;background:#FFFFFF;" version="1.1" viewBox="0 0 804 1317" width="804px" zoomAndPan="magnify"><defs/><g><text fill="#000000" font-family="sans-serif" font-size="14" font-weight="bold" lengthAdjust="spacing" textLength="312" x="247.5" y="27.9951">registrationUsername Transaction Flow</text><text fill="#000000" font-family="sans-serif" font-size="14" font-weight="bold" lengthAdjust="spacing" textLength="285" x="261" y="44.292">(Happy Path - Successful Execution)</text><rect fill="#FFFFFF" height="21.1328" style="stroke:#181818;stroke-width:1.0;" width="10" x="55" y="144.8906"/><rect fill="#00CEEE" height="1052.9844" style="stroke:#181818;stroke-width:1.0;" width="10" x="246" y="166.0234"/><rect fill="#00EE20" height="137.3359" style="stroke:#181818;stroke-width:1.0;" width="10" x="590" y="499.4844"/><rect fill="#00EE20" height="96.9648" style="stroke:#181818;stroke-width:1.0;" width="10" x="590" y="1018.0781"/><rect fill="#FFFFFF" height="97.6641" style="stroke:#000000;stroke-width:1.5;" width="492" x="189" y="223.1563"/><rect fill="#FFFFFF" height="90.2031" style="stroke:#000000;stroke-width:1.5;" width="442.5" x="189" y="461.2188"/><rect fill="#FFFFFF" height="43.9375" style="stroke:none;stroke-width:1.0;" width="442.5" x="189" y="507.4844"/><rect fill="#FFFFFF" height="219.1953" style="stroke:#000000;stroke-width:1.5;" width="609" x="189" y="914.4141"/><line style="stroke:#181818;stroke-width:0.5;stroke-dasharray:5.0,5.0;" x1="60" x2="60" y1="134.8906" y2="1237.0078"/><line style="stroke:#181818;stroke-width:0.5;stroke-dasharray:5.0,5.0;" x1="251" x2="251" y1="134.8906" y2="1237.0078"/><line style="stroke:#181818;stroke-width:0.5;stroke-dasharray:5.0,5.0;" x1="594.5" x2="594.5" y1="134.8906" y2="1237.0078"/><text fill="#000000" font-family="sans-serif" font-size="14" lengthAdjust="spacing" textLength="104" x="5" y="131.5889">User or Service</text><ellipse cx="60" cy="67.0938" fill="#E2E2F0" rx="8" ry="8" style="stroke:#181818;stroke-width:0.5;"/><path d="M60,75.0938 L60,102.0938 M47,83.0938 L73,83.0938 M60,102.0938 L47,117.0938 M60,102.0938 L73,117.0938 " fill="none" style="stroke:#181818;stroke-width:0.5;"/><text fill="#000000" font-family="sans-serif" font-size="14" lengthAdjust="spacing" textLength="104" x="5" y="1249.0029">User or Service</text><ellipse cx="60" cy="1260.8047" fill="#E2E2F0" rx="8" ry="8" style="stroke:#181818;stroke-width:0.5;"/><path d="M60,1268.8047 L60,1295.8047 M47,1276.8047 L73,1276.8047 M60,1295.8047 L47,1310.8047 M60,1295.8047 L73,1310.8047 " fill="none" style="stroke:#181818;stroke-width:0.5;"/><rect fill="#00CEEE" height="30.2969" rx="2.5" ry="2.5" style="stroke:#181818;stroke-width:0.5;" width="104" x="199" y="103.5938"/><text fill="#000000" font-family="sans-serif" font-size="14" lengthAdjust="spacing" textLength="90" x="206" y="123.5889">NameService</text><rect fill="#00CEEE" height="30.2969" rx="2.5" ry="2.5" style="stroke:#181818;stroke-width:0.5;" width="104" x="199" y="1236.0078"/><text fill="#000000" font-family="sans-serif" font-size="14" lengthAdjust="spacing" textLength="90" x="206" y="1256.0029">NameService</text><rect fill="#00EE20" height="30.2969" rx="2.5" ry="2.5" style="stroke:#181818;stroke-width:0.5;" width="53" x="568.5" y="103.5938"/><text fill="#000000" font-family="sans-serif" font-size="14" lengthAdjust="spacing" textLength="39" x="575.5" y="123.5889">EVVM</text><rect fill="#00EE20" height="30.2969" rx="2.5" ry="2.5" style="stroke:#181818;stroke-width:0.5;" width="53" x="568.5" y="1236.0078"/><text fill="#000000" font-family="sans-serif" font-size="14" lengthAdjust="spacing" textLength="39" x="575.5" y="1256.0029">EVVM</text><rect fill="#FFFFFF" height="21.1328" style="stroke:#181818;stroke-width:1.0;" width="10" x="55" y="144.8906"/><rect fill="#00CEEE" height="1052.9844" style="stroke:#181818;stroke-width:1.0;" width="10" x="246" y="166.0234"/><rect fill="#00EE20" height="137.3359" style="stroke:#181818;stroke-width:1.0;" width="10" x="590" y="499.4844"/><rect fill="#00EE20" height="96.9648" style="stroke:#181818;stroke-width:1.0;" width="10" x="590" y="1018.0781"/><polygon fill="#181818" points="234,162.0234,244,166.0234,234,170.0234,238,166.0234" style="stroke:#181818;stroke-width:1.0;"/><line style="stroke:#181818;stroke-width:1.0;" x1="60" x2="240" y1="166.0234" y2="166.0234"/><text fill="#000000" font-family="sans-serif" font-size="13" lengthAdjust="spacing" textLength="162" x="67" y="160.9575">registrationUsername(&#183;&#183;&#183;)</text><line style="stroke:#181818;stroke-width:1.0;" x1="256" x2="298" y1="195.1563" y2="195.1563"/><line style="stroke:#181818;stroke-width:1.0;" x1="298" x2="298" y1="195.1563" y2="208.1563"/><line style="stroke:#181818;stroke-width:1.0;" x1="257" x2="298" y1="208.1563" y2="208.1563"/><polygon fill="#181818" points="267,204.1563,257,208.1563,267,212.1563,263,208.1563" style="stroke:#181818;stroke-width:1.0;"/><text fill="#000000" font-family="sans-serif" font-size="13" lengthAdjust="spacing" textLength="171" x="263" y="190.0903">verifyIfNonceIsAvailable(&#183;&#183;&#183;)</text><path d="M189,223.1563 L253,223.1563 L253,230.2891 L243,240.2891 L189,240.2891 L189,223.1563 " fill="#EEEEEE" style="stroke:#000000;stroke-width:1.5;"/><rect fill="none" height="97.6641" style="stroke:#000000;stroke-width:1.5;" width="492" x="189" y="223.1563"/><text fill="#000000" font-family="sans-serif" font-size="13" font-weight="bold" lengthAdjust="spacing" textLength="19" x="204" y="236.2231">alt</text><text fill="#000000" font-family="sans-serif" font-size="11" font-weight="bold" lengthAdjust="spacing" textLength="149" x="268" y="235.3667">[user != admin.current]</text><line style="stroke:#181818;stroke-width:1.0;" x1="256" x2="298" y1="280.6211" y2="280.6211"/><line style="stroke:#181818;stroke-width:1.0;" x1="298" x2="298" y1="280.6211" y2="293.6211"/><line style="stroke:#181818;stroke-width:1.0;" x1="257" x2="298" y1="293.6211" y2="293.6211"/><polygon fill="#181818" points="267,289.6211,257,293.6211,267,297.6211,263,293.6211" style="stroke:#181818;stroke-width:1.0;"/><text fill="#000000" font-family="sans-serif" font-size="13" lengthAdjust="spacing" textLength="183" x="263" y="275.5552">isValidUsername(username)</text><path d="M458,245.2891 L458,315.2891 L661,315.2891 L661,255.2891 L651,245.2891 L458,245.2891 " fill="#FEFFDD" style="stroke:#181818;stroke-width:0.5;"/><path d="M651,245.2891 L651,255.2891 L661,255.2891 L651,245.2891 " fill="#FEFFDD" style="stroke:#181818;stroke-width:0.5;"/><text fill="#000000" font-family="sans-serif" font-size="13" lengthAdjust="spacing" textLength="128" x="464" y="262.356">Validates username</text><text fill="#000000" font-family="sans-serif" font-size="13" lengthAdjust="spacing" textLength="140" x="464" y="277.4888">characters and length</text><text fill="#000000" font-family="sans-serif" font-size="13" lengthAdjust="spacing" textLength="4" x="464" y="292.6216">&#160;</text><text fill="#000000" font-family="sans-serif" font-size="13" lengthAdjust="spacing" textLength="182" x="464" y="307.7544">Admin can bypass validation</text><line style="stroke:#181818;stroke-width:1.0;" x1="256" x2="298" y1="348.9531" y2="348.9531"/><line style="stroke:#181818;stroke-width:1.0;" x1="298" x2="298" y1="348.9531" y2="361.9531"/><line style="stroke:#181818;stroke-width:1.0;" x1="257" x2="298" y1="361.9531" y2="361.9531"/><polygon fill="#181818" points="267,357.9531,257,361.9531,267,365.9531,263,361.9531" style="stroke:#181818;stroke-width:1.0;"/><text fill="#000000" font-family="sans-serif" font-size="13" lengthAdjust="spacing" textLength="209" x="263" y="343.8872">isUsernameAvailable(username)</text><line style="stroke:#181818;stroke-width:1.0;" x1="256" x2="298" y1="391.0859" y2="391.0859"/><line style="stroke:#181818;stroke-width:1.0;" x1="298" x2="298" y1="391.0859" y2="404.0859"/><line style="stroke:#181818;stroke-width:1.0;" x1="257" x2="298" y1="404.0859" y2="404.0859"/><polygon fill="#181818" points="267,400.0859,257,404.0859,267,408.0859,263,404.0859" style="stroke:#181818;stroke-width:1.0;"/><text fill="#000000" font-family="sans-serif" font-size="13" lengthAdjust="spacing" textLength="320" x="263" y="386.02">verifyMessageSignedForRegistrationUsername(&#183;&#183;&#183;)</text><line style="stroke:#181818;stroke-width:1.0;" x1="256" x2="298" y1="433.2188" y2="433.2188"/><line style="stroke:#181818;stroke-width:1.0;" x1="298" x2="298" y1="433.2188" y2="446.2188"/><line style="stroke:#181818;stroke-width:1.0;" x1="257" x2="298" y1="446.2188" y2="446.2188"/><polygon fill="#181818" points="267,442.2188,257,446.2188,267,450.2188,263,446.2188" style="stroke:#181818;stroke-width:1.0;"/><text fill="#000000" font-family="sans-serif" font-size="13" lengthAdjust="spacing" textLength="81" x="263" y="428.1528">makePay(&#183;&#183;&#183;)</text><path d="M189,461.2188 L253,461.2188 L253,468.3516 L243,478.3516 L189,478.3516 L189,461.2188 " fill="#EEEEEE" style="stroke:#000000;stroke-width:1.5;"/><rect fill="none" height="90.2031" style="stroke:#000000;stroke-width:1.5;" width="442.5" x="189" y="461.2188"/><text fill="#000000" font-family="sans-serif" font-size="13" font-weight="bold" lengthAdjust="spacing" textLength="19" x="204" y="474.2856">alt</text><text fill="#000000" font-family="sans-serif" font-size="11" font-weight="bold" lengthAdjust="spacing" textLength="177" x="268" y="473.4292">[priorityFlag_EVVM == true]</text><polygon fill="#181818" points="578,495.4844,588,499.4844,578,503.4844,582,499.4844" style="stroke:#181818;stroke-width:1.0;"/><line style="stroke:#181818;stroke-width:1.0;" x1="256" x2="584" y1="499.4844" y2="499.4844"/><text fill="#000000" font-family="sans-serif" font-size="13" lengthAdjust="spacing" textLength="131" x="263" y="494.4185">payStaker_async(&#183;&#183;&#183;)</text><line style="stroke:#000000;stroke-width:1.0;stroke-dasharray:2.0,2.0;" x1="189" x2="631.5" y1="508.4844" y2="508.4844"/><text fill="#000000" font-family="sans-serif" font-size="11" font-weight="bold" lengthAdjust="spacing" textLength="183" x="194" y="518.6948">[priorityFlag_EVVM == false]</text><polygon fill="#181818" points="578,539.4219,588,543.4219,578,547.4219,582,543.4219" style="stroke:#181818;stroke-width:1.0;"/><line style="stroke:#181818;stroke-width:1.0;" x1="256" x2="584" y1="543.4219" y2="543.4219"/><text fill="#000000" font-family="sans-serif" font-size="13" lengthAdjust="spacing" textLength="123" x="263" y="538.356">payStaker_sync(&#183;&#183;&#183;)</text><line style="stroke:#181818;stroke-width:1.0;" x1="600" x2="642" y1="594.6875" y2="594.6875"/><line style="stroke:#181818;stroke-width:1.0;" x1="642" x2="642" y1="594.6875" y2="607.6875"/><line style="stroke:#181818;stroke-width:1.0;" x1="601" x2="642" y1="607.6875" y2="607.6875"/><polygon fill="#181818" points="611,603.6875,601,607.6875,611,611.6875,607,607.6875" style="stroke:#181818;stroke-width:1.0;"/><text fill="#000000" font-family="sans-serif" font-size="13" lengthAdjust="spacing" textLength="140" x="607" y="574.4888">Verify payment inputs</text><text fill="#000000" font-family="sans-serif" font-size="13" lengthAdjust="spacing" textLength="134" x="607" y="589.6216">and update balances</text><polygon fill="#181818" points="267,632.8203,257,636.8203,267,640.8203,263,636.8203" style="stroke:#181818;stroke-width:1.0;"/><line style="stroke:#181818;stroke-width:1.0;" x1="261" x2="594" y1="636.8203" y2="636.8203"/><text fill="#000000" font-family="sans-serif" font-size="13" lengthAdjust="spacing" textLength="207" x="273" y="631.7544">Payment processed successfully</text><line style="stroke:#181818;stroke-width:1.0;" x1="256" x2="298" y1="696.2188" y2="696.2188"/><line style="stroke:#181818;stroke-width:1.0;" x1="298" x2="298" y1="696.2188" y2="709.2188"/><line style="stroke:#181818;stroke-width:1.0;" x1="257" x2="298" y1="709.2188" y2="709.2188"/><polygon fill="#181818" points="267,705.2188,257,709.2188,267,713.2188,263,709.2188" style="stroke:#181818;stroke-width:1.0;"/><text fill="#000000" font-family="sans-serif" font-size="13" lengthAdjust="spacing" textLength="176" x="263" y="660.8872">Verify pre-registration data:</text><text fill="#000000" font-family="sans-serif" font-size="13" lengthAdjust="spacing" textLength="235" x="263" y="676.02">&#8226; identityDetails[key].owner == user</text><text fill="#000000" font-family="sans-serif" font-size="13" lengthAdjust="spacing" textLength="207" x="263" y="691.1528">&#8226; Wait time (30 min) has passed</text><path d="M510,653.3203 L510,708.3203 L708,708.3203 L708,663.3203 L698,653.3203 L510,653.3203 " fill="#FEFFDD" style="stroke:#181818;stroke-width:0.5;"/><path d="M698,653.3203 L698,663.3203 L708,663.3203 L698,653.3203 " fill="#FEFFDD" style="stroke:#181818;stroke-width:0.5;"/><text fill="#000000" font-family="sans-serif" font-size="13" lengthAdjust="spacing" textLength="112" x="516" y="670.3872">CRITICAL: Links to</text><text fill="#000000" font-family="sans-serif" font-size="13" lengthAdjust="spacing" textLength="134" x="516" y="685.52">pre-registration hash</text><text fill="#000000" font-family="sans-serif" font-size="13" lengthAdjust="spacing" textLength="177" x="516" y="700.6528">Proves user committed first</text><line style="stroke:#181818;stroke-width:1.0;" x1="256" x2="298" y1="844.2813" y2="844.2813"/><line style="stroke:#181818;stroke-width:1.0;" x1="298" x2="298" y1="844.2813" y2="857.2813"/><line style="stroke:#181818;stroke-width:1.0;" x1="257" x2="298" y1="857.2813" y2="857.2813"/><polygon fill="#181818" points="267,853.2813,257,857.2813,267,861.2813,263,857.2813" style="stroke:#181818;stroke-width:1.0;"/><text fill="#000000" font-family="sans-serif" font-size="13" lengthAdjust="spacing" textLength="193" x="263" y="733.2856">Create username registration:</text><text fill="#000000" font-family="sans-serif" font-size="13" lengthAdjust="spacing" textLength="193" x="263" y="748.4185">identityDetails[username] = {</text><text fill="#000000" font-family="sans-serif" font-size="13" lengthAdjust="spacing" textLength="78" x="271" y="763.5513">owner: user,</text><text fill="#000000" font-family="sans-serif" font-size="13" lengthAdjust="spacing" textLength="266" x="271" y="778.6841">expireDate: block.timestamp + 366 days,</text><text fill="#000000" font-family="sans-serif" font-size="13" lengthAdjust="spacing" textLength="187" x="271" y="793.8169">customMetadataMaxSlots: 0,</text><text fill="#000000" font-family="sans-serif" font-size="13" lengthAdjust="spacing" textLength="107" x="271" y="808.9497">offerMaxSlots: 0,</text><text fill="#000000" font-family="sans-serif" font-size="13" lengthAdjust="spacing" textLength="161" x="271" y="824.0825">flagNotAUsername: 0x00</text><text fill="#000000" font-family="sans-serif" font-size="13" lengthAdjust="spacing" textLength="8" x="263" y="839.2153">}</text><path d="M549,763.5508 L549,818.5508 L700,818.5508 L700,773.5508 L690,763.5508 L549,763.5508 " fill="#FEFFDD" style="stroke:#181818;stroke-width:0.5;"/><path d="M690,763.5508 L690,773.5508 L700,773.5508 L690,763.5508 " fill="#FEFFDD" style="stroke:#181818;stroke-width:0.5;"/><text fill="#000000" font-family="sans-serif" font-size="13" lengthAdjust="spacing" textLength="114" x="555" y="780.6177">Initial registration:</text><text fill="#000000" font-family="sans-serif" font-size="13" lengthAdjust="spacing" textLength="106" x="555" y="795.7505">366 days validity</text><text fill="#000000" font-family="sans-serif" font-size="13" lengthAdjust="spacing" textLength="130" x="555" y="810.8833">Must renew annually</text><line style="stroke:#181818;stroke-width:1.0;" x1="256" x2="298" y1="886.4141" y2="886.4141"/><line style="stroke:#181818;stroke-width:1.0;" x1="298" x2="298" y1="886.4141" y2="899.4141"/><line style="stroke:#181818;stroke-width:1.0;" x1="257" x2="298" y1="899.4141" y2="899.4141"/><polygon fill="#181818" points="267,895.4141,257,899.4141,267,903.4141,263,899.4141" style="stroke:#181818;stroke-width:1.0;"/><text fill="#000000" font-family="sans-serif" font-size="13" lengthAdjust="spacing" textLength="257" x="263" y="881.3481">nameServiceNonce[user][nonce] = true</text><path d="M189,914.4141 L253,914.4141 L253,921.5469 L243,931.5469 L189,931.5469 L189,914.4141 " fill="#EEEEEE" style="stroke:#000000;stroke-width:1.5;"/><rect fill="none" height="219.1953" style="stroke:#000000;stroke-width:1.5;" width="609" x="189" y="914.4141"/><text fill="#000000" font-family="sans-serif" font-size="13" font-weight="bold" lengthAdjust="spacing" textLength="19" x="204" y="927.481">alt</text><text fill="#000000" font-family="sans-serif" font-size="11" font-weight="bold" lengthAdjust="spacing" textLength="197" x="268" y="926.6245">[isAddressStaker(msg.sender)]</text><line style="stroke:#181818;stroke-width:1.0;" x1="256" x2="298" y1="971.8789" y2="971.8789"/><line style="stroke:#181818;stroke-width:1.0;" x1="298" x2="298" y1="971.8789" y2="984.8789"/><line style="stroke:#181818;stroke-width:1.0;" x1="257" x2="298" y1="984.8789" y2="984.8789"/><polygon fill="#181818" points="267,980.8789,257,984.8789,267,988.8789,263,984.8789" style="stroke:#181818;stroke-width:1.0;"/><text fill="#000000" font-family="sans-serif" font-size="13" lengthAdjust="spacing" textLength="161" x="263" y="951.6802">makeCaPay(msg.sender,</text><text fill="#000000" font-family="sans-serif" font-size="13" lengthAdjust="spacing" textLength="304" x="263" y="966.813">(50 * getRewardAmount()) + priorityFee_EVVM)</text><path d="M579,936.5469 L579,991.5469 L767,991.5469 L767,946.5469 L757,936.5469 L579,936.5469 " fill="#FEFFDD" style="stroke:#181818;stroke-width:0.5;"/><path d="M757,936.5469 L757,946.5469 L767,946.5469 L757,936.5469 " fill="#FEFFDD" style="stroke:#181818;stroke-width:0.5;"/><text fill="#000000" font-family="sans-serif" font-size="13" lengthAdjust="spacing" textLength="133" x="585" y="953.6138">50x reward multiplier</text><text fill="#000000" font-family="sans-serif" font-size="13" lengthAdjust="spacing" textLength="167" x="585" y="968.7466">for registration processing</text><text fill="#000000" font-family="sans-serif" font-size="13" lengthAdjust="spacing" textLength="162" x="585" y="983.8794">Highest reward in system</text><polygon fill="#181818" points="578,1014.0781,588,1018.0781,578,1022.0781,582,1018.0781" style="stroke:#181818;stroke-width:1.0;"/><line style="stroke:#181818;stroke-width:1.0;" x1="256" x2="584" y1="1018.0781" y2="1018.0781"/><text fill="#000000" font-family="sans-serif" font-size="13" lengthAdjust="spacing" textLength="60" x="263" y="1013.0122">caPay(&#183;&#183;&#183;)</text><line style="stroke:#181818;stroke-width:1.0;" x1="600" x2="642" y1="1062.3438" y2="1062.3438"/><line style="stroke:#181818;stroke-width:1.0;" x1="642" x2="642" y1="1062.3438" y2="1075.3438"/><line style="stroke:#181818;stroke-width:1.0;" x1="601" x2="642" y1="1075.3438" y2="1075.3438"/><polygon fill="#181818" points="611,1071.3438,601,1075.3438,611,1079.3438,607,1075.3438" style="stroke:#181818;stroke-width:1.0;"/><text fill="#000000" font-family="sans-serif" font-size="13" lengthAdjust="spacing" textLength="129" x="607" y="1042.145">Update balances for</text><text fill="#000000" font-family="sans-serif" font-size="13" lengthAdjust="spacing" textLength="94" x="607" y="1057.2778">staker rewards</text><polygon fill="#181818" points="267,1111.043,257,1115.043,267,1119.043,263,1115.043" style="stroke:#181818;stroke-width:1.0;"/><line style="stroke:#181818;stroke-width:1.0;" x1="261" x2="594" y1="1115.043" y2="1115.043"/><text fill="#000000" font-family="sans-serif" font-size="13" lengthAdjust="spacing" textLength="198" x="273" y="1109.9771">Reward distributed successfully</text><path d="M605,1088.3438 L605,1128.3438 L783,1128.3438 L783,1098.3438 L773,1088.3438 L605,1088.3438 " fill="#FEFFDD" style="stroke:#181818;stroke-width:0.5;"/><path d="M773,1088.3438 L773,1098.3438 L783,1098.3438 L773,1088.3438 " fill="#FEFFDD" style="stroke:#181818;stroke-width:0.5;"/><text fill="#000000" font-family="sans-serif" font-size="13" lengthAdjust="spacing" textLength="99" x="611" y="1105.4106">Staker receives</text><text fill="#000000" font-family="sans-serif" font-size="13" lengthAdjust="spacing" textLength="157" x="611" y="1120.5435">50x reward + priority fee</text><line style="stroke:#181818;stroke-width:1.0;" x1="256" x2="298" y1="1161.7422" y2="1161.7422"/><line style="stroke:#181818;stroke-width:1.0;" x1="298" x2="298" y1="1161.7422" y2="1174.7422"/><line style="stroke:#181818;stroke-width:1.0;" x1="257" x2="298" y1="1174.7422" y2="1174.7422"/><polygon fill="#181818" points="267,1170.7422,257,1174.7422,267,1178.7422,263,1174.7422" style="stroke:#181818;stroke-width:1.0;"/><text fill="#000000" font-family="sans-serif" font-size="13" lengthAdjust="spacing" textLength="192" x="263" y="1156.6763">Clean up pre-registration data</text><polygon fill="#181818" points="71,1215.0078,61,1219.0078,71,1223.0078,67,1219.0078" style="stroke:#181818;stroke-width:1.0;"/><line style="stroke:#181818;stroke-width:1.0;stroke-dasharray:2.0,2.0;" x1="65" x2="250" y1="1219.0078" y2="1219.0078"/><text fill="#000000" font-family="sans-serif" font-size="13" lengthAdjust="spacing" textLength="144" x="77" y="1198.8091">Username registration</text><text fill="#000000" font-family="sans-serif" font-size="13" lengthAdjust="spacing" textLength="148" x="77" y="1213.9419">completed successfully</text><!--SRC=[ZLRRRjj647tdLqoT5ocDNQ51yY340LH5RWH4Xc4bxaDe12DoA2sqt6LtbvA8842_fJ_HztvAlYIpgnifAxBX5t8rPow7SyxwZNMLfBTHgfCo9-NWQmJm1oRpFuqkLThNKXjOpeIZw5lqvhTDT8I9u_EpJvOCyCEOp48aT0PeeUIpg43ZH28Av8ndrvXJFKBjt-5PfzCV30PDmE3kRXGYQR78VSXWy7idYfnmai3GL5Xdq0cjV7sV3JuQL9QRuZEuadePgzPxB8eARj3Du1p6PPAGjLafOR2YfFI1xJ26MA2ZTTDAyvCHqvc3BeJH2gCN8YNRZTNtV_w5Nk9Ab27OLrqVtg9ATGwgp2UCo0m_5uREwsrkq59oyt-Nmb0ALamLkjAGZIAV3yxVDdZf7fspzVz__gyTfTHiVVTsZDkeVlYWpeACoAfXTgrLGaFRMw2GE97xMX5A1y_23eHYyCibO9eBTP6Knl3EyCO0dAmXx1rAaUx6s3BONaFhl8T0diJMQ4vcQ7X2CXQOR92afcuMCwqztmOag61I5MWjBDPefYmYbJuokR3RXlP3xpjx2ciZtYcSqfW_9gLNsjoU-cQd4-OufnkiZh9U6A6DSDMLnEaNBmwul0HdIZh6VD1C5mginevpcYzeAvNiydh4RbiQ-Y9fwMJ533dYIIKR5SE7227xqBj0dqS4qn6gA9sDbV-wPU4_FqnG8Y-atI6RTDriaAnGBsolg9t4PLNNXyS_mlsscmFP0ZU26-cp2oZsd-eTELuL-tbErVs5NYgM0pFZjsOTznSA1qwm9RLUTe2timqpDZA_d9Gs7QP_E_muxFS-TE63K7CBJiVgGGiCvas_OH_QA08IdUV2EPuu4yQwHqRh6zgQH33AUd8UxN2iRTmzNCBNM0644Ri1_yA_qwfW_th7ERimaJgPN_XXhSEyW5_XvUlNJ5fbGsXIMgVp4MVsF8vmDPRQsIvqmgywoyWS7cQyRjVQzRRQuVDLfnEhRqtcXaeuWV9mc6trjGlmLB4QSGySfcZ9pg7Ol7atJXDMUmkE62Yv_wpyisSboAukJc5xQSe-RjUxtyhjzCBopfDfFswCNlLzzBhVmvY9rgiEF8SfkLjQeabxET_5hjLkCyKxPH85OHwnq5UT5S_iWP2Nqeb22h-U6L_KZTtQQ4UeQQpUCvO2Lm77hcehwoWFsKzeFi6wQVtSNFml1nxmgIbquFvYPGE9cpPi0zPaRiqCf7uSCIdTeGDuvA4Bx6UfqpNUban8iCfYLUDlppTaH4-uK_gI-3OgY-DcSW1cT93q-h-D1_haYq_dXQG7izNjhPOm-W40]--></g></svg>