<?xml version="1.0" encoding="us-ascii" standalone="no"?><svg xmlns="http://www.w3.org/2000/svg" xmlns:xlink="http://www.w3.org/1999/xlink" contentStyleType="text/css" height="1250px" preserveAspectRatio="none" style="width:1028px;height:1250px;background:#FFFFFF;" version="1.1" viewBox="0 0 1028 1250" width="1028px" zoomAndPan="magnify"><defs/><g><text fill="#000000" font-family="sans-serif" font-size="14" font-weight="bold" lengthAdjust="spacing" textLength="271" x="380" y="27.9951">renewUsername Transaction Flow</text><text fill="#000000" font-family="sans-serif" font-size="14" font-weight="bold" lengthAdjust="spacing" textLength="285" x="373" y="44.292">(Happy Path - Successful Execution)</text><rect fill="#00CEEE" height="982.7188" style="stroke:#181818;stroke-width:1.0;" width="10" x="289" y="166.0234"/><rect fill="#00EE20" height="137.3359" style="stroke:#181818;stroke-width:1.0;" width="10" x="641" y="586.1484"/><rect fill="#00EE20" height="112.6641" style="stroke:#181818;stroke-width:1.0;" width="10" x="641" y="864.2813"/><rect fill="#FFFFFF" height="90.2031" style="stroke:#000000;stroke-width:1.5;" width="450.5" x="232" y="547.8828"/><rect fill="#FFFFFF" height="43.9375" style="stroke:none;stroke-width:1.0;" width="450.5" x="232" y="594.1484"/><rect fill="#FFFFFF" height="264.5938" style="stroke:#000000;stroke-width:1.5;" width="790" x="232" y="738.4844"/><line style="stroke:#181818;stroke-width:0.5;stroke-dasharray:5.0,5.0;" x1="60" x2="60" y1="134.8906" y2="1169.7422"/><line style="stroke:#181818;stroke-width:0.5;stroke-dasharray:5.0,5.0;" x1="294" x2="294" y1="134.8906" y2="1169.7422"/><line style="stroke:#181818;stroke-width:0.5;stroke-dasharray:5.0,5.0;" x1="645.5" x2="645.5" y1="134.8906" y2="1169.7422"/><text fill="#000000" font-family="sans-serif" font-size="14" lengthAdjust="spacing" textLength="104" x="5" y="131.5889">User or Service</text><ellipse cx="60" cy="67.0938" fill="#E2E2F0" rx="8" ry="8" style="stroke:#181818;stroke-width:0.5;"/><path d="M60,75.0938 L60,102.0938 M47,83.0938 L73,83.0938 M60,102.0938 L47,117.0938 M60,102.0938 L73,117.0938 " fill="none" style="stroke:#181818;stroke-width:0.5;"/><text fill="#000000" font-family="sans-serif" font-size="14" lengthAdjust="spacing" textLength="104" x="5" y="1181.7373">User or Service</text><ellipse cx="60" cy="1193.5391" fill="#E2E2F0" rx="8" ry="8" style="stroke:#181818;stroke-width:0.5;"/><path d="M60,1201.5391 L60,1228.5391 M47,1209.5391 L73,1209.5391 M60,1228.5391 L47,1243.5391 M60,1228.5391 L73,1243.5391 " fill="none" style="stroke:#181818;stroke-width:0.5;"/><rect fill="#00CEEE" height="30.2969" rx="2.5" ry="2.5" style="stroke:#181818;stroke-width:0.5;" width="104" x="242" y="103.5938"/><text fill="#000000" font-family="sans-serif" font-size="14" lengthAdjust="spacing" textLength="90" x="249" y="123.5889">NameService</text><rect fill="#00CEEE" height="30.2969" rx="2.5" ry="2.5" style="stroke:#181818;stroke-width:0.5;" width="104" x="242" y="1168.7422"/><text fill="#000000" font-family="sans-serif" font-size="14" lengthAdjust="spacing" textLength="90" x="249" y="1188.7373">NameService</text><rect fill="#00EE20" height="30.2969" rx="2.5" ry="2.5" style="stroke:#181818;stroke-width:0.5;" width="53" x="619.5" y="103.5938"/><text fill="#000000" font-family="sans-serif" font-size="14" lengthAdjust="spacing" textLength="39" x="626.5" y="123.5889">EVVM</text><rect fill="#00EE20" height="30.2969" rx="2.5" ry="2.5" style="stroke:#181818;stroke-width:0.5;" width="53" x="619.5" y="1168.7422"/><text fill="#000000" font-family="sans-serif" font-size="14" lengthAdjust="spacing" textLength="39" x="626.5" y="1188.7373">EVVM</text><rect fill="#00CEEE" height="982.7188" style="stroke:#181818;stroke-width:1.0;" width="10" x="289" y="166.0234"/><rect fill="#00EE20" height="137.3359" style="stroke:#181818;stroke-width:1.0;" width="10" x="641" y="586.1484"/><rect fill="#00EE20" height="112.6641" style="stroke:#181818;stroke-width:1.0;" width="10" x="641" y="864.2813"/><polygon fill="#181818" points="277,162.0234,287,166.0234,277,170.0234,281,166.0234" style="stroke:#181818;stroke-width:1.0;"/><line style="stroke:#181818;stroke-width:1.0;" x1="60" x2="283" y1="166.0234" y2="166.0234"/><text fill="#000000" font-family="sans-serif" font-size="13" lengthAdjust="spacing" textLength="127" x="67" y="160.9575">renewUsername(&#183;&#183;&#183;)</text><line style="stroke:#181818;stroke-width:1.0;" x1="299" x2="341" y1="195.1563" y2="195.1563"/><line style="stroke:#181818;stroke-width:1.0;" x1="341" x2="341" y1="195.1563" y2="208.1563"/><line style="stroke:#181818;stroke-width:1.0;" x1="300" x2="341" y1="208.1563" y2="208.1563"/><polygon fill="#181818" points="310,204.1563,300,208.1563,310,212.1563,306,208.1563" style="stroke:#181818;stroke-width:1.0;"/><text fill="#000000" font-family="sans-serif" font-size="13" lengthAdjust="spacing" textLength="238" x="306" y="190.0903">onlyOwnerOfIdentity(user, username)</text><path d="M556,182.5234 L556,207.5234 L775,207.5234 L775,192.5234 L765,182.5234 L556,182.5234 " fill="#FEFFDD" style="stroke:#181818;stroke-width:0.5;"/><path d="M765,182.5234 L765,192.5234 L775,192.5234 L765,182.5234 " fill="#FEFFDD" style="stroke:#181818;stroke-width:0.5;"/><text fill="#000000" font-family="sans-serif" font-size="13" lengthAdjust="spacing" textLength="198" x="562" y="199.5903">Verify user owns the username</text><line style="stroke:#181818;stroke-width:1.0;" x1="299" x2="341" y1="237.2891" y2="237.2891"/><line style="stroke:#181818;stroke-width:1.0;" x1="341" x2="341" y1="237.2891" y2="250.2891"/><line style="stroke:#181818;stroke-width:1.0;" x1="300" x2="341" y1="250.2891" y2="250.2891"/><polygon fill="#181818" points="310,246.2891,300,250.2891,310,254.2891,306,250.2891" style="stroke:#181818;stroke-width:1.0;"/><text fill="#000000" font-family="sans-serif" font-size="13" lengthAdjust="spacing" textLength="234" x="306" y="232.2231">verifyIfNonceIsAvailable(user, nonce)</text><line style="stroke:#181818;stroke-width:1.0;" x1="299" x2="341" y1="324.8203" y2="324.8203"/><line style="stroke:#181818;stroke-width:1.0;" x1="341" x2="341" y1="324.8203" y2="337.8203"/><line style="stroke:#181818;stroke-width:1.0;" x1="300" x2="341" y1="337.8203" y2="337.8203"/><polygon fill="#181818" points="310,333.8203,300,337.8203,310,341.8203,306,337.8203" style="stroke:#181818;stroke-width:1.0;"/><text fill="#000000" font-family="sans-serif" font-size="13" lengthAdjust="spacing" textLength="178" x="306" y="274.356">Validate renewal conditions:</text><text fill="#000000" font-family="sans-serif" font-size="13" lengthAdjust="spacing" textLength="189" x="306" y="289.4888">&#8226; flagNotAUsername != 0x01</text><text fill="#000000" font-family="sans-serif" font-size="13" lengthAdjust="spacing" textLength="312" x="306" y="304.6216">&#8226; expireDate &lt;= block.timestamp + 36500 days</text><text fill="#000000" font-family="sans-serif" font-size="13" lengthAdjust="spacing" textLength="178" x="306" y="319.7544">(max 100 years in advance)</text><line style="stroke:#181818;stroke-width:1.0;" x1="299" x2="341" y1="366.9531" y2="366.9531"/><line style="stroke:#181818;stroke-width:1.0;" x1="341" x2="341" y1="366.9531" y2="379.9531"/><line style="stroke:#181818;stroke-width:1.0;" x1="300" x2="341" y1="379.9531" y2="379.9531"/><polygon fill="#181818" points="310,375.9531,300,379.9531,310,383.9531,306,379.9531" style="stroke:#181818;stroke-width:1.0;"/><text fill="#000000" font-family="sans-serif" font-size="13" lengthAdjust="spacing" textLength="285" x="306" y="361.8872">verifyMessageSignedForRenewUsername(&#183;&#183;&#183;)</text><line style="stroke:#181818;stroke-width:1.0;" x1="299" x2="341" y1="443.418" y2="443.418"/><line style="stroke:#181818;stroke-width:1.0;" x1="341" x2="341" y1="443.418" y2="456.418"/><line style="stroke:#181818;stroke-width:1.0;" x1="300" x2="341" y1="456.418" y2="456.418"/><polygon fill="#181818" points="310,452.418,300,456.418,310,460.418,306,456.418" style="stroke:#181818;stroke-width:1.0;"/><text fill="#000000" font-family="sans-serif" font-size="13" lengthAdjust="spacing" textLength="290" x="306" y="438.3521">priceOfRenew = seePriceToRenew(username)</text><path d="M608,392.9531 L608,492.9531 L932,492.9531 L932,402.9531 L922,392.9531 L608,392.9531 " fill="#FEFFDD" style="stroke:#181818;stroke-width:0.5;"/><path d="M922,392.9531 L922,402.9531 L932,402.9531 L922,392.9531 " fill="#FEFFDD" style="stroke:#181818;stroke-width:0.5;"/><text fill="#000000" font-family="sans-serif" font-size="13" lengthAdjust="spacing" textLength="84" x="614" y="410.02">Pricing Rules:</text><text fill="#000000" font-family="sans-serif" font-size="13" lengthAdjust="spacing" textLength="218" x="614" y="425.1528">&#8226; Free if within 1 year of expiration</text><text fill="#000000" font-family="sans-serif" font-size="13" lengthAdjust="spacing" textLength="303" x="614" y="440.2856">&#8226; Based on highest active offer (min 500 MATE)</text><text fill="#000000" font-family="sans-serif" font-size="13" lengthAdjust="spacing" textLength="241" x="614" y="455.4185">&#8226; Fixed 500,000 MATE if &gt;1 year early</text><text fill="#000000" font-family="sans-serif" font-size="13" lengthAdjust="spacing" textLength="4" x="614" y="470.5513">&#160;</text><text fill="#000000" font-family="sans-serif" font-size="13" lengthAdjust="spacing" textLength="222" x="614" y="485.6841">Dynamic pricing based on demand</text><line style="stroke:#181818;stroke-width:1.0;" x1="299" x2="341" y1="519.8828" y2="519.8828"/><line style="stroke:#181818;stroke-width:1.0;" x1="341" x2="341" y1="519.8828" y2="532.8828"/><line style="stroke:#181818;stroke-width:1.0;" x1="300" x2="341" y1="532.8828" y2="532.8828"/><polygon fill="#181818" points="310,528.8828,300,532.8828,310,536.8828,306,532.8828" style="stroke:#181818;stroke-width:1.0;"/><text fill="#000000" font-family="sans-serif" font-size="13" lengthAdjust="spacing" textLength="211" x="306" y="514.8169">makePay(user, priceOfRenew, &#183;&#183;&#183;)</text><path d="M232,547.8828 L296,547.8828 L296,555.0156 L286,565.0156 L232,565.0156 L232,547.8828 " fill="#EEEEEE" style="stroke:#000000;stroke-width:1.5;"/><rect fill="none" height="90.2031" style="stroke:#000000;stroke-width:1.5;" width="450.5" x="232" y="547.8828"/><text fill="#000000" font-family="sans-serif" font-size="13" font-weight="bold" lengthAdjust="spacing" textLength="19" x="247" y="560.9497">alt</text><text fill="#000000" font-family="sans-serif" font-size="11" font-weight="bold" lengthAdjust="spacing" textLength="177" x="311" y="560.0933">[priorityFlag_EVVM == true]</text><polygon fill="#181818" points="629,582.1484,639,586.1484,629,590.1484,633,586.1484" style="stroke:#181818;stroke-width:1.0;"/><line style="stroke:#181818;stroke-width:1.0;" x1="299" x2="635" y1="586.1484" y2="586.1484"/><text fill="#000000" font-family="sans-serif" font-size="13" lengthAdjust="spacing" textLength="131" x="306" y="581.0825">payStaker_async(&#183;&#183;&#183;)</text><line style="stroke:#000000;stroke-width:1.0;stroke-dasharray:2.0,2.0;" x1="232" x2="682.5" y1="595.1484" y2="595.1484"/><text fill="#000000" font-family="sans-serif" font-size="11" font-weight="bold" lengthAdjust="spacing" textLength="183" x="237" y="605.3589">[priorityFlag_EVVM == false]</text><polygon fill="#181818" points="629,626.0859,639,630.0859,629,634.0859,633,630.0859" style="stroke:#181818;stroke-width:1.0;"/><line style="stroke:#181818;stroke-width:1.0;" x1="299" x2="635" y1="630.0859" y2="630.0859"/><text fill="#000000" font-family="sans-serif" font-size="13" lengthAdjust="spacing" textLength="123" x="306" y="625.02">payStaker_sync(&#183;&#183;&#183;)</text><line style="stroke:#181818;stroke-width:1.0;" x1="651" x2="693" y1="681.3516" y2="681.3516"/><line style="stroke:#181818;stroke-width:1.0;" x1="693" x2="693" y1="681.3516" y2="694.3516"/><line style="stroke:#181818;stroke-width:1.0;" x1="652" x2="693" y1="694.3516" y2="694.3516"/><polygon fill="#181818" points="662,690.3516,652,694.3516,662,698.3516,658,694.3516" style="stroke:#181818;stroke-width:1.0;"/><text fill="#000000" font-family="sans-serif" font-size="13" lengthAdjust="spacing" textLength="140" x="658" y="661.1528">Verify payment inputs</text><text fill="#000000" font-family="sans-serif" font-size="13" lengthAdjust="spacing" textLength="134" x="658" y="676.2856">and update balances</text><polygon fill="#181818" points="310,719.4844,300,723.4844,310,727.4844,306,723.4844" style="stroke:#181818;stroke-width:1.0;"/><line style="stroke:#181818;stroke-width:1.0;" x1="304" x2="645" y1="723.4844" y2="723.4844"/><text fill="#000000" font-family="sans-serif" font-size="13" lengthAdjust="spacing" textLength="183" x="316" y="718.4185">Renewal payment processed</text><path d="M232,738.4844 L296,738.4844 L296,745.6172 L286,755.6172 L232,755.6172 L232,738.4844 " fill="#EEEEEE" style="stroke:#000000;stroke-width:1.5;"/><rect fill="none" height="264.5938" style="stroke:#000000;stroke-width:1.5;" width="790" x="232" y="738.4844"/><text fill="#000000" font-family="sans-serif" font-size="13" font-weight="bold" lengthAdjust="spacing" textLength="19" x="247" y="751.5513">alt</text><text fill="#000000" font-family="sans-serif" font-size="11" font-weight="bold" lengthAdjust="spacing" textLength="197" x="311" y="750.6948">[isAddressStaker(msg.sender)]</text><line style="stroke:#181818;stroke-width:1.0;" x1="299" x2="341" y1="822.1484" y2="822.1484"/><line style="stroke:#181818;stroke-width:1.0;" x1="341" x2="341" y1="822.1484" y2="835.1484"/><line style="stroke:#181818;stroke-width:1.0;" x1="300" x2="341" y1="835.1484" y2="835.1484"/><polygon fill="#181818" points="310,831.1484,300,835.1484,310,839.1484,306,835.1484" style="stroke:#181818;stroke-width:1.0;"/><text fill="#000000" font-family="sans-serif" font-size="13" lengthAdjust="spacing" textLength="161" x="306" y="771.6841">makeCaPay(msg.sender,</text><text fill="#000000" font-family="sans-serif" font-size="13" lengthAdjust="spacing" textLength="143" x="306" y="786.8169">getRewardAmount() +</text><text fill="#000000" font-family="sans-serif" font-size="13" lengthAdjust="spacing" textLength="178" x="306" y="801.9497">(priceOfRenew * 50) / 100 +</text><text fill="#000000" font-family="sans-serif" font-size="13" lengthAdjust="spacing" textLength="116" x="306" y="817.0825">priorityFee_EVVM)</text><polygon fill="#181818" points="629,860.2813,639,864.2813,629,868.2813,633,864.2813" style="stroke:#181818;stroke-width:1.0;"/><line style="stroke:#181818;stroke-width:1.0;" x1="299" x2="635" y1="864.2813" y2="864.2813"/><text fill="#000000" font-family="sans-serif" font-size="13" lengthAdjust="spacing" textLength="175" x="306" y="859.2153">caPay(msg.sender, reward)</text><line style="stroke:#181818;stroke-width:1.0;" x1="651" x2="693" y1="912.6133" y2="912.6133"/><line style="stroke:#181818;stroke-width:1.0;" x1="693" x2="693" y1="912.6133" y2="925.6133"/><line style="stroke:#181818;stroke-width:1.0;" x1="652" x2="693" y1="925.6133" y2="925.6133"/><polygon fill="#181818" points="662,921.6133,652,925.6133,662,929.6133,658,925.6133" style="stroke:#181818;stroke-width:1.0;"/><text fill="#000000" font-family="sans-serif" font-size="13" lengthAdjust="spacing" textLength="160" x="658" y="892.4146">Distribute staker rewards</text><text fill="#000000" font-family="sans-serif" font-size="13" lengthAdjust="spacing" textLength="147" x="658" y="907.5474">(50% of renewal price!)</text><path d="M830,877.2813 L830,932.2813 L1002,932.2813 L1002,887.2813 L992,877.2813 L830,877.2813 " fill="#FEFFDD" style="stroke:#181818;stroke-width:0.5;"/><path d="M992,877.2813 L992,887.2813 L1002,887.2813 L992,877.2813 " fill="#FEFFDD" style="stroke:#181818;stroke-width:0.5;"/><text fill="#000000" font-family="sans-serif" font-size="13" lengthAdjust="spacing" textLength="122" x="836" y="894.3481">Stakers get 50% of</text><text fill="#000000" font-family="sans-serif" font-size="13" lengthAdjust="spacing" textLength="146" x="836" y="909.481">renewal cost as reward</text><text fill="#000000" font-family="sans-serif" font-size="13" lengthAdjust="spacing" textLength="151" x="836" y="924.6138">Incentive for processing</text><polygon fill="#181818" points="310,972.9453,300,976.9453,310,980.9453,306,976.9453" style="stroke:#181818;stroke-width:1.0;"/><line style="stroke:#181818;stroke-width:1.0;" x1="304" x2="645" y1="976.9453" y2="976.9453"/><text fill="#000000" font-family="sans-serif" font-size="13" lengthAdjust="spacing" textLength="118" x="316" y="971.8794">Reward distributed</text><path d="M656,942.6797 L656,997.6797 L848,997.6797 L848,952.6797 L838,942.6797 L656,942.6797 " fill="#FEFFDD" style="stroke:#181818;stroke-width:0.5;"/><path d="M838,942.6797 L838,952.6797 L848,952.6797 L838,942.6797 " fill="#FEFFDD" style="stroke:#181818;stroke-width:0.5;"/><text fill="#000000" font-family="sans-serif" font-size="13" lengthAdjust="spacing" textLength="171" x="662" y="959.7466">Stakers get base reward +</text><text fill="#000000" font-family="sans-serif" font-size="13" lengthAdjust="spacing" textLength="147" x="662" y="974.8794">50% of renewal price +</text><text fill="#000000" font-family="sans-serif" font-size="13" lengthAdjust="spacing" textLength="68" x="662" y="990.0122">priority fee</text><line style="stroke:#181818;stroke-width:1.0;" x1="299" x2="341" y1="1046.3438" y2="1046.3438"/><line style="stroke:#181818;stroke-width:1.0;" x1="341" x2="341" y1="1046.3438" y2="1059.3438"/><line style="stroke:#181818;stroke-width:1.0;" x1="300" x2="341" y1="1059.3438" y2="1059.3438"/><polygon fill="#181818" points="310,1055.3438,300,1059.3438,310,1063.3438,306,1059.3438" style="stroke:#181818;stroke-width:1.0;"/><text fill="#000000" font-family="sans-serif" font-size="13" lengthAdjust="spacing" textLength="115" x="306" y="1026.145">Extend expiration:</text><text fill="#000000" font-family="sans-serif" font-size="13" lengthAdjust="spacing" textLength="328" x="306" y="1041.2778">identityDetails[username].expireDate += 366 days</text><line style="stroke:#181818;stroke-width:1.0;" x1="299" x2="341" y1="1088.4766" y2="1088.4766"/><line style="stroke:#181818;stroke-width:1.0;" x1="341" x2="341" y1="1088.4766" y2="1101.4766"/><line style="stroke:#181818;stroke-width:1.0;" x1="300" x2="341" y1="1101.4766" y2="1101.4766"/><polygon fill="#181818" points="310,1097.4766,300,1101.4766,310,1105.4766,306,1101.4766" style="stroke:#181818;stroke-width:1.0;"/><text fill="#000000" font-family="sans-serif" font-size="13" lengthAdjust="spacing" textLength="257" x="306" y="1083.4106">nameServiceNonce[user][nonce] = true</text><polygon fill="#181818" points="71,1144.7422,61,1148.7422,71,1152.7422,67,1148.7422" style="stroke:#181818;stroke-width:1.0;"/><line style="stroke:#181818;stroke-width:1.0;stroke-dasharray:2.0,2.0;" x1="65" x2="293" y1="1148.7422" y2="1148.7422"/><text fill="#000000" font-family="sans-serif" font-size="13" lengthAdjust="spacing" textLength="205" x="77" y="1128.5435">Username renewed successfully</text><text fill="#000000" font-family="sans-serif" font-size="13" lengthAdjust="spacing" textLength="141" x="77" y="1143.6763">Extended by 366 days</text><path d="M304,1114.4766 L304,1154.4766 L468,1154.4766 L468,1124.4766 L458,1114.4766 L304,1114.4766 " fill="#FEFFDD" style="stroke:#181818;stroke-width:0.5;"/><path d="M458,1114.4766 L458,1124.4766 L468,1124.4766 L458,1114.4766 " fill="#FEFFDD" style="stroke:#181818;stroke-width:0.5;"/><text fill="#000000" font-family="sans-serif" font-size="13" lengthAdjust="spacing" textLength="143" x="310" y="1131.5435">Username is now valid</text><text fill="#000000" font-family="sans-serif" font-size="13" lengthAdjust="spacing" textLength="103" x="310" y="1146.6763">for another year</text><!--SRC=[ZLRDRjj64BxpAIOE2aYruz0jaeDX6L1ikl71Fx1TNo8ZM953QM5obzXTIYAA0dsMlaJlVPG-IMUM54KgZXm8XiJbp3SptynywnFhgWnFWqJ7POxAmHy1m2SHF_zcTAcICvrf0ykvT1Zy6PoyRwm34Jiwt_lTeW7wSOzc8MFS0s6XfBEW4CR9M1Q24FUkHOvT2xLvXhTXU1P5KTyXUdoyyfQuMEHi4aM_X47WfCiG32fSSc26WGSZbALif5PmaUdbH0q-YwAeu5QuERo3-pAEqTgqp21QOLoouJ080iuItftsSZdkOm_-_OS_Gr-jN0Y7BsOUT0-_GTGggswM2irDUfaGlz9L0uvzu7bYss6WD44REPixSdX48zFAlmMzL1RS75lRLu8jlEzbUgrLZ9Tsl10o4zCCcuYAZuUlO3oAJ2PSg-T2P11hbKYcpHvFr7z__Grf9cRNsetR7hmPGRWAZ-gtk2gamND6E1d1DDFnyw6JELedyWBsuTUF7y8G4b5PQbKkLd14ZnKAOq4g4Cb2_42ITQ5Nr5WnmtivKvXSQ7FtSlTs8XM6lczIxmeZi8YtVFAW_SdWEqrY6wbcS5TckARbmY22J64ftPmgEV95WKvhHWGpM1j-4XOJ6WoO4nhn0dwya4nJwlaW9sUcw6hy40qRQBaY3pey29iN7EYq2K5_MJKXyFEAKfMnhucpcwu39PWBbRp2H2wUyLQifxFBom5iDY5pyDRB0LjeG-DyGUFmbJSMHYDmfaGI482jK7wHYMrHtJkAOxuAMwcuxH5xj4lMMthCBEwCc0go-A6GlOZ8V7YJZMcpUkJXbL2gedGqfKGTb8NVYQd8U3njwzcdyAvPcJL2OJIB3oP1WhtoUaHAEquIGtPrdeFSpWujvOTc-59TttRjJ73VDcu74pL3TqUfc6ISauoxmH3sQTrwm_up3TGGtllzevSjkOYUMshszqcDjoEIMd2qNPtaDrk4dqlhZ9oMP6fzxGqCIyE7y2TUdhKA-TJVD8HqLx4cpG9L3BNFH6saYxVBDgWJTKczKtxNKhgqckxGflHossufkqBIPffuu-r-yjdkt7WPcqIOxfVAwxO1KiHwI7UsFrevCkf838cHREwPStIa__RBMiEU3ZlQl3yY9VxeTVYL49qdVwzulASl_Z9vWcRb-n24uU-lOsZl25yegP5jxsFMh3fzEfvMdNGwv7PWWxu4jyYI_g7GIrZmlJLHt5X1XdCAp-eO_0y0]--></g></svg>