<?xml version="1.0" encoding="us-ascii" standalone="no"?><svg xmlns="http://www.w3.org/2000/svg" xmlns:xlink="http://www.w3.org/1999/xlink" contentStyleType="text/css" height="1729px" preserveAspectRatio="none" style="width:1145px;height:1729px;background:#FFFFFF;" version="1.1" viewBox="0 0 1145 1729" width="1145px" zoomAndPan="magnify"><defs/><g><text fill="#000000" font-family="sans-serif" font-size="14" font-weight="bold" lengthAdjust="spacing" textLength="271" x="438" y="27.9951">renewUsername Transaction Flow</text><text fill="#000000" font-family="sans-serif" font-size="14" font-weight="bold" lengthAdjust="spacing" textLength="227" x="460" y="44.292">(Failed Path - Error Handling)</text><rect fill="#00CEEE" height="1472.875" style="stroke:#181818;stroke-width:1.0;" width="10" x="375" y="166.0234"/><rect fill="#00EE20" height="283.8047" style="stroke:#181818;stroke-width:1.0;" width="10" x="844" y="883.4297"/><rect fill="#00EE20" height="160.4688" style="stroke:#181818;stroke-width:1.0;" width="10" x="844" y="1277.7656"/><rect fill="#F5B7B1" height="1408.7422" style="stroke:#000000;stroke-width:1.5;" width="1128" x="10" y="223.1563"/><rect fill="#FFFFFF" height="1341.3438" style="stroke:none;stroke-width:1.0;" width="1128" x="10" y="290.5547"/><rect fill="#F5B7B1" height="1270.4063" style="stroke:#000000;stroke-width:1.5;" width="1108" x="20" y="354.4922"/><rect fill="#FFFFFF" height="1209.0078" style="stroke:none;stroke-width:1.0;" width="1108" x="20" y="415.8906"/><rect fill="#F5B7B1" height="1138.0703" style="stroke:#000000;stroke-width:1.5;" width="1088" x="30" y="479.8281"/><rect fill="#FFFFFF" height="1040.4063" style="stroke:none;stroke-width:1.0;" width="1088" x="30" y="577.4922"/><rect fill="#F5B7B1" height="969.4688" style="stroke:#000000;stroke-width:1.5;" width="1068" x="40" y="641.4297"/><rect fill="#FFFFFF" height="871.8047" style="stroke:none;stroke-width:1.0;" width="1068" x="40" y="739.0938"/><rect fill="#FFFFFF" height="90.2031" style="stroke:#000000;stroke-width:1.5;" width="567.5" x="318" y="845.1641"/><rect fill="#FFFFFF" height="43.9375" style="stroke:none;stroke-width:1.0;" width="567.5" x="318" y="891.4297"/><rect fill="#F5B7B1" height="612.3984" style="stroke:#000000;stroke-width:1.5;" width="1048" x="50" y="991.5"/><rect fill="#FFFFFF" height="514.7344" style="stroke:none;stroke-width:1.0;" width="1048" x="50" y="1089.1641"/><rect fill="#FFFFFF" height="271" style="stroke:#000000;stroke-width:1.5;" width="993" x="60" y="1182.2344"/><rect fill="#F5B7B1" height="153.4688" style="stroke:#000000;stroke-width:1.5;" width="973" x="70" y="1292.7656"/><rect fill="#FFFFFF" height="86.0703" style="stroke:none;stroke-width:1.0;" width="973" x="70" y="1360.1641"/><line style="stroke:#181818;stroke-width:0.5;stroke-dasharray:5.0,5.0;" x1="135" x2="135" y1="134.8906" y2="1648.8984"/><line style="stroke:#181818;stroke-width:0.5;stroke-dasharray:5.0,5.0;" x1="380" x2="380" y1="134.8906" y2="1648.8984"/><line style="stroke:#181818;stroke-width:0.5;stroke-dasharray:5.0,5.0;" x1="848.5" x2="848.5" y1="134.8906" y2="1648.8984"/><text fill="#000000" font-family="sans-serif" font-size="14" lengthAdjust="spacing" textLength="104" x="80" y="131.5889">User or Service</text><ellipse cx="135" cy="67.0938" fill="#E2E2F0" rx="8" ry="8" style="stroke:#181818;stroke-width:0.5;"/><path d="M135,75.0938 L135,102.0938 M122,83.0938 L148,83.0938 M135,102.0938 L122,117.0938 M135,102.0938 L148,117.0938 " fill="none" style="stroke:#181818;stroke-width:0.5;"/><text fill="#000000" font-family="sans-serif" font-size="14" lengthAdjust="spacing" textLength="104" x="80" y="1660.8936">User or Service</text><ellipse cx="135" cy="1672.6953" fill="#E2E2F0" rx="8" ry="8" style="stroke:#181818;stroke-width:0.5;"/><path d="M135,1680.6953 L135,1707.6953 M122,1688.6953 L148,1688.6953 M135,1707.6953 L122,1722.6953 M135,1707.6953 L148,1722.6953 " fill="none" style="stroke:#181818;stroke-width:0.5;"/><rect fill="#00CEEE" height="30.2969" rx="2.5" ry="2.5" style="stroke:#181818;stroke-width:0.5;" width="104" x="328" y="103.5938"/><text fill="#000000" font-family="sans-serif" font-size="14" lengthAdjust="spacing" textLength="90" x="335" y="123.5889">NameService</text><rect fill="#00CEEE" height="30.2969" rx="2.5" ry="2.5" style="stroke:#181818;stroke-width:0.5;" width="104" x="328" y="1647.8984"/><text fill="#000000" font-family="sans-serif" font-size="14" lengthAdjust="spacing" textLength="90" x="335" y="1667.8936">NameService</text><rect fill="#00EE20" height="30.2969" rx="2.5" ry="2.5" style="stroke:#181818;stroke-width:0.5;" width="53" x="822.5" y="103.5938"/><text fill="#000000" font-family="sans-serif" font-size="14" lengthAdjust="spacing" textLength="39" x="829.5" y="123.5889">EVVM</text><rect fill="#00EE20" height="30.2969" rx="2.5" ry="2.5" style="stroke:#181818;stroke-width:0.5;" width="53" x="822.5" y="1647.8984"/><text fill="#000000" font-family="sans-serif" font-size="14" lengthAdjust="spacing" textLength="39" x="829.5" y="1667.8936">EVVM</text><rect fill="#00CEEE" height="1472.875" style="stroke:#181818;stroke-width:1.0;" width="10" x="375" y="166.0234"/><rect fill="#00EE20" height="283.8047" style="stroke:#181818;stroke-width:1.0;" width="10" x="844" y="883.4297"/><rect fill="#00EE20" height="160.4688" style="stroke:#181818;stroke-width:1.0;" width="10" x="844" y="1277.7656"/><polygon fill="#181818" points="363,162.0234,373,166.0234,363,170.0234,367,166.0234" style="stroke:#181818;stroke-width:1.0;"/><line style="stroke:#181818;stroke-width:1.0;" x1="135" x2="369" y1="166.0234" y2="166.0234"/><text fill="#000000" font-family="sans-serif" font-size="13" lengthAdjust="spacing" textLength="127" x="142" y="160.9575">renewUsername(&#183;&#183;&#183;)</text><line style="stroke:#181818;stroke-width:1.0;" x1="385" x2="427" y1="195.1563" y2="195.1563"/><line style="stroke:#181818;stroke-width:1.0;" x1="427" x2="427" y1="195.1563" y2="208.1563"/><line style="stroke:#181818;stroke-width:1.0;" x1="386" x2="427" y1="208.1563" y2="208.1563"/><polygon fill="#181818" points="396,204.1563,386,208.1563,396,212.1563,392,208.1563" style="stroke:#181818;stroke-width:1.0;"/><text fill="#000000" font-family="sans-serif" font-size="13" lengthAdjust="spacing" textLength="238" x="392" y="190.0903">onlyOwnerOfIdentity(user, username)</text><path d="M10,223.1563 L74,223.1563 L74,230.2891 L64,240.2891 L10,240.2891 L10,223.1563 " fill="#EEEEEE" style="stroke:#000000;stroke-width:1.5;"/><rect fill="none" height="1408.7422" style="stroke:#000000;stroke-width:1.5;" width="1128" x="10" y="223.1563"/><text fill="#000000" font-family="sans-serif" font-size="13" font-weight="bold" lengthAdjust="spacing" textLength="19" x="25" y="236.2231">alt</text><text fill="#000000" font-family="sans-serif" font-size="11" font-weight="bold" lengthAdjust="spacing" textLength="257" x="89" y="235.3667">[User is not the owner of the username]</text><line style="stroke:#181818;stroke-width:2.0;" x1="142" x2="152" y1="274.5547" y2="284.5547"/><line style="stroke:#181818;stroke-width:2.0;" x1="142" x2="152" y1="284.5547" y2="274.5547"/><line style="stroke:#181818;stroke-width:1.0;" x1="147" x2="374" y1="279.5547" y2="279.5547"/><text fill="#000000" font-family="sans-serif" font-size="13" lengthAdjust="spacing" textLength="70" x="152" y="259.356">Revert with</text><text fill="#000000" font-family="sans-serif" font-size="13" lengthAdjust="spacing" textLength="174" x="152" y="274.4888">OwnershipVerificationFailed</text><path d="M390,245.2891 L390,285.2891 L583,285.2891 L583,255.2891 L573,245.2891 L390,245.2891 " fill="#FEFFDD" style="stroke:#181818;stroke-width:0.5;"/><path d="M573,245.2891 L573,255.2891 L583,255.2891 L573,245.2891 " fill="#FEFFDD" style="stroke:#181818;stroke-width:0.5;"/><text fill="#000000" font-family="sans-serif" font-size="13" lengthAdjust="spacing" textLength="172" x="396" y="262.356">Only the current username</text><text fill="#000000" font-family="sans-serif" font-size="13" lengthAdjust="spacing" textLength="119" x="396" y="277.4888">owner can renew it</text><line style="stroke:#000000;stroke-width:1.0;stroke-dasharray:2.0,2.0;" x1="10" x2="1138" y1="291.5547" y2="291.5547"/><text fill="#000000" font-family="sans-serif" font-size="11" font-weight="bold" lengthAdjust="spacing" textLength="169" x="15" y="301.7651">[User owns the username]</text><line style="stroke:#181818;stroke-width:1.0;" x1="385" x2="427" y1="326.4922" y2="326.4922"/><line style="stroke:#181818;stroke-width:1.0;" x1="427" x2="427" y1="326.4922" y2="339.4922"/><line style="stroke:#181818;stroke-width:1.0;" x1="386" x2="427" y1="339.4922" y2="339.4922"/><polygon fill="#181818" points="396,335.4922,386,339.4922,396,343.4922,392,339.4922" style="stroke:#181818;stroke-width:1.0;"/><text fill="#000000" font-family="sans-serif" font-size="13" lengthAdjust="spacing" textLength="234" x="392" y="321.4263">verifyIfNonceIsAvailable(user, nonce)</text><path d="M20,354.4922 L84,354.4922 L84,361.625 L74,371.625 L20,371.625 L20,354.4922 " fill="#EEEEEE" style="stroke:#000000;stroke-width:1.5;"/><rect fill="none" height="1270.4063" style="stroke:#000000;stroke-width:1.5;" width="1108" x="20" y="354.4922"/><text fill="#000000" font-family="sans-serif" font-size="13" font-weight="bold" lengthAdjust="spacing" textLength="19" x="35" y="367.5591">alt</text><text fill="#000000" font-family="sans-serif" font-size="11" font-weight="bold" lengthAdjust="spacing" textLength="271" x="99" y="366.7026">[nameServiceNonce[user][nonce] == true]</text><line style="stroke:#181818;stroke-width:2.0;" x1="142" x2="152" y1="402.8906" y2="412.8906"/><line style="stroke:#181818;stroke-width:2.0;" x1="142" x2="152" y1="412.8906" y2="402.8906"/><line style="stroke:#181818;stroke-width:1.0;" x1="147" x2="374" y1="407.8906" y2="407.8906"/><text fill="#000000" font-family="sans-serif" font-size="13" lengthAdjust="spacing" textLength="70" x="152" y="387.6919">Revert with</text><text fill="#000000" font-family="sans-serif" font-size="13" lengthAdjust="spacing" textLength="122" x="152" y="402.8247">AsyncNonceAlreadyUsed()</text><line style="stroke:#000000;stroke-width:1.0;stroke-dasharray:2.0,2.0;" x1="20" x2="1128" y1="416.8906" y2="416.8906"/><text fill="#000000" font-family="sans-serif" font-size="11" font-weight="bold" lengthAdjust="spacing" textLength="128" x="25" y="427.1011">[Nonce is available]</text><line style="stroke:#181818;stroke-width:1.0;" x1="385" x2="427" y1="451.8281" y2="451.8281"/><line style="stroke:#181818;stroke-width:1.0;" x1="427" x2="427" y1="451.8281" y2="464.8281"/><line style="stroke:#181818;stroke-width:1.0;" x1="386" x2="427" y1="464.8281" y2="464.8281"/><polygon fill="#181818" points="396,460.8281,386,464.8281,396,468.8281,392,464.8281" style="stroke:#181818;stroke-width:1.0;"/><text fill="#000000" font-family="sans-serif" font-size="13" lengthAdjust="spacing" textLength="174" x="392" y="446.7622">Validate renewal conditions</text><path d="M30,479.8281 L94,479.8281 L94,486.9609 L84,496.9609 L30,496.9609 L30,479.8281 " fill="#EEEEEE" style="stroke:#000000;stroke-width:1.5;"/><rect fill="none" height="1138.0703" style="stroke:#000000;stroke-width:1.5;" width="1088" x="30" y="479.8281"/><text fill="#000000" font-family="sans-serif" font-size="13" font-weight="bold" lengthAdjust="spacing" textLength="19" x="45" y="492.895">alt</text><text fill="#000000" font-family="sans-serif" font-size="11" font-weight="bold" lengthAdjust="spacing" textLength="165" x="109" y="492.0386">[Renewal validation fails]</text><line style="stroke:#181818;stroke-width:2.0;" x1="142" x2="152" y1="546.3594" y2="556.3594"/><line style="stroke:#181818;stroke-width:2.0;" x1="142" x2="152" y1="556.3594" y2="546.3594"/><line style="stroke:#181818;stroke-width:1.0;" x1="147" x2="374" y1="551.3594" y2="551.3594"/><text fill="#000000" font-family="sans-serif" font-size="13" lengthAdjust="spacing" textLength="70" x="152" y="531.1606">Revert with</text><text fill="#000000" font-family="sans-serif" font-size="13" lengthAdjust="spacing" textLength="216" x="152" y="546.2935">RenewUsernameVerificationFailed</text><path d="M390,501.9609 L390,571.9609 L722,571.9609 L722,511.9609 L712,501.9609 L390,501.9609 " fill="#FEFFDD" style="stroke:#181818;stroke-width:0.5;"/><path d="M712,501.9609 L712,511.9609 L722,511.9609 L712,501.9609 " fill="#FEFFDD" style="stroke:#181818;stroke-width:0.5;"/><text fill="#000000" font-family="sans-serif" font-size="13" lengthAdjust="spacing" textLength="60" x="396" y="519.0278">Could be:</text><text fill="#000000" font-family="sans-serif" font-size="13" lengthAdjust="spacing" textLength="311" x="396" y="534.1606">&#8226; flagNotAUsername == 0x01 (not a username)</text><text fill="#000000" font-family="sans-serif" font-size="13" lengthAdjust="spacing" textLength="301" x="396" y="549.2935">&#8226; expireDate &gt; block.timestamp + 36500 days</text><text fill="#000000" font-family="sans-serif" font-size="13" lengthAdjust="spacing" textLength="256" x="404" y="564.4263">(trying to renew &gt;100 years in advance)</text><line style="stroke:#000000;stroke-width:1.0;stroke-dasharray:2.0,2.0;" x1="30" x2="1118" y1="578.4922" y2="578.4922"/><text fill="#000000" font-family="sans-serif" font-size="11" font-weight="bold" lengthAdjust="spacing" textLength="196" x="35" y="588.7026">[Renewal conditions are valid]</text><line style="stroke:#181818;stroke-width:1.0;" x1="385" x2="427" y1="613.4297" y2="613.4297"/><line style="stroke:#181818;stroke-width:1.0;" x1="427" x2="427" y1="613.4297" y2="626.4297"/><line style="stroke:#181818;stroke-width:1.0;" x1="386" x2="427" y1="626.4297" y2="626.4297"/><polygon fill="#181818" points="396,622.4297,386,626.4297,396,630.4297,392,626.4297" style="stroke:#181818;stroke-width:1.0;"/><text fill="#000000" font-family="sans-serif" font-size="13" lengthAdjust="spacing" textLength="285" x="392" y="608.3638">verifyMessageSignedForRenewUsername(&#183;&#183;&#183;)</text><path d="M40,641.4297 L104,641.4297 L104,648.5625 L94,658.5625 L40,658.5625 L40,641.4297 " fill="#EEEEEE" style="stroke:#000000;stroke-width:1.5;"/><rect fill="none" height="969.4688" style="stroke:#000000;stroke-width:1.5;" width="1068" x="40" y="641.4297"/><text fill="#000000" font-family="sans-serif" font-size="13" font-weight="bold" lengthAdjust="spacing" textLength="19" x="55" y="654.4966">alt</text><text fill="#000000" font-family="sans-serif" font-size="11" font-weight="bold" lengthAdjust="spacing" textLength="181" x="119" y="653.6401">[Signature verification fails]</text><line style="stroke:#181818;stroke-width:2.0;" x1="142" x2="152" y1="707.9609" y2="717.9609"/><line style="stroke:#181818;stroke-width:2.0;" x1="142" x2="152" y1="717.9609" y2="707.9609"/><line style="stroke:#181818;stroke-width:1.0;" x1="147" x2="374" y1="712.9609" y2="712.9609"/><text fill="#000000" font-family="sans-serif" font-size="13" lengthAdjust="spacing" textLength="70" x="152" y="692.7622">Revert with</text><text fill="#000000" font-family="sans-serif" font-size="13" lengthAdjust="spacing" textLength="206" x="152" y="707.895">InvalidSignatureOnNameService</text><path d="M390,663.5625 L390,733.5625 L540,733.5625 L540,673.5625 L530,663.5625 L390,663.5625 " fill="#FEFFDD" style="stroke:#181818;stroke-width:0.5;"/><path d="M530,663.5625 L530,673.5625 L540,673.5625 L530,663.5625 " fill="#FEFFDD" style="stroke:#181818;stroke-width:0.5;"/><text fill="#000000" font-family="sans-serif" font-size="13" lengthAdjust="spacing" textLength="129" x="396" y="680.6294">Invalid signature for:</text><text fill="#000000" font-family="sans-serif" font-size="13" lengthAdjust="spacing" textLength="40" x="396" y="695.7622">&#8226; user</text><text fill="#000000" font-family="sans-serif" font-size="13" lengthAdjust="spacing" textLength="77" x="396" y="710.895">&#8226; username</text><text fill="#000000" font-family="sans-serif" font-size="13" lengthAdjust="spacing" textLength="51" x="396" y="726.0278">&#8226; nonce</text><line style="stroke:#000000;stroke-width:1.0;stroke-dasharray:2.0,2.0;" x1="40" x2="1108" y1="740.0938" y2="740.0938"/><text fill="#000000" font-family="sans-serif" font-size="11" font-weight="bold" lengthAdjust="spacing" textLength="122" x="45" y="750.3042">[Signature is valid]</text><line style="stroke:#181818;stroke-width:1.0;" x1="385" x2="427" y1="775.0313" y2="775.0313"/><line style="stroke:#181818;stroke-width:1.0;" x1="427" x2="427" y1="775.0313" y2="788.0313"/><line style="stroke:#181818;stroke-width:1.0;" x1="386" x2="427" y1="788.0313" y2="788.0313"/><polygon fill="#181818" points="396,784.0313,386,788.0313,396,792.0313,392,788.0313" style="stroke:#181818;stroke-width:1.0;"/><text fill="#000000" font-family="sans-serif" font-size="13" lengthAdjust="spacing" textLength="290" x="392" y="769.9653">priceOfRenew = seePriceToRenew(username)</text><line style="stroke:#181818;stroke-width:1.0;" x1="385" x2="427" y1="817.1641" y2="817.1641"/><line style="stroke:#181818;stroke-width:1.0;" x1="427" x2="427" y1="817.1641" y2="830.1641"/><line style="stroke:#181818;stroke-width:1.0;" x1="386" x2="427" y1="830.1641" y2="830.1641"/><polygon fill="#181818" points="396,826.1641,386,830.1641,396,834.1641,392,830.1641" style="stroke:#181818;stroke-width:1.0;"/><text fill="#000000" font-family="sans-serif" font-size="13" lengthAdjust="spacing" textLength="211" x="392" y="812.0981">makePay(user, priceOfRenew, &#183;&#183;&#183;)</text><path d="M318,845.1641 L382,845.1641 L382,852.2969 L372,862.2969 L318,862.2969 L318,845.1641 " fill="#EEEEEE" style="stroke:#000000;stroke-width:1.5;"/><rect fill="none" height="90.2031" style="stroke:#000000;stroke-width:1.5;" width="567.5" x="318" y="845.1641"/><text fill="#000000" font-family="sans-serif" font-size="13" font-weight="bold" lengthAdjust="spacing" textLength="19" x="333" y="858.231">alt</text><text fill="#000000" font-family="sans-serif" font-size="11" font-weight="bold" lengthAdjust="spacing" textLength="177" x="397" y="857.3745">[priorityFlag_EVVM == true]</text><polygon fill="#181818" points="832,879.4297,842,883.4297,832,887.4297,836,883.4297" style="stroke:#181818;stroke-width:1.0;"/><line style="stroke:#181818;stroke-width:1.0;" x1="385" x2="838" y1="883.4297" y2="883.4297"/><text fill="#000000" font-family="sans-serif" font-size="13" lengthAdjust="spacing" textLength="131" x="392" y="878.3638">payStaker_async(&#183;&#183;&#183;)</text><line style="stroke:#000000;stroke-width:1.0;stroke-dasharray:2.0,2.0;" x1="318" x2="885.5" y1="892.4297" y2="892.4297"/><text fill="#000000" font-family="sans-serif" font-size="11" font-weight="bold" lengthAdjust="spacing" textLength="183" x="323" y="902.6401">[priorityFlag_EVVM == false]</text><polygon fill="#181818" points="832,923.3672,842,927.3672,832,931.3672,836,927.3672" style="stroke:#181818;stroke-width:1.0;"/><line style="stroke:#181818;stroke-width:1.0;" x1="385" x2="838" y1="927.3672" y2="927.3672"/><text fill="#000000" font-family="sans-serif" font-size="13" lengthAdjust="spacing" textLength="123" x="392" y="922.3013">payStaker_sync(&#183;&#183;&#183;)</text><line style="stroke:#181818;stroke-width:1.0;" x1="854" x2="896" y1="963.5" y2="963.5"/><line style="stroke:#181818;stroke-width:1.0;" x1="896" x2="896" y1="963.5" y2="976.5"/><line style="stroke:#181818;stroke-width:1.0;" x1="855" x2="896" y1="976.5" y2="976.5"/><polygon fill="#181818" points="865,972.5,855,976.5,865,980.5,861,976.5" style="stroke:#181818;stroke-width:1.0;"/><text fill="#000000" font-family="sans-serif" font-size="13" lengthAdjust="spacing" textLength="140" x="861" y="958.4341">Verify payment inputs</text><path d="M50,991.5 L114,991.5 L114,998.6328 L104,1008.6328 L50,1008.6328 L50,991.5 " fill="#EEEEEE" style="stroke:#000000;stroke-width:1.5;"/><rect fill="none" height="612.3984" style="stroke:#000000;stroke-width:1.5;" width="1048" x="50" y="991.5"/><text fill="#000000" font-family="sans-serif" font-size="13" font-weight="bold" lengthAdjust="spacing" textLength="19" x="65" y="1004.5669">alt</text><text fill="#000000" font-family="sans-serif" font-size="11" font-weight="bold" lengthAdjust="spacing" textLength="156" x="129" y="1003.7104">[Renewal payment fails]</text><line style="stroke:#181818;stroke-width:2.0;" x1="142" x2="152" y1="1058.0313" y2="1068.0313"/><line style="stroke:#181818;stroke-width:2.0;" x1="142" x2="152" y1="1068.0313" y2="1058.0313"/><line style="stroke:#181818;stroke-width:1.0;" x1="147" x2="843" y1="1063.0313" y2="1063.0313"/><text fill="#000000" font-family="sans-serif" font-size="13" lengthAdjust="spacing" textLength="70" x="152" y="1042.8325">Revert with</text><text fill="#000000" font-family="sans-serif" font-size="13" lengthAdjust="spacing" textLength="92" x="152" y="1057.9653">payment error</text><path d="M859,1013.6328 L859,1083.6328 L1088,1083.6328 L1088,1023.6328 L1078,1013.6328 L859,1013.6328 " fill="#FEFFDD" style="stroke:#181818;stroke-width:0.5;"/><path d="M1078,1013.6328 L1078,1023.6328 L1088,1023.6328 L1078,1013.6328 " fill="#FEFFDD" style="stroke:#181818;stroke-width:0.5;"/><text fill="#000000" font-family="sans-serif" font-size="13" lengthAdjust="spacing" textLength="60" x="865" y="1030.6997">Could be:</text><text fill="#000000" font-family="sans-serif" font-size="13" lengthAdjust="spacing" textLength="208" x="865" y="1045.8325">&#8226; Insufficient balance for renewal</text><text fill="#000000" font-family="sans-serif" font-size="13" lengthAdjust="spacing" textLength="136" x="865" y="1060.9653">&#8226; Invalid EVVM nonce</text><text fill="#000000" font-family="sans-serif" font-size="13" lengthAdjust="spacing" textLength="157" x="865" y="1076.0981">&#8226; Invalid EVVM signature</text><line style="stroke:#000000;stroke-width:1.0;stroke-dasharray:2.0,2.0;" x1="50" x2="1098" y1="1090.1641" y2="1090.1641"/><text fill="#000000" font-family="sans-serif" font-size="11" font-weight="bold" lengthAdjust="spacing" textLength="188" x="55" y="1100.3745">[Renewal payment succeeds]</text><line style="stroke:#181818;stroke-width:1.0;" x1="854" x2="896" y1="1125.1016" y2="1125.1016"/><line style="stroke:#181818;stroke-width:1.0;" x1="896" x2="896" y1="1125.1016" y2="1138.1016"/><line style="stroke:#181818;stroke-width:1.0;" x1="855" x2="896" y1="1138.1016" y2="1138.1016"/><polygon fill="#181818" points="865,1134.1016,855,1138.1016,865,1142.1016,861,1138.1016" style="stroke:#181818;stroke-width:1.0;"/><text fill="#000000" font-family="sans-serif" font-size="13" lengthAdjust="spacing" textLength="108" x="861" y="1120.0356">Update balances</text><polygon fill="#181818" points="396,1163.2344,386,1167.2344,396,1171.2344,392,1167.2344" style="stroke:#181818;stroke-width:1.0;"/><line style="stroke:#181818;stroke-width:1.0;" x1="390" x2="848" y1="1167.2344" y2="1167.2344"/><text fill="#000000" font-family="sans-serif" font-size="13" lengthAdjust="spacing" textLength="127" x="402" y="1162.1685">Payment processed</text><path d="M60,1182.2344 L124,1182.2344 L124,1189.3672 L114,1199.3672 L60,1199.3672 L60,1182.2344 " fill="#EEEEEE" style="stroke:#000000;stroke-width:1.5;"/><rect fill="none" height="271" style="stroke:#000000;stroke-width:1.5;" width="993" x="60" y="1182.2344"/><text fill="#000000" font-family="sans-serif" font-size="13" font-weight="bold" lengthAdjust="spacing" textLength="19" x="75" y="1195.3013">alt</text><text fill="#000000" font-family="sans-serif" font-size="11" font-weight="bold" lengthAdjust="spacing" textLength="197" x="139" y="1194.4448">[isAddressStaker(msg.sender)]</text><line style="stroke:#181818;stroke-width:1.0;" x1="385" x2="427" y1="1235.6328" y2="1235.6328"/><line style="stroke:#181818;stroke-width:1.0;" x1="427" x2="427" y1="1235.6328" y2="1248.6328"/><line style="stroke:#181818;stroke-width:1.0;" x1="386" x2="427" y1="1248.6328" y2="1248.6328"/><polygon fill="#181818" points="396,1244.6328,386,1248.6328,396,1252.6328,392,1248.6328" style="stroke:#181818;stroke-width:1.0;"/><text fill="#000000" font-family="sans-serif" font-size="13" lengthAdjust="spacing" textLength="161" x="392" y="1215.4341">makeCaPay(msg.sender,</text><text fill="#000000" font-family="sans-serif" font-size="13" lengthAdjust="spacing" textLength="445" x="392" y="1230.5669">getRewardAmount() + (priceOfRenew * 50) / 100 + priorityFee_EVVM)</text><polygon fill="#181818" points="832,1273.7656,842,1277.7656,832,1281.7656,836,1277.7656" style="stroke:#181818;stroke-width:1.0;"/><line style="stroke:#181818;stroke-width:1.0;" x1="385" x2="838" y1="1277.7656" y2="1277.7656"/><text fill="#000000" font-family="sans-serif" font-size="13" lengthAdjust="spacing" textLength="175" x="392" y="1272.6997">caPay(msg.sender, reward)</text><path d="M70,1292.7656 L134,1292.7656 L134,1299.8984 L124,1309.8984 L70,1309.8984 L70,1292.7656 " fill="#EEEEEE" style="stroke:#000000;stroke-width:1.5;"/><rect fill="none" height="153.4688" style="stroke:#000000;stroke-width:1.5;" width="973" x="70" y="1292.7656"/><text fill="#000000" font-family="sans-serif" font-size="13" font-weight="bold" lengthAdjust="spacing" textLength="19" x="85" y="1305.8325">alt</text><text fill="#000000" font-family="sans-serif" font-size="11" font-weight="bold" lengthAdjust="spacing" textLength="174" x="149" y="1304.9761">[Staker reward caPay fails]</text><line style="stroke:#181818;stroke-width:2.0;" x1="142" x2="152" y1="1344.1641" y2="1354.1641"/><line style="stroke:#181818;stroke-width:2.0;" x1="142" x2="152" y1="1354.1641" y2="1344.1641"/><line style="stroke:#181818;stroke-width:1.0;" x1="147" x2="843" y1="1349.1641" y2="1349.1641"/><text fill="#000000" font-family="sans-serif" font-size="13" lengthAdjust="spacing" textLength="70" x="152" y="1328.9653">Revert with</text><text fill="#000000" font-family="sans-serif" font-size="13" lengthAdjust="spacing" textLength="73" x="152" y="1344.0981">caPay error</text><path d="M859,1314.8984 L859,1354.8984 L1033,1354.8984 L1033,1324.8984 L1023,1314.8984 L859,1314.8984 " fill="#FEFFDD" style="stroke:#181818;stroke-width:0.5;"/><path d="M1023,1314.8984 L1023,1324.8984 L1033,1324.8984 L1023,1314.8984 " fill="#FEFFDD" style="stroke:#181818;stroke-width:0.5;"/><text fill="#000000" font-family="sans-serif" font-size="13" lengthAdjust="spacing" textLength="153" x="865" y="1331.9653">Contract balance issues</text><text fill="#000000" font-family="sans-serif" font-size="13" lengthAdjust="spacing" textLength="134" x="865" y="1347.0981">or other EVVM errors</text><line style="stroke:#000000;stroke-width:1.0;stroke-dasharray:2.0,2.0;" x1="70" x2="1043" y1="1361.1641" y2="1361.1641"/><text fill="#000000" font-family="sans-serif" font-size="11" font-weight="bold" lengthAdjust="spacing" textLength="164" x="75" y="1371.3745">[Staker reward succeeds]</text><line style="stroke:#181818;stroke-width:1.0;" x1="854" x2="896" y1="1396.1016" y2="1396.1016"/><line style="stroke:#181818;stroke-width:1.0;" x1="896" x2="896" y1="1396.1016" y2="1409.1016"/><line style="stroke:#181818;stroke-width:1.0;" x1="855" x2="896" y1="1409.1016" y2="1409.1016"/><polygon fill="#181818" points="865,1405.1016,855,1409.1016,865,1413.1016,861,1409.1016" style="stroke:#181818;stroke-width:1.0;"/><text fill="#000000" font-family="sans-serif" font-size="13" lengthAdjust="spacing" textLength="160" x="861" y="1391.0356">Distribute staker rewards</text><polygon fill="#181818" points="396,1434.2344,386,1438.2344,396,1442.2344,392,1438.2344" style="stroke:#181818;stroke-width:1.0;"/><line style="stroke:#181818;stroke-width:1.0;" x1="390" x2="848" y1="1438.2344" y2="1438.2344"/><text fill="#000000" font-family="sans-serif" font-size="13" lengthAdjust="spacing" textLength="118" x="402" y="1433.1685">Reward distributed</text><line style="stroke:#181818;stroke-width:1.0;" x1="385" x2="427" y1="1496.5" y2="1496.5"/><line style="stroke:#181818;stroke-width:1.0;" x1="427" x2="427" y1="1496.5" y2="1509.5"/><line style="stroke:#181818;stroke-width:1.0;" x1="386" x2="427" y1="1509.5" y2="1509.5"/><polygon fill="#181818" points="396,1505.5,386,1509.5,396,1513.5,392,1509.5" style="stroke:#181818;stroke-width:1.0;"/><text fill="#000000" font-family="sans-serif" font-size="13" lengthAdjust="spacing" textLength="115" x="392" y="1476.3013">Extend expiration:</text><text fill="#000000" font-family="sans-serif" font-size="13" lengthAdjust="spacing" textLength="328" x="392" y="1491.4341">identityDetails[username].expireDate += 366 days</text><line style="stroke:#181818;stroke-width:1.0;" x1="385" x2="427" y1="1538.6328" y2="1538.6328"/><line style="stroke:#181818;stroke-width:1.0;" x1="427" x2="427" y1="1538.6328" y2="1551.6328"/><line style="stroke:#181818;stroke-width:1.0;" x1="386" x2="427" y1="1551.6328" y2="1551.6328"/><polygon fill="#181818" points="396,1547.6328,386,1551.6328,396,1555.6328,392,1551.6328" style="stroke:#181818;stroke-width:1.0;"/><text fill="#000000" font-family="sans-serif" font-size="13" lengthAdjust="spacing" textLength="257" x="392" y="1533.5669">nameServiceNonce[user][nonce] = true</text><polygon fill="#181818" points="146,1591.8984,136,1595.8984,146,1599.8984,142,1595.8984" style="stroke:#181818;stroke-width:1.0;"/><line style="stroke:#181818;stroke-width:1.0;stroke-dasharray:2.0,2.0;" x1="140" x2="374" y1="1595.8984" y2="1595.8984"/><text fill="#000000" font-family="sans-serif" font-size="13" lengthAdjust="spacing" textLength="205" x="152" y="1575.6997">Username renewed successfully</text><text fill="#000000" font-family="sans-serif" font-size="13" lengthAdjust="spacing" textLength="141" x="152" y="1590.8325">Extended by 366 days</text><!--SRC=[dLVDRjj64BxpAGREHQf_8ZTm2WIn0TUMMnrY6tBYYsK4At8eBKpj2hjBsKHH8C-Ib-YzZz8dwUpoRocHiXBx878ryytCDt-hZzfa2Pu5aGpJ1Ge3VmK0lxFmwGybKn5To4GgU9vpWy7VmSUtXNJ0GaFdUryqAg27ErGh7k8UC0qfdGLBfWmF-P8HujurMw0l8UftU3CON0o7mwR2yFx-avF4rMfXHOR3NmT1OBX941GAVBQ6BGnyLaneyePB0LU9V9w8tXNZ2KPmoymS3c6e53du9nDHmiMi7mJMFpWyQtZneOdQ-_SV-z-tOV8LCzZgSk0VRW1AaMGtpmBLJJoAY5XkifurVU08ihBa2qiCl8bFfhzDZy5noOaTQS3C4QHL1XcxbrA7aWCDGuSlxZioECOLAWFFtCmdmbdMSxwyHyLZ7Z9BK4vC3Y4fACLdSqEQD-IginAcIjaQAArDHEv4o4HE473Zr0DCD17XwY9td0HrqzDDLzSfMbdVib5yBKM88ts-8l_ODC629s6F-pcEJvG7uZGVhFZZWnD_XDDJC2hDYTgHB8TodYXaKKR1H9MkU_13TP8sIQpqDMWtj1xgFKjuP0l9qSWI2AM8k4sAhX7y8CU5t2fNjEKTaqbT2UyOszYlwuvYgE3yehYGQHB153zCn7_VlaESiDcrDETLun7FWvV1CVHilRAwg7DnV5boXPSsuZEO9Z9yEZ9yWTgmnHBsuTtxay408fRfYG3e6PLHRuAHHPMT7TEt6JAbWGjWqOgvIl1zhLxyz8mto0McCESmw6QklIu_eTPiXdTy9Z2wachSEY4Qg7u2hHupgJNliTwIn1qJEH8kZ0hsHdXZTHFGJsMX2hfoAPQgoAirLJ_bJM_VN3Tjm3OEVERhQAavMlX-bVEbei-Rs94Cfw0HR-t9P-bEUjxC_27O1Nl2MrPENj_80RIci4fZ7XTfI4MZ-uhA_wjTInlpPOihRdjHQ2oxC-I7-ifq9iAgTDeGgeNJs7phKZxphHx6Z2H-oiMj7g9eIQk3gA7SZCaiehjESB5CZUxWU6tMbJhjFLBRQc-GKXljmc-FVSjy6mcTnjIbt49CMM8dZcsJSc2NKdadEPvTYxISLsssDM_hGUiq316ZRN5N77zPkbrIkBbTfTaFjuMrfPAagDSMGFaNOQCEW_PIhRk4w_CeKeIN5r5leMT7cee5LNkLxzIs5ymsRWrrC14pD6CYJKNd2xgScbwVLaclCJb-WPD17zw2NI3xTMyWkjRe1xkwKn0Thlj0vM3jTuVLti3Tulx6SEGL5dBJMrfXbvR8CReRegCnX54KHjK5NEiKQL5JCqYwuQcyoXrgjskDvT08R6kXTnJy9TT6yMbAODe7smsaMLjv1K5KGKPRGTPxeTEOwCO9kXI27-wCuOiXnVn-vMuKDBzuyVlY4eqjbuToMJuUUTUm_LEwTRrtTwwVCFlAdJjVYQ_34cvHfzKzqirNBCf2wpXDacmYyZ3fU9hLRhz6kVzUFjjFnxINHy-bu7y0]--></g></svg>