<?xml version="1.0" encoding="us-ascii" standalone="no"?><svg xmlns="http://www.w3.org/2000/svg" xmlns:xlink="http://www.w3.org/1999/xlink" contentStyleType="text/css" height="1312px" preserveAspectRatio="none" style="width:1021px;height:1312px;background:#FFFFFF;" version="1.1" viewBox="0 0 1021 1312" width="1021px" zoomAndPan="magnify"><defs/><g><text fill="#000000" font-family="sans-serif" font-size="14" font-weight="bold" lengthAdjust="spacing" textLength="255" x="386.5" y="27.9951">withdrawOffer Transaction Flow</text><text fill="#000000" font-family="sans-serif" font-size="14" font-weight="bold" lengthAdjust="spacing" textLength="285" x="371.5" y="44.292">(Happy Path - Successful Execution)</text><rect fill="#00CEEE" height="1044.7188" style="stroke:#181818;stroke-width:1.0;" width="10" x="262" y="166.0234"/><rect fill="#00EE20" height="147.9023" style="stroke:#181818;stroke-width:1.0;" width="10" x="650" y="427.0859"/><rect fill="#00EE20" height="86.3984" style="stroke:#181818;stroke-width:1.0;" width="10" x="650" y="678.9531"/><rect fill="#00EE20" height="109.6641" style="stroke:#181818;stroke-width:1.0;" width="10" x="650" y="939.2813"/><rect fill="#FFFFFF" height="271" style="stroke:#000000;stroke-width:1.5;" width="637" x="195" y="322.5547"/><rect fill="#FFFFFF" height="90.2031" style="stroke:#000000;stroke-width:1.5;" width="486.5" x="205" y="388.8203"/><rect fill="#FFFFFF" height="43.9375" style="stroke:none;stroke-width:1.0;" width="486.5" x="205" y="435.0859"/><line style="stroke:#181818;stroke-width:0.5;stroke-dasharray:5.0,5.0;" x1="60" x2="60" y1="134.8906" y2="1231.7422"/><line style="stroke:#181818;stroke-width:0.5;stroke-dasharray:5.0,5.0;" x1="267" x2="267" y1="134.8906" y2="1231.7422"/><line style="stroke:#181818;stroke-width:0.5;stroke-dasharray:5.0,5.0;" x1="654.5" x2="654.5" y1="134.8906" y2="1231.7422"/><text fill="#000000" font-family="sans-serif" font-size="14" lengthAdjust="spacing" textLength="104" x="5" y="131.5889">User or Service</text><ellipse cx="60" cy="67.0938" fill="#E2E2F0" rx="8" ry="8" style="stroke:#181818;stroke-width:0.5;"/><path d="M60,75.0938 L60,102.0938 M47,83.0938 L73,83.0938 M60,102.0938 L47,117.0938 M60,102.0938 L73,117.0938 " fill="none" style="stroke:#181818;stroke-width:0.5;"/><text fill="#000000" font-family="sans-serif" font-size="14" lengthAdjust="spacing" textLength="104" x="5" y="1243.7373">User or Service</text><ellipse cx="60" cy="1255.5391" fill="#E2E2F0" rx="8" ry="8" style="stroke:#181818;stroke-width:0.5;"/><path d="M60,1263.5391 L60,1290.5391 M47,1271.5391 L73,1271.5391 M60,1290.5391 L47,1305.5391 M60,1290.5391 L73,1305.5391 " fill="none" style="stroke:#181818;stroke-width:0.5;"/><rect fill="#00CEEE" height="30.2969" rx="2.5" ry="2.5" style="stroke:#181818;stroke-width:0.5;" width="104" x="215" y="103.5938"/><text fill="#000000" font-family="sans-serif" font-size="14" lengthAdjust="spacing" textLength="90" x="222" y="123.5889">NameService</text><rect fill="#00CEEE" height="30.2969" rx="2.5" ry="2.5" style="stroke:#181818;stroke-width:0.5;" width="104" x="215" y="1230.7422"/><text fill="#000000" font-family="sans-serif" font-size="14" lengthAdjust="spacing" textLength="90" x="222" y="1250.7373">NameService</text><rect fill="#00EE20" height="30.2969" rx="2.5" ry="2.5" style="stroke:#181818;stroke-width:0.5;" width="53" x="628.5" y="103.5938"/><text fill="#000000" font-family="sans-serif" font-size="14" lengthAdjust="spacing" textLength="39" x="635.5" y="123.5889">EVVM</text><rect fill="#00EE20" height="30.2969" rx="2.5" ry="2.5" style="stroke:#181818;stroke-width:0.5;" width="53" x="628.5" y="1230.7422"/><text fill="#000000" font-family="sans-serif" font-size="14" lengthAdjust="spacing" textLength="39" x="635.5" y="1250.7373">EVVM</text><rect fill="#00CEEE" height="1044.7188" style="stroke:#181818;stroke-width:1.0;" width="10" x="262" y="166.0234"/><rect fill="#00EE20" height="147.9023" style="stroke:#181818;stroke-width:1.0;" width="10" x="650" y="427.0859"/><rect fill="#00EE20" height="86.3984" style="stroke:#181818;stroke-width:1.0;" width="10" x="650" y="678.9531"/><rect fill="#00EE20" height="109.6641" style="stroke:#181818;stroke-width:1.0;" width="10" x="650" y="939.2813"/><polygon fill="#181818" points="250,162.0234,260,166.0234,250,170.0234,254,166.0234" style="stroke:#181818;stroke-width:1.0;"/><line style="stroke:#181818;stroke-width:1.0;" x1="60" x2="256" y1="166.0234" y2="166.0234"/><text fill="#000000" font-family="sans-serif" font-size="13" lengthAdjust="spacing" textLength="108" x="67" y="160.9575">withdrawOffer(&#183;&#183;&#183;)</text><line style="stroke:#181818;stroke-width:1.0;" x1="272" x2="314" y1="195.1563" y2="195.1563"/><line style="stroke:#181818;stroke-width:1.0;" x1="314" x2="314" y1="195.1563" y2="208.1563"/><line style="stroke:#181818;stroke-width:1.0;" x1="273" x2="314" y1="208.1563" y2="208.1563"/><polygon fill="#181818" points="283,204.1563,273,208.1563,283,212.1563,279,208.1563" style="stroke:#181818;stroke-width:1.0;"/><text fill="#000000" font-family="sans-serif" font-size="13" lengthAdjust="spacing" textLength="234" x="279" y="190.0903">verifyAsyncNonce(user, nonce)</text><line style="stroke:#181818;stroke-width:1.0;" x1="272" x2="314" y1="252.4219" y2="252.4219"/><line style="stroke:#181818;stroke-width:1.0;" x1="314" x2="314" y1="252.4219" y2="265.4219"/><line style="stroke:#181818;stroke-width:1.0;" x1="273" x2="314" y1="265.4219" y2="265.4219"/><polygon fill="#181818" points="283,261.4219,273,265.4219,283,269.4219,279,265.4219" style="stroke:#181818;stroke-width:1.0;"/><text fill="#000000" font-family="sans-serif" font-size="13" lengthAdjust="spacing" textLength="108" x="279" y="232.2231">Verify ownership:</text><text fill="#000000" font-family="sans-serif" font-size="13" lengthAdjust="spacing" textLength="334" x="279" y="247.356">usernameOffers[username][offerID].offerer == user</text><line style="stroke:#181818;stroke-width:1.0;" x1="272" x2="314" y1="294.5547" y2="294.5547"/><line style="stroke:#181818;stroke-width:1.0;" x1="314" x2="314" y1="294.5547" y2="307.5547"/><line style="stroke:#181818;stroke-width:1.0;" x1="273" x2="314" y1="307.5547" y2="307.5547"/><polygon fill="#181818" points="283,303.5547,273,307.5547,283,311.5547,279,307.5547" style="stroke:#181818;stroke-width:1.0;"/><text fill="#000000" font-family="sans-serif" font-size="13" lengthAdjust="spacing" textLength="265" x="279" y="289.4888">verifyMessageSignedForWithdrawOffer(&#183;&#183;&#183;)</text><path d="M195,322.5547 L259,322.5547 L259,329.6875 L249,339.6875 L195,339.6875 L195,322.5547 " fill="#EEEEEE" style="stroke:#000000;stroke-width:1.5;"/><rect fill="none" height="271" style="stroke:#000000;stroke-width:1.5;" width="637" x="195" y="322.5547"/><text fill="#000000" font-family="sans-serif" font-size="13" font-weight="bold" lengthAdjust="spacing" textLength="19" x="210" y="335.6216">alt</text><text fill="#000000" font-family="sans-serif" font-size="11" font-weight="bold" lengthAdjust="spacing" textLength="146" x="274" y="334.7651">[priorityFee_EVVM &gt; 0]</text><line style="stroke:#181818;stroke-width:1.0;" x1="272" x2="314" y1="360.8203" y2="360.8203"/><line style="stroke:#181818;stroke-width:1.0;" x1="314" x2="314" y1="360.8203" y2="373.8203"/><line style="stroke:#181818;stroke-width:1.0;" x1="273" x2="314" y1="373.8203" y2="373.8203"/><polygon fill="#181818" points="283,369.8203,273,373.8203,283,377.8203,279,373.8203" style="stroke:#181818;stroke-width:1.0;"/><text fill="#000000" font-family="sans-serif" font-size="13" lengthAdjust="spacing" textLength="252" x="279" y="355.7544">makePay(user, 0, priorityFee_EVVM, &#183;&#183;&#183;)</text><path d="M205,388.8203 L269,388.8203 L269,395.9531 L259,405.9531 L205,405.9531 L205,388.8203 " fill="#EEEEEE" style="stroke:#000000;stroke-width:1.5;"/><rect fill="none" height="90.2031" style="stroke:#000000;stroke-width:1.5;" width="486.5" x="205" y="388.8203"/><text fill="#000000" font-family="sans-serif" font-size="13" font-weight="bold" lengthAdjust="spacing" textLength="19" x="220" y="401.8872">alt</text><text fill="#000000" font-family="sans-serif" font-size="11" font-weight="bold" lengthAdjust="spacing" textLength="177" x="284" y="401.0308">[priorityFlag_EVVM == true]</text><polygon fill="#181818" points="638,423.0859,648,427.0859,638,431.0859,642,427.0859" style="stroke:#181818;stroke-width:1.0;"/><line style="stroke:#181818;stroke-width:1.0;" x1="272" x2="644" y1="427.0859" y2="427.0859"/><text fill="#000000" font-family="sans-serif" font-size="13" lengthAdjust="spacing" textLength="131" x="279" y="422.02">IEvvm.pay(...) (async)</text><line style="stroke:#000000;stroke-width:1.0;stroke-dasharray:2.0,2.0;" x1="205" x2="691.5" y1="436.0859" y2="436.0859"/><text fill="#000000" font-family="sans-serif" font-size="11" font-weight="bold" lengthAdjust="spacing" textLength="183" x="210" y="446.2964">[priorityFlag_EVVM == false]</text><polygon fill="#181818" points="638,467.0234,648,471.0234,638,475.0234,642,471.0234" style="stroke:#181818;stroke-width:1.0;"/><line style="stroke:#181818;stroke-width:1.0;" x1="272" x2="644" y1="471.0234" y2="471.0234"/><text fill="#000000" font-family="sans-serif" font-size="13" lengthAdjust="spacing" textLength="123" x="279" y="465.9575">IEvvm.pay(...) (sync)</text><line style="stroke:#181818;stroke-width:1.0;" x1="660" x2="702" y1="522.2891" y2="522.2891"/><line style="stroke:#181818;stroke-width:1.0;" x1="702" x2="702" y1="522.2891" y2="535.2891"/><line style="stroke:#181818;stroke-width:1.0;" x1="661" x2="702" y1="535.2891" y2="535.2891"/><polygon fill="#181818" points="671,531.2891,661,535.2891,671,539.2891,667,535.2891" style="stroke:#181818;stroke-width:1.0;"/><text fill="#000000" font-family="sans-serif" font-size="13" lengthAdjust="spacing" textLength="140" x="667" y="502.0903">Verify payment inputs</text><text fill="#000000" font-family="sans-serif" font-size="13" lengthAdjust="spacing" textLength="134" x="667" y="517.2231">and update balances</text><polygon fill="#181818" points="283,570.9883,273,574.9883,283,578.9883,279,574.9883" style="stroke:#181818;stroke-width:1.0;"/><line style="stroke:#181818;stroke-width:1.0;" x1="277" x2="654" y1="574.9883" y2="574.9883"/><text fill="#000000" font-family="sans-serif" font-size="13" lengthAdjust="spacing" textLength="199" x="289" y="569.9224">Priority fee payment processed</text><path d="M665,548.2891 L665,588.2891 L817,588.2891 L817,558.2891 L807,548.2891 L665,548.2891 " fill="#FEFFDD" style="stroke:#181818;stroke-width:0.5;"/><path d="M807,548.2891 L807,558.2891 L817,558.2891 L807,548.2891 " fill="#FEFFDD" style="stroke:#181818;stroke-width:0.5;"/><text fill="#000000" font-family="sans-serif" font-size="13" lengthAdjust="spacing" textLength="125" x="671" y="565.356">Optional priority fee</text><text fill="#000000" font-family="sans-serif" font-size="13" lengthAdjust="spacing" textLength="131" x="671" y="580.4888">for faster processing</text><line style="stroke:#181818;stroke-width:1.0;" x1="272" x2="314" y1="636.8203" y2="636.8203"/><line style="stroke:#181818;stroke-width:1.0;" x1="314" x2="314" y1="636.8203" y2="649.8203"/><line style="stroke:#181818;stroke-width:1.0;" x1="273" x2="314" y1="649.8203" y2="649.8203"/><polygon fill="#181818" points="283,645.8203,273,649.8203,283,653.8203,279,649.8203" style="stroke:#181818;stroke-width:1.0;"/><text fill="#000000" font-family="sans-serif" font-size="13" lengthAdjust="spacing" textLength="113" x="279" y="616.6216">makeCaPay(user,</text><text fill="#000000" font-family="sans-serif" font-size="13" lengthAdjust="spacing" textLength="289" x="279" y="631.7544">usernameOffers[username][offerID].amount)</text><polygon fill="#181818" points="638,674.9531,648,678.9531,638,682.9531,642,678.9531" style="stroke:#181818;stroke-width:1.0;"/><line style="stroke:#181818;stroke-width:1.0;" x1="272" x2="644" y1="678.9531" y2="678.9531"/><text fill="#000000" font-family="sans-serif" font-size="13" lengthAdjust="spacing" textLength="134" x="279" y="673.8872">caPay(user, amount)</text><line style="stroke:#181818;stroke-width:1.0;" x1="660" x2="702" y1="723.2188" y2="723.2188"/><line style="stroke:#181818;stroke-width:1.0;" x1="702" x2="702" y1="723.2188" y2="736.2188"/><line style="stroke:#181818;stroke-width:1.0;" x1="661" x2="702" y1="736.2188" y2="736.2188"/><polygon fill="#181818" points="671,732.2188,661,736.2188,671,740.2188,667,736.2188" style="stroke:#181818;stroke-width:1.0;"/><text fill="#000000" font-family="sans-serif" font-size="13" lengthAdjust="spacing" textLength="184" x="667" y="703.02">Transfer locked offer amount</text><text fill="#000000" font-family="sans-serif" font-size="13" lengthAdjust="spacing" textLength="79" x="667" y="718.1528">back to user</text><polygon fill="#181818" points="283,761.3516,273,765.3516,283,769.3516,279,765.3516" style="stroke:#181818;stroke-width:1.0;"/><line style="stroke:#181818;stroke-width:1.0;" x1="277" x2="654" y1="765.3516" y2="765.3516"/><text fill="#000000" font-family="sans-serif" font-size="13" lengthAdjust="spacing" textLength="116" x="289" y="760.2856">Refund completed</text><line style="stroke:#181818;stroke-width:1.0;" x1="272" x2="314" y1="809.6172" y2="809.6172"/><line style="stroke:#181818;stroke-width:1.0;" x1="314" x2="314" y1="809.6172" y2="822.6172"/><line style="stroke:#181818;stroke-width:1.0;" x1="273" x2="314" y1="822.6172" y2="822.6172"/><polygon fill="#181818" points="283,818.6172,273,822.6172,283,826.6172,279,822.6172" style="stroke:#181818;stroke-width:1.0;"/><text fill="#000000" font-family="sans-serif" font-size="13" lengthAdjust="spacing" textLength="70" x="279" y="789.4185">Clear offer:</text><text fill="#000000" font-family="sans-serif" font-size="13" lengthAdjust="spacing" textLength="364" x="279" y="804.5513">usernameOffers[username][offerID].offerer = address(0)</text><line style="stroke:#181818;stroke-width:1.0;" x1="272" x2="314" y1="897.1484" y2="897.1484"/><line style="stroke:#181818;stroke-width:1.0;" x1="314" x2="314" y1="897.1484" y2="910.1484"/><line style="stroke:#181818;stroke-width:1.0;" x1="273" x2="314" y1="910.1484" y2="910.1484"/><polygon fill="#181818" points="283,906.1484,273,910.1484,283,914.1484,279,910.1484" style="stroke:#181818;stroke-width:1.0;"/><text fill="#000000" font-family="sans-serif" font-size="13" lengthAdjust="spacing" textLength="161" x="279" y="846.6841">makeCaPay(msg.sender,</text><text fill="#000000" font-family="sans-serif" font-size="13" lengthAdjust="spacing" textLength="143" x="279" y="861.8169">getRewardAmount() +</text><text fill="#000000" font-family="sans-serif" font-size="13" lengthAdjust="spacing" textLength="134" x="279" y="876.9497">(amount * 1) / 796 +</text><text fill="#000000" font-family="sans-serif" font-size="13" lengthAdjust="spacing" textLength="116" x="279" y="892.0825">priorityFee_EVVM)</text><polygon fill="#181818" points="638,935.2813,648,939.2813,638,943.2813,642,939.2813" style="stroke:#181818;stroke-width:1.0;"/><line style="stroke:#181818;stroke-width:1.0;" x1="272" x2="644" y1="939.2813" y2="939.2813"/><text fill="#000000" font-family="sans-serif" font-size="13" lengthAdjust="spacing" textLength="175" x="279" y="934.2153">caPay(msg.sender, reward)</text><line style="stroke:#181818;stroke-width:1.0;" x1="660" x2="702" y1="987.6133" y2="987.6133"/><line style="stroke:#181818;stroke-width:1.0;" x1="702" x2="702" y1="987.6133" y2="1000.6133"/><line style="stroke:#181818;stroke-width:1.0;" x1="661" x2="702" y1="1000.6133" y2="1000.6133"/><polygon fill="#181818" points="671,996.6133,661,1000.6133,671,1004.6133,667,1000.6133" style="stroke:#181818;stroke-width:1.0;"/><text fill="#000000" font-family="sans-serif" font-size="13" lengthAdjust="spacing" textLength="160" x="667" y="982.5474">Distribute staker rewards</text><path d="M839,952.2813 L839,1022.2813 L1014,1022.2813 L1014,962.2813 L1004,952.2813 L839,952.2813 " fill="#FEFFDD" style="stroke:#181818;stroke-width:0.5;"/><path d="M1004,952.2813 L1004,962.2813 L1014,962.2813 L1004,952.2813 " fill="#FEFFDD" style="stroke:#181818;stroke-width:0.5;"/><text fill="#000000" font-family="sans-serif" font-size="13" lengthAdjust="spacing" textLength="103" x="845" y="969.3481">Staker receives:</text><text fill="#000000" font-family="sans-serif" font-size="13" lengthAdjust="spacing" textLength="88" x="845" y="984.481">- Base reward</text><text fill="#000000" font-family="sans-serif" font-size="13" lengthAdjust="spacing" textLength="154" x="845" y="999.6138">- 0.125% processing fee</text><text fill="#000000" font-family="sans-serif" font-size="13" lengthAdjust="spacing" textLength="125" x="845" y="1014.7466">- Priority fee (if any)</text><polygon fill="#181818" points="283,1044.9453,273,1048.9453,283,1052.9453,279,1048.9453" style="stroke:#181818;stroke-width:1.0;"/><line style="stroke:#181818;stroke-width:1.0;" x1="277" x2="654" y1="1048.9453" y2="1048.9453"/><text fill="#000000" font-family="sans-serif" font-size="13" lengthAdjust="spacing" textLength="118" x="289" y="1043.8794">Reward distributed</text><line style="stroke:#181818;stroke-width:1.0;" x1="272" x2="314" y1="1108.3438" y2="1108.3438"/><line style="stroke:#181818;stroke-width:1.0;" x1="314" x2="314" y1="1108.3438" y2="1121.3438"/><line style="stroke:#181818;stroke-width:1.0;" x1="273" x2="314" y1="1121.3438" y2="1121.3438"/><polygon fill="#181818" points="283,1117.3438,273,1121.3438,283,1125.3438,279,1121.3438" style="stroke:#181818;stroke-width:1.0;"/><text fill="#000000" font-family="sans-serif" font-size="13" lengthAdjust="spacing" textLength="143" x="279" y="1073.0122">Update locked tokens:</text><text fill="#000000" font-family="sans-serif" font-size="13" lengthAdjust="spacing" textLength="252" x="279" y="1088.145">principalTokenTokenLockedForWithdrawOffers -=</text><text fill="#000000" font-family="sans-serif" font-size="13" lengthAdjust="spacing" textLength="218" x="279" y="1103.2778">amount + ((amount * 1) / 199) / 4</text><line style="stroke:#181818;stroke-width:1.0;" x1="272" x2="314" y1="1150.4766" y2="1150.4766"/><line style="stroke:#181818;stroke-width:1.0;" x1="314" x2="314" y1="1150.4766" y2="1163.4766"/><line style="stroke:#181818;stroke-width:1.0;" x1="273" x2="314" y1="1163.4766" y2="1163.4766"/><polygon fill="#181818" points="283,1159.4766,273,1163.4766,283,1167.4766,279,1163.4766" style="stroke:#181818;stroke-width:1.0;"/><text fill="#000000" font-family="sans-serif" font-size="13" lengthAdjust="spacing" textLength="257" x="279" y="1145.4106">markAsyncNonceAsUsed(user, nonce)</text><polygon fill="#181818" points="71,1206.7422,61,1210.7422,71,1214.7422,67,1210.7422" style="stroke:#181818;stroke-width:1.0;"/><line style="stroke:#181818;stroke-width:1.0;stroke-dasharray:2.0,2.0;" x1="65" x2="266" y1="1210.7422" y2="1210.7422"/><text fill="#000000" font-family="sans-serif" font-size="13" lengthAdjust="spacing" textLength="178" x="77" y="1190.5435">Offer withdrawn successfully</text><text fill="#000000" font-family="sans-serif" font-size="13" lengthAdjust="spacing" textLength="106" x="77" y="1205.6763">Tokens refunded</text><path d="M277,1176.4766 L277,1216.4766 L470,1216.4766 L470,1186.4766 L460,1176.4766 L277,1176.4766 " fill="#FEFFDD" style="stroke:#181818;stroke-width:0.5;"/><path d="M460,1176.4766 L460,1186.4766 L470,1186.4766 L460,1176.4766 " fill="#FEFFDD" style="stroke:#181818;stroke-width:0.5;"/><text fill="#000000" font-family="sans-serif" font-size="13" lengthAdjust="spacing" textLength="125" x="283" y="1193.5435">Offer is deleted and</text><text fill="#000000" font-family="sans-serif" font-size="13" lengthAdjust="spacing" textLength="172" x="283" y="1208.6763">locked tokens are released</text><!--SRC=[bLLjJzim4FwUNt42JKe7XOBs8X0WiQviIED55DW7MY4tkRHMKpkodNRHjD-rx_jbEpjfcxI55bLAO-VyF7VFlVX4cop6Co-KGJf2OU2t1_251SDlIgOYRCfOAfWCk47lZtUoNrXxB32ql_MWKG6zj56DUO1Rm3IajESbJ1aUy8GHujOr6s7PGipNiDreD5kjLlL0w_7nobdYU3oo9gtMOSFp33SnmeIRGQZOv2QAYFnUCQ796ou5NCHoqX7-TvOa6TmoCu0wjDCWGAsZD8RMBmnIQrZpFEiarCyghXnNeVr_V-slveBbOsPmfUDUUNC9SOoAHzbbT2r5W9VwVCnup7en-jQ1NH1skxO6uz5XW9m8L7h0a-EEiAUjaNDKFqsNtITfDow_TlVS2yLuUfedP1CthqWeriSsxmiCBwJw-O8SiO5jLnAGA2uLDza5uhDD6fn1W-e7u5Ms4HlYBSiA3HgxIp2xC2MpMEwnYZHc_PoLWZGgHMUuWjrLqJ4aB6iRebRFJ6SYyCiSZcAQvahLsIyOQtoLFM9aiJ7z4ZkAS1wfCvyVAx9FfrrxSf6aHdS44o6aIMZTxR6OKHdfokcguhU5qn0Xpg0I9MrhOCuTOYN-kJz2qfRY_O4Xe9l4DX2BPp9On8w8Q0P4J1igk0ALYxvdm_BMLaAJpMfXay9c8vfBPhbd2hc2EHfCJLSdTa5dDqZiH8bbCCGG7641qH4zceXWPDvBgpM-muW69WHobCHeIDL5HL-NeXaZKpdhsneSM1WgKjnlr3PMUwJxUvhIupJlexd32LFXkGlMhy4EJT4ySdWF1pNOXyz7d-pkOgEkIKE91fIZs30PNxasYlTICjEkPuhZsgjKOtlwBK0-HaswrUdkebxDhUsoiNTm-F5TgIhpWgrNMyBd4J2HrLvChOM3SERLMvFxa7TgKLf63b5ORqUqUMyNFzo7nP6heNvAdPudOWVyXPmS71tPlmzhk4ihTmkvOke-kQkd2yNah48GXhiWgTzT5qplHG5wTft6MKSutpMfRIkVH2chKWBqgbdBCRccaUCQXPIdL5Mq0QPi4gabx7Zw3m00]--></g></svg>