<?xml version="1.0" encoding="us-ascii" standalone="no"?><svg xmlns="http://www.w3.org/2000/svg" xmlns:xlink="http://www.w3.org/1999/xlink" contentStyleType="text/css" height="579px" preserveAspectRatio="none" style="width:749px;height:579px;background:#FFFFFF;" version="1.1" viewBox="0 0 749 579" width="749px" zoomAndPan="magnify"><defs/><g><text fill="#000000" font-family="sans-serif" font-size="14" font-weight="bold" lengthAdjust="spacing" textLength="238" x="256.5" y="27.9951">presaleClaims() - Staking Flow</text><text fill="#000000" font-family="sans-serif" font-size="14" font-weight="bold" lengthAdjust="spacing" textLength="226" x="262.5" y="44.292">(Failed Path - Staking Errors)</text><rect fill="#FFD700" height="384.2734" style="stroke:#181818;stroke-width:1.0;" width="10" x="408" y="121.0234"/><rect fill="#F5B7B1" height="391.2734" style="stroke:#000000;stroke-width:1.5;" width="732" x="10" y="136.0234"/><rect fill="#FFFFFF" height="308.7422" style="stroke:none;stroke-width:1.0;" width="732" x="10" y="218.5547"/><rect fill="#F5B7B1" height="279.9375" style="stroke:#000000;stroke-width:1.5;" width="712" x="20" y="240.3594"/><rect fill="#FFFFFF" height="197.4063" style="stroke:none;stroke-width:1.0;" width="712" x="20" y="322.8906"/><rect fill="#F5B7B1" height="168.6016" style="stroke:#000000;stroke-width:1.5;" width="692" x="30" y="344.6953"/><rect fill="#FFFFFF" height="86.0703" style="stroke:none;stroke-width:1.0;" width="692" x="30" y="427.2266"/><line style="stroke:#181818;stroke-width:0.5;stroke-dasharray:5.0,5.0;" x1="98" x2="98" y1="89.8906" y2="544.2969"/><line style="stroke:#181818;stroke-width:0.5;stroke-dasharray:5.0,5.0;" x1="413" x2="413" y1="89.8906" y2="544.2969"/><rect fill="#E2E2F0" height="30.2969" rx="2.5" ry="2.5" style="stroke:#181818;stroke-width:0.5;" width="116" x="40" y="58.5938"/><text fill="#000000" font-family="sans-serif" font-size="14" lengthAdjust="spacing" textLength="102" x="47" y="78.5889">presaleStaking</text><rect fill="#E2E2F0" height="30.2969" rx="2.5" ry="2.5" style="stroke:#181818;stroke-width:0.5;" width="116" x="40" y="543.2969"/><text fill="#000000" font-family="sans-serif" font-size="14" lengthAdjust="spacing" textLength="102" x="47" y="563.292">presaleStaking</text><rect fill="#FFD700" height="30.2969" rx="2.5" ry="2.5" style="stroke:#181818;stroke-width:0.5;" width="110" x="358" y="58.5938"/><text fill="#000000" font-family="sans-serif" font-size="14" lengthAdjust="spacing" textLength="96" x="365" y="78.5889">presaleClaims</text><rect fill="#FFD700" height="30.2969" rx="2.5" ry="2.5" style="stroke:#181818;stroke-width:0.5;" width="110" x="358" y="543.2969"/><text fill="#000000" font-family="sans-serif" font-size="14" lengthAdjust="spacing" textLength="96" x="365" y="563.292">presaleClaims</text><rect fill="#FFD700" height="384.2734" style="stroke:#181818;stroke-width:1.0;" width="10" x="408" y="121.0234"/><polygon fill="#181818" points="396,117.0234,406,121.0234,396,125.0234,400,121.0234" style="stroke:#181818;stroke-width:1.0;"/><line style="stroke:#181818;stroke-width:1.0;" x1="98" x2="402" y1="121.0234" y2="121.0234"/><text fill="#000000" font-family="sans-serif" font-size="13" lengthAdjust="spacing" textLength="245" x="105" y="115.9575">presaleClaims(_isStaking=true, _user)</text><path d="M10,136.0234 L74,136.0234 L74,143.1563 L64,153.1563 L10,153.1563 L10,136.0234 " fill="#EEEEEE" style="stroke:#000000;stroke-width:1.5;"/><rect fill="none" height="391.2734" style="stroke:#000000;stroke-width:1.5;" width="732" x="10" y="136.0234"/><text fill="#000000" font-family="sans-serif" font-size="13" font-weight="bold" lengthAdjust="spacing" textLength="19" x="25" y="149.0903">alt</text><text fill="#000000" font-family="sans-serif" font-size="11" font-weight="bold" lengthAdjust="spacing" textLength="213" x="89" y="148.2339">[allowPublicStaking.flag == true]</text><line style="stroke:#181818;stroke-width:2.0;" x1="105" x2="115" y1="187.4219" y2="197.4219"/><line style="stroke:#181818;stroke-width:2.0;" x1="105" x2="115" y1="197.4219" y2="187.4219"/><line style="stroke:#181818;stroke-width:1.0;" x1="110" x2="407" y1="192.4219" y2="192.4219"/><text fill="#000000" font-family="sans-serif" font-size="13" lengthAdjust="spacing" textLength="224" x="115" y="187.356">Revert with PresaleStakingDisabled</text><path d="M423,158.1563 L423,213.1563 L574,213.1563 L574,168.1563 L564,158.1563 L423,158.1563 " fill="#FEFFDD" style="stroke:#181818;stroke-width:0.5;"/><path d="M564,158.1563 L564,168.1563 L574,168.1563 L564,158.1563 " fill="#FEFFDD" style="stroke:#181818;stroke-width:0.5;"/><text fill="#000000" font-family="sans-serif" font-size="13" lengthAdjust="spacing" textLength="98" x="429" y="175.2231">PHASE ENDED:</text><text fill="#000000" font-family="sans-serif" font-size="13" lengthAdjust="spacing" textLength="129" x="429" y="190.356">Presale closed when</text><text fill="#000000" font-family="sans-serif" font-size="13" lengthAdjust="spacing" textLength="130" x="429" y="205.4888">public staking opens</text><line style="stroke:#000000;stroke-width:1.0;stroke-dasharray:2.0,2.0;" x1="10" x2="742" y1="219.5547" y2="219.5547"/><text fill="#000000" font-family="sans-serif" font-size="11" font-weight="bold" lengthAdjust="spacing" textLength="190" x="15" y="229.7651">[allowPublicStaking == false]</text><path d="M20,240.3594 L84,240.3594 L84,247.4922 L74,257.4922 L20,257.4922 L20,240.3594 " fill="#EEEEEE" style="stroke:#000000;stroke-width:1.5;"/><rect fill="none" height="279.9375" style="stroke:#000000;stroke-width:1.5;" width="712" x="20" y="240.3594"/><text fill="#000000" font-family="sans-serif" font-size="13" font-weight="bold" lengthAdjust="spacing" textLength="19" x="35" y="253.4263">alt</text><text fill="#000000" font-family="sans-serif" font-size="11" font-weight="bold" lengthAdjust="spacing" textLength="279" x="99" y="252.5698">[userPresaleStaker[_user].isAllow == false]</text><line style="stroke:#181818;stroke-width:2.0;" x1="105" x2="115" y1="291.7578" y2="301.7578"/><line style="stroke:#181818;stroke-width:2.0;" x1="105" x2="115" y1="301.7578" y2="291.7578"/><line style="stroke:#181818;stroke-width:1.0;" x1="110" x2="407" y1="296.7578" y2="296.7578"/><text fill="#000000" font-family="sans-serif" font-size="13" lengthAdjust="spacing" textLength="226" x="115" y="291.6919">Revert with UserIsNotPresaleStaker</text><path d="M423,262.4922 L423,317.4922 L578,317.4922 L578,272.4922 L568,262.4922 L423,262.4922 " fill="#FEFFDD" style="stroke:#181818;stroke-width:0.5;"/><path d="M568,262.4922 L568,272.4922 L578,272.4922 L568,262.4922 " fill="#FEFFDD" style="stroke:#181818;stroke-width:0.5;"/><text fill="#000000" font-family="sans-serif" font-size="13" lengthAdjust="spacing" textLength="118" x="429" y="279.5591">NOT WHITELISTED:</text><text fill="#000000" font-family="sans-serif" font-size="13" lengthAdjust="spacing" textLength="134" x="429" y="294.6919">User not in approved</text><text fill="#000000" font-family="sans-serif" font-size="13" lengthAdjust="spacing" textLength="113" x="429" y="309.8247">presale staker list</text><line style="stroke:#000000;stroke-width:1.0;stroke-dasharray:2.0,2.0;" x1="20" x2="732" y1="323.8906" y2="323.8906"/><text fill="#000000" font-family="sans-serif" font-size="11" font-weight="bold" lengthAdjust="spacing" textLength="130" x="25" y="334.1011">[User is whitelisted]</text><path d="M30,344.6953 L94,344.6953 L94,351.8281 L84,361.8281 L30,361.8281 L30,344.6953 " fill="#EEEEEE" style="stroke:#000000;stroke-width:1.5;"/><rect fill="none" height="168.6016" style="stroke:#000000;stroke-width:1.5;" width="692" x="30" y="344.6953"/><text fill="#000000" font-family="sans-serif" font-size="13" font-weight="bold" lengthAdjust="spacing" textLength="19" x="45" y="357.7622">alt</text><text fill="#000000" font-family="sans-serif" font-size="11" font-weight="bold" lengthAdjust="spacing" textLength="304" x="109" y="356.9058">[userPresaleStaker[_user].stakingAmount &gt;= 2]</text><line style="stroke:#181818;stroke-width:2.0;" x1="105" x2="115" y1="396.0938" y2="406.0938"/><line style="stroke:#181818;stroke-width:2.0;" x1="105" x2="115" y1="406.0938" y2="396.0938"/><line style="stroke:#181818;stroke-width:1.0;" x1="110" x2="407" y1="401.0938" y2="401.0938"/><text fill="#000000" font-family="sans-serif" font-size="13" lengthAdjust="spacing" textLength="286" x="115" y="396.0278">Revert with UserPresaleStakerLimitExceeded</text><path d="M423,366.8281 L423,421.8281 L572,421.8281 L572,376.8281 L562,366.8281 L423,366.8281 " fill="#FEFFDD" style="stroke:#181818;stroke-width:0.5;"/><path d="M562,366.8281 L562,376.8281 L572,376.8281 L562,366.8281 " fill="#FEFFDD" style="stroke:#181818;stroke-width:0.5;"/><text fill="#000000" font-family="sans-serif" font-size="13" lengthAdjust="spacing" textLength="101" x="429" y="383.895">LIMIT REACHED:</text><text fill="#000000" font-family="sans-serif" font-size="13" lengthAdjust="spacing" textLength="128" x="429" y="399.0278">User already staked</text><text fill="#000000" font-family="sans-serif" font-size="13" lengthAdjust="spacing" textLength="124" x="429" y="414.1606">maximum 2 tokens</text><line style="stroke:#000000;stroke-width:1.0;stroke-dasharray:2.0,2.0;" x1="30" x2="722" y1="428.2266" y2="428.2266"/><text fill="#000000" font-family="sans-serif" font-size="11" font-weight="bold" lengthAdjust="spacing" textLength="132" x="35" y="438.437">[Limit not exceeded]</text><line style="stroke:#181818;stroke-width:1.0;" x1="418" x2="460" y1="463.1641" y2="463.1641"/><line style="stroke:#181818;stroke-width:1.0;" x1="460" x2="460" y1="463.1641" y2="476.1641"/><line style="stroke:#181818;stroke-width:1.0;" x1="419" x2="460" y1="476.1641" y2="476.1641"/><polygon fill="#181818" points="429,472.1641,419,476.1641,429,480.1641,425,476.1641" style="stroke:#181818;stroke-width:1.0;"/><text fill="#000000" font-family="sans-serif" font-size="13" lengthAdjust="spacing" textLength="285" x="425" y="458.0981">userPresaleStaker[_user].stakingAmount++</text><polygon fill="#181818" points="109,501.2969,99,505.2969,109,509.2969,105,505.2969" style="stroke:#181818;stroke-width:1.0;"/><line style="stroke:#181818;stroke-width:1.0;stroke-dasharray:2.0,2.0;" x1="103" x2="412" y1="505.2969" y2="505.2969"/><text fill="#000000" font-family="sans-serif" font-size="13" lengthAdjust="spacing" textLength="53" x="115" y="500.231">Success</text><!--SRC=[ZLDTRzem57tthxXgNuewkgxILAagI0p2YCGOAanx65DbaWjOE7PaEuHgsd-VxNXfqlB0GpuKdtFkESVnepOl7FiabKcHeJ3mXm1yeSd-gvA5I8UIImNbZXaaVydZnu0cXXcEa2lKbEEGKvRfgmvqOM7edeajZBaiL-9gJ1d75ERKx1gBaL9IwGuXELM69IodTkv540kW2w0Q4ievgfEmQgP7XIzmEHwFxczl2QbeqEtNImzlh3up7URqZ2hm0pmN6bM7qCIm0pNuNfDo0vURp-lxzIUmyhAS5slEag1oi-5q2xqUE3LR8DG2tMD8OJqyuG6LWPBPDkQjj2EcwTesvQb2MWEARNV6SkQJmIA2Q3QAHWyh4LYGSAbjh-KEnKhatWdeqAxCKMX2a6jht-_S2SFEwuPQY9_O3EUAQ9X3zSjty_k6wO6JQJFFYVh3qcCzawObMzDRSMVVb_1p4Y-ZQRnO-iYExJ301D0yL_A0gSqSPcgl1PnfumNzhHdTqvckVc472oMV7JlKEiZiSJ3Gxy5TpJytV4jtoZ9cecE2c3Qil2jY6d-Bb_0K3OQJrneeLqZJbogrRI6ZHvOL6To1aNktw_-bwfTc5Nwohn9FZQ-JD8_DURLSNvzMib9rAOiYIL3h5Z35jmVkrRYetBcdk_u1]--></g></svg>