<?xml version="1.0" encoding="us-ascii" standalone="no"?><svg xmlns="http://www.w3.org/2000/svg" xmlns:xlink="http://www.w3.org/1999/xlink" contentStyleType="text/css" height="426px" preserveAspectRatio="none" style="width:872px;height:426px;background:#FFFFFF;" version="1.1" viewBox="0 0 872 426" width="872px" zoomAndPan="magnify"><defs/><g><text fill="#000000" font-family="sans-serif" font-size="14" font-weight="bold" lengthAdjust="spacing" textLength="258" x="310.5" y="27.9951">presaleClaims() - Unstaking Flow</text><text fill="#000000" font-family="sans-serif" font-size="14" font-weight="bold" lengthAdjust="spacing" textLength="286" x="296.5" y="44.292">(Happy Path - Successful Unstaking)</text><rect fill="#FFFFFF" height="273.4609" style="stroke:#181818;stroke-width:1.0;" width="10" x="58" y="99.8906"/><rect fill="#FFD700" height="252.3281" style="stroke:#181818;stroke-width:1.0;" width="10" x="336" y="121.0234"/><line style="stroke:#181818;stroke-width:0.5;stroke-dasharray:5.0,5.0;" x1="63" x2="63" y1="89.8906" y2="391.3516"/><line style="stroke:#181818;stroke-width:0.5;stroke-dasharray:5.0,5.0;" x1="341" x2="341" y1="89.8906" y2="391.3516"/><rect fill="#E2E2F0" height="30.2969" rx="2.5" ry="2.5" style="stroke:#181818;stroke-width:0.5;" width="116" x="5" y="58.5938"/><text fill="#000000" font-family="sans-serif" font-size="14" lengthAdjust="spacing" textLength="102" x="12" y="78.5889">presaleStaking</text><rect fill="#E2E2F0" height="30.2969" rx="2.5" ry="2.5" style="stroke:#181818;stroke-width:0.5;" width="116" x="5" y="390.3516"/><text fill="#000000" font-family="sans-serif" font-size="14" lengthAdjust="spacing" textLength="102" x="12" y="410.3467">presaleStaking</text><rect fill="#FFD700" height="30.2969" rx="2.5" ry="2.5" style="stroke:#181818;stroke-width:0.5;" width="110" x="286" y="58.5938"/><text fill="#000000" font-family="sans-serif" font-size="14" lengthAdjust="spacing" textLength="96" x="293" y="78.5889">presaleClaims</text><rect fill="#FFD700" height="30.2969" rx="2.5" ry="2.5" style="stroke:#181818;stroke-width:0.5;" width="110" x="286" y="390.3516"/><text fill="#000000" font-family="sans-serif" font-size="14" lengthAdjust="spacing" textLength="96" x="293" y="410.3467">presaleClaims</text><rect fill="#FFFFFF" height="273.4609" style="stroke:#181818;stroke-width:1.0;" width="10" x="58" y="99.8906"/><rect fill="#FFD700" height="252.3281" style="stroke:#181818;stroke-width:1.0;" width="10" x="336" y="121.0234"/><polygon fill="#181818" points="324,117.0234,334,121.0234,324,125.0234,328,121.0234" style="stroke:#181818;stroke-width:1.0;"/><line style="stroke:#181818;stroke-width:1.0;" x1="68" x2="330" y1="121.0234" y2="121.0234"/><text fill="#000000" font-family="sans-serif" font-size="13" lengthAdjust="spacing" textLength="249" x="75" y="115.9575">presaleClaims(_isStaking=false, _user)</text><line style="stroke:#181818;stroke-width:1.0;" x1="346" x2="388" y1="154.2227" y2="154.2227"/><line style="stroke:#181818;stroke-width:1.0;" x1="388" x2="388" y1="154.2227" y2="167.2227"/><line style="stroke:#181818;stroke-width:1.0;" x1="347" x2="388" y1="167.2227" y2="167.2227"/><polygon fill="#181818" points="357,163.2227,347,167.2227,357,171.2227,353,167.2227" style="stroke:#181818;stroke-width:1.0;"/><text fill="#000000" font-family="sans-serif" font-size="13" lengthAdjust="spacing" textLength="243" x="353" y="149.1567">Verify allowPublicStaking.flag == false</text><path d="M608,134.0234 L608,174.0234 L804,174.0234 L804,144.0234 L794,134.0234 L608,134.0234 " fill="#FEFFDD" style="stroke:#181818;stroke-width:0.5;"/><path d="M794,134.0234 L794,144.0234 L804,144.0234 L794,134.0234 " fill="#FEFFDD" style="stroke:#181818;stroke-width:0.5;"/><text fill="#000000" font-family="sans-serif" font-size="13" lengthAdjust="spacing" textLength="112" x="614" y="151.0903">PRESALE PERIOD:</text><text fill="#000000" font-family="sans-serif" font-size="13" lengthAdjust="spacing" textLength="175" x="614" y="166.2231">Must not be in public phase</text><line style="stroke:#181818;stroke-width:1.0;" x1="346" x2="388" y1="200.4219" y2="200.4219"/><line style="stroke:#181818;stroke-width:1.0;" x1="388" x2="388" y1="200.4219" y2="213.4219"/><line style="stroke:#181818;stroke-width:1.0;" x1="347" x2="388" y1="213.4219" y2="213.4219"/><polygon fill="#181818" points="357,209.4219,347,213.4219,357,217.4219,353,213.4219" style="stroke:#181818;stroke-width:1.0;"/><text fill="#000000" font-family="sans-serif" font-size="13" lengthAdjust="spacing" textLength="304" x="353" y="195.356">Verify userPresaleStaker[_user].isAllow == true</text><line style="stroke:#181818;stroke-width:1.0;" x1="346" x2="388" y1="254.1875" y2="254.1875"/><line style="stroke:#181818;stroke-width:1.0;" x1="388" x2="388" y1="254.1875" y2="267.1875"/><line style="stroke:#181818;stroke-width:1.0;" x1="347" x2="388" y1="267.1875" y2="267.1875"/><polygon fill="#181818" points="357,263.1875,347,267.1875,357,271.1875,353,267.1875" style="stroke:#181818;stroke-width:1.0;"/><text fill="#000000" font-family="sans-serif" font-size="13" lengthAdjust="spacing" textLength="330" x="353" y="249.1216">Verify userPresaleStaker[_user].stakingAmount &gt; 0</text><path d="M695,226.4219 L695,281.4219 L865,281.4219 L865,236.4219 L855,226.4219 L695,226.4219 " fill="#FEFFDD" style="stroke:#181818;stroke-width:0.5;"/><path d="M855,226.4219 L855,236.4219 L865,236.4219 L855,226.4219 " fill="#FEFFDD" style="stroke:#181818;stroke-width:0.5;"/><text fill="#000000" font-family="sans-serif" font-size="13" lengthAdjust="spacing" textLength="81" x="701" y="243.4888">VALIDATION:</text><text fill="#000000" font-family="sans-serif" font-size="13" lengthAdjust="spacing" textLength="149" x="701" y="258.6216">User must have tokens</text><text fill="#000000" font-family="sans-serif" font-size="13" lengthAdjust="spacing" textLength="115" x="701" y="273.7544">staked to unstake</text><line style="stroke:#181818;stroke-width:1.0;" x1="346" x2="388" y1="319.5859" y2="319.5859"/><line style="stroke:#181818;stroke-width:1.0;" x1="388" x2="388" y1="319.5859" y2="332.5859"/><line style="stroke:#181818;stroke-width:1.0;" x1="347" x2="388" y1="332.5859" y2="332.5859"/><polygon fill="#181818" points="357,328.5859,347,332.5859,357,336.5859,353,332.5859" style="stroke:#181818;stroke-width:1.0;"/><text fill="#000000" font-family="sans-serif" font-size="13" lengthAdjust="spacing" textLength="273" x="353" y="314.52">userPresaleStaker[_user].stakingAmount--</text><path d="M638,291.8203 L638,346.8203 L819,346.8203 L819,301.8203 L809,291.8203 L638,291.8203 " fill="#FEFFDD" style="stroke:#181818;stroke-width:0.5;"/><path d="M809,291.8203 L809,301.8203 L819,301.8203 L809,291.8203 " fill="#FEFFDD" style="stroke:#181818;stroke-width:0.5;"/><text fill="#000000" font-family="sans-serif" font-size="13" lengthAdjust="spacing" textLength="83" x="644" y="308.8872">DECREMENT:</text><text fill="#000000" font-family="sans-serif" font-size="13" lengthAdjust="spacing" textLength="127" x="644" y="324.02">Allows user to stake</text><text fill="#000000" font-family="sans-serif" font-size="13" lengthAdjust="spacing" textLength="160" x="644" y="339.1528">again later (up to 2 total)</text><polygon fill="#181818" points="74,369.3516,64,373.3516,74,377.3516,70,373.3516" style="stroke:#181818;stroke-width:1.0;"/><line style="stroke:#181818;stroke-width:1.0;stroke-dasharray:2.0,2.0;" x1="68" x2="340" y1="373.3516" y2="373.3516"/><text fill="#000000" font-family="sans-serif" font-size="13" lengthAdjust="spacing" textLength="133" x="80" y="368.2856">Validation successful</text><!--SRC=[dL9BRzf04BxlhnYb5v1AYdgf50Ka5qoBb8S5IIwbYYRsW5SikzRkR12gyjyxDau2wKDLBtxCVFCzTkSyyCxGK1KkZnko33yKm6VCrr-yYxOOEUCyR4lDf9xK-OSMhLYp8QWy1JGqCgWteTE57jpQmBZMTWKJuxOBs_cALRM33BcKxZpcEOMmZEOLs5MgGiywrnMA_4dBETztJm03v6WC-T_2zj8Dggt0kyba_AdVLmfpre_8z3olzc_e3L-mPsyYtElG2W-MQ0AzX_iOo7SFo7wHUIuSqTwHryiTYA3RPl71wBpbFLqQNC5W00s_iauelLwLB4FPB9qd5obawMnwFJvRsCiO60G23mJQGjKGGLMYJFvLjpQTlHua-MzDZk-dEYIrfTe0-_Y_BEtL9HjP4OOXz8zpt2KNqt5oCxs-aWotCW6REaY9ZmJircJ3ehbzAkGNulxx3rR-pKElT-nWd8vcwMLwTIC6ci2X8Qhb6h65nHNAYHgvKG-TMDMTZ_9WDDq39sAbNHf9XKONoDfP22zxh5H1RrVZiDIktay0]--></g></svg>