<?xml version="1.0" encoding="us-ascii" standalone="no"?><svg xmlns="http://www.w3.org/2000/svg" xmlns:xlink="http://www.w3.org/1999/xlink" contentStyleType="text/css" height="426px" preserveAspectRatio="none" style="width:854px;height:426px;background:#FFFFFF;" version="1.1" viewBox="0 0 854 426" width="854px" zoomAndPan="magnify"><defs/><g><text fill="#000000" font-family="sans-serif" font-size="14" font-weight="bold" lengthAdjust="spacing" textLength="238" x="311.5" y="27.9951">presaleClaims() - Staking Flow</text><text fill="#000000" font-family="sans-serif" font-size="14" font-weight="bold" lengthAdjust="spacing" textLength="266" x="297.5" y="44.292">(Happy Path - Successful Staking)</text><rect fill="#FFFFFF" height="273.4609" style="stroke:#181818;stroke-width:1.0;" width="10" x="58" y="99.8906"/><rect fill="#FFD700" height="252.3281" style="stroke:#181818;stroke-width:1.0;" width="10" x="332" y="121.0234"/><line style="stroke:#181818;stroke-width:0.5;stroke-dasharray:5.0,5.0;" x1="63" x2="63" y1="89.8906" y2="391.3516"/><line style="stroke:#181818;stroke-width:0.5;stroke-dasharray:5.0,5.0;" x1="337" x2="337" y1="89.8906" y2="391.3516"/><rect fill="#E2E2F0" height="30.2969" rx="2.5" ry="2.5" style="stroke:#181818;stroke-width:0.5;" width="116" x="5" y="58.5938"/><text fill="#000000" font-family="sans-serif" font-size="14" lengthAdjust="spacing" textLength="102" x="12" y="78.5889">presaleStaking</text><rect fill="#E2E2F0" height="30.2969" rx="2.5" ry="2.5" style="stroke:#181818;stroke-width:0.5;" width="116" x="5" y="390.3516"/><text fill="#000000" font-family="sans-serif" font-size="14" lengthAdjust="spacing" textLength="102" x="12" y="410.3467">presaleStaking</text><rect fill="#FFD700" height="30.2969" rx="2.5" ry="2.5" style="stroke:#181818;stroke-width:0.5;" width="110" x="282" y="58.5938"/><text fill="#000000" font-family="sans-serif" font-size="14" lengthAdjust="spacing" textLength="96" x="289" y="78.5889">presaleClaims</text><rect fill="#FFD700" height="30.2969" rx="2.5" ry="2.5" style="stroke:#181818;stroke-width:0.5;" width="110" x="282" y="390.3516"/><text fill="#000000" font-family="sans-serif" font-size="14" lengthAdjust="spacing" textLength="96" x="289" y="410.3467">presaleClaims</text><rect fill="#FFFFFF" height="273.4609" style="stroke:#181818;stroke-width:1.0;" width="10" x="58" y="99.8906"/><rect fill="#FFD700" height="252.3281" style="stroke:#181818;stroke-width:1.0;" width="10" x="332" y="121.0234"/><polygon fill="#181818" points="320,117.0234,330,121.0234,320,125.0234,324,121.0234" style="stroke:#181818;stroke-width:1.0;"/><line style="stroke:#181818;stroke-width:1.0;" x1="68" x2="326" y1="121.0234" y2="121.0234"/><text fill="#000000" font-family="sans-serif" font-size="13" lengthAdjust="spacing" textLength="245" x="75" y="115.9575">presaleClaims(_isStaking=true, _user)</text><line style="stroke:#181818;stroke-width:1.0;" x1="342" x2="384" y1="154.2227" y2="154.2227"/><line style="stroke:#181818;stroke-width:1.0;" x1="384" x2="384" y1="154.2227" y2="167.2227"/><line style="stroke:#181818;stroke-width:1.0;" x1="343" x2="384" y1="167.2227" y2="167.2227"/><polygon fill="#181818" points="353,163.2227,343,167.2227,353,171.2227,349,167.2227" style="stroke:#181818;stroke-width:1.0;"/><text fill="#000000" font-family="sans-serif" font-size="13" lengthAdjust="spacing" textLength="243" x="349" y="149.1567">Verify allowPublicStaking.flag == false</text><path d="M604,134.0234 L604,174.0234 L800,174.0234 L800,144.0234 L790,134.0234 L604,134.0234 " fill="#FEFFDD" style="stroke:#181818;stroke-width:0.5;"/><path d="M790,134.0234 L790,144.0234 L800,144.0234 L790,134.0234 " fill="#FEFFDD" style="stroke:#181818;stroke-width:0.5;"/><text fill="#000000" font-family="sans-serif" font-size="13" lengthAdjust="spacing" textLength="112" x="610" y="151.0903">PRESALE PERIOD:</text><text fill="#000000" font-family="sans-serif" font-size="13" lengthAdjust="spacing" textLength="175" x="610" y="166.2231">Must not be in public phase</text><line style="stroke:#181818;stroke-width:1.0;" x1="342" x2="384" y1="212.0547" y2="212.0547"/><line style="stroke:#181818;stroke-width:1.0;" x1="384" x2="384" y1="212.0547" y2="225.0547"/><line style="stroke:#181818;stroke-width:1.0;" x1="343" x2="384" y1="225.0547" y2="225.0547"/><polygon fill="#181818" points="353,221.0547,343,225.0547,353,229.0547,349,225.0547" style="stroke:#181818;stroke-width:1.0;"/><text fill="#000000" font-family="sans-serif" font-size="13" lengthAdjust="spacing" textLength="304" x="349" y="206.9888">Verify userPresaleStaker[_user].isAllow == true</text><path d="M665,184.2891 L665,239.2891 L837,239.2891 L837,194.2891 L827,184.2891 L665,184.2891 " fill="#FEFFDD" style="stroke:#181818;stroke-width:0.5;"/><path d="M827,184.2891 L827,194.2891 L837,194.2891 L827,184.2891 " fill="#FEFFDD" style="stroke:#181818;stroke-width:0.5;"/><text fill="#000000" font-family="sans-serif" font-size="13" lengthAdjust="spacing" textLength="117" x="671" y="201.356">WHITELIST CHECK:</text><text fill="#000000" font-family="sans-serif" font-size="13" lengthAdjust="spacing" textLength="151" x="671" y="216.4888">User must be approved</text><text fill="#000000" font-family="sans-serif" font-size="13" lengthAdjust="spacing" textLength="91" x="671" y="231.6216">presale staker</text><line style="stroke:#181818;stroke-width:1.0;" x1="342" x2="384" y1="277.4531" y2="277.4531"/><line style="stroke:#181818;stroke-width:1.0;" x1="384" x2="384" y1="277.4531" y2="290.4531"/><line style="stroke:#181818;stroke-width:1.0;" x1="343" x2="384" y1="290.4531" y2="290.4531"/><polygon fill="#181818" points="353,286.4531,343,290.4531,353,294.4531,349,290.4531" style="stroke:#181818;stroke-width:1.0;"/><text fill="#000000" font-family="sans-serif" font-size="13" lengthAdjust="spacing" textLength="330" x="349" y="272.3872">Verify userPresaleStaker[_user].stakingAmount &lt; 2</text><path d="M691,249.6875 L691,304.6875 L847,304.6875 L847,259.6875 L837,249.6875 L691,249.6875 " fill="#FEFFDD" style="stroke:#181818;stroke-width:0.5;"/><path d="M837,249.6875 L837,259.6875 L847,259.6875 L837,249.6875 " fill="#FEFFDD" style="stroke:#181818;stroke-width:0.5;"/><text fill="#000000" font-family="sans-serif" font-size="13" lengthAdjust="spacing" textLength="76" x="697" y="266.7544">HARD LIMIT:</text><text fill="#000000" font-family="sans-serif" font-size="13" lengthAdjust="spacing" textLength="135" x="697" y="281.8872">Max 2 staking tokens</text><text fill="#000000" font-family="sans-serif" font-size="13" lengthAdjust="spacing" textLength="104" x="697" y="297.02">per presale user</text><line style="stroke:#181818;stroke-width:1.0;" x1="342" x2="384" y1="331.2188" y2="331.2188"/><line style="stroke:#181818;stroke-width:1.0;" x1="384" x2="384" y1="331.2188" y2="344.2188"/><line style="stroke:#181818;stroke-width:1.0;" x1="343" x2="384" y1="344.2188" y2="344.2188"/><polygon fill="#181818" points="353,340.2188,343,344.2188,353,348.2188,349,344.2188" style="stroke:#181818;stroke-width:1.0;"/><text fill="#000000" font-family="sans-serif" font-size="13" lengthAdjust="spacing" textLength="285" x="349" y="326.1528">userPresaleStaker[_user].stakingAmount++</text><polygon fill="#181818" points="74,369.3516,64,373.3516,74,377.3516,70,373.3516" style="stroke:#181818;stroke-width:1.0;"/><line style="stroke:#181818;stroke-width:1.0;stroke-dasharray:2.0,2.0;" x1="68" x2="336" y1="373.3516" y2="373.3516"/><text fill="#000000" font-family="sans-serif" font-size="13" lengthAdjust="spacing" textLength="133" x="80" y="368.2856">Validation successful</text><!--SRC=[dP9FJm8n4CNl_HGJlK0K9LvC390WBB8HumPG3sBCk3j0GsatRLSankzk5xe8_elnjCbqtdk_cPsQiKj13PQeE9kJjF3A0CundbrebScafOJIi9XoI-oDrOvzDxFS2e9Kaq51BO5yRafbgC30uepB2NI4MenagOjfkeG8xJH_o-AOZ1bdecWhCvQYjZpcARheFU_dN_S03SGe1EblszQngovVWVrEftrQhJA6iUNFQAdGi_KNAerDxzad_4TkV73TwemEuJ4pfCjRNbzIYiAEworfFbw2orEBA7iIFFQsHsE14wZNOOp249FAMMe-cLedYlh1eDaB80hwuNNxR2IlCcF1jS0J0PUGhemWdQ9J_fgRGqSVUoHzlvhZuOYRPewK0-JpxURVTSDXq0i7GsXrWzQb0xXn8fZd58x0_KQjdYaPoIBFhBp_YMBM2sdEtObPgC79BaotsMz3BxmAX_aYy0LEm2l0gXb9up0SN96NU_u0yZU2WuCjkTFxMt5peE09MguacCtnCfRGvvFOBlcBUmS0]--></g></svg>