<?xml version="1.0" encoding="us-ascii" standalone="no"?><svg xmlns="http://www.w3.org/2000/svg" xmlns:xlink="http://www.w3.org/1999/xlink" contentStyleType="text/css" height="1314px" preserveAspectRatio="none" style="width:730px;height:1314px;background:#FFFFFF;" version="1.1" viewBox="0 0 730 1314" width="730px" zoomAndPan="magnify"><defs/><g><text fill="#000000" font-family="sans-serif" font-size="14" font-weight="bold" lengthAdjust="spacing" textLength="307" x="212.75" y="27.9951">stakingBaseProcess() - Unstaking Flow</text><text fill="#000000" font-family="sans-serif" font-size="14" font-weight="bold" lengthAdjust="spacing" textLength="246" x="243.25" y="44.292">(Failed Path - Unstaking Errors)</text><rect fill="#FFD700" height="976.0703" style="stroke:#181818;stroke-width:1.0;" width="10" x="403" y="215.3125"/><rect fill="#00EE20" height="30" style="stroke:#181818;stroke-width:1.0;" width="10" x="662" y="399.9141"/><rect fill="#00EE20" height="126.3359" style="stroke:#181818;stroke-width:1.0;" width="10" x="662" y="539.3125"/><rect fill="#00EE20" height="147.4688" style="stroke:#181818;stroke-width:1.0;" width="10" x="662" y="793.0469"/><rect fill="#00EE20" height="126.3359" style="stroke:#181818;stroke-width:1.0;" width="10" x="662" y="1035.9141"/><rect fill="#FFFFFF" height="214.6016" style="stroke:#000000;stroke-width:1.5;" width="693.5" x="20" y="230.3125"/><rect fill="#F5B7B1" height="141.3359" style="stroke:#000000;stroke-width:1.5;" width="673.5" x="30" y="296.5781"/><rect fill="#FFFFFF" height="73.9375" style="stroke:none;stroke-width:1.0;" width="673.5" x="30" y="363.9766"/><rect fill="#FFFFFF" height="221.7344" style="stroke:#000000;stroke-width:1.5;" width="693.5" x="20" y="458.9141"/><rect fill="#F5B7B1" height="119.3359" style="stroke:#000000;stroke-width:1.5;" width="673.5" x="30" y="554.3125"/><rect fill="#FFFFFF" height="43.9375" style="stroke:none;stroke-width:1.0;" width="673.5" x="30" y="629.7109"/><rect fill="#F5B7B1" height="405.3359" style="stroke:#000000;stroke-width:1.5;" width="713.5" x="10" y="808.0469"/><rect fill="#FFFFFF" height="308.8047" style="stroke:none;stroke-width:1.0;" width="713.5" x="10" y="904.5781"/><rect fill="#FFFFFF" height="250.8672" style="stroke:#000000;stroke-width:1.5;" width="693.5" x="20" y="955.5156"/><rect fill="#F5B7B1" height="148.4688" style="stroke:#000000;stroke-width:1.5;" width="673.5" x="30" y="1050.9141"/><rect fill="#FFFFFF" height="73.0703" style="stroke:none;stroke-width:1.0;" width="673.5" x="30" y="1126.3125"/><line style="stroke:#181818;stroke-width:0.5;stroke-dasharray:5.0,5.0;" x1="106" x2="106" y1="138.7813" y2="1230.3828"/><line style="stroke:#181818;stroke-width:0.5;stroke-dasharray:5.0,5.0;" x1="407.5" x2="407.5" y1="138.7813" y2="1230.3828"/><line style="stroke:#181818;stroke-width:0.5;stroke-dasharray:5.0,5.0;" x1="666.5" x2="666.5" y1="138.7813" y2="1230.3828"/><rect fill="#E2E2F0" height="79.1875" rx="2.5" ry="2.5" style="stroke:#181818;stroke-width:0.5;" width="132" x="40" y="58.5938"/><text fill="#000000" font-family="sans-serif" font-size="14" lengthAdjust="spacing" textLength="104" x="54" y="78.5889">goldenStaking/</text><text fill="#000000" font-family="sans-serif" font-size="14" lengthAdjust="spacing" textLength="107" x="52.5" y="94.8857">presaleStaking/</text><text fill="#000000" font-family="sans-serif" font-size="14" lengthAdjust="spacing" textLength="97" x="57.5" y="111.1826">publicStaking/</text><text fill="#000000" font-family="sans-serif" font-size="14" lengthAdjust="spacing" textLength="118" x="47" y="127.4795">serviceUnstaking</text><rect fill="#E2E2F0" height="79.1875" rx="2.5" ry="2.5" style="stroke:#181818;stroke-width:0.5;" width="132" x="40" y="1229.3828"/><text fill="#000000" font-family="sans-serif" font-size="14" lengthAdjust="spacing" textLength="104" x="54" y="1249.3779">goldenStaking/</text><text fill="#000000" font-family="sans-serif" font-size="14" lengthAdjust="spacing" textLength="107" x="52.5" y="1265.6748">presaleStaking/</text><text fill="#000000" font-family="sans-serif" font-size="14" lengthAdjust="spacing" textLength="97" x="57.5" y="1281.9717">publicStaking/</text><text fill="#000000" font-family="sans-serif" font-size="14" lengthAdjust="spacing" textLength="118" x="47" y="1298.2686">serviceUnstaking</text><rect fill="#FFD700" height="30.2969" rx="2.5" ry="2.5" style="stroke:#181818;stroke-width:0.5;" width="155" x="330.5" y="107.4844"/><text fill="#000000" font-family="sans-serif" font-size="14" lengthAdjust="spacing" textLength="141" x="337.5" y="127.4795">stakingBaseProcess</text><rect fill="#FFD700" height="30.2969" rx="2.5" ry="2.5" style="stroke:#181818;stroke-width:0.5;" width="155" x="330.5" y="1229.3828"/><text fill="#000000" font-family="sans-serif" font-size="14" lengthAdjust="spacing" textLength="141" x="337.5" y="1249.3779">stakingBaseProcess</text><rect fill="#00EE20" height="30.2969" rx="2.5" ry="2.5" style="stroke:#181818;stroke-width:0.5;" width="53" x="640.5" y="107.4844"/><text fill="#000000" font-family="sans-serif" font-size="14" lengthAdjust="spacing" textLength="39" x="647.5" y="127.4795">EVVM</text><rect fill="#00EE20" height="30.2969" rx="2.5" ry="2.5" style="stroke:#181818;stroke-width:0.5;" width="53" x="640.5" y="1229.3828"/><text fill="#000000" font-family="sans-serif" font-size="14" lengthAdjust="spacing" textLength="39" x="647.5" y="1249.3779">EVVM</text><rect fill="#FFD700" height="976.0703" style="stroke:#181818;stroke-width:1.0;" width="10" x="403" y="215.3125"/><rect fill="#00EE20" height="30" style="stroke:#181818;stroke-width:1.0;" width="10" x="662" y="399.9141"/><rect fill="#00EE20" height="126.3359" style="stroke:#181818;stroke-width:1.0;" width="10" x="662" y="539.3125"/><rect fill="#00EE20" height="147.4688" style="stroke:#181818;stroke-width:1.0;" width="10" x="662" y="793.0469"/><rect fill="#00EE20" height="126.3359" style="stroke:#181818;stroke-width:1.0;" width="10" x="662" y="1035.9141"/><polygon fill="#181818" points="391,211.3125,401,215.3125,391,219.3125,395,215.3125" style="stroke:#181818;stroke-width:1.0;"/><line style="stroke:#181818;stroke-width:1.0;" x1="106" x2="397" y1="215.3125" y2="215.3125"/><text fill="#000000" font-family="sans-serif" font-size="13" lengthAdjust="spacing" textLength="133" x="113" y="164.8481">stakingBaseProcess(</text><text fill="#000000" font-family="sans-serif" font-size="13" lengthAdjust="spacing" textLength="259" x="121" y="179.981">AccountMetadata{Address, IsAService},</text><text fill="#000000" font-family="sans-serif" font-size="13" lengthAdjust="spacing" textLength="129" x="121" y="195.1138">isStaking=false, (&#183;&#183;&#183;)</text><text fill="#000000" font-family="sans-serif" font-size="13" lengthAdjust="spacing" textLength="5" x="113" y="210.2466">)</text><path d="M20,230.3125 L84,230.3125 L84,237.4453 L74,247.4453 L20,247.4453 L20,230.3125 " fill="#EEEEEE" style="stroke:#000000;stroke-width:1.5;"/><rect fill="none" height="214.6016" style="stroke:#000000;stroke-width:1.5;" width="693.5" x="20" y="230.3125"/><text fill="#000000" font-family="sans-serif" font-size="13" font-weight="bold" lengthAdjust="spacing" textLength="19" x="35" y="243.3794">alt</text><text fill="#000000" font-family="sans-serif" font-size="11" font-weight="bold" lengthAdjust="spacing" textLength="155" x="99" y="242.5229">[Full unstaking attempt]</text><line style="stroke:#181818;stroke-width:1.0;" x1="413" x2="455" y1="268.5781" y2="268.5781"/><line style="stroke:#181818;stroke-width:1.0;" x1="455" x2="455" y1="268.5781" y2="281.5781"/><line style="stroke:#181818;stroke-width:1.0;" x1="414" x2="455" y1="281.5781" y2="281.5781"/><polygon fill="#181818" points="424,277.5781,414,281.5781,424,285.5781,420,281.5781" style="stroke:#181818;stroke-width:1.0;"/><text fill="#000000" font-family="sans-serif" font-size="13" lengthAdjust="spacing" textLength="101" x="420" y="263.5122">Check time lock</text><path d="M30,296.5781 L94,296.5781 L94,303.7109 L84,313.7109 L30,313.7109 L30,296.5781 " fill="#EEEEEE" style="stroke:#000000;stroke-width:1.5;"/><rect fill="none" height="141.3359" style="stroke:#000000;stroke-width:1.5;" width="673.5" x="30" y="296.5781"/><text fill="#000000" font-family="sans-serif" font-size="13" font-weight="bold" lengthAdjust="spacing" textLength="19" x="45" y="309.645">alt</text><text fill="#000000" font-family="sans-serif" font-size="11" font-weight="bold" lengthAdjust="spacing" textLength="391" x="109" y="308.7886">[getTimeToUserUnlockFullUnstakingTime &gt; block.timestamp]</text><line style="stroke:#181818;stroke-width:2.0;" x1="113" x2="123" y1="340.4102" y2="350.4102"/><line style="stroke:#181818;stroke-width:2.0;" x1="113" x2="123" y1="350.4102" y2="340.4102"/><line style="stroke:#181818;stroke-width:1.0;" x1="118" x2="402" y1="345.4102" y2="345.4102"/><text fill="#000000" font-family="sans-serif" font-size="13" lengthAdjust="spacing" textLength="273" x="123" y="340.3442">Revert with AddressMustWaitToFullUnstake</text><path d="M418,318.7109 L418,358.7109 L608,358.7109 L608,328.7109 L598,318.7109 L418,318.7109 " fill="#FEFFDD" style="stroke:#181818;stroke-width:0.5;"/><path d="M598,318.7109 L598,328.7109 L608,328.7109 L598,318.7109 " fill="#FEFFDD" style="stroke:#181818;stroke-width:0.5;"/><text fill="#000000" font-family="sans-serif" font-size="13" lengthAdjust="spacing" textLength="137" x="424" y="335.7778">21-DAY RESTRICTION:</text><text fill="#000000" font-family="sans-serif" font-size="13" lengthAdjust="spacing" textLength="169" x="424" y="350.9106">Must wait for full unstaking</text><line style="stroke:#000000;stroke-width:1.0;stroke-dasharray:2.0,2.0;" x1="30" x2="703.5" y1="364.9766" y2="364.9766"/><text fill="#000000" font-family="sans-serif" font-size="11" font-weight="bold" lengthAdjust="spacing" textLength="121" x="35" y="375.187">[Time lock passed]</text><polygon fill="#181818" points="650,395.9141,660,399.9141,650,403.9141,654,399.9141" style="stroke:#181818;stroke-width:1.0;"/><line style="stroke:#181818;stroke-width:1.0;" x1="413" x2="656" y1="399.9141" y2="399.9141"/><text fill="#000000" font-family="sans-serif" font-size="13" lengthAdjust="spacing" textLength="230" x="420" y="394.8481">pointStaker(account.Address, 0x00)</text><path d="M20,458.9141 L84,458.9141 L84,466.0469 L74,476.0469 L20,476.0469 L20,458.9141 " fill="#EEEEEE" style="stroke:#000000;stroke-width:1.5;"/><rect fill="none" height="221.7344" style="stroke:#000000;stroke-width:1.5;" width="693.5" x="20" y="458.9141"/><text fill="#000000" font-family="sans-serif" font-size="13" font-weight="bold" lengthAdjust="spacing" textLength="19" x="35" y="471.981">alt</text><text fill="#000000" font-family="sans-serif" font-size="11" font-weight="bold" lengthAdjust="spacing" textLength="264" x="99" y="471.1245">[priorityFee != 0 &amp;&amp; !account.IsAService]</text><line style="stroke:#181818;stroke-width:1.0;" x1="413" x2="455" y1="497.1797" y2="497.1797"/><line style="stroke:#181818;stroke-width:1.0;" x1="455" x2="455" y1="497.1797" y2="510.1797"/><line style="stroke:#181818;stroke-width:1.0;" x1="414" x2="455" y1="510.1797" y2="510.1797"/><polygon fill="#181818" points="424,506.1797,414,510.1797,424,514.1797,420,510.1797" style="stroke:#181818;stroke-width:1.0;"/><text fill="#000000" font-family="sans-serif" font-size="13" lengthAdjust="spacing" textLength="81" x="420" y="492.1138">makePay(&#183;&#183;&#183;)</text><polygon fill="#181818" points="650,535.3125,660,539.3125,650,543.3125,654,539.3125" style="stroke:#181818;stroke-width:1.0;"/><line style="stroke:#181818;stroke-width:1.0;" x1="413" x2="656" y1="539.3125" y2="539.3125"/><text fill="#000000" font-family="sans-serif" font-size="13" lengthAdjust="spacing" textLength="45" x="420" y="534.2466">pay(&#183;&#183;&#183;)</text><path d="M30,554.3125 L94,554.3125 L94,561.4453 L84,571.4453 L30,571.4453 L30,554.3125 " fill="#EEEEEE" style="stroke:#000000;stroke-width:1.5;"/><rect fill="none" height="119.3359" style="stroke:#000000;stroke-width:1.5;" width="673.5" x="30" y="554.3125"/><text fill="#000000" font-family="sans-serif" font-size="13" font-weight="bold" lengthAdjust="spacing" textLength="19" x="45" y="567.3794">alt</text><text fill="#000000" font-family="sans-serif" font-size="11" font-weight="bold" lengthAdjust="spacing" textLength="172" x="109" y="566.5229">[Priority fee payment fails]</text><line style="stroke:#181818;stroke-width:2.0;" x1="420" x2="430" y1="587.5781" y2="597.5781"/><line style="stroke:#181818;stroke-width:2.0;" x1="420" x2="430" y1="597.5781" y2="587.5781"/><line style="stroke:#181818;stroke-width:1.0;" x1="425" x2="661" y1="592.5781" y2="592.5781"/><text fill="#000000" font-family="sans-serif" font-size="13" lengthAdjust="spacing" textLength="41" x="430" y="587.5122">Revert</text><line style="stroke:#181818;stroke-width:2.0;" x1="113" x2="123" y1="616.7109" y2="626.7109"/><line style="stroke:#181818;stroke-width:2.0;" x1="113" x2="123" y1="626.7109" y2="616.7109"/><line style="stroke:#181818;stroke-width:1.0;" x1="118" x2="402" y1="621.7109" y2="621.7109"/><text fill="#000000" font-family="sans-serif" font-size="13" lengthAdjust="spacing" textLength="92" x="123" y="616.645">Payment error</text><line style="stroke:#000000;stroke-width:1.0;stroke-dasharray:2.0,2.0;" x1="30" x2="703.5" y1="630.7109" y2="630.7109"/><text fill="#000000" font-family="sans-serif" font-size="11" font-weight="bold" lengthAdjust="spacing" textLength="129" x="35" y="640.9214">[Payment succeeds]</text><polygon fill="#181818" points="424,661.6484,414,665.6484,424,669.6484,420,665.6484" style="stroke:#181818;stroke-width:1.0;"/><line style="stroke:#181818;stroke-width:1.0;stroke-dasharray:2.0,2.0;" x1="418" x2="666" y1="665.6484" y2="665.6484"/><text fill="#000000" font-family="sans-serif" font-size="13" lengthAdjust="spacing" textLength="53" x="430" y="660.5825">Success</text><line style="stroke:#181818;stroke-width:1.0;" x1="413" x2="455" y1="708.7813" y2="708.7813"/><line style="stroke:#181818;stroke-width:1.0;" x1="455" x2="455" y1="708.7813" y2="721.7813"/><line style="stroke:#181818;stroke-width:1.0;" x1="414" x2="455" y1="721.7813" y2="721.7813"/><polygon fill="#181818" points="424,717.7813,414,721.7813,424,725.7813,420,721.7813" style="stroke:#181818;stroke-width:1.0;"/><text fill="#000000" font-family="sans-serif" font-size="13" lengthAdjust="spacing" textLength="124" x="420" y="703.7153">Update userHistory</text><line style="stroke:#181818;stroke-width:1.0;" x1="413" x2="455" y1="750.9141" y2="750.9141"/><line style="stroke:#181818;stroke-width:1.0;" x1="455" x2="455" y1="750.9141" y2="763.9141"/><line style="stroke:#181818;stroke-width:1.0;" x1="414" x2="455" y1="763.9141" y2="763.9141"/><polygon fill="#181818" points="424,759.9141,414,763.9141,424,767.9141,420,763.9141" style="stroke:#181818;stroke-width:1.0;"/><text fill="#000000" font-family="sans-serif" font-size="13" lengthAdjust="spacing" textLength="98" x="420" y="745.8481">makeCaPay(&#183;&#183;&#183;)</text><polygon fill="#181818" points="650,789.0469,660,793.0469,650,797.0469,654,793.0469" style="stroke:#181818;stroke-width:1.0;"/><line style="stroke:#181818;stroke-width:1.0;" x1="413" x2="656" y1="793.0469" y2="793.0469"/><text fill="#000000" font-family="sans-serif" font-size="13" lengthAdjust="spacing" textLength="60" x="420" y="787.981">caPay(&#183;&#183;&#183;)</text><path d="M10,808.0469 L74,808.0469 L74,815.1797 L64,825.1797 L10,825.1797 L10,808.0469 " fill="#EEEEEE" style="stroke:#000000;stroke-width:1.5;"/><rect fill="none" height="405.3359" style="stroke:#000000;stroke-width:1.5;" width="713.5" x="10" y="808.0469"/><text fill="#000000" font-family="sans-serif" font-size="13" font-weight="bold" lengthAdjust="spacing" textLength="19" x="25" y="821.1138">alt</text><text fill="#000000" font-family="sans-serif" font-size="11" font-weight="bold" lengthAdjust="spacing" textLength="142" x="89" y="820.2573">[Refund transfer fails]</text><line style="stroke:#181818;stroke-width:2.0;" x1="420" x2="430" y1="841.3125" y2="851.3125"/><line style="stroke:#181818;stroke-width:2.0;" x1="420" x2="430" y1="851.3125" y2="841.3125"/><line style="stroke:#181818;stroke-width:1.0;" x1="425" x2="661" y1="846.3125" y2="846.3125"/><text fill="#000000" font-family="sans-serif" font-size="13" lengthAdjust="spacing" textLength="31" x="430" y="841.2466">Error</text><line style="stroke:#181818;stroke-width:2.0;" x1="113" x2="123" y1="881.0117" y2="891.0117"/><line style="stroke:#181818;stroke-width:2.0;" x1="113" x2="123" y1="891.0117" y2="881.0117"/><line style="stroke:#181818;stroke-width:1.0;" x1="118" x2="402" y1="886.0117" y2="886.0117"/><text fill="#000000" font-family="sans-serif" font-size="13" lengthAdjust="spacing" textLength="82" x="123" y="880.9458">Refund failed</text><path d="M418,859.3125 L418,899.3125 L592,899.3125 L592,869.3125 L582,859.3125 L418,859.3125 " fill="#FEFFDD" style="stroke:#181818;stroke-width:0.5;"/><path d="M582,859.3125 L582,869.3125 L592,869.3125 L582,859.3125 " fill="#FEFFDD" style="stroke:#181818;stroke-width:0.5;"/><text fill="#000000" font-family="sans-serif" font-size="13" lengthAdjust="spacing" textLength="153" x="424" y="876.3794">Contract balance issues</text><text fill="#000000" font-family="sans-serif" font-size="13" lengthAdjust="spacing" textLength="96" x="424" y="891.5122">or EVVM errors</text><line style="stroke:#000000;stroke-width:1.0;stroke-dasharray:2.0,2.0;" x1="10" x2="723.5" y1="905.5781" y2="905.5781"/><text fill="#000000" font-family="sans-serif" font-size="11" font-weight="bold" lengthAdjust="spacing" textLength="119" x="15" y="915.7886">[Refund succeeds]</text><polygon fill="#181818" points="424,936.5156,414,940.5156,424,944.5156,420,940.5156" style="stroke:#181818;stroke-width:1.0;"/><line style="stroke:#181818;stroke-width:1.0;stroke-dasharray:2.0,2.0;" x1="418" x2="666" y1="940.5156" y2="940.5156"/><text fill="#000000" font-family="sans-serif" font-size="13" lengthAdjust="spacing" textLength="53" x="430" y="935.4497">Success</text><path d="M20,955.5156 L84,955.5156 L84,962.6484 L74,972.6484 L20,972.6484 L20,955.5156 " fill="#EEEEEE" style="stroke:#000000;stroke-width:1.5;"/><rect fill="none" height="250.8672" style="stroke:#000000;stroke-width:1.5;" width="693.5" x="20" y="955.5156"/><text fill="#000000" font-family="sans-serif" font-size="13" font-weight="bold" lengthAdjust="spacing" textLength="19" x="35" y="968.5825">alt</text><text fill="#000000" font-family="sans-serif" font-size="11" font-weight="bold" lengthAdjust="spacing" textLength="297" x="99" y="967.7261">[msg.sender is staker &amp;&amp; !account.IsAService]</text><line style="stroke:#181818;stroke-width:1.0;" x1="413" x2="455" y1="993.7813" y2="993.7813"/><line style="stroke:#181818;stroke-width:1.0;" x1="455" x2="455" y1="993.7813" y2="1006.7813"/><line style="stroke:#181818;stroke-width:1.0;" x1="414" x2="455" y1="1006.7813" y2="1006.7813"/><polygon fill="#181818" points="424,1002.7813,414,1006.7813,424,1010.7813,420,1006.7813" style="stroke:#181818;stroke-width:1.0;"/><text fill="#000000" font-family="sans-serif" font-size="13" lengthAdjust="spacing" textLength="98" x="420" y="988.7153">makeCaPay(&#183;&#183;&#183;)</text><polygon fill="#181818" points="650,1031.9141,660,1035.9141,650,1039.9141,654,1035.9141" style="stroke:#181818;stroke-width:1.0;"/><line style="stroke:#181818;stroke-width:1.0;" x1="413" x2="656" y1="1035.9141" y2="1035.9141"/><text fill="#000000" font-family="sans-serif" font-size="13" lengthAdjust="spacing" textLength="60" x="420" y="1030.8481">caPay(&#183;&#183;&#183;)</text><path d="M30,1050.9141 L94,1050.9141 L94,1058.0469 L84,1068.0469 L30,1068.0469 L30,1050.9141 " fill="#EEEEEE" style="stroke:#000000;stroke-width:1.5;"/><rect fill="none" height="148.4688" style="stroke:#000000;stroke-width:1.5;" width="673.5" x="30" y="1050.9141"/><text fill="#000000" font-family="sans-serif" font-size="13" font-weight="bold" lengthAdjust="spacing" textLength="19" x="45" y="1063.981">alt</text><text fill="#000000" font-family="sans-serif" font-size="11" font-weight="bold" lengthAdjust="spacing" textLength="168" x="109" y="1063.1245">[Reward distribution fails]</text><line style="stroke:#181818;stroke-width:2.0;" x1="420" x2="430" y1="1084.1797" y2="1094.1797"/><line style="stroke:#181818;stroke-width:2.0;" x1="420" x2="430" y1="1094.1797" y2="1084.1797"/><line style="stroke:#181818;stroke-width:1.0;" x1="425" x2="661" y1="1089.1797" y2="1089.1797"/><text fill="#000000" font-family="sans-serif" font-size="13" lengthAdjust="spacing" textLength="31" x="430" y="1084.1138">Error</text><line style="stroke:#181818;stroke-width:2.0;" x1="113" x2="123" y1="1113.3125" y2="1123.3125"/><line style="stroke:#181818;stroke-width:2.0;" x1="113" x2="123" y1="1123.3125" y2="1113.3125"/><line style="stroke:#181818;stroke-width:1.0;" x1="118" x2="402" y1="1118.3125" y2="1118.3125"/><text fill="#000000" font-family="sans-serif" font-size="13" lengthAdjust="spacing" textLength="84" x="123" y="1113.2466">Reward failed</text><line style="stroke:#000000;stroke-width:1.0;stroke-dasharray:2.0,2.0;" x1="30" x2="703.5" y1="1127.3125" y2="1127.3125"/><text fill="#000000" font-family="sans-serif" font-size="11" font-weight="bold" lengthAdjust="spacing" textLength="97" x="35" y="1137.5229">[Rewards sent]</text><polygon fill="#181818" points="424,1158.25,414,1162.25,424,1166.25,420,1162.25" style="stroke:#181818;stroke-width:1.0;"/><line style="stroke:#181818;stroke-width:1.0;stroke-dasharray:2.0,2.0;" x1="418" x2="666" y1="1162.25" y2="1162.25"/><text fill="#000000" font-family="sans-serif" font-size="13" lengthAdjust="spacing" textLength="53" x="430" y="1157.1841">Success</text><polygon fill="#181818" points="117,1187.3828,107,1191.3828,117,1195.3828,113,1191.3828" style="stroke:#181818;stroke-width:1.0;"/><line style="stroke:#181818;stroke-width:1.0;stroke-dasharray:2.0,2.0;" x1="111" x2="407" y1="1191.3828" y2="1191.3828"/><text fill="#000000" font-family="sans-serif" font-size="13" lengthAdjust="spacing" textLength="53" x="123" y="1186.3169">Success</text><!--SRC=[ZLJRJjj047ttLmmW8I9nCKWL4WAa49AM1ze84gfAUTcins75PjVQNIT4YE_gUx-iixPZnywbLPJ8piwSFNFEp5nRjv1u6qIQfrDK3Zu2W3l6txuQdQgeewKsC7yL3eFFuFgiY0wSS1B1ElOcrEIEMUmRpT7QenQSm50L1z2JUZvIHpqc94RGP-wrTjmrHXlR2eA46IUuI1WHs9ze6Q5wpcFEHYenQ9d4bJ_IiHIyUhTePe9ZYRiFp09dKgAf8w_ppKB7z0u7lTxzPHZM4xelBuzP2CvcKpW8msxt8Wo271jERlFKgqr2Z1H0ctCIqJsYOn5pxACTHLIBFOO7stxEINyU-q1XYsfkOYOj7iFHdz_-qngfLi2u4pFciCupODB1GUOCz58f8IrbPSxXD75a9EGv5T7EA_8tS6AA83L_oqAodmmj_ZA-79_31Ds08WPwICeEbG_qDvJw-aCWI7zmwh7e_scImLHNlXSEqALFE4FZO2x8_aA2nzIwdqouWQwGiKHGceeoOlBgAFlY_EI-_GkUki-3fuVEuE77zwkHylam9m28gJ_ZMlqbJFQ0qekMwpHOrWq9inQZ1kNRtEOhIBHGpZk2veZb7fwMteNlOTWgCqjpQXsoF8smTfuJKb7Wlwi69aPe8zoYXmXxDn32uI7iBM-kccMJerDYsMUBPSDKZZPhQiHi9xxM3_s27SH4Zt2oFH7JJDkoq0o4F2z8vOvlxuX-0O9-0QpPj3orAUU8KVEMglPd7s3j_ydTq6sOH3ukfHR_9gpJPh4MugNji5LnWuQel7QwMT9WLSedZ6chWZDCsPYag5HiADWjbTamJXb6d2tLO6rUEbeHF7UKA9dYICl5fcX7YWR5xxDST1kiAbv0rWJV9VOceQksoJ6dTd9gINdYB6os8UbfHrzlwUsw0RNHtj3bV6FqxY6jmcf6pPc98ABMC6ASEg5Le-LtchPZ5sQuA-Orkp-F8CLe13PSjhtxjnbJvqBv9Pb_8FY4YgAAQlFq5m00]--></g></svg>