<?xml version="1.0" encoding="us-ascii" standalone="no"?><svg xmlns="http://www.w3.org/2000/svg" xmlns:xlink="http://www.w3.org/1999/xlink" contentStyleType="text/css" height="1204px" preserveAspectRatio="none" style="width:1092px;height:1204px;background:#FFFFFF;" version="1.1" viewBox="0 0 1092 1204" width="1092px" zoomAndPan="magnify"><defs/><g><text fill="#000000" font-family="sans-serif" font-size="14" font-weight="bold" lengthAdjust="spacing" textLength="307" x="393.5" y="27.9951">stakingBaseProcess() - Unstaking Flow</text><text fill="#000000" font-family="sans-serif" font-size="14" font-weight="bold" lengthAdjust="spacing" textLength="286" x="404" y="44.292">(Happy Path - Successful Unstaking)</text><rect fill="#FFFFFF" height="953.375" style="stroke:#181818;stroke-width:1.0;" width="10" x="66" y="148.7813"/><rect fill="#FFD700" height="871.7109" style="stroke:#181818;stroke-width:1.0;" width="10" x="362" y="230.4453"/><rect fill="#00EE20" height="35.1328" style="stroke:#181818;stroke-width:1.0;" width="10" x="896" y="349.1094"/><rect fill="#00EE20" height="29.1328" style="stroke:#181818;stroke-width:1.0;" width="10" x="896" y="516.5781"/><rect fill="#00EE20" height="71.2656" style="stroke:#181818;stroke-width:1.0;" width="10" x="896" y="746.4297"/><rect fill="#00EE20" height="32.1328" style="stroke:#181818;stroke-width:1.0;" width="10" x="896" y="1030.8906"/><rect fill="#FFFFFF" height="168.6016" style="stroke:#000000;stroke-width:1.5;" width="805.5" x="279.5" y="245.4453"/><rect fill="#FFFFFF" height="14.8047" style="stroke:none;stroke-width:1.0;" width="805.5" x="279.5" y="399.2422"/><rect fill="#FFFFFF" height="125.6641" style="stroke:#000000;stroke-width:1.5;" width="658" x="279.5" y="428.0469"/><rect fill="#FFFFFF" height="123.5313" style="stroke:#000000;stroke-width:1.5;" width="779.5" x="279.5" y="950.4922"/><line style="stroke:#181818;stroke-width:0.5;stroke-dasharray:5.0,5.0;" x1="71" x2="71" y1="138.7813" y2="1120.1563"/><line style="stroke:#181818;stroke-width:0.5;stroke-dasharray:5.0,5.0;" x1="366.5" x2="366.5" y1="138.7813" y2="1120.1563"/><line style="stroke:#181818;stroke-width:0.5;stroke-dasharray:5.0,5.0;" x1="900.5" x2="900.5" y1="138.7813" y2="1120.1563"/><rect fill="#E2E2F0" height="79.1875" rx="2.5" ry="2.5" style="stroke:#181818;stroke-width:0.5;" width="132" x="5" y="58.5938"/><text fill="#000000" font-family="sans-serif" font-size="14" lengthAdjust="spacing" textLength="104" x="19" y="78.5889">goldenStaking/</text><text fill="#000000" font-family="sans-serif" font-size="14" lengthAdjust="spacing" textLength="107" x="17.5" y="94.8857">presaleStaking/</text><text fill="#000000" font-family="sans-serif" font-size="14" lengthAdjust="spacing" textLength="97" x="22.5" y="111.1826">publicStaking/</text><text fill="#000000" font-family="sans-serif" font-size="14" lengthAdjust="spacing" textLength="118" x="12" y="127.4795">serviceUnstaking</text><rect fill="#E2E2F0" height="79.1875" rx="2.5" ry="2.5" style="stroke:#181818;stroke-width:0.5;" width="132" x="5" y="1119.1563"/><text fill="#000000" font-family="sans-serif" font-size="14" lengthAdjust="spacing" textLength="104" x="19" y="1139.1514">goldenStaking/</text><text fill="#000000" font-family="sans-serif" font-size="14" lengthAdjust="spacing" textLength="107" x="17.5" y="1155.4482">presaleStaking/</text><text fill="#000000" font-family="sans-serif" font-size="14" lengthAdjust="spacing" textLength="97" x="22.5" y="1171.7451">publicStaking/</text><text fill="#000000" font-family="sans-serif" font-size="14" lengthAdjust="spacing" textLength="118" x="12" y="1188.042">serviceUnstaking</text><rect fill="#FFD700" height="30.2969" rx="2.5" ry="2.5" style="stroke:#181818;stroke-width:0.5;" width="155" x="289.5" y="107.4844"/><text fill="#000000" font-family="sans-serif" font-size="14" lengthAdjust="spacing" textLength="141" x="296.5" y="127.4795">stakingBaseProcess</text><rect fill="#FFD700" height="30.2969" rx="2.5" ry="2.5" style="stroke:#181818;stroke-width:0.5;" width="155" x="289.5" y="1119.1563"/><text fill="#000000" font-family="sans-serif" font-size="14" lengthAdjust="spacing" textLength="141" x="296.5" y="1139.1514">stakingBaseProcess</text><rect fill="#00EE20" height="30.2969" rx="2.5" ry="2.5" style="stroke:#181818;stroke-width:0.5;" width="53" x="874.5" y="107.4844"/><text fill="#000000" font-family="sans-serif" font-size="14" lengthAdjust="spacing" textLength="39" x="881.5" y="127.4795">EVVM</text><rect fill="#00EE20" height="30.2969" rx="2.5" ry="2.5" style="stroke:#181818;stroke-width:0.5;" width="53" x="874.5" y="1119.1563"/><text fill="#000000" font-family="sans-serif" font-size="14" lengthAdjust="spacing" textLength="39" x="881.5" y="1139.1514">EVVM</text><rect fill="#FFFFFF" height="953.375" style="stroke:#181818;stroke-width:1.0;" width="10" x="66" y="148.7813"/><rect fill="#FFD700" height="871.7109" style="stroke:#181818;stroke-width:1.0;" width="10" x="362" y="230.4453"/><rect fill="#00EE20" height="35.1328" style="stroke:#181818;stroke-width:1.0;" width="10" x="896" y="349.1094"/><rect fill="#00EE20" height="29.1328" style="stroke:#181818;stroke-width:1.0;" width="10" x="896" y="516.5781"/><rect fill="#00EE20" height="71.2656" style="stroke:#181818;stroke-width:1.0;" width="10" x="896" y="746.4297"/><rect fill="#00EE20" height="32.1328" style="stroke:#181818;stroke-width:1.0;" width="10" x="896" y="1030.8906"/><polygon fill="#181818" points="350,226.4453,360,230.4453,350,234.4453,354,230.4453" style="stroke:#181818;stroke-width:1.0;"/><line style="stroke:#181818;stroke-width:1.0;" x1="76" x2="356" y1="230.4453" y2="230.4453"/><text fill="#000000" font-family="sans-serif" font-size="13" lengthAdjust="spacing" textLength="133" x="83" y="164.8481">stakingBaseProcess(</text><text fill="#000000" font-family="sans-serif" font-size="13" lengthAdjust="spacing" textLength="259" x="91" y="179.981">AccountMetadata{Address, IsAService},</text><text fill="#000000" font-family="sans-serif" font-size="13" lengthAdjust="spacing" textLength="103" x="91" y="195.1138">isStaking=false,</text><text fill="#000000" font-family="sans-serif" font-size="13" lengthAdjust="spacing" textLength="142" x="91" y="210.2466">amountOfStaking, (&#183;&#183;&#183;)</text><text fill="#000000" font-family="sans-serif" font-size="13" lengthAdjust="spacing" textLength="5" x="83" y="225.3794">)</text><path d="M279.5,245.4453 L343.5,245.4453 L343.5,252.5781 L333.5,262.5781 L279.5,262.5781 L279.5,245.4453 " fill="#EEEEEE" style="stroke:#000000;stroke-width:1.5;"/><rect fill="none" height="168.6016" style="stroke:#000000;stroke-width:1.5;" width="805.5" x="279.5" y="245.4453"/><text fill="#000000" font-family="sans-serif" font-size="13" font-weight="bold" lengthAdjust="spacing" textLength="19" x="294.5" y="258.5122">alt</text><text fill="#000000" font-family="sans-serif" font-size="11" font-weight="bold" lengthAdjust="spacing" textLength="331" x="358.5" y="257.6558">[Full unstaking (amount == getUserAmountStaked)]</text><line style="stroke:#181818;stroke-width:1.0;" x1="372" x2="414" y1="302.9102" y2="302.9102"/><line style="stroke:#181818;stroke-width:1.0;" x1="414" x2="414" y1="302.9102" y2="315.9102"/><line style="stroke:#181818;stroke-width:1.0;" x1="373" x2="414" y1="315.9102" y2="315.9102"/><polygon fill="#181818" points="383,311.9102,373,315.9102,383,319.9102,379,315.9102" style="stroke:#181818;stroke-width:1.0;"/><text fill="#000000" font-family="sans-serif" font-size="13" lengthAdjust="spacing" textLength="105" x="379" y="282.7114">Check time lock:</text><text fill="#000000" font-family="sans-serif" font-size="13" lengthAdjust="spacing" textLength="510" x="379" y="297.8442">getTimeToUserUnlockFullUnstakingTime(account.Address) &lt;= block.timestamp</text><path d="M901,267.5781 L901,322.5781 L1065,322.5781 L1065,277.5781 L1055,267.5781 L901,267.5781 " fill="#FEFFDD" style="stroke:#181818;stroke-width:0.5;"/><path d="M1055,267.5781 L1055,277.5781 L1065,277.5781 L1055,267.5781 " fill="#FEFFDD" style="stroke:#181818;stroke-width:0.5;"/><text fill="#000000" font-family="sans-serif" font-size="13" lengthAdjust="spacing" textLength="137" x="907" y="284.645">21-DAY RESTRICTION:</text><text fill="#000000" font-family="sans-serif" font-size="13" lengthAdjust="spacing" textLength="143" x="907" y="299.7778">Full unstaking requires</text><text fill="#000000" font-family="sans-serif" font-size="13" lengthAdjust="spacing" textLength="88" x="907" y="314.9106">waiting period</text><polygon fill="#181818" points="884,345.1094,894,349.1094,884,353.1094,888,349.1094" style="stroke:#181818;stroke-width:1.0;"/><line style="stroke:#181818;stroke-width:1.0;" x1="372" x2="890" y1="349.1094" y2="349.1094"/><text fill="#000000" font-family="sans-serif" font-size="13" lengthAdjust="spacing" textLength="230" x="379" y="344.0435">pointStaker(account.Address, 0x00)</text><line style="stroke:#181818;stroke-width:1.0;" x1="906" x2="948" y1="383.2422" y2="383.2422"/><line style="stroke:#181818;stroke-width:1.0;" x1="948" x2="948" y1="383.2422" y2="396.2422"/><line style="stroke:#181818;stroke-width:1.0;" x1="901" x2="948" y1="396.2422" y2="396.2422"/><polygon fill="#181818" points="911,392.2422,901,396.2422,911,400.2422,907,396.2422" style="stroke:#181818;stroke-width:1.0;"/><text fill="#000000" font-family="sans-serif" font-size="13" lengthAdjust="spacing" textLength="140" x="913" y="378.1763">Remove staker status</text><line style="stroke:#000000;stroke-width:1.0;stroke-dasharray:2.0,2.0;" x1="279.5" x2="1085" y1="400.2422" y2="400.2422"/><text fill="#000000" font-family="sans-serif" font-size="11" font-weight="bold" lengthAdjust="spacing" textLength="119" x="284.5" y="410.4526">[Partial unstaking]</text><path d="M279.5,428.0469 L343.5,428.0469 L343.5,435.1797 L333.5,445.1797 L279.5,445.1797 L279.5,428.0469 " fill="#EEEEEE" style="stroke:#000000;stroke-width:1.5;"/><rect fill="none" height="125.6641" style="stroke:#000000;stroke-width:1.5;" width="658" x="279.5" y="428.0469"/><text fill="#000000" font-family="sans-serif" font-size="13" font-weight="bold" lengthAdjust="spacing" textLength="19" x="294.5" y="441.1138">alt</text><text fill="#000000" font-family="sans-serif" font-size="11" font-weight="bold" lengthAdjust="spacing" textLength="264" x="358.5" y="440.2573">[priorityFee != 0 &amp;&amp; !account.IsAService]</text><line style="stroke:#181818;stroke-width:1.0;" x1="372" x2="414" y1="470.3789" y2="470.3789"/><line style="stroke:#181818;stroke-width:1.0;" x1="414" x2="414" y1="470.3789" y2="483.3789"/><line style="stroke:#181818;stroke-width:1.0;" x1="373" x2="414" y1="483.3789" y2="483.3789"/><polygon fill="#181818" points="383,479.3789,373,483.3789,383,487.3789,379,483.3789" style="stroke:#181818;stroke-width:1.0;"/><text fill="#000000" font-family="sans-serif" font-size="13" lengthAdjust="spacing" textLength="81" x="379" y="465.313">makePay(&#183;&#183;&#183;)</text><path d="M472,450.1797 L472,490.1797 L622,490.1797 L622,460.1797 L612,450.1797 L472,450.1797 " fill="#FEFFDD" style="stroke:#181818;stroke-width:0.5;"/><path d="M612,450.1797 L612,460.1797 L622,460.1797 L612,450.1797 " fill="#FEFFDD" style="stroke:#181818;stroke-width:0.5;"/><text fill="#000000" font-family="sans-serif" font-size="13" lengthAdjust="spacing" textLength="68" x="478" y="467.2466">OPTIONAL:</text><text fill="#000000" font-family="sans-serif" font-size="13" lengthAdjust="spacing" textLength="129" x="478" y="482.3794">Priority fee payment</text><polygon fill="#181818" points="884,512.5781,894,516.5781,884,520.5781,888,516.5781" style="stroke:#181818;stroke-width:1.0;"/><line style="stroke:#181818;stroke-width:1.0;" x1="372" x2="890" y1="516.5781" y2="516.5781"/><text fill="#000000" font-family="sans-serif" font-size="13" lengthAdjust="spacing" textLength="45" x="379" y="511.5122">pay(&#183;&#183;&#183;)</text><polygon fill="#181818" points="383,541.7109,373,545.7109,383,549.7109,379,545.7109" style="stroke:#181818;stroke-width:1.0;"/><line style="stroke:#181818;stroke-width:1.0;stroke-dasharray:2.0,2.0;" x1="377" x2="900" y1="545.7109" y2="545.7109"/><text fill="#000000" font-family="sans-serif" font-size="13" lengthAdjust="spacing" textLength="53" x="389" y="540.645">Success</text><line style="stroke:#181818;stroke-width:1.0;" x1="372" x2="414" y1="601.6328" y2="601.6328"/><line style="stroke:#181818;stroke-width:1.0;" x1="414" x2="414" y1="601.6328" y2="614.6328"/><line style="stroke:#181818;stroke-width:1.0;" x1="373" x2="414" y1="614.6328" y2="614.6328"/><polygon fill="#181818" points="383,610.6328,373,614.6328,383,618.6328,379,614.6328" style="stroke:#181818;stroke-width:1.0;"/><text fill="#000000" font-family="sans-serif" font-size="13" lengthAdjust="spacing" textLength="181" x="379" y="576.7778">Calculate auxSMsteBalance:</text><text fill="#000000" font-family="sans-serif" font-size="17" font-weight="bold" lengthAdjust="spacing" textLength="377" x="379" y="595.6235">previous totalStaked - amountOfStaking</text><line style="stroke:#181818;stroke-width:1.0;" x1="372" x2="414" y1="704.2969" y2="704.2969"/><line style="stroke:#181818;stroke-width:1.0;" x1="414" x2="414" y1="704.2969" y2="717.2969"/><line style="stroke:#181818;stroke-width:1.0;" x1="373" x2="414" y1="717.2969" y2="717.2969"/><polygon fill="#181818" points="383,713.2969,373,717.2969,383,721.2969,379,717.2969" style="stroke:#181818;stroke-width:1.0;"/><text fill="#000000" font-family="sans-serif" font-size="13" lengthAdjust="spacing" textLength="81" x="379" y="638.6997">makeCaPay(</text><text fill="#000000" font-family="sans-serif" font-size="13" lengthAdjust="spacing" textLength="189" x="387" y="653.8325">PRINCIPAL_TOKEN_ADDRESS,</text><text fill="#000000" font-family="sans-serif" font-size="13" lengthAdjust="spacing" textLength="111" x="387" y="668.9653">account.Address,</text><text fill="#000000" font-family="sans-serif" font-size="13" lengthAdjust="spacing" textLength="250" x="387" y="684.0981">PRICE_OF_STAKING * amountOfStaking</text><text fill="#000000" font-family="sans-serif" font-size="13" lengthAdjust="spacing" textLength="5" x="379" y="699.231">)</text><polygon fill="#181818" points="884,742.4297,894,746.4297,884,750.4297,888,746.4297" style="stroke:#181818;stroke-width:1.0;"/><line style="stroke:#181818;stroke-width:1.0;" x1="372" x2="890" y1="746.4297" y2="746.4297"/><text fill="#000000" font-family="sans-serif" font-size="13" lengthAdjust="spacing" textLength="60" x="379" y="741.3638">caPay(&#183;&#183;&#183;)</text><line style="stroke:#181818;stroke-width:1.0;" x1="906" x2="948" y1="775.5625" y2="775.5625"/><line style="stroke:#181818;stroke-width:1.0;" x1="948" x2="948" y1="775.5625" y2="788.5625"/><line style="stroke:#181818;stroke-width:1.0;" x1="907" x2="948" y1="788.5625" y2="788.5625"/><polygon fill="#181818" points="917,784.5625,907,788.5625,917,792.5625,913,788.5625" style="stroke:#181818;stroke-width:1.0;"/><text fill="#000000" font-family="sans-serif" font-size="13" lengthAdjust="spacing" textLength="146" x="913" y="770.4966">Transfer refund to user</text><polygon fill="#181818" points="383,813.6953,373,817.6953,383,821.6953,379,817.6953" style="stroke:#181818;stroke-width:1.0;"/><line style="stroke:#181818;stroke-width:1.0;stroke-dasharray:2.0,2.0;" x1="377" x2="900" y1="817.6953" y2="817.6953"/><text fill="#000000" font-family="sans-serif" font-size="13" lengthAdjust="spacing" textLength="53" x="389" y="812.6294">Success</text><line style="stroke:#181818;stroke-width:1.0;" x1="372" x2="414" y1="922.4922" y2="922.4922"/><line style="stroke:#181818;stroke-width:1.0;" x1="414" x2="414" y1="922.4922" y2="935.4922"/><line style="stroke:#181818;stroke-width:1.0;" x1="373" x2="414" y1="935.4922" y2="935.4922"/><polygon fill="#181818" points="383,931.4922,373,935.4922,383,939.4922,379,935.4922" style="stroke:#181818;stroke-width:1.0;"/><text fill="#000000" font-family="sans-serif" font-size="13" lengthAdjust="spacing" textLength="128" x="379" y="841.7622">Update userHistory:</text><text fill="#000000" font-family="sans-serif" font-size="13" lengthAdjust="spacing" textLength="149" x="379" y="856.895">push HistoryMetadata{</text><text fill="#000000" font-family="sans-serif" font-size="13" lengthAdjust="spacing" textLength="127" x="387" y="872.0278">type=2 (unstaking),</text><text fill="#000000" font-family="sans-serif" font-size="13" lengthAdjust="spacing" textLength="132" x="387" y="887.1606">amount, timestamp,</text><text fill="#000000" font-family="sans-serif" font-size="13" lengthAdjust="spacing" textLength="199" x="387" y="902.2935">totalStaked=auxSMsteBalance</text><text fill="#000000" font-family="sans-serif" font-size="13" lengthAdjust="spacing" textLength="8" x="379" y="917.4263">}</text><path d="M279.5,950.4922 L343.5,950.4922 L343.5,957.625 L333.5,967.625 L279.5,967.625 L279.5,950.4922 " fill="#EEEEEE" style="stroke:#000000;stroke-width:1.5;"/><rect fill="none" height="123.5313" style="stroke:#000000;stroke-width:1.5;" width="779.5" x="279.5" y="950.4922"/><text fill="#000000" font-family="sans-serif" font-size="13" font-weight="bold" lengthAdjust="spacing" textLength="19" x="294.5" y="963.5591">alt</text><text fill="#000000" font-family="sans-serif" font-size="11" font-weight="bold" lengthAdjust="spacing" textLength="297" x="358.5" y="962.7026">[msg.sender is staker &amp;&amp; !account.IsAService]</text><line style="stroke:#181818;stroke-width:1.0;" x1="372" x2="414" y1="988.7578" y2="988.7578"/><line style="stroke:#181818;stroke-width:1.0;" x1="414" x2="414" y1="988.7578" y2="1001.7578"/><line style="stroke:#181818;stroke-width:1.0;" x1="373" x2="414" y1="1001.7578" y2="1001.7578"/><polygon fill="#181818" points="383,997.7578,373,1001.7578,383,1005.7578,379,1001.7578" style="stroke:#181818;stroke-width:1.0;"/><text fill="#000000" font-family="sans-serif" font-size="13" lengthAdjust="spacing" textLength="98" x="379" y="983.6919">makeCaPay(&#183;&#183;&#183;)</text><polygon fill="#181818" points="884,1026.8906,894,1030.8906,884,1034.8906,888,1030.8906" style="stroke:#181818;stroke-width:1.0;"/><line style="stroke:#181818;stroke-width:1.0;" x1="372" x2="890" y1="1030.8906" y2="1030.8906"/><text fill="#000000" font-family="sans-serif" font-size="13" lengthAdjust="spacing" textLength="60" x="379" y="1025.8247">caPay(&#183;&#183;&#183;)</text><polygon fill="#181818" points="383,1059.0234,373,1063.0234,383,1067.0234,379,1063.0234" style="stroke:#181818;stroke-width:1.0;"/><line style="stroke:#181818;stroke-width:1.0;stroke-dasharray:2.0,2.0;" x1="377" x2="900" y1="1063.0234" y2="1063.0234"/><text fill="#000000" font-family="sans-serif" font-size="13" lengthAdjust="spacing" textLength="53" x="389" y="1057.9575">Success</text><path d="M911,1043.8906 L911,1068.8906 L1044,1068.8906 L1044,1053.8906 L1034,1043.8906 L911,1043.8906 " fill="#FEFFDD" style="stroke:#181818;stroke-width:0.5;"/><path d="M1034,1043.8906 L1034,1053.8906 L1044,1053.8906 L1034,1043.8906 " fill="#FEFFDD" style="stroke:#181818;stroke-width:0.5;"/><text fill="#000000" font-family="sans-serif" font-size="13" lengthAdjust="spacing" textLength="112" x="917" y="1060.9575">DOUBLE REWARD</text><polygon fill="#181818" points="82,1098.1563,72,1102.1563,82,1106.1563,78,1102.1563" style="stroke:#181818;stroke-width:1.0;"/><line style="stroke:#181818;stroke-width:1.0;stroke-dasharray:2.0,2.0;" x1="76" x2="366" y1="1102.1563" y2="1102.1563"/><text fill="#000000" font-family="sans-serif" font-size="13" lengthAdjust="spacing" textLength="136" x="88" y="1097.0903">Unstaking completed</text><!--SRC=[hLLTQzim57tthxXROIGZxRo-348pSFEnXRL9oCV6851K-IOHbINFajE5qT-rz_soNTbkOZiPOp3o42HTdNlFkUVALyRk9BxtGitJ29M57nx0DUCF7nATgh2hfKxWSICiUa_UrPiYshF2IWHZsODGwsjcS99eZiOqcd0E2rKSm43gnwLgV6Hnl8C9iniwdQNSHQvIUGXiUbxC4YkuY1dLy7AjPOXgbX- -MQeuGSCabZRIUoduOMqmsGgEUy2Nm0nm9YKcLUJZahFGUrh3sM3GU-VxrGlzpvzlin3SRYCuy_r-_zBtFCQjs3ABpqcy_1_Et-TOxLFYB1L0m3a9Qs_Hif1PzYC8Go9dMZ0qmIndyTHoWS8Kz3eh9WrcUonoTyUhugG5ZLy_tQ-vLCrIJHKs7fCMph8MmY2L4j9zUnev7dGwi4Qx8163RCF1OzWa9q2ETM3LtI1_02iY1AdvGtkfwEQSbdFjxY-KstLfzgrmXmsMixues3RXgWFtBlJ2GL5a56VPbAOg4x7UMCfr-VQy5to5QNysdmwxy-5uHEbg51BybWg2NAf79gpRYJ4HEipGAWIo_hKXrg8WcDIhQe7_tVTpsdijAsrt9zd60M-AaTxceq3jfp-RcYmkn0g6Xz8r9U_3n3cCbNWSan_fWygmqWbv_kWIgh3ItfYO9yBk1eZmeWC-l7e5Bvv97lnrggyHbJzXksS_7TSpdhW613VKWacH1bQK9sOxzsxyMUyQwD-4FPHKF1IdnNJCwzPaagVIXR3q- -pMMBncaYcEL7A7jC6jqAa1gosJkSFfDQfDr16eqwNBd39k_YRJuQWxd0GtT_Fnf_xeBkZro9spV3PhPYhYk_sxyU1kDWy-3KSVu7KzOJQuDSauAtVYj60r5yuJfioA39ZWYfvj8WafZQFt9qthUjPfB-BGdJcCZy9OdUpQxj4r6oYM-_VBqRIx63kNqDWxirbwhLgm7_5ijwH_fzQefNgg-3aowmj3hIPUmZoFsBzvkilghZvbKduKzNzikizN6QNUU75zqwTtxKimxPMjJA35PwHT-eXo7SKIBL9O2T_TAA-Bxz1l]--></g></svg>