<?xml version="1.0" encoding="us-ascii" standalone="no"?><svg xmlns="http://www.w3.org/2000/svg" xmlns:xlink="http://www.w3.org/1999/xlink" contentStyleType="text/css" height="1086px" preserveAspectRatio="none" style="width:1046px;height:1086px;background:#FFFFFF;" version="1.1" viewBox="0 0 1046 1086" width="1046px" zoomAndPan="magnify"><defs/><g><text fill="#000000" font-family="sans-serif" font-size="14" font-weight="bold" lengthAdjust="spacing" textLength="287" x="383.25" y="27.9951">stakingBaseProcess() - Staking Flow</text><text fill="#000000" font-family="sans-serif" font-size="14" font-weight="bold" lengthAdjust="spacing" textLength="266" x="393.75" y="44.292">(Happy Path - Successful Staking)</text><rect fill="#FFFFFF" height="868.5703" style="stroke:#181818;stroke-width:1.0;" width="10" x="60.5" y="132.4844"/><rect fill="#FFD700" height="786.9063" style="stroke:#181818;stroke-width:1.0;" width="10" x="356.5" y="214.1484"/><rect fill="#00EE20" height="86.3984" style="stroke:#181818;stroke-width:1.0;" width="10" x="853.5" y="435.4766"/><rect fill="#00EE20" height="35.1328" style="stroke:#181818;stroke-width:1.0;" width="10" x="853.5" y="558.0078"/><rect fill="#00EE20" height="29.1328" style="stroke:#181818;stroke-width:1.0;" width="10" x="853.5" y="935.7891"/><rect fill="#FFFFFF" height="235.3281" style="stroke:#000000;stroke-width:1.5;" width="766.5" x="274" y="294.5469"/><rect fill="#FFFFFF" height="178.0625" style="stroke:#000000;stroke-width:1.5;" width="621" x="274" y="794.8594"/><line style="stroke:#181818;stroke-width:0.5;stroke-dasharray:5.0,5.0;" x1="65" x2="65" y1="122.4844" y2="1019.0547"/><line style="stroke:#181818;stroke-width:0.5;stroke-dasharray:5.0,5.0;" x1="361" x2="361" y1="122.4844" y2="1019.0547"/><line style="stroke:#181818;stroke-width:0.5;stroke-dasharray:5.0,5.0;" x1="858" x2="858" y1="122.4844" y2="1019.0547"/><rect fill="#E2E2F0" height="62.8906" rx="2.5" ry="2.5" style="stroke:#181818;stroke-width:0.5;" width="121" x="5" y="58.5938"/><text fill="#000000" font-family="sans-serif" font-size="14" lengthAdjust="spacing" textLength="104" x="13.5" y="78.5889">goldenStaking/</text><text fill="#000000" font-family="sans-serif" font-size="14" lengthAdjust="spacing" textLength="107" x="12" y="94.8857">presaleStaking/</text><text fill="#000000" font-family="sans-serif" font-size="14" lengthAdjust="spacing" textLength="92" x="19.5" y="111.1826">publicStaking</text><rect fill="#E2E2F0" height="62.8906" rx="2.5" ry="2.5" style="stroke:#181818;stroke-width:0.5;" width="121" x="5" y="1018.0547"/><text fill="#000000" font-family="sans-serif" font-size="14" lengthAdjust="spacing" textLength="104" x="13.5" y="1038.0498">goldenStaking/</text><text fill="#000000" font-family="sans-serif" font-size="14" lengthAdjust="spacing" textLength="107" x="12" y="1054.3467">presaleStaking/</text><text fill="#000000" font-family="sans-serif" font-size="14" lengthAdjust="spacing" textLength="92" x="19.5" y="1070.6436">publicStaking</text><rect fill="#FFD700" height="30.2969" rx="2.5" ry="2.5" style="stroke:#181818;stroke-width:0.5;" width="155" x="284" y="91.1875"/><text fill="#000000" font-family="sans-serif" font-size="14" lengthAdjust="spacing" textLength="141" x="291" y="111.1826">stakingBaseProcess</text><rect fill="#FFD700" height="30.2969" rx="2.5" ry="2.5" style="stroke:#181818;stroke-width:0.5;" width="155" x="284" y="1018.0547"/><text fill="#000000" font-family="sans-serif" font-size="14" lengthAdjust="spacing" textLength="141" x="291" y="1038.0498">stakingBaseProcess</text><rect fill="#00EE20" height="30.2969" rx="2.5" ry="2.5" style="stroke:#181818;stroke-width:0.5;" width="53" x="832" y="91.1875"/><text fill="#000000" font-family="sans-serif" font-size="14" lengthAdjust="spacing" textLength="39" x="839" y="111.1826">EVVM</text><rect fill="#00EE20" height="30.2969" rx="2.5" ry="2.5" style="stroke:#181818;stroke-width:0.5;" width="53" x="832" y="1018.0547"/><text fill="#000000" font-family="sans-serif" font-size="14" lengthAdjust="spacing" textLength="39" x="839" y="1038.0498">EVVM</text><rect fill="#FFFFFF" height="868.5703" style="stroke:#181818;stroke-width:1.0;" width="10" x="60.5" y="132.4844"/><rect fill="#FFD700" height="786.9063" style="stroke:#181818;stroke-width:1.0;" width="10" x="356.5" y="214.1484"/><rect fill="#00EE20" height="86.3984" style="stroke:#181818;stroke-width:1.0;" width="10" x="853.5" y="435.4766"/><rect fill="#00EE20" height="35.1328" style="stroke:#181818;stroke-width:1.0;" width="10" x="853.5" y="558.0078"/><rect fill="#00EE20" height="29.1328" style="stroke:#181818;stroke-width:1.0;" width="10" x="853.5" y="935.7891"/><polygon fill="#181818" points="344.5,210.1484,354.5,214.1484,344.5,218.1484,348.5,214.1484" style="stroke:#181818;stroke-width:1.0;"/><line style="stroke:#181818;stroke-width:1.0;" x1="70.5" x2="350.5" y1="214.1484" y2="214.1484"/><text fill="#000000" font-family="sans-serif" font-size="13" lengthAdjust="spacing" textLength="133" x="77.5" y="148.5513">stakingBaseProcess(</text><text fill="#000000" font-family="sans-serif" font-size="13" lengthAdjust="spacing" textLength="259" x="85.5" y="163.6841">AccountMetadata{Address, IsAService},</text><text fill="#000000" font-family="sans-serif" font-size="13" lengthAdjust="spacing" textLength="99" x="85.5" y="178.8169">isStaking=true,</text><text fill="#000000" font-family="sans-serif" font-size="13" lengthAdjust="spacing" textLength="142" x="85.5" y="193.9497">amountOfStaking, (&#183;&#183;&#183;)</text><text fill="#000000" font-family="sans-serif" font-size="13" lengthAdjust="spacing" textLength="5" x="77.5" y="209.0825">)</text><line style="stroke:#181818;stroke-width:1.0;" x1="366.5" x2="408.5" y1="262.4805" y2="262.4805"/><line style="stroke:#181818;stroke-width:1.0;" x1="408.5" x2="408.5" y1="262.4805" y2="275.4805"/><line style="stroke:#181818;stroke-width:1.0;" x1="367.5" x2="408.5" y1="275.4805" y2="275.4805"/><polygon fill="#181818" points="377.5,271.4805,367.5,275.4805,377.5,279.4805,373.5,275.4805" style="stroke:#181818;stroke-width:1.0;"/><text fill="#000000" font-family="sans-serif" font-size="13" lengthAdjust="spacing" textLength="105" x="373.5" y="242.2817">Check time lock:</text><text fill="#000000" font-family="sans-serif" font-size="13" lengthAdjust="spacing" textLength="473" x="373.5" y="257.4146">getTimeToUserUnlockStakingTime(account.Address) &lt;= block.timestamp</text><path d="M858,227.1484 L858,282.1484 L1039,282.1484 L1039,237.1484 L1029,227.1484 L858,227.1484 " fill="#FEFFDD" style="stroke:#181818;stroke-width:0.5;"/><path d="M1029,227.1484 L1029,237.1484 L1039,237.1484 L1029,227.1484 " fill="#FEFFDD" style="stroke:#181818;stroke-width:0.5;"/><text fill="#000000" font-family="sans-serif" font-size="13" lengthAdjust="spacing" textLength="91" x="864" y="244.2153">ANTI-GAMING:</text><text fill="#000000" font-family="sans-serif" font-size="13" lengthAdjust="spacing" textLength="160" x="864" y="259.3481">Must wait after unstaking</text><text fill="#000000" font-family="sans-serif" font-size="13" lengthAdjust="spacing" textLength="130" x="864" y="274.481">before staking again</text><path d="M274,294.5469 L338,294.5469 L338,301.6797 L328,311.6797 L274,311.6797 L274,294.5469 " fill="#EEEEEE" style="stroke:#000000;stroke-width:1.5;"/><rect fill="none" height="235.3281" style="stroke:#000000;stroke-width:1.5;" width="766.5" x="274" y="294.5469"/><text fill="#000000" font-family="sans-serif" font-size="13" font-weight="bold" lengthAdjust="spacing" textLength="19" x="289" y="307.6138">alt</text><text fill="#000000" font-family="sans-serif" font-size="11" font-weight="bold" lengthAdjust="spacing" textLength="136" x="353" y="306.7573">[!account.IsAService]</text><line style="stroke:#181818;stroke-width:1.0;" x1="366.5" x2="408.5" y1="393.3438" y2="393.3438"/><line style="stroke:#181818;stroke-width:1.0;" x1="408.5" x2="408.5" y1="393.3438" y2="406.3438"/><line style="stroke:#181818;stroke-width:1.0;" x1="367.5" x2="408.5" y1="406.3438" y2="406.3438"/><polygon fill="#181818" points="377.5,402.3438,367.5,406.3438,377.5,410.3438,373.5,406.3438" style="stroke:#181818;stroke-width:1.0;"/><text fill="#000000" font-family="sans-serif" font-size="13" lengthAdjust="spacing" textLength="64" x="373.5" y="327.7466">makePay(</text><text fill="#000000" font-family="sans-serif" font-size="13" lengthAdjust="spacing" textLength="111" x="397.5" y="342.8794">account.Address,</text><text fill="#000000" font-family="sans-serif" font-size="13" lengthAdjust="spacing" textLength="254" x="397.5" y="358.0122">PRICE_OF_STAKING * amountOfStaking,</text><text fill="#000000" font-family="sans-serif" font-size="13" lengthAdjust="spacing" textLength="22" x="397.5" y="373.145">(&#183;&#183;&#183;)</text><text fill="#000000" font-family="sans-serif" font-size="13" lengthAdjust="spacing" textLength="5" x="389.5" y="388.2778">)</text><path d="M663,335.3125 L663,390.3125 L816,390.3125 L816,345.3125 L806,335.3125 L663,335.3125 " fill="#FEFFDD" style="stroke:#181818;stroke-width:0.5;"/><path d="M806,335.3125 L806,345.3125 L816,345.3125 L806,335.3125 " fill="#FEFFDD" style="stroke:#181818;stroke-width:0.5;"/><text fill="#000000" font-family="sans-serif" font-size="13" lengthAdjust="spacing" textLength="64" x="669" y="352.3794">PAYMENT:</text><text fill="#000000" font-family="sans-serif" font-size="13" lengthAdjust="spacing" textLength="117" x="669" y="367.5122">Services don't pay</text><text fill="#000000" font-family="sans-serif" font-size="13" lengthAdjust="spacing" textLength="132" x="669" y="382.645">(handled separately)</text><polygon fill="#181818" points="841.5,431.4766,851.5,435.4766,841.5,439.4766,845.5,435.4766" style="stroke:#181818;stroke-width:1.0;"/><line style="stroke:#181818;stroke-width:1.0;" x1="366.5" x2="847.5" y1="435.4766" y2="435.4766"/><text fill="#000000" font-family="sans-serif" font-size="13" lengthAdjust="spacing" textLength="45" x="373.5" y="430.4106">pay(&#183;&#183;&#183;)</text><line style="stroke:#181818;stroke-width:1.0;" x1="863.5" x2="905.5" y1="479.7422" y2="479.7422"/><line style="stroke:#181818;stroke-width:1.0;" x1="905.5" x2="905.5" y1="479.7422" y2="492.7422"/><line style="stroke:#181818;stroke-width:1.0;" x1="864.5" x2="905.5" y1="492.7422" y2="492.7422"/><polygon fill="#181818" points="874.5,488.7422,864.5,492.7422,874.5,496.7422,870.5,492.7422" style="stroke:#181818;stroke-width:1.0;"/><text fill="#000000" font-family="sans-serif" font-size="13" lengthAdjust="spacing" textLength="158" x="870.5" y="459.5435">Verify signature &amp; nonce</text><text fill="#000000" font-family="sans-serif" font-size="13" lengthAdjust="spacing" textLength="99" x="870.5" y="474.6763">Transfer tokens</text><polygon fill="#181818" points="377.5,517.875,367.5,521.875,377.5,525.875,373.5,521.875" style="stroke:#181818;stroke-width:1.0;"/><line style="stroke:#181818;stroke-width:1.0;stroke-dasharray:2.0,2.0;" x1="371.5" x2="857.5" y1="521.875" y2="521.875"/><text fill="#000000" font-family="sans-serif" font-size="13" lengthAdjust="spacing" textLength="53" x="383.5" y="516.8091">Success</text><polygon fill="#181818" points="841.5,554.0078,851.5,558.0078,841.5,562.0078,845.5,558.0078" style="stroke:#181818;stroke-width:1.0;"/><line style="stroke:#181818;stroke-width:1.0;" x1="366.5" x2="847.5" y1="558.0078" y2="558.0078"/><text fill="#000000" font-family="sans-serif" font-size="13" lengthAdjust="spacing" textLength="230" x="373.5" y="552.9419">pointStaker(account.Address, 0x01)</text><line style="stroke:#181818;stroke-width:1.0;" x1="863.5" x2="905.5" y1="592.1406" y2="592.1406"/><line style="stroke:#181818;stroke-width:1.0;" x1="905.5" x2="905.5" y1="592.1406" y2="605.1406"/><line style="stroke:#181818;stroke-width:1.0;" x1="858.5" x2="905.5" y1="605.1406" y2="605.1406"/><polygon fill="#181818" points="868.5,601.1406,858.5,605.1406,868.5,609.1406,864.5,605.1406" style="stroke:#181818;stroke-width:1.0;"/><text fill="#000000" font-family="sans-serif" font-size="13" lengthAdjust="spacing" textLength="124" x="870.5" y="587.0747">Grant staker status</text><line style="stroke:#181818;stroke-width:1.0;" x1="366.5" x2="408.5" y1="649.0625" y2="649.0625"/><line style="stroke:#181818;stroke-width:1.0;" x1="408.5" x2="408.5" y1="649.0625" y2="662.0625"/><line style="stroke:#181818;stroke-width:1.0;" x1="367.5" x2="408.5" y1="662.0625" y2="662.0625"/><polygon fill="#181818" points="377.5,658.0625,367.5,662.0625,377.5,666.0625,373.5,662.0625" style="stroke:#181818;stroke-width:1.0;"/><text fill="#000000" font-family="sans-serif" font-size="13" lengthAdjust="spacing" textLength="181" x="373.5" y="624.2075">Calculate auxSMsteBalance:</text><text fill="#000000" font-family="sans-serif" font-size="17" font-weight="bold" lengthAdjust="spacing" textLength="384" x="373.5" y="643.0532">previous totalStaked + amountOfStaking</text><line style="stroke:#181818;stroke-width:1.0;" x1="366.5" x2="408.5" y1="766.8594" y2="766.8594"/><line style="stroke:#181818;stroke-width:1.0;" x1="408.5" x2="408.5" y1="766.8594" y2="779.8594"/><line style="stroke:#181818;stroke-width:1.0;" x1="367.5" x2="408.5" y1="779.8594" y2="779.8594"/><polygon fill="#181818" points="377.5,775.8594,367.5,779.8594,377.5,783.8594,373.5,779.8594" style="stroke:#181818;stroke-width:1.0;"/><text fill="#000000" font-family="sans-serif" font-size="13" lengthAdjust="spacing" textLength="128" x="373.5" y="686.1294">Update userHistory:</text><text fill="#000000" font-family="sans-serif" font-size="13" lengthAdjust="spacing" textLength="149" x="373.5" y="701.2622">push HistoryMetadata{</text><text fill="#000000" font-family="sans-serif" font-size="13" lengthAdjust="spacing" textLength="111" x="381.5" y="716.395">type=1 (staking),</text><text fill="#000000" font-family="sans-serif" font-size="13" lengthAdjust="spacing" textLength="132" x="381.5" y="731.5278">amount, timestamp,</text><text fill="#000000" font-family="sans-serif" font-size="13" lengthAdjust="spacing" textLength="199" x="381.5" y="746.6606">totalStaked=auxSMsteBalance</text><text fill="#000000" font-family="sans-serif" font-size="13" lengthAdjust="spacing" textLength="8" x="373.5" y="761.7935">}</text><path d="M274,794.8594 L338,794.8594 L338,801.9922 L328,811.9922 L274,811.9922 L274,794.8594 " fill="#EEEEEE" style="stroke:#000000;stroke-width:1.5;"/><rect fill="none" height="178.0625" style="stroke:#000000;stroke-width:1.5;" width="621" x="274" y="794.8594"/><text fill="#000000" font-family="sans-serif" font-size="13" font-weight="bold" lengthAdjust="spacing" textLength="19" x="289" y="807.9263">alt</text><text fill="#000000" font-family="sans-serif" font-size="11" font-weight="bold" lengthAdjust="spacing" textLength="297" x="353" y="807.0698">[msg.sender is staker &amp;&amp; !account.IsAService]</text><line style="stroke:#181818;stroke-width:1.0;" x1="366.5" x2="408.5" y1="893.6563" y2="893.6563"/><line style="stroke:#181818;stroke-width:1.0;" x1="408.5" x2="408.5" y1="893.6563" y2="906.6563"/><line style="stroke:#181818;stroke-width:1.0;" x1="367.5" x2="408.5" y1="906.6563" y2="906.6563"/><polygon fill="#181818" points="377.5,902.6563,367.5,906.6563,377.5,910.6563,373.5,906.6563" style="stroke:#181818;stroke-width:1.0;"/><text fill="#000000" font-family="sans-serif" font-size="13" lengthAdjust="spacing" textLength="81" x="373.5" y="828.0591">makeCaPay(</text><text fill="#000000" font-family="sans-serif" font-size="13" lengthAdjust="spacing" textLength="189" x="397.5" y="843.1919">PRINCIPAL_TOKEN_ADDRESS,</text><text fill="#000000" font-family="sans-serif" font-size="13" lengthAdjust="spacing" textLength="80" x="397.5" y="858.3247">msg.sender,</text><text fill="#000000" font-family="sans-serif" font-size="13" lengthAdjust="spacing" textLength="213" x="397.5" y="873.4575">(rewardAmount * 2) + priorityFee</text><text fill="#000000" font-family="sans-serif" font-size="13" lengthAdjust="spacing" textLength="5" x="389.5" y="888.5903">)</text><path d="M622,835.625 L622,890.625 L797,890.625 L797,845.625 L787,835.625 L622,835.625 " fill="#FEFFDD" style="stroke:#181818;stroke-width:0.5;"/><path d="M787,835.625 L787,845.625 L797,845.625 L787,835.625 " fill="#FEFFDD" style="stroke:#181818;stroke-width:0.5;"/><text fill="#000000" font-family="sans-serif" font-size="13" lengthAdjust="spacing" textLength="116" x="628" y="852.6919">DOUBLE REWARD:</text><text fill="#000000" font-family="sans-serif" font-size="13" lengthAdjust="spacing" textLength="154" x="628" y="867.8247">Stakers who help others</text><text fill="#000000" font-family="sans-serif" font-size="13" lengthAdjust="spacing" textLength="102" x="628" y="882.9575">earn 2x rewards</text><polygon fill="#181818" points="841.5,931.7891,851.5,935.7891,841.5,939.7891,845.5,935.7891" style="stroke:#181818;stroke-width:1.0;"/><line style="stroke:#181818;stroke-width:1.0;" x1="366.5" x2="847.5" y1="935.7891" y2="935.7891"/><text fill="#000000" font-family="sans-serif" font-size="13" lengthAdjust="spacing" textLength="60" x="373.5" y="930.7231">caPay(&#183;&#183;&#183;)</text><polygon fill="#181818" points="377.5,960.9219,367.5,964.9219,377.5,968.9219,373.5,964.9219" style="stroke:#181818;stroke-width:1.0;"/><line style="stroke:#181818;stroke-width:1.0;stroke-dasharray:2.0,2.0;" x1="371.5" x2="857.5" y1="964.9219" y2="964.9219"/><text fill="#000000" font-family="sans-serif" font-size="13" lengthAdjust="spacing" textLength="53" x="383.5" y="959.856">Success</text><polygon fill="#181818" points="76.5,997.0547,66.5,1001.0547,76.5,1005.0547,72.5,1001.0547" style="stroke:#181818;stroke-width:1.0;"/><line style="stroke:#181818;stroke-width:1.0;stroke-dasharray:2.0,2.0;" x1="70.5" x2="360.5" y1="1001.0547" y2="1001.0547"/><text fill="#000000" font-family="sans-serif" font-size="13" lengthAdjust="spacing" textLength="120" x="82.5" y="995.9888">Staking completed</text><!--SRC=[bLNRRjf047ttLqmJASKjIMbUAg5GoG6JeXQ20abLoL8qMG-mOjcrTjSaLfNlwdk_hBl6N9C-11wicPtBcUCpwmjZ2q5VWrInV47Imky0u1BP_4ghNAPj9PI6nnct53m75v-gwC1oAmYCnJcNqqiqDDIAaJ6r44vXj793LwZ7HDQ-OPOLC4GxysSvyt6JNAp3mY38K5lEU8Qk_z5KYPHaTVWfaPacWu9s7Fc3uAooZm0DC1I2z7wPbzZAq0Tdmt6ts_dIQEmdn7Tt_JA4bii573SQSNpU209abY_Hqhf9i7h2wTTLhUPhB2GI86BCCMZxP355Yx-ZD7MJc3hqJ3GYlUICdki-a9jgbfRLEPKkNFZKwqbrK8VQtp_-7oOot86qDqnGMbjOxHcnELY-812ApPk9d98TEtEiRWtfM-czLGFlhk4Ay5a5D8IB5Zpue3DVn4svo0AfN5lDfpFhEaI3SU_qAkht1bUkUZyt5XwHMy29TGJbiY8caGyqKNeZ5y0fSkd641QEIsd1ktNlBJTEXW078ormJaCiIdhzxm1nVUqVtlJQyVrrztuqZhuxTF3X1QFhq2sntWhBhdj33gDV_NWmTWDMm0oaIhwta67Xn3r3cGfAmP0JatidebZLs8DVAghfCzRjWXNywZtkASwVb8vjuXrfFYd0yAb4cpicJnn6oIYHOutIJ1pRLir9cftaBMlLofLdAUqr3KYcM-6iOIekhUU9zA4cwj1uQdmEWzUH7w2-qdwlJ5d8FsnkWiF-BqIBWkN27sF-DEeRIvSeq8tg-6-1kmgMNEN6JMjHb11J-7ZuRbyKlSrINp5tgl_6ZLMwQFfRnCoWCZSxwbLWYunQdw5MgJNSMSWwR3QXzEx0Q1tWJUJpdi8NPdfc7DkE2cxMf9oSl4NvRTpLljFueDqRHZ_knzVVuy5zrEdSnAFHHjZRXbkjQtf4dKRbB6udpaD7NgQvqjmMNQB_xa3d-lRoHmmtyS_efkCteOHlt7T1mOn41ihEd9r8GYtX_0bMZSn_Du6Lexnb5zuiPvTGtTJDpGU9gKKco98BsidqyRjsTT7_0m00]--></g></svg>