<?xml version="1.0" encoding="us-ascii" standalone="no"?><svg xmlns="http://www.w3.org/2000/svg" xmlns:xlink="http://www.w3.org/1999/xlink" contentStyleType="text/css" height="1091px" preserveAspectRatio="none" style="width:724px;height:1091px;background:#FFFFFF;" version="1.1" viewBox="0 0 724 1091" width="724px" zoomAndPan="magnify"><defs/><g><text fill="#000000" font-family="sans-serif" font-size="14" font-weight="bold" lengthAdjust="spacing" textLength="287" x="219.5" y="27.9951">stakingBaseProcess() - Staking Flow</text><text fill="#000000" font-family="sans-serif" font-size="14" font-weight="bold" lengthAdjust="spacing" textLength="226" x="250" y="44.292">(Failed Path - Staking Errors)</text><rect fill="#FFD700" height="785.7344" style="stroke:#181818;stroke-width:1.0;" width="10" x="396.5" y="199.0156"/><rect fill="#00EE20" height="177.7344" style="stroke:#181818;stroke-width:1.0;" width="10" x="655.5" y="440.8828"/><rect fill="#00EE20" height="30" style="stroke:#181818;stroke-width:1.0;" width="10" x="655.5" y="661.75"/><rect fill="#00EE20" height="126.3359" style="stroke:#181818;stroke-width:1.0;" width="10" x="655.5" y="829.2813"/><rect fill="#F5B7B1" height="750.6016" style="stroke:#000000;stroke-width:1.5;" width="707" x="10" y="256.1484"/><rect fill="#FFFFFF" height="668.0703" style="stroke:none;stroke-width:1.0;" width="707" x="10" y="338.6797"/><rect fill="#FFFFFF" height="273.1328" style="stroke:#000000;stroke-width:1.5;" width="687" x="20" y="360.4844"/><rect fill="#F5B7B1" height="170.7344" style="stroke:#000000;stroke-width:1.5;" width="667" x="30" y="455.8828"/><rect fill="#FFFFFF" height="43.9375" style="stroke:none;stroke-width:1.0;" width="667" x="30" y="582.6797"/><rect fill="#FFFFFF" height="250.8672" style="stroke:#000000;stroke-width:1.5;" width="687" x="20" y="748.8828"/><rect fill="#F5B7B1" height="148.4688" style="stroke:#000000;stroke-width:1.5;" width="667" x="30" y="844.2813"/><rect fill="#FFFFFF" height="73.0703" style="stroke:none;stroke-width:1.0;" width="667" x="30" y="919.6797"/><line style="stroke:#181818;stroke-width:0.5;stroke-dasharray:5.0,5.0;" x1="100" x2="100" y1="122.4844" y2="1023.75"/><line style="stroke:#181818;stroke-width:0.5;stroke-dasharray:5.0,5.0;" x1="401" x2="401" y1="122.4844" y2="1023.75"/><line style="stroke:#181818;stroke-width:0.5;stroke-dasharray:5.0,5.0;" x1="660" x2="660" y1="122.4844" y2="1023.75"/><rect fill="#E2E2F0" height="62.8906" rx="2.5" ry="2.5" style="stroke:#181818;stroke-width:0.5;" width="121" x="40" y="58.5938"/><text fill="#000000" font-family="sans-serif" font-size="14" lengthAdjust="spacing" textLength="104" x="48.5" y="78.5889">goldenStaking/</text><text fill="#000000" font-family="sans-serif" font-size="14" lengthAdjust="spacing" textLength="107" x="47" y="94.8857">presaleStaking/</text><text fill="#000000" font-family="sans-serif" font-size="14" lengthAdjust="spacing" textLength="92" x="54.5" y="111.1826">publicStaking</text><rect fill="#E2E2F0" height="62.8906" rx="2.5" ry="2.5" style="stroke:#181818;stroke-width:0.5;" width="121" x="40" y="1022.75"/><text fill="#000000" font-family="sans-serif" font-size="14" lengthAdjust="spacing" textLength="104" x="48.5" y="1042.7451">goldenStaking/</text><text fill="#000000" font-family="sans-serif" font-size="14" lengthAdjust="spacing" textLength="107" x="47" y="1059.042">presaleStaking/</text><text fill="#000000" font-family="sans-serif" font-size="14" lengthAdjust="spacing" textLength="92" x="54.5" y="1075.3389">publicStaking</text><rect fill="#FFD700" height="30.2969" rx="2.5" ry="2.5" style="stroke:#181818;stroke-width:0.5;" width="155" x="324" y="91.1875"/><text fill="#000000" font-family="sans-serif" font-size="14" lengthAdjust="spacing" textLength="141" x="331" y="111.1826">stakingBaseProcess</text><rect fill="#FFD700" height="30.2969" rx="2.5" ry="2.5" style="stroke:#181818;stroke-width:0.5;" width="155" x="324" y="1022.75"/><text fill="#000000" font-family="sans-serif" font-size="14" lengthAdjust="spacing" textLength="141" x="331" y="1042.7451">stakingBaseProcess</text><rect fill="#00EE20" height="30.2969" rx="2.5" ry="2.5" style="stroke:#181818;stroke-width:0.5;" width="53" x="634" y="91.1875"/><text fill="#000000" font-family="sans-serif" font-size="14" lengthAdjust="spacing" textLength="39" x="641" y="111.1826">EVVM</text><rect fill="#00EE20" height="30.2969" rx="2.5" ry="2.5" style="stroke:#181818;stroke-width:0.5;" width="53" x="634" y="1022.75"/><text fill="#000000" font-family="sans-serif" font-size="14" lengthAdjust="spacing" textLength="39" x="641" y="1042.7451">EVVM</text><rect fill="#FFD700" height="785.7344" style="stroke:#181818;stroke-width:1.0;" width="10" x="396.5" y="199.0156"/><rect fill="#00EE20" height="177.7344" style="stroke:#181818;stroke-width:1.0;" width="10" x="655.5" y="440.8828"/><rect fill="#00EE20" height="30" style="stroke:#181818;stroke-width:1.0;" width="10" x="655.5" y="661.75"/><rect fill="#00EE20" height="126.3359" style="stroke:#181818;stroke-width:1.0;" width="10" x="655.5" y="829.2813"/><polygon fill="#181818" points="384.5,195.0156,394.5,199.0156,384.5,203.0156,388.5,199.0156" style="stroke:#181818;stroke-width:1.0;"/><line style="stroke:#181818;stroke-width:1.0;" x1="100.5" x2="390.5" y1="199.0156" y2="199.0156"/><text fill="#000000" font-family="sans-serif" font-size="13" lengthAdjust="spacing" textLength="133" x="107.5" y="148.5513">stakingBaseProcess(</text><text fill="#000000" font-family="sans-serif" font-size="13" lengthAdjust="spacing" textLength="259" x="115.5" y="163.6841">AccountMetadata{Address, IsAService},</text><text fill="#000000" font-family="sans-serif" font-size="13" lengthAdjust="spacing" textLength="125" x="115.5" y="178.8169">isStaking=true, (&#183;&#183;&#183;)</text><text fill="#000000" font-family="sans-serif" font-size="13" lengthAdjust="spacing" textLength="5" x="107.5" y="193.9497">)</text><line style="stroke:#181818;stroke-width:1.0;" x1="406.5" x2="448.5" y1="228.1484" y2="228.1484"/><line style="stroke:#181818;stroke-width:1.0;" x1="448.5" x2="448.5" y1="228.1484" y2="241.1484"/><line style="stroke:#181818;stroke-width:1.0;" x1="407.5" x2="448.5" y1="241.1484" y2="241.1484"/><polygon fill="#181818" points="417.5,237.1484,407.5,241.1484,417.5,245.1484,413.5,241.1484" style="stroke:#181818;stroke-width:1.0;"/><text fill="#000000" font-family="sans-serif" font-size="13" lengthAdjust="spacing" textLength="101" x="413.5" y="223.0825">Check time lock</text><path d="M10,256.1484 L74,256.1484 L74,263.2813 L64,273.2813 L10,273.2813 L10,256.1484 " fill="#EEEEEE" style="stroke:#000000;stroke-width:1.5;"/><rect fill="none" height="750.6016" style="stroke:#000000;stroke-width:1.5;" width="707" x="10" y="256.1484"/><text fill="#000000" font-family="sans-serif" font-size="13" font-weight="bold" lengthAdjust="spacing" textLength="19" x="25" y="269.2153">alt</text><text fill="#000000" font-family="sans-serif" font-size="11" font-weight="bold" lengthAdjust="spacing" textLength="351" x="89" y="268.3589">[getTimeToUserUnlockStakingTime &gt; block.timestamp]</text><line style="stroke:#181818;stroke-width:2.0;" x1="107.5" x2="117.5" y1="307.5469" y2="317.5469"/><line style="stroke:#181818;stroke-width:2.0;" x1="107.5" x2="117.5" y1="317.5469" y2="307.5469"/><line style="stroke:#181818;stroke-width:1.0;" x1="112.5" x2="395.5" y1="312.5469" y2="312.5469"/><text fill="#000000" font-family="sans-serif" font-size="13" lengthAdjust="spacing" textLength="272" x="117.5" y="307.481">Revert with AddressMustWaitToStakeAgain</text><path d="M411,278.2813 L411,333.2813 L592,333.2813 L592,288.2813 L582,278.2813 L411,278.2813 " fill="#FEFFDD" style="stroke:#181818;stroke-width:0.5;"/><path d="M582,278.2813 L582,288.2813 L592,288.2813 L582,278.2813 " fill="#FEFFDD" style="stroke:#181818;stroke-width:0.5;"/><text fill="#000000" font-family="sans-serif" font-size="13" lengthAdjust="spacing" textLength="71" x="417" y="295.3481">TIME LOCK:</text><text fill="#000000" font-family="sans-serif" font-size="13" lengthAdjust="spacing" textLength="160" x="417" y="310.481">Must wait after unstaking</text><text fill="#000000" font-family="sans-serif" font-size="13" lengthAdjust="spacing" textLength="130" x="417" y="325.6138">before staking again</text><line style="stroke:#000000;stroke-width:1.0;stroke-dasharray:2.0,2.0;" x1="10" x2="717" y1="339.6797" y2="339.6797"/><text fill="#000000" font-family="sans-serif" font-size="11" font-weight="bold" lengthAdjust="spacing" textLength="121" x="15" y="349.8901">[Time lock passed]</text><path d="M20,360.4844 L84,360.4844 L84,367.6172 L74,377.6172 L20,377.6172 L20,360.4844 " fill="#EEEEEE" style="stroke:#000000;stroke-width:1.5;"/><rect fill="none" height="273.1328" style="stroke:#000000;stroke-width:1.5;" width="687" x="20" y="360.4844"/><text fill="#000000" font-family="sans-serif" font-size="13" font-weight="bold" lengthAdjust="spacing" textLength="19" x="35" y="373.5513">alt</text><text fill="#000000" font-family="sans-serif" font-size="11" font-weight="bold" lengthAdjust="spacing" textLength="136" x="99" y="372.6948">[!account.IsAService]</text><line style="stroke:#181818;stroke-width:1.0;" x1="406.5" x2="448.5" y1="398.75" y2="398.75"/><line style="stroke:#181818;stroke-width:1.0;" x1="448.5" x2="448.5" y1="398.75" y2="411.75"/><line style="stroke:#181818;stroke-width:1.0;" x1="407.5" x2="448.5" y1="411.75" y2="411.75"/><polygon fill="#181818" points="417.5,407.75,407.5,411.75,417.5,415.75,413.5,411.75" style="stroke:#181818;stroke-width:1.0;"/><text fill="#000000" font-family="sans-serif" font-size="13" lengthAdjust="spacing" textLength="81" x="413.5" y="393.6841">makePay(&#183;&#183;&#183;)</text><polygon fill="#181818" points="643.5,436.8828,653.5,440.8828,643.5,444.8828,647.5,440.8828" style="stroke:#181818;stroke-width:1.0;"/><line style="stroke:#181818;stroke-width:1.0;" x1="406.5" x2="649.5" y1="440.8828" y2="440.8828"/><text fill="#000000" font-family="sans-serif" font-size="13" lengthAdjust="spacing" textLength="45" x="413.5" y="435.8169">pay(&#183;&#183;&#183;)</text><path d="M30,455.8828 L94,455.8828 L94,463.0156 L84,473.0156 L30,473.0156 L30,455.8828 " fill="#EEEEEE" style="stroke:#000000;stroke-width:1.5;"/><rect fill="none" height="170.7344" style="stroke:#000000;stroke-width:1.5;" width="667" x="30" y="455.8828"/><text fill="#000000" font-family="sans-serif" font-size="13" font-weight="bold" lengthAdjust="spacing" textLength="19" x="45" y="468.9497">alt</text><text fill="#000000" font-family="sans-serif" font-size="11" font-weight="bold" lengthAdjust="spacing" textLength="97" x="109" y="468.0933">[Payment fails]</text><line style="stroke:#181818;stroke-width:2.0;" x1="413.5" x2="423.5" y1="489.1484" y2="499.1484"/><line style="stroke:#181818;stroke-width:2.0;" x1="413.5" x2="423.5" y1="499.1484" y2="489.1484"/><line style="stroke:#181818;stroke-width:1.0;" x1="418.5" x2="654.5" y1="494.1484" y2="494.1484"/><text fill="#000000" font-family="sans-serif" font-size="13" lengthAdjust="spacing" textLength="41" x="423.5" y="489.0825">Revert</text><line style="stroke:#181818;stroke-width:2.0;" x1="107.5" x2="117.5" y1="543.9805" y2="553.9805"/><line style="stroke:#181818;stroke-width:2.0;" x1="107.5" x2="117.5" y1="553.9805" y2="543.9805"/><line style="stroke:#181818;stroke-width:1.0;" x1="112.5" x2="395.5" y1="548.9805" y2="548.9805"/><text fill="#000000" font-family="sans-serif" font-size="13" lengthAdjust="spacing" textLength="92" x="117.5" y="543.9146">Payment error</text><path d="M411,507.1484 L411,577.1484 L592,577.1484 L592,517.1484 L582,507.1484 L411,507.1484 " fill="#FEFFDD" style="stroke:#181818;stroke-width:0.5;"/><path d="M582,507.1484 L582,517.1484 L592,517.1484 L582,507.1484 " fill="#FEFFDD" style="stroke:#181818;stroke-width:0.5;"/><text fill="#000000" font-family="sans-serif" font-size="13" lengthAdjust="spacing" textLength="60" x="417" y="524.2153">Could be:</text><text fill="#000000" font-family="sans-serif" font-size="13" lengthAdjust="spacing" textLength="160" x="417" y="539.3481">&#8226; Invalid signature_EVVM</text><text fill="#000000" font-family="sans-serif" font-size="13" lengthAdjust="spacing" textLength="134" x="417" y="554.481">&#8226; Insufficient balance</text><text fill="#000000" font-family="sans-serif" font-size="13" lengthAdjust="spacing" textLength="139" x="417" y="569.6138">&#8226; Nonce already used</text><line style="stroke:#000000;stroke-width:1.0;stroke-dasharray:2.0,2.0;" x1="30" x2="697" y1="583.6797" y2="583.6797"/><text fill="#000000" font-family="sans-serif" font-size="11" font-weight="bold" lengthAdjust="spacing" textLength="129" x="35" y="593.8901">[Payment succeeds]</text><polygon fill="#181818" points="417.5,614.6172,407.5,618.6172,417.5,622.6172,413.5,618.6172" style="stroke:#181818;stroke-width:1.0;"/><line style="stroke:#181818;stroke-width:1.0;stroke-dasharray:2.0,2.0;" x1="411.5" x2="659.5" y1="618.6172" y2="618.6172"/><text fill="#000000" font-family="sans-serif" font-size="13" lengthAdjust="spacing" textLength="53" x="423.5" y="613.5513">Success</text><polygon fill="#181818" points="643.5,657.75,653.5,661.75,643.5,665.75,647.5,661.75" style="stroke:#181818;stroke-width:1.0;"/><line style="stroke:#181818;stroke-width:1.0;" x1="406.5" x2="649.5" y1="661.75" y2="661.75"/><text fill="#000000" font-family="sans-serif" font-size="13" lengthAdjust="spacing" textLength="230" x="413.5" y="656.6841">pointStaker(account.Address, 0x01)</text><line style="stroke:#181818;stroke-width:1.0;" x1="406.5" x2="448.5" y1="720.8828" y2="720.8828"/><line style="stroke:#181818;stroke-width:1.0;" x1="448.5" x2="448.5" y1="720.8828" y2="733.8828"/><line style="stroke:#181818;stroke-width:1.0;" x1="407.5" x2="448.5" y1="733.8828" y2="733.8828"/><polygon fill="#181818" points="417.5,729.8828,407.5,733.8828,417.5,737.8828,413.5,733.8828" style="stroke:#181818;stroke-width:1.0;"/><text fill="#000000" font-family="sans-serif" font-size="13" lengthAdjust="spacing" textLength="124" x="413.5" y="715.8169">Update userHistory</text><path d="M20,748.8828 L84,748.8828 L84,756.0156 L74,766.0156 L20,766.0156 L20,748.8828 " fill="#EEEEEE" style="stroke:#000000;stroke-width:1.5;"/><rect fill="none" height="250.8672" style="stroke:#000000;stroke-width:1.5;" width="687" x="20" y="748.8828"/><text fill="#000000" font-family="sans-serif" font-size="13" font-weight="bold" lengthAdjust="spacing" textLength="19" x="35" y="761.9497">alt</text><text fill="#000000" font-family="sans-serif" font-size="11" font-weight="bold" lengthAdjust="spacing" textLength="297" x="99" y="761.0933">[msg.sender is staker &amp;&amp; !account.IsAService]</text><line style="stroke:#181818;stroke-width:1.0;" x1="406.5" x2="448.5" y1="787.1484" y2="787.1484"/><line style="stroke:#181818;stroke-width:1.0;" x1="448.5" x2="448.5" y1="787.1484" y2="800.1484"/><line style="stroke:#181818;stroke-width:1.0;" x1="407.5" x2="448.5" y1="800.1484" y2="800.1484"/><polygon fill="#181818" points="417.5,796.1484,407.5,800.1484,417.5,804.1484,413.5,800.1484" style="stroke:#181818;stroke-width:1.0;"/><text fill="#000000" font-family="sans-serif" font-size="13" lengthAdjust="spacing" textLength="98" x="413.5" y="782.0825">makeCaPay(&#183;&#183;&#183;)</text><polygon fill="#181818" points="643.5,825.2813,653.5,829.2813,643.5,833.2813,647.5,829.2813" style="stroke:#181818;stroke-width:1.0;"/><line style="stroke:#181818;stroke-width:1.0;" x1="406.5" x2="649.5" y1="829.2813" y2="829.2813"/><text fill="#000000" font-family="sans-serif" font-size="13" lengthAdjust="spacing" textLength="60" x="413.5" y="824.2153">caPay(&#183;&#183;&#183;)</text><path d="M30,844.2813 L94,844.2813 L94,851.4141 L84,861.4141 L30,861.4141 L30,844.2813 " fill="#EEEEEE" style="stroke:#000000;stroke-width:1.5;"/><rect fill="none" height="148.4688" style="stroke:#000000;stroke-width:1.5;" width="667" x="30" y="844.2813"/><text fill="#000000" font-family="sans-serif" font-size="13" font-weight="bold" lengthAdjust="spacing" textLength="19" x="45" y="857.3481">alt</text><text fill="#000000" font-family="sans-serif" font-size="11" font-weight="bold" lengthAdjust="spacing" textLength="168" x="109" y="856.4917">[Reward distribution fails]</text><line style="stroke:#181818;stroke-width:2.0;" x1="413.5" x2="423.5" y1="877.5469" y2="887.5469"/><line style="stroke:#181818;stroke-width:2.0;" x1="413.5" x2="423.5" y1="887.5469" y2="877.5469"/><line style="stroke:#181818;stroke-width:1.0;" x1="418.5" x2="654.5" y1="882.5469" y2="882.5469"/><text fill="#000000" font-family="sans-serif" font-size="13" lengthAdjust="spacing" textLength="31" x="423.5" y="877.481">Error</text><line style="stroke:#181818;stroke-width:2.0;" x1="107.5" x2="117.5" y1="906.6797" y2="916.6797"/><line style="stroke:#181818;stroke-width:2.0;" x1="107.5" x2="117.5" y1="916.6797" y2="906.6797"/><line style="stroke:#181818;stroke-width:1.0;" x1="112.5" x2="395.5" y1="911.6797" y2="911.6797"/><text fill="#000000" font-family="sans-serif" font-size="13" lengthAdjust="spacing" textLength="84" x="117.5" y="906.6138">Reward failed</text><line style="stroke:#000000;stroke-width:1.0;stroke-dasharray:2.0,2.0;" x1="30" x2="697" y1="920.6797" y2="920.6797"/><text fill="#000000" font-family="sans-serif" font-size="11" font-weight="bold" lengthAdjust="spacing" textLength="97" x="35" y="930.8901">[Rewards sent]</text><polygon fill="#181818" points="417.5,951.6172,407.5,955.6172,417.5,959.6172,413.5,955.6172" style="stroke:#181818;stroke-width:1.0;"/><line style="stroke:#181818;stroke-width:1.0;stroke-dasharray:2.0,2.0;" x1="411.5" x2="659.5" y1="955.6172" y2="955.6172"/><text fill="#000000" font-family="sans-serif" font-size="13" lengthAdjust="spacing" textLength="53" x="423.5" y="950.5513">Success</text><polygon fill="#181818" points="111.5,980.75,101.5,984.75,111.5,988.75,107.5,984.75" style="stroke:#181818;stroke-width:1.0;"/><line style="stroke:#181818;stroke-width:1.0;stroke-dasharray:2.0,2.0;" x1="105.5" x2="400.5" y1="984.75" y2="984.75"/><text fill="#000000" font-family="sans-serif" font-size="13" lengthAdjust="spacing" textLength="53" x="117.5" y="979.6841">Success</text><!--SRC=[hLNjQXf15Fq_Jt6RG8YG3rCeWP06ZDKsjBOXCUaVeSpEN7Lmd96PMOs4G9-bBz7_VPG-IU_ihgkBMq9A5N5dvjolSyxekGzBZHTCMf5EqGHuP02NN4pUEviQsRRQEbYCLK3snCwF2pGBAcW47_X4cT4bztZjh43lznjm2BVvDdIrNGpCVfShZHAkUHXl77QSiyut69jn5vHGCqx5TqPMIpG5vdXWPWuzrxYnaIPQYMAz0zo3u5gZgwRPRYo39hI6tMxttMcpMGtetD_tCWZEvrFORJOxdTTDnlBSS7YHXvxLJJmm02qXYAtGmy0b3_on9IKrxW_WohTkqSsLmAU325I-QFrjS2aUmFwld_7T69W6uoAeEGzORPDbgtK7xJ6A2GGrHT1MJ1ZZEi3ky4rocfp024EVJlhspgExCn5Gr8lRG4dYrb6CfaccCz8QyiI73mMHLE86v-W2B1G9LapIIttuobNesvWFMoEkJ1PiB3Nir6WSAB1_rUl0fo_jZsS34oDWGI70Xu7IfgRWRc0I75fNkWTucOoXZfDdTeF-QaIOSUzHiWoIJPi3Nl6SzQCroHbaFLD9sfHwlkRB5TibR0kVoNz65RUnfJmLYsnbsfI3IcPtQaWtm9U8-Cfo4ET5VpdZ5SIMAgja62zE1LhHe6rJBI51ak3tznzmPUPSAmbUZGmFgSDlqUghCvyEXtG7Ojg4Qsu4vYUVBJtIA0wvN48QsTyiM2uszLhrvrCX46NTl6j1RYF8Lp4IAnIlYvYy-kgRrGbcbGcPDTt-oXRb9Mm-D4zo7V-kOLrnLkEakvcC6AB4VL0-MBTSGpUyEVMZ8qyDatBAPqwdfxszbtgspL_YMb6B_WVVtk22EmcI1dGgIOEovdaFTxPyMVF3akKTPdy8jIRA4SGOEUc_6MZT2yMNpJoJ8GRKMZ1-_W00]--></g></svg>