<svg width="513" height="254" viewBox="0 0 513 254" fill="none" xmlns="http://www.w3.org/2000/svg">
<path d="M82.3809 31.5993L97.2561 58.4859L102.653 33.5228L82.3809 0V31.5993Z" fill="#F6B40E"/>
<path d="M108.295 42.873L102.92 67.7827L106.81 96.3898L123.544 68.0819L108.306 42.873H108.295Z" fill="#F6B40E"/>
<path d="M120.22 194.982L157.259 143.164L116.438 167.208L120.22 194.982Z" fill="#F6B40E"/>
<path d="M144.2 102.235L112.27 136.495L114.011 149.298L157.259 123.822L144.2 102.235Z" fill="#F6B40E"/>
<path d="M127.946 75.3594L108.443 108.369L110.965 126.889L140.16 95.5564L127.946 75.3594Z" fill="#F6B40E"/>
<path d="M59.9923 58.4859L74.8675 31.5993V0L54.5957 33.5228L59.9923 58.4859Z" fill="#F6B40E"/>
<path d="M33.7051 68.0712L50.4398 96.3791L54.3296 67.772L48.9437 42.8623L33.7051 68.0712Z" fill="#F6B40E"/>
<path d="M37.0386 194.982L40.8108 167.208L0 143.164L37.0386 194.982Z" fill="#F6B40E"/>
<path d="M0 123.811L43.2473 149.287L44.9891 136.485L13.0586 102.225L0 123.811Z" fill="#F6B40E"/>
<path d="M17.0879 95.5671L46.2934 126.899L48.8154 108.38L29.3023 75.3701L17.0879 95.5671Z" fill="#F6B40E"/>
<path fill-rule="evenodd" clip-rule="evenodd" d="M78.629 38.4385L96.7315 71.1491L114.631 202.804L78.629 253.264L42.627 202.804L60.5264 71.1491L78.629 38.4385ZM78.629 47.479L92.4997 72.5597L110.057 201.682L78.629 245.73V47.479Z" fill="#83C2FC"/>
<path fill-rule="evenodd" clip-rule="evenodd" d="M393.614 32.6793V29.922L393.624 29.9113H392.326C391.232 29.9113 390.202 29.1174 390.202 27.154V11.4581H386.973V14.2046L386.704 13.9364C384.602 11.9624 381.834 10.9217 378.98 11.029C376.126 11.1363 373.433 12.3915 371.491 14.5265C370.526 15.5886 369.786 16.8224 369.292 18.1742C368.798 19.526 368.573 20.9636 368.627 22.4013C368.68 23.8389 369.013 25.2551 369.603 26.564C370.193 27.8729 371.03 29.053 372.06 30.0293C374.163 32.0034 376.931 33.044 379.785 32.9367C382.638 32.8295 385.331 31.5742 387.273 29.4392C387.552 30.5121 388.174 31.4562 389.043 32.1214C389.912 32.7865 390.974 33.1299 392.058 33.0977C392.605 33.0977 393.142 32.9582 393.614 32.6793ZM385.009 16.8761C386.275 18.2922 386.973 20.1483 386.973 22.0687H386.983C386.983 23.0879 386.79 24.0964 386.404 25.0405C385.685 26.8215 384.344 28.2591 382.649 29.0745C380.954 29.8898 379.012 30.04 377.22 29.4821C375.418 28.9243 373.895 27.7119 372.929 26.0597C371.963 24.4183 371.631 22.4657 371.996 20.5774C372.36 18.6892 373.401 17.0155 374.903 15.8676C376.416 14.7196 378.283 14.1939 380.149 14.3763C382.016 14.5587 383.743 15.4492 385.009 16.8761ZM401.059 0.751001H397.68V33.1084H401.059V0.751001ZM362.029 28.1196C363.209 26.285 363.831 24.1393 363.831 21.94V21.9292C363.842 19.7299 363.209 17.5734 362.029 15.7388C360.849 13.8935 359.164 12.4559 357.179 11.5976C355.216 10.75 353.038 10.5247 350.946 10.9432C348.843 11.3616 346.923 12.413 345.41 13.9579V0H342.181V32.6793H345.41V29.8898C346.923 31.4347 348.854 32.4861 350.946 32.9046C353.038 33.3337 355.205 33.0977 357.179 32.2501C359.164 31.3918 360.849 29.9542 362.029 28.1196ZM358.853 17.0155C359.98 18.3995 360.602 20.1376 360.613 21.94H360.602C360.602 24.0213 359.808 26.0168 358.381 27.4974C357.137 28.7633 355.506 29.5572 353.757 29.7396C352.008 29.9113 350.249 29.4714 348.79 28.4737C347.32 27.4759 346.236 25.9846 345.721 24.2681C345.206 22.5515 345.292 20.6954 345.957 19.0325C346.622 17.3696 347.835 15.9963 349.38 15.138C350.925 14.2797 352.716 14.0008 354.444 14.3441C356.171 14.6874 357.727 15.6315 358.853 17.0155ZM317.215 14.6445C315.413 16.6829 314.426 19.3222 314.426 22.0687V22.0794C314.426 23.5278 314.705 24.9654 315.252 26.3065C316.282 28.8384 318.192 30.8876 320.616 32.057C323.041 33.2264 325.809 33.441 328.373 32.6363C330.937 31.8317 333.126 30.0937 334.499 27.7334C335.872 25.3731 336.345 22.5837 335.819 19.8908C335.293 17.1979 333.813 14.8054 331.656 13.1747C329.5 11.544 326.828 10.793 324.157 11.0612C321.485 11.3294 319.018 12.6061 317.215 14.6445ZM331.141 17.1335C332.257 18.5283 332.858 20.277 332.858 22.0687L332.847 22.0472C332.847 24.1071 332.042 26.0812 330.615 27.5295C329.371 28.8062 327.74 29.5894 325.991 29.7611C324.243 29.9435 322.494 29.4821 321.035 28.4844C319.576 27.4866 318.503 25.9954 317.999 24.2788C317.484 22.5622 317.58 20.7169 318.256 19.054C318.932 17.391 320.144 16.0285 321.7 15.1809C323.256 14.3441 325.047 14.0759 326.764 14.4299C328.48 14.784 330.025 15.7388 331.141 17.1335ZM298.183 16.4576V15.5028V15.4921L282.348 15.5564V18.7214H294.707C294.246 21.7361 292.744 24.4934 290.469 26.4781C288.195 28.4629 285.298 29.5572 282.315 29.5465C279.333 29.5358 276.447 28.4307 274.183 26.4352C271.919 24.4397 270.428 21.6825 269.988 18.657C269.463 15.6423 269.988 12.5417 271.48 9.88102C272.96 7.22034 275.32 5.18191 278.121 4.11978C280.921 3.08983 283.978 3.12202 286.746 4.19488C289.514 5.27846 291.821 7.32762 293.248 9.98831L296.059 8.35757C294.181 4.88151 291.113 2.24227 287.444 0.933387C283.774 -0.3755 279.762 -0.246757 276.179 1.28743C272.585 2.87526 269.677 5.71834 267.971 9.32314C266.265 12.9172 265.89 17.0263 266.909 20.8885C267.875 24.7401 270.192 28.1089 273.421 30.3297C276.651 32.5505 280.556 33.4839 284.418 32.9582C288.28 32.3896 291.799 30.3941 294.331 27.3579C296.863 24.3217 298.237 20.4487 298.183 16.4576ZM308.332 0.751001H304.953V33.1084H308.332V0.751001ZM260.966 33.1084V0.751001H254.131V13.7111H241.429V0.751001H234.562V33.1084H241.45V20.041H254.121V33.1084H260.966ZM224.081 7.08086H231.859L231.848 7.07014V0.751001H209.511V7.08086H217.343V33.1084H224.081V7.08086ZM195.468 13.8291V7.01649V7.00576H207.494V0.751001H188.537V33.2157H207.484V26.9502H195.468V20.1483H205.767V13.8291H195.468ZM435.218 52.9672C452.384 52.9672 461.085 67.0002 461.085 94.6585V102.254C461.085 129.923 452.384 143.946 435.218 143.946C418.052 143.946 409.351 129.913 409.351 102.254V94.6585C409.351 66.9895 418.052 52.9672 435.218 52.9672ZM435.218 133.442C444.799 133.442 449.079 124.602 449.079 104.776V92.1266C449.079 72.3002 444.799 63.4598 435.218 63.4598C425.637 63.4598 421.357 72.3002 421.357 92.1266V104.776C421.357 124.602 425.637 133.442 435.218 133.442ZM247.243 217.865V198.125V198.124C247.243 187.675 247.243 173.449 246.535 164.287H259.452C258.744 173.449 258.744 187.675 258.744 198.125V217.865C258.744 228.315 258.744 242.541 259.452 251.703H246.535C247.243 242.541 247.243 228.315 247.243 217.866V217.865ZM341.376 131.232C333.973 131.93 324.521 131.93 315.38 131.93H314.801V96.1069H315.38C322.783 96.1069 332.138 96.1927 339.348 96.815V85.1637C332.127 85.786 322.783 85.8718 315.38 85.8718H314.801V64.9833H315.38H315.38C324.521 64.9833 333.973 64.9833 341.376 65.6806V54.7482H302.592C303.3 63.9104 303.3 78.1365 303.3 88.5861V108.327C303.3 118.776 303.3 133.002 302.592 142.165H341.376V131.232ZM349.669 54.7374H357.307L388.849 81.8593V80.604C388.849 73.0404 388.774 62.226 388.141 54.7374H401.059C400.35 63.8996 400.35 78.1257 400.35 88.5754V108.316C400.35 118.766 400.35 132.992 401.059 142.154H388.141C388.849 132.992 388.849 118.766 388.849 108.316V96.0317L361.878 72.7614V108.316C361.878 118.766 361.878 132.992 362.586 142.154H349.669C350.377 132.992 350.377 118.766 350.377 108.316V88.5754C350.377 78.1257 350.377 63.8996 349.669 54.7374ZM245.226 119.967C245.226 134.301 254.913 143.935 269.322 143.935C283.73 143.935 293.043 134.301 293.043 119.967V88.5861V88.5848C293.043 78.1353 293.043 63.91 293.751 54.7482H281.209C281.917 63.91 281.917 78.1353 281.917 88.5848V88.5861V119.967C281.917 128.958 277.562 133.7 269.322 133.7C261.082 133.7 256.727 128.947 256.727 119.967V88.5861V88.5858C256.727 78.1362 256.727 63.9103 257.435 54.7482H244.517C245.226 63.9104 245.226 78.1365 245.226 88.5861V119.967ZM298.59 218.928L293.89 206.397H282.164V217.855C282.164 228.305 282.164 242.531 282.872 251.693H269.944C270.652 242.531 270.652 228.305 270.652 217.855V198.114C270.652 187.665 270.652 173.439 269.944 164.277H295.264C311.861 164.277 321.388 171.947 321.388 185.337C321.388 195.54 316.023 202.395 305.874 205.152L305.263 205.313L310.037 218.306C310.96 220.784 311.904 223.348 312.848 225.934L313.014 226.388L313.014 226.388L313.014 226.388C316.299 235.344 319.675 244.551 323.072 251.693H308.91C307.344 242.359 302.699 229.925 298.59 218.928ZM296.519 174.512H282.153V174.522V196.677H296.519C305.413 196.677 309.372 193.265 309.372 185.594C309.372 177.923 305.402 174.512 296.519 174.512ZM489.505 143.935C505.63 143.935 512.839 132.724 512.839 121.609C512.839 108.319 502.566 99.93 493.502 92.5285L493.496 92.5235C486.071 86.4619 479.055 80.7328 479.055 73.2765C479.055 67.4079 483.207 63.4598 489.376 63.4598C492.433 63.4598 494.88 64.4361 496.639 66.3565C499.107 69.0494 500.147 73.4481 499.74 79.4347L510.972 77.9434C511.466 69.972 509.599 63.492 505.576 59.1684C501.799 55.113 496.199 52.9672 489.376 52.9672C476.158 52.9672 467.178 61.2283 467.05 73.5339C466.921 86.258 476.469 94.0255 485.717 101.536L485.733 101.548C493.505 107.862 500.845 113.825 500.845 122.113C500.845 128.786 496.188 133.442 489.515 133.442C486.243 133.442 483.625 132.348 481.705 130.202C478.819 126.952 477.703 121.298 478.476 113.798L467.146 115.397C466.513 125.16 468.53 132.616 473.122 137.562C476.995 141.725 482.649 143.924 489.505 143.924V143.935ZM187.935 54.7374H211.484C227.287 54.7374 236.696 62.1723 236.696 74.6497C236.696 82.8248 232.662 89.4658 225.635 92.8561L224.905 93.2101L225.485 93.7895C234.035 102.329 238.735 112.028 238.735 121.094C238.735 134.279 229.015 142.154 212.739 142.154H187.935C188.643 132.992 188.643 118.766 188.643 108.316V88.5754C188.643 78.1257 188.643 63.8996 187.935 54.7374ZM212.75 64.9725H200.155V87.127H212.75C220.357 87.127 224.712 82.7605 224.712 75.6689C224.712 68.5773 220.689 64.9725 212.75 64.9725ZM214.016 131.93C221.869 131.93 226.74 127.348 226.74 119.967H226.751C226.751 113.079 222.309 105.14 213.919 97.0295L213.748 96.8686H200.155V131.93H214.016ZM201.142 213.488H222.857L223.704 218.134C225.839 230.729 227.309 239.913 228.103 251.704H241.127C238.642 241.656 237.376 234.131 235.654 223.894L235.602 223.584L230.174 191.624C228.446 181.453 227.084 173.374 226.279 164.277H197.87C197.27 173.566 195.87 181.831 194.106 192.245L194.093 192.321L189.662 218.338C187.495 231.105 185.95 239.795 183 251.704H195.638C196.346 241.265 197.773 232.907 199.737 221.417L201.142 213.488ZM207.976 173.75H216.023L221.29 203.758H202.708L207.976 173.75ZM417.805 231.148C417.805 242.263 410.596 253.474 394.471 253.474L394.481 253.452C387.626 253.452 381.972 251.253 378.099 247.09C373.507 242.145 371.49 234.688 372.123 224.925L383.452 223.327C382.68 230.826 383.796 236.48 386.682 239.731C388.591 241.876 391.22 242.971 394.481 242.971C401.155 242.971 405.811 238.314 405.811 231.641C405.811 223.353 398.471 217.391 390.699 211.076L390.684 211.064C381.436 203.554 371.887 195.786 372.016 183.062C372.145 170.757 381.124 162.496 394.342 162.496C401.165 162.496 406.766 164.641 410.542 168.697C414.565 173.031 416.432 179.511 415.939 187.482L404.706 188.974C405.113 182.987 404.073 178.588 401.605 175.896C399.846 173.975 397.4 172.999 394.342 172.999C388.173 172.999 384.021 176.947 384.021 182.815C384.021 190.272 391.038 196.001 398.462 202.063L398.468 202.067C407.532 209.469 417.805 217.858 417.805 231.148ZM341.568 174.512C350.709 174.512 360.161 174.512 367.564 175.209V164.277H328.78C329.488 173.439 329.488 187.665 329.488 198.114V217.855C329.488 228.305 329.488 242.531 328.78 251.693H367.564V240.761C360.161 241.458 350.709 241.458 341.568 241.458H340.989V205.635H341.568C348.982 205.635 358.326 205.721 365.536 206.343V194.703C358.316 195.325 348.971 195.411 341.568 195.411H340.989V174.522H341.568V174.512Z" fill="white"/>
</svg>
