<svg width="473" height="78" viewBox="0 0 473 78" fill="none" xmlns="http://www.w3.org/2000/svg">
<path d="M63.1021 60.3C62.6621 60.3 62.3021 60.22 62.0221 60.06C61.7821 59.9 61.6621 59.7 61.6621 59.46C61.6621 58.94 62.1821 58.56 63.2221 58.32C64.6621 57.96 65.6821 57.52 66.2821 57C66.9221 56.44 67.2421 55.5 67.2421 54.18V27C67.2421 25.64 66.9621 24.68 66.4021 24.12C65.8821 23.56 64.8821 23.12 63.4021 22.8C62.8421 22.68 62.4421 22.52 62.2021 22.32C61.9621 22.08 61.8421 21.84 61.8421 21.6C61.8421 21.32 61.9621 21.12 62.2021 21C62.4821 20.84 62.8421 20.76 63.2821 20.76C64.4421 20.76 65.5421 20.78 66.5821 20.82C67.6621 20.86 68.7021 20.9 69.7021 20.94C70.7021 20.98 71.7421 21 72.8221 21C74.6621 21 76.6021 20.98 78.6421 20.94C80.7221 20.9 82.5821 20.88 84.2221 20.88C85.5421 20.84 86.6221 20.78 87.4621 20.7C88.3421 20.62 88.8621 20.58 89.0221 20.58C89.3021 20.58 89.5821 20.64 89.8621 20.76C90.1821 20.88 90.3621 21.12 90.4021 21.48C90.5621 22.8 90.7621 24.1 91.0021 25.38C91.2421 26.66 91.3621 27.78 91.3621 28.74C91.3621 29.1 91.2621 29.38 91.0621 29.58C90.9021 29.74 90.7221 29.82 90.5221 29.82C90.3221 29.82 90.1421 29.76 89.9821 29.64C89.8221 29.48 89.6821 29.26 89.5621 28.98C89.2421 28.06 88.9421 27.26 88.6621 26.58C88.3821 25.9 88.0621 25.38 87.7021 25.02C87.1821 24.46 86.5821 24.02 85.9021 23.7C85.2221 23.38 84.4021 23.22 83.4421 23.22H77.8621C77.1421 23.22 76.4821 23.44 75.8821 23.88C75.2821 24.28 74.9821 24.86 74.9821 25.62V37.38C74.9821 37.82 75.1021 38.16 75.3421 38.4C75.6221 38.64 75.9421 38.76 76.3021 38.76H81.8221C82.9021 38.76 83.6621 38.46 84.1021 37.86C84.5821 37.26 84.9821 36.44 85.3021 35.4C85.5821 34.6 85.9621 34.2 86.4421 34.2C86.6421 34.2 86.8221 34.32 86.9821 34.56C87.1421 34.76 87.2221 35.04 87.2221 35.4C87.1821 35.8 87.1421 36.28 87.1021 36.84C87.0621 37.4 87.0221 37.96 86.9821 38.52C86.9821 39.08 86.9821 39.58 86.9821 40.02C86.9821 40.5 86.9821 41.04 86.9821 41.64C87.0221 42.24 87.0421 42.84 87.0421 43.44C87.0821 44 87.1221 44.48 87.1621 44.88C87.2021 45.32 87.1621 45.66 87.0421 45.9C86.9621 46.14 86.8021 46.26 86.5621 46.26C85.9221 46.26 85.4621 45.7 85.1821 44.58C84.8621 43.46 84.4821 42.62 84.0421 42.06C83.6021 41.5 83.0021 41.22 82.2421 41.22H76.6021C76.0821 41.22 75.6821 41.32 75.4021 41.52C75.1221 41.72 74.9821 42.1 74.9821 42.66V54.06C74.9821 55.38 75.2621 56.3 75.8221 56.82C76.3821 57.34 77.2421 57.6 78.4021 57.6H83.3221C84.3221 57.6 85.2221 57.5 86.0221 57.3C86.8621 57.1 87.5821 56.78 88.1821 56.34C88.8621 55.86 89.4621 55.22 89.9821 54.42C90.5421 53.58 91.0821 52.66 91.6021 51.66C91.7621 51.34 91.9221 51.14 92.0821 51.06C92.2421 50.94 92.4421 50.88 92.6821 50.88C92.8821 50.92 93.0221 51.04 93.1021 51.24C93.2221 51.44 93.2821 51.66 93.2821 51.9C93.2821 52.46 93.1821 53.18 92.9821 54.06C92.7821 54.94 92.5221 55.86 92.2021 56.82C91.9221 57.74 91.6621 58.6 91.4221 59.4C91.3021 59.68 91.1421 59.88 90.9421 60C90.7421 60.16 90.5021 60.24 90.2221 60.24C89.2621 60.24 88.0221 60.22 86.5021 60.18C85.0221 60.18 83.4021 60.16 81.6421 60.12C79.8821 60.08 78.0821 60.04 76.2421 60C74.4021 60 72.6421 60 70.9621 60C70.1221 60 69.2621 60.02 68.3821 60.06C67.5421 60.1 66.6821 60.14 65.8021 60.18C64.9221 60.26 64.0221 60.3 63.1021 60.3ZM106.979 60.24C106.579 60.24 106.219 60.16 105.899 60C105.619 59.88 105.479 59.7 105.479 59.46C105.479 59.14 105.619 58.88 105.899 58.68C106.179 58.48 106.579 58.34 107.099 58.26C108.619 57.94 109.739 57.5 110.459 56.94C111.179 56.34 111.539 55.38 111.539 54.06V29.76C111.539 28.12 111.499 26.88 111.419 26.04C111.339 25.2 111.219 24.64 111.059 24.36C110.939 24.04 110.739 23.86 110.459 23.82C110.059 23.66 109.559 23.56 108.959 23.52C108.359 23.48 107.779 23.46 107.219 23.46H105.359C104.199 23.46 103.079 23.74 101.999 24.3C100.919 24.82 100.079 25.54 99.4795 26.46C99.3195 26.7 99.0595 27.04 98.6995 27.48C98.3795 27.92 98.0195 28.32 97.6195 28.68C97.2595 29.04 96.8795 29.22 96.4795 29.22C96.1995 29.22 95.9995 29.12 95.8795 28.92C95.7995 28.72 95.7595 28.5 95.7595 28.26C95.7595 27.78 95.8795 27.3 96.1195 26.82C96.7995 25.46 97.2995 24.28 97.6195 23.28C97.9795 22.24 98.2195 21.02 98.3395 19.62C98.4195 19.02 98.5795 18.64 98.8195 18.48C99.0995 18.28 99.3795 18.18 99.6595 18.18C99.8995 18.18 100.179 18.44 100.499 18.96C100.859 19.44 101.179 19.84 101.459 20.16C101.819 20.52 102.459 20.8 103.379 21C104.299 21.16 105.079 21.24 105.719 21.24L127.859 21.18C128.979 21.18 129.919 21.1 130.679 20.94C131.439 20.74 132.039 20.54 132.479 20.34C133.079 19.98 133.559 19.62 133.919 19.26C134.279 18.86 134.699 18.66 135.179 18.66C135.379 18.66 135.519 18.78 135.599 19.02C135.719 19.22 135.779 19.48 135.779 19.8C135.779 20 135.759 20.24 135.719 20.52C135.679 20.76 135.639 20.98 135.599 21.18C135.439 21.94 135.279 22.62 135.119 23.22C134.959 23.78 134.819 24.32 134.699 24.84C134.619 25.32 134.579 25.88 134.579 26.52V27.54C134.579 28.1 134.499 28.58 134.339 28.98C134.179 29.38 133.919 29.58 133.559 29.58C133.239 29.58 132.959 29.4 132.719 29.04C132.519 28.64 132.299 28.04 132.059 27.24C131.699 25.96 131.099 25.02 130.259 24.42C129.419 23.78 128.099 23.46 126.299 23.46H122.219C121.459 23.46 120.859 23.6 120.419 23.88C120.019 24.16 119.719 24.78 119.519 25.74C119.359 26.66 119.279 28.1 119.279 30.06V54C119.279 55.28 119.639 56.22 120.359 56.82C121.079 57.38 122.219 57.86 123.779 58.26C124.259 58.38 124.639 58.52 124.919 58.68C125.199 58.84 125.339 59.08 125.339 59.4C125.339 59.68 125.199 59.88 124.919 60C124.679 60.12 124.359 60.18 123.959 60.18C122.999 60.18 122.039 60.16 121.079 60.12C120.119 60.08 119.159 60.04 118.199 60C117.279 59.96 116.379 59.94 115.499 59.94C114.619 59.94 113.699 59.96 112.739 60C111.819 60.04 110.859 60.08 109.859 60.12C108.899 60.2 107.939 60.24 106.979 60.24ZM138.511 60.24C138.151 60.24 137.831 60.16 137.551 60C137.271 59.84 137.131 59.64 137.131 59.4C137.131 58.84 137.631 58.46 138.631 58.26C140.071 57.94 141.031 57.5 141.511 56.94C141.991 56.38 142.231 55.44 142.231 54.12V26.94C142.231 25.62 142.031 24.68 141.631 24.12C141.231 23.56 140.291 23.12 138.811 22.8C137.811 22.6 137.311 22.2 137.311 21.6C137.311 21.32 137.431 21.12 137.671 21C137.951 20.84 138.291 20.76 138.691 20.76C139.651 20.76 140.551 20.78 141.391 20.82C142.231 20.86 143.051 20.9 143.851 20.94C144.651 20.98 145.451 21 146.251 21C147.051 21 147.871 20.98 148.711 20.94C149.591 20.9 150.491 20.86 151.411 20.82C152.331 20.78 153.251 20.76 154.171 20.76C155.051 20.76 155.491 21.06 155.491 21.66C155.491 21.98 155.371 22.22 155.131 22.38C154.891 22.54 154.511 22.68 153.991 22.8C152.431 23.2 151.371 23.7 150.811 24.3C150.291 24.9 150.031 25.8 150.031 27V38.16C150.031 38.44 150.111 38.64 150.271 38.76C150.471 38.84 150.691 38.88 150.931 38.88H168.871C169.311 38.88 169.531 38.6 169.531 38.04V26.94C169.531 25.78 169.271 24.9 168.751 24.3C168.231 23.7 167.191 23.2 165.631 22.8C165.111 22.68 164.711 22.54 164.431 22.38C164.191 22.22 164.071 21.98 164.071 21.66C164.071 21.06 164.511 20.76 165.391 20.76C166.351 20.76 167.311 20.78 168.271 20.82C169.231 20.86 170.151 20.9 171.031 20.94C171.951 20.98 172.831 21 173.671 21C174.431 21 175.171 20.98 175.891 20.94C176.611 20.9 177.371 20.86 178.171 20.82C179.011 20.78 179.911 20.76 180.871 20.76C181.231 20.76 181.551 20.84 181.831 21C182.111 21.12 182.251 21.32 182.251 21.6C182.251 22.2 181.731 22.6 180.691 22.8C179.291 23.12 178.371 23.58 177.931 24.18C177.531 24.78 177.331 25.7 177.331 26.94V54.12C177.331 55.44 177.551 56.38 177.991 56.94C178.431 57.5 179.371 57.94 180.811 58.26C181.811 58.46 182.311 58.84 182.311 59.4C182.311 59.64 182.171 59.84 181.891 60C181.611 60.16 181.291 60.24 180.931 60.24C180.011 60.24 179.131 60.2 178.291 60.12C177.451 60.08 176.611 60.04 175.771 60C174.971 59.96 174.171 59.94 173.371 59.94C172.571 59.94 171.731 59.96 170.851 60C169.971 60.04 169.071 60.08 168.151 60.12C167.231 60.16 166.291 60.18 165.331 60.18C164.971 60.18 164.671 60.12 164.431 60C164.191 59.84 164.071 59.62 164.071 59.34C164.071 59.02 164.191 58.8 164.431 58.68C164.671 58.52 165.031 58.38 165.511 58.26C166.951 57.9 167.971 57.42 168.571 56.82C169.211 56.22 169.531 55.32 169.531 54.12V42.72C169.531 42.48 169.491 42.26 169.411 42.06C169.371 41.86 169.211 41.76 168.931 41.76H150.691C150.251 41.76 150.031 42.06 150.031 42.66V53.88C150.031 55.08 150.371 56.02 151.051 56.7C151.771 57.38 152.851 57.9 154.291 58.26C154.811 58.38 155.191 58.52 155.431 58.68C155.671 58.8 155.791 59.02 155.791 59.34C155.791 59.62 155.671 59.84 155.431 60C155.231 60.12 154.911 60.18 154.471 60.18C153.551 60.18 152.611 60.16 151.651 60.12C150.691 60.08 149.751 60.04 148.831 60C147.951 59.96 147.091 59.94 146.251 59.94C145.411 59.94 144.571 59.96 143.731 60C142.891 60.04 142.031 60.08 141.151 60.12C140.271 60.2 139.391 60.24 138.511 60.24ZM206.474 60.84C203.834 60.84 201.314 60.38 198.914 59.46C196.514 58.5 194.394 57.16 192.554 55.44C190.714 53.68 189.254 51.6 188.174 49.2C187.094 46.76 186.554 44.06 186.554 41.1C186.554 38.38 186.994 35.78 187.874 33.3C188.754 30.78 190.054 28.54 191.774 26.58C193.494 24.62 195.634 23.06 198.194 21.9C200.754 20.74 203.694 20.16 207.014 20.16C209.654 20.16 212.174 20.64 214.574 21.6C216.974 22.52 219.094 23.86 220.934 25.62C222.774 27.34 224.234 29.42 225.314 31.86C226.394 34.26 226.934 36.94 226.934 39.9C226.934 42.58 226.494 45.18 225.614 47.7C224.734 50.22 223.434 52.46 221.714 54.42C219.994 56.38 217.854 57.94 215.294 59.1C212.734 60.26 209.794 60.84 206.474 60.84ZM207.374 58.44C210.454 58.44 213.014 57.8 215.054 56.52C217.094 55.2 218.614 53.38 219.614 51.06C220.654 48.7 221.174 45.96 221.174 42.84C221.174 40.08 220.854 37.48 220.214 35.04C219.574 32.6 218.614 30.46 217.334 28.62C216.094 26.74 214.534 25.28 212.654 24.24C210.774 23.2 208.574 22.68 206.054 22.68C203.054 22.68 200.534 23.32 198.494 24.6C196.454 25.88 194.914 27.68 193.874 30C192.834 32.28 192.314 34.98 192.314 38.1C192.314 40.9 192.614 43.52 193.214 45.96C193.854 48.4 194.794 50.56 196.034 52.44C197.314 54.32 198.894 55.8 200.774 56.88C202.654 57.92 204.854 58.44 207.374 58.44ZM232.255 60.18C231.895 60.18 231.595 60.12 231.355 60C231.155 59.92 231.055 59.76 231.055 59.52C231.055 59.2 231.175 59 231.415 58.92C231.655 58.8 231.995 58.68 232.435 58.56C233.035 58.4 233.615 58.18 234.175 57.9C234.735 57.62 235.015 57.08 235.015 56.28V43.38C235.015 42.3 234.895 41.38 234.655 40.62C234.455 39.86 233.835 39.34 232.795 39.06C232.635 38.98 232.495 38.9 232.375 38.82C232.255 38.7 232.195 38.52 232.195 38.28C232.195 37.84 232.375 37.6 232.735 37.56C234.135 37.2 235.275 36.76 236.155 36.24C237.035 35.72 237.895 35.14 238.735 34.5C238.855 34.42 238.955 34.36 239.035 34.32C239.155 34.24 239.275 34.2 239.395 34.2C239.475 34.2 239.535 34.24 239.575 34.32C239.655 34.4 239.695 34.5 239.695 34.62C239.695 34.9 239.635 35.48 239.515 36.36C239.435 37.2 239.395 37.9 239.395 38.46C239.395 38.62 239.395 38.78 239.395 38.94C239.435 39.06 239.475 39.14 239.515 39.18C240.915 37.86 242.395 36.86 243.955 36.18C245.555 35.5 247.295 35.16 249.175 35.16C251.135 35.16 252.755 35.96 254.035 37.56C255.315 39.16 255.955 41.14 255.955 43.5V56.28C255.955 57.08 256.235 57.62 256.795 57.9C257.355 58.14 257.935 58.36 258.535 58.56C258.855 58.68 259.155 58.82 259.435 58.98C259.755 59.1 259.915 59.32 259.915 59.64C259.915 59.88 259.775 60.02 259.495 60.06C259.215 60.14 258.955 60.18 258.715 60.18C257.915 60.18 257.295 60.14 256.855 60.06C256.415 60.02 255.995 59.98 255.595 59.94C255.195 59.9 254.635 59.88 253.915 59.88C253.235 59.88 252.675 59.9 252.235 59.94C251.795 59.98 251.335 60.02 250.855 60.06C250.415 60.14 249.795 60.18 248.995 60.18C248.795 60.18 248.535 60.14 248.215 60.06C247.935 60.02 247.795 59.88 247.795 59.64C247.795 59.32 247.935 59.1 248.215 58.98C248.535 58.82 248.855 58.68 249.175 58.56C249.775 58.36 250.355 58.14 250.915 57.9C251.475 57.62 251.755 57.08 251.755 56.28V43.68C251.755 41.92 251.255 40.56 250.255 39.6C249.295 38.6 247.995 38.08 246.355 38.04C244.915 38.04 243.655 38.28 242.575 38.76C241.495 39.2 240.535 39.76 239.695 40.44C239.535 40.6 239.415 40.82 239.335 41.1C239.255 41.34 239.215 41.58 239.215 41.82V56.28C239.215 57.08 239.495 57.62 240.055 57.9C240.615 58.18 241.195 58.4 241.795 58.56C242.715 58.8 243.175 59.12 243.175 59.52C243.175 59.76 243.075 59.92 242.875 60C242.675 60.12 242.375 60.18 241.975 60.18C241.175 60.18 240.535 60.14 240.055 60.06C239.615 60.02 239.195 59.98 238.795 59.94C238.395 59.9 237.835 59.88 237.115 59.88C236.435 59.88 235.875 59.9 235.435 59.94C235.035 59.98 234.595 60.02 234.115 60.06C233.675 60.14 233.055 60.18 232.255 60.18ZM263.654 60.18C263.454 60.18 263.194 60.14 262.874 60.06C262.594 60.02 262.454 59.88 262.454 59.64C262.454 59.32 262.594 59.1 262.874 58.98C263.194 58.82 263.514 58.68 263.834 58.56C264.434 58.36 265.014 58.14 265.574 57.9C266.134 57.62 266.414 57.08 266.414 56.28V26.04C266.414 24.88 266.194 23.92 265.754 23.16C265.354 22.36 264.654 21.86 263.654 21.66C263.334 21.58 263.174 21.32 263.174 20.88C263.174 20.48 263.314 20.24 263.594 20.16C264.634 19.92 265.534 19.68 266.294 19.44C267.054 19.16 267.754 18.88 268.394 18.6C269.074 18.32 269.734 18.06 270.374 17.82C270.534 17.74 270.654 17.7 270.734 17.7C270.814 17.7 270.874 17.76 270.914 17.88C270.994 17.96 271.034 18.04 271.034 18.12C271.034 18.48 270.954 19.26 270.794 20.46C270.674 21.62 270.614 23.56 270.614 26.28V56.28C270.614 57.08 270.894 57.62 271.454 57.9C272.014 58.14 272.594 58.36 273.194 58.56C273.514 58.68 273.814 58.82 274.094 58.98C274.414 59.1 274.574 59.32 274.574 59.64C274.574 59.88 274.414 60.02 274.094 60.06C273.814 60.14 273.574 60.18 273.374 60.18C272.614 60.18 271.994 60.14 271.514 60.06C271.074 60.02 270.634 59.98 270.194 59.94C269.794 59.9 269.234 59.88 268.514 59.88C267.834 59.88 267.274 59.9 266.834 59.94C266.394 59.98 265.954 60.02 265.514 60.06C265.074 60.14 264.454 60.18 263.654 60.18ZM278.369 60.18C278.009 60.18 277.709 60.12 277.469 60C277.269 59.92 277.169 59.76 277.169 59.52C277.169 59.2 277.309 58.98 277.589 58.86C277.909 58.74 278.229 58.64 278.549 58.56C279.389 58.36 280.029 58.12 280.469 57.84C280.909 57.52 281.129 57 281.129 56.28V43.26C281.129 42.18 280.929 41.22 280.529 40.38C280.169 39.54 279.469 39.04 278.429 38.88C278.229 38.84 278.069 38.76 277.949 38.64C277.869 38.52 277.829 38.34 277.829 38.1C277.829 37.66 278.009 37.42 278.369 37.38C279.969 37.02 281.289 36.54 282.329 35.94C283.369 35.3 284.149 34.78 284.669 34.38C285.029 34.1 285.309 33.96 285.509 33.96C285.749 33.96 285.869 34.06 285.869 34.26C285.869 34.58 285.809 35.22 285.689 36.18C285.609 37.1 285.529 38.14 285.449 39.3C285.369 40.42 285.329 41.44 285.329 42.36V56.28C285.329 56.96 285.549 57.46 285.989 57.78C286.469 58.1 287.109 58.36 287.909 58.56C288.229 58.64 288.529 58.74 288.809 58.86C289.129 58.98 289.289 59.2 289.289 59.52C289.289 59.96 288.889 60.18 288.089 60.18C287.329 60.18 286.709 60.14 286.229 60.06C285.789 60.02 285.349 59.98 284.909 59.94C284.509 59.9 283.949 59.88 283.229 59.88C282.549 59.88 281.989 59.9 281.549 59.94C281.109 59.98 280.669 60.02 280.229 60.06C279.789 60.14 279.169 60.18 278.369 60.18ZM283.169 29.04C282.329 29.04 281.609 28.76 281.009 28.2C280.449 27.6 280.169 26.88 280.169 26.04C280.169 25.16 280.449 24.44 281.009 23.88C281.609 23.28 282.329 22.98 283.169 22.98C284.049 22.98 284.769 23.28 285.329 23.88C285.929 24.44 286.229 25.16 286.229 26.04C286.229 26.88 285.929 27.6 285.329 28.2C284.769 28.76 284.049 29.04 283.169 29.04ZM293.076 60.18C292.716 60.18 292.416 60.12 292.176 60C291.976 59.92 291.876 59.76 291.876 59.52C291.876 59.2 291.996 59 292.236 58.92C292.476 58.8 292.816 58.68 293.256 58.56C293.856 58.4 294.436 58.18 294.996 57.9C295.556 57.62 295.836 57.08 295.836 56.28V43.38C295.836 42.3 295.716 41.38 295.476 40.62C295.276 39.86 294.656 39.34 293.616 39.06C293.456 38.98 293.316 38.9 293.196 38.82C293.076 38.7 293.016 38.52 293.016 38.28C293.016 37.84 293.196 37.6 293.556 37.56C294.956 37.2 296.096 36.76 296.976 36.24C297.856 35.72 298.716 35.14 299.556 34.5C299.676 34.42 299.776 34.36 299.856 34.32C299.976 34.24 300.096 34.2 300.216 34.2C300.296 34.2 300.356 34.24 300.396 34.32C300.476 34.4 300.516 34.5 300.516 34.62C300.516 34.9 300.456 35.48 300.336 36.36C300.256 37.2 300.216 37.9 300.216 38.46C300.216 38.62 300.216 38.78 300.216 38.94C300.256 39.06 300.296 39.14 300.336 39.18C301.736 37.86 303.216 36.86 304.776 36.18C306.376 35.5 308.116 35.16 309.996 35.16C311.956 35.16 313.576 35.96 314.856 37.56C316.136 39.16 316.776 41.14 316.776 43.5V56.28C316.776 57.08 317.056 57.62 317.616 57.9C318.176 58.14 318.756 58.36 319.356 58.56C319.676 58.68 319.976 58.82 320.256 58.98C320.576 59.1 320.736 59.32 320.736 59.64C320.736 59.88 320.596 60.02 320.316 60.06C320.036 60.14 319.776 60.18 319.536 60.18C318.736 60.18 318.116 60.14 317.676 60.06C317.236 60.02 316.816 59.98 316.416 59.94C316.016 59.9 315.456 59.88 314.736 59.88C314.056 59.88 313.496 59.9 313.056 59.94C312.616 59.98 312.156 60.02 311.676 60.06C311.236 60.14 310.616 60.18 309.816 60.18C309.616 60.18 309.356 60.14 309.036 60.06C308.756 60.02 308.616 59.88 308.616 59.64C308.616 59.32 308.756 59.1 309.036 58.98C309.356 58.82 309.676 58.68 309.996 58.56C310.596 58.36 311.176 58.14 311.736 57.9C312.296 57.62 312.576 57.08 312.576 56.28V43.68C312.576 41.92 312.076 40.56 311.076 39.6C310.116 38.6 308.816 38.08 307.176 38.04C305.736 38.04 304.476 38.28 303.396 38.76C302.316 39.2 301.356 39.76 300.516 40.44C300.356 40.6 300.236 40.82 300.156 41.1C300.076 41.34 300.036 41.58 300.036 41.82V56.28C300.036 57.08 300.316 57.62 300.876 57.9C301.436 58.18 302.016 58.4 302.616 58.56C303.536 58.8 303.996 59.12 303.996 59.52C303.996 59.76 303.896 59.92 303.696 60C303.496 60.12 303.196 60.18 302.796 60.18C301.996 60.18 301.356 60.14 300.876 60.06C300.436 60.02 300.016 59.98 299.616 59.94C299.216 59.9 298.656 59.88 297.936 59.88C297.256 59.88 296.696 59.9 296.256 59.94C295.856 59.98 295.416 60.02 294.936 60.06C294.496 60.14 293.876 60.18 293.076 60.18ZM334.915 60.9C332.715 60.9 330.795 60.36 329.155 59.28C327.515 58.2 326.235 56.68 325.315 54.72C324.395 52.72 323.935 50.42 323.935 47.82C323.935 45.5 324.455 43.4 325.495 41.52C326.575 39.6 327.995 38.06 329.755 36.9C331.515 35.74 333.435 35.16 335.515 35.16C337.115 35.16 338.535 35.48 339.775 36.12C341.015 36.76 341.975 37.66 342.655 38.82C343.375 39.94 343.735 41.24 343.735 42.72C343.735 43.96 343.135 44.58 341.935 44.58H329.275C328.715 44.58 328.315 44.74 328.075 45.06C327.875 45.34 327.775 45.92 327.775 46.8C327.775 48.72 328.195 50.48 329.035 52.08C329.875 53.64 330.995 54.9 332.395 55.86C333.795 56.78 335.335 57.24 337.015 57.24C338.215 57.24 339.295 57.02 340.255 56.58C341.255 56.1 342.135 55.42 342.895 54.54C343.055 54.34 343.175 54.22 343.255 54.18C343.335 54.1 343.435 54.06 343.555 54.06C343.875 54.06 344.035 54.26 344.035 54.66C344.035 55.42 343.675 56.26 342.955 57.18C342.355 57.94 341.635 58.6 340.795 59.16C339.955 59.72 339.035 60.14 338.035 60.42C337.035 60.74 335.995 60.9 334.915 60.9ZM329.395 42.72H334.855C335.815 42.72 336.635 42.7 337.315 42.66C337.995 42.62 338.655 42.54 339.295 42.42C339.495 42.38 339.615 42.26 339.655 42.06C339.735 41.82 339.775 41.5 339.775 41.1C339.775 39.94 339.255 38.96 338.215 38.16C337.215 37.32 336.015 36.9 334.615 36.9C333.695 36.9 332.775 37.18 331.855 37.74C330.935 38.26 330.175 38.92 329.575 39.72C328.975 40.52 328.675 41.32 328.675 42.12C328.675 42.52 328.915 42.72 329.395 42.72ZM382.665 60.18C382.385 60.18 381.945 60.16 381.345 60.12C380.745 60.08 380.065 60.04 379.305 60C378.545 59.96 377.745 59.92 376.905 59.88C376.105 59.84 375.325 59.82 374.565 59.82C373.805 59.82 372.725 59.84 371.325 59.88C369.925 59.92 368.445 59.96 366.885 60C365.365 60 364.025 60.02 362.865 60.06C361.705 60.1 360.965 60.12 360.645 60.12C360.485 60.12 360.245 60 359.925 59.76C359.605 59.48 359.445 59.26 359.445 59.1C359.445 58.9 359.485 58.76 359.565 58.68C359.645 58.6 359.765 58.48 359.925 58.32L370.185 47.7C372.185 45.62 373.845 43.3 375.165 40.74C376.485 38.14 377.145 35.52 377.145 32.88C377.145 30.76 376.505 29.1 375.225 27.9C373.945 26.66 372.445 26.04 370.725 26.04C369.085 26.04 367.565 26.5 366.165 27.42C364.765 28.3 363.645 29.46 362.805 30.9C362.685 31.14 362.525 31.34 362.325 31.5C362.165 31.66 361.985 31.74 361.785 31.74C361.625 31.74 361.425 31.58 361.185 31.26C360.985 30.9 360.885 30.46 360.885 29.94C360.885 29.46 361.165 28.8 361.725 27.96C362.325 27.12 363.145 26.26 364.185 25.38C365.225 24.5 366.465 23.76 367.905 23.16C369.345 22.52 370.905 22.2 372.585 22.2C374.585 22.2 376.305 22.62 377.745 23.46C379.185 24.3 380.285 25.46 381.045 26.94C381.805 28.42 382.185 30.14 382.185 32.1C382.185 33.18 381.985 34.34 381.585 35.58C381.225 36.82 380.705 38.04 380.025 39.24C379.385 40.44 378.645 41.56 377.805 42.6C377.285 43.24 376.505 44.1 375.465 45.18C374.465 46.22 373.365 47.34 372.165 48.54C371.005 49.74 369.885 50.88 368.805 51.96C367.765 53 366.905 53.88 366.225 54.6C365.545 55.28 365.205 55.66 365.205 55.74C365.205 55.94 365.485 56.08 366.045 56.16C366.725 56.2 367.485 56.24 368.325 56.28C369.205 56.32 370.205 56.34 371.325 56.34C372.485 56.34 373.645 56.32 374.805 56.28C375.965 56.24 377.085 56.2 378.165 56.16C379.325 56.08 380.225 55.98 380.865 55.86C381.505 55.74 382.045 55.5 382.485 55.14C382.925 54.74 383.385 54.14 383.865 53.34C384.025 53.1 384.225 52.82 384.465 52.5C384.745 52.14 385.045 51.96 385.365 51.96C385.565 51.96 385.685 52.04 385.725 52.2C385.765 52.36 385.785 52.52 385.785 52.68C385.785 52.88 385.665 53.28 385.425 53.88C385.225 54.44 384.985 55.14 384.705 55.98C384.425 56.82 384.185 57.74 383.985 58.74C383.865 59.38 383.665 59.78 383.385 59.94C383.105 60.1 382.865 60.18 382.665 60.18ZM401.054 60.84C399.014 60.84 397.234 60.28 395.714 59.16C394.234 58.04 392.994 56.56 391.994 54.72C390.994 52.84 390.254 50.78 389.774 48.54C389.294 46.3 389.054 44.08 389.054 41.88C389.054 39.6 389.294 37.3 389.774 34.98C390.254 32.66 390.994 30.54 391.994 28.62C393.034 26.7 394.354 25.16 395.954 24C397.554 22.8 399.454 22.2 401.654 22.2C403.694 22.2 405.454 22.76 406.934 23.88C408.454 25 409.714 26.5 410.714 28.38C411.714 30.22 412.454 32.26 412.934 34.5C413.414 36.7 413.654 38.88 413.654 41.04C413.654 43.28 413.414 45.56 412.934 47.88C412.454 50.2 411.694 52.34 410.654 54.3C409.654 56.26 408.354 57.84 406.754 59.04C405.194 60.24 403.294 60.84 401.054 60.84ZM402.074 59.28C403.674 59.28 404.954 58.48 405.914 56.88C406.914 55.24 407.634 53.12 408.074 50.52C408.514 47.92 408.734 45.12 408.734 42.12C408.734 39.88 408.554 37.68 408.194 35.52C407.874 33.36 407.354 31.4 406.634 29.64C405.954 27.88 405.094 26.48 404.054 25.44C403.054 24.4 401.874 23.88 400.514 23.88C398.914 23.88 397.634 24.66 396.674 26.22C395.754 27.78 395.074 29.86 394.634 32.46C394.234 35.02 394.034 37.8 394.034 40.8C394.034 43.04 394.194 45.26 394.514 47.46C394.874 49.66 395.374 51.66 396.014 53.46C396.694 55.22 397.534 56.64 398.534 57.72C399.534 58.76 400.714 59.28 402.074 59.28ZM440.322 60.18C440.042 60.18 439.602 60.16 439.002 60.12C438.402 60.08 437.722 60.04 436.962 60C436.202 59.96 435.402 59.92 434.562 59.88C433.762 59.84 432.982 59.82 432.222 59.82C431.462 59.82 430.382 59.84 428.982 59.88C427.582 59.92 426.102 59.96 424.542 60C423.022 60 421.682 60.02 420.522 60.06C419.362 60.1 418.622 60.12 418.302 60.12C418.142 60.12 417.902 60 417.582 59.76C417.262 59.48 417.102 59.26 417.102 59.1C417.102 58.9 417.142 58.76 417.222 58.68C417.302 58.6 417.422 58.48 417.582 58.32L427.842 47.7C429.842 45.62 431.502 43.3 432.822 40.74C434.142 38.14 434.802 35.52 434.802 32.88C434.802 30.76 434.162 29.1 432.882 27.9C431.602 26.66 430.102 26.04 428.382 26.04C426.742 26.04 425.222 26.5 423.822 27.42C422.422 28.3 421.302 29.46 420.462 30.9C420.342 31.14 420.182 31.34 419.982 31.5C419.822 31.66 419.642 31.74 419.442 31.74C419.282 31.74 419.082 31.58 418.842 31.26C418.642 30.9 418.542 30.46 418.542 29.94C418.542 29.46 418.822 28.8 419.382 27.96C419.982 27.12 420.802 26.26 421.842 25.38C422.882 24.5 424.122 23.76 425.562 23.16C427.002 22.52 428.562 22.2 430.242 22.2C432.242 22.2 433.962 22.62 435.402 23.46C436.842 24.3 437.942 25.46 438.702 26.94C439.462 28.42 439.842 30.14 439.842 32.1C439.842 33.18 439.642 34.34 439.242 35.58C438.882 36.82 438.362 38.04 437.682 39.24C437.042 40.44 436.302 41.56 435.462 42.6C434.942 43.24 434.162 44.1 433.122 45.18C432.122 46.22 431.022 47.34 429.822 48.54C428.662 49.74 427.542 50.88 426.462 51.96C425.422 53 424.562 53.88 423.882 54.6C423.202 55.28 422.862 55.66 422.862 55.74C422.862 55.94 423.142 56.08 423.702 56.16C424.382 56.2 425.142 56.24 425.982 56.28C426.862 56.32 427.862 56.34 428.982 56.34C430.142 56.34 431.302 56.32 432.462 56.28C433.622 56.24 434.742 56.2 435.822 56.16C436.982 56.08 437.882 55.98 438.522 55.86C439.162 55.74 439.702 55.5 440.142 55.14C440.582 54.74 441.042 54.14 441.522 53.34C441.682 53.1 441.882 52.82 442.122 52.5C442.402 52.14 442.702 51.96 443.022 51.96C443.222 51.96 443.342 52.04 443.382 52.2C443.422 52.36 443.442 52.52 443.442 52.68C443.442 52.88 443.322 53.28 443.082 53.88C442.882 54.44 442.642 55.14 442.362 55.98C442.082 56.82 441.842 57.74 441.642 58.74C441.522 59.38 441.322 59.78 441.042 59.94C440.762 60.1 440.522 60.18 440.322 60.18ZM450.55 62.28C450.11 62.28 449.63 62.22 449.11 62.1C448.59 62.02 448.33 61.84 448.33 61.56C448.33 61.24 448.59 60.96 449.11 60.72C449.67 60.52 450.13 60.42 450.49 60.42C453.65 60.42 456.25 59.86 458.29 58.74C460.37 57.58 461.91 56.14 462.91 54.42C463.95 52.7 464.47 50.98 464.47 49.26C464.47 47.7 464.01 46.32 463.09 45.12C462.17 43.92 460.65 42.82 458.53 41.82C456.45 40.82 453.63 39.86 450.07 38.94C449.55 38.5 449.17 38.06 448.93 37.62C448.73 37.18 448.63 36.7 448.63 36.18C448.63 35.62 448.73 34.94 448.93 34.14C449.17 33.34 449.45 32.5 449.77 31.62C450.09 30.7 450.41 29.8 450.73 28.92C451.05 28.04 451.31 27.28 451.51 26.64C451.71 26.04 452.01 25.58 452.41 25.26C452.81 24.9 453.33 24.64 453.97 24.48C454.89 24.24 455.83 24.02 456.79 23.82C457.75 23.62 458.75 23.44 459.79 23.28C460.83 23.08 461.89 22.92 462.97 22.8C464.09 22.64 465.23 22.5 466.39 22.38C466.71 22.34 466.93 22.44 467.05 22.68C467.21 22.88 467.21 23.12 467.05 23.4C466.89 23.72 466.71 24.06 466.51 24.42C466.35 24.74 466.19 25.06 466.03 25.38C465.75 25.98 465.43 26.44 465.07 26.76C464.75 27.04 464.33 27.22 463.81 27.3C463.05 27.38 462.17 27.48 461.17 27.6C460.17 27.68 459.17 27.78 458.17 27.9C457.17 27.98 456.25 28.06 455.41 28.14C454.57 28.22 453.93 28.3 453.49 28.38C453.21 28.42 452.87 28.78 452.47 29.46C452.07 30.1 451.71 30.8 451.39 31.56C451.07 32.28 450.89 32.8 450.85 33.12C450.81 33.4 450.83 33.64 450.91 33.84C451.03 34.04 451.27 34.18 451.63 34.26C453.87 34.9 455.91 35.56 457.75 36.24C459.59 36.88 461.19 37.56 462.55 38.28C464.79 39.44 466.45 40.82 467.53 42.42C468.65 43.98 469.21 45.98 469.21 48.42C469.21 50.62 468.55 52.68 467.23 54.6C465.91 56.52 464.13 58.12 461.89 59.4C460.81 60 459.67 60.5 458.47 60.9C457.27 61.34 456.01 61.68 454.69 61.92C453.37 62.16 451.99 62.28 450.55 62.28Z" fill="white"/>
<g clip-path="url(#clip0_1_2)">
<path d="M0 39.4264L22 52.4453V29.4322V3L0 39.4264Z" fill="url(#paint0_linear_1_2)"/>
<path d="M22.0001 3.00002V29.4322V52.4453L44.0001 39.4265L22.0001 3.00002Z" fill="url(#paint1_linear_1_2)"/>
<path d="M0 43.6347L22 74.5382V56.522L0 43.6347Z" fill="url(#paint2_linear_1_2)"/>
<path d="M22.0001 56.522V74.5382L44.0001 43.6347L22.0001 56.522Z" fill="url(#paint3_linear_1_2)"/>
</g>
<defs>
<linearGradient id="paint0_linear_1_2" x1="5.12178" y1="44.5338" x2="34.3409" y2="15.2631" gradientUnits="userSpaceOnUse">
<stop stop-color="#F02F9F"/>
<stop offset="1" stop-color="#FFAD00"/>
</linearGradient>
<linearGradient id="paint1_linear_1_2" x1="33.0149" y1="52.4043" x2="33.0149" y2="-2.3427" gradientUnits="userSpaceOnUse">
<stop stop-color="#06FFFF"/>
<stop offset="0.0225704" stop-color="#07F6FD"/>
<stop offset="0.1481" stop-color="#0AC7F2"/>
<stop offset="0.278" stop-color="#0D9FE9"/>
<stop offset="0.4102" stop-color="#0F7EE2"/>
<stop offset="0.5457" stop-color="#1164DC"/>
<stop offset="0.6857" stop-color="#1252D8"/>
<stop offset="0.8331" stop-color="#1347D6"/>
<stop offset="1" stop-color="#1344D5"/>
</linearGradient>
<linearGradient id="paint2_linear_1_2" x1="-0.0131737" y1="59.0653" x2="22.0011" y2="59.0653" gradientUnits="userSpaceOnUse">
<stop stop-color="#06FFFF"/>
<stop offset="0.1076" stop-color="#07F5FD"/>
<stop offset="0.2899" stop-color="#09DAF7"/>
<stop offset="0.5246" stop-color="#0CAFED"/>
<stop offset="0.7995" stop-color="#1074E0"/>
<stop offset="1" stop-color="#1344D5"/>
</linearGradient>
<linearGradient id="paint3_linear_1_2" x1="22.0012" y1="59.0653" x2="44.0286" y2="59.0653" gradientUnits="userSpaceOnUse">
<stop stop-color="#F02F9F"/>
<stop offset="1" stop-color="#FFAD00"/>
</linearGradient>
<clipPath id="clip0_1_2">
<rect width="44" height="72" fill="white" transform="translate(0 3)"/>
</clipPath>
</defs>
</svg>
