<?xml version="1.0" encoding="utf-8"?>
<!-- Generator: Adobe Illustrator 29.7.1, SVG Export Plug-In . SVG Version: 9.03 Build 0)  -->
<svg version="1.0" id="Capa_1" xmlns="http://www.w3.org/2000/svg" xmlns:xlink="http://www.w3.org/1999/xlink" x="0px" y="0px"
	 viewBox="0 0 2399 606" style="enable-background:new 0 0 2399 606;" xml:space="preserve">
<style type="text/css">
	.st0{fill:#FFFFFF;}
</style>
<g transform="translate(0.000000,606.000000) scale(0.100000,-0.100000)">
	<path class="st0" d="M17670,6051c-80-17-156-85-178-160c-8-25-12-142-12-350v-311h829c457,0,832,3,834,8c3,4-62,164-144,356
		c-157,369-172,395-254,439c-39,22-48,22-540,24C17930,6057,17689,6055,17670,6051z"/>
	<path class="st0" d="M22765,6051c-16-4-43-15-60-23c-70-37-90-73-243-433c-82-192-147-353-145-357c2-5,377-8,834-8h829v313
		c0,189-4,327-11,350c-13,47-69,111-123,140c-40,22-48,22-546,24C23022,6058,22782,6055,22765,6051z"/>
	<path class="st0" d="M165,6029c-43-12-112-73-138-123c-21-40-22-50-22-356v-315l2109-3c1681-2,2111,0,2118,10c4,7,8,149,8,316
		c0,232-3,310-13,335c-22,52-68,98-122,123l-50,24l-1930-1C1040,6039,182,6034,165,6029z"/>
	<path class="st0" d="M5131,6026c-50-18-106-70-131-121c-39-80-28-141,77-425l91-245l606-3c453-2,606,1,606,9c0,17-217,645-234,677
		c-21,40-65,78-116,101c-43,20-63,21-455,20C5279,6039,5156,6035,5131,6026z"/>
	<path class="st0" d="M9530,6013c-30-16-66-44-82-63c-18-24-65-144-143-369c-63-184-115-338-115-343c0-4,273-7,607-6l606,3l95,255
		c107,287,115,336,74,416c-27,52-90,107-141,122c-26,8-165,12-443,12h-404L9530,6013z"/>
	<path class="st0" d="M11240,6019c-58-26-87-53-116-111c-42-83-36-125,61-390c47-128,90-245,96-260l11-28h604c476,0,604,3,604,13
		c0,6-50,161-112,342c-113,330-113,330-163,380c-32,32-65,55-91,63c-30,9-157,12-445,12C11304,6040,11283,6039,11240,6019z"/>
	<path class="st0" d="M15679,6026c-55-19-96-53-123-99c-19-32-246-673-246-693c0-2,273-3,607-2l608,3l94,255c51,140,96,274,98,296
		c8,62-20,133-70,182c-73,71-78,72-531,72C15815,6039,15706,6036,15679,6026z"/>
	<path class="st0" d="M6,4734c-3-8-6-172-6-364c0-281,3-350,14-359c9-8,169-10,577-9l564,3v370v370l-571,3C69,4750,12,4749,6,4734z"
		/>
	<path class="st0" d="M5360,4731c0-22,247-701,262-718c8-10,138-13,590-13c507,0,579,2,584,15c4,8-49,176-117,373l-124,357l-597,3
		C5378,4750,5360,4750,5360,4731z"/>
	<path class="st0" d="M9015,4738c-60-160-244-715-241-725c4-11,112-13,583-13c318,0,583,4,589,8c15,9,275,722,268,733
		c-3,5-260,9-600,9C9147,4750,9018,4747,9015,4738z"/>
	<path class="st0" d="M11480,4731c0-22,247-701,262-718c8-10,139-13,594-13h584v22c0,20-222,674-241,711c-9,16-48,17-604,17
		C11501,4750,11480,4749,11480,4731z"/>
	<path class="st0" d="M15135,4733c-51-133-245-716-240-723c7-12,1154-14,1171-2c15,10,275,722,268,733c-3,5-254,9-599,9
		C15180,4750,15142,4749,15135,4733z"/>
	<path class="st0" d="M17485,4737c-3-6-4-174-3-372l3-360l1084-3c597-1,1089,2,1093,6c8,8-281,701-303,729
		C19343,4756,17492,4757,17485,4737z"/>
	<path class="st0" d="M22102,4738c-22-27-311-723-304-730c4-4,496-7,1093-6l1084,3v370v370l-931,3C22306,4750,22110,4747,22102,4738
		z"/>
	<path class="st0" d="M12,3518c-19-19-17-881,2-897c10-8,448-10,1669-9l1655,3l39,31c21,17,49,53,63,80c25,48,25,49,25,339
		c0,264-2,293-19,325c-26,49-64,88-111,113l-40,22l-1635,3C389,3530,22,3528,12,3518z"/>
	<path class="st0" d="M5810,3508c0-24,306-866,322-885c8-10,135-13,575-13c490,0,564,2,569,15c5,12-244,755-292,873l-13,32h-580
		h-581V3508z"/>
	<path class="st0" d="M8604,3522c-16-10-316-882-310-899c4-11,111-13,575-13c333,0,572,4,575,9c19,30,326,887,322,898
		c-4,10-119,13-578,13C8873,3530,8610,3526,8604,3522z"/>
	<path class="st0" d="M11925,3521c-6-10,298-852,321-888l14-23h570h570v21c0,24-288,867-303,887c-7,9-137,12-588,12
		C12163,3530,11929,3526,11925,3521z"/>
	<path class="st0" d="M14722,3517c-18-21-314-886-307-897c7-12,1124-14,1141-2c16,10,337,890,329,902c-4,7-203,10-579,10
		C14847,3530,14730,3527,14722,3517z"/>
	<path class="st0" d="M17485,3518c-3-7-4-213-3-458l3-445l564-3c408-1,568,1,577,9c10,8,14,36,14,88c0,63,5,87,26,129
		c60,122,220,167,340,97c56-33,76-62,130-192c25-59,50-113,56-120c8-10,117-13,534-13c324,0,525,4,529,10c6,9-357,873-377,897
		C19863,3536,17492,3536,17485,3518z"/>
	<path class="st0" d="M21582,3518c-19-25-382-889-377-899c10-15,1050-12,1063,4c5,6,31,63,58,126c54,131,94,179,169,205
		c59,20,98,20,159,2c109-33,166-118,166-247c0-52,4-80,14-88c9-8,169-10,577-9l564,3v455v455l-1191,3
		C21838,3530,21590,3527,21582,3518z"/>
	<path class="st0" d="M11,2126c-8-9-11-125-9-412l3-399l578-3l577-2l-2,412l-3,413l-566,3C118,2140,21,2138,11,2126z"/>
	<path class="st0" d="M6320,2118c0-13,65-198,144-413l143-390l1181-3l1180-2l10,27c5,16,71,196,147,402c75,205,134,379,131,387
		c-5,12-95,14-563,14c-307,0-563-4-569-8c-7-4-36-76-65-161c-32-95-65-170-84-195c-84-113-258-124-359-23c-37,38-49,62-100,209
		c-33,94-65,169-73,172s-264,6-569,6h-554V2118z"/>
	<path class="st0" d="M12435,2130c-6-9,260-754,286-802c9-17,72-18,1187-16l1177,3l147,400c82,220,146,406,143,413
		c-3,9-126,12-564,12h-561l-13-22c-8-13-36-87-62-165c-53-157-85-207-159-245c-60-32-155-31-221,2c-69,36-102,89-159,260
		c-27,80-53,151-59,158C13565,2144,12445,2146,12435,2130z"/>
	<path class="st0" d="M17487,2133c-4-3-7-190-7-415v-408l578,2l577,3l3,399c1,286-1,403-9,412c-9,12-111,14-574,14
		C17746,2140,17490,2137,17487,2133z"/>
	<path class="st0" d="M19404,2127c-4-11,305-766,329-804c6-10,217-13,997-13c967,0,990,0,1000,19c35,66,329,788,325,798
		c-3,11-111,13-532,11l-528-3l-32-64c-40-80-75-118-133-144c-87-39-209-18-270,47c-14,15-41,57-60,94l-35,67l-528,3
		C19507,2140,19409,2138,19404,2127z"/>
	<path class="st0" d="M22831,2126c-8-9-11-125-9-412l3-399l578-3l577-2l-2,412l-3,413l-566,3C22938,2140,22841,2138,22831,2126z"/>
	<path class="st0" d="M6,814c-11-28-7-570,5-623C25,123,66,71,131,35l54-29h1940c1864,0,1941,1,1978,19c50,24,96,70,118,120
		c17,36,19,71,19,343c0,190-4,311-10,323c-11,19-45,19-2114,19C207,830,12,829,6,814z"/>
	<path class="st0" d="M6798,824c-4-3,4-36,17-72c32-94,204-560,221-602c19-45,68-96,119-123c40-22,44-22,635-22s595,0,635,22
		c88,47,97,65,231,429c68,186,124,347,124,356c0,17-52,18-988,18C7248,830,6801,827,6798,824z"/>
	<path class="st0" d="M12914,817c-5-14,226-653,254-702c27-45,95-92,152-104c67-14,1107-15,1170,0c59,13,114,51,143,97
		c30,48,269,700,262,713c-4,5-390,9-991,9C13105,830,12918,828,12914,817z"/>
	<path class="st0" d="M17484,817c-3-8-4-153-2-324l3-310l30-49c19-30,49-60,79-79l49-30l391-3c277-2,403,0,433,9
		c53,14,117,68,146,123c21,40,22,50,22,356v315l-573,3C17591,830,17489,828,17484,817z"/>
	<path class="st0" d="M19950,813c0-28,270-665,296-700c14-18,46-45,72-60l47-28h365h365l44,25c24,14,56,41,71,60
		c28,35,300,676,300,705c0,13-84,15-780,15C20001,830,19950,829,19950,813z"/>
	<path class="st0" d="M22825,807c-4-13-5-156-3-318c3-280,4-296,25-335c28-52,79-97,135-118c38-15,89-17,439-14l396,3l49,30
		c30,19,60,49,79,79l30,49v321v321l-572,3l-573,2L22825,807z"/>
</g>
</svg>
