<?xml version="1.0" encoding="us-ascii" standalone="no"?><svg xmlns="http://www.w3.org/2000/svg" xmlns:xlink="http://www.w3.org/1999/xlink" contentStyleType="text/css" height="949px" preserveAspectRatio="none" style="width:627px;height:949px;background:#FFFFFF;" version="1.1" viewBox="0 0 627 949" width="627px" zoomAndPan="magnify"><defs/><g><text fill="#000000" font-family="sans-serif" font-size="14" font-weight="bold" lengthAdjust="spacing" textLength="305" x="157" y="27.9951">Generic Flow of a Transaction in EVVM</text><rect fill="#FFFFFF" height="191.6641" style="stroke:#181818;stroke-width:1.0;" width="10" x="19" y="128.5938"/><rect fill="#FFAC62" height="730.7891" style="stroke:#181818;stroke-width:1.0;" width="10" x="174" y="128.5938"/><rect fill="#FFFFFF" height="144.5313" style="stroke:#181818;stroke-width:1.0;" width="10" x="304" y="457.9219"/><rect fill="#00EE20" height="240.9297" style="stroke:#181818;stroke-width:1.0;" width="10" x="462" y="602.4531"/><rect fill="#F5B7B1" height="59.2656" style="stroke:#000000;stroke-width:1.5;" width="232" x="271" y="515.0547"/><rect fill="#F5B7B1" height="46.2656" style="stroke:#000000;stroke-width:1.5;" width="238" x="271" y="702.7188"/><rect fill="#6495ED" height="46.2656" style="stroke:#000000;stroke-width:1.5;" width="238" x="271" y="805.1172"/><line style="stroke:#181818;stroke-width:0.5;stroke-dasharray:5.0,5.0;" x1="24" x2="24" y1="118.5938" y2="868.3828"/><line style="stroke:#181818;stroke-width:0.5;stroke-dasharray:5.0,5.0;" x1="178.5" x2="178.5" y1="118.5938" y2="868.3828"/><line style="stroke:#181818;stroke-width:0.5;stroke-dasharray:5.0,5.0;" x1="309" x2="309" y1="118.5938" y2="868.3828"/><line style="stroke:#181818;stroke-width:0.5;stroke-dasharray:5.0,5.0;" x1="467" x2="467" y1="118.5938" y2="868.3828"/><text fill="#000000" font-family="sans-serif" font-size="14" lengthAdjust="spacing" textLength="32" x="5" y="115.292">User</text><ellipse cx="24" cy="50.7969" fill="#E2E2F0" rx="8" ry="8" style="stroke:#181818;stroke-width:0.5;"/><path d="M24,58.7969 L24,85.7969 M11,66.7969 L37,66.7969 M24,85.7969 L11,100.7969 M24,85.7969 L37,100.7969 " fill="none" style="stroke:#181818;stroke-width:0.5;"/><text fill="#000000" font-family="sans-serif" font-size="14" lengthAdjust="spacing" textLength="32" x="5" y="880.3779">User</text><ellipse cx="24" cy="892.1797" fill="#E2E2F0" rx="8" ry="8" style="stroke:#181818;stroke-width:0.5;"/><path d="M24,900.1797 L24,927.1797 M11,908.1797 L37,908.1797 M24,927.1797 L11,942.1797 M24,927.1797 L37,942.1797 " fill="none" style="stroke:#181818;stroke-width:0.5;"/><rect fill="#FFAC62" height="30.2969" rx="2.5" ry="2.5" style="stroke:#181818;stroke-width:0.5;" width="99" x="129.5" y="87.2969"/><text fill="#000000" font-family="sans-serif" font-size="14" lengthAdjust="spacing" textLength="85" x="136.5" y="107.292">Fishing Spot</text><rect fill="#FFAC62" height="30.2969" rx="2.5" ry="2.5" style="stroke:#181818;stroke-width:0.5;" width="99" x="129.5" y="867.3828"/><text fill="#000000" font-family="sans-serif" font-size="14" lengthAdjust="spacing" textLength="85" x="136.5" y="887.3779">Fishing Spot</text><rect fill="#E2E2F0" height="30.2969" rx="2.5" ry="2.5" style="stroke:#181818;stroke-width:0.5;" width="56" x="281" y="87.2969"/><text fill="#000000" font-family="sans-serif" font-size="14" lengthAdjust="spacing" textLength="42" x="288" y="107.292">Fisher</text><rect fill="#E2E2F0" height="30.2969" rx="2.5" ry="2.5" style="stroke:#181818;stroke-width:0.5;" width="56" x="281" y="867.3828"/><text fill="#000000" font-family="sans-serif" font-size="14" lengthAdjust="spacing" textLength="42" x="288" y="887.3779">Fisher</text><rect fill="#00EE20" height="62.8906" rx="2.5" ry="2.5" style="stroke:#181818;stroke-width:0.5;" width="64" x="435" y="54.7031"/><text fill="#000000" font-family="sans-serif" font-size="14" lengthAdjust="spacing" textLength="39" x="447.5" y="74.6982">EVVM</text><text fill="#000000" font-family="sans-serif" font-size="14" lengthAdjust="spacing" textLength="14" x="460" y="90.9951">or</text><text fill="#000000" font-family="sans-serif" font-size="14" lengthAdjust="spacing" textLength="50" x="442" y="107.292">Service</text><rect fill="#00EE20" height="62.8906" rx="2.5" ry="2.5" style="stroke:#181818;stroke-width:0.5;" width="64" x="435" y="867.3828"/><text fill="#000000" font-family="sans-serif" font-size="14" lengthAdjust="spacing" textLength="39" x="447.5" y="887.3779">EVVM</text><text fill="#000000" font-family="sans-serif" font-size="14" lengthAdjust="spacing" textLength="14" x="460" y="903.6748">or</text><text fill="#000000" font-family="sans-serif" font-size="14" lengthAdjust="spacing" textLength="50" x="442" y="919.9717">Service</text><rect fill="#FFFFFF" height="191.6641" style="stroke:#181818;stroke-width:1.0;" width="10" x="19" y="128.5938"/><rect fill="#FFAC62" height="730.7891" style="stroke:#181818;stroke-width:1.0;" width="10" x="174" y="128.5938"/><rect fill="#FFFFFF" height="144.5313" style="stroke:#181818;stroke-width:1.0;" width="10" x="304" y="457.9219"/><rect fill="#00EE20" height="240.9297" style="stroke:#181818;stroke-width:1.0;" width="10" x="462" y="602.4531"/><rect fill="#EEEEEE" height="3" style="stroke:#EEEEEE;stroke-width:1.0;" width="620" x="0" y="149.1602"/><line style="stroke:#000000;stroke-width:1.0;" x1="0" x2="620" y1="149.1602" y2="149.1602"/><line style="stroke:#000000;stroke-width:1.0;" x1="0" x2="620" y1="152.1602" y2="152.1602"/><rect fill="#EEEEEE" height="23.1328" style="stroke:#000000;stroke-width:2.0;" width="247" x="186.5" y="138.5938"/><text fill="#000000" font-family="sans-serif" font-size="13" font-weight="bold" lengthAdjust="spacing" textLength="228" x="192.5" y="154.6606">Transaction Creation &amp; Signing</text><line style="stroke:#181818;stroke-width:1.0;" x1="29" x2="71" y1="192.8594" y2="192.8594"/><line style="stroke:#181818;stroke-width:1.0;" x1="71" x2="71" y1="192.8594" y2="205.8594"/><line style="stroke:#181818;stroke-width:1.0;" x1="30" x2="71" y1="205.8594" y2="205.8594"/><polygon fill="#181818" points="40,201.8594,30,205.8594,40,209.8594,36,205.8594" style="stroke:#181818;stroke-width:1.0;"/><text fill="#000000" font-family="sans-serif" font-size="13" lengthAdjust="spacing" textLength="131" x="36" y="187.7935">Prepare input values</text><line style="stroke:#181818;stroke-width:1.0;" x1="29" x2="71" y1="234.9922" y2="234.9922"/><line style="stroke:#181818;stroke-width:1.0;" x1="71" x2="71" y1="234.9922" y2="247.9922"/><line style="stroke:#181818;stroke-width:1.0;" x1="30" x2="71" y1="247.9922" y2="247.9922"/><polygon fill="#181818" points="40,243.9922,30,247.9922,40,251.9922,36,247.9922" style="stroke:#181818;stroke-width:1.0;"/><text fill="#000000" font-family="sans-serif" font-size="13" lengthAdjust="spacing" textLength="106" x="36" y="229.9263">Sign Transaction</text><rect fill="#EEEEEE" height="3" style="stroke:#EEEEEE;stroke-width:1.0;" width="620" x="0" y="276.5586"/><line style="stroke:#000000;stroke-width:1.0;" x1="0" x2="620" y1="276.5586" y2="276.5586"/><line style="stroke:#000000;stroke-width:1.0;" x1="0" x2="620" y1="279.5586" y2="279.5586"/><rect fill="#EEEEEE" height="23.1328" style="stroke:#000000;stroke-width:2.0;" width="184" x="218" y="265.9922"/><text fill="#000000" font-family="sans-serif" font-size="13" font-weight="bold" lengthAdjust="spacing" textLength="165" x="224" y="282.0591">Broadcast Transaction</text><polygon fill="#181818" points="162,316.2578,172,320.2578,162,324.2578,166,320.2578" style="stroke:#181818;stroke-width:1.0;"/><line style="stroke:#181818;stroke-width:1.0;" x1="24" x2="168" y1="320.2578" y2="320.2578"/><text fill="#000000" font-family="sans-serif" font-size="13" lengthAdjust="spacing" textLength="111" x="31" y="315.1919">Send Transaction</text><path d="M60,333.2578 L60,388.2578 L169,388.2578 L169,343.2578 L159,333.2578 L60,333.2578 " fill="#FEFFDD" style="stroke:#181818;stroke-width:0.5;"/><path d="M159,333.2578 L159,343.2578 L169,343.2578 L159,333.2578 " fill="#FEFFDD" style="stroke:#181818;stroke-width:0.5;"/><text fill="#000000" font-family="sans-serif" font-size="13" lengthAdjust="spacing" textLength="72" x="66" y="350.3247">User sends</text><text fill="#000000" font-family="sans-serif" font-size="13" lengthAdjust="spacing" textLength="77" x="66" y="365.4575">input values</text><text fill="#000000" font-family="sans-serif" font-size="13" lengthAdjust="spacing" textLength="88" x="66" y="380.5903">and signature</text><rect fill="#EEEEEE" height="3" style="stroke:#EEEEEE;stroke-width:1.0;" width="620" x="0" y="414.2227"/><line style="stroke:#000000;stroke-width:1.0;" x1="0" x2="620" y1="414.2227" y2="414.2227"/><line style="stroke:#000000;stroke-width:1.0;" x1="0" x2="620" y1="417.2227" y2="417.2227"/><rect fill="#EEEEEE" height="23.1328" style="stroke:#000000;stroke-width:2.0;" width="223" x="198.5" y="403.6563"/><text fill="#000000" font-family="sans-serif" font-size="13" font-weight="bold" lengthAdjust="spacing" textLength="204" x="204.5" y="419.7231">Fisher Capture &amp; Validation</text><polygon fill="#181818" points="195,453.9219,185,457.9219,195,461.9219,191,457.9219" style="stroke:#181818;stroke-width:1.0;"/><line style="stroke:#181818;stroke-width:1.0;" x1="189" x2="303" y1="457.9219" y2="457.9219"/><text fill="#000000" font-family="sans-serif" font-size="13" lengthAdjust="spacing" textLength="101" x="201" y="452.856">Get Transaction</text><line style="stroke:#181818;stroke-width:1.0;" x1="314" x2="356" y1="487.0547" y2="487.0547"/><line style="stroke:#181818;stroke-width:1.0;" x1="356" x2="356" y1="487.0547" y2="500.0547"/><line style="stroke:#181818;stroke-width:1.0;" x1="315" x2="356" y1="500.0547" y2="500.0547"/><polygon fill="#181818" points="325,496.0547,315,500.0547,325,504.0547,321,500.0547" style="stroke:#181818;stroke-width:1.0;"/><text fill="#000000" font-family="sans-serif" font-size="13" lengthAdjust="spacing" textLength="117" x="321" y="481.9888">Check Transaction</text><path d="M271,515.0547 L335,515.0547 L335,522.1875 L325,532.1875 L271,532.1875 L271,515.0547 " fill="#EEEEEE" style="stroke:#000000;stroke-width:1.5;"/><rect fill="none" height="59.2656" style="stroke:#000000;stroke-width:1.5;" width="232" x="271" y="515.0547"/><text fill="#000000" font-family="sans-serif" font-size="13" font-weight="bold" lengthAdjust="spacing" textLength="19" x="286" y="528.1216">alt</text><text fill="#000000" font-family="sans-serif" font-size="11" font-weight="bold" lengthAdjust="spacing" textLength="148" x="350" y="527.2651">[Transaction is invalid]</text><line style="stroke:#181818;stroke-width:1.0;" x1="314" x2="356" y1="553.3203" y2="553.3203"/><line style="stroke:#181818;stroke-width:1.0;" x1="356" x2="356" y1="553.3203" y2="566.3203"/><line style="stroke:#181818;stroke-width:1.0;" x1="327" x2="356" y1="566.3203" y2="566.3203"/><line style="stroke:#181818;stroke-width:2.0;" x1="320" x2="330" y1="561.3203" y2="571.3203"/><line style="stroke:#181818;stroke-width:2.0;" x1="320" x2="330" y1="571.3203" y2="561.3203"/><text fill="#000000" font-family="sans-serif" font-size="13" lengthAdjust="spacing" textLength="109" x="321" y="548.2544">Drop Transaction</text><polygon fill="#181818" points="450,598.4531,460,602.4531,450,606.4531,454,602.4531" style="stroke:#181818;stroke-width:1.0;"/><line style="stroke:#181818;stroke-width:1.0;" x1="309" x2="456" y1="602.4531" y2="602.4531"/><text fill="#000000" font-family="sans-serif" font-size="13" lengthAdjust="spacing" textLength="129" x="316" y="597.3872">Execute Transaction</text><rect fill="#EEEEEE" height="3" style="stroke:#EEEEEE;stroke-width:1.0;" width="620" x="0" y="631.0195"/><line style="stroke:#000000;stroke-width:1.0;" x1="0" x2="620" y1="631.0195" y2="631.0195"/><line style="stroke:#000000;stroke-width:1.0;" x1="0" x2="620" y1="634.0195" y2="634.0195"/><rect fill="#EEEEEE" height="23.1328" style="stroke:#000000;stroke-width:2.0;" width="175" x="222.5" y="620.4531"/><text fill="#000000" font-family="sans-serif" font-size="13" font-weight="bold" lengthAdjust="spacing" textLength="156" x="228.5" y="636.52">Execution &amp; Rewards</text><line style="stroke:#181818;stroke-width:1.0;" x1="472" x2="514" y1="674.7188" y2="674.7188"/><line style="stroke:#181818;stroke-width:1.0;" x1="514" x2="514" y1="674.7188" y2="687.7188"/><line style="stroke:#181818;stroke-width:1.0;" x1="473" x2="514" y1="687.7188" y2="687.7188"/><polygon fill="#181818" points="483,683.7188,473,687.7188,483,691.7188,479,687.7188" style="stroke:#181818;stroke-width:1.0;"/><text fill="#000000" font-family="sans-serif" font-size="13" lengthAdjust="spacing" textLength="114" x="479" y="669.6528">Verify Transaction</text><path d="M271,702.7188 L335,702.7188 L335,709.8516 L325,719.8516 L271,719.8516 L271,702.7188 " fill="#EEEEEE" style="stroke:#000000;stroke-width:1.5;"/><rect fill="none" height="46.2656" style="stroke:#000000;stroke-width:1.5;" width="238" x="271" y="702.7188"/><text fill="#000000" font-family="sans-serif" font-size="13" font-weight="bold" lengthAdjust="spacing" textLength="19" x="286" y="715.7856">alt</text><text fill="#000000" font-family="sans-serif" font-size="11" font-weight="bold" lengthAdjust="spacing" textLength="148" x="350" y="714.9292">[Transaction is invalid]</text><line style="stroke:#181818;stroke-width:2.0;" x1="316" x2="326" y1="735.9844" y2="745.9844"/><line style="stroke:#181818;stroke-width:2.0;" x1="316" x2="326" y1="745.9844" y2="735.9844"/><line style="stroke:#181818;stroke-width:1.0;" x1="321" x2="461" y1="740.9844" y2="740.9844"/><text fill="#000000" font-family="sans-serif" font-size="13" lengthAdjust="spacing" textLength="117" x="326" y="735.9185">Reject Transaction</text><line style="stroke:#181818;stroke-width:1.0;" x1="472" x2="514" y1="777.1172" y2="777.1172"/><line style="stroke:#181818;stroke-width:1.0;" x1="514" x2="514" y1="777.1172" y2="790.1172"/><line style="stroke:#181818;stroke-width:1.0;" x1="473" x2="514" y1="790.1172" y2="790.1172"/><polygon fill="#181818" points="483,786.1172,473,790.1172,483,794.1172,479,790.1172" style="stroke:#181818;stroke-width:1.0;"/><text fill="#000000" font-family="sans-serif" font-size="13" lengthAdjust="spacing" textLength="129" x="479" y="772.0513">Execute Transaction</text><path d="M271,805.1172 L335,805.1172 L335,812.25 L325,822.25 L271,822.25 L271,805.1172 " fill="#EEEEEE" style="stroke:#000000;stroke-width:1.5;"/><rect fill="none" height="46.2656" style="stroke:#000000;stroke-width:1.5;" width="238" x="271" y="805.1172"/><text fill="#000000" font-family="sans-serif" font-size="13" font-weight="bold" lengthAdjust="spacing" textLength="19" x="286" y="818.1841">alt</text><text fill="#000000" font-family="sans-serif" font-size="11" font-weight="bold" lengthAdjust="spacing" textLength="121" x="350" y="817.3276">[Fisher is a staker]</text><polygon fill="#181818" points="320,839.3828,310,843.3828,320,847.3828,316,843.3828" style="stroke:#181818;stroke-width:1.0;"/><line style="stroke:#181818;stroke-width:1.0;" x1="314" x2="466" y1="843.3828" y2="843.3828"/><text fill="#000000" font-family="sans-serif" font-size="13" lengthAdjust="spacing" textLength="83" x="326" y="838.3169">Send Reward</text><!--SRC=[dL8zRzim4DtvAmuEqAse6pGfQiG16aNsLA286qzUBjGfPgsG0ad92Oh-znwfM2RZJ5q4YdXyNtTNphyqT2qg8xidqXx-280RbBkbDPsk2jCO2_kjyYJ-YgjFhsY1qlFzvDwHdG0wwFW0eaNhbLGjCizaeTnMwKTOjSP7J3rSX7yuMoo-5vVdfozU-UYPPCSIEQ1ShtzijB4RlIBRAqa3jk-Vu6mwBSlpgH1U-OPWIPgiah1ep1vC3GY_B6h7jfNHe3G4gXX3zUZfNMzYFizU5POm7Zx0IZtga6q-Fr8C5SJln-luDuEVbZW0iM3RUUYnwSYzWGIgL2RAtbY3bKJdCmEiDZvE33C7wIhZq8ODDLJxa3s3Xec1OxpRwDJLHYDpE3Q3lhCaAdeJBFeQ9WG5jW74HQonKHMExeGu3Ex4uvAoCCVUnb6dJm_d6HHRahlyPSCpgYyUlZvypgVgkES-6E8L1ZZIFITqjzQq6HjNaRiEwpI3CjvGFfcabD5r4YJRGsvhu1WsvexsQ2iNMuh0KMdDYrg__5V2o9EckwFV9Fr9lbpmtMXHylBBjulozZ1bLaDm7dTa4xbqDd7lXcGHaVOJm4EvGlm3]--></g></svg>