<?xml version="1.0" encoding="us-ascii" standalone="no"?><svg xmlns="http://www.w3.org/2000/svg" xmlns:xlink="http://www.w3.org/1999/xlink" contentStyleType="text/css" height="1260px" preserveAspectRatio="none" style="width:880px;height:1260px;background:#FFFFFF;" version="1.1" viewBox="0 0 880 1260" width="880px" zoomAndPan="magnify"><defs/><g><text fill="#000000" font-family="sans-serif" font-size="14" font-weight="bold" lengthAdjust="spacing" textLength="249" x="316.5" y="27.9951">goldenStaking() Unstaking Flow</text><text fill="#000000" font-family="sans-serif" font-size="14" font-weight="bold" lengthAdjust="spacing" textLength="285" x="298.5" y="44.292">(Happy Path - Successful Execution)</text><rect fill="#FFFFFF" height="81.6641" style="stroke:#181818;stroke-width:1.0;" width="10" x="51" y="144.8906"/><rect fill="#FFD700" height="927.8516" style="stroke:#181818;stroke-width:1.0;" width="10" x="204" y="226.5547"/><rect fill="#00EE20" height="35.1328" style="stroke:#181818;stroke-width:1.0;" width="10" x="618" y="512.1484"/><rect fill="#00EE20" height="86.3984" style="stroke:#181818;stroke-width:1.0;" width="10" x="618" y="840.8125"/><rect fill="#00EE20" height="71.2656" style="stroke:#181818;stroke-width:1.0;" width="10" x="618" y="1083.1406"/><rect fill="#FFFFFF" height="175.6016" style="stroke:#000000;stroke-width:1.5;" width="706.5" x="166.5" y="401.4844"/><rect fill="#FFFFFF" height="14.8047" style="stroke:none;stroke-width:1.0;" width="706.5" x="166.5" y="562.2813"/><rect fill="#FFFFFF" height="220.1953" style="stroke:#000000;stroke-width:1.5;" width="586.5" x="166.5" y="942.2109"/><line style="stroke:#181818;stroke-width:0.5;stroke-dasharray:5.0,5.0;" x1="56" x2="56" y1="134.8906" y2="1179.4063"/><line style="stroke:#181818;stroke-width:0.5;stroke-dasharray:5.0,5.0;" x1="208.5" x2="208.5" y1="134.8906" y2="1179.4063"/><line style="stroke:#181818;stroke-width:0.5;stroke-dasharray:5.0,5.0;" x1="622.5" x2="622.5" y1="134.8906" y2="1179.4063"/><text fill="#000000" font-family="sans-serif" font-size="14" lengthAdjust="spacing" textLength="96" x="5" y="131.5889">Golden Fisher</text><ellipse cx="56" cy="67.0938" fill="#E2E2F0" rx="8" ry="8" style="stroke:#181818;stroke-width:0.5;"/><path d="M56,75.0938 L56,102.0938 M43,83.0938 L69,83.0938 M56,102.0938 L43,117.0938 M56,102.0938 L69,117.0938 " fill="none" style="stroke:#181818;stroke-width:0.5;"/><text fill="#000000" font-family="sans-serif" font-size="14" lengthAdjust="spacing" textLength="96" x="5" y="1191.4014">Golden Fisher</text><ellipse cx="56" cy="1203.2031" fill="#E2E2F0" rx="8" ry="8" style="stroke:#181818;stroke-width:0.5;"/><path d="M56,1211.2031 L56,1238.2031 M43,1219.2031 L69,1219.2031 M56,1238.2031 L43,1253.2031 M56,1238.2031 L69,1253.2031 " fill="none" style="stroke:#181818;stroke-width:0.5;"/><rect fill="#FFD700" height="30.2969" rx="2.5" ry="2.5" style="stroke:#181818;stroke-width:0.5;" width="65" x="176.5" y="103.5938"/><text fill="#000000" font-family="sans-serif" font-size="14" lengthAdjust="spacing" textLength="51" x="183.5" y="123.5889">Staking</text><rect fill="#FFD700" height="30.2969" rx="2.5" ry="2.5" style="stroke:#181818;stroke-width:0.5;" width="65" x="176.5" y="1178.4063"/><text fill="#000000" font-family="sans-serif" font-size="14" lengthAdjust="spacing" textLength="51" x="183.5" y="1198.4014">Staking</text><rect fill="#00EE20" height="30.2969" rx="2.5" ry="2.5" style="stroke:#181818;stroke-width:0.5;" width="53" x="596.5" y="103.5938"/><text fill="#000000" font-family="sans-serif" font-size="14" lengthAdjust="spacing" textLength="39" x="603.5" y="123.5889">EVVM</text><rect fill="#00EE20" height="30.2969" rx="2.5" ry="2.5" style="stroke:#181818;stroke-width:0.5;" width="53" x="596.5" y="1178.4063"/><text fill="#000000" font-family="sans-serif" font-size="14" lengthAdjust="spacing" textLength="39" x="603.5" y="1198.4014">EVVM</text><rect fill="#FFFFFF" height="81.6641" style="stroke:#181818;stroke-width:1.0;" width="10" x="51" y="144.8906"/><rect fill="#FFD700" height="927.8516" style="stroke:#181818;stroke-width:1.0;" width="10" x="204" y="226.5547"/><rect fill="#00EE20" height="35.1328" style="stroke:#181818;stroke-width:1.0;" width="10" x="618" y="512.1484"/><rect fill="#00EE20" height="86.3984" style="stroke:#181818;stroke-width:1.0;" width="10" x="618" y="840.8125"/><rect fill="#00EE20" height="71.2656" style="stroke:#181818;stroke-width:1.0;" width="10" x="618" y="1083.1406"/><polygon fill="#181818" points="192,222.5547,202,226.5547,192,230.5547,196,226.5547" style="stroke:#181818;stroke-width:1.0;"/><line style="stroke:#181818;stroke-width:1.0;" x1="56" x2="198" y1="226.5547" y2="226.5547"/><text fill="#000000" font-family="sans-serif" font-size="13" lengthAdjust="spacing" textLength="96" x="63" y="160.9575">goldenStaking(</text><text fill="#000000" font-family="sans-serif" font-size="13" lengthAdjust="spacing" textLength="103" x="71" y="176.0903">isStaking=false,</text><text fill="#000000" font-family="sans-serif" font-size="13" lengthAdjust="spacing" textLength="116" x="71" y="191.2231">amountOfStaking,</text><text fill="#000000" font-family="sans-serif" font-size="13" lengthAdjust="spacing" textLength="104" x="71" y="206.356">signature_EVVM</text><text fill="#000000" font-family="sans-serif" font-size="13" lengthAdjust="spacing" textLength="5" x="63" y="221.4888">)</text><line style="stroke:#181818;stroke-width:1.0;" x1="214" x2="256" y1="255.6875" y2="255.6875"/><line style="stroke:#181818;stroke-width:1.0;" x1="256" x2="256" y1="255.6875" y2="268.6875"/><line style="stroke:#181818;stroke-width:1.0;" x1="215" x2="256" y1="268.6875" y2="268.6875"/><polygon fill="#181818" points="225,264.6875,215,268.6875,225,272.6875,221,268.6875" style="stroke:#181818;stroke-width:1.0;"/><text fill="#000000" font-family="sans-serif" font-size="13" lengthAdjust="spacing" textLength="270" x="221" y="250.6216">Verify msg.sender == goldenFisher.actual</text><line style="stroke:#181818;stroke-width:1.0;" x1="214" x2="256" y1="373.4844" y2="373.4844"/><line style="stroke:#181818;stroke-width:1.0;" x1="256" x2="256" y1="373.4844" y2="386.4844"/><line style="stroke:#181818;stroke-width:1.0;" x1="215" x2="256" y1="386.4844" y2="386.4844"/><polygon fill="#181818" points="225,382.4844,215,386.4844,225,390.4844,221,386.4844" style="stroke:#181818;stroke-width:1.0;"/><text fill="#000000" font-family="sans-serif" font-size="13" lengthAdjust="spacing" textLength="133" x="221" y="292.7544">stakingBaseProcess(</text><text fill="#000000" font-family="sans-serif" font-size="13" lengthAdjust="spacing" textLength="295" x="229" y="307.8872">AccountMetadata{goldenFisher.actual, false},</text><text fill="#000000" font-family="sans-serif" font-size="13" lengthAdjust="spacing" textLength="103" x="229" y="323.02">isStaking=false,</text><text fill="#000000" font-family="sans-serif" font-size="13" lengthAdjust="spacing" textLength="116" x="229" y="338.1528">amountOfStaking,</text><text fill="#000000" font-family="sans-serif" font-size="13" lengthAdjust="spacing" textLength="22" x="229" y="353.2856">(&#183;&#183;&#183;)</text><text fill="#000000" font-family="sans-serif" font-size="13" lengthAdjust="spacing" textLength="5" x="221" y="368.4185">)</text><path d="M166.5,401.4844 L230.5,401.4844 L230.5,408.6172 L220.5,418.6172 L166.5,418.6172 L166.5,401.4844 " fill="#EEEEEE" style="stroke:#000000;stroke-width:1.5;"/><rect fill="none" height="175.6016" style="stroke:#000000;stroke-width:1.5;" width="706.5" x="166.5" y="401.4844"/><text fill="#000000" font-family="sans-serif" font-size="13" font-weight="bold" lengthAdjust="spacing" textLength="19" x="181.5" y="414.5513">alt</text><text fill="#000000" font-family="sans-serif" font-size="11" font-weight="bold" lengthAdjust="spacing" textLength="394" x="245.5" y="413.6948">[Full unstaking (amountOfStaking == getUserAmountStaked)]</text><line style="stroke:#181818;stroke-width:1.0;" x1="214" x2="256" y1="470.0156" y2="470.0156"/><line style="stroke:#181818;stroke-width:1.0;" x1="256" x2="256" y1="470.0156" y2="483.0156"/><line style="stroke:#181818;stroke-width:1.0;" x1="215" x2="256" y1="483.0156" y2="483.0156"/><polygon fill="#181818" points="225,479.0156,215,483.0156,225,487.0156,221,483.0156" style="stroke:#181818;stroke-width:1.0;"/><text fill="#000000" font-family="sans-serif" font-size="13" lengthAdjust="spacing" textLength="105" x="221" y="434.6841">Check time lock:</text><text fill="#000000" font-family="sans-serif" font-size="13" lengthAdjust="spacing" textLength="390" x="221" y="449.8169">getTimeToUserUnlockFullUnstakingTime(goldenFisher.actual)</text><text fill="#000000" font-family="sans-serif" font-size="13" lengthAdjust="spacing" textLength="133" x="221" y="464.9497">&lt;= block.timestamp</text><path d="M623,427.1172 L623,482.1172 L853,482.1172 L853,437.1172 L843,427.1172 L623,427.1172 " fill="#FEFFDD" style="stroke:#181818;stroke-width:0.5;"/><path d="M843,427.1172 L843,437.1172 L853,437.1172 L843,427.1172 " fill="#FEFFDD" style="stroke:#181818;stroke-width:0.5;"/><text fill="#000000" font-family="sans-serif" font-size="13" lengthAdjust="spacing" textLength="177" x="629" y="444.1841">RESTRICTION: Full unstaking</text><text fill="#000000" font-family="sans-serif" font-size="13" lengthAdjust="spacing" textLength="192" x="629" y="459.3169">requires 21-day waiting period</text><text fill="#000000" font-family="sans-serif" font-size="13" lengthAdjust="spacing" textLength="209" x="629" y="474.4497">(secondsToUnllockFullUnstaking)</text><polygon fill="#181818" points="606,508.1484,616,512.1484,606,516.1484,610,512.1484" style="stroke:#181818;stroke-width:1.0;"/><line style="stroke:#181818;stroke-width:1.0;" x1="214" x2="612" y1="512.1484" y2="512.1484"/><text fill="#000000" font-family="sans-serif" font-size="13" lengthAdjust="spacing" textLength="247" x="221" y="507.0825">pointStaker(goldenFisher.actual, 0x00)</text><line style="stroke:#181818;stroke-width:1.0;" x1="628" x2="670" y1="546.2813" y2="546.2813"/><line style="stroke:#181818;stroke-width:1.0;" x1="670" x2="670" y1="546.2813" y2="559.2813"/><line style="stroke:#181818;stroke-width:1.0;" x1="623" x2="670" y1="559.2813" y2="559.2813"/><polygon fill="#181818" points="633,555.2813,623,559.2813,633,563.2813,629,559.2813" style="stroke:#181818;stroke-width:1.0;"/><text fill="#000000" font-family="sans-serif" font-size="13" lengthAdjust="spacing" textLength="140" x="635" y="541.2153">Remove staker status</text><line style="stroke:#000000;stroke-width:1.0;stroke-dasharray:2.0,2.0;" x1="166.5" x2="873" y1="563.2813" y2="563.2813"/><text fill="#000000" font-family="sans-serif" font-size="11" font-weight="bold" lengthAdjust="spacing" textLength="119" x="171.5" y="573.4917">[Partial unstaking]</text><line style="stroke:#181818;stroke-width:1.0;" x1="214" x2="256" y1="696.0156" y2="696.0156"/><line style="stroke:#181818;stroke-width:1.0;" x1="256" x2="256" y1="696.0156" y2="709.0156"/><line style="stroke:#181818;stroke-width:1.0;" x1="215" x2="256" y1="709.0156" y2="709.0156"/><polygon fill="#181818" points="225,705.0156,215,709.0156,225,713.0156,221,709.0156" style="stroke:#181818;stroke-width:1.0;"/><text fill="#000000" font-family="sans-serif" font-size="13" lengthAdjust="spacing" textLength="128" x="221" y="600.1528">Update userHistory:</text><text fill="#000000" font-family="sans-serif" font-size="13" lengthAdjust="spacing" textLength="149" x="221" y="615.2856">push HistoryMetadata{</text><text fill="#000000" font-family="sans-serif" font-size="13" lengthAdjust="spacing" textLength="127" x="229" y="630.4185">type=2 (unstaking),</text><text fill="#000000" font-family="sans-serif" font-size="13" lengthAdjust="spacing" textLength="177" x="229" y="645.5513">amount=amountOfStaking,</text><text fill="#000000" font-family="sans-serif" font-size="13" lengthAdjust="spacing" textLength="192" x="229" y="660.6841">timestamp=block.timestamp,</text><text fill="#000000" font-family="sans-serif" font-size="13" lengthAdjust="spacing" textLength="256" x="229" y="675.8169">totalStaked=previous-amountOfStaking</text><text fill="#000000" font-family="sans-serif" font-size="13" lengthAdjust="spacing" textLength="8" x="221" y="690.9497">}</text><line style="stroke:#181818;stroke-width:1.0;" x1="214" x2="256" y1="798.6797" y2="798.6797"/><line style="stroke:#181818;stroke-width:1.0;" x1="256" x2="256" y1="798.6797" y2="811.6797"/><line style="stroke:#181818;stroke-width:1.0;" x1="215" x2="256" y1="811.6797" y2="811.6797"/><polygon fill="#181818" points="225,807.6797,215,811.6797,225,815.6797,221,811.6797" style="stroke:#181818;stroke-width:1.0;"/><text fill="#000000" font-family="sans-serif" font-size="13" lengthAdjust="spacing" textLength="81" x="221" y="733.0825">makeCaPay(</text><text fill="#000000" font-family="sans-serif" font-size="13" lengthAdjust="spacing" textLength="189" x="229" y="748.2153">PRINCIPAL_TOKEN_ADDRESS,</text><text fill="#000000" font-family="sans-serif" font-size="13" lengthAdjust="spacing" textLength="128" x="229" y="763.3481">goldenFisher.actual,</text><text fill="#000000" font-family="sans-serif" font-size="13" lengthAdjust="spacing" textLength="250" x="229" y="778.481">PRICE_OF_STAKING * amountOfStaking</text><text fill="#000000" font-family="sans-serif" font-size="13" lengthAdjust="spacing" textLength="5" x="221" y="793.6138">)</text><polygon fill="#181818" points="606,836.8125,616,840.8125,606,844.8125,610,840.8125" style="stroke:#181818;stroke-width:1.0;"/><line style="stroke:#181818;stroke-width:1.0;" x1="214" x2="612" y1="840.8125" y2="840.8125"/><text fill="#000000" font-family="sans-serif" font-size="13" lengthAdjust="spacing" textLength="60" x="221" y="835.7466">caPay(&#183;&#183;&#183;)</text><line style="stroke:#181818;stroke-width:1.0;" x1="628" x2="670" y1="885.0781" y2="885.0781"/><line style="stroke:#181818;stroke-width:1.0;" x1="670" x2="670" y1="885.0781" y2="898.0781"/><line style="stroke:#181818;stroke-width:1.0;" x1="629" x2="670" y1="898.0781" y2="898.0781"/><polygon fill="#181818" points="639,894.0781,629,898.0781,639,902.0781,635,898.0781" style="stroke:#181818;stroke-width:1.0;"/><text fill="#000000" font-family="sans-serif" font-size="13" lengthAdjust="spacing" textLength="97" x="635" y="864.8794">Transfer refund</text><text fill="#000000" font-family="sans-serif" font-size="13" lengthAdjust="spacing" textLength="104" x="635" y="880.0122">to Golden Fisher</text><polygon fill="#181818" points="225,923.2109,215,927.2109,225,931.2109,221,927.2109" style="stroke:#181818;stroke-width:1.0;"/><line style="stroke:#181818;stroke-width:1.0;stroke-dasharray:2.0,2.0;" x1="219" x2="622" y1="927.2109" y2="927.2109"/><text fill="#000000" font-family="sans-serif" font-size="13" lengthAdjust="spacing" textLength="114" x="231" y="922.145">Refund successful</text><path d="M166.5,942.2109 L230.5,942.2109 L230.5,949.3438 L220.5,959.3438 L166.5,959.3438 L166.5,942.2109 " fill="#EEEEEE" style="stroke:#000000;stroke-width:1.5;"/><rect fill="none" height="220.1953" style="stroke:#000000;stroke-width:1.5;" width="586.5" x="166.5" y="942.2109"/><text fill="#000000" font-family="sans-serif" font-size="13" font-weight="bold" lengthAdjust="spacing" textLength="19" x="181.5" y="955.2778">alt</text><text fill="#000000" font-family="sans-serif" font-size="11" font-weight="bold" lengthAdjust="spacing" textLength="143" x="245.5" y="954.4214">[msg.sender is staker]</text><line style="stroke:#181818;stroke-width:1.0;" x1="214" x2="256" y1="1041.0078" y2="1041.0078"/><line style="stroke:#181818;stroke-width:1.0;" x1="256" x2="256" y1="1041.0078" y2="1054.0078"/><line style="stroke:#181818;stroke-width:1.0;" x1="215" x2="256" y1="1054.0078" y2="1054.0078"/><polygon fill="#181818" points="225,1050.0078,215,1054.0078,225,1058.0078,221,1054.0078" style="stroke:#181818;stroke-width:1.0;"/><text fill="#000000" font-family="sans-serif" font-size="13" lengthAdjust="spacing" textLength="81" x="221" y="975.4106">makeCaPay(</text><text fill="#000000" font-family="sans-serif" font-size="13" lengthAdjust="spacing" textLength="189" x="245" y="990.5435">PRINCIPAL_TOKEN_ADDRESS,</text><text fill="#000000" font-family="sans-serif" font-size="13" lengthAdjust="spacing" textLength="80" x="245" y="1005.6763">msg.sender,</text><text fill="#000000" font-family="sans-serif" font-size="13" lengthAdjust="spacing" textLength="213" x="245" y="1020.8091">(rewardAmount * 2) + priorityFee</text><text fill="#000000" font-family="sans-serif" font-size="13" lengthAdjust="spacing" textLength="5" x="237" y="1035.9419">)</text><path d="M470,982.9766 L470,1037.9766 L649,1037.9766 L649,992.9766 L639,982.9766 L470,982.9766 " fill="#FEFFDD" style="stroke:#181818;stroke-width:0.5;"/><path d="M639,982.9766 L639,992.9766 L649,992.9766 L639,982.9766 " fill="#FEFFDD" style="stroke:#181818;stroke-width:0.5;"/><text fill="#000000" font-family="sans-serif" font-size="13" lengthAdjust="spacing" textLength="116" x="476" y="1000.0435">DOUBLE REWARD:</text><text fill="#000000" font-family="sans-serif" font-size="13" lengthAdjust="spacing" textLength="155" x="476" y="1015.1763">Stakers earn 2x rewards</text><text fill="#000000" font-family="sans-serif" font-size="13" lengthAdjust="spacing" textLength="158" x="476" y="1030.3091">for helping Golden Fisher</text><polygon fill="#181818" points="606,1079.1406,616,1083.1406,606,1087.1406,610,1083.1406" style="stroke:#181818;stroke-width:1.0;"/><line style="stroke:#181818;stroke-width:1.0;" x1="214" x2="612" y1="1083.1406" y2="1083.1406"/><text fill="#000000" font-family="sans-serif" font-size="13" lengthAdjust="spacing" textLength="60" x="221" y="1078.0747">caPay(&#183;&#183;&#183;)</text><line style="stroke:#181818;stroke-width:1.0;" x1="628" x2="670" y1="1112.2734" y2="1112.2734"/><line style="stroke:#181818;stroke-width:1.0;" x1="670" x2="670" y1="1112.2734" y2="1125.2734"/><line style="stroke:#181818;stroke-width:1.0;" x1="629" x2="670" y1="1125.2734" y2="1125.2734"/><polygon fill="#181818" points="639,1121.2734,629,1125.2734,639,1129.2734,635,1125.2734" style="stroke:#181818;stroke-width:1.0;"/><text fill="#000000" font-family="sans-serif" font-size="13" lengthAdjust="spacing" textLength="106" x="635" y="1107.2075">Transfer rewards</text><polygon fill="#181818" points="220,1150.4063,210,1154.4063,220,1158.4063,216,1154.4063" style="stroke:#181818;stroke-width:1.0;"/><line style="stroke:#181818;stroke-width:1.0;stroke-dasharray:2.0,2.0;" x1="214" x2="622" y1="1154.4063" y2="1154.4063"/><text fill="#000000" font-family="sans-serif" font-size="13" lengthAdjust="spacing" textLength="53" x="226" y="1149.3403">Success</text><!--SRC=[bLLBRzf04BxxLuoI2xGXfLmgHI4IuP6WDe1uf1TBQ6CFi8hPTNVN41JbT_NUNzRPjUDW1oB57F3Epdk-RtofpIx2Ao-KGR96OU3P0xXcmUEDaea8spAI2hOhRj1xyIw_PTgUuIP2MCeeH34nx96BPQKACw7JT-X5SkkBoYsBunsCc5b13IP94A3MYoI2xXC6YU5IL3sF1OP2dDmuNz3ZUeNg19ZElAS2BsRAy837Z58yoI8whTU8fxrUvqUzNbJitj_VEItSRDPmMgztkusw2yatp60nXBT_WjfLxlgYLAWl0BZEJiq5YpIUMHbRKylCS97TE9dcIy5Ced1kS_5jmI4UYP-BopLvhu92KlUe-687QxqyroX2ohdPB7Wy9uS9YuwOPs_NJED8IJiPLrWh26mLTsXOo0nxFk3m35pDBsUVQKJbtr_xgxeMiCZ0gKCLz98eWYG7JgLawsf2CzEeMkx6oZ6i4ae13jRLNc7m28Ql4I8PF5xuWkodT9nAwsKchDH6pT5gBoi7wgHSBvlmOFNFhJzINySki92KkUBBbQ60u-vaEkwtf_tXuA9KZYyK_acuGWsDxxMGxM3BkB5vnZGy6H95D0PIX9gI4z6xpD8ooxKwC5z0B7dM3bKvEANwKxsUUiYHLU21lN62DvzZNCjD2a324_sPH3kzFT1QLGzfrgyZ75dAiRsot_Te8Dyc0WlYUvpQ-E9jz3LOHFZ47sYnRBbPXOfj2Ro4x2C0diMXJIUXeTvoJKjaHxEE4xs2x9XZsEBFx69iDg2InwlkGRLv2B7vo9ib2AItqh0e1MCpLhZXCj6raXjVl1p9VKrsRJPYEyUvqRW_QFT7hL_pwV1dTp1lTJe4gecBSsYocKsxEn_svfDfwsT_S0DVu5tqQY5wDkB0XStOw1r6HWaLKyM4NX0W52xee-0B8w6mhpE3GebZfmiwt_fU6KFxQs1lYt6TuUyunuljiyz7BRJFc_zSL56uPIfCrmgrhr65hn0JBHKtknvYgbTz3-RES7Rzgqky_zqQTmXpAGVf8yEKWCOJf7wrBopGLnZ5DkbYlpwWTN4-dsBltfnS1diwXVPbN-A3n2x9NXbjQVWV]--></g></svg>