<?xml version="1.0" encoding="us-ascii" standalone="no"?><svg xmlns="http://www.w3.org/2000/svg" xmlns:xlink="http://www.w3.org/1999/xlink" contentStyleType="text/css" height="1267px" preserveAspectRatio="none" style="width:830px;height:1267px;background:#FFFFFF;" version="1.1" viewBox="0 0 830 1267" width="830px" zoomAndPan="magnify"><defs/><g><text fill="#000000" font-family="sans-serif" font-size="14" font-weight="bold" lengthAdjust="spacing" textLength="229" x="302.5" y="27.9951">goldenStaking() Staking Flow</text><text fill="#000000" font-family="sans-serif" font-size="14" font-weight="bold" lengthAdjust="spacing" textLength="285" x="274.5" y="44.292">(Happy Path - Successful Execution)</text><rect fill="#FFFFFF" height="81.6641" style="stroke:#181818;stroke-width:1.0;" width="10" x="51" y="144.8906"/><rect fill="#FFD700" height="935.4453" style="stroke:#181818;stroke-width:1.0;" width="10" x="204" y="226.5547"/><rect fill="#00EE20" height="86.3984" style="stroke:#181818;stroke-width:1.0;" width="10" x="581" y="629.0781"/><rect fill="#00EE20" height="35.1328" style="stroke:#181818;stroke-width:1.0;" width="10" x="581" y="744.6094"/><rect fill="#00EE20" height="86.3984" style="stroke:#181818;stroke-width:1.0;" width="10" x="581" y="1075.6016"/><rect fill="#FFFFFF" height="235.3281" style="stroke:#000000;stroke-width:1.5;" width="549.5" x="166.5" y="934.6719"/><line style="stroke:#181818;stroke-width:0.5;stroke-dasharray:5.0,5.0;" x1="56" x2="56" y1="134.8906" y2="1187"/><line style="stroke:#181818;stroke-width:0.5;stroke-dasharray:5.0,5.0;" x1="208.5" x2="208.5" y1="134.8906" y2="1187"/><line style="stroke:#181818;stroke-width:0.5;stroke-dasharray:5.0,5.0;" x1="585.5" x2="585.5" y1="134.8906" y2="1187"/><text fill="#000000" font-family="sans-serif" font-size="14" lengthAdjust="spacing" textLength="96" x="5" y="131.5889">Golden Fisher</text><ellipse cx="56" cy="67.0938" fill="#E2E2F0" rx="8" ry="8" style="stroke:#181818;stroke-width:0.5;"/><path d="M56,75.0938 L56,102.0938 M43,83.0938 L69,83.0938 M56,102.0938 L43,117.0938 M56,102.0938 L69,117.0938 " fill="none" style="stroke:#181818;stroke-width:0.5;"/><text fill="#000000" font-family="sans-serif" font-size="14" lengthAdjust="spacing" textLength="96" x="5" y="1198.9951">Golden Fisher</text><ellipse cx="56" cy="1210.7969" fill="#E2E2F0" rx="8" ry="8" style="stroke:#181818;stroke-width:0.5;"/><path d="M56,1218.7969 L56,1245.7969 M43,1226.7969 L69,1226.7969 M56,1245.7969 L43,1260.7969 M56,1245.7969 L69,1260.7969 " fill="none" style="stroke:#181818;stroke-width:0.5;"/><rect fill="#FFD700" height="30.2969" rx="2.5" ry="2.5" style="stroke:#181818;stroke-width:0.5;" width="65" x="176.5" y="103.5938"/><text fill="#000000" font-family="sans-serif" font-size="14" lengthAdjust="spacing" textLength="51" x="183.5" y="123.5889">Staking</text><rect fill="#FFD700" height="30.2969" rx="2.5" ry="2.5" style="stroke:#181818;stroke-width:0.5;" width="65" x="176.5" y="1186"/><text fill="#000000" font-family="sans-serif" font-size="14" lengthAdjust="spacing" textLength="51" x="183.5" y="1205.9951">Staking</text><rect fill="#00EE20" height="30.2969" rx="2.5" ry="2.5" style="stroke:#181818;stroke-width:0.5;" width="53" x="559.5" y="103.5938"/><text fill="#000000" font-family="sans-serif" font-size="14" lengthAdjust="spacing" textLength="39" x="566.5" y="123.5889">EVVM</text><rect fill="#00EE20" height="30.2969" rx="2.5" ry="2.5" style="stroke:#181818;stroke-width:0.5;" width="53" x="559.5" y="1186"/><text fill="#000000" font-family="sans-serif" font-size="14" lengthAdjust="spacing" textLength="39" x="566.5" y="1205.9951">EVVM</text><rect fill="#FFFFFF" height="81.6641" style="stroke:#181818;stroke-width:1.0;" width="10" x="51" y="144.8906"/><rect fill="#FFD700" height="935.4453" style="stroke:#181818;stroke-width:1.0;" width="10" x="204" y="226.5547"/><rect fill="#00EE20" height="86.3984" style="stroke:#181818;stroke-width:1.0;" width="10" x="581" y="629.0781"/><rect fill="#00EE20" height="35.1328" style="stroke:#181818;stroke-width:1.0;" width="10" x="581" y="744.6094"/><rect fill="#00EE20" height="86.3984" style="stroke:#181818;stroke-width:1.0;" width="10" x="581" y="1075.6016"/><polygon fill="#181818" points="192,222.5547,202,226.5547,192,230.5547,196,226.5547" style="stroke:#181818;stroke-width:1.0;"/><line style="stroke:#181818;stroke-width:1.0;" x1="56" x2="198" y1="226.5547" y2="226.5547"/><text fill="#000000" font-family="sans-serif" font-size="13" lengthAdjust="spacing" textLength="96" x="63" y="160.9575">goldenStaking(</text><text fill="#000000" font-family="sans-serif" font-size="13" lengthAdjust="spacing" textLength="99" x="71" y="176.0903">isStaking=true,</text><text fill="#000000" font-family="sans-serif" font-size="13" lengthAdjust="spacing" textLength="116" x="71" y="191.2231">amountOfStaking,</text><text fill="#000000" font-family="sans-serif" font-size="13" lengthAdjust="spacing" textLength="104" x="71" y="206.356">signature_EVVM</text><text fill="#000000" font-family="sans-serif" font-size="13" lengthAdjust="spacing" textLength="5" x="63" y="221.4888">)</text><line style="stroke:#181818;stroke-width:1.0;" x1="214" x2="256" y1="267.3203" y2="267.3203"/><line style="stroke:#181818;stroke-width:1.0;" x1="256" x2="256" y1="267.3203" y2="280.3203"/><line style="stroke:#181818;stroke-width:1.0;" x1="215" x2="256" y1="280.3203" y2="280.3203"/><polygon fill="#181818" points="225,276.3203,215,280.3203,225,284.3203,221,280.3203" style="stroke:#181818;stroke-width:1.0;"/><text fill="#000000" font-family="sans-serif" font-size="13" lengthAdjust="spacing" textLength="270" x="221" y="262.2544">Verify msg.sender == goldenFisher.actual</text><path d="M503,239.5547 L503,294.5547 L666,294.5547 L666,249.5547 L656,239.5547 L503,239.5547 " fill="#FEFFDD" style="stroke:#181818;stroke-width:0.5;"/><path d="M656,239.5547 L656,249.5547 L666,249.5547 L656,239.5547 " fill="#FEFFDD" style="stroke:#181818;stroke-width:0.5;"/><text fill="#000000" font-family="sans-serif" font-size="13" lengthAdjust="spacing" textLength="125" x="509" y="256.6216">PRIVILEGE: Only the</text><text fill="#000000" font-family="sans-serif" font-size="13" lengthAdjust="spacing" textLength="142" x="509" y="271.7544">Golden Fisher address</text><text fill="#000000" font-family="sans-serif" font-size="13" lengthAdjust="spacing" textLength="130" x="509" y="286.8872">can call this function</text><line style="stroke:#181818;stroke-width:1.0;" x1="214" x2="256" y1="411.8828" y2="411.8828"/><line style="stroke:#181818;stroke-width:1.0;" x1="256" x2="256" y1="411.8828" y2="424.8828"/><line style="stroke:#181818;stroke-width:1.0;" x1="215" x2="256" y1="424.8828" y2="424.8828"/><polygon fill="#181818" points="225,420.8828,215,424.8828,225,428.8828,221,424.8828" style="stroke:#181818;stroke-width:1.0;"/><text fill="#000000" font-family="sans-serif" font-size="13" lengthAdjust="spacing" textLength="133" x="221" y="316.02">stakingBaseProcess(</text><text fill="#000000" font-family="sans-serif" font-size="13" lengthAdjust="spacing" textLength="295" x="229" y="331.1528">AccountMetadata{goldenFisher.actual, false},</text><text fill="#000000" font-family="sans-serif" font-size="13" lengthAdjust="spacing" textLength="99" x="229" y="346.2856">isStaking=true,</text><text fill="#000000" font-family="sans-serif" font-size="13" lengthAdjust="spacing" textLength="116" x="229" y="361.4185">amountOfStaking,</text><text fill="#000000" font-family="sans-serif" font-size="13" lengthAdjust="spacing" textLength="315" x="229" y="376.5513">0, getNextCurrentSyncNonce(msg.sender), false,</text><text fill="#000000" font-family="sans-serif" font-size="13" lengthAdjust="spacing" textLength="104" x="229" y="391.6841">signature_EVVM</text><text fill="#000000" font-family="sans-serif" font-size="13" lengthAdjust="spacing" textLength="5" x="221" y="406.8169">)</text><line style="stroke:#181818;stroke-width:1.0;" x1="214" x2="256" y1="484.2813" y2="484.2813"/><line style="stroke:#181818;stroke-width:1.0;" x1="256" x2="256" y1="484.2813" y2="497.2813"/><line style="stroke:#181818;stroke-width:1.0;" x1="215" x2="256" y1="497.2813" y2="497.2813"/><polygon fill="#181818" points="225,493.2813,215,497.2813,225,501.2813,221,497.2813" style="stroke:#181818;stroke-width:1.0;"/><text fill="#000000" font-family="sans-serif" font-size="13" lengthAdjust="spacing" textLength="105" x="221" y="448.9497">Check time lock:</text><text fill="#000000" font-family="sans-serif" font-size="13" lengthAdjust="spacing" textLength="353" x="221" y="464.0825">getTimeToUserUnlockStakingTime(goldenFisher.actual)</text><text fill="#000000" font-family="sans-serif" font-size="13" lengthAdjust="spacing" textLength="133" x="221" y="479.2153">&lt;= block.timestamp</text><path d="M586,448.9492 L586,488.9492 L767,488.9492 L767,458.9492 L757,448.9492 L586,448.9492 " fill="#FEFFDD" style="stroke:#181818;stroke-width:0.5;"/><path d="M757,448.9492 L757,458.9492 L767,458.9492 L757,448.9492 " fill="#FEFFDD" style="stroke:#181818;stroke-width:0.5;"/><text fill="#000000" font-family="sans-serif" font-size="13" lengthAdjust="spacing" textLength="160" x="592" y="466.0161">Must wait after unstaking</text><text fill="#000000" font-family="sans-serif" font-size="13" lengthAdjust="spacing" textLength="130" x="592" y="481.1489">before staking again</text><line style="stroke:#181818;stroke-width:1.0;" x1="214" x2="256" y1="586.9453" y2="586.9453"/><line style="stroke:#181818;stroke-width:1.0;" x1="256" x2="256" y1="586.9453" y2="599.9453"/><line style="stroke:#181818;stroke-width:1.0;" x1="215" x2="256" y1="599.9453" y2="599.9453"/><polygon fill="#181818" points="225,595.9453,215,599.9453,225,603.9453,221,599.9453" style="stroke:#181818;stroke-width:1.0;"/><text fill="#000000" font-family="sans-serif" font-size="13" lengthAdjust="spacing" textLength="64" x="221" y="521.3481">makePay(</text><text fill="#000000" font-family="sans-serif" font-size="13" lengthAdjust="spacing" textLength="128" x="229" y="536.481">goldenFisher.actual,</text><text fill="#000000" font-family="sans-serif" font-size="13" lengthAdjust="spacing" textLength="254" x="229" y="551.6138">PRICE_OF_STAKING * amountOfStaking,</text><text fill="#000000" font-family="sans-serif" font-size="13" lengthAdjust="spacing" textLength="22" x="229" y="566.7466">(&#183;&#183;&#183;)</text><text fill="#000000" font-family="sans-serif" font-size="13" lengthAdjust="spacing" textLength="5" x="221" y="581.8794">)</text><polygon fill="#181818" points="569,625.0781,579,629.0781,569,633.0781,573,629.0781" style="stroke:#181818;stroke-width:1.0;"/><line style="stroke:#181818;stroke-width:1.0;" x1="214" x2="575" y1="629.0781" y2="629.0781"/><text fill="#000000" font-family="sans-serif" font-size="13" lengthAdjust="spacing" textLength="45" x="221" y="624.0122">pay(&#183;&#183;&#183;)</text><line style="stroke:#181818;stroke-width:1.0;" x1="591" x2="633" y1="673.3438" y2="673.3438"/><line style="stroke:#181818;stroke-width:1.0;" x1="633" x2="633" y1="673.3438" y2="686.3438"/><line style="stroke:#181818;stroke-width:1.0;" x1="592" x2="633" y1="686.3438" y2="686.3438"/><polygon fill="#181818" points="602,682.3438,592,686.3438,602,690.3438,598,686.3438" style="stroke:#181818;stroke-width:1.0;"/><text fill="#000000" font-family="sans-serif" font-size="13" lengthAdjust="spacing" textLength="171" x="598" y="653.145">Verify signature and nonce</text><text fill="#000000" font-family="sans-serif" font-size="13" lengthAdjust="spacing" textLength="225" x="598" y="668.2778">Transfer tokens to Staking contract</text><polygon fill="#181818" points="225,711.4766,215,715.4766,225,719.4766,221,715.4766" style="stroke:#181818;stroke-width:1.0;"/><line style="stroke:#181818;stroke-width:1.0;stroke-dasharray:2.0,2.0;" x1="219" x2="585" y1="715.4766" y2="715.4766"/><text fill="#000000" font-family="sans-serif" font-size="13" lengthAdjust="spacing" textLength="127" x="231" y="710.4106">Payment successful</text><polygon fill="#181818" points="569,740.6094,579,744.6094,569,748.6094,573,744.6094" style="stroke:#181818;stroke-width:1.0;"/><line style="stroke:#181818;stroke-width:1.0;" x1="214" x2="575" y1="744.6094" y2="744.6094"/><text fill="#000000" font-family="sans-serif" font-size="13" lengthAdjust="spacing" textLength="247" x="221" y="739.5435">pointStaker(goldenFisher.actual, 0x01)</text><line style="stroke:#181818;stroke-width:1.0;" x1="591" x2="633" y1="778.7422" y2="778.7422"/><line style="stroke:#181818;stroke-width:1.0;" x1="633" x2="633" y1="778.7422" y2="791.7422"/><line style="stroke:#181818;stroke-width:1.0;" x1="586" x2="633" y1="791.7422" y2="791.7422"/><polygon fill="#181818" points="596,787.7422,586,791.7422,596,795.7422,592,791.7422" style="stroke:#181818;stroke-width:1.0;"/><text fill="#000000" font-family="sans-serif" font-size="13" lengthAdjust="spacing" textLength="124" x="598" y="773.6763">Grant staker status</text><line style="stroke:#181818;stroke-width:1.0;" x1="214" x2="256" y1="906.6719" y2="906.6719"/><line style="stroke:#181818;stroke-width:1.0;" x1="256" x2="256" y1="906.6719" y2="919.6719"/><line style="stroke:#181818;stroke-width:1.0;" x1="215" x2="256" y1="919.6719" y2="919.6719"/><polygon fill="#181818" points="225,915.6719,215,919.6719,225,923.6719,221,919.6719" style="stroke:#181818;stroke-width:1.0;"/><text fill="#000000" font-family="sans-serif" font-size="13" lengthAdjust="spacing" textLength="128" x="221" y="810.8091">Update userHistory:</text><text fill="#000000" font-family="sans-serif" font-size="13" lengthAdjust="spacing" textLength="149" x="221" y="825.9419">push HistoryMetadata{</text><text fill="#000000" font-family="sans-serif" font-size="13" lengthAdjust="spacing" textLength="111" x="229" y="841.0747">type=1 (staking),</text><text fill="#000000" font-family="sans-serif" font-size="13" lengthAdjust="spacing" textLength="177" x="229" y="856.2075">amount=amountOfStaking,</text><text fill="#000000" font-family="sans-serif" font-size="13" lengthAdjust="spacing" textLength="192" x="229" y="871.3403">timestamp=block.timestamp,</text><text fill="#000000" font-family="sans-serif" font-size="13" lengthAdjust="spacing" textLength="262" x="229" y="886.4731">totalStaked=previous+amountOfStaking</text><text fill="#000000" font-family="sans-serif" font-size="13" lengthAdjust="spacing" textLength="8" x="221" y="901.606">}</text><path d="M166.5,934.6719 L230.5,934.6719 L230.5,941.8047 L220.5,951.8047 L166.5,951.8047 L166.5,934.6719 " fill="#EEEEEE" style="stroke:#000000;stroke-width:1.5;"/><rect fill="none" height="235.3281" style="stroke:#000000;stroke-width:1.5;" width="549.5" x="166.5" y="934.6719"/><text fill="#000000" font-family="sans-serif" font-size="13" font-weight="bold" lengthAdjust="spacing" textLength="19" x="181.5" y="947.7388">alt</text><text fill="#000000" font-family="sans-serif" font-size="11" font-weight="bold" lengthAdjust="spacing" textLength="143" x="245.5" y="946.8823">[msg.sender is staker]</text><line style="stroke:#181818;stroke-width:1.0;" x1="214" x2="256" y1="1033.4688" y2="1033.4688"/><line style="stroke:#181818;stroke-width:1.0;" x1="256" x2="256" y1="1033.4688" y2="1046.4688"/><line style="stroke:#181818;stroke-width:1.0;" x1="215" x2="256" y1="1046.4688" y2="1046.4688"/><polygon fill="#181818" points="225,1042.4688,215,1046.4688,225,1050.4688,221,1046.4688" style="stroke:#181818;stroke-width:1.0;"/><text fill="#000000" font-family="sans-serif" font-size="13" lengthAdjust="spacing" textLength="81" x="221" y="967.8716">makeCaPay(</text><text fill="#000000" font-family="sans-serif" font-size="13" lengthAdjust="spacing" textLength="189" x="245" y="983.0044">PRINCIPAL_TOKEN_ADDRESS,</text><text fill="#000000" font-family="sans-serif" font-size="13" lengthAdjust="spacing" textLength="80" x="245" y="998.1372">msg.sender,</text><text fill="#000000" font-family="sans-serif" font-size="13" lengthAdjust="spacing" textLength="213" x="245" y="1013.27">(rewardAmount * 2) + priorityFee</text><text fill="#000000" font-family="sans-serif" font-size="13" lengthAdjust="spacing" textLength="5" x="237" y="1028.4028">)</text><path d="M470,967.8711 L470,1037.8711 L617,1037.8711 L617,977.8711 L607,967.8711 L470,967.8711 " fill="#FEFFDD" style="stroke:#181818;stroke-width:0.5;"/><path d="M607,967.8711 L607,977.8711 L617,977.8711 L607,967.8711 " fill="#FEFFDD" style="stroke:#181818;stroke-width:0.5;"/><text fill="#000000" font-family="sans-serif" font-size="13" lengthAdjust="spacing" textLength="116" x="476" y="984.938">DOUBLE REWARD:</text><text fill="#000000" font-family="sans-serif" font-size="13" lengthAdjust="spacing" textLength="109" x="476" y="1000.0708">Stakers who help</text><text fill="#000000" font-family="sans-serif" font-size="13" lengthAdjust="spacing" textLength="126" x="476" y="1015.2036">Golden Fisher stake</text><text fill="#000000" font-family="sans-serif" font-size="13" lengthAdjust="spacing" textLength="102" x="476" y="1030.3364">earn 2x rewards</text><polygon fill="#181818" points="569,1071.6016,579,1075.6016,569,1079.6016,573,1075.6016" style="stroke:#181818;stroke-width:1.0;"/><line style="stroke:#181818;stroke-width:1.0;" x1="214" x2="575" y1="1075.6016" y2="1075.6016"/><text fill="#000000" font-family="sans-serif" font-size="13" lengthAdjust="spacing" textLength="60" x="221" y="1070.5356">caPay(&#183;&#183;&#183;)</text><line style="stroke:#181818;stroke-width:1.0;" x1="591" x2="633" y1="1119.8672" y2="1119.8672"/><line style="stroke:#181818;stroke-width:1.0;" x1="633" x2="633" y1="1119.8672" y2="1132.8672"/><line style="stroke:#181818;stroke-width:1.0;" x1="592" x2="633" y1="1132.8672" y2="1132.8672"/><polygon fill="#181818" points="602,1128.8672,592,1132.8672,602,1136.8672,598,1132.8672" style="stroke:#181818;stroke-width:1.0;"/><text fill="#000000" font-family="sans-serif" font-size="13" lengthAdjust="spacing" textLength="106" x="598" y="1099.6685">Transfer rewards</text><text fill="#000000" font-family="sans-serif" font-size="13" lengthAdjust="spacing" textLength="51" x="598" y="1114.8013">to caller</text><polygon fill="#181818" points="220,1158,210,1162,220,1166,216,1162" style="stroke:#181818;stroke-width:1.0;"/><line style="stroke:#181818;stroke-width:1.0;stroke-dasharray:2.0,2.0;" x1="214" x2="585" y1="1162" y2="1162"/><text fill="#000000" font-family="sans-serif" font-size="13" lengthAdjust="spacing" textLength="118" x="226" y="1156.9341">Reward distributed</text><!--SRC=[bLLTR-8w47tFhnYrBx3BTjc-NAagAr48RBKj8A2zBv6GwmnW4Up87ssZLN_NVR-_xDh63KqKhdRX8V5uV6RcpF7aMkaYm-zHAgZP8zVmAmAu8NGtbiBmT20o8U5bopH6Rz7rr-0TQQOpX8t8KkGBJNQCRrfj26ymoiHBmbi_I9uNC2Dw2rzWOIX5fTOcW_WLgT5Cy7OK4QfjWBEnHu8HKrkKPq1Km3uOefn8pIZBYKtmB4JnNYf4F1-DXdzrkrN7-F7ntdlXy_CUphlTEBxi-f3icMYiXeW-hk3BznBwgbPcmW6O2gkUbWOxpaJsbYyzNOSDRrDimuas4bSkbSJLc-A9yAMvNbBqRgZaz8YIhGlOgys5GfxQb7kz2kA51JGaYxYmc99jjjgUcirl7s_lud5y1LEU5Q2tcF0Azq3ILDe-9PmI3fHacNLY2jQ6KzUo4-c4jnkYS2Q5QxJdgK-fO-KUDKc99hyQ4kp0ccGAtpf_m6kt0nlK4tpL0oEbLUsYu7GYECNMaP1sG3xLYSOw1bkaEz1iZv09khjAk0sqjCkbU50e7xYpXbISkTLGKJlXrpruSfuN3icYx_Dg7-wDql12c0QorfPqmqCA2N_2jP175P0DOQT8tvCTpaZXcMvYrjbjnmVnQZfQBPRzdxUJCNngPBJrxp_ktwupus_E5UGsIl0u2hLog_pYU238iwGT24-1kmubV2a9LsjRjHOxvCe-oi511TVI1WXmbMfjfNv0gNAGVBnCxa1Zve9PULWpobQZ-hgltM-_MTHOkh6YF9XxQAF-DuLZxWzvwZoCbT0Ffkp4AwooSgEs49Rb3N7Dq4MElM_G2kVR7-v1hwbvfSXwDT4TTeKccMSWxUKIdvamwdCD9k5lTW9b6ixzgFyuLfWA5Tll0i197Gx8knBTpwfkChYTzUzMo-dFUBBg3uVpUB7elEyVyKjJI-8BaMdV9sPLUjc6pv1B9YJJnGZnuDVsMLJkqd3wS7CNmpp-kpyVMbeFpLRseoLWYrbU7t2-ceGZaHmkN-4GLddSUecXxzJNzgv_vzCi5xTJaqofzH0cuLRjRge6FXjqFlUUa5fXIFPaDARUiowqcYsSZoofqNy0]--></g></svg>