<?xml version="1.0" encoding="us-ascii" standalone="no"?><svg xmlns="http://www.w3.org/2000/svg" xmlns:xlink="http://www.w3.org/1999/xlink" contentStyleType="text/css" height="1378px" preserveAspectRatio="none" style="width:964px;height:1378px;background:#FFFFFF;" version="1.1" viewBox="0 0 964 1378" width="964px" zoomAndPan="magnify"><defs/><g><text fill="#000000" font-family="sans-serif" font-size="14" font-weight="bold" lengthAdjust="spacing" textLength="229" x="368.5" y="27.9951">goldenStaking() Staking Flow</text><text fill="#000000" font-family="sans-serif" font-size="14" font-weight="bold" lengthAdjust="spacing" textLength="227" x="369.5" y="44.292">(Failed Path - Error Handling)</text><rect fill="#FFD700" height="1018.6016" style="stroke:#181818;stroke-width:1.0;" width="10" x="407" y="226.5547"/><rect fill="#00EE20" height="219.8672" style="stroke:#181818;stroke-width:1.0;" width="10" x="784" y="648.0234"/><rect fill="#00EE20" height="35.1328" style="stroke:#181818;stroke-width:1.0;" width="10" x="784" y="897.0234"/><rect fill="#00EE20" height="168.4688" style="stroke:#181818;stroke-width:1.0;" width="10" x="784" y="1076.6875"/><rect fill="#F5B7B1" height="997.4688" style="stroke:#000000;stroke-width:1.5;" width="947" x="10" y="283.6875"/><rect fill="#FFFFFF" height="914.9375" style="stroke:none;stroke-width:1.0;" width="947" x="10" y="366.2188"/><rect fill="#F5B7B1" height="786.7344" style="stroke:#000000;stroke-width:1.5;" width="927" x="20" y="487.4219"/><rect fill="#FFFFFF" height="704.2031" style="stroke:none;stroke-width:1.0;" width="927" x="20" y="569.9531"/><rect fill="#F5B7B1" height="604.1328" style="stroke:#000000;stroke-width:1.5;" width="907" x="30" y="663.0234"/><rect fill="#FFFFFF" height="477.3359" style="stroke:none;stroke-width:1.0;" width="907" x="30" y="789.8203"/><rect fill="#FFFFFF" height="263.8672" style="stroke:#000000;stroke-width:1.5;" width="889" x="40" y="996.2891"/><rect fill="#F5B7B1" height="161.4688" style="stroke:#000000;stroke-width:1.5;" width="869" x="50" y="1091.6875"/><rect fill="#FFFFFF" height="86.0703" style="stroke:none;stroke-width:1.0;" width="869" x="50" y="1167.0859"/><line style="stroke:#181818;stroke-width:0.5;stroke-dasharray:5.0,5.0;" x1="111" x2="111" y1="134.8906" y2="1298.1563"/><line style="stroke:#181818;stroke-width:0.5;stroke-dasharray:5.0,5.0;" x1="411.5" x2="411.5" y1="134.8906" y2="1298.1563"/><line style="stroke:#181818;stroke-width:0.5;stroke-dasharray:5.0,5.0;" x1="788.5" x2="788.5" y1="134.8906" y2="1298.1563"/><text fill="#000000" font-family="sans-serif" font-size="14" lengthAdjust="spacing" textLength="96" x="60" y="131.5889">Golden Fisher</text><ellipse cx="111" cy="67.0938" fill="#E2E2F0" rx="8" ry="8" style="stroke:#181818;stroke-width:0.5;"/><path d="M111,75.0938 L111,102.0938 M98,83.0938 L124,83.0938 M111,102.0938 L98,117.0938 M111,102.0938 L124,117.0938 " fill="none" style="stroke:#181818;stroke-width:0.5;"/><text fill="#000000" font-family="sans-serif" font-size="14" lengthAdjust="spacing" textLength="96" x="60" y="1310.1514">Golden Fisher</text><ellipse cx="111" cy="1321.9531" fill="#E2E2F0" rx="8" ry="8" style="stroke:#181818;stroke-width:0.5;"/><path d="M111,1329.9531 L111,1356.9531 M98,1337.9531 L124,1337.9531 M111,1356.9531 L98,1371.9531 M111,1356.9531 L124,1371.9531 " fill="none" style="stroke:#181818;stroke-width:0.5;"/><rect fill="#FFD700" height="30.2969" rx="2.5" ry="2.5" style="stroke:#181818;stroke-width:0.5;" width="65" x="379.5" y="103.5938"/><text fill="#000000" font-family="sans-serif" font-size="14" lengthAdjust="spacing" textLength="51" x="386.5" y="123.5889">Staking</text><rect fill="#FFD700" height="30.2969" rx="2.5" ry="2.5" style="stroke:#181818;stroke-width:0.5;" width="65" x="379.5" y="1297.1563"/><text fill="#000000" font-family="sans-serif" font-size="14" lengthAdjust="spacing" textLength="51" x="386.5" y="1317.1514">Staking</text><rect fill="#00EE20" height="30.2969" rx="2.5" ry="2.5" style="stroke:#181818;stroke-width:0.5;" width="53" x="762.5" y="103.5938"/><text fill="#000000" font-family="sans-serif" font-size="14" lengthAdjust="spacing" textLength="39" x="769.5" y="123.5889">EVVM</text><rect fill="#00EE20" height="30.2969" rx="2.5" ry="2.5" style="stroke:#181818;stroke-width:0.5;" width="53" x="762.5" y="1297.1563"/><text fill="#000000" font-family="sans-serif" font-size="14" lengthAdjust="spacing" textLength="39" x="769.5" y="1317.1514">EVVM</text><rect fill="#FFD700" height="1018.6016" style="stroke:#181818;stroke-width:1.0;" width="10" x="407" y="226.5547"/><rect fill="#00EE20" height="219.8672" style="stroke:#181818;stroke-width:1.0;" width="10" x="784" y="648.0234"/><rect fill="#00EE20" height="35.1328" style="stroke:#181818;stroke-width:1.0;" width="10" x="784" y="897.0234"/><rect fill="#00EE20" height="168.4688" style="stroke:#181818;stroke-width:1.0;" width="10" x="784" y="1076.6875"/><polygon fill="#181818" points="395,222.5547,405,226.5547,395,230.5547,399,226.5547" style="stroke:#181818;stroke-width:1.0;"/><line style="stroke:#181818;stroke-width:1.0;" x1="111" x2="401" y1="226.5547" y2="226.5547"/><text fill="#000000" font-family="sans-serif" font-size="13" lengthAdjust="spacing" textLength="96" x="118" y="160.9575">goldenStaking(</text><text fill="#000000" font-family="sans-serif" font-size="13" lengthAdjust="spacing" textLength="99" x="126" y="176.0903">isStaking=true,</text><text fill="#000000" font-family="sans-serif" font-size="13" lengthAdjust="spacing" textLength="116" x="126" y="191.2231">amountOfStaking,</text><text fill="#000000" font-family="sans-serif" font-size="13" lengthAdjust="spacing" textLength="104" x="126" y="206.356">signature_EVVM</text><text fill="#000000" font-family="sans-serif" font-size="13" lengthAdjust="spacing" textLength="5" x="118" y="221.4888">)</text><line style="stroke:#181818;stroke-width:1.0;" x1="417" x2="459" y1="255.6875" y2="255.6875"/><line style="stroke:#181818;stroke-width:1.0;" x1="459" x2="459" y1="255.6875" y2="268.6875"/><line style="stroke:#181818;stroke-width:1.0;" x1="418" x2="459" y1="268.6875" y2="268.6875"/><polygon fill="#181818" points="428,264.6875,418,268.6875,428,272.6875,424,268.6875" style="stroke:#181818;stroke-width:1.0;"/><text fill="#000000" font-family="sans-serif" font-size="13" lengthAdjust="spacing" textLength="270" x="424" y="250.6216">Verify msg.sender == goldenFisher.actual</text><path d="M10,283.6875 L74,283.6875 L74,290.8203 L64,300.8203 L10,300.8203 L10,283.6875 " fill="#EEEEEE" style="stroke:#000000;stroke-width:1.5;"/><rect fill="none" height="997.4688" style="stroke:#000000;stroke-width:1.5;" width="947" x="10" y="283.6875"/><text fill="#000000" font-family="sans-serif" font-size="13" font-weight="bold" lengthAdjust="spacing" textLength="19" x="25" y="296.7544">alt</text><text fill="#000000" font-family="sans-serif" font-size="11" font-weight="bold" lengthAdjust="spacing" textLength="234" x="89" y="295.8979">[msg.sender != goldenFisher.actual]</text><line style="stroke:#181818;stroke-width:2.0;" x1="118" x2="128" y1="335.0859" y2="345.0859"/><line style="stroke:#181818;stroke-width:2.0;" x1="118" x2="128" y1="345.0859" y2="335.0859"/><line style="stroke:#181818;stroke-width:1.0;" x1="123" x2="406" y1="340.0859" y2="340.0859"/><text fill="#000000" font-family="sans-serif" font-size="13" lengthAdjust="spacing" textLength="236" x="128" y="335.02">Revert with SenderIsNotGoldenFisher</text><path d="M422,305.8203 L422,360.8203 L616,360.8203 L616,315.8203 L606,305.8203 L422,305.8203 " fill="#FEFFDD" style="stroke:#181818;stroke-width:0.5;"/><path d="M606,305.8203 L606,315.8203 L616,315.8203 L606,305.8203 " fill="#FEFFDD" style="stroke:#181818;stroke-width:0.5;"/><text fill="#000000" font-family="sans-serif" font-size="13" lengthAdjust="spacing" textLength="97" x="428" y="322.8872">SECURITY: Only</text><text fill="#000000" font-family="sans-serif" font-size="13" lengthAdjust="spacing" textLength="159" x="428" y="338.02">authorized Golden Fisher</text><text fill="#000000" font-family="sans-serif" font-size="13" lengthAdjust="spacing" textLength="173" x="428" y="353.1528">can stake with this function</text><line style="stroke:#000000;stroke-width:1.0;stroke-dasharray:2.0,2.0;" x1="10" x2="957" y1="367.2188" y2="367.2188"/><text fill="#000000" font-family="sans-serif" font-size="11" font-weight="bold" lengthAdjust="spacing" textLength="156" x="15" y="377.4292">[Caller is Golden Fisher]</text><line style="stroke:#181818;stroke-width:1.0;" x1="417" x2="459" y1="402.1563" y2="402.1563"/><line style="stroke:#181818;stroke-width:1.0;" x1="459" x2="459" y1="402.1563" y2="415.1563"/><line style="stroke:#181818;stroke-width:1.0;" x1="418" x2="459" y1="415.1563" y2="415.1563"/><polygon fill="#181818" points="428,411.1563,418,415.1563,428,419.1563,424,415.1563" style="stroke:#181818;stroke-width:1.0;"/><text fill="#000000" font-family="sans-serif" font-size="13" lengthAdjust="spacing" textLength="150" x="424" y="397.0903">stakingBaseProcess(&#183;&#183;&#183;)</text><line style="stroke:#181818;stroke-width:1.0;" x1="417" x2="459" y1="459.4219" y2="459.4219"/><line style="stroke:#181818;stroke-width:1.0;" x1="459" x2="459" y1="459.4219" y2="472.4219"/><line style="stroke:#181818;stroke-width:1.0;" x1="418" x2="459" y1="472.4219" y2="472.4219"/><polygon fill="#181818" points="428,468.4219,418,472.4219,428,476.4219,424,472.4219" style="stroke:#181818;stroke-width:1.0;"/><text fill="#000000" font-family="sans-serif" font-size="13" lengthAdjust="spacing" textLength="105" x="424" y="439.2231">Check time lock:</text><text fill="#000000" font-family="sans-serif" font-size="13" lengthAdjust="spacing" textLength="353" x="424" y="454.356">getTimeToUserUnlockStakingTime(goldenFisher.actual)</text><path d="M20,487.4219 L84,487.4219 L84,494.5547 L74,504.5547 L20,504.5547 L20,487.4219 " fill="#EEEEEE" style="stroke:#000000;stroke-width:1.5;"/><rect fill="none" height="786.7344" style="stroke:#000000;stroke-width:1.5;" width="927" x="20" y="487.4219"/><text fill="#000000" font-family="sans-serif" font-size="13" font-weight="bold" lengthAdjust="spacing" textLength="19" x="35" y="500.4888">alt</text><text fill="#000000" font-family="sans-serif" font-size="11" font-weight="bold" lengthAdjust="spacing" textLength="148" x="99" y="499.6323">[Time lock not expired]</text><line style="stroke:#181818;stroke-width:2.0;" x1="118" x2="128" y1="538.8203" y2="548.8203"/><line style="stroke:#181818;stroke-width:2.0;" x1="118" x2="128" y1="548.8203" y2="538.8203"/><line style="stroke:#181818;stroke-width:1.0;" x1="123" x2="406" y1="543.8203" y2="543.8203"/><text fill="#000000" font-family="sans-serif" font-size="13" lengthAdjust="spacing" textLength="272" x="128" y="538.7544">Revert with AddressMustWaitToStakeAgain</text><path d="M422,509.5547 L422,564.5547 L637,564.5547 L637,519.5547 L627,509.5547 L422,509.5547 " fill="#FEFFDD" style="stroke:#181818;stroke-width:0.5;"/><path d="M627,509.5547 L627,519.5547 L637,519.5547 L627,509.5547 " fill="#FEFFDD" style="stroke:#181818;stroke-width:0.5;"/><text fill="#000000" font-family="sans-serif" font-size="13" lengthAdjust="spacing" textLength="160" x="428" y="526.6216">Must wait after unstaking</text><text fill="#000000" font-family="sans-serif" font-size="13" lengthAdjust="spacing" textLength="130" x="428" y="541.7544">before staking again</text><text fill="#000000" font-family="sans-serif" font-size="13" lengthAdjust="spacing" textLength="194" x="428" y="556.8872">(Prevents gaming the system)</text><line style="stroke:#000000;stroke-width:1.0;stroke-dasharray:2.0,2.0;" x1="20" x2="947" y1="570.9531" y2="570.9531"/><text fill="#000000" font-family="sans-serif" font-size="11" font-weight="bold" lengthAdjust="spacing" textLength="121" x="25" y="581.1636">[Time lock passed]</text><line style="stroke:#181818;stroke-width:1.0;" x1="417" x2="459" y1="605.8906" y2="605.8906"/><line style="stroke:#181818;stroke-width:1.0;" x1="459" x2="459" y1="605.8906" y2="618.8906"/><line style="stroke:#181818;stroke-width:1.0;" x1="418" x2="459" y1="618.8906" y2="618.8906"/><polygon fill="#181818" points="428,614.8906,418,618.8906,428,622.8906,424,618.8906" style="stroke:#181818;stroke-width:1.0;"/><text fill="#000000" font-family="sans-serif" font-size="13" lengthAdjust="spacing" textLength="81" x="424" y="600.8247">makePay(&#183;&#183;&#183;)</text><polygon fill="#181818" points="772,644.0234,782,648.0234,772,652.0234,776,648.0234" style="stroke:#181818;stroke-width:1.0;"/><line style="stroke:#181818;stroke-width:1.0;" x1="417" x2="778" y1="648.0234" y2="648.0234"/><text fill="#000000" font-family="sans-serif" font-size="13" lengthAdjust="spacing" textLength="45" x="424" y="642.9575">pay(&#183;&#183;&#183;)</text><path d="M30,663.0234 L94,663.0234 L94,670.1563 L84,680.1563 L30,680.1563 L30,663.0234 " fill="#EEEEEE" style="stroke:#000000;stroke-width:1.5;"/><rect fill="none" height="604.1328" style="stroke:#000000;stroke-width:1.5;" width="907" x="30" y="663.0234"/><text fill="#000000" font-family="sans-serif" font-size="13" font-weight="bold" lengthAdjust="spacing" textLength="19" x="45" y="676.0903">alt</text><text fill="#000000" font-family="sans-serif" font-size="11" font-weight="bold" lengthAdjust="spacing" textLength="97" x="109" y="675.2339">[Payment fails]</text><line style="stroke:#181818;stroke-width:2.0;" x1="424" x2="434" y1="696.2891" y2="706.2891"/><line style="stroke:#181818;stroke-width:2.0;" x1="424" x2="434" y1="706.2891" y2="696.2891"/><line style="stroke:#181818;stroke-width:1.0;" x1="429" x2="783" y1="701.2891" y2="701.2891"/><text fill="#000000" font-family="sans-serif" font-size="13" lengthAdjust="spacing" textLength="41" x="434" y="696.2231">Revert</text><line style="stroke:#181818;stroke-width:2.0;" x1="118" x2="128" y1="751.1211" y2="761.1211"/><line style="stroke:#181818;stroke-width:2.0;" x1="118" x2="128" y1="761.1211" y2="751.1211"/><line style="stroke:#181818;stroke-width:1.0;" x1="123" x2="406" y1="756.1211" y2="756.1211"/><text fill="#000000" font-family="sans-serif" font-size="13" lengthAdjust="spacing" textLength="92" x="128" y="751.0552">Payment error</text><path d="M422,714.2891 L422,784.2891 L582,784.2891 L582,724.2891 L572,714.2891 L422,714.2891 " fill="#FEFFDD" style="stroke:#181818;stroke-width:0.5;"/><path d="M572,714.2891 L572,724.2891 L582,724.2891 L572,714.2891 " fill="#FEFFDD" style="stroke:#181818;stroke-width:0.5;"/><text fill="#000000" font-family="sans-serif" font-size="13" lengthAdjust="spacing" textLength="60" x="428" y="731.356">Could be:</text><text fill="#000000" font-family="sans-serif" font-size="13" lengthAdjust="spacing" textLength="116" x="428" y="746.4888">&#8226; Invalid signature</text><text fill="#000000" font-family="sans-serif" font-size="13" lengthAdjust="spacing" textLength="139" x="428" y="761.6216">&#8226; Nonce already used</text><text fill="#000000" font-family="sans-serif" font-size="13" lengthAdjust="spacing" textLength="134" x="428" y="776.7544">&#8226; Insufficient balance</text><line style="stroke:#000000;stroke-width:1.0;stroke-dasharray:2.0,2.0;" x1="30" x2="937" y1="790.8203" y2="790.8203"/><text fill="#000000" font-family="sans-serif" font-size="11" font-weight="bold" lengthAdjust="spacing" textLength="129" x="35" y="801.0308">[Payment succeeds]</text><line style="stroke:#181818;stroke-width:1.0;" x1="794" x2="836" y1="825.7578" y2="825.7578"/><line style="stroke:#181818;stroke-width:1.0;" x1="836" x2="836" y1="825.7578" y2="838.7578"/><line style="stroke:#181818;stroke-width:1.0;" x1="795" x2="836" y1="838.7578" y2="838.7578"/><polygon fill="#181818" points="805,834.7578,795,838.7578,805,842.7578,801,838.7578" style="stroke:#181818;stroke-width:1.0;"/><text fill="#000000" font-family="sans-serif" font-size="13" lengthAdjust="spacing" textLength="99" x="801" y="820.6919">Transfer tokens</text><polygon fill="#181818" points="428,863.8906,418,867.8906,428,871.8906,424,867.8906" style="stroke:#181818;stroke-width:1.0;"/><line style="stroke:#181818;stroke-width:1.0;stroke-dasharray:2.0,2.0;" x1="422" x2="788" y1="867.8906" y2="867.8906"/><text fill="#000000" font-family="sans-serif" font-size="13" lengthAdjust="spacing" textLength="127" x="434" y="862.8247">Payment successful</text><polygon fill="#181818" points="772,893.0234,782,897.0234,772,901.0234,776,897.0234" style="stroke:#181818;stroke-width:1.0;"/><line style="stroke:#181818;stroke-width:1.0;" x1="417" x2="778" y1="897.0234" y2="897.0234"/><text fill="#000000" font-family="sans-serif" font-size="13" lengthAdjust="spacing" textLength="247" x="424" y="891.9575">pointStaker(goldenFisher.actual, 0x01)</text><line style="stroke:#181818;stroke-width:1.0;" x1="794" x2="836" y1="931.1563" y2="931.1563"/><line style="stroke:#181818;stroke-width:1.0;" x1="836" x2="836" y1="931.1563" y2="944.1563"/><line style="stroke:#181818;stroke-width:1.0;" x1="789" x2="836" y1="944.1563" y2="944.1563"/><polygon fill="#181818" points="799,940.1563,789,944.1563,799,948.1563,795,944.1563" style="stroke:#181818;stroke-width:1.0;"/><text fill="#000000" font-family="sans-serif" font-size="13" lengthAdjust="spacing" textLength="124" x="801" y="926.0903">Grant staker status</text><line style="stroke:#181818;stroke-width:1.0;" x1="417" x2="459" y1="968.2891" y2="968.2891"/><line style="stroke:#181818;stroke-width:1.0;" x1="459" x2="459" y1="968.2891" y2="981.2891"/><line style="stroke:#181818;stroke-width:1.0;" x1="418" x2="459" y1="981.2891" y2="981.2891"/><polygon fill="#181818" points="428,977.2891,418,981.2891,428,985.2891,424,981.2891" style="stroke:#181818;stroke-width:1.0;"/><text fill="#000000" font-family="sans-serif" font-size="13" lengthAdjust="spacing" textLength="124" x="424" y="963.2231">Update userHistory</text><path d="M40,996.2891 L104,996.2891 L104,1003.4219 L94,1013.4219 L40,1013.4219 L40,996.2891 " fill="#EEEEEE" style="stroke:#000000;stroke-width:1.5;"/><rect fill="none" height="263.8672" style="stroke:#000000;stroke-width:1.5;" width="889" x="40" y="996.2891"/><text fill="#000000" font-family="sans-serif" font-size="13" font-weight="bold" lengthAdjust="spacing" textLength="19" x="55" y="1009.356">alt</text><text fill="#000000" font-family="sans-serif" font-size="11" font-weight="bold" lengthAdjust="spacing" textLength="143" x="119" y="1008.4995">[msg.sender is staker]</text><line style="stroke:#181818;stroke-width:1.0;" x1="417" x2="459" y1="1034.5547" y2="1034.5547"/><line style="stroke:#181818;stroke-width:1.0;" x1="459" x2="459" y1="1034.5547" y2="1047.5547"/><line style="stroke:#181818;stroke-width:1.0;" x1="418" x2="459" y1="1047.5547" y2="1047.5547"/><polygon fill="#181818" points="428,1043.5547,418,1047.5547,428,1051.5547,424,1047.5547" style="stroke:#181818;stroke-width:1.0;"/><text fill="#000000" font-family="sans-serif" font-size="13" lengthAdjust="spacing" textLength="98" x="424" y="1029.4888">makeCaPay(&#183;&#183;&#183;)</text><polygon fill="#181818" points="772,1072.6875,782,1076.6875,772,1080.6875,776,1076.6875" style="stroke:#181818;stroke-width:1.0;"/><line style="stroke:#181818;stroke-width:1.0;" x1="417" x2="778" y1="1076.6875" y2="1076.6875"/><text fill="#000000" font-family="sans-serif" font-size="13" lengthAdjust="spacing" textLength="60" x="424" y="1071.6216">caPay(&#183;&#183;&#183;)</text><path d="M50,1091.6875 L114,1091.6875 L114,1098.8203 L104,1108.8203 L50,1108.8203 L50,1091.6875 " fill="#EEEEEE" style="stroke:#000000;stroke-width:1.5;"/><rect fill="none" height="161.4688" style="stroke:#000000;stroke-width:1.5;" width="869" x="50" y="1091.6875"/><text fill="#000000" font-family="sans-serif" font-size="13" font-weight="bold" lengthAdjust="spacing" textLength="19" x="65" y="1104.7544">alt</text><text fill="#000000" font-family="sans-serif" font-size="11" font-weight="bold" lengthAdjust="spacing" textLength="168" x="129" y="1103.8979">[Reward distribution fails]</text><line style="stroke:#181818;stroke-width:2.0;" x1="424" x2="434" y1="1124.9531" y2="1134.9531"/><line style="stroke:#181818;stroke-width:2.0;" x1="424" x2="434" y1="1134.9531" y2="1124.9531"/><line style="stroke:#181818;stroke-width:1.0;" x1="429" x2="783" y1="1129.9531" y2="1129.9531"/><text fill="#000000" font-family="sans-serif" font-size="13" lengthAdjust="spacing" textLength="73" x="434" y="1124.8872">caPay error</text><line style="stroke:#181818;stroke-width:2.0;" x1="118" x2="128" y1="1154.0859" y2="1164.0859"/><line style="stroke:#181818;stroke-width:2.0;" x1="118" x2="128" y1="1164.0859" y2="1154.0859"/><line style="stroke:#181818;stroke-width:1.0;" x1="123" x2="406" y1="1159.0859" y2="1159.0859"/><text fill="#000000" font-family="sans-serif" font-size="13" lengthAdjust="spacing" textLength="84" x="128" y="1154.02">Reward failed</text><line style="stroke:#000000;stroke-width:1.0;stroke-dasharray:2.0,2.0;" x1="50" x2="919" y1="1168.0859" y2="1168.0859"/><text fill="#000000" font-family="sans-serif" font-size="11" font-weight="bold" lengthAdjust="spacing" textLength="139" x="55" y="1178.2964">[Rewards distributed]</text><line style="stroke:#181818;stroke-width:1.0;" x1="794" x2="836" y1="1203.0234" y2="1203.0234"/><line style="stroke:#181818;stroke-width:1.0;" x1="836" x2="836" y1="1203.0234" y2="1216.0234"/><line style="stroke:#181818;stroke-width:1.0;" x1="795" x2="836" y1="1216.0234" y2="1216.0234"/><polygon fill="#181818" points="805,1212.0234,795,1216.0234,805,1220.0234,801,1216.0234" style="stroke:#181818;stroke-width:1.0;"/><text fill="#000000" font-family="sans-serif" font-size="13" lengthAdjust="spacing" textLength="106" x="801" y="1197.9575">Transfer rewards</text><polygon fill="#181818" points="423,1241.1563,413,1245.1563,423,1249.1563,419,1245.1563" style="stroke:#181818;stroke-width:1.0;"/><line style="stroke:#181818;stroke-width:1.0;stroke-dasharray:2.0,2.0;" x1="417" x2="788" y1="1245.1563" y2="1245.1563"/><text fill="#000000" font-family="sans-serif" font-size="13" lengthAdjust="spacing" textLength="53" x="429" y="1240.0903">Success</text><!--SRC=[fLPTRXen47xVKqoJbo2rAQbKHOgQIWc590z9K49ILKAgp7eMB8oDR2-4LfLwbbwYxprAJzAnTu5rMMYaWj3k3jzyy_Dv1jvPjv3uFk4wpIUe77nD0CvPEhumEbUyfQKsC1y9XyctvDth4fquuIJ2K4kEwjwniL33WmQKTz2HUjvN1nqc97BeCZU2Lz0sXgWkcUAIC8qaOQaZmzv5886Ei2CqUy1iILiOaYapJgHYoYYtlJ90GDaos7wdy-6usOo1xSV7wu32sMm2-yrck_sccIHLPdZrViLnybSfVGKWRFbqwaoEBxs9JQWdxZOhlmWsAuQAkTpWPn-phng-BZ5Z3ZSoJ9Q6AF8Z6f4jO6A7XnOLfyHEJwCM719XpYGrJ3hOpzuEZWT7LVYBUZZGQnNmAO9Gr3kSeN4m5wJDVU2viZVQNLHRxncKfaAC68uSETstMmztLxrF9t2hvAAlMEv6seWl97AaOb-bJ8NWM4Hm8s4XonLrHgl0cw2q2FlXP46BIKbP4IQYIU8QgaqhxywPnQxHALfxyEkdVpSAzgsEhH6cOt1YWY1rEZxfgo6w7Ztsz8D5yw2yjTJNcmzgMbk9KPMajoJrJGDycWg3FA2UByKPvuQAkSwj-yY4wscV2fuDcL0hfaWIZuGvGO5bZkXoLGRggm5csgnF8VCaD9LTG_6Kep5Z4szt8y8ihCD9OnKYt5GLMjSsPTPMojgihzhj2INVPOj8csrUOL9FY7yJlfgeQ9etoAfYKDImpZBQGNQ526Lv3b9XdMKXG0JQhjQI6FqwYtmYNLewbnm6I0Viz_SVSALcJ0g-tXQ5-KQh52blWuml8AV6Bk4sppBQPZxIW4b6i2ZMwg4gqZ8rcwSf8gyhUzNcdc7APbIHqsDKTT18o8ZQsYoNaGV7IABwLBVehOLouPIRkbbx2Ssdvb4Z8jbz76gAlJ3-Ho7i8-ClBhV_dVwwDmzJxZr9FNCfBFscBP8uNNyi2uKgMrlOCg48ktEIMgnkbceJhUzrkfFWtssj3LETkZkSCyE1KnkC6EH-szTCuFP930dMZDPpbcY8d8M_71k-rIafa7QTP0r-ry2Omd-7JoJSVJ4njV1Tvwu6Kv9kLgVY2ghFotj_zPy_]--></g></svg>