<?xml version="1.0" encoding="us-ascii" standalone="no"?><svg xmlns="http://www.w3.org/2000/svg" xmlns:xlink="http://www.w3.org/1999/xlink" contentStyleType="text/css" height="1358px" preserveAspectRatio="none" style="width:1008px;height:1358px;background:#FFFFFF;" version="1.1" viewBox="0 0 1008 1358" width="1008px" zoomAndPan="magnify"><defs/><g><text fill="#000000" font-family="sans-serif" font-size="14" font-weight="bold" lengthAdjust="spacing" textLength="249" x="380.5" y="27.9951">goldenStaking() Unstaking Flow</text><text fill="#000000" font-family="sans-serif" font-size="14" font-weight="bold" lengthAdjust="spacing" textLength="227" x="391.5" y="44.292">(Failed Path - Error Handling)</text><rect fill="#FFD700" height="1005.3359" style="stroke:#181818;stroke-width:1.0;" width="10" x="398" y="226.5547"/><rect fill="#00EE20" height="35.1328" style="stroke:#181818;stroke-width:1.0;" width="10" x="812" y="608.8906"/><rect fill="#00EE20" height="189.6016" style="stroke:#181818;stroke-width:1.0;" width="10" x="812" y="778.4219"/><rect fill="#00EE20" height="168.4688" style="stroke:#181818;stroke-width:1.0;" width="10" x="812" y="1063.4219"/><rect fill="#F5B7B1" height="977.2031" style="stroke:#000000;stroke-width:1.5;" width="991" x="10" y="283.6875"/><rect fill="#FFFFFF" height="930.9375" style="stroke:none;stroke-width:1.0;" width="991" x="10" y="329.9531"/><rect fill="#FFFFFF" height="272.1328" style="stroke:#000000;stroke-width:1.5;" width="961" x="30" y="393.8906"/><rect fill="#F5B7B1" height="183.7344" style="stroke:#000000;stroke-width:1.5;" width="941" x="40" y="475.2891"/><rect fill="#FFFFFF" height="86.0703" style="stroke:none;stroke-width:1.0;" width="941" x="40" y="572.9531"/><rect fill="#F5B7B1" height="460.4688" style="stroke:#000000;stroke-width:1.5;" width="947" x="20" y="793.4219"/><rect fill="#FFFFFF" height="363.9375" style="stroke:none;stroke-width:1.0;" width="947" x="20" y="889.9531"/><rect fill="#FFFFFF" height="263.8672" style="stroke:#000000;stroke-width:1.5;" width="927" x="30" y="983.0234"/><rect fill="#F5B7B1" height="161.4688" style="stroke:#000000;stroke-width:1.5;" width="907" x="40" y="1078.4219"/><rect fill="#FFFFFF" height="86.0703" style="stroke:none;stroke-width:1.0;" width="907" x="40" y="1153.8203"/><line style="stroke:#181818;stroke-width:0.5;stroke-dasharray:5.0,5.0;" x1="101" x2="101" y1="134.8906" y2="1277.8906"/><line style="stroke:#181818;stroke-width:0.5;stroke-dasharray:5.0,5.0;" x1="402.5" x2="402.5" y1="134.8906" y2="1277.8906"/><line style="stroke:#181818;stroke-width:0.5;stroke-dasharray:5.0,5.0;" x1="816.5" x2="816.5" y1="134.8906" y2="1277.8906"/><text fill="#000000" font-family="sans-serif" font-size="14" lengthAdjust="spacing" textLength="96" x="50" y="131.5889">Golden Fisher</text><ellipse cx="101" cy="67.0938" fill="#E2E2F0" rx="8" ry="8" style="stroke:#181818;stroke-width:0.5;"/><path d="M101,75.0938 L101,102.0938 M88,83.0938 L114,83.0938 M101,102.0938 L88,117.0938 M101,102.0938 L114,117.0938 " fill="none" style="stroke:#181818;stroke-width:0.5;"/><text fill="#000000" font-family="sans-serif" font-size="14" lengthAdjust="spacing" textLength="96" x="50" y="1289.8857">Golden Fisher</text><ellipse cx="101" cy="1301.6875" fill="#E2E2F0" rx="8" ry="8" style="stroke:#181818;stroke-width:0.5;"/><path d="M101,1309.6875 L101,1336.6875 M88,1317.6875 L114,1317.6875 M101,1336.6875 L88,1351.6875 M101,1336.6875 L114,1351.6875 " fill="none" style="stroke:#181818;stroke-width:0.5;"/><rect fill="#FFD700" height="30.2969" rx="2.5" ry="2.5" style="stroke:#181818;stroke-width:0.5;" width="65" x="370.5" y="103.5938"/><text fill="#000000" font-family="sans-serif" font-size="14" lengthAdjust="spacing" textLength="51" x="377.5" y="123.5889">Staking</text><rect fill="#FFD700" height="30.2969" rx="2.5" ry="2.5" style="stroke:#181818;stroke-width:0.5;" width="65" x="370.5" y="1276.8906"/><text fill="#000000" font-family="sans-serif" font-size="14" lengthAdjust="spacing" textLength="51" x="377.5" y="1296.8857">Staking</text><rect fill="#00EE20" height="30.2969" rx="2.5" ry="2.5" style="stroke:#181818;stroke-width:0.5;" width="53" x="790.5" y="103.5938"/><text fill="#000000" font-family="sans-serif" font-size="14" lengthAdjust="spacing" textLength="39" x="797.5" y="123.5889">EVVM</text><rect fill="#00EE20" height="30.2969" rx="2.5" ry="2.5" style="stroke:#181818;stroke-width:0.5;" width="53" x="790.5" y="1276.8906"/><text fill="#000000" font-family="sans-serif" font-size="14" lengthAdjust="spacing" textLength="39" x="797.5" y="1296.8857">EVVM</text><rect fill="#FFD700" height="1005.3359" style="stroke:#181818;stroke-width:1.0;" width="10" x="398" y="226.5547"/><rect fill="#00EE20" height="35.1328" style="stroke:#181818;stroke-width:1.0;" width="10" x="812" y="608.8906"/><rect fill="#00EE20" height="189.6016" style="stroke:#181818;stroke-width:1.0;" width="10" x="812" y="778.4219"/><rect fill="#00EE20" height="168.4688" style="stroke:#181818;stroke-width:1.0;" width="10" x="812" y="1063.4219"/><polygon fill="#181818" points="386,222.5547,396,226.5547,386,230.5547,390,226.5547" style="stroke:#181818;stroke-width:1.0;"/><line style="stroke:#181818;stroke-width:1.0;" x1="101" x2="392" y1="226.5547" y2="226.5547"/><text fill="#000000" font-family="sans-serif" font-size="13" lengthAdjust="spacing" textLength="96" x="108" y="160.9575">goldenStaking(</text><text fill="#000000" font-family="sans-serif" font-size="13" lengthAdjust="spacing" textLength="103" x="116" y="176.0903">isStaking=false,</text><text fill="#000000" font-family="sans-serif" font-size="13" lengthAdjust="spacing" textLength="116" x="116" y="191.2231">amountOfStaking,</text><text fill="#000000" font-family="sans-serif" font-size="13" lengthAdjust="spacing" textLength="104" x="116" y="206.356">signature_EVVM</text><text fill="#000000" font-family="sans-serif" font-size="13" lengthAdjust="spacing" textLength="5" x="108" y="221.4888">)</text><line style="stroke:#181818;stroke-width:1.0;" x1="408" x2="450" y1="255.6875" y2="255.6875"/><line style="stroke:#181818;stroke-width:1.0;" x1="450" x2="450" y1="255.6875" y2="268.6875"/><line style="stroke:#181818;stroke-width:1.0;" x1="409" x2="450" y1="268.6875" y2="268.6875"/><polygon fill="#181818" points="419,264.6875,409,268.6875,419,272.6875,415,268.6875" style="stroke:#181818;stroke-width:1.0;"/><text fill="#000000" font-family="sans-serif" font-size="13" lengthAdjust="spacing" textLength="270" x="415" y="250.6216">Verify msg.sender == goldenFisher.actual</text><path d="M10,283.6875 L74,283.6875 L74,290.8203 L64,300.8203 L10,300.8203 L10,283.6875 " fill="#EEEEEE" style="stroke:#000000;stroke-width:1.5;"/><rect fill="none" height="977.2031" style="stroke:#000000;stroke-width:1.5;" width="991" x="10" y="283.6875"/><text fill="#000000" font-family="sans-serif" font-size="13" font-weight="bold" lengthAdjust="spacing" textLength="19" x="25" y="296.7544">alt</text><text fill="#000000" font-family="sans-serif" font-size="11" font-weight="bold" lengthAdjust="spacing" textLength="234" x="89" y="295.8979">[msg.sender != goldenFisher.actual]</text><line style="stroke:#181818;stroke-width:2.0;" x1="108" x2="118" y1="316.9531" y2="326.9531"/><line style="stroke:#181818;stroke-width:2.0;" x1="108" x2="118" y1="326.9531" y2="316.9531"/><line style="stroke:#181818;stroke-width:1.0;" x1="113" x2="397" y1="321.9531" y2="321.9531"/><text fill="#000000" font-family="sans-serif" font-size="13" lengthAdjust="spacing" textLength="236" x="118" y="316.8872">Revert with SenderIsNotGoldenFisher</text><line style="stroke:#000000;stroke-width:1.0;stroke-dasharray:2.0,2.0;" x1="10" x2="1001" y1="330.9531" y2="330.9531"/><text fill="#000000" font-family="sans-serif" font-size="11" font-weight="bold" lengthAdjust="spacing" textLength="156" x="15" y="341.1636">[Caller is Golden Fisher]</text><line style="stroke:#181818;stroke-width:1.0;" x1="408" x2="450" y1="365.8906" y2="365.8906"/><line style="stroke:#181818;stroke-width:1.0;" x1="450" x2="450" y1="365.8906" y2="378.8906"/><line style="stroke:#181818;stroke-width:1.0;" x1="409" x2="450" y1="378.8906" y2="378.8906"/><polygon fill="#181818" points="419,374.8906,409,378.8906,419,382.8906,415,378.8906" style="stroke:#181818;stroke-width:1.0;"/><text fill="#000000" font-family="sans-serif" font-size="13" lengthAdjust="spacing" textLength="150" x="415" y="360.8247">stakingBaseProcess(&#183;&#183;&#183;)</text><path d="M30,393.8906 L94,393.8906 L94,401.0234 L84,411.0234 L30,411.0234 L30,393.8906 " fill="#EEEEEE" style="stroke:#000000;stroke-width:1.5;"/><rect fill="none" height="272.1328" style="stroke:#000000;stroke-width:1.5;" width="961" x="30" y="393.8906"/><text fill="#000000" font-family="sans-serif" font-size="13" font-weight="bold" lengthAdjust="spacing" textLength="19" x="45" y="406.9575">alt</text><text fill="#000000" font-family="sans-serif" font-size="11" font-weight="bold" lengthAdjust="spacing" textLength="155" x="109" y="406.1011">[Full unstaking attempt]</text><line style="stroke:#181818;stroke-width:1.0;" x1="408" x2="450" y1="447.2891" y2="447.2891"/><line style="stroke:#181818;stroke-width:1.0;" x1="450" x2="450" y1="447.2891" y2="460.2891"/><line style="stroke:#181818;stroke-width:1.0;" x1="409" x2="450" y1="460.2891" y2="460.2891"/><polygon fill="#181818" points="419,456.2891,409,460.2891,419,464.2891,415,460.2891" style="stroke:#181818;stroke-width:1.0;"/><text fill="#000000" font-family="sans-serif" font-size="13" lengthAdjust="spacing" textLength="105" x="415" y="427.0903">Check time lock:</text><text fill="#000000" font-family="sans-serif" font-size="13" lengthAdjust="spacing" textLength="390" x="415" y="442.2231">getTimeToUserUnlockFullUnstakingTime(goldenFisher.actual)</text><path d="M40,475.2891 L104,475.2891 L104,482.4219 L94,492.4219 L40,492.4219 L40,475.2891 " fill="#EEEEEE" style="stroke:#000000;stroke-width:1.5;"/><rect fill="none" height="183.7344" style="stroke:#000000;stroke-width:1.5;" width="941" x="40" y="475.2891"/><text fill="#000000" font-family="sans-serif" font-size="13" font-weight="bold" lengthAdjust="spacing" textLength="19" x="55" y="488.356">alt</text><text fill="#000000" font-family="sans-serif" font-size="11" font-weight="bold" lengthAdjust="spacing" textLength="148" x="119" y="487.4995">[Time lock not expired]</text><line style="stroke:#181818;stroke-width:2.0;" x1="108" x2="118" y1="534.2539" y2="544.2539"/><line style="stroke:#181818;stroke-width:2.0;" x1="108" x2="118" y1="544.2539" y2="534.2539"/><line style="stroke:#181818;stroke-width:1.0;" x1="113" x2="397" y1="539.2539" y2="539.2539"/><text fill="#000000" font-family="sans-serif" font-size="13" lengthAdjust="spacing" textLength="273" x="118" y="534.188">Revert with AddressMustWaitToFullUnstake</text><path d="M413,497.4219 L413,567.4219 L643,567.4219 L643,507.4219 L633,497.4219 L413,497.4219 " fill="#FEFFDD" style="stroke:#181818;stroke-width:0.5;"/><path d="M633,497.4219 L633,507.4219 L643,507.4219 L633,497.4219 " fill="#FEFFDD" style="stroke:#181818;stroke-width:0.5;"/><text fill="#000000" font-family="sans-serif" font-size="13" lengthAdjust="spacing" textLength="158" x="419" y="514.4888">RESTRICTION VIOLATION:</text><text fill="#000000" font-family="sans-serif" font-size="13" lengthAdjust="spacing" textLength="114" x="419" y="529.6216">Must wait 21 days</text><text fill="#000000" font-family="sans-serif" font-size="13" lengthAdjust="spacing" textLength="209" x="419" y="544.7544">(secondsToUnllockFullUnstaking)</text><text fill="#000000" font-family="sans-serif" font-size="13" lengthAdjust="spacing" textLength="105" x="419" y="559.8872">for full unstaking</text><line style="stroke:#000000;stroke-width:1.0;stroke-dasharray:2.0,2.0;" x1="40" x2="981" y1="573.9531" y2="573.9531"/><text fill="#000000" font-family="sans-serif" font-size="11" font-weight="bold" lengthAdjust="spacing" textLength="121" x="45" y="584.1636">[Time lock passed]</text><polygon fill="#181818" points="800,604.8906,810,608.8906,800,612.8906,804,608.8906" style="stroke:#181818;stroke-width:1.0;"/><line style="stroke:#181818;stroke-width:1.0;" x1="408" x2="806" y1="608.8906" y2="608.8906"/><text fill="#000000" font-family="sans-serif" font-size="13" lengthAdjust="spacing" textLength="247" x="415" y="603.8247">pointStaker(goldenFisher.actual, 0x00)</text><line style="stroke:#181818;stroke-width:1.0;" x1="822" x2="864" y1="643.0234" y2="643.0234"/><line style="stroke:#181818;stroke-width:1.0;" x1="864" x2="864" y1="643.0234" y2="656.0234"/><line style="stroke:#181818;stroke-width:1.0;" x1="817" x2="864" y1="656.0234" y2="656.0234"/><polygon fill="#181818" points="827,652.0234,817,656.0234,827,660.0234,823,656.0234" style="stroke:#181818;stroke-width:1.0;"/><text fill="#000000" font-family="sans-serif" font-size="13" lengthAdjust="spacing" textLength="140" x="829" y="637.9575">Remove staker status</text><line style="stroke:#181818;stroke-width:1.0;" x1="408" x2="450" y1="694.1563" y2="694.1563"/><line style="stroke:#181818;stroke-width:1.0;" x1="450" x2="450" y1="694.1563" y2="707.1563"/><line style="stroke:#181818;stroke-width:1.0;" x1="409" x2="450" y1="707.1563" y2="707.1563"/><polygon fill="#181818" points="419,703.1563,409,707.1563,419,711.1563,415,707.1563" style="stroke:#181818;stroke-width:1.0;"/><text fill="#000000" font-family="sans-serif" font-size="13" lengthAdjust="spacing" textLength="124" x="415" y="689.0903">Update userHistory</text><line style="stroke:#181818;stroke-width:1.0;" x1="408" x2="450" y1="736.2891" y2="736.2891"/><line style="stroke:#181818;stroke-width:1.0;" x1="450" x2="450" y1="736.2891" y2="749.2891"/><line style="stroke:#181818;stroke-width:1.0;" x1="409" x2="450" y1="749.2891" y2="749.2891"/><polygon fill="#181818" points="419,745.2891,409,749.2891,419,753.2891,415,749.2891" style="stroke:#181818;stroke-width:1.0;"/><text fill="#000000" font-family="sans-serif" font-size="13" lengthAdjust="spacing" textLength="98" x="415" y="731.2231">makeCaPay(&#183;&#183;&#183;)</text><polygon fill="#181818" points="800,774.4219,810,778.4219,800,782.4219,804,778.4219" style="stroke:#181818;stroke-width:1.0;"/><line style="stroke:#181818;stroke-width:1.0;" x1="408" x2="806" y1="778.4219" y2="778.4219"/><text fill="#000000" font-family="sans-serif" font-size="13" lengthAdjust="spacing" textLength="60" x="415" y="773.356">caPay(&#183;&#183;&#183;)</text><path d="M20,793.4219 L84,793.4219 L84,800.5547 L74,810.5547 L20,810.5547 L20,793.4219 " fill="#EEEEEE" style="stroke:#000000;stroke-width:1.5;"/><rect fill="none" height="460.4688" style="stroke:#000000;stroke-width:1.5;" width="947" x="20" y="793.4219"/><text fill="#000000" font-family="sans-serif" font-size="13" font-weight="bold" lengthAdjust="spacing" textLength="19" x="35" y="806.4888">alt</text><text fill="#000000" font-family="sans-serif" font-size="11" font-weight="bold" lengthAdjust="spacing" textLength="142" x="99" y="805.6323">[Refund transfer fails]</text><line style="stroke:#181818;stroke-width:2.0;" x1="415" x2="425" y1="826.6875" y2="836.6875"/><line style="stroke:#181818;stroke-width:2.0;" x1="415" x2="425" y1="836.6875" y2="826.6875"/><line style="stroke:#181818;stroke-width:1.0;" x1="420" x2="811" y1="831.6875" y2="831.6875"/><text fill="#000000" font-family="sans-serif" font-size="13" lengthAdjust="spacing" textLength="73" x="425" y="826.6216">caPay error</text><line style="stroke:#181818;stroke-width:2.0;" x1="108" x2="118" y1="866.3867" y2="876.3867"/><line style="stroke:#181818;stroke-width:2.0;" x1="108" x2="118" y1="876.3867" y2="866.3867"/><line style="stroke:#181818;stroke-width:1.0;" x1="113" x2="397" y1="871.3867" y2="871.3867"/><text fill="#000000" font-family="sans-serif" font-size="13" lengthAdjust="spacing" textLength="82" x="118" y="866.3208">Refund failed</text><path d="M413,844.6875 L413,884.6875 L587,884.6875 L587,854.6875 L577,844.6875 L413,844.6875 " fill="#FEFFDD" style="stroke:#181818;stroke-width:0.5;"/><path d="M577,844.6875 L577,854.6875 L587,854.6875 L577,844.6875 " fill="#FEFFDD" style="stroke:#181818;stroke-width:0.5;"/><text fill="#000000" font-family="sans-serif" font-size="13" lengthAdjust="spacing" textLength="153" x="419" y="861.7544">Contract balance issues</text><text fill="#000000" font-family="sans-serif" font-size="13" lengthAdjust="spacing" textLength="96" x="419" y="876.8872">or EVVM errors</text><line style="stroke:#000000;stroke-width:1.0;stroke-dasharray:2.0,2.0;" x1="20" x2="967" y1="890.9531" y2="890.9531"/><text fill="#000000" font-family="sans-serif" font-size="11" font-weight="bold" lengthAdjust="spacing" textLength="119" x="25" y="901.1636">[Refund succeeds]</text><line style="stroke:#181818;stroke-width:1.0;" x1="822" x2="864" y1="925.8906" y2="925.8906"/><line style="stroke:#181818;stroke-width:1.0;" x1="864" x2="864" y1="925.8906" y2="938.8906"/><line style="stroke:#181818;stroke-width:1.0;" x1="823" x2="864" y1="938.8906" y2="938.8906"/><polygon fill="#181818" points="833,934.8906,823,938.8906,833,942.8906,829,938.8906" style="stroke:#181818;stroke-width:1.0;"/><text fill="#000000" font-family="sans-serif" font-size="13" lengthAdjust="spacing" textLength="97" x="829" y="920.8247">Transfer refund</text><polygon fill="#181818" points="419,964.0234,409,968.0234,419,972.0234,415,968.0234" style="stroke:#181818;stroke-width:1.0;"/><line style="stroke:#181818;stroke-width:1.0;stroke-dasharray:2.0,2.0;" x1="413" x2="816" y1="968.0234" y2="968.0234"/><text fill="#000000" font-family="sans-serif" font-size="13" lengthAdjust="spacing" textLength="53" x="425" y="962.9575">Success</text><path d="M30,983.0234 L94,983.0234 L94,990.1563 L84,1000.1563 L30,1000.1563 L30,983.0234 " fill="#EEEEEE" style="stroke:#000000;stroke-width:1.5;"/><rect fill="none" height="263.8672" style="stroke:#000000;stroke-width:1.5;" width="927" x="30" y="983.0234"/><text fill="#000000" font-family="sans-serif" font-size="13" font-weight="bold" lengthAdjust="spacing" textLength="19" x="45" y="996.0903">alt</text><text fill="#000000" font-family="sans-serif" font-size="11" font-weight="bold" lengthAdjust="spacing" textLength="143" x="109" y="995.2339">[msg.sender is staker]</text><line style="stroke:#181818;stroke-width:1.0;" x1="408" x2="450" y1="1021.2891" y2="1021.2891"/><line style="stroke:#181818;stroke-width:1.0;" x1="450" x2="450" y1="1021.2891" y2="1034.2891"/><line style="stroke:#181818;stroke-width:1.0;" x1="409" x2="450" y1="1034.2891" y2="1034.2891"/><polygon fill="#181818" points="419,1030.2891,409,1034.2891,419,1038.2891,415,1034.2891" style="stroke:#181818;stroke-width:1.0;"/><text fill="#000000" font-family="sans-serif" font-size="13" lengthAdjust="spacing" textLength="98" x="415" y="1016.2231">makeCaPay(&#183;&#183;&#183;)</text><polygon fill="#181818" points="800,1059.4219,810,1063.4219,800,1067.4219,804,1063.4219" style="stroke:#181818;stroke-width:1.0;"/><line style="stroke:#181818;stroke-width:1.0;" x1="408" x2="806" y1="1063.4219" y2="1063.4219"/><text fill="#000000" font-family="sans-serif" font-size="13" lengthAdjust="spacing" textLength="60" x="415" y="1058.356">caPay(&#183;&#183;&#183;)</text><path d="M40,1078.4219 L104,1078.4219 L104,1085.5547 L94,1095.5547 L40,1095.5547 L40,1078.4219 " fill="#EEEEEE" style="stroke:#000000;stroke-width:1.5;"/><rect fill="none" height="161.4688" style="stroke:#000000;stroke-width:1.5;" width="907" x="40" y="1078.4219"/><text fill="#000000" font-family="sans-serif" font-size="13" font-weight="bold" lengthAdjust="spacing" textLength="19" x="55" y="1091.4888">alt</text><text fill="#000000" font-family="sans-serif" font-size="11" font-weight="bold" lengthAdjust="spacing" textLength="168" x="119" y="1090.6323">[Reward distribution fails]</text><line style="stroke:#181818;stroke-width:2.0;" x1="415" x2="425" y1="1111.6875" y2="1121.6875"/><line style="stroke:#181818;stroke-width:2.0;" x1="415" x2="425" y1="1121.6875" y2="1111.6875"/><line style="stroke:#181818;stroke-width:1.0;" x1="420" x2="811" y1="1116.6875" y2="1116.6875"/><text fill="#000000" font-family="sans-serif" font-size="13" lengthAdjust="spacing" textLength="73" x="425" y="1111.6216">caPay error</text><line style="stroke:#181818;stroke-width:2.0;" x1="108" x2="118" y1="1140.8203" y2="1150.8203"/><line style="stroke:#181818;stroke-width:2.0;" x1="108" x2="118" y1="1150.8203" y2="1140.8203"/><line style="stroke:#181818;stroke-width:1.0;" x1="113" x2="397" y1="1145.8203" y2="1145.8203"/><text fill="#000000" font-family="sans-serif" font-size="13" lengthAdjust="spacing" textLength="84" x="118" y="1140.7544">Reward failed</text><line style="stroke:#000000;stroke-width:1.0;stroke-dasharray:2.0,2.0;" x1="40" x2="947" y1="1154.8203" y2="1154.8203"/><text fill="#000000" font-family="sans-serif" font-size="11" font-weight="bold" lengthAdjust="spacing" textLength="139" x="45" y="1165.0308">[Rewards distributed]</text><line style="stroke:#181818;stroke-width:1.0;" x1="822" x2="864" y1="1189.7578" y2="1189.7578"/><line style="stroke:#181818;stroke-width:1.0;" x1="864" x2="864" y1="1189.7578" y2="1202.7578"/><line style="stroke:#181818;stroke-width:1.0;" x1="823" x2="864" y1="1202.7578" y2="1202.7578"/><polygon fill="#181818" points="833,1198.7578,823,1202.7578,833,1206.7578,829,1202.7578" style="stroke:#181818;stroke-width:1.0;"/><text fill="#000000" font-family="sans-serif" font-size="13" lengthAdjust="spacing" textLength="106" x="829" y="1184.6919">Transfer rewards</text><polygon fill="#181818" points="414,1227.8906,404,1231.8906,414,1235.8906,410,1231.8906" style="stroke:#181818;stroke-width:1.0;"/><line style="stroke:#181818;stroke-width:1.0;stroke-dasharray:2.0,2.0;" x1="408" x2="816" y1="1231.8906" y2="1231.8906"/><text fill="#000000" font-family="sans-serif" font-size="13" lengthAdjust="spacing" textLength="53" x="420" y="1226.8247">Success</text><!--SRC=[bLJRRXen47tVhvY65v2Ib4Ig8aL9f8H2WjHSnAqlI9NPdGKBOoFRoqLLlwll_RAETs5PSoi58NRjutDcncVcpjYbm8SWKc4oGMdXPm3mnCBnirQ9Z6fAA0tp4RSO_0hkFg_GWULM80oLY52sBHjpEInNe2jDzWmDeUPzMMumBZ223sP7S05rhOdiXSb84AOI12oqj73sdD90WviHwZDWPaMSBGHJfYqF-PHHT6ShiHIr5Yir6bzlgbKVME_rNbCKpcOJA5MhzVfrDGYAp73na7FSRYNJbm3ShDxkOoOCdhirDg6osFTujPEk6JwKp2OQVpZHlgounFYCMTm9CLWlUD8zr3nUmiGCBmtAY2Axl_TgS4c42HDKCM6X57yPt0okYl1F- -50drnmuK58jOKpr1Rcd2wddV8qpPkopyNQEuO0ANaefIQ06XE2JdC3tgq5lbOnkTNJ4pFueLM8nfJ__7RVIdOeJIaZRoH2G9ARY5cBawbDKGVfQoCCns3v146eS7pRbqEq7NhjgAv1tPLkrH7dvdIRvJtbgkH2-KEnt9sr14Xb0HTJhZ7AaQUN-Z6AD1NXDJ7sE-EsepR1eKT7CWYQ3qVMCTJRdLQprcc-lq6l-VxjqJrHieu6viG3rrSGiQMXhZCOAXaPAe0KEzbN-ZAcfekzKdkw-KlntZVPJvanXn9_oBhj5gQAI-jw1FM-Kfz3TL6jLZoIl6UyXYqYqesDHWidQfQr61MP_cnYF7o47kScBvc5x_uF-xOxZTp9X4pqmWqDgkKHy8HYgB4FjlIzlLkOq0CTpplOjc0BOvh9O3MJ9gQSOnglcvIpyYmAKQLYW6xi1gUOD6MFqvaTx7LXJKaI3oqCc60oH9e39a7o73dApRvCAmkfw9uLjKd2437Q3ZalJcUTc4xnMp2lu6r7PJPCX-xQR-KiciBWv6RbdqD-FdR5Uvlcr6i_tVO-tBF3dEa88dAdveF4SYMtBF5_rZZ58gdYbaLsRzkXp2QmBUpncq_F7i0VjS2_hB1dVz_umwBn2fF2_Vu2]--></g></svg>