<?xml version="1.0" encoding="us-ascii" standalone="no"?><svg xmlns="http://www.w3.org/2000/svg" xmlns:xlink="http://www.w3.org/1999/xlink" contentStyleType="text/css" height="1336px" preserveAspectRatio="none" style="width:922px;height:1336px;background:#FFFFFF;" version="1.1" viewBox="0 0 922 1336" width="922px" zoomAndPan="magnify"><defs/><g><text fill="#000000" font-family="sans-serif" font-size="14" font-weight="bold" lengthAdjust="spacing" textLength="234" x="345.75" y="27.9951">presaleStaking() Staking Flow</text><text fill="#000000" font-family="sans-serif" font-size="14" font-weight="bold" lengthAdjust="spacing" textLength="285" x="320.25" y="44.292">(Happy Path - Successful Execution)</text><rect fill="#FFFFFF" height="66.5313" style="stroke:#181818;stroke-width:1.0;" width="10" x="46.5" y="144.8906"/><rect fill="#FFD700" height="1008.6133" style="stroke:#181818;stroke-width:1.0;" width="10" x="292.5" y="211.4219"/><rect fill="#00EE20" height="86.3984" style="stroke:#181818;stroke-width:1.0;" width="10" x="710.5" y="800.875"/><rect fill="#00EE20" height="35.1328" style="stroke:#181818;stroke-width:1.0;" width="10" x="710.5" y="916.4063"/><rect fill="#00EE20" height="81.832" style="stroke:#181818;stroke-width:1.0;" width="10" x="710.5" y="1138.2031"/><rect fill="#FFFFFF" height="180.7969" style="stroke:#000000;stroke-width:1.5;" width="661.5" x="255" y="1057.8047"/><line style="stroke:#181818;stroke-width:0.5;stroke-dasharray:5.0,5.0;" x1="51" x2="51" y1="134.8906" y2="1255.6016"/><line style="stroke:#181818;stroke-width:0.5;stroke-dasharray:5.0,5.0;" x1="297" x2="297" y1="134.8906" y2="1255.6016"/><line style="stroke:#181818;stroke-width:0.5;stroke-dasharray:5.0,5.0;" x1="715" x2="715" y1="134.8906" y2="1255.6016"/><text fill="#000000" font-family="sans-serif" font-size="14" lengthAdjust="spacing" textLength="87" x="5" y="131.5889">Presale User</text><ellipse cx="51.5" cy="67.0938" fill="#E2E2F0" rx="8" ry="8" style="stroke:#181818;stroke-width:0.5;"/><path d="M51.5,75.0938 L51.5,102.0938 M38.5,83.0938 L64.5,83.0938 M51.5,102.0938 L38.5,117.0938 M51.5,102.0938 L64.5,117.0938 " fill="none" style="stroke:#181818;stroke-width:0.5;"/><text fill="#000000" font-family="sans-serif" font-size="14" lengthAdjust="spacing" textLength="87" x="5" y="1267.5967">Presale User</text><ellipse cx="51.5" cy="1279.3984" fill="#E2E2F0" rx="8" ry="8" style="stroke:#181818;stroke-width:0.5;"/><path d="M51.5,1287.3984 L51.5,1314.3984 M38.5,1295.3984 L64.5,1295.3984 M51.5,1314.3984 L38.5,1329.3984 M51.5,1314.3984 L64.5,1329.3984 " fill="none" style="stroke:#181818;stroke-width:0.5;"/><rect fill="#FFD700" height="30.2969" rx="2.5" ry="2.5" style="stroke:#181818;stroke-width:0.5;" width="65" x="265" y="103.5938"/><text fill="#000000" font-family="sans-serif" font-size="14" lengthAdjust="spacing" textLength="51" x="272" y="123.5889">Staking</text><rect fill="#FFD700" height="30.2969" rx="2.5" ry="2.5" style="stroke:#181818;stroke-width:0.5;" width="65" x="265" y="1254.6016"/><text fill="#000000" font-family="sans-serif" font-size="14" lengthAdjust="spacing" textLength="51" x="272" y="1274.5967">Staking</text><rect fill="#00EE20" height="30.2969" rx="2.5" ry="2.5" style="stroke:#181818;stroke-width:0.5;" width="53" x="689" y="103.5938"/><text fill="#000000" font-family="sans-serif" font-size="14" lengthAdjust="spacing" textLength="39" x="696" y="123.5889">EVVM</text><rect fill="#00EE20" height="30.2969" rx="2.5" ry="2.5" style="stroke:#181818;stroke-width:0.5;" width="53" x="689" y="1254.6016"/><text fill="#000000" font-family="sans-serif" font-size="14" lengthAdjust="spacing" textLength="39" x="696" y="1274.5967">EVVM</text><rect fill="#FFFFFF" height="66.5313" style="stroke:#181818;stroke-width:1.0;" width="10" x="46.5" y="144.8906"/><rect fill="#FFD700" height="1008.6133" style="stroke:#181818;stroke-width:1.0;" width="10" x="292.5" y="211.4219"/><rect fill="#00EE20" height="86.3984" style="stroke:#181818;stroke-width:1.0;" width="10" x="710.5" y="800.875"/><rect fill="#00EE20" height="35.1328" style="stroke:#181818;stroke-width:1.0;" width="10" x="710.5" y="916.4063"/><rect fill="#00EE20" height="81.832" style="stroke:#181818;stroke-width:1.0;" width="10" x="710.5" y="1138.2031"/><polygon fill="#181818" points="280.5,207.4219,290.5,211.4219,280.5,215.4219,284.5,211.4219" style="stroke:#181818;stroke-width:1.0;"/><line style="stroke:#181818;stroke-width:1.0;" x1="51.5" x2="286.5" y1="211.4219" y2="211.4219"/><text fill="#000000" font-family="sans-serif" font-size="13" lengthAdjust="spacing" textLength="100" x="58.5" y="160.9575">presaleStaking(</text><text fill="#000000" font-family="sans-serif" font-size="13" lengthAdjust="spacing" textLength="182" x="66.5" y="176.0903">user, isStaking=true, nonce,</text><text fill="#000000" font-family="sans-serif" font-size="13" lengthAdjust="spacing" textLength="209" x="66.5" y="191.2231">signature, priorityFee_EVVM, (&#183;&#183;&#183;)</text><text fill="#000000" font-family="sans-serif" font-size="13" lengthAdjust="spacing" textLength="5" x="58.5" y="206.356">)</text><line style="stroke:#181818;stroke-width:1.0;" x1="302.5" x2="344.5" y1="285.9531" y2="285.9531"/><line style="stroke:#181818;stroke-width:1.0;" x1="344.5" x2="344.5" y1="285.9531" y2="298.9531"/><line style="stroke:#181818;stroke-width:1.0;" x1="303.5" x2="344.5" y1="298.9531" y2="298.9531"/><polygon fill="#181818" points="313.5,294.9531,303.5,298.9531,313.5,302.9531,309.5,298.9531" style="stroke:#181818;stroke-width:1.0;"/><text fill="#000000" font-family="sans-serif" font-size="13" lengthAdjust="spacing" textLength="197" x="309.5" y="235.4888">verifyMessageSignedForStake(</text><text fill="#000000" font-family="sans-serif" font-size="13" lengthAdjust="spacing" textLength="184" x="317.5" y="250.6216">evvmID, user, isPublic=false,</text><text fill="#000000" font-family="sans-serif" font-size="13" lengthAdjust="spacing" textLength="287" x="317.5" y="265.7544">isStaking=true, amount=1, nonce, signature</text><text fill="#000000" font-family="sans-serif" font-size="13" lengthAdjust="spacing" textLength="5" x="309.5" y="280.8872">)</text><path d="M616,235.4883 L616,290.4883 L815,290.4883 L815,245.4883 L805,235.4883 L616,235.4883 " fill="#FEFFDD" style="stroke:#181818;stroke-width:0.5;"/><path d="M805,235.4883 L805,245.4883 L815,245.4883 L805,235.4883 " fill="#FEFFDD" style="stroke:#181818;stroke-width:0.5;"/><text fill="#000000" font-family="sans-serif" font-size="13" lengthAdjust="spacing" textLength="168" x="622" y="252.5552">SIGNATURE VERIFICATION:</text><text fill="#000000" font-family="sans-serif" font-size="13" lengthAdjust="spacing" textLength="178" x="622" y="267.688">Fixed amount=1 for presale</text><text fill="#000000" font-family="sans-serif" font-size="13" lengthAdjust="spacing" textLength="178" x="622" y="282.8208">User must sign with EIP-712</text><line style="stroke:#181818;stroke-width:1.0;" x1="302.5" x2="344.5" y1="328.0859" y2="328.0859"/><line style="stroke:#181818;stroke-width:1.0;" x1="344.5" x2="344.5" y1="328.0859" y2="341.0859"/><line style="stroke:#181818;stroke-width:1.0;" x1="303.5" x2="344.5" y1="341.0859" y2="341.0859"/><polygon fill="#181818" points="313.5,337.0859,303.5,341.0859,313.5,345.0859,309.5,341.0859" style="stroke:#181818;stroke-width:1.0;"/><text fill="#000000" font-family="sans-serif" font-size="13" lengthAdjust="spacing" textLength="240" x="309.5" y="323.02">checkIfStakeNonceUsed(user, nonce)</text><line style="stroke:#181818;stroke-width:1.0;" x1="302.5" x2="344.5" y1="396.9844" y2="396.9844"/><line style="stroke:#181818;stroke-width:1.0;" x1="344.5" x2="344.5" y1="396.9844" y2="409.9844"/><line style="stroke:#181818;stroke-width:1.0;" x1="303.5" x2="344.5" y1="409.9844" y2="409.9844"/><polygon fill="#181818" points="313.5,405.9844,303.5,409.9844,313.5,413.9844,309.5,409.9844" style="stroke:#181818;stroke-width:1.0;"/><text fill="#000000" font-family="sans-serif" font-size="13" lengthAdjust="spacing" textLength="231" x="309.5" y="391.9185">presaleClaims(isStaking=true, user)</text><path d="M552,354.0859 L552,439.0859 L823,439.0859 L823,364.0859 L813,354.0859 L552,354.0859 " fill="#FEFFDD" style="stroke:#181818;stroke-width:0.5;"/><path d="M813,354.0859 L813,364.0859 L823,364.0859 L813,354.0859 " fill="#FEFFDD" style="stroke:#181818;stroke-width:0.5;"/><text fill="#000000" font-family="sans-serif" font-size="13" lengthAdjust="spacing" textLength="142" x="558" y="371.1528">PRESALE VALIDATION:</text><text fill="#000000" font-family="sans-serif" font-size="13" lengthAdjust="spacing" textLength="206" x="558" y="386.2856">- Verify allowPublicStaking=false</text><text fill="#000000" font-family="sans-serif" font-size="13" lengthAdjust="spacing" textLength="250" x="558" y="401.4185">- Verify userPresaleStaker[user].isAllow</text><text fill="#000000" font-family="sans-serif" font-size="13" lengthAdjust="spacing" textLength="176" x="558" y="416.5513">- Check stakingAmount &lt; 2</text><text fill="#000000" font-family="sans-serif" font-size="13" lengthAdjust="spacing" textLength="197" x="558" y="431.6841">- Increment stakingAmount++</text><line style="stroke:#181818;stroke-width:1.0;" x1="302.5" x2="344.5" y1="465.8828" y2="465.8828"/><line style="stroke:#181818;stroke-width:1.0;" x1="344.5" x2="344.5" y1="465.8828" y2="478.8828"/><line style="stroke:#181818;stroke-width:1.0;" x1="303.5" x2="344.5" y1="478.8828" y2="478.8828"/><polygon fill="#181818" points="313.5,474.8828,303.5,478.8828,313.5,482.8828,309.5,478.8828" style="stroke:#181818;stroke-width:1.0;"/><text fill="#000000" font-family="sans-serif" font-size="13" lengthAdjust="spacing" textLength="249" x="309.5" y="460.8169">Verify allowPresaleStaking.flag == true</text><line style="stroke:#181818;stroke-width:1.0;" x1="302.5" x2="344.5" y1="598.8125" y2="598.8125"/><line style="stroke:#181818;stroke-width:1.0;" x1="344.5" x2="344.5" y1="598.8125" y2="611.8125"/><line style="stroke:#181818;stroke-width:1.0;" x1="303.5" x2="344.5" y1="611.8125" y2="611.8125"/><polygon fill="#181818" points="313.5,607.8125,303.5,611.8125,313.5,615.8125,309.5,611.8125" style="stroke:#181818;stroke-width:1.0;"/><text fill="#000000" font-family="sans-serif" font-size="13" lengthAdjust="spacing" textLength="133" x="309.5" y="502.9497">stakingBaseProcess(</text><text fill="#000000" font-family="sans-serif" font-size="13" lengthAdjust="spacing" textLength="199" x="317.5" y="518.0825">AccountMetadata{user, false},</text><text fill="#000000" font-family="sans-serif" font-size="13" lengthAdjust="spacing" textLength="99" x="317.5" y="533.2153">isStaking=true,</text><text fill="#000000" font-family="sans-serif" font-size="13" lengthAdjust="spacing" textLength="135" x="317.5" y="548.3481">amountOfStaking=1,</text><text fill="#000000" font-family="sans-serif" font-size="13" lengthAdjust="spacing" textLength="206" x="317.5" y="563.481">priorityFee_EVVM, nonce_EVVM,</text><text fill="#000000" font-family="sans-serif" font-size="13" lengthAdjust="spacing" textLength="226" x="317.5" y="578.6138">priorityFlag_EVVM, signature_EVVM</text><text fill="#000000" font-family="sans-serif" font-size="13" lengthAdjust="spacing" textLength="5" x="309.5" y="593.7466">)</text><path d="M555,518.082 L555,588.082 L725,588.082 L725,528.082 L715,518.082 L555,518.082 " fill="#FEFFDD" style="stroke:#181818;stroke-width:0.5;"/><path d="M715,518.082 L715,528.082 L725,528.082 L715,518.082 " fill="#FEFFDD" style="stroke:#181818;stroke-width:0.5;"/><text fill="#000000" font-family="sans-serif" font-size="13" lengthAdjust="spacing" textLength="101" x="561" y="535.1489">FIXED AMOUNT:</text><text fill="#000000" font-family="sans-serif" font-size="13" lengthAdjust="spacing" textLength="143" x="561" y="550.2817">Presale users can only</text><text fill="#000000" font-family="sans-serif" font-size="13" lengthAdjust="spacing" textLength="149" x="561" y="565.4146">stake 1 token at a time</text><text fill="#000000" font-family="sans-serif" font-size="13" lengthAdjust="spacing" textLength="130" x="561" y="580.5474">(max 2 tokens total)</text><line style="stroke:#181818;stroke-width:1.0;" x1="302.5" x2="344.5" y1="656.0781" y2="656.0781"/><line style="stroke:#181818;stroke-width:1.0;" x1="344.5" x2="344.5" y1="656.0781" y2="669.0781"/><line style="stroke:#181818;stroke-width:1.0;" x1="303.5" x2="344.5" y1="669.0781" y2="669.0781"/><polygon fill="#181818" points="313.5,665.0781,303.5,669.0781,313.5,673.0781,309.5,669.0781" style="stroke:#181818;stroke-width:1.0;"/><text fill="#000000" font-family="sans-serif" font-size="13" lengthAdjust="spacing" textLength="105" x="309.5" y="635.8794">Check time lock:</text><text fill="#000000" font-family="sans-serif" font-size="13" lengthAdjust="spacing" textLength="394" x="309.5" y="651.0122">getTimeToUserUnlockStakingTime(user) &lt;= block.timestamp</text><line style="stroke:#181818;stroke-width:1.0;" x1="302.5" x2="344.5" y1="758.7422" y2="758.7422"/><line style="stroke:#181818;stroke-width:1.0;" x1="344.5" x2="344.5" y1="758.7422" y2="771.7422"/><line style="stroke:#181818;stroke-width:1.0;" x1="303.5" x2="344.5" y1="771.7422" y2="771.7422"/><polygon fill="#181818" points="313.5,767.7422,303.5,771.7422,313.5,775.7422,309.5,771.7422" style="stroke:#181818;stroke-width:1.0;"/><text fill="#000000" font-family="sans-serif" font-size="13" lengthAdjust="spacing" textLength="64" x="309.5" y="693.145">makePay(</text><text fill="#000000" font-family="sans-serif" font-size="13" lengthAdjust="spacing" textLength="32" x="317.5" y="708.2778">user,</text><text fill="#000000" font-family="sans-serif" font-size="13" lengthAdjust="spacing" textLength="150" x="317.5" y="723.4106">PRICE_OF_STAKING * 1,</text><text fill="#000000" font-family="sans-serif" font-size="13" lengthAdjust="spacing" textLength="22" x="317.5" y="738.5435">(&#183;&#183;&#183;)</text><text fill="#000000" font-family="sans-serif" font-size="13" lengthAdjust="spacing" textLength="5" x="309.5" y="753.6763">)</text><polygon fill="#181818" points="698.5,796.875,708.5,800.875,698.5,804.875,702.5,800.875" style="stroke:#181818;stroke-width:1.0;"/><line style="stroke:#181818;stroke-width:1.0;" x1="302.5" x2="704.5" y1="800.875" y2="800.875"/><text fill="#000000" font-family="sans-serif" font-size="13" lengthAdjust="spacing" textLength="45" x="309.5" y="795.8091">pay(&#183;&#183;&#183;)</text><line style="stroke:#181818;stroke-width:1.0;" x1="720.5" x2="762.5" y1="845.1406" y2="845.1406"/><line style="stroke:#181818;stroke-width:1.0;" x1="762.5" x2="762.5" y1="845.1406" y2="858.1406"/><line style="stroke:#181818;stroke-width:1.0;" x1="721.5" x2="762.5" y1="858.1406" y2="858.1406"/><polygon fill="#181818" points="731.5,854.1406,721.5,858.1406,731.5,862.1406,727.5,858.1406" style="stroke:#181818;stroke-width:1.0;"/><text fill="#000000" font-family="sans-serif" font-size="13" lengthAdjust="spacing" textLength="171" x="727.5" y="824.9419">Verify signature and nonce</text><text fill="#000000" font-family="sans-serif" font-size="13" lengthAdjust="spacing" textLength="168" x="727.5" y="840.0747">Transfer tokens to Staking</text><polygon fill="#181818" points="313.5,883.2734,303.5,887.2734,313.5,891.2734,309.5,887.2734" style="stroke:#181818;stroke-width:1.0;"/><line style="stroke:#181818;stroke-width:1.0;stroke-dasharray:2.0,2.0;" x1="307.5" x2="714.5" y1="887.2734" y2="887.2734"/><text fill="#000000" font-family="sans-serif" font-size="13" lengthAdjust="spacing" textLength="127" x="319.5" y="882.2075">Payment successful</text><polygon fill="#181818" points="698.5,912.4063,708.5,916.4063,698.5,920.4063,702.5,916.4063" style="stroke:#181818;stroke-width:1.0;"/><line style="stroke:#181818;stroke-width:1.0;" x1="302.5" x2="704.5" y1="916.4063" y2="916.4063"/><text fill="#000000" font-family="sans-serif" font-size="13" lengthAdjust="spacing" textLength="151" x="309.5" y="911.3403">pointStaker(user, 0x01)</text><line style="stroke:#181818;stroke-width:1.0;" x1="720.5" x2="762.5" y1="950.5391" y2="950.5391"/><line style="stroke:#181818;stroke-width:1.0;" x1="762.5" x2="762.5" y1="950.5391" y2="963.5391"/><line style="stroke:#181818;stroke-width:1.0;" x1="715.5" x2="762.5" y1="963.5391" y2="963.5391"/><polygon fill="#181818" points="725.5,959.5391,715.5,963.5391,725.5,967.5391,721.5,963.5391" style="stroke:#181818;stroke-width:1.0;"/><text fill="#000000" font-family="sans-serif" font-size="13" lengthAdjust="spacing" textLength="124" x="727.5" y="945.4731">Grant staker status</text><line style="stroke:#181818;stroke-width:1.0;" x1="302.5" x2="344.5" y1="987.6719" y2="987.6719"/><line style="stroke:#181818;stroke-width:1.0;" x1="344.5" x2="344.5" y1="987.6719" y2="1000.6719"/><line style="stroke:#181818;stroke-width:1.0;" x1="303.5" x2="344.5" y1="1000.6719" y2="1000.6719"/><polygon fill="#181818" points="313.5,996.6719,303.5,1000.6719,313.5,1004.6719,309.5,1000.6719" style="stroke:#181818;stroke-width:1.0;"/><text fill="#000000" font-family="sans-serif" font-size="13" lengthAdjust="spacing" textLength="124" x="309.5" y="982.606">Update userHistory</text><line style="stroke:#181818;stroke-width:1.0;" x1="302.5" x2="344.5" y1="1029.8047" y2="1029.8047"/><line style="stroke:#181818;stroke-width:1.0;" x1="344.5" x2="344.5" y1="1029.8047" y2="1042.8047"/><line style="stroke:#181818;stroke-width:1.0;" x1="303.5" x2="344.5" y1="1042.8047" y2="1042.8047"/><polygon fill="#181818" points="313.5,1038.8047,303.5,1042.8047,313.5,1046.8047,309.5,1042.8047" style="stroke:#181818;stroke-width:1.0;"/><text fill="#000000" font-family="sans-serif" font-size="13" lengthAdjust="spacing" textLength="219" x="309.5" y="1024.7388">stakingNonce[user][nonce] = true</text><path d="M255,1057.8047 L319,1057.8047 L319,1064.9375 L309,1074.9375 L255,1074.9375 L255,1057.8047 " fill="#EEEEEE" style="stroke:#000000;stroke-width:1.5;"/><rect fill="none" height="180.7969" style="stroke:#000000;stroke-width:1.5;" width="661.5" x="255" y="1057.8047"/><text fill="#000000" font-family="sans-serif" font-size="13" font-weight="bold" lengthAdjust="spacing" textLength="19" x="270" y="1070.8716">alt</text><text fill="#000000" font-family="sans-serif" font-size="11" font-weight="bold" lengthAdjust="spacing" textLength="143" x="334" y="1070.0151">[msg.sender is staker]</text><line style="stroke:#181818;stroke-width:1.0;" x1="302.5" x2="344.5" y1="1096.0703" y2="1096.0703"/><line style="stroke:#181818;stroke-width:1.0;" x1="344.5" x2="344.5" y1="1096.0703" y2="1109.0703"/><line style="stroke:#181818;stroke-width:1.0;" x1="303.5" x2="344.5" y1="1109.0703" y2="1109.0703"/><polygon fill="#181818" points="313.5,1105.0703,303.5,1109.0703,313.5,1113.0703,309.5,1109.0703" style="stroke:#181818;stroke-width:1.0;"/><text fill="#000000" font-family="sans-serif" font-size="13" lengthAdjust="spacing" textLength="98" x="309.5" y="1091.0044">makeCaPay(&#183;&#183;&#183;)</text><polygon fill="#181818" points="698.5,1134.2031,708.5,1138.2031,698.5,1142.2031,702.5,1138.2031" style="stroke:#181818;stroke-width:1.0;"/><line style="stroke:#181818;stroke-width:1.0;" x1="302.5" x2="704.5" y1="1138.2031" y2="1138.2031"/><text fill="#000000" font-family="sans-serif" font-size="13" lengthAdjust="spacing" textLength="60" x="309.5" y="1133.1372">caPay(&#183;&#183;&#183;)</text><line style="stroke:#181818;stroke-width:1.0;" x1="720.5" x2="762.5" y1="1167.3359" y2="1167.3359"/><line style="stroke:#181818;stroke-width:1.0;" x1="762.5" x2="762.5" y1="1167.3359" y2="1180.3359"/><line style="stroke:#181818;stroke-width:1.0;" x1="721.5" x2="762.5" y1="1180.3359" y2="1180.3359"/><polygon fill="#181818" points="731.5,1176.3359,721.5,1180.3359,731.5,1184.3359,727.5,1180.3359" style="stroke:#181818;stroke-width:1.0;"/><text fill="#000000" font-family="sans-serif" font-size="13" lengthAdjust="spacing" textLength="106" x="727.5" y="1162.27">Transfer rewards</text><polygon fill="#181818" points="308.5,1216.0352,298.5,1220.0352,308.5,1224.0352,304.5,1220.0352" style="stroke:#181818;stroke-width:1.0;"/><line style="stroke:#181818;stroke-width:1.0;stroke-dasharray:2.0,2.0;" x1="302.5" x2="714.5" y1="1220.0352" y2="1220.0352"/><text fill="#000000" font-family="sans-serif" font-size="13" lengthAdjust="spacing" textLength="53" x="314.5" y="1214.9692">Success</text><path d="M725,1193.3359 L725,1233.3359 L901,1233.3359 L901,1203.3359 L891,1193.3359 L725,1193.3359 " fill="#FEFFDD" style="stroke:#181818;stroke-width:0.5;"/><path d="M891,1193.3359 L891,1203.3359 L901,1203.3359 L891,1193.3359 " fill="#FEFFDD" style="stroke:#181818;stroke-width:0.5;"/><text fill="#000000" font-family="sans-serif" font-size="13" lengthAdjust="spacing" textLength="116" x="731" y="1210.4028">DOUBLE REWARD:</text><text fill="#000000" font-family="sans-serif" font-size="13" lengthAdjust="spacing" textLength="155" x="731" y="1225.5356">Stakers earn 2x rewards</text><!--SRC=[ZLLjRzew5FwUNt7KVe4DUe4lbQOoAOMaYxP2n4itQKoLbnXgaJZ8TbhGjD-rx_UNtMF72IGjqnKIiO-FptcUy-ORgGu9_UZ4MPIdb2luvG3SacXx9xASnwCioGIyF355dT_EpJzMsr5C9HHsWagIqBaYMyOthJRO5VX9zhBYhKzajpj0IDGJT66UHn6LSfqduErfb2kMyRRZa4YXXukmC0LBISK540avBfmT4Of5R4SGs8KrRawbTNJf- -FhNg-kw3qyt1ij-loSmcMlvtc3dl74decYXMb7_qFtOsNgGvFEYeDHxG2JLZPK8gSTu1cFQ4UVIxRXHEK2XJl1Ci7KmQVqKIFeGElVF_hNNccUCMtuhxPDBaufg85xfeAj3_SOGRAXStHBOpyJ6XSrI3NNODof48VvpuH5mpL9P06rIOAac60rx9TqZbmqNfuXCi4sJmfzpuExYRjOpZnuy6Q17upSHJ2TV5Xnd-rfN5c2DMRI1d75TIOXpQKoXk65OHLuGTYzxW_EK8oUQBGDreRJH6D24t6h86GmjizSj3v72M6fR3M9QWCDGk7CcxjVa8xx9HYNPBhmO68C9C7oBU9NMZ9XF57HDiDZkL3nNKj-N37f9gRskp3IR4gGhWaHtC107mKy4jHqM-tu_Vip_6guQaLwjKx81eP3q5JFtBQhMo9fA3BTWwPWt2ZIJk-f8Z5Hv5SHPqFqzri5eqL5fgVhyg1lfAyhtsIhMDSK4ApLg8hDx5zLd1zyyyRWta-NamMcffmE6gE4Y738U79OSKsDGXzKjgKSY082YgMOg5PAzZ0ev18_YYJdYgV8axu6IHPjqTk6gWLk5vakuINNKajOYqr1jk5c23_roPM-YTRItHdxAK8CoU4uJlGYd0KZxt7gFyuNxkTWSWVle8XbRMQSs3EZ32iT3LcDum2fZJcpELwmfLE56mYFY_Ii-48GBjVOfLMOoW5khTHu88UYPAivVZhJz8Kt0MUCgw95R2Vtzht-_mH_9uZj4GI97vNBl_eyWbtkudBIVc8INvZ3tvl3Z9kYXx-RwFo0igT8ek3Il82GoisLf3n6D4nQNFXS0fnD_8Y49ndJgarzIpLwfVXsXFH98qfL6WLz8IAM9perFFO1DiVDA5R8QbqudYvlSKhElA_kR8oDKUGHtrKYE0psDOSd5cLPH3ns_WC0]--></g></svg>