<?xml version="1.0" encoding="us-ascii" standalone="no"?><svg xmlns="http://www.w3.org/2000/svg" xmlns:xlink="http://www.w3.org/1999/xlink" contentStyleType="text/css" height="1760px" preserveAspectRatio="none" style="width:875px;height:1760px;background:#FFFFFF;" version="1.1" viewBox="0 0 875 1760" width="875px" zoomAndPan="magnify"><defs/><g><text fill="#000000" font-family="sans-serif" font-size="14" font-weight="bold" lengthAdjust="spacing" textLength="254" x="311.5" y="27.9951">presaleStaking() Unstaking Flow</text><text fill="#000000" font-family="sans-serif" font-size="14" font-weight="bold" lengthAdjust="spacing" textLength="227" x="325" y="44.292">(Failed Path - Error Handling)</text><rect fill="#FFD700" height="1387.5547" style="stroke:#181818;stroke-width:1.0;" width="10" x="456.5" y="211.4219"/><rect fill="#00EE20" height="30" style="stroke:#181818;stroke-width:1.0;" width="10" x="746.5" y="1051.375"/><rect fill="#00EE20" height="126.3359" style="stroke:#181818;stroke-width:1.0;" width="10" x="746.5" y="1208.7734"/><rect fill="#00EE20" height="126.3359" style="stroke:#181818;stroke-width:1.0;" width="10" x="746.5" y="1472.6406"/><rect fill="#F5B7B1" height="1394.4219" style="stroke:#000000;stroke-width:1.5;" width="858" x="10" y="268.5547"/><rect fill="#FFFFFF" height="1348.1563" style="stroke:none;stroke-width:1.0;" width="858" x="10" y="314.8203"/><rect fill="#F5B7B1" height="1277.2188" style="stroke:#000000;stroke-width:1.5;" width="838" x="20" y="378.7578"/><rect fill="#FFFFFF" height="1230.9531" style="stroke:none;stroke-width:1.0;" width="838" x="20" y="425.0234"/><rect fill="#F5B7B1" height="1160.0156" style="stroke:#000000;stroke-width:1.5;" width="818" x="30" y="488.9609"/><rect fill="#FFFFFF" height="1113.75" style="stroke:none;stroke-width:1.0;" width="818" x="30" y="535.2266"/><rect fill="#F5B7B1" height="1084.9453" style="stroke:#000000;stroke-width:1.5;" width="798" x="40" y="557.0313"/><rect fill="#FFFFFF" height="1038.6797" style="stroke:none;stroke-width:1.0;" width="798" x="40" y="603.2969"/><rect fill="#F5B7B1" height="1009.875" style="stroke:#000000;stroke-width:1.5;" width="778" x="50" y="625.1016"/><rect fill="#FFFFFF" height="927.3438" style="stroke:none;stroke-width:1.0;" width="778" x="50" y="707.6328"/><rect fill="#F5B7B1" height="898.5391" style="stroke:#000000;stroke-width:1.5;" width="758" x="60" y="729.4375"/><rect fill="#FFFFFF" height="852.2734" style="stroke:none;stroke-width:1.0;" width="758" x="60" y="775.7031"/><rect fill="#FFFFFF" height="214.6016" style="stroke:#000000;stroke-width:1.5;" width="718" x="80" y="881.7734"/><rect fill="#F5B7B1" height="141.3359" style="stroke:#000000;stroke-width:1.5;" width="698" x="90" y="948.0391"/><rect fill="#FFFFFF" height="73.9375" style="stroke:none;stroke-width:1.0;" width="698" x="90" y="1015.4375"/><rect fill="#F5B7B1" height="397.2031" style="stroke:#000000;stroke-width:1.5;" width="738" x="70" y="1223.7734"/><rect fill="#FFFFFF" height="321.8047" style="stroke:none;stroke-width:1.0;" width="738" x="70" y="1299.1719"/><rect fill="#FFFFFF" height="221.7344" style="stroke:#000000;stroke-width:1.5;" width="718" x="80" y="1392.2422"/><rect fill="#F5B7B1" height="119.3359" style="stroke:#000000;stroke-width:1.5;" width="698" x="90" y="1487.6406"/><rect fill="#FFFFFF" height="43.9375" style="stroke:none;stroke-width:1.0;" width="698" x="90" y="1563.0391"/><line style="stroke:#181818;stroke-width:0.5;stroke-dasharray:5.0,5.0;" x1="146" x2="146" y1="134.8906" y2="1679.9766"/><line style="stroke:#181818;stroke-width:0.5;stroke-dasharray:5.0,5.0;" x1="461" x2="461" y1="134.8906" y2="1679.9766"/><line style="stroke:#181818;stroke-width:0.5;stroke-dasharray:5.0,5.0;" x1="751" x2="751" y1="134.8906" y2="1679.9766"/><text fill="#000000" font-family="sans-serif" font-size="14" lengthAdjust="spacing" textLength="87" x="100" y="131.5889">Presale User</text><ellipse cx="146.5" cy="67.0938" fill="#E2E2F0" rx="8" ry="8" style="stroke:#181818;stroke-width:0.5;"/><path d="M146.5,75.0938 L146.5,102.0938 M133.5,83.0938 L159.5,83.0938 M146.5,102.0938 L133.5,117.0938 M146.5,102.0938 L159.5,117.0938 " fill="none" style="stroke:#181818;stroke-width:0.5;"/><text fill="#000000" font-family="sans-serif" font-size="14" lengthAdjust="spacing" textLength="87" x="100" y="1691.9717">Presale User</text><ellipse cx="146.5" cy="1703.7734" fill="#E2E2F0" rx="8" ry="8" style="stroke:#181818;stroke-width:0.5;"/><path d="M146.5,1711.7734 L146.5,1738.7734 M133.5,1719.7734 L159.5,1719.7734 M146.5,1738.7734 L133.5,1753.7734 M146.5,1738.7734 L159.5,1753.7734 " fill="none" style="stroke:#181818;stroke-width:0.5;"/><rect fill="#FFD700" height="30.2969" rx="2.5" ry="2.5" style="stroke:#181818;stroke-width:0.5;" width="65" x="429" y="103.5938"/><text fill="#000000" font-family="sans-serif" font-size="14" lengthAdjust="spacing" textLength="51" x="436" y="123.5889">Staking</text><rect fill="#FFD700" height="30.2969" rx="2.5" ry="2.5" style="stroke:#181818;stroke-width:0.5;" width="65" x="429" y="1678.9766"/><text fill="#000000" font-family="sans-serif" font-size="14" lengthAdjust="spacing" textLength="51" x="436" y="1698.9717">Staking</text><rect fill="#00EE20" height="30.2969" rx="2.5" ry="2.5" style="stroke:#181818;stroke-width:0.5;" width="53" x="725" y="103.5938"/><text fill="#000000" font-family="sans-serif" font-size="14" lengthAdjust="spacing" textLength="39" x="732" y="123.5889">EVVM</text><rect fill="#00EE20" height="30.2969" rx="2.5" ry="2.5" style="stroke:#181818;stroke-width:0.5;" width="53" x="725" y="1678.9766"/><text fill="#000000" font-family="sans-serif" font-size="14" lengthAdjust="spacing" textLength="39" x="732" y="1698.9717">EVVM</text><rect fill="#FFD700" height="1387.5547" style="stroke:#181818;stroke-width:1.0;" width="10" x="456.5" y="211.4219"/><rect fill="#00EE20" height="30" style="stroke:#181818;stroke-width:1.0;" width="10" x="746.5" y="1051.375"/><rect fill="#00EE20" height="126.3359" style="stroke:#181818;stroke-width:1.0;" width="10" x="746.5" y="1208.7734"/><rect fill="#00EE20" height="126.3359" style="stroke:#181818;stroke-width:1.0;" width="10" x="746.5" y="1472.6406"/><polygon fill="#181818" points="444.5,207.4219,454.5,211.4219,444.5,215.4219,448.5,211.4219" style="stroke:#181818;stroke-width:1.0;"/><line style="stroke:#181818;stroke-width:1.0;" x1="146.5" x2="450.5" y1="211.4219" y2="211.4219"/><text fill="#000000" font-family="sans-serif" font-size="13" lengthAdjust="spacing" textLength="100" x="153.5" y="160.9575">presaleStaking(</text><text fill="#000000" font-family="sans-serif" font-size="13" lengthAdjust="spacing" textLength="186" x="161.5" y="176.0903">user, isStaking=false, nonce,</text><text fill="#000000" font-family="sans-serif" font-size="13" lengthAdjust="spacing" textLength="90" x="161.5" y="191.2231">signature, (&#183;&#183;&#183;)</text><text fill="#000000" font-family="sans-serif" font-size="13" lengthAdjust="spacing" textLength="5" x="153.5" y="206.356">)</text><line style="stroke:#181818;stroke-width:1.0;" x1="466.5" x2="508.5" y1="240.5547" y2="240.5547"/><line style="stroke:#181818;stroke-width:1.0;" x1="508.5" x2="508.5" y1="240.5547" y2="253.5547"/><line style="stroke:#181818;stroke-width:1.0;" x1="467.5" x2="508.5" y1="253.5547" y2="253.5547"/><polygon fill="#181818" points="477.5,249.5547,467.5,253.5547,477.5,257.5547,473.5,253.5547" style="stroke:#181818;stroke-width:1.0;"/><text fill="#000000" font-family="sans-serif" font-size="13" lengthAdjust="spacing" textLength="214" x="473.5" y="235.4888">verifyMessageSignedForStake(&#183;&#183;&#183;)</text><path d="M10,268.5547 L74,268.5547 L74,275.6875 L64,285.6875 L10,285.6875 L10,268.5547 " fill="#EEEEEE" style="stroke:#000000;stroke-width:1.5;"/><rect fill="none" height="1394.4219" style="stroke:#000000;stroke-width:1.5;" width="858" x="10" y="268.5547"/><text fill="#000000" font-family="sans-serif" font-size="13" font-weight="bold" lengthAdjust="spacing" textLength="19" x="25" y="281.6216">alt</text><text fill="#000000" font-family="sans-serif" font-size="11" font-weight="bold" lengthAdjust="spacing" textLength="118" x="89" y="280.7651">[Invalid signature]</text><line style="stroke:#181818;stroke-width:2.0;" x1="153.5" x2="163.5" y1="301.8203" y2="311.8203"/><line style="stroke:#181818;stroke-width:2.0;" x1="153.5" x2="163.5" y1="311.8203" y2="301.8203"/><line style="stroke:#181818;stroke-width:1.0;" x1="158.5" x2="455.5" y1="306.8203" y2="306.8203"/><text fill="#000000" font-family="sans-serif" font-size="13" lengthAdjust="spacing" textLength="242" x="163.5" y="301.7544">Revert with InvalidSignatureOnStaking</text><line style="stroke:#000000;stroke-width:1.0;stroke-dasharray:2.0,2.0;" x1="10" x2="868" y1="315.8203" y2="315.8203"/><text fill="#000000" font-family="sans-serif" font-size="11" font-weight="bold" lengthAdjust="spacing" textLength="107" x="15" y="326.0308">[Signature valid]</text><line style="stroke:#181818;stroke-width:1.0;" x1="466.5" x2="508.5" y1="350.7578" y2="350.7578"/><line style="stroke:#181818;stroke-width:1.0;" x1="508.5" x2="508.5" y1="350.7578" y2="363.7578"/><line style="stroke:#181818;stroke-width:1.0;" x1="467.5" x2="508.5" y1="363.7578" y2="363.7578"/><polygon fill="#181818" points="477.5,359.7578,467.5,363.7578,477.5,367.7578,473.5,363.7578" style="stroke:#181818;stroke-width:1.0;"/><text fill="#000000" font-family="sans-serif" font-size="13" lengthAdjust="spacing" textLength="240" x="473.5" y="345.6919">verifyAsyncNonce(user, nonce)</text><path d="M20,378.7578 L84,378.7578 L84,385.8906 L74,395.8906 L20,395.8906 L20,378.7578 " fill="#EEEEEE" style="stroke:#000000;stroke-width:1.5;"/><rect fill="none" height="1277.2188" style="stroke:#000000;stroke-width:1.5;" width="838" x="20" y="378.7578"/><text fill="#000000" font-family="sans-serif" font-size="13" font-weight="bold" lengthAdjust="spacing" textLength="19" x="35" y="391.8247">alt</text><text fill="#000000" font-family="sans-serif" font-size="11" font-weight="bold" lengthAdjust="spacing" textLength="137" x="99" y="390.9683">[Nonce already used]</text><line style="stroke:#181818;stroke-width:2.0;" x1="153.5" x2="163.5" y1="412.0234" y2="422.0234"/><line style="stroke:#181818;stroke-width:2.0;" x1="153.5" x2="163.5" y1="422.0234" y2="412.0234"/><line style="stroke:#181818;stroke-width:1.0;" x1="158.5" x2="455.5" y1="417.0234" y2="417.0234"/><text fill="#000000" font-family="sans-serif" font-size="13" lengthAdjust="spacing" textLength="244" x="163.5" y="411.9575">Revert with StakingNonceAlreadyUsed</text><line style="stroke:#000000;stroke-width:1.0;stroke-dasharray:2.0,2.0;" x1="20" x2="858" y1="426.0234" y2="426.0234"/><text fill="#000000" font-family="sans-serif" font-size="11" font-weight="bold" lengthAdjust="spacing" textLength="113" x="25" y="436.2339">[Nonce available]</text><line style="stroke:#181818;stroke-width:1.0;" x1="466.5" x2="508.5" y1="460.9609" y2="460.9609"/><line style="stroke:#181818;stroke-width:1.0;" x1="508.5" x2="508.5" y1="460.9609" y2="473.9609"/><line style="stroke:#181818;stroke-width:1.0;" x1="467.5" x2="508.5" y1="473.9609" y2="473.9609"/><polygon fill="#181818" points="477.5,469.9609,467.5,473.9609,477.5,477.9609,473.5,473.9609" style="stroke:#181818;stroke-width:1.0;"/><text fill="#000000" font-family="sans-serif" font-size="13" lengthAdjust="spacing" textLength="235" x="473.5" y="455.895">presaleClaims(isStaking=false, user)</text><path d="M30,488.9609 L94,488.9609 L94,496.0938 L84,506.0938 L30,506.0938 L30,488.9609 " fill="#EEEEEE" style="stroke:#000000;stroke-width:1.5;"/><rect fill="none" height="1160.0156" style="stroke:#000000;stroke-width:1.5;" width="818" x="30" y="488.9609"/><text fill="#000000" font-family="sans-serif" font-size="13" font-weight="bold" lengthAdjust="spacing" textLength="19" x="45" y="502.0278">alt</text><text fill="#000000" font-family="sans-serif" font-size="11" font-weight="bold" lengthAdjust="spacing" textLength="213" x="109" y="501.1714">[allowPublicStaking.flag == true]</text><line style="stroke:#181818;stroke-width:2.0;" x1="153.5" x2="163.5" y1="522.2266" y2="532.2266"/><line style="stroke:#181818;stroke-width:2.0;" x1="153.5" x2="163.5" y1="532.2266" y2="522.2266"/><line style="stroke:#181818;stroke-width:1.0;" x1="158.5" x2="455.5" y1="527.2266" y2="527.2266"/><text fill="#000000" font-family="sans-serif" font-size="13" lengthAdjust="spacing" textLength="224" x="163.5" y="522.1606">Revert with PresaleStakingDisabled</text><line style="stroke:#000000;stroke-width:1.0;stroke-dasharray:2.0,2.0;" x1="30" x2="848" y1="536.2266" y2="536.2266"/><text fill="#000000" font-family="sans-serif" font-size="11" font-weight="bold" lengthAdjust="spacing" textLength="146" x="35" y="546.437">[Presale period active]</text><path d="M40,557.0313 L104,557.0313 L104,564.1641 L94,574.1641 L40,574.1641 L40,557.0313 " fill="#EEEEEE" style="stroke:#000000;stroke-width:1.5;"/><rect fill="none" height="1084.9453" style="stroke:#000000;stroke-width:1.5;" width="798" x="40" y="557.0313"/><text fill="#000000" font-family="sans-serif" font-size="13" font-weight="bold" lengthAdjust="spacing" textLength="19" x="55" y="570.0981">alt</text><text fill="#000000" font-family="sans-serif" font-size="11" font-weight="bold" lengthAdjust="spacing" textLength="273" x="119" y="569.2417">[userPresaleStaker[user].isAllow == false]</text><line style="stroke:#181818;stroke-width:2.0;" x1="153.5" x2="163.5" y1="590.2969" y2="600.2969"/><line style="stroke:#181818;stroke-width:2.0;" x1="153.5" x2="163.5" y1="600.2969" y2="590.2969"/><line style="stroke:#181818;stroke-width:1.0;" x1="158.5" x2="455.5" y1="595.2969" y2="595.2969"/><text fill="#000000" font-family="sans-serif" font-size="13" lengthAdjust="spacing" textLength="226" x="163.5" y="590.231">Revert with UserIsNotPresaleStaker</text><line style="stroke:#000000;stroke-width:1.0;stroke-dasharray:2.0,2.0;" x1="40" x2="838" y1="604.2969" y2="604.2969"/><text fill="#000000" font-family="sans-serif" font-size="11" font-weight="bold" lengthAdjust="spacing" textLength="150" x="45" y="614.5073">[User is presale staker]</text><path d="M50,625.1016 L114,625.1016 L114,632.2344 L104,642.2344 L50,642.2344 L50,625.1016 " fill="#EEEEEE" style="stroke:#000000;stroke-width:1.5;"/><rect fill="none" height="1009.875" style="stroke:#000000;stroke-width:1.5;" width="778" x="50" y="625.1016"/><text fill="#000000" font-family="sans-serif" font-size="13" font-weight="bold" lengthAdjust="spacing" textLength="19" x="65" y="638.1685">alt</text><text fill="#000000" font-family="sans-serif" font-size="11" font-weight="bold" lengthAdjust="spacing" textLength="298" x="129" y="637.312">[userPresaleStaker[user].stakingAmount == 0]</text><line style="stroke:#181818;stroke-width:2.0;" x1="153.5" x2="163.5" y1="676.5" y2="686.5"/><line style="stroke:#181818;stroke-width:2.0;" x1="153.5" x2="163.5" y1="686.5" y2="676.5"/><line style="stroke:#181818;stroke-width:1.0;" x1="158.5" x2="455.5" y1="681.5" y2="681.5"/><text fill="#000000" font-family="sans-serif" font-size="13" lengthAdjust="spacing" textLength="286" x="163.5" y="676.4341">Revert with UserPresaleStakerLimitExceeded</text><path d="M471,647.2344 L471,702.2344 L652,702.2344 L652,657.2344 L642,647.2344 L471,647.2344 " fill="#FEFFDD" style="stroke:#181818;stroke-width:0.5;"/><path d="M642,647.2344 L642,657.2344 L652,657.2344 L642,647.2344 " fill="#FEFFDD" style="stroke:#181818;stroke-width:0.5;"/><text fill="#000000" font-family="sans-serif" font-size="13" lengthAdjust="spacing" textLength="151" x="477" y="664.3013">ERROR: Cannot unstake</text><text fill="#000000" font-family="sans-serif" font-size="13" lengthAdjust="spacing" textLength="160" x="477" y="679.4341">when stakingAmount is 0</text><text fill="#000000" font-family="sans-serif" font-size="13" lengthAdjust="spacing" textLength="122" x="477" y="694.5669">(No tokens staked)</text><line style="stroke:#000000;stroke-width:1.0;stroke-dasharray:2.0,2.0;" x1="50" x2="828" y1="708.6328" y2="708.6328"/><text fill="#000000" font-family="sans-serif" font-size="11" font-weight="bold" lengthAdjust="spacing" textLength="160" x="55" y="718.8433">[User has staked tokens]</text><path d="M60,729.4375 L124,729.4375 L124,736.5703 L114,746.5703 L60,746.5703 L60,729.4375 " fill="#EEEEEE" style="stroke:#000000;stroke-width:1.5;"/><rect fill="none" height="898.5391" style="stroke:#000000;stroke-width:1.5;" width="758" x="60" y="729.4375"/><text fill="#000000" font-family="sans-serif" font-size="13" font-weight="bold" lengthAdjust="spacing" textLength="19" x="75" y="742.5044">alt</text><text fill="#000000" font-family="sans-serif" font-size="11" font-weight="bold" lengthAdjust="spacing" textLength="228" x="139" y="741.6479">[allowPresaleStaking.flag == false]</text><line style="stroke:#181818;stroke-width:2.0;" x1="153.5" x2="163.5" y1="762.7031" y2="772.7031"/><line style="stroke:#181818;stroke-width:2.0;" x1="153.5" x2="163.5" y1="772.7031" y2="762.7031"/><line style="stroke:#181818;stroke-width:1.0;" x1="158.5" x2="455.5" y1="767.7031" y2="767.7031"/><text fill="#000000" font-family="sans-serif" font-size="13" lengthAdjust="spacing" textLength="224" x="163.5" y="762.6372">Revert with PresaleStakingDisabled</text><line style="stroke:#000000;stroke-width:1.0;stroke-dasharray:2.0,2.0;" x1="60" x2="818" y1="776.7031" y2="776.7031"/><text fill="#000000" font-family="sans-serif" font-size="11" font-weight="bold" lengthAdjust="spacing" textLength="114" x="65" y="786.9136">[Presale enabled]</text><line style="stroke:#181818;stroke-width:1.0;" x1="466.5" x2="508.5" y1="811.6406" y2="811.6406"/><line style="stroke:#181818;stroke-width:1.0;" x1="508.5" x2="508.5" y1="811.6406" y2="824.6406"/><line style="stroke:#181818;stroke-width:1.0;" x1="467.5" x2="508.5" y1="824.6406" y2="824.6406"/><polygon fill="#181818" points="477.5,820.6406,467.5,824.6406,477.5,828.6406,473.5,824.6406" style="stroke:#181818;stroke-width:1.0;"/><text fill="#000000" font-family="sans-serif" font-size="13" lengthAdjust="spacing" textLength="266" x="473.5" y="806.5747">userPresaleStaker[user].stakingAmount--</text><line style="stroke:#181818;stroke-width:1.0;" x1="466.5" x2="508.5" y1="853.7734" y2="853.7734"/><line style="stroke:#181818;stroke-width:1.0;" x1="508.5" x2="508.5" y1="853.7734" y2="866.7734"/><line style="stroke:#181818;stroke-width:1.0;" x1="467.5" x2="508.5" y1="866.7734" y2="866.7734"/><polygon fill="#181818" points="477.5,862.7734,467.5,866.7734,477.5,870.7734,473.5,866.7734" style="stroke:#181818;stroke-width:1.0;"/><text fill="#000000" font-family="sans-serif" font-size="13" lengthAdjust="spacing" textLength="150" x="473.5" y="848.7075">stakingBaseProcess(&#183;&#183;&#183;)</text><path d="M80,881.7734 L144,881.7734 L144,888.9063 L134,898.9063 L80,898.9063 L80,881.7734 " fill="#EEEEEE" style="stroke:#000000;stroke-width:1.5;"/><rect fill="none" height="214.6016" style="stroke:#000000;stroke-width:1.5;" width="718" x="80" y="881.7734"/><text fill="#000000" font-family="sans-serif" font-size="13" font-weight="bold" lengthAdjust="spacing" textLength="19" x="95" y="894.8403">alt</text><text fill="#000000" font-family="sans-serif" font-size="11" font-weight="bold" lengthAdjust="spacing" textLength="155" x="159" y="893.9839">[Full unstaking attempt]</text><line style="stroke:#181818;stroke-width:1.0;" x1="466.5" x2="508.5" y1="920.0391" y2="920.0391"/><line style="stroke:#181818;stroke-width:1.0;" x1="508.5" x2="508.5" y1="920.0391" y2="933.0391"/><line style="stroke:#181818;stroke-width:1.0;" x1="467.5" x2="508.5" y1="933.0391" y2="933.0391"/><polygon fill="#181818" points="477.5,929.0391,467.5,933.0391,477.5,937.0391,473.5,933.0391" style="stroke:#181818;stroke-width:1.0;"/><text fill="#000000" font-family="sans-serif" font-size="13" lengthAdjust="spacing" textLength="101" x="473.5" y="914.9731">Check time lock</text><path d="M90,948.0391 L154,948.0391 L154,955.1719 L144,965.1719 L90,965.1719 L90,948.0391 " fill="#EEEEEE" style="stroke:#000000;stroke-width:1.5;"/><rect fill="none" height="141.3359" style="stroke:#000000;stroke-width:1.5;" width="698" x="90" y="948.0391"/><text fill="#000000" font-family="sans-serif" font-size="13" font-weight="bold" lengthAdjust="spacing" textLength="19" x="105" y="961.106">alt</text><text fill="#000000" font-family="sans-serif" font-size="11" font-weight="bold" lengthAdjust="spacing" textLength="148" x="169" y="960.2495">[Time lock not expired]</text><line style="stroke:#181818;stroke-width:2.0;" x1="153.5" x2="163.5" y1="991.8711" y2="1001.8711"/><line style="stroke:#181818;stroke-width:2.0;" x1="153.5" x2="163.5" y1="1001.8711" y2="991.8711"/><line style="stroke:#181818;stroke-width:1.0;" x1="158.5" x2="455.5" y1="996.8711" y2="996.8711"/><text fill="#000000" font-family="sans-serif" font-size="13" lengthAdjust="spacing" textLength="273" x="163.5" y="991.8052">Revert with AddressMustWaitToFullUnstake</text><path d="M471,970.1719 L471,1010.1719 L653,1010.1719 L653,980.1719 L643,970.1719 L471,970.1719 " fill="#FEFFDD" style="stroke:#181818;stroke-width:0.5;"/><path d="M643,970.1719 L643,980.1719 L653,980.1719 L643,970.1719 " fill="#FEFFDD" style="stroke:#181818;stroke-width:0.5;"/><text fill="#000000" font-family="sans-serif" font-size="13" lengthAdjust="spacing" textLength="137" x="477" y="987.2388">21-DAY RESTRICTION:</text><text fill="#000000" font-family="sans-serif" font-size="13" lengthAdjust="spacing" textLength="161" x="477" y="1002.3716">Must wait to fully unstake</text><line style="stroke:#000000;stroke-width:1.0;stroke-dasharray:2.0,2.0;" x1="90" x2="788" y1="1016.4375" y2="1016.4375"/><text fill="#000000" font-family="sans-serif" font-size="11" font-weight="bold" lengthAdjust="spacing" textLength="121" x="95" y="1026.6479">[Time lock passed]</text><polygon fill="#181818" points="734.5,1047.375,744.5,1051.375,734.5,1055.375,738.5,1051.375" style="stroke:#181818;stroke-width:1.0;"/><line style="stroke:#181818;stroke-width:1.0;" x1="466.5" x2="740.5" y1="1051.375" y2="1051.375"/><text fill="#000000" font-family="sans-serif" font-size="13" lengthAdjust="spacing" textLength="151" x="473.5" y="1046.3091">pointStaker(user, 0x00)</text><line style="stroke:#181818;stroke-width:1.0;" x1="466.5" x2="508.5" y1="1124.5078" y2="1124.5078"/><line style="stroke:#181818;stroke-width:1.0;" x1="508.5" x2="508.5" y1="1124.5078" y2="1137.5078"/><line style="stroke:#181818;stroke-width:1.0;" x1="467.5" x2="508.5" y1="1137.5078" y2="1137.5078"/><polygon fill="#181818" points="477.5,1133.5078,467.5,1137.5078,477.5,1141.5078,473.5,1137.5078" style="stroke:#181818;stroke-width:1.0;"/><text fill="#000000" font-family="sans-serif" font-size="13" lengthAdjust="spacing" textLength="124" x="473.5" y="1119.4419">Update userHistory</text><line style="stroke:#181818;stroke-width:1.0;" x1="466.5" x2="508.5" y1="1166.6406" y2="1166.6406"/><line style="stroke:#181818;stroke-width:1.0;" x1="508.5" x2="508.5" y1="1166.6406" y2="1179.6406"/><line style="stroke:#181818;stroke-width:1.0;" x1="467.5" x2="508.5" y1="1179.6406" y2="1179.6406"/><polygon fill="#181818" points="477.5,1175.6406,467.5,1179.6406,477.5,1183.6406,473.5,1179.6406" style="stroke:#181818;stroke-width:1.0;"/><text fill="#000000" font-family="sans-serif" font-size="13" lengthAdjust="spacing" textLength="98" x="473.5" y="1161.5747">makeCaPay(&#183;&#183;&#183;)</text><polygon fill="#181818" points="734.5,1204.7734,744.5,1208.7734,734.5,1212.7734,738.5,1208.7734" style="stroke:#181818;stroke-width:1.0;"/><line style="stroke:#181818;stroke-width:1.0;" x1="466.5" x2="740.5" y1="1208.7734" y2="1208.7734"/><text fill="#000000" font-family="sans-serif" font-size="13" lengthAdjust="spacing" textLength="60" x="473.5" y="1203.7075">caPay(&#183;&#183;&#183;)</text><path d="M70,1223.7734 L134,1223.7734 L134,1230.9063 L124,1240.9063 L70,1240.9063 L70,1223.7734 " fill="#EEEEEE" style="stroke:#000000;stroke-width:1.5;"/><rect fill="none" height="397.2031" style="stroke:#000000;stroke-width:1.5;" width="738" x="70" y="1223.7734"/><text fill="#000000" font-family="sans-serif" font-size="13" font-weight="bold" lengthAdjust="spacing" textLength="19" x="85" y="1236.8403">alt</text><text fill="#000000" font-family="sans-serif" font-size="11" font-weight="bold" lengthAdjust="spacing" textLength="142" x="149" y="1235.9839">[Refund transfer fails]</text><line style="stroke:#181818;stroke-width:2.0;" x1="473.5" x2="483.5" y1="1257.0391" y2="1267.0391"/><line style="stroke:#181818;stroke-width:2.0;" x1="473.5" x2="483.5" y1="1267.0391" y2="1257.0391"/><line style="stroke:#181818;stroke-width:1.0;" x1="478.5" x2="745.5" y1="1262.0391" y2="1262.0391"/><text fill="#000000" font-family="sans-serif" font-size="13" lengthAdjust="spacing" textLength="31" x="483.5" y="1256.9731">Error</text><line style="stroke:#181818;stroke-width:2.0;" x1="153.5" x2="163.5" y1="1286.1719" y2="1296.1719"/><line style="stroke:#181818;stroke-width:2.0;" x1="153.5" x2="163.5" y1="1296.1719" y2="1286.1719"/><line style="stroke:#181818;stroke-width:1.0;" x1="158.5" x2="455.5" y1="1291.1719" y2="1291.1719"/><text fill="#000000" font-family="sans-serif" font-size="13" lengthAdjust="spacing" textLength="82" x="163.5" y="1286.106">Refund failed</text><line style="stroke:#000000;stroke-width:1.0;stroke-dasharray:2.0,2.0;" x1="70" x2="808" y1="1300.1719" y2="1300.1719"/><text fill="#000000" font-family="sans-serif" font-size="11" font-weight="bold" lengthAdjust="spacing" textLength="119" x="75" y="1310.3823">[Refund succeeds]</text><polygon fill="#181818" points="477.5,1331.1094,467.5,1335.1094,477.5,1339.1094,473.5,1335.1094" style="stroke:#181818;stroke-width:1.0;"/><line style="stroke:#181818;stroke-width:1.0;stroke-dasharray:2.0,2.0;" x1="471.5" x2="750.5" y1="1335.1094" y2="1335.1094"/><text fill="#000000" font-family="sans-serif" font-size="13" lengthAdjust="spacing" textLength="53" x="483.5" y="1330.0435">Success</text><line style="stroke:#181818;stroke-width:1.0;" x1="466.5" x2="508.5" y1="1364.2422" y2="1364.2422"/><line style="stroke:#181818;stroke-width:1.0;" x1="508.5" x2="508.5" y1="1364.2422" y2="1377.2422"/><line style="stroke:#181818;stroke-width:1.0;" x1="467.5" x2="508.5" y1="1377.2422" y2="1377.2422"/><polygon fill="#181818" points="477.5,1373.2422,467.5,1377.2422,477.5,1381.2422,473.5,1377.2422" style="stroke:#181818;stroke-width:1.0;"/><text fill="#000000" font-family="sans-serif" font-size="13" lengthAdjust="spacing" textLength="219" x="473.5" y="1359.1763">markAsyncNonceAsUsed(user, nonce)</text><path d="M80,1392.2422 L144,1392.2422 L144,1399.375 L134,1409.375 L80,1409.375 L80,1392.2422 " fill="#EEEEEE" style="stroke:#000000;stroke-width:1.5;"/><rect fill="none" height="221.7344" style="stroke:#000000;stroke-width:1.5;" width="718" x="80" y="1392.2422"/><text fill="#000000" font-family="sans-serif" font-size="13" font-weight="bold" lengthAdjust="spacing" textLength="19" x="95" y="1405.3091">alt</text><text fill="#000000" font-family="sans-serif" font-size="11" font-weight="bold" lengthAdjust="spacing" textLength="143" x="159" y="1404.4526">[msg.sender is staker]</text><line style="stroke:#181818;stroke-width:1.0;" x1="466.5" x2="508.5" y1="1430.5078" y2="1430.5078"/><line style="stroke:#181818;stroke-width:1.0;" x1="508.5" x2="508.5" y1="1430.5078" y2="1443.5078"/><line style="stroke:#181818;stroke-width:1.0;" x1="467.5" x2="508.5" y1="1443.5078" y2="1443.5078"/><polygon fill="#181818" points="477.5,1439.5078,467.5,1443.5078,477.5,1447.5078,473.5,1443.5078" style="stroke:#181818;stroke-width:1.0;"/><text fill="#000000" font-family="sans-serif" font-size="13" lengthAdjust="spacing" textLength="98" x="473.5" y="1425.4419">makeCaPay(&#183;&#183;&#183;)</text><polygon fill="#181818" points="734.5,1468.6406,744.5,1472.6406,734.5,1476.6406,738.5,1472.6406" style="stroke:#181818;stroke-width:1.0;"/><line style="stroke:#181818;stroke-width:1.0;" x1="466.5" x2="740.5" y1="1472.6406" y2="1472.6406"/><text fill="#000000" font-family="sans-serif" font-size="13" lengthAdjust="spacing" textLength="60" x="473.5" y="1467.5747">caPay(&#183;&#183;&#183;)</text><path d="M90,1487.6406 L154,1487.6406 L154,1494.7734 L144,1504.7734 L90,1504.7734 L90,1487.6406 " fill="#EEEEEE" style="stroke:#000000;stroke-width:1.5;"/><rect fill="none" height="119.3359" style="stroke:#000000;stroke-width:1.5;" width="698" x="90" y="1487.6406"/><text fill="#000000" font-family="sans-serif" font-size="13" font-weight="bold" lengthAdjust="spacing" textLength="19" x="105" y="1500.7075">alt</text><text fill="#000000" font-family="sans-serif" font-size="11" font-weight="bold" lengthAdjust="spacing" textLength="90" x="169" y="1499.8511">[Reward fails]</text><line style="stroke:#181818;stroke-width:2.0;" x1="473.5" x2="483.5" y1="1520.9063" y2="1530.9063"/><line style="stroke:#181818;stroke-width:2.0;" x1="473.5" x2="483.5" y1="1530.9063" y2="1520.9063"/><line style="stroke:#181818;stroke-width:1.0;" x1="478.5" x2="745.5" y1="1525.9063" y2="1525.9063"/><text fill="#000000" font-family="sans-serif" font-size="13" lengthAdjust="spacing" textLength="31" x="483.5" y="1520.8403">Error</text><line style="stroke:#181818;stroke-width:2.0;" x1="153.5" x2="163.5" y1="1550.0391" y2="1560.0391"/><line style="stroke:#181818;stroke-width:2.0;" x1="153.5" x2="163.5" y1="1560.0391" y2="1550.0391"/><line style="stroke:#181818;stroke-width:1.0;" x1="158.5" x2="455.5" y1="1555.0391" y2="1555.0391"/><text fill="#000000" font-family="sans-serif" font-size="13" lengthAdjust="spacing" textLength="84" x="163.5" y="1549.9731">Reward failed</text><line style="stroke:#000000;stroke-width:1.0;stroke-dasharray:2.0,2.0;" x1="90" x2="788" y1="1564.0391" y2="1564.0391"/><text fill="#000000" font-family="sans-serif" font-size="11" font-weight="bold" lengthAdjust="spacing" textLength="97" x="95" y="1574.2495">[Rewards sent]</text><polygon fill="#181818" points="472.5,1594.9766,462.5,1598.9766,472.5,1602.9766,468.5,1598.9766" style="stroke:#181818;stroke-width:1.0;"/><line style="stroke:#181818;stroke-width:1.0;stroke-dasharray:2.0,2.0;" x1="466.5" x2="750.5" y1="1598.9766" y2="1598.9766"/><text fill="#000000" font-family="sans-serif" font-size="13" lengthAdjust="spacing" textLength="53" x="478.5" y="1593.9106">Success</text><!--SRC=[hLTVRzf847_tfnWbBo25d5lfL2bg8b42LwHBWY3fwLJwiB77iCAiaNSDGTLzhdk_JtQpQvjuCM0xQQ8GC-pyPdxpRuVFKcr3l77yo4kMA1JyT02-C6_nHnmbmkz5OHJ3PiuLElyudt_BJZkAgn1X5QDa8KuKMt0nQxNXISZq6GPXj9cAre3n47qOCJM73lJZcD2-Ck67TARjECnJ93WRfJZm934-0oOXeGTdnMB5FRvYvDLPPiDycjiu7mnkFxckVR3_xTkTEONhzHBENRVV_-WwZaQ4pirEzshV-Qa0O_O2kCnarm4B9Lw0Y8I75_g0v3F1L1AJiFNVl_gtFHLjJOElcSAIPquki2olCUR1zWwbP3ES42JwWoZMHZ57fT242iw3tvy_FN-0eLYpaFklvYb7i0Fil1Z72NYC1ArWmodQcSuaLtaG6IkZwo0nWtEJMDYT0QFYsEX5pxqvUejXO5ozrr6XZFcjD6mcIkqKNRyK2PYp98cH-LljhM-ELBF8V3RwtLJzgQXj7efSCajhgZls7A9JjdEW1deXuqlPAYLUEzIsRUqpOo4L-YXv3hcNALy68Pl1zJMeEC6TJZNLaLMFjrng_tqBOFUco3XldXLLLUI3gKKiExtlkFQWO1BZxrhouvBBhgQa2PWeM03LB7GB3-Lzf2pi4eWbABBH-jI1UMQCjJtz4bWTMfdNtILDDQN9kIMOUkGiy3_vagl-YuVexwKg_n4HaOhvRAu8gpyUFuoleCS4YI4nmnAdOZD70RQ3506NnkTz12fQe4Xd7lhjWpPAmb90von7oF2SIep3XMxLwAxI3nVABolxIZyFjGEAuq3LhXQ7HAsIwdIQkNpKMlRqXKaSnP57byJhdN0CoEGffJz8mZ2hB8t7bCBbIXtLFEf6JqzwK7o944RUuYJ0oG-BDVIOm-cs07nPyVX4gklLJzVtAJVoBf7gByRLOwGZaEuXM0bjTUV73vtRxjymxayUnyFUu_3X_cegD2vi29WQ1mA2tkPzMmb-ya2nP5_3ic9IDed8JRhbq4KMSQ7IwiokO_V5TTkLIBlDnTgMghHyjFHE4nN7-UZFcdN7qyhNLZN5hrpIyhXj2B2a4FNOY6shkweSPSzI_3KnTUeqpXW3MiPfes121jG20QqtydJOjMtgc5VcPlbscZQQiHkOBTwfKykPXamyVIdMyT5ApqJhoTDgJQgl-U2JXOqp7VJVpMRx0mviTCqdOHgbfPnTIgh-TDUHXtUaDzRpkyRIU-h-VJEb6jRgXmsB_Hfjy9vsEDKME_CrfhNT7bgJKavVjHiuthX7tj8h1tHauIlZMuTydKkWhdnVLdoVF-l_-kz_]--></g></svg>