<?xml version="1.0" encoding="us-ascii" standalone="no"?><svg xmlns="http://www.w3.org/2000/svg" xmlns:xlink="http://www.w3.org/1999/xlink" contentStyleType="text/css" height="1321px" preserveAspectRatio="none" style="width:969px;height:1321px;background:#FFFFFF;" version="1.1" viewBox="0 0 969 1321" width="969px" zoomAndPan="magnify"><defs/><g><text fill="#000000" font-family="sans-serif" font-size="14" font-weight="bold" lengthAdjust="spacing" textLength="254" x="358.75" y="27.9951">presaleStaking() Unstaking Flow</text><text fill="#000000" font-family="sans-serif" font-size="14" font-weight="bold" lengthAdjust="spacing" textLength="285" x="343.25" y="44.292">(Happy Path - Successful Execution)</text><rect fill="#FFFFFF" height="66.5313" style="stroke:#181818;stroke-width:1.0;" width="10" x="46.5" y="144.8906"/><rect fill="#FFD700" height="1001.5859" style="stroke:#181818;stroke-width:1.0;" width="10" x="292.5" y="211.4219"/><rect fill="#00EE20" height="35.1328" style="stroke:#181818;stroke-width:1.0;" width="10" x="747.5" y="692.0781"/><rect fill="#00EE20" height="71.2656" style="stroke:#181818;stroke-width:1.0;" width="10" x="747.5" y="929.9453"/><rect fill="#00EE20" height="74.2656" style="stroke:#181818;stroke-width:1.0;" width="10" x="747.5" y="1138.7422"/><rect fill="#FFFFFF" height="160.4688" style="stroke:#000000;stroke-width:1.5;" width="707.5" x="255" y="596.5469"/><rect fill="#FFFFFF" height="14.8047" style="stroke:none;stroke-width:1.0;" width="707.5" x="255" y="742.2109"/><rect fill="#FFFFFF" height="165.6641" style="stroke:#000000;stroke-width:1.5;" width="655.5" x="255" y="1058.3438"/><line style="stroke:#181818;stroke-width:0.5;stroke-dasharray:5.0,5.0;" x1="51" x2="51" y1="134.8906" y2="1241.0078"/><line style="stroke:#181818;stroke-width:0.5;stroke-dasharray:5.0,5.0;" x1="297" x2="297" y1="134.8906" y2="1241.0078"/><line style="stroke:#181818;stroke-width:0.5;stroke-dasharray:5.0,5.0;" x1="752" x2="752" y1="134.8906" y2="1241.0078"/><text fill="#000000" font-family="sans-serif" font-size="14" lengthAdjust="spacing" textLength="87" x="5" y="131.5889">Presale User</text><ellipse cx="51.5" cy="67.0938" fill="#E2E2F0" rx="8" ry="8" style="stroke:#181818;stroke-width:0.5;"/><path d="M51.5,75.0938 L51.5,102.0938 M38.5,83.0938 L64.5,83.0938 M51.5,102.0938 L38.5,117.0938 M51.5,102.0938 L64.5,117.0938 " fill="none" style="stroke:#181818;stroke-width:0.5;"/><text fill="#000000" font-family="sans-serif" font-size="14" lengthAdjust="spacing" textLength="87" x="5" y="1253.0029">Presale User</text><ellipse cx="51.5" cy="1264.8047" fill="#E2E2F0" rx="8" ry="8" style="stroke:#181818;stroke-width:0.5;"/><path d="M51.5,1272.8047 L51.5,1299.8047 M38.5,1280.8047 L64.5,1280.8047 M51.5,1299.8047 L38.5,1314.8047 M51.5,1299.8047 L64.5,1314.8047 " fill="none" style="stroke:#181818;stroke-width:0.5;"/><rect fill="#FFD700" height="30.2969" rx="2.5" ry="2.5" style="stroke:#181818;stroke-width:0.5;" width="65" x="265" y="103.5938"/><text fill="#000000" font-family="sans-serif" font-size="14" lengthAdjust="spacing" textLength="51" x="272" y="123.5889">Staking</text><rect fill="#FFD700" height="30.2969" rx="2.5" ry="2.5" style="stroke:#181818;stroke-width:0.5;" width="65" x="265" y="1240.0078"/><text fill="#000000" font-family="sans-serif" font-size="14" lengthAdjust="spacing" textLength="51" x="272" y="1260.0029">Staking</text><rect fill="#00EE20" height="30.2969" rx="2.5" ry="2.5" style="stroke:#181818;stroke-width:0.5;" width="53" x="726" y="103.5938"/><text fill="#000000" font-family="sans-serif" font-size="14" lengthAdjust="spacing" textLength="39" x="733" y="123.5889">EVVM</text><rect fill="#00EE20" height="30.2969" rx="2.5" ry="2.5" style="stroke:#181818;stroke-width:0.5;" width="53" x="726" y="1240.0078"/><text fill="#000000" font-family="sans-serif" font-size="14" lengthAdjust="spacing" textLength="39" x="733" y="1260.0029">EVVM</text><rect fill="#FFFFFF" height="66.5313" style="stroke:#181818;stroke-width:1.0;" width="10" x="46.5" y="144.8906"/><rect fill="#FFD700" height="1001.5859" style="stroke:#181818;stroke-width:1.0;" width="10" x="292.5" y="211.4219"/><rect fill="#00EE20" height="35.1328" style="stroke:#181818;stroke-width:1.0;" width="10" x="747.5" y="692.0781"/><rect fill="#00EE20" height="71.2656" style="stroke:#181818;stroke-width:1.0;" width="10" x="747.5" y="929.9453"/><rect fill="#00EE20" height="74.2656" style="stroke:#181818;stroke-width:1.0;" width="10" x="747.5" y="1138.7422"/><polygon fill="#181818" points="280.5,207.4219,290.5,211.4219,280.5,215.4219,284.5,211.4219" style="stroke:#181818;stroke-width:1.0;"/><line style="stroke:#181818;stroke-width:1.0;" x1="51.5" x2="286.5" y1="211.4219" y2="211.4219"/><text fill="#000000" font-family="sans-serif" font-size="13" lengthAdjust="spacing" textLength="100" x="58.5" y="160.9575">presaleStaking(</text><text fill="#000000" font-family="sans-serif" font-size="13" lengthAdjust="spacing" textLength="186" x="66.5" y="176.0903">user, isStaking=false, nonce,</text><text fill="#000000" font-family="sans-serif" font-size="13" lengthAdjust="spacing" textLength="209" x="66.5" y="191.2231">signature, priorityFee_EVVM, (&#183;&#183;&#183;)</text><text fill="#000000" font-family="sans-serif" font-size="13" lengthAdjust="spacing" textLength="5" x="58.5" y="206.356">)</text><line style="stroke:#181818;stroke-width:1.0;" x1="302.5" x2="344.5" y1="285.9531" y2="285.9531"/><line style="stroke:#181818;stroke-width:1.0;" x1="344.5" x2="344.5" y1="285.9531" y2="298.9531"/><line style="stroke:#181818;stroke-width:1.0;" x1="303.5" x2="344.5" y1="298.9531" y2="298.9531"/><polygon fill="#181818" points="313.5,294.9531,303.5,298.9531,313.5,302.9531,309.5,298.9531" style="stroke:#181818;stroke-width:1.0;"/><text fill="#000000" font-family="sans-serif" font-size="13" lengthAdjust="spacing" textLength="197" x="309.5" y="235.4888">verifyMessageSignedForStake(</text><text fill="#000000" font-family="sans-serif" font-size="13" lengthAdjust="spacing" textLength="184" x="317.5" y="250.6216">evvmID, user, isPublic=false,</text><text fill="#000000" font-family="sans-serif" font-size="13" lengthAdjust="spacing" textLength="291" x="317.5" y="265.7544">isStaking=false, amount=1, nonce, signature</text><text fill="#000000" font-family="sans-serif" font-size="13" lengthAdjust="spacing" textLength="5" x="309.5" y="280.8872">)</text><line style="stroke:#181818;stroke-width:1.0;" x1="302.5" x2="344.5" y1="328.0859" y2="328.0859"/><line style="stroke:#181818;stroke-width:1.0;" x1="344.5" x2="344.5" y1="328.0859" y2="341.0859"/><line style="stroke:#181818;stroke-width:1.0;" x1="303.5" x2="344.5" y1="341.0859" y2="341.0859"/><polygon fill="#181818" points="313.5,337.0859,303.5,341.0859,313.5,345.0859,309.5,341.0859" style="stroke:#181818;stroke-width:1.0;"/><text fill="#000000" font-family="sans-serif" font-size="13" lengthAdjust="spacing" textLength="240" x="309.5" y="323.02">checkIfStakeNonceUsed(user, nonce)</text><line style="stroke:#181818;stroke-width:1.0;" x1="302.5" x2="344.5" y1="381.8516" y2="381.8516"/><line style="stroke:#181818;stroke-width:1.0;" x1="344.5" x2="344.5" y1="381.8516" y2="394.8516"/><line style="stroke:#181818;stroke-width:1.0;" x1="303.5" x2="344.5" y1="394.8516" y2="394.8516"/><polygon fill="#181818" points="313.5,390.8516,303.5,394.8516,313.5,398.8516,309.5,394.8516" style="stroke:#181818;stroke-width:1.0;"/><text fill="#000000" font-family="sans-serif" font-size="13" lengthAdjust="spacing" textLength="235" x="309.5" y="376.7856">presaleClaims(isStaking=false, user)</text><path d="M556,354.0859 L556,409.0859 L843,409.0859 L843,364.0859 L833,354.0859 L556,354.0859 " fill="#FEFFDD" style="stroke:#181818;stroke-width:0.5;"/><path d="M833,354.0859 L833,364.0859 L843,364.0859 L833,354.0859 " fill="#FEFFDD" style="stroke:#181818;stroke-width:0.5;"/><text fill="#000000" font-family="sans-serif" font-size="13" lengthAdjust="spacing" textLength="83" x="562" y="371.1528">DECREMENT:</text><text fill="#000000" font-family="sans-serif" font-size="13" lengthAdjust="spacing" textLength="266" x="562" y="386.2856">userPresaleStaker[user].stakingAmount--</text><text fill="#000000" font-family="sans-serif" font-size="13" lengthAdjust="spacing" textLength="150" x="562" y="401.4185">(Allows re-staking later)</text><line style="stroke:#181818;stroke-width:1.0;" x1="302.5" x2="344.5" y1="435.6172" y2="435.6172"/><line style="stroke:#181818;stroke-width:1.0;" x1="344.5" x2="344.5" y1="435.6172" y2="448.6172"/><line style="stroke:#181818;stroke-width:1.0;" x1="303.5" x2="344.5" y1="448.6172" y2="448.6172"/><polygon fill="#181818" points="313.5,444.6172,303.5,448.6172,313.5,452.6172,309.5,448.6172" style="stroke:#181818;stroke-width:1.0;"/><text fill="#000000" font-family="sans-serif" font-size="13" lengthAdjust="spacing" textLength="249" x="309.5" y="430.5513">Verify allowPresaleStaking.flag == true</text><line style="stroke:#181818;stroke-width:1.0;" x1="302.5" x2="344.5" y1="568.5469" y2="568.5469"/><line style="stroke:#181818;stroke-width:1.0;" x1="344.5" x2="344.5" y1="568.5469" y2="581.5469"/><line style="stroke:#181818;stroke-width:1.0;" x1="303.5" x2="344.5" y1="581.5469" y2="581.5469"/><polygon fill="#181818" points="313.5,577.5469,303.5,581.5469,313.5,585.5469,309.5,581.5469" style="stroke:#181818;stroke-width:1.0;"/><text fill="#000000" font-family="sans-serif" font-size="13" lengthAdjust="spacing" textLength="133" x="309.5" y="472.6841">stakingBaseProcess(</text><text fill="#000000" font-family="sans-serif" font-size="13" lengthAdjust="spacing" textLength="199" x="317.5" y="487.8169">AccountMetadata{user, false},</text><text fill="#000000" font-family="sans-serif" font-size="13" lengthAdjust="spacing" textLength="103" x="317.5" y="502.9497">isStaking=false,</text><text fill="#000000" font-family="sans-serif" font-size="13" lengthAdjust="spacing" textLength="135" x="317.5" y="518.0825">amountOfStaking=1,</text><text fill="#000000" font-family="sans-serif" font-size="13" lengthAdjust="spacing" textLength="206" x="317.5" y="533.2153">priorityFee_EVVM, nonce_EVVM,</text><text fill="#000000" font-family="sans-serif" font-size="13" lengthAdjust="spacing" textLength="226" x="317.5" y="548.3481">priorityFlag_EVVM, signature_EVVM</text><text fill="#000000" font-family="sans-serif" font-size="13" lengthAdjust="spacing" textLength="5" x="309.5" y="563.481">)</text><path d="M255,596.5469 L319,596.5469 L319,603.6797 L309,613.6797 L255,613.6797 L255,596.5469 " fill="#EEEEEE" style="stroke:#000000;stroke-width:1.5;"/><rect fill="none" height="160.4688" style="stroke:#000000;stroke-width:1.5;" width="707.5" x="255" y="596.5469"/><text fill="#000000" font-family="sans-serif" font-size="13" font-weight="bold" lengthAdjust="spacing" textLength="19" x="270" y="609.6138">alt</text><text fill="#000000" font-family="sans-serif" font-size="11" font-weight="bold" lengthAdjust="spacing" textLength="331" x="334" y="608.7573">[Full unstaking (amount == getUserAmountStaked)]</text><line style="stroke:#181818;stroke-width:1.0;" x1="302.5" x2="344.5" y1="649.9453" y2="649.9453"/><line style="stroke:#181818;stroke-width:1.0;" x1="344.5" x2="344.5" y1="649.9453" y2="662.9453"/><line style="stroke:#181818;stroke-width:1.0;" x1="303.5" x2="344.5" y1="662.9453" y2="662.9453"/><polygon fill="#181818" points="313.5,658.9453,303.5,662.9453,313.5,666.9453,309.5,662.9453" style="stroke:#181818;stroke-width:1.0;"/><text fill="#000000" font-family="sans-serif" font-size="13" lengthAdjust="spacing" textLength="105" x="309.5" y="629.7466">Check time lock:</text><text fill="#000000" font-family="sans-serif" font-size="13" lengthAdjust="spacing" textLength="431" x="309.5" y="644.8794">getTimeToUserUnlockFullUnstakingTime(user) &lt;= block.timestamp</text><path d="M752,622.1797 L752,662.1797 L942,662.1797 L942,632.1797 L932,622.1797 L752,622.1797 " fill="#FEFFDD" style="stroke:#181818;stroke-width:0.5;"/><path d="M932,622.1797 L932,632.1797 L942,632.1797 L932,622.1797 " fill="#FEFFDD" style="stroke:#181818;stroke-width:0.5;"/><text fill="#000000" font-family="sans-serif" font-size="13" lengthAdjust="spacing" textLength="137" x="758" y="639.2466">21-DAY RESTRICTION:</text><text fill="#000000" font-family="sans-serif" font-size="13" lengthAdjust="spacing" textLength="169" x="758" y="654.3794">Must wait for full unstaking</text><polygon fill="#181818" points="735.5,688.0781,745.5,692.0781,735.5,696.0781,739.5,692.0781" style="stroke:#181818;stroke-width:1.0;"/><line style="stroke:#181818;stroke-width:1.0;" x1="302.5" x2="741.5" y1="692.0781" y2="692.0781"/><text fill="#000000" font-family="sans-serif" font-size="13" lengthAdjust="spacing" textLength="151" x="309.5" y="687.0122">pointStaker(user, 0x00)</text><line style="stroke:#181818;stroke-width:1.0;" x1="757.5" x2="799.5" y1="726.2109" y2="726.2109"/><line style="stroke:#181818;stroke-width:1.0;" x1="799.5" x2="799.5" y1="726.2109" y2="739.2109"/><line style="stroke:#181818;stroke-width:1.0;" x1="752.5" x2="799.5" y1="739.2109" y2="739.2109"/><polygon fill="#181818" points="762.5,735.2109,752.5,739.2109,762.5,743.2109,758.5,739.2109" style="stroke:#181818;stroke-width:1.0;"/><text fill="#000000" font-family="sans-serif" font-size="13" lengthAdjust="spacing" textLength="140" x="764.5" y="721.145">Remove staker status</text><line style="stroke:#000000;stroke-width:1.0;stroke-dasharray:2.0,2.0;" x1="255" x2="962.5" y1="743.2109" y2="743.2109"/><text fill="#000000" font-family="sans-serif" font-size="11" font-weight="bold" lengthAdjust="spacing" textLength="119" x="260" y="753.4214">[Partial unstaking]</text><line style="stroke:#181818;stroke-width:1.0;" x1="302.5" x2="344.5" y1="785.1484" y2="785.1484"/><line style="stroke:#181818;stroke-width:1.0;" x1="344.5" x2="344.5" y1="785.1484" y2="798.1484"/><line style="stroke:#181818;stroke-width:1.0;" x1="303.5" x2="344.5" y1="798.1484" y2="798.1484"/><polygon fill="#181818" points="313.5,794.1484,303.5,798.1484,313.5,802.1484,309.5,798.1484" style="stroke:#181818;stroke-width:1.0;"/><text fill="#000000" font-family="sans-serif" font-size="13" lengthAdjust="spacing" textLength="124" x="309.5" y="780.0825">Update userHistory</text><line style="stroke:#181818;stroke-width:1.0;" x1="302.5" x2="344.5" y1="887.8125" y2="887.8125"/><line style="stroke:#181818;stroke-width:1.0;" x1="344.5" x2="344.5" y1="887.8125" y2="900.8125"/><line style="stroke:#181818;stroke-width:1.0;" x1="303.5" x2="344.5" y1="900.8125" y2="900.8125"/><polygon fill="#181818" points="313.5,896.8125,303.5,900.8125,313.5,904.8125,309.5,900.8125" style="stroke:#181818;stroke-width:1.0;"/><text fill="#000000" font-family="sans-serif" font-size="13" lengthAdjust="spacing" textLength="81" x="309.5" y="822.2153">makeCaPay(</text><text fill="#000000" font-family="sans-serif" font-size="13" lengthAdjust="spacing" textLength="189" x="317.5" y="837.3481">PRINCIPAL_TOKEN_ADDRESS,</text><text fill="#000000" font-family="sans-serif" font-size="13" lengthAdjust="spacing" textLength="32" x="317.5" y="852.481">user,</text><text fill="#000000" font-family="sans-serif" font-size="13" lengthAdjust="spacing" textLength="146" x="317.5" y="867.6138">PRICE_OF_STAKING * 1</text><text fill="#000000" font-family="sans-serif" font-size="13" lengthAdjust="spacing" textLength="5" x="309.5" y="882.7466">)</text><polygon fill="#181818" points="735.5,925.9453,745.5,929.9453,735.5,933.9453,739.5,929.9453" style="stroke:#181818;stroke-width:1.0;"/><line style="stroke:#181818;stroke-width:1.0;" x1="302.5" x2="741.5" y1="929.9453" y2="929.9453"/><text fill="#000000" font-family="sans-serif" font-size="13" lengthAdjust="spacing" textLength="60" x="309.5" y="924.8794">caPay(&#183;&#183;&#183;)</text><line style="stroke:#181818;stroke-width:1.0;" x1="757.5" x2="799.5" y1="959.0781" y2="959.0781"/><line style="stroke:#181818;stroke-width:1.0;" x1="799.5" x2="799.5" y1="959.0781" y2="972.0781"/><line style="stroke:#181818;stroke-width:1.0;" x1="758.5" x2="799.5" y1="972.0781" y2="972.0781"/><polygon fill="#181818" points="768.5,968.0781,758.5,972.0781,768.5,976.0781,764.5,972.0781" style="stroke:#181818;stroke-width:1.0;"/><text fill="#000000" font-family="sans-serif" font-size="13" lengthAdjust="spacing" textLength="146" x="764.5" y="954.0122">Transfer refund to user</text><polygon fill="#181818" points="313.5,997.2109,303.5,1001.2109,313.5,1005.2109,309.5,1001.2109" style="stroke:#181818;stroke-width:1.0;"/><line style="stroke:#181818;stroke-width:1.0;stroke-dasharray:2.0,2.0;" x1="307.5" x2="751.5" y1="1001.2109" y2="1001.2109"/><text fill="#000000" font-family="sans-serif" font-size="13" lengthAdjust="spacing" textLength="114" x="319.5" y="996.145">Refund successful</text><line style="stroke:#181818;stroke-width:1.0;" x1="302.5" x2="344.5" y1="1030.3438" y2="1030.3438"/><line style="stroke:#181818;stroke-width:1.0;" x1="344.5" x2="344.5" y1="1030.3438" y2="1043.3438"/><line style="stroke:#181818;stroke-width:1.0;" x1="303.5" x2="344.5" y1="1043.3438" y2="1043.3438"/><polygon fill="#181818" points="313.5,1039.3438,303.5,1043.3438,313.5,1047.3438,309.5,1043.3438" style="stroke:#181818;stroke-width:1.0;"/><text fill="#000000" font-family="sans-serif" font-size="13" lengthAdjust="spacing" textLength="219" x="309.5" y="1025.2778">stakingNonce[user][nonce] = true</text><path d="M255,1058.3438 L319,1058.3438 L319,1065.4766 L309,1075.4766 L255,1075.4766 L255,1058.3438 " fill="#EEEEEE" style="stroke:#000000;stroke-width:1.5;"/><rect fill="none" height="165.6641" style="stroke:#000000;stroke-width:1.5;" width="655.5" x="255" y="1058.3438"/><text fill="#000000" font-family="sans-serif" font-size="13" font-weight="bold" lengthAdjust="spacing" textLength="19" x="270" y="1071.4106">alt</text><text fill="#000000" font-family="sans-serif" font-size="11" font-weight="bold" lengthAdjust="spacing" textLength="143" x="334" y="1070.5542">[msg.sender is staker]</text><line style="stroke:#181818;stroke-width:1.0;" x1="302.5" x2="344.5" y1="1096.6094" y2="1096.6094"/><line style="stroke:#181818;stroke-width:1.0;" x1="344.5" x2="344.5" y1="1096.6094" y2="1109.6094"/><line style="stroke:#181818;stroke-width:1.0;" x1="303.5" x2="344.5" y1="1109.6094" y2="1109.6094"/><polygon fill="#181818" points="313.5,1105.6094,303.5,1109.6094,313.5,1113.6094,309.5,1109.6094" style="stroke:#181818;stroke-width:1.0;"/><text fill="#000000" font-family="sans-serif" font-size="13" lengthAdjust="spacing" textLength="98" x="309.5" y="1091.5435">makeCaPay(&#183;&#183;&#183;)</text><polygon fill="#181818" points="735.5,1134.7422,745.5,1138.7422,735.5,1142.7422,739.5,1138.7422" style="stroke:#181818;stroke-width:1.0;"/><line style="stroke:#181818;stroke-width:1.0;" x1="302.5" x2="741.5" y1="1138.7422" y2="1138.7422"/><text fill="#000000" font-family="sans-serif" font-size="13" lengthAdjust="spacing" textLength="60" x="309.5" y="1133.6763">caPay(&#183;&#183;&#183;)</text><line style="stroke:#181818;stroke-width:1.0;" x1="757.5" x2="799.5" y1="1167.875" y2="1167.875"/><line style="stroke:#181818;stroke-width:1.0;" x1="799.5" x2="799.5" y1="1167.875" y2="1180.875"/><line style="stroke:#181818;stroke-width:1.0;" x1="758.5" x2="799.5" y1="1180.875" y2="1180.875"/><polygon fill="#181818" points="768.5,1176.875,758.5,1180.875,768.5,1184.875,764.5,1180.875" style="stroke:#181818;stroke-width:1.0;"/><text fill="#000000" font-family="sans-serif" font-size="13" lengthAdjust="spacing" textLength="106" x="764.5" y="1162.8091">Transfer rewards</text><polygon fill="#181818" points="308.5,1209.0078,298.5,1213.0078,308.5,1217.0078,304.5,1213.0078" style="stroke:#181818;stroke-width:1.0;"/><line style="stroke:#181818;stroke-width:1.0;stroke-dasharray:2.0,2.0;" x1="302.5" x2="751.5" y1="1213.0078" y2="1213.0078"/><text fill="#000000" font-family="sans-serif" font-size="13" lengthAdjust="spacing" textLength="53" x="314.5" y="1207.9419">Success</text><path d="M762,1193.875 L762,1218.875 L895,1218.875 L895,1203.875 L885,1193.875 L762,1193.875 " fill="#FEFFDD" style="stroke:#181818;stroke-width:0.5;"/><path d="M885,1193.875 L885,1203.875 L895,1203.875 L885,1193.875 " fill="#FEFFDD" style="stroke:#181818;stroke-width:0.5;"/><text fill="#000000" font-family="sans-serif" font-size="13" lengthAdjust="spacing" textLength="112" x="768" y="1210.9419">DOUBLE REWARD</text><!--SRC=[ZLLRJ-9057xlhpZH5zY0YxviOiG4eIXnWOQBcuqOChPJdDXscfafIeo_Qz_tb-sPwGLQm6nCi9qvb-_xpgLNKcq2Ucrvt4r26Ydui01kYFjwAtWIULqUS05lBqnHwzEw-fvPMugfW48ig2G1dIhoog9LhGxpIARFq0_usoAgtP4ute13r0iqOPguBfNIJmAmtwcRACQZkcKHLs6E4oSD1dD9nGaG2Ga-M34HYhai9WZj94jaRlD4f_r-xqUhLJQq7nw6negkro6SjbgsVT4ocTYQA9g6jlGlDA-BK9TLGei8Z6a3cCpEsZu996r0n2ENDhI1PAk8g4JWOImO5qnj-fGkDOG6rFx-qN_rXIRgqGg0uhLAnieFIkZML31_CqG9oOfECItr-bneODH0rMG7lKO1sKcU0-PcYBN17WiIOf5L-ppdioLZ01z4uRvGztNWcxGZxOK5ysffJXFbc6CcRZSWB9IrFImwGjsAECeXsEf5eKVFxaxieJsQNIuYVUrioqF5epvvEilYTmoJPXDxhXDWxqaGj9dd3b1ZSGpMWr4LYFPoIlK_ymEoWdORb4Ze4U_iwOP8wWYkszkKekEw6i-GAk8HHJvIUGpJpuEbq6TfDSP-VdDkJlURogYSFfSC46rcKPJHl9jQaa31gHbaw2T104anghKqhoQweagFNogcaTchupu0ECYzgpi150if1DnznIAX_mnVPrn7cKVwL2ShreA-DArIXwisFElxC-sFrs5i4fNgVt7Ux7L-myIUpYQ3xcmm7c6EOI8Ll16cmCUruPUuc11Lm6O7OFjnbd4IMRUstbkjb5unYALzeM_CmJR8X8PydSuhxWxyfn9fx7PcMvjQ58kQw-terKIgC4jCHtohuoBInE8z9nfvHvfm7dlvKhbZ4hVfveXXYB2xn24RqwJEP33g3fpEp-LiV6-FbfrU3wMUDegrbnbrxUMulvpEElU3qIryW_FgSiZ4SKtaREDPXpMjw3aJ998-IYceZvyRK3nTZQbP2ViajP35HyIgQlxbX9fLbUwCHpD0Jv0FziveX79r9b5eHCHaLkRZ0x2LCoVzHV-vUuR_tNKxAhqHuSaTcnAUx0Dxi24BPEKDEvxV_BHnmdvr9hsgtsxZ_GC0]--></g></svg>