<?xml version="1.0" encoding="us-ascii" standalone="no"?><svg xmlns="http://www.w3.org/2000/svg" xmlns:xlink="http://www.w3.org/1999/xlink" contentStyleType="text/css" height="1904px" preserveAspectRatio="none" style="width:907px;height:1904px;background:#FFFFFF;" version="1.1" viewBox="0 0 907 1904" width="907px" zoomAndPan="magnify"><defs/><g><text fill="#000000" font-family="sans-serif" font-size="14" font-weight="bold" lengthAdjust="spacing" textLength="234" x="337.5" y="27.9951">presaleStaking() Staking Flow</text><text fill="#000000" font-family="sans-serif" font-size="14" font-weight="bold" lengthAdjust="spacing" textLength="227" x="341" y="44.292">(Failed Path - Error Handling)</text><rect fill="#FFD700" height="1524.75" style="stroke:#181818;stroke-width:1.0;" width="10" x="466.5" y="211.4219"/><rect fill="#00EE20" height="177.7344" style="stroke:#181818;stroke-width:1.0;" width="10" x="768.5" y="1193.3047"/><rect fill="#00EE20" height="30" style="stroke:#181818;stroke-width:1.0;" width="10" x="768.5" y="1400.1719"/><rect fill="#00EE20" height="126.3359" style="stroke:#181818;stroke-width:1.0;" width="10" x="768.5" y="1609.8359"/><rect fill="#F5B7B1" height="1538.6172" style="stroke:#000000;stroke-width:1.5;" width="890" x="10" y="268.5547"/><rect fill="#FFFFFF" height="1456.0859" style="stroke:none;stroke-width:1.0;" width="890" x="10" y="351.0859"/><rect fill="#F5B7B1" height="1385.1484" style="stroke:#000000;stroke-width:1.5;" width="870" x="20" y="415.0234"/><rect fill="#FFFFFF" height="1302.6172" style="stroke:none;stroke-width:1.0;" width="870" x="20" y="497.5547"/><rect fill="#F5B7B1" height="1231.6797" style="stroke:#000000;stroke-width:1.5;" width="850" x="30" y="561.4922"/><rect fill="#FFFFFF" height="1149.1484" style="stroke:none;stroke-width:1.0;" width="850" x="30" y="644.0234"/><rect fill="#F5B7B1" height="1120.3438" style="stroke:#000000;stroke-width:1.5;" width="830" x="40" y="665.8281"/><rect fill="#FFFFFF" height="1037.8125" style="stroke:none;stroke-width:1.0;" width="830" x="40" y="748.3594"/><rect fill="#F5B7B1" height="1009.0078" style="stroke:#000000;stroke-width:1.5;" width="810" x="50" y="770.1641"/><rect fill="#FFFFFF" height="926.4766" style="stroke:none;stroke-width:1.0;" width="810" x="50" y="852.6953"/><rect fill="#F5B7B1" height="897.6719" style="stroke:#000000;stroke-width:1.5;" width="790" x="60" y="874.5"/><rect fill="#FFFFFF" height="851.4063" style="stroke:none;stroke-width:1.0;" width="790" x="60" y="920.7656"/><rect fill="#F5B7B1" height="696.2031" style="stroke:#000000;stroke-width:1.5;" width="770" x="70" y="1068.9688"/><rect fill="#FFFFFF" height="649.9375" style="stroke:none;stroke-width:1.0;" width="770" x="70" y="1115.2344"/><rect fill="#F5B7B1" height="549.8672" style="stroke:#000000;stroke-width:1.5;" width="750" x="80" y="1208.3047"/><rect fill="#FFFFFF" height="423.0703" style="stroke:none;stroke-width:1.0;" width="750" x="80" y="1335.1016"/><rect fill="#FFFFFF" height="221.7344" style="stroke:#000000;stroke-width:1.5;" width="730" x="90" y="1529.4375"/><rect fill="#F5B7B1" height="119.3359" style="stroke:#000000;stroke-width:1.5;" width="710" x="100" y="1624.8359"/><rect fill="#FFFFFF" height="43.9375" style="stroke:none;stroke-width:1.0;" width="710" x="100" y="1700.2344"/><line style="stroke:#181818;stroke-width:0.5;stroke-dasharray:5.0,5.0;" x1="156" x2="156" y1="134.8906" y2="1824.1719"/><line style="stroke:#181818;stroke-width:0.5;stroke-dasharray:5.0,5.0;" x1="471" x2="471" y1="134.8906" y2="1824.1719"/><line style="stroke:#181818;stroke-width:0.5;stroke-dasharray:5.0,5.0;" x1="773" x2="773" y1="134.8906" y2="1824.1719"/><text fill="#000000" font-family="sans-serif" font-size="14" lengthAdjust="spacing" textLength="87" x="110" y="131.5889">Presale User</text><ellipse cx="156.5" cy="67.0938" fill="#E2E2F0" rx="8" ry="8" style="stroke:#181818;stroke-width:0.5;"/><path d="M156.5,75.0938 L156.5,102.0938 M143.5,83.0938 L169.5,83.0938 M156.5,102.0938 L143.5,117.0938 M156.5,102.0938 L169.5,117.0938 " fill="none" style="stroke:#181818;stroke-width:0.5;"/><text fill="#000000" font-family="sans-serif" font-size="14" lengthAdjust="spacing" textLength="87" x="110" y="1836.167">Presale User</text><ellipse cx="156.5" cy="1847.9688" fill="#E2E2F0" rx="8" ry="8" style="stroke:#181818;stroke-width:0.5;"/><path d="M156.5,1855.9688 L156.5,1882.9688 M143.5,1863.9688 L169.5,1863.9688 M156.5,1882.9688 L143.5,1897.9688 M156.5,1882.9688 L169.5,1897.9688 " fill="none" style="stroke:#181818;stroke-width:0.5;"/><rect fill="#FFD700" height="30.2969" rx="2.5" ry="2.5" style="stroke:#181818;stroke-width:0.5;" width="65" x="439" y="103.5938"/><text fill="#000000" font-family="sans-serif" font-size="14" lengthAdjust="spacing" textLength="51" x="446" y="123.5889">Staking</text><rect fill="#FFD700" height="30.2969" rx="2.5" ry="2.5" style="stroke:#181818;stroke-width:0.5;" width="65" x="439" y="1823.1719"/><text fill="#000000" font-family="sans-serif" font-size="14" lengthAdjust="spacing" textLength="51" x="446" y="1843.167">Staking</text><rect fill="#00EE20" height="30.2969" rx="2.5" ry="2.5" style="stroke:#181818;stroke-width:0.5;" width="53" x="747" y="103.5938"/><text fill="#000000" font-family="sans-serif" font-size="14" lengthAdjust="spacing" textLength="39" x="754" y="123.5889">EVVM</text><rect fill="#00EE20" height="30.2969" rx="2.5" ry="2.5" style="stroke:#181818;stroke-width:0.5;" width="53" x="747" y="1823.1719"/><text fill="#000000" font-family="sans-serif" font-size="14" lengthAdjust="spacing" textLength="39" x="754" y="1843.167">EVVM</text><rect fill="#FFD700" height="1524.75" style="stroke:#181818;stroke-width:1.0;" width="10" x="466.5" y="211.4219"/><rect fill="#00EE20" height="177.7344" style="stroke:#181818;stroke-width:1.0;" width="10" x="768.5" y="1193.3047"/><rect fill="#00EE20" height="30" style="stroke:#181818;stroke-width:1.0;" width="10" x="768.5" y="1400.1719"/><rect fill="#00EE20" height="126.3359" style="stroke:#181818;stroke-width:1.0;" width="10" x="768.5" y="1609.8359"/><polygon fill="#181818" points="454.5,207.4219,464.5,211.4219,454.5,215.4219,458.5,211.4219" style="stroke:#181818;stroke-width:1.0;"/><line style="stroke:#181818;stroke-width:1.0;" x1="156.5" x2="460.5" y1="211.4219" y2="211.4219"/><text fill="#000000" font-family="sans-serif" font-size="13" lengthAdjust="spacing" textLength="100" x="163.5" y="160.9575">presaleStaking(</text><text fill="#000000" font-family="sans-serif" font-size="13" lengthAdjust="spacing" textLength="182" x="171.5" y="176.0903">user, isStaking=true, nonce,</text><text fill="#000000" font-family="sans-serif" font-size="13" lengthAdjust="spacing" textLength="90" x="171.5" y="191.2231">signature, (&#183;&#183;&#183;)</text><text fill="#000000" font-family="sans-serif" font-size="13" lengthAdjust="spacing" textLength="5" x="163.5" y="206.356">)</text><line style="stroke:#181818;stroke-width:1.0;" x1="476.5" x2="518.5" y1="240.5547" y2="240.5547"/><line style="stroke:#181818;stroke-width:1.0;" x1="518.5" x2="518.5" y1="240.5547" y2="253.5547"/><line style="stroke:#181818;stroke-width:1.0;" x1="477.5" x2="518.5" y1="253.5547" y2="253.5547"/><polygon fill="#181818" points="487.5,249.5547,477.5,253.5547,487.5,257.5547,483.5,253.5547" style="stroke:#181818;stroke-width:1.0;"/><text fill="#000000" font-family="sans-serif" font-size="13" lengthAdjust="spacing" textLength="214" x="483.5" y="235.4888">verifyMessageSignedForStake(&#183;&#183;&#183;)</text><path d="M10,268.5547 L74,268.5547 L74,275.6875 L64,285.6875 L10,285.6875 L10,268.5547 " fill="#EEEEEE" style="stroke:#000000;stroke-width:1.5;"/><rect fill="none" height="1538.6172" style="stroke:#000000;stroke-width:1.5;" width="890" x="10" y="268.5547"/><text fill="#000000" font-family="sans-serif" font-size="13" font-weight="bold" lengthAdjust="spacing" textLength="19" x="25" y="281.6216">alt</text><text fill="#000000" font-family="sans-serif" font-size="11" font-weight="bold" lengthAdjust="spacing" textLength="118" x="89" y="280.7651">[Invalid signature]</text><line style="stroke:#181818;stroke-width:2.0;" x1="163.5" x2="173.5" y1="319.9531" y2="329.9531"/><line style="stroke:#181818;stroke-width:2.0;" x1="163.5" x2="173.5" y1="329.9531" y2="319.9531"/><line style="stroke:#181818;stroke-width:1.0;" x1="168.5" x2="465.5" y1="324.9531" y2="324.9531"/><text fill="#000000" font-family="sans-serif" font-size="13" lengthAdjust="spacing" textLength="242" x="173.5" y="319.8872">Revert with InvalidSignatureOnStaking</text><path d="M481,290.6875 L481,345.6875 L654,345.6875 L654,300.6875 L644,290.6875 L481,290.6875 " fill="#FEFFDD" style="stroke:#181818;stroke-width:0.5;"/><path d="M644,290.6875 L644,300.6875 L654,300.6875 L644,290.6875 " fill="#FEFFDD" style="stroke:#181818;stroke-width:0.5;"/><text fill="#000000" font-family="sans-serif" font-size="13" lengthAdjust="spacing" textLength="117" x="487" y="307.7544">SECURITY: EIP-191 (Ethereum Signed Message)</text><text fill="#000000" font-family="sans-serif" font-size="13" lengthAdjust="spacing" textLength="142" x="487" y="322.8872">signature must match</text><text fill="#000000" font-family="sans-serif" font-size="13" lengthAdjust="spacing" textLength="152" x="487" y="338.02">user, amount=1, nonce</text><line style="stroke:#000000;stroke-width:1.0;stroke-dasharray:2.0,2.0;" x1="10" x2="900" y1="352.0859" y2="352.0859"/><text fill="#000000" font-family="sans-serif" font-size="11" font-weight="bold" lengthAdjust="spacing" textLength="107" x="15" y="362.2964">[Signature valid]</text><line style="stroke:#181818;stroke-width:1.0;" x1="476.5" x2="518.5" y1="387.0234" y2="387.0234"/><line style="stroke:#181818;stroke-width:1.0;" x1="518.5" x2="518.5" y1="387.0234" y2="400.0234"/><line style="stroke:#181818;stroke-width:1.0;" x1="477.5" x2="518.5" y1="400.0234" y2="400.0234"/><polygon fill="#181818" points="487.5,396.0234,477.5,400.0234,487.5,404.0234,483.5,400.0234" style="stroke:#181818;stroke-width:1.0;"/><text fill="#000000" font-family="sans-serif" font-size="13" lengthAdjust="spacing" textLength="240" x="483.5" y="381.9575">verifyAsyncNonce(user, nonce)</text><path d="M20,415.0234 L84,415.0234 L84,422.1563 L74,432.1563 L20,432.1563 L20,415.0234 " fill="#EEEEEE" style="stroke:#000000;stroke-width:1.5;"/><rect fill="none" height="1385.1484" style="stroke:#000000;stroke-width:1.5;" width="870" x="20" y="415.0234"/><text fill="#000000" font-family="sans-serif" font-size="13" font-weight="bold" lengthAdjust="spacing" textLength="19" x="35" y="428.0903">alt</text><text fill="#000000" font-family="sans-serif" font-size="11" font-weight="bold" lengthAdjust="spacing" textLength="137" x="99" y="427.2339">[Nonce already used]</text><line style="stroke:#181818;stroke-width:2.0;" x1="163.5" x2="173.5" y1="466.4219" y2="476.4219"/><line style="stroke:#181818;stroke-width:2.0;" x1="163.5" x2="173.5" y1="476.4219" y2="466.4219"/><line style="stroke:#181818;stroke-width:1.0;" x1="168.5" x2="465.5" y1="471.4219" y2="471.4219"/><text fill="#000000" font-family="sans-serif" font-size="13" lengthAdjust="spacing" textLength="244" x="173.5" y="466.356">Revert with StakingNonceAlreadyUsed</text><path d="M481,437.1563 L481,492.1563 L633,492.1563 L633,447.1563 L623,437.1563 L481,437.1563 " fill="#FEFFDD" style="stroke:#181818;stroke-width:0.5;"/><path d="M623,437.1563 L623,447.1563 L633,447.1563 L623,437.1563 " fill="#FEFFDD" style="stroke:#181818;stroke-width:0.5;"/><text fill="#000000" font-family="sans-serif" font-size="13" lengthAdjust="spacing" textLength="85" x="487" y="454.2231">ANTI-REPLAY:</text><text fill="#000000" font-family="sans-serif" font-size="13" lengthAdjust="spacing" textLength="131" x="487" y="469.356">Each nonce can only</text><text fill="#000000" font-family="sans-serif" font-size="13" lengthAdjust="spacing" textLength="86" x="487" y="484.4888">be used once</text><line style="stroke:#000000;stroke-width:1.0;stroke-dasharray:2.0,2.0;" x1="20" x2="890" y1="498.5547" y2="498.5547"/><text fill="#000000" font-family="sans-serif" font-size="11" font-weight="bold" lengthAdjust="spacing" textLength="113" x="25" y="508.7651">[Nonce available]</text><line style="stroke:#181818;stroke-width:1.0;" x1="476.5" x2="518.5" y1="533.4922" y2="533.4922"/><line style="stroke:#181818;stroke-width:1.0;" x1="518.5" x2="518.5" y1="533.4922" y2="546.4922"/><line style="stroke:#181818;stroke-width:1.0;" x1="477.5" x2="518.5" y1="546.4922" y2="546.4922"/><polygon fill="#181818" points="487.5,542.4922,477.5,546.4922,487.5,550.4922,483.5,546.4922" style="stroke:#181818;stroke-width:1.0;"/><text fill="#000000" font-family="sans-serif" font-size="13" lengthAdjust="spacing" textLength="231" x="483.5" y="528.4263">presaleClaims(isStaking=true, user)</text><path d="M30,561.4922 L94,561.4922 L94,568.625 L84,578.625 L30,578.625 L30,561.4922 " fill="#EEEEEE" style="stroke:#000000;stroke-width:1.5;"/><rect fill="none" height="1231.6797" style="stroke:#000000;stroke-width:1.5;" width="850" x="30" y="561.4922"/><text fill="#000000" font-family="sans-serif" font-size="13" font-weight="bold" lengthAdjust="spacing" textLength="19" x="45" y="574.5591">alt</text><text fill="#000000" font-family="sans-serif" font-size="11" font-weight="bold" lengthAdjust="spacing" textLength="213" x="109" y="573.7026">[allowPublicStaking.flag == true]</text><line style="stroke:#181818;stroke-width:2.0;" x1="163.5" x2="173.5" y1="612.8906" y2="622.8906"/><line style="stroke:#181818;stroke-width:2.0;" x1="163.5" x2="173.5" y1="622.8906" y2="612.8906"/><line style="stroke:#181818;stroke-width:1.0;" x1="168.5" x2="465.5" y1="617.8906" y2="617.8906"/><text fill="#000000" font-family="sans-serif" font-size="13" lengthAdjust="spacing" textLength="224" x="173.5" y="612.8247">Revert with PresaleStakingDisabled</text><path d="M481,583.625 L481,638.625 L632,638.625 L632,593.625 L622,583.625 L481,583.625 " fill="#FEFFDD" style="stroke:#181818;stroke-width:0.5;"/><path d="M622,583.625 L622,593.625 L632,593.625 L622,583.625 " fill="#FEFFDD" style="stroke:#181818;stroke-width:0.5;"/><text fill="#000000" font-family="sans-serif" font-size="13" lengthAdjust="spacing" textLength="98" x="487" y="600.6919">PHASE ENDED:</text><text fill="#000000" font-family="sans-serif" font-size="13" lengthAdjust="spacing" textLength="129" x="487" y="615.8247">Presale closed when</text><text fill="#000000" font-family="sans-serif" font-size="13" lengthAdjust="spacing" textLength="130" x="487" y="630.9575">public staking opens</text><line style="stroke:#000000;stroke-width:1.0;stroke-dasharray:2.0,2.0;" x1="30" x2="880" y1="645.0234" y2="645.0234"/><text fill="#000000" font-family="sans-serif" font-size="11" font-weight="bold" lengthAdjust="spacing" textLength="146" x="35" y="655.2339">[Presale period active]</text><path d="M40,665.8281 L104,665.8281 L104,672.9609 L94,682.9609 L40,682.9609 L40,665.8281 " fill="#EEEEEE" style="stroke:#000000;stroke-width:1.5;"/><rect fill="none" height="1120.3438" style="stroke:#000000;stroke-width:1.5;" width="830" x="40" y="665.8281"/><text fill="#000000" font-family="sans-serif" font-size="13" font-weight="bold" lengthAdjust="spacing" textLength="19" x="55" y="678.895">alt</text><text fill="#000000" font-family="sans-serif" font-size="11" font-weight="bold" lengthAdjust="spacing" textLength="273" x="119" y="678.0386">[userPresaleStaker[user].isAllow == false]</text><line style="stroke:#181818;stroke-width:2.0;" x1="163.5" x2="173.5" y1="717.2266" y2="727.2266"/><line style="stroke:#181818;stroke-width:2.0;" x1="163.5" x2="173.5" y1="727.2266" y2="717.2266"/><line style="stroke:#181818;stroke-width:1.0;" x1="168.5" x2="465.5" y1="722.2266" y2="722.2266"/><text fill="#000000" font-family="sans-serif" font-size="13" lengthAdjust="spacing" textLength="226" x="173.5" y="717.1606">Revert with UserIsNotPresaleStaker</text><path d="M481,687.9609 L481,742.9609 L645,742.9609 L645,697.9609 L635,687.9609 L481,687.9609 " fill="#FEFFDD" style="stroke:#181818;stroke-width:0.5;"/><path d="M635,687.9609 L635,697.9609 L645,697.9609 L635,687.9609 " fill="#FEFFDD" style="stroke:#181818;stroke-width:0.5;"/><text fill="#000000" font-family="sans-serif" font-size="13" lengthAdjust="spacing" textLength="69" x="487" y="705.0278">WHITELIST:</text><text fill="#000000" font-family="sans-serif" font-size="13" lengthAdjust="spacing" textLength="143" x="487" y="720.1606">Only approved presale</text><text fill="#000000" font-family="sans-serif" font-size="13" lengthAdjust="spacing" textLength="101" x="487" y="735.2935">users can stake</text><line style="stroke:#000000;stroke-width:1.0;stroke-dasharray:2.0,2.0;" x1="40" x2="870" y1="749.3594" y2="749.3594"/><text fill="#000000" font-family="sans-serif" font-size="11" font-weight="bold" lengthAdjust="spacing" textLength="150" x="45" y="759.5698">[User is presale staker]</text><path d="M50,770.1641 L114,770.1641 L114,777.2969 L104,787.2969 L50,787.2969 L50,770.1641 " fill="#EEEEEE" style="stroke:#000000;stroke-width:1.5;"/><rect fill="none" height="1009.0078" style="stroke:#000000;stroke-width:1.5;" width="810" x="50" y="770.1641"/><text fill="#000000" font-family="sans-serif" font-size="13" font-weight="bold" lengthAdjust="spacing" textLength="19" x="65" y="783.231">alt</text><text fill="#000000" font-family="sans-serif" font-size="11" font-weight="bold" lengthAdjust="spacing" textLength="298" x="129" y="782.3745">[userPresaleStaker[user].stakingAmount &gt;= 2]</text><line style="stroke:#181818;stroke-width:2.0;" x1="163.5" x2="173.5" y1="821.5625" y2="831.5625"/><line style="stroke:#181818;stroke-width:2.0;" x1="163.5" x2="173.5" y1="831.5625" y2="821.5625"/><line style="stroke:#181818;stroke-width:1.0;" x1="168.5" x2="465.5" y1="826.5625" y2="826.5625"/><text fill="#000000" font-family="sans-serif" font-size="13" lengthAdjust="spacing" textLength="286" x="173.5" y="821.4966">Revert with UserPresaleStakerLimitExceeded</text><path d="M481,792.2969 L481,847.2969 L637,847.2969 L637,802.2969 L627,792.2969 L481,792.2969 " fill="#FEFFDD" style="stroke:#181818;stroke-width:0.5;"/><path d="M627,792.2969 L627,802.2969 L637,802.2969 L627,792.2969 " fill="#FEFFDD" style="stroke:#181818;stroke-width:0.5;"/><text fill="#000000" font-family="sans-serif" font-size="13" lengthAdjust="spacing" textLength="76" x="487" y="809.3638">HARD LIMIT:</text><text fill="#000000" font-family="sans-serif" font-size="13" lengthAdjust="spacing" textLength="135" x="487" y="824.4966">Max 2 staking tokens</text><text fill="#000000" font-family="sans-serif" font-size="13" lengthAdjust="spacing" textLength="104" x="487" y="839.6294">per presale user</text><line style="stroke:#000000;stroke-width:1.0;stroke-dasharray:2.0,2.0;" x1="50" x2="860" y1="853.6953" y2="853.6953"/><text fill="#000000" font-family="sans-serif" font-size="11" font-weight="bold" lengthAdjust="spacing" textLength="132" x="55" y="863.9058">[Limit not exceeded]</text><path d="M60,874.5 L124,874.5 L124,881.6328 L114,891.6328 L60,891.6328 L60,874.5 " fill="#EEEEEE" style="stroke:#000000;stroke-width:1.5;"/><rect fill="none" height="897.6719" style="stroke:#000000;stroke-width:1.5;" width="790" x="60" y="874.5"/><text fill="#000000" font-family="sans-serif" font-size="13" font-weight="bold" lengthAdjust="spacing" textLength="19" x="75" y="887.5669">alt</text><text fill="#000000" font-family="sans-serif" font-size="11" font-weight="bold" lengthAdjust="spacing" textLength="228" x="139" y="886.7104">[allowPresaleStaking.flag == false]</text><line style="stroke:#181818;stroke-width:2.0;" x1="163.5" x2="173.5" y1="907.7656" y2="917.7656"/><line style="stroke:#181818;stroke-width:2.0;" x1="163.5" x2="173.5" y1="917.7656" y2="907.7656"/><line style="stroke:#181818;stroke-width:1.0;" x1="168.5" x2="465.5" y1="912.7656" y2="912.7656"/><text fill="#000000" font-family="sans-serif" font-size="13" lengthAdjust="spacing" textLength="224" x="173.5" y="907.6997">Revert with PresaleStakingDisabled</text><line style="stroke:#000000;stroke-width:1.0;stroke-dasharray:2.0,2.0;" x1="60" x2="850" y1="921.7656" y2="921.7656"/><text fill="#000000" font-family="sans-serif" font-size="11" font-weight="bold" lengthAdjust="spacing" textLength="114" x="65" y="931.9761">[Presale enabled]</text><line style="stroke:#181818;stroke-width:1.0;" x1="476.5" x2="518.5" y1="956.7031" y2="956.7031"/><line style="stroke:#181818;stroke-width:1.0;" x1="518.5" x2="518.5" y1="956.7031" y2="969.7031"/><line style="stroke:#181818;stroke-width:1.0;" x1="477.5" x2="518.5" y1="969.7031" y2="969.7031"/><polygon fill="#181818" points="487.5,965.7031,477.5,969.7031,487.5,973.7031,483.5,969.7031" style="stroke:#181818;stroke-width:1.0;"/><text fill="#000000" font-family="sans-serif" font-size="13" lengthAdjust="spacing" textLength="278" x="483.5" y="951.6372">userPresaleStaker[user].stakingAmount++</text><line style="stroke:#181818;stroke-width:1.0;" x1="476.5" x2="518.5" y1="998.8359" y2="998.8359"/><line style="stroke:#181818;stroke-width:1.0;" x1="518.5" x2="518.5" y1="998.8359" y2="1011.8359"/><line style="stroke:#181818;stroke-width:1.0;" x1="477.5" x2="518.5" y1="1011.8359" y2="1011.8359"/><polygon fill="#181818" points="487.5,1007.8359,477.5,1011.8359,487.5,1015.8359,483.5,1011.8359" style="stroke:#181818;stroke-width:1.0;"/><text fill="#000000" font-family="sans-serif" font-size="13" lengthAdjust="spacing" textLength="150" x="483.5" y="993.77">stakingBaseProcess(&#183;&#183;&#183;)</text><line style="stroke:#181818;stroke-width:1.0;" x1="476.5" x2="518.5" y1="1040.9688" y2="1040.9688"/><line style="stroke:#181818;stroke-width:1.0;" x1="518.5" x2="518.5" y1="1040.9688" y2="1053.9688"/><line style="stroke:#181818;stroke-width:1.0;" x1="477.5" x2="518.5" y1="1053.9688" y2="1053.9688"/><polygon fill="#181818" points="487.5,1049.9688,477.5,1053.9688,487.5,1057.9688,483.5,1053.9688" style="stroke:#181818;stroke-width:1.0;"/><text fill="#000000" font-family="sans-serif" font-size="13" lengthAdjust="spacing" textLength="101" x="483.5" y="1035.9028">Check time lock</text><path d="M70,1068.9688 L134,1068.9688 L134,1076.1016 L124,1086.1016 L70,1086.1016 L70,1068.9688 " fill="#EEEEEE" style="stroke:#000000;stroke-width:1.5;"/><rect fill="none" height="696.2031" style="stroke:#000000;stroke-width:1.5;" width="770" x="70" y="1068.9688"/><text fill="#000000" font-family="sans-serif" font-size="13" font-weight="bold" lengthAdjust="spacing" textLength="19" x="85" y="1082.0356">alt</text><text fill="#000000" font-family="sans-serif" font-size="11" font-weight="bold" lengthAdjust="spacing" textLength="148" x="149" y="1081.1792">[Time lock not expired]</text><line style="stroke:#181818;stroke-width:2.0;" x1="163.5" x2="173.5" y1="1102.2344" y2="1112.2344"/><line style="stroke:#181818;stroke-width:2.0;" x1="163.5" x2="173.5" y1="1112.2344" y2="1102.2344"/><line style="stroke:#181818;stroke-width:1.0;" x1="168.5" x2="465.5" y1="1107.2344" y2="1107.2344"/><text fill="#000000" font-family="sans-serif" font-size="13" lengthAdjust="spacing" textLength="272" x="173.5" y="1102.1685">Revert with AddressMustWaitToStakeAgain</text><line style="stroke:#000000;stroke-width:1.0;stroke-dasharray:2.0,2.0;" x1="70" x2="840" y1="1116.2344" y2="1116.2344"/><text fill="#000000" font-family="sans-serif" font-size="11" font-weight="bold" lengthAdjust="spacing" textLength="121" x="75" y="1126.4448">[Time lock passed]</text><line style="stroke:#181818;stroke-width:1.0;" x1="476.5" x2="518.5" y1="1151.1719" y2="1151.1719"/><line style="stroke:#181818;stroke-width:1.0;" x1="518.5" x2="518.5" y1="1151.1719" y2="1164.1719"/><line style="stroke:#181818;stroke-width:1.0;" x1="477.5" x2="518.5" y1="1164.1719" y2="1164.1719"/><polygon fill="#181818" points="487.5,1160.1719,477.5,1164.1719,487.5,1168.1719,483.5,1164.1719" style="stroke:#181818;stroke-width:1.0;"/><text fill="#000000" font-family="sans-serif" font-size="13" lengthAdjust="spacing" textLength="81" x="483.5" y="1146.106">makePay(&#183;&#183;&#183;)</text><polygon fill="#181818" points="756.5,1189.3047,766.5,1193.3047,756.5,1197.3047,760.5,1193.3047" style="stroke:#181818;stroke-width:1.0;"/><line style="stroke:#181818;stroke-width:1.0;" x1="476.5" x2="762.5" y1="1193.3047" y2="1193.3047"/><text fill="#000000" font-family="sans-serif" font-size="13" lengthAdjust="spacing" textLength="45" x="483.5" y="1188.2388">pay(&#183;&#183;&#183;)</text><path d="M80,1208.3047 L144,1208.3047 L144,1215.4375 L134,1225.4375 L80,1225.4375 L80,1208.3047 " fill="#EEEEEE" style="stroke:#000000;stroke-width:1.5;"/><rect fill="none" height="549.8672" style="stroke:#000000;stroke-width:1.5;" width="750" x="80" y="1208.3047"/><text fill="#000000" font-family="sans-serif" font-size="13" font-weight="bold" lengthAdjust="spacing" textLength="19" x="95" y="1221.3716">alt</text><text fill="#000000" font-family="sans-serif" font-size="11" font-weight="bold" lengthAdjust="spacing" textLength="97" x="159" y="1220.5151">[Payment fails]</text><line style="stroke:#181818;stroke-width:2.0;" x1="483.5" x2="493.5" y1="1241.5703" y2="1251.5703"/><line style="stroke:#181818;stroke-width:2.0;" x1="483.5" x2="493.5" y1="1251.5703" y2="1241.5703"/><line style="stroke:#181818;stroke-width:1.0;" x1="488.5" x2="767.5" y1="1246.5703" y2="1246.5703"/><text fill="#000000" font-family="sans-serif" font-size="13" lengthAdjust="spacing" textLength="41" x="493.5" y="1241.5044">Revert</text><line style="stroke:#181818;stroke-width:2.0;" x1="163.5" x2="173.5" y1="1296.4023" y2="1306.4023"/><line style="stroke:#181818;stroke-width:2.0;" x1="163.5" x2="173.5" y1="1306.4023" y2="1296.4023"/><line style="stroke:#181818;stroke-width:1.0;" x1="168.5" x2="465.5" y1="1301.4023" y2="1301.4023"/><text fill="#000000" font-family="sans-serif" font-size="13" lengthAdjust="spacing" textLength="92" x="173.5" y="1296.3364">Payment error</text><path d="M481,1259.5703 L481,1329.5703 L662,1329.5703 L662,1269.5703 L652,1259.5703 L481,1259.5703 " fill="#FEFFDD" style="stroke:#181818;stroke-width:0.5;"/><path d="M652,1259.5703 L652,1269.5703 L662,1269.5703 L652,1259.5703 " fill="#FEFFDD" style="stroke:#181818;stroke-width:0.5;"/><text fill="#000000" font-family="sans-serif" font-size="13" lengthAdjust="spacing" textLength="60" x="487" y="1276.6372">Could be:</text><text fill="#000000" font-family="sans-serif" font-size="13" lengthAdjust="spacing" textLength="160" x="487" y="1291.77">&#8226; Invalid signature_EVVM</text><text fill="#000000" font-family="sans-serif" font-size="13" lengthAdjust="spacing" textLength="132" x="487" y="1306.9028">&#8226; Nonce_EVVM used</text><text fill="#000000" font-family="sans-serif" font-size="13" lengthAdjust="spacing" textLength="134" x="487" y="1322.0356">&#8226; Insufficient balance</text><line style="stroke:#000000;stroke-width:1.0;stroke-dasharray:2.0,2.0;" x1="80" x2="830" y1="1336.1016" y2="1336.1016"/><text fill="#000000" font-family="sans-serif" font-size="11" font-weight="bold" lengthAdjust="spacing" textLength="129" x="85" y="1346.312">[Payment succeeds]</text><polygon fill="#181818" points="487.5,1367.0391,477.5,1371.0391,487.5,1375.0391,483.5,1371.0391" style="stroke:#181818;stroke-width:1.0;"/><line style="stroke:#181818;stroke-width:1.0;stroke-dasharray:2.0,2.0;" x1="481.5" x2="772.5" y1="1371.0391" y2="1371.0391"/><text fill="#000000" font-family="sans-serif" font-size="13" lengthAdjust="spacing" textLength="53" x="493.5" y="1365.9731">Success</text><polygon fill="#181818" points="756.5,1396.1719,766.5,1400.1719,756.5,1404.1719,760.5,1400.1719" style="stroke:#181818;stroke-width:1.0;"/><line style="stroke:#181818;stroke-width:1.0;" x1="476.5" x2="762.5" y1="1400.1719" y2="1400.1719"/><text fill="#000000" font-family="sans-serif" font-size="13" lengthAdjust="spacing" textLength="151" x="483.5" y="1395.106">pointStaker(user, 0x01)</text><line style="stroke:#181818;stroke-width:1.0;" x1="476.5" x2="518.5" y1="1459.3047" y2="1459.3047"/><line style="stroke:#181818;stroke-width:1.0;" x1="518.5" x2="518.5" y1="1459.3047" y2="1472.3047"/><line style="stroke:#181818;stroke-width:1.0;" x1="477.5" x2="518.5" y1="1472.3047" y2="1472.3047"/><polygon fill="#181818" points="487.5,1468.3047,477.5,1472.3047,487.5,1476.3047,483.5,1472.3047" style="stroke:#181818;stroke-width:1.0;"/><text fill="#000000" font-family="sans-serif" font-size="13" lengthAdjust="spacing" textLength="124" x="483.5" y="1454.2388">Update userHistory</text><line style="stroke:#181818;stroke-width:1.0;" x1="476.5" x2="518.5" y1="1501.4375" y2="1501.4375"/><line style="stroke:#181818;stroke-width:1.0;" x1="518.5" x2="518.5" y1="1501.4375" y2="1514.4375"/><line style="stroke:#181818;stroke-width:1.0;" x1="477.5" x2="518.5" y1="1514.4375" y2="1514.4375"/><polygon fill="#181818" points="487.5,1510.4375,477.5,1514.4375,487.5,1518.4375,483.5,1514.4375" style="stroke:#181818;stroke-width:1.0;"/><text fill="#000000" font-family="sans-serif" font-size="13" lengthAdjust="spacing" textLength="219" x="483.5" y="1496.3716">markAsyncNonceAsUsed(user, nonce)</text><path d="M90,1529.4375 L154,1529.4375 L154,1536.5703 L144,1546.5703 L90,1546.5703 L90,1529.4375 " fill="#EEEEEE" style="stroke:#000000;stroke-width:1.5;"/><rect fill="none" height="221.7344" style="stroke:#000000;stroke-width:1.5;" width="730" x="90" y="1529.4375"/><text fill="#000000" font-family="sans-serif" font-size="13" font-weight="bold" lengthAdjust="spacing" textLength="19" x="105" y="1542.5044">alt</text><text fill="#000000" font-family="sans-serif" font-size="11" font-weight="bold" lengthAdjust="spacing" textLength="143" x="169" y="1541.6479">[msg.sender is staker]</text><line style="stroke:#181818;stroke-width:1.0;" x1="476.5" x2="518.5" y1="1567.7031" y2="1567.7031"/><line style="stroke:#181818;stroke-width:1.0;" x1="518.5" x2="518.5" y1="1567.7031" y2="1580.7031"/><line style="stroke:#181818;stroke-width:1.0;" x1="477.5" x2="518.5" y1="1580.7031" y2="1580.7031"/><polygon fill="#181818" points="487.5,1576.7031,477.5,1580.7031,487.5,1584.7031,483.5,1580.7031" style="stroke:#181818;stroke-width:1.0;"/><text fill="#000000" font-family="sans-serif" font-size="13" lengthAdjust="spacing" textLength="98" x="483.5" y="1562.6372">makeCaPay(&#183;&#183;&#183;)</text><polygon fill="#181818" points="756.5,1605.8359,766.5,1609.8359,756.5,1613.8359,760.5,1609.8359" style="stroke:#181818;stroke-width:1.0;"/><line style="stroke:#181818;stroke-width:1.0;" x1="476.5" x2="762.5" y1="1609.8359" y2="1609.8359"/><text fill="#000000" font-family="sans-serif" font-size="13" lengthAdjust="spacing" textLength="60" x="483.5" y="1604.77">caPay(&#183;&#183;&#183;)</text><path d="M100,1624.8359 L164,1624.8359 L164,1631.9688 L154,1641.9688 L100,1641.9688 L100,1624.8359 " fill="#EEEEEE" style="stroke:#000000;stroke-width:1.5;"/><rect fill="none" height="119.3359" style="stroke:#000000;stroke-width:1.5;" width="710" x="100" y="1624.8359"/><text fill="#000000" font-family="sans-serif" font-size="13" font-weight="bold" lengthAdjust="spacing" textLength="19" x="115" y="1637.9028">alt</text><text fill="#000000" font-family="sans-serif" font-size="11" font-weight="bold" lengthAdjust="spacing" textLength="90" x="179" y="1637.0464">[Reward fails]</text><line style="stroke:#181818;stroke-width:2.0;" x1="483.5" x2="493.5" y1="1658.1016" y2="1668.1016"/><line style="stroke:#181818;stroke-width:2.0;" x1="483.5" x2="493.5" y1="1668.1016" y2="1658.1016"/><line style="stroke:#181818;stroke-width:1.0;" x1="488.5" x2="767.5" y1="1663.1016" y2="1663.1016"/><text fill="#000000" font-family="sans-serif" font-size="13" lengthAdjust="spacing" textLength="31" x="493.5" y="1658.0356">Error</text><line style="stroke:#181818;stroke-width:2.0;" x1="163.5" x2="173.5" y1="1687.2344" y2="1697.2344"/><line style="stroke:#181818;stroke-width:2.0;" x1="163.5" x2="173.5" y1="1697.2344" y2="1687.2344"/><line style="stroke:#181818;stroke-width:1.0;" x1="168.5" x2="465.5" y1="1692.2344" y2="1692.2344"/><text fill="#000000" font-family="sans-serif" font-size="13" lengthAdjust="spacing" textLength="84" x="173.5" y="1687.1685">Reward failed</text><line style="stroke:#000000;stroke-width:1.0;stroke-dasharray:2.0,2.0;" x1="100" x2="810" y1="1701.2344" y2="1701.2344"/><text fill="#000000" font-family="sans-serif" font-size="11" font-weight="bold" lengthAdjust="spacing" textLength="97" x="105" y="1711.4448">[Rewards sent]</text><polygon fill="#181818" points="482.5,1732.1719,472.5,1736.1719,482.5,1740.1719,478.5,1736.1719" style="stroke:#181818;stroke-width:1.0;"/><line style="stroke:#181818;stroke-width:1.0;stroke-dasharray:2.0,2.0;" x1="476.5" x2="772.5" y1="1736.1719" y2="1736.1719"/><text fill="#000000" font-family="sans-serif" font-size="13" lengthAdjust="spacing" textLength="53" x="488.5" y="1731.106">Success</text><!--SRC=[jLTTRk9847xtAKh92sX2baHQHOg6I0oOnLAIGK1cD1f6gyPke8NTjjmD18rMshFi9VPzZx8dsUhsJsmmsB0pYfAOTjTNNtrTLLsy5tBhqWV3yUsLHxc4xmR01s8lVmlz5NSwlkk7i5amIOq_ZFU_nBiDoQHB8GYf82uTIR9aV5whG_m4FTVVJ7YjHvXB7HWGkO06c668M7t27HVtr0s3s18NBWOH2hm86bu04R321oCWeMGs2mXokeXnzLiH-xZizRftpMP-e_dfqvFUHTTh3owRJTEyRHg6GeJ6Gsfxlqjzma6xlG8cuhMM35Vq2hZFRNgbtWisvqIkGboi_VEt-gbFU5r5mTP4qZrYHhAGSxoc8PjjdwWGP4v724cTdXygdpH1HMLS2PUpNwTtqnkm-9gup7bpZmS4AM3ZLVD6u255Q0aRXcB7DgF4v2EFWzAst4Us8Pil99gDpCxBq1f_kGVJ6ZJkRcudFFK4taf8y8Yq5nCUoKCyJ0lPkec5qNW6TGM5IvqbaFe4JS78iyqgOI-elRHcElHd1OO9uDGYDngy7g6hFrb1z5vS2IbnjYfwHsyfLoNMGDkt8_ENh7LEb_Rps6eCpS5Z-ylzX9l4NaIam2OSVEvk9tnAjNT8XKZfPWM9wQwn5iZKfSO-sOAyxBY4UQAscumgg7hUrQuwnCNQ6wocBhDZs-kPI-RGQe72I6tAvHhaIgJBXABlv01oYWtwxP49vdFNxA9YILNRhgyqsYmed_10yqhz-W7b8WUOViWgc405M3g-0xhWwBuAkqgea38nqF2hMlbspKHRQQGKcH5qamCebqMrAKiy-pA7lGUIa-PptngRZzPeZC9ynDm14WIXlqPTulEEoalev5Bkzqdb5hBgA3xOjHAao3mq3jfMbIbMeQqB7XvQSBi7Kqsi7FWZyvWqNsrAdPrSAXIktnvsuT5wifHoJ-GLRbE7qbzYzc1EeTCaTdrp587kBMOLr9oKNw27Y1M2xfTThcBIkYlEiXzMXAKyYsg9yiD0vLIp7QjI_hnxTnhbWzxYfmz4q47estYDfhVcZt7GKRSIIEPHS7rxUJfgDYl62KoSNG4BZnnUUJQq7GUL5azuBNycJ8vzhNXxJXW_YdhmPJOrtiW6H8WIdjM2o0hh8TC1sPOUrodeUih3IxCYR3ggvQR3iubaJneZq-Fp3AzvSTHAowxyun6_gHETSgdXVdeaZgcQhaljSysruwzS1wOKM-k_V_wrFsZ-hgRfw9qUOlHdFV8a1c8rc-7ihVnFYKkoSz1PYkOwLHoOMDcgALSLDPTp8sKhoaqTcakD_nV4WHpr6PTHWundtEPhywPUYdHwplxiWDxaVGaSvK65qsS2lynjVv8ZaPdSe-lbgnx6lq4yrPRBg6erIYnFpAy5vKuqDedYyUsajjOXLHjRPHcAayW-sT5vwLEPOhO53kc6X4x53dYu4vgL6jcn-pAbKNA75NMTo1hJ0blFYK6SrNdEBTW2Ev7vYb_Ac9TBKxRdsFj3xuhMTzUodvDdzL_z_WS0]--></g></svg>