<?xml version="1.0" encoding="us-ascii" standalone="no"?><svg xmlns="http://www.w3.org/2000/svg" xmlns:xlink="http://www.w3.org/1999/xlink" contentStyleType="text/css" height="1279px" preserveAspectRatio="none" style="width:964px;height:1279px;background:#FFFFFF;" version="1.1" viewBox="0 0 964 1279" width="964px" zoomAndPan="magnify"><defs/><g><text fill="#000000" font-family="sans-serif" font-size="14" font-weight="bold" lengthAdjust="spacing" textLength="222" x="372.75" y="27.9951">publicStaking() Staking Flow</text><text fill="#000000" font-family="sans-serif" font-size="14" font-weight="bold" lengthAdjust="spacing" textLength="285" x="341.25" y="44.292">(Happy Path - Successful Execution)</text><rect fill="#FFFFFF" height="66.5313" style="stroke:#181818;stroke-width:1.0;" width="10" x="41.5" y="144.8906"/><rect fill="#FFD700" height="951.3477" style="stroke:#181818;stroke-width:1.0;" width="10" x="334.5" y="211.4219"/><rect fill="#00EE20" height="86.3984" style="stroke:#181818;stroke-width:1.0;" width="10" x="752.5" y="743.6094"/><rect fill="#00EE20" height="35.1328" style="stroke:#181818;stroke-width:1.0;" width="10" x="752.5" y="859.1406"/><rect fill="#00EE20" height="81.832" style="stroke:#181818;stroke-width:1.0;" width="10" x="752.5" y="1080.9375"/><rect fill="#FFFFFF" height="180.7969" style="stroke:#000000;stroke-width:1.5;" width="661.5" x="297" y="1000.5391"/><line style="stroke:#181818;stroke-width:0.5;stroke-dasharray:5.0,5.0;" x1="46" x2="46" y1="134.8906" y2="1198.3359"/><line style="stroke:#181818;stroke-width:0.5;stroke-dasharray:5.0,5.0;" x1="339" x2="339" y1="134.8906" y2="1198.3359"/><line style="stroke:#181818;stroke-width:0.5;stroke-dasharray:5.0,5.0;" x1="757" x2="757" y1="134.8906" y2="1198.3359"/><text fill="#000000" font-family="sans-serif" font-size="14" lengthAdjust="spacing" textLength="77" x="5" y="131.5889">Public User</text><ellipse cx="46.5" cy="67.0938" fill="#E2E2F0" rx="8" ry="8" style="stroke:#181818;stroke-width:0.5;"/><path d="M46.5,75.0938 L46.5,102.0938 M33.5,83.0938 L59.5,83.0938 M46.5,102.0938 L33.5,117.0938 M46.5,102.0938 L59.5,117.0938 " fill="none" style="stroke:#181818;stroke-width:0.5;"/><text fill="#000000" font-family="sans-serif" font-size="14" lengthAdjust="spacing" textLength="77" x="5" y="1210.3311">Public User</text><ellipse cx="46.5" cy="1222.1328" fill="#E2E2F0" rx="8" ry="8" style="stroke:#181818;stroke-width:0.5;"/><path d="M46.5,1230.1328 L46.5,1257.1328 M33.5,1238.1328 L59.5,1238.1328 M46.5,1257.1328 L33.5,1272.1328 M46.5,1257.1328 L59.5,1272.1328 " fill="none" style="stroke:#181818;stroke-width:0.5;"/><rect fill="#FFD700" height="30.2969" rx="2.5" ry="2.5" style="stroke:#181818;stroke-width:0.5;" width="65" x="307" y="103.5938"/><text fill="#000000" font-family="sans-serif" font-size="14" lengthAdjust="spacing" textLength="51" x="314" y="123.5889">Staking</text><rect fill="#FFD700" height="30.2969" rx="2.5" ry="2.5" style="stroke:#181818;stroke-width:0.5;" width="65" x="307" y="1197.3359"/><text fill="#000000" font-family="sans-serif" font-size="14" lengthAdjust="spacing" textLength="51" x="314" y="1217.3311">Staking</text><rect fill="#00EE20" height="30.2969" rx="2.5" ry="2.5" style="stroke:#181818;stroke-width:0.5;" width="53" x="731" y="103.5938"/><text fill="#000000" font-family="sans-serif" font-size="14" lengthAdjust="spacing" textLength="39" x="738" y="123.5889">EVVM</text><rect fill="#00EE20" height="30.2969" rx="2.5" ry="2.5" style="stroke:#181818;stroke-width:0.5;" width="53" x="731" y="1197.3359"/><text fill="#000000" font-family="sans-serif" font-size="14" lengthAdjust="spacing" textLength="39" x="738" y="1217.3311">EVVM</text><rect fill="#FFFFFF" height="66.5313" style="stroke:#181818;stroke-width:1.0;" width="10" x="41.5" y="144.8906"/><rect fill="#FFD700" height="951.3477" style="stroke:#181818;stroke-width:1.0;" width="10" x="334.5" y="211.4219"/><rect fill="#00EE20" height="86.3984" style="stroke:#181818;stroke-width:1.0;" width="10" x="752.5" y="743.6094"/><rect fill="#00EE20" height="35.1328" style="stroke:#181818;stroke-width:1.0;" width="10" x="752.5" y="859.1406"/><rect fill="#00EE20" height="81.832" style="stroke:#181818;stroke-width:1.0;" width="10" x="752.5" y="1080.9375"/><polygon fill="#181818" points="322.5,207.4219,332.5,211.4219,322.5,215.4219,326.5,211.4219" style="stroke:#181818;stroke-width:1.0;"/><line style="stroke:#181818;stroke-width:1.0;" x1="46.5" x2="328.5" y1="211.4219" y2="211.4219"/><text fill="#000000" font-family="sans-serif" font-size="13" lengthAdjust="spacing" textLength="90" x="53.5" y="160.9575">publicStaking(</text><text fill="#000000" font-family="sans-serif" font-size="13" lengthAdjust="spacing" textLength="255" x="61.5" y="176.0903">user, isStaking=true, amountOfStaking,</text><text fill="#000000" font-family="sans-serif" font-size="13" lengthAdjust="spacing" textLength="256" x="61.5" y="191.2231">nonce, signature, priorityFee_EVVM, (&#183;&#183;&#183;)</text><text fill="#000000" font-family="sans-serif" font-size="13" lengthAdjust="spacing" textLength="5" x="53.5" y="206.356">)</text><line style="stroke:#181818;stroke-width:1.0;" x1="344.5" x2="386.5" y1="252.1875" y2="252.1875"/><line style="stroke:#181818;stroke-width:1.0;" x1="386.5" x2="386.5" y1="252.1875" y2="265.1875"/><line style="stroke:#181818;stroke-width:1.0;" x1="345.5" x2="386.5" y1="265.1875" y2="265.1875"/><polygon fill="#181818" points="355.5,261.1875,345.5,265.1875,355.5,269.1875,351.5,265.1875" style="stroke:#181818;stroke-width:1.0;"/><text fill="#000000" font-family="sans-serif" font-size="13" lengthAdjust="spacing" textLength="239" x="351.5" y="247.1216">Verify allowPublicStaking.flag == true</text><path d="M602,224.4219 L602,279.4219 L772,279.4219 L772,234.4219 L762,224.4219 L602,224.4219 " fill="#FEFFDD" style="stroke:#181818;stroke-width:0.5;"/><path d="M762,224.4219 L762,234.4219 L772,234.4219 L762,224.4219 " fill="#FEFFDD" style="stroke:#181818;stroke-width:0.5;"/><text fill="#000000" font-family="sans-serif" font-size="13" lengthAdjust="spacing" textLength="98" x="608" y="241.4888">PUBLIC PHASE:</text><text fill="#000000" font-family="sans-serif" font-size="13" lengthAdjust="spacing" textLength="144" x="608" y="256.6216">Public staking must be</text><text fill="#000000" font-family="sans-serif" font-size="13" lengthAdjust="spacing" textLength="149" x="608" y="271.7544">enabled by governance</text><line style="stroke:#181818;stroke-width:1.0;" x1="344.5" x2="386.5" y1="366.4844" y2="366.4844"/><line style="stroke:#181818;stroke-width:1.0;" x1="386.5" x2="386.5" y1="366.4844" y2="379.4844"/><line style="stroke:#181818;stroke-width:1.0;" x1="345.5" x2="386.5" y1="379.4844" y2="379.4844"/><polygon fill="#181818" points="355.5,375.4844,345.5,379.4844,355.5,383.4844,351.5,379.4844" style="stroke:#181818;stroke-width:1.0;"/><text fill="#000000" font-family="sans-serif" font-size="13" lengthAdjust="spacing" textLength="197" x="351.5" y="300.8872">verifyMessageSignedForStake(</text><text fill="#000000" font-family="sans-serif" font-size="13" lengthAdjust="spacing" textLength="180" x="359.5" y="316.02">evvmID, user, isPublic=true,</text><text fill="#000000" font-family="sans-serif" font-size="13" lengthAdjust="spacing" textLength="219" x="359.5" y="331.1528">isStaking=true, amountOfStaking,</text><text fill="#000000" font-family="sans-serif" font-size="13" lengthAdjust="spacing" textLength="107" x="359.5" y="346.2856">nonce, signature</text><text fill="#000000" font-family="sans-serif" font-size="13" lengthAdjust="spacing" textLength="5" x="351.5" y="361.4185">)</text><path d="M590,300.8867 L590,370.8867 L795,370.8867 L795,310.8867 L785,300.8867 L590,300.8867 " fill="#FEFFDD" style="stroke:#181818;stroke-width:0.5;"/><path d="M785,300.8867 L785,310.8867 L795,310.8867 L785,300.8867 " fill="#FEFFDD" style="stroke:#181818;stroke-width:0.5;"/><text fill="#000000" font-family="sans-serif" font-size="13" lengthAdjust="spacing" textLength="122" x="596" y="317.9536">FLEXIBLE AMOUNT:</text><text fill="#000000" font-family="sans-serif" font-size="13" lengthAdjust="spacing" textLength="157" x="596" y="333.0864">Unlike presale (fixed=1),</text><text fill="#000000" font-family="sans-serif" font-size="13" lengthAdjust="spacing" textLength="184" x="596" y="348.2192">public can stake any amount</text><text fill="#000000" font-family="sans-serif" font-size="13" lengthAdjust="spacing" textLength="141" x="596" y="363.3521">with EIP-191 (Ethereum Signed Message) signature</text><line style="stroke:#181818;stroke-width:1.0;" x1="344.5" x2="386.5" y1="408.6172" y2="408.6172"/><line style="stroke:#181818;stroke-width:1.0;" x1="386.5" x2="386.5" y1="408.6172" y2="421.6172"/><line style="stroke:#181818;stroke-width:1.0;" x1="345.5" x2="386.5" y1="421.6172" y2="421.6172"/><polygon fill="#181818" points="355.5,417.6172,345.5,421.6172,355.5,425.6172,351.5,421.6172" style="stroke:#181818;stroke-width:1.0;"/><text fill="#000000" font-family="sans-serif" font-size="13" lengthAdjust="spacing" textLength="240" x="351.5" y="403.5513">verifyAsyncNonce(user, nonce)</text><line style="stroke:#181818;stroke-width:1.0;" x1="344.5" x2="386.5" y1="541.5469" y2="541.5469"/><line style="stroke:#181818;stroke-width:1.0;" x1="386.5" x2="386.5" y1="541.5469" y2="554.5469"/><line style="stroke:#181818;stroke-width:1.0;" x1="345.5" x2="386.5" y1="554.5469" y2="554.5469"/><polygon fill="#181818" points="355.5,550.5469,345.5,554.5469,355.5,558.5469,351.5,554.5469" style="stroke:#181818;stroke-width:1.0;"/><text fill="#000000" font-family="sans-serif" font-size="13" lengthAdjust="spacing" textLength="133" x="351.5" y="445.6841">stakingBaseProcess(</text><text fill="#000000" font-family="sans-serif" font-size="13" lengthAdjust="spacing" textLength="199" x="359.5" y="460.8169">AccountMetadata{user, false},</text><text fill="#000000" font-family="sans-serif" font-size="13" lengthAdjust="spacing" textLength="99" x="359.5" y="475.9497">isStaking=true,</text><text fill="#000000" font-family="sans-serif" font-size="13" lengthAdjust="spacing" textLength="116" x="359.5" y="491.0825">amountOfStaking,</text><text fill="#000000" font-family="sans-serif" font-size="13" lengthAdjust="spacing" textLength="206" x="359.5" y="506.2153">priorityFee_EVVM, nonce_EVVM,</text><text fill="#000000" font-family="sans-serif" font-size="13" lengthAdjust="spacing" textLength="226" x="359.5" y="521.3481">priorityFlag_EVVM, signature_EVVM</text><text fill="#000000" font-family="sans-serif" font-size="13" lengthAdjust="spacing" textLength="5" x="351.5" y="536.481">)</text><line style="stroke:#181818;stroke-width:1.0;" x1="344.5" x2="386.5" y1="598.8125" y2="598.8125"/><line style="stroke:#181818;stroke-width:1.0;" x1="386.5" x2="386.5" y1="598.8125" y2="611.8125"/><line style="stroke:#181818;stroke-width:1.0;" x1="345.5" x2="386.5" y1="611.8125" y2="611.8125"/><polygon fill="#181818" points="355.5,607.8125,345.5,611.8125,355.5,615.8125,351.5,611.8125" style="stroke:#181818;stroke-width:1.0;"/><text fill="#000000" font-family="sans-serif" font-size="13" lengthAdjust="spacing" textLength="105" x="351.5" y="578.6138">Check time lock:</text><text fill="#000000" font-family="sans-serif" font-size="13" lengthAdjust="spacing" textLength="394" x="351.5" y="593.7466">getTimeToUserUnlockStakingTime(user) &lt;= block.timestamp</text><line style="stroke:#181818;stroke-width:1.0;" x1="344.5" x2="386.5" y1="701.4766" y2="701.4766"/><line style="stroke:#181818;stroke-width:1.0;" x1="386.5" x2="386.5" y1="701.4766" y2="714.4766"/><line style="stroke:#181818;stroke-width:1.0;" x1="345.5" x2="386.5" y1="714.4766" y2="714.4766"/><polygon fill="#181818" points="355.5,710.4766,345.5,714.4766,355.5,718.4766,351.5,714.4766" style="stroke:#181818;stroke-width:1.0;"/><text fill="#000000" font-family="sans-serif" font-size="13" lengthAdjust="spacing" textLength="64" x="351.5" y="635.8794">makePay(</text><text fill="#000000" font-family="sans-serif" font-size="13" lengthAdjust="spacing" textLength="32" x="359.5" y="651.0122">user,</text><text fill="#000000" font-family="sans-serif" font-size="13" lengthAdjust="spacing" textLength="254" x="359.5" y="666.145">PRICE_OF_STAKING * amountOfStaking,</text><text fill="#000000" font-family="sans-serif" font-size="13" lengthAdjust="spacing" textLength="22" x="359.5" y="681.2778">(&#183;&#183;&#183;)</text><text fill="#000000" font-family="sans-serif" font-size="13" lengthAdjust="spacing" textLength="5" x="351.5" y="696.4106">)</text><polygon fill="#181818" points="740.5,739.6094,750.5,743.6094,740.5,747.6094,744.5,743.6094" style="stroke:#181818;stroke-width:1.0;"/><line style="stroke:#181818;stroke-width:1.0;" x1="344.5" x2="746.5" y1="743.6094" y2="743.6094"/><text fill="#000000" font-family="sans-serif" font-size="13" lengthAdjust="spacing" textLength="45" x="351.5" y="738.5435">pay(&#183;&#183;&#183;)</text><line style="stroke:#181818;stroke-width:1.0;" x1="762.5" x2="804.5" y1="787.875" y2="787.875"/><line style="stroke:#181818;stroke-width:1.0;" x1="804.5" x2="804.5" y1="787.875" y2="800.875"/><line style="stroke:#181818;stroke-width:1.0;" x1="763.5" x2="804.5" y1="800.875" y2="800.875"/><polygon fill="#181818" points="773.5,796.875,763.5,800.875,773.5,804.875,769.5,800.875" style="stroke:#181818;stroke-width:1.0;"/><text fill="#000000" font-family="sans-serif" font-size="13" lengthAdjust="spacing" textLength="171" x="769.5" y="767.6763">Verify signature and nonce</text><text fill="#000000" font-family="sans-serif" font-size="13" lengthAdjust="spacing" textLength="168" x="769.5" y="782.8091">Transfer tokens to Staking</text><polygon fill="#181818" points="355.5,826.0078,345.5,830.0078,355.5,834.0078,351.5,830.0078" style="stroke:#181818;stroke-width:1.0;"/><line style="stroke:#181818;stroke-width:1.0;stroke-dasharray:2.0,2.0;" x1="349.5" x2="756.5" y1="830.0078" y2="830.0078"/><text fill="#000000" font-family="sans-serif" font-size="13" lengthAdjust="spacing" textLength="127" x="361.5" y="824.9419">Payment successful</text><polygon fill="#181818" points="740.5,855.1406,750.5,859.1406,740.5,863.1406,744.5,859.1406" style="stroke:#181818;stroke-width:1.0;"/><line style="stroke:#181818;stroke-width:1.0;" x1="344.5" x2="746.5" y1="859.1406" y2="859.1406"/><text fill="#000000" font-family="sans-serif" font-size="13" lengthAdjust="spacing" textLength="151" x="351.5" y="854.0747">pointStaker(user, 0x01)</text><line style="stroke:#181818;stroke-width:1.0;" x1="762.5" x2="804.5" y1="893.2734" y2="893.2734"/><line style="stroke:#181818;stroke-width:1.0;" x1="804.5" x2="804.5" y1="893.2734" y2="906.2734"/><line style="stroke:#181818;stroke-width:1.0;" x1="757.5" x2="804.5" y1="906.2734" y2="906.2734"/><polygon fill="#181818" points="767.5,902.2734,757.5,906.2734,767.5,910.2734,763.5,906.2734" style="stroke:#181818;stroke-width:1.0;"/><text fill="#000000" font-family="sans-serif" font-size="13" lengthAdjust="spacing" textLength="124" x="769.5" y="888.2075">Grant staker status</text><line style="stroke:#181818;stroke-width:1.0;" x1="344.5" x2="386.5" y1="930.4063" y2="930.4063"/><line style="stroke:#181818;stroke-width:1.0;" x1="386.5" x2="386.5" y1="930.4063" y2="943.4063"/><line style="stroke:#181818;stroke-width:1.0;" x1="345.5" x2="386.5" y1="943.4063" y2="943.4063"/><polygon fill="#181818" points="355.5,939.4063,345.5,943.4063,355.5,947.4063,351.5,943.4063" style="stroke:#181818;stroke-width:1.0;"/><text fill="#000000" font-family="sans-serif" font-size="13" lengthAdjust="spacing" textLength="124" x="351.5" y="925.3403">Update userHistory</text><line style="stroke:#181818;stroke-width:1.0;" x1="344.5" x2="386.5" y1="972.5391" y2="972.5391"/><line style="stroke:#181818;stroke-width:1.0;" x1="386.5" x2="386.5" y1="972.5391" y2="985.5391"/><line style="stroke:#181818;stroke-width:1.0;" x1="345.5" x2="386.5" y1="985.5391" y2="985.5391"/><polygon fill="#181818" points="355.5,981.5391,345.5,985.5391,355.5,989.5391,351.5,985.5391" style="stroke:#181818;stroke-width:1.0;"/><text fill="#000000" font-family="sans-serif" font-size="13" lengthAdjust="spacing" textLength="219" x="351.5" y="967.4731">markAsyncNonceAsUsed(user, nonce)</text><path d="M297,1000.5391 L361,1000.5391 L361,1007.6719 L351,1017.6719 L297,1017.6719 L297,1000.5391 " fill="#EEEEEE" style="stroke:#000000;stroke-width:1.5;"/><rect fill="none" height="180.7969" style="stroke:#000000;stroke-width:1.5;" width="661.5" x="297" y="1000.5391"/><text fill="#000000" font-family="sans-serif" font-size="13" font-weight="bold" lengthAdjust="spacing" textLength="19" x="312" y="1013.606">alt</text><text fill="#000000" font-family="sans-serif" font-size="11" font-weight="bold" lengthAdjust="spacing" textLength="143" x="376" y="1012.7495">[msg.sender is staker]</text><line style="stroke:#181818;stroke-width:1.0;" x1="344.5" x2="386.5" y1="1038.8047" y2="1038.8047"/><line style="stroke:#181818;stroke-width:1.0;" x1="386.5" x2="386.5" y1="1038.8047" y2="1051.8047"/><line style="stroke:#181818;stroke-width:1.0;" x1="345.5" x2="386.5" y1="1051.8047" y2="1051.8047"/><polygon fill="#181818" points="355.5,1047.8047,345.5,1051.8047,355.5,1055.8047,351.5,1051.8047" style="stroke:#181818;stroke-width:1.0;"/><text fill="#000000" font-family="sans-serif" font-size="13" lengthAdjust="spacing" textLength="98" x="351.5" y="1033.7388">makeCaPay(&#183;&#183;&#183;)</text><polygon fill="#181818" points="740.5,1076.9375,750.5,1080.9375,740.5,1084.9375,744.5,1080.9375" style="stroke:#181818;stroke-width:1.0;"/><line style="stroke:#181818;stroke-width:1.0;" x1="344.5" x2="746.5" y1="1080.9375" y2="1080.9375"/><text fill="#000000" font-family="sans-serif" font-size="13" lengthAdjust="spacing" textLength="60" x="351.5" y="1075.8716">caPay(&#183;&#183;&#183;)</text><line style="stroke:#181818;stroke-width:1.0;" x1="762.5" x2="804.5" y1="1110.0703" y2="1110.0703"/><line style="stroke:#181818;stroke-width:1.0;" x1="804.5" x2="804.5" y1="1110.0703" y2="1123.0703"/><line style="stroke:#181818;stroke-width:1.0;" x1="763.5" x2="804.5" y1="1123.0703" y2="1123.0703"/><polygon fill="#181818" points="773.5,1119.0703,763.5,1123.0703,773.5,1127.0703,769.5,1123.0703" style="stroke:#181818;stroke-width:1.0;"/><text fill="#000000" font-family="sans-serif" font-size="13" lengthAdjust="spacing" textLength="106" x="769.5" y="1105.0044">Transfer rewards</text><polygon fill="#181818" points="350.5,1158.7695,340.5,1162.7695,350.5,1166.7695,346.5,1162.7695" style="stroke:#181818;stroke-width:1.0;"/><line style="stroke:#181818;stroke-width:1.0;stroke-dasharray:2.0,2.0;" x1="344.5" x2="756.5" y1="1162.7695" y2="1162.7695"/><text fill="#000000" font-family="sans-serif" font-size="13" lengthAdjust="spacing" textLength="53" x="356.5" y="1157.7036">Success</text><path d="M767,1136.0703 L767,1176.0703 L943,1176.0703 L943,1146.0703 L933,1136.0703 L767,1136.0703 " fill="#FEFFDD" style="stroke:#181818;stroke-width:0.5;"/><path d="M933,1136.0703 L933,1146.0703 L943,1146.0703 L933,1136.0703 " fill="#FEFFDD" style="stroke:#181818;stroke-width:0.5;"/><text fill="#000000" font-family="sans-serif" font-size="13" lengthAdjust="spacing" textLength="116" x="773" y="1153.1372">DOUBLE REWARD:</text><text fill="#000000" font-family="sans-serif" font-size="13" lengthAdjust="spacing" textLength="155" x="773" y="1168.27">Stakers earn 2x rewards</text><!--SRC=[dLLjJo8n4Fw-lsAYN-227lh5n8W9ugBaL3O2tYLYJDaTi67fahOBR8o_wxxVBxjfjxmiWhbSIDY-J6UUv-dCz4BfBCPBBqh2T892mxi7SCN2yOrCKX4raZYHC7_Z6hqFx-Axi_Oqrp72D1t4FEneDkPYL2g36q4pJkPzKRfbqsa60TDlS0ITD0nHgM4QWx_0CDKy4MNFOw6c00U1zGGzXV80c8AK1jwKISr3FcK4wy3vjhlAnJbiDg_FgjMYeV_qT6-jS3QRm66rwlkdLHk8pvZ6tBLd_k7eSkNgV8jCNu2rh01NRgscPOeLO1CIHhU7RhLYB4KYGjfIV2IOJYKDfv8dakkiYVXg45MWzEUt-PNxXdQ4MtXMqsrktdAX0FO99Hzcm69IEjW4VZoCsGXgDJ1WFP6GHyb7RvhE1BshkrO3Wjjwnp_l2oVvqkSaLHe6s1Ses23620OPZ98PIi68snuOCmlZdkwLZR13x35g9j90GQkWkOBMTMMbP1up5zBi_u-sHhy2h-QT_wjrTUT3_RxTU-WIjPw8-PZIKw9YbAQb8LzWL3ifax_ybY5amj90O29pOVjYpYbL_LPmT7PokWwuXtluXk6uPQ7YWy58oHkLSgOMStdFGJUwOWe3cPYYi5hLmz2Wk4VD8gRPU-vfo6A57xl4CakxzFgSUHPDFYuOKAOuYnLNExSPkXDwmt06pIS8SHAEIUeHwYvDkuafNTATLXqOispbACD53GPcvzYS96-JwHx_4z8oODcw-imWU6mr_DTsyxNJhVzeFTp0jvsy2_MruTss0IflSkiiriLMQ15siZxWIcmb3MLAb4lP5rt9X1fI1z7968MYpxBtEIy5LiJ8jbQrQe6RzMyEx0ISSA5jTacNLTL5zUGVmTz8qmjjXalpqQdwCkOQR6yQBRlIBLVKdBElqzYc_hCnVtcswho0QpuUYpKSshS39cfqh514X8OhXuiU6e2zQT1WmSQD6TDjUqSr_6IuMo6piwNIwXebpfcCr8PD0Ozxk-psjeehP8MUTDtkcOxqwF-iFrvJcUJtI6yIam9E5uM06nxLCeb4vFq5]--></g></svg>