<?xml version="1.0" encoding="us-ascii" standalone="no"?><svg xmlns="http://www.w3.org/2000/svg" xmlns:xlink="http://www.w3.org/1999/xlink" contentStyleType="text/css" height="1271px" preserveAspectRatio="none" style="width:1014px;height:1271px;background:#FFFFFF;" version="1.1" viewBox="0 0 1014 1271" width="1014px" zoomAndPan="magnify"><defs/><g><text fill="#000000" font-family="sans-serif" font-size="14" font-weight="bold" lengthAdjust="spacing" textLength="242" x="387.25" y="27.9951">publicStaking() Unstaking Flow</text><text fill="#000000" font-family="sans-serif" font-size="14" font-weight="bold" lengthAdjust="spacing" textLength="285" x="365.75" y="44.292">(Happy Path - Successful Execution)</text><rect fill="#FFFFFF" height="66.5313" style="stroke:#181818;stroke-width:1.0;" width="10" x="41.5" y="144.8906"/><rect fill="#FFD700" height="951.3203" style="stroke:#181818;stroke-width:1.0;" width="10" x="337.5" y="211.4219"/><rect fill="#00EE20" height="35.1328" style="stroke:#181818;stroke-width:1.0;" width="10" x="792.5" y="641.8125"/><rect fill="#00EE20" height="71.2656" style="stroke:#181818;stroke-width:1.0;" width="10" x="792.5" y="879.6797"/><rect fill="#00EE20" height="74.2656" style="stroke:#181818;stroke-width:1.0;" width="10" x="792.5" y="1088.4766"/><rect fill="#FFFFFF" height="160.4688" style="stroke:#000000;stroke-width:1.5;" width="707.5" x="300" y="546.2813"/><rect fill="#FFFFFF" height="14.8047" style="stroke:none;stroke-width:1.0;" width="707.5" x="300" y="691.9453"/><rect fill="#FFFFFF" height="165.6641" style="stroke:#000000;stroke-width:1.5;" width="655.5" x="300" y="1008.0781"/><line style="stroke:#181818;stroke-width:0.5;stroke-dasharray:5.0,5.0;" x1="46" x2="46" y1="134.8906" y2="1190.7422"/><line style="stroke:#181818;stroke-width:0.5;stroke-dasharray:5.0,5.0;" x1="342" x2="342" y1="134.8906" y2="1190.7422"/><line style="stroke:#181818;stroke-width:0.5;stroke-dasharray:5.0,5.0;" x1="797" x2="797" y1="134.8906" y2="1190.7422"/><text fill="#000000" font-family="sans-serif" font-size="14" lengthAdjust="spacing" textLength="77" x="5" y="131.5889">Public User</text><ellipse cx="46.5" cy="67.0938" fill="#E2E2F0" rx="8" ry="8" style="stroke:#181818;stroke-width:0.5;"/><path d="M46.5,75.0938 L46.5,102.0938 M33.5,83.0938 L59.5,83.0938 M46.5,102.0938 L33.5,117.0938 M46.5,102.0938 L59.5,117.0938 " fill="none" style="stroke:#181818;stroke-width:0.5;"/><text fill="#000000" font-family="sans-serif" font-size="14" lengthAdjust="spacing" textLength="77" x="5" y="1202.7373">Public User</text><ellipse cx="46.5" cy="1214.5391" fill="#E2E2F0" rx="8" ry="8" style="stroke:#181818;stroke-width:0.5;"/><path d="M46.5,1222.5391 L46.5,1249.5391 M33.5,1230.5391 L59.5,1230.5391 M46.5,1249.5391 L33.5,1264.5391 M46.5,1249.5391 L59.5,1264.5391 " fill="none" style="stroke:#181818;stroke-width:0.5;"/><rect fill="#FFD700" height="30.2969" rx="2.5" ry="2.5" style="stroke:#181818;stroke-width:0.5;" width="65" x="310" y="103.5938"/><text fill="#000000" font-family="sans-serif" font-size="14" lengthAdjust="spacing" textLength="51" x="317" y="123.5889">Staking</text><rect fill="#FFD700" height="30.2969" rx="2.5" ry="2.5" style="stroke:#181818;stroke-width:0.5;" width="65" x="310" y="1189.7422"/><text fill="#000000" font-family="sans-serif" font-size="14" lengthAdjust="spacing" textLength="51" x="317" y="1209.7373">Staking</text><rect fill="#00EE20" height="30.2969" rx="2.5" ry="2.5" style="stroke:#181818;stroke-width:0.5;" width="53" x="771" y="103.5938"/><text fill="#000000" font-family="sans-serif" font-size="14" lengthAdjust="spacing" textLength="39" x="778" y="123.5889">EVVM</text><rect fill="#00EE20" height="30.2969" rx="2.5" ry="2.5" style="stroke:#181818;stroke-width:0.5;" width="53" x="771" y="1189.7422"/><text fill="#000000" font-family="sans-serif" font-size="14" lengthAdjust="spacing" textLength="39" x="778" y="1209.7373">EVVM</text><rect fill="#FFFFFF" height="66.5313" style="stroke:#181818;stroke-width:1.0;" width="10" x="41.5" y="144.8906"/><rect fill="#FFD700" height="951.3203" style="stroke:#181818;stroke-width:1.0;" width="10" x="337.5" y="211.4219"/><rect fill="#00EE20" height="35.1328" style="stroke:#181818;stroke-width:1.0;" width="10" x="792.5" y="641.8125"/><rect fill="#00EE20" height="71.2656" style="stroke:#181818;stroke-width:1.0;" width="10" x="792.5" y="879.6797"/><rect fill="#00EE20" height="74.2656" style="stroke:#181818;stroke-width:1.0;" width="10" x="792.5" y="1088.4766"/><polygon fill="#181818" points="325.5,207.4219,335.5,211.4219,325.5,215.4219,329.5,211.4219" style="stroke:#181818;stroke-width:1.0;"/><line style="stroke:#181818;stroke-width:1.0;" x1="46.5" x2="331.5" y1="211.4219" y2="211.4219"/><text fill="#000000" font-family="sans-serif" font-size="13" lengthAdjust="spacing" textLength="90" x="53.5" y="160.9575">publicStaking(</text><text fill="#000000" font-family="sans-serif" font-size="13" lengthAdjust="spacing" textLength="259" x="61.5" y="176.0903">user, isStaking=false, amountOfStaking,</text><text fill="#000000" font-family="sans-serif" font-size="13" lengthAdjust="spacing" textLength="256" x="61.5" y="191.2231">nonce, signature, priorityFee_EVVM, (&#183;&#183;&#183;)</text><text fill="#000000" font-family="sans-serif" font-size="13" lengthAdjust="spacing" textLength="5" x="53.5" y="206.356">)</text><line style="stroke:#181818;stroke-width:1.0;" x1="347.5" x2="389.5" y1="240.5547" y2="240.5547"/><line style="stroke:#181818;stroke-width:1.0;" x1="389.5" x2="389.5" y1="240.5547" y2="253.5547"/><line style="stroke:#181818;stroke-width:1.0;" x1="348.5" x2="389.5" y1="253.5547" y2="253.5547"/><polygon fill="#181818" points="358.5,249.5547,348.5,253.5547,358.5,257.5547,354.5,253.5547" style="stroke:#181818;stroke-width:1.0;"/><text fill="#000000" font-family="sans-serif" font-size="13" lengthAdjust="spacing" textLength="239" x="354.5" y="235.4888">Verify allowPublicStaking.flag == true</text><line style="stroke:#181818;stroke-width:1.0;" x1="347.5" x2="389.5" y1="343.2188" y2="343.2188"/><line style="stroke:#181818;stroke-width:1.0;" x1="389.5" x2="389.5" y1="343.2188" y2="356.2188"/><line style="stroke:#181818;stroke-width:1.0;" x1="348.5" x2="389.5" y1="356.2188" y2="356.2188"/><polygon fill="#181818" points="358.5,352.2188,348.5,356.2188,358.5,360.2188,354.5,356.2188" style="stroke:#181818;stroke-width:1.0;"/><text fill="#000000" font-family="sans-serif" font-size="13" lengthAdjust="spacing" textLength="197" x="354.5" y="277.6216">verifyMessageSignedForStake(</text><text fill="#000000" font-family="sans-serif" font-size="13" lengthAdjust="spacing" textLength="180" x="362.5" y="292.7544">evvmID, user, isPublic=true,</text><text fill="#000000" font-family="sans-serif" font-size="13" lengthAdjust="spacing" textLength="223" x="362.5" y="307.8872">isStaking=false, amountOfStaking,</text><text fill="#000000" font-family="sans-serif" font-size="13" lengthAdjust="spacing" textLength="107" x="362.5" y="323.02">nonce, signature</text><text fill="#000000" font-family="sans-serif" font-size="13" lengthAdjust="spacing" textLength="5" x="354.5" y="338.1528">)</text><line style="stroke:#181818;stroke-width:1.0;" x1="347.5" x2="389.5" y1="385.3516" y2="385.3516"/><line style="stroke:#181818;stroke-width:1.0;" x1="389.5" x2="389.5" y1="385.3516" y2="398.3516"/><line style="stroke:#181818;stroke-width:1.0;" x1="348.5" x2="389.5" y1="398.3516" y2="398.3516"/><polygon fill="#181818" points="358.5,394.3516,348.5,398.3516,358.5,402.3516,354.5,398.3516" style="stroke:#181818;stroke-width:1.0;"/><text fill="#000000" font-family="sans-serif" font-size="13" lengthAdjust="spacing" textLength="240" x="354.5" y="380.2856">verifyAsyncNonce(user, nonce)</text><line style="stroke:#181818;stroke-width:1.0;" x1="347.5" x2="389.5" y1="518.2813" y2="518.2813"/><line style="stroke:#181818;stroke-width:1.0;" x1="389.5" x2="389.5" y1="518.2813" y2="531.2813"/><line style="stroke:#181818;stroke-width:1.0;" x1="348.5" x2="389.5" y1="531.2813" y2="531.2813"/><polygon fill="#181818" points="358.5,527.2813,348.5,531.2813,358.5,535.2813,354.5,531.2813" style="stroke:#181818;stroke-width:1.0;"/><text fill="#000000" font-family="sans-serif" font-size="13" lengthAdjust="spacing" textLength="133" x="354.5" y="422.4185">stakingBaseProcess(</text><text fill="#000000" font-family="sans-serif" font-size="13" lengthAdjust="spacing" textLength="199" x="362.5" y="437.5513">AccountMetadata{user, false},</text><text fill="#000000" font-family="sans-serif" font-size="13" lengthAdjust="spacing" textLength="103" x="362.5" y="452.6841">isStaking=false,</text><text fill="#000000" font-family="sans-serif" font-size="13" lengthAdjust="spacing" textLength="116" x="362.5" y="467.8169">amountOfStaking,</text><text fill="#000000" font-family="sans-serif" font-size="13" lengthAdjust="spacing" textLength="206" x="362.5" y="482.9497">priorityFee_EVVM, nonce_EVVM,</text><text fill="#000000" font-family="sans-serif" font-size="13" lengthAdjust="spacing" textLength="226" x="362.5" y="498.0825">priorityFlag_EVVM, signature_EVVM</text><text fill="#000000" font-family="sans-serif" font-size="13" lengthAdjust="spacing" textLength="5" x="354.5" y="513.2153">)</text><path d="M300,546.2813 L364,546.2813 L364,553.4141 L354,563.4141 L300,563.4141 L300,546.2813 " fill="#EEEEEE" style="stroke:#000000;stroke-width:1.5;"/><rect fill="none" height="160.4688" style="stroke:#000000;stroke-width:1.5;" width="707.5" x="300" y="546.2813"/><text fill="#000000" font-family="sans-serif" font-size="13" font-weight="bold" lengthAdjust="spacing" textLength="19" x="315" y="559.3481">alt</text><text fill="#000000" font-family="sans-serif" font-size="11" font-weight="bold" lengthAdjust="spacing" textLength="394" x="379" y="558.4917">[Full unstaking (amountOfStaking == getUserAmountStaked)]</text><line style="stroke:#181818;stroke-width:1.0;" x1="347.5" x2="389.5" y1="599.6797" y2="599.6797"/><line style="stroke:#181818;stroke-width:1.0;" x1="389.5" x2="389.5" y1="599.6797" y2="612.6797"/><line style="stroke:#181818;stroke-width:1.0;" x1="348.5" x2="389.5" y1="612.6797" y2="612.6797"/><polygon fill="#181818" points="358.5,608.6797,348.5,612.6797,358.5,616.6797,354.5,612.6797" style="stroke:#181818;stroke-width:1.0;"/><text fill="#000000" font-family="sans-serif" font-size="13" lengthAdjust="spacing" textLength="105" x="354.5" y="579.481">Check time lock:</text><text fill="#000000" font-family="sans-serif" font-size="13" lengthAdjust="spacing" textLength="431" x="354.5" y="594.6138">getTimeToUserUnlockFullUnstakingTime(user) &lt;= block.timestamp</text><path d="M797,571.9141 L797,611.9141 L987,611.9141 L987,581.9141 L977,571.9141 L797,571.9141 " fill="#FEFFDD" style="stroke:#181818;stroke-width:0.5;"/><path d="M977,571.9141 L977,581.9141 L987,581.9141 L977,571.9141 " fill="#FEFFDD" style="stroke:#181818;stroke-width:0.5;"/><text fill="#000000" font-family="sans-serif" font-size="13" lengthAdjust="spacing" textLength="137" x="803" y="588.981">21-DAY RESTRICTION:</text><text fill="#000000" font-family="sans-serif" font-size="13" lengthAdjust="spacing" textLength="169" x="803" y="604.1138">Must wait for full unstaking</text><polygon fill="#181818" points="780.5,637.8125,790.5,641.8125,780.5,645.8125,784.5,641.8125" style="stroke:#181818;stroke-width:1.0;"/><line style="stroke:#181818;stroke-width:1.0;" x1="347.5" x2="786.5" y1="641.8125" y2="641.8125"/><text fill="#000000" font-family="sans-serif" font-size="13" lengthAdjust="spacing" textLength="151" x="354.5" y="636.7466">pointStaker(user, 0x00)</text><line style="stroke:#181818;stroke-width:1.0;" x1="802.5" x2="844.5" y1="675.9453" y2="675.9453"/><line style="stroke:#181818;stroke-width:1.0;" x1="844.5" x2="844.5" y1="675.9453" y2="688.9453"/><line style="stroke:#181818;stroke-width:1.0;" x1="797.5" x2="844.5" y1="688.9453" y2="688.9453"/><polygon fill="#181818" points="807.5,684.9453,797.5,688.9453,807.5,692.9453,803.5,688.9453" style="stroke:#181818;stroke-width:1.0;"/><text fill="#000000" font-family="sans-serif" font-size="13" lengthAdjust="spacing" textLength="140" x="809.5" y="670.8794">Remove staker status</text><line style="stroke:#000000;stroke-width:1.0;stroke-dasharray:2.0,2.0;" x1="300" x2="1007.5" y1="692.9453" y2="692.9453"/><text fill="#000000" font-family="sans-serif" font-size="11" font-weight="bold" lengthAdjust="spacing" textLength="119" x="305" y="703.1558">[Partial unstaking]</text><line style="stroke:#181818;stroke-width:1.0;" x1="347.5" x2="389.5" y1="734.8828" y2="734.8828"/><line style="stroke:#181818;stroke-width:1.0;" x1="389.5" x2="389.5" y1="734.8828" y2="747.8828"/><line style="stroke:#181818;stroke-width:1.0;" x1="348.5" x2="389.5" y1="747.8828" y2="747.8828"/><polygon fill="#181818" points="358.5,743.8828,348.5,747.8828,358.5,751.8828,354.5,747.8828" style="stroke:#181818;stroke-width:1.0;"/><text fill="#000000" font-family="sans-serif" font-size="13" lengthAdjust="spacing" textLength="124" x="354.5" y="729.8169">Update userHistory</text><line style="stroke:#181818;stroke-width:1.0;" x1="347.5" x2="389.5" y1="837.5469" y2="837.5469"/><line style="stroke:#181818;stroke-width:1.0;" x1="389.5" x2="389.5" y1="837.5469" y2="850.5469"/><line style="stroke:#181818;stroke-width:1.0;" x1="348.5" x2="389.5" y1="850.5469" y2="850.5469"/><polygon fill="#181818" points="358.5,846.5469,348.5,850.5469,358.5,854.5469,354.5,850.5469" style="stroke:#181818;stroke-width:1.0;"/><text fill="#000000" font-family="sans-serif" font-size="13" lengthAdjust="spacing" textLength="81" x="354.5" y="771.9497">makeCaPay(</text><text fill="#000000" font-family="sans-serif" font-size="13" lengthAdjust="spacing" textLength="189" x="362.5" y="787.0825">PRINCIPAL_TOKEN_ADDRESS,</text><text fill="#000000" font-family="sans-serif" font-size="13" lengthAdjust="spacing" textLength="32" x="362.5" y="802.2153">user,</text><text fill="#000000" font-family="sans-serif" font-size="13" lengthAdjust="spacing" textLength="250" x="362.5" y="817.3481">PRICE_OF_STAKING * amountOfStaking</text><text fill="#000000" font-family="sans-serif" font-size="13" lengthAdjust="spacing" textLength="5" x="354.5" y="832.481">)</text><polygon fill="#181818" points="780.5,875.6797,790.5,879.6797,780.5,883.6797,784.5,879.6797" style="stroke:#181818;stroke-width:1.0;"/><line style="stroke:#181818;stroke-width:1.0;" x1="347.5" x2="786.5" y1="879.6797" y2="879.6797"/><text fill="#000000" font-family="sans-serif" font-size="13" lengthAdjust="spacing" textLength="60" x="354.5" y="874.6138">caPay(&#183;&#183;&#183;)</text><line style="stroke:#181818;stroke-width:1.0;" x1="802.5" x2="844.5" y1="908.8125" y2="908.8125"/><line style="stroke:#181818;stroke-width:1.0;" x1="844.5" x2="844.5" y1="908.8125" y2="921.8125"/><line style="stroke:#181818;stroke-width:1.0;" x1="803.5" x2="844.5" y1="921.8125" y2="921.8125"/><polygon fill="#181818" points="813.5,917.8125,803.5,921.8125,813.5,925.8125,809.5,921.8125" style="stroke:#181818;stroke-width:1.0;"/><text fill="#000000" font-family="sans-serif" font-size="13" lengthAdjust="spacing" textLength="146" x="809.5" y="903.7466">Transfer refund to user</text><polygon fill="#181818" points="358.5,946.9453,348.5,950.9453,358.5,954.9453,354.5,950.9453" style="stroke:#181818;stroke-width:1.0;"/><line style="stroke:#181818;stroke-width:1.0;stroke-dasharray:2.0,2.0;" x1="352.5" x2="796.5" y1="950.9453" y2="950.9453"/><text fill="#000000" font-family="sans-serif" font-size="13" lengthAdjust="spacing" textLength="114" x="364.5" y="945.8794">Refund successful</text><line style="stroke:#181818;stroke-width:1.0;" x1="347.5" x2="389.5" y1="980.0781" y2="980.0781"/><line style="stroke:#181818;stroke-width:1.0;" x1="389.5" x2="389.5" y1="980.0781" y2="993.0781"/><line style="stroke:#181818;stroke-width:1.0;" x1="348.5" x2="389.5" y1="993.0781" y2="993.0781"/><polygon fill="#181818" points="358.5,989.0781,348.5,993.0781,358.5,997.0781,354.5,993.0781" style="stroke:#181818;stroke-width:1.0;"/><text fill="#000000" font-family="sans-serif" font-size="13" lengthAdjust="spacing" textLength="219" x="354.5" y="975.0122">markAsyncNonceAsUsed(user, nonce)</text><path d="M300,1008.0781 L364,1008.0781 L364,1015.2109 L354,1025.2109 L300,1025.2109 L300,1008.0781 " fill="#EEEEEE" style="stroke:#000000;stroke-width:1.5;"/><rect fill="none" height="165.6641" style="stroke:#000000;stroke-width:1.5;" width="655.5" x="300" y="1008.0781"/><text fill="#000000" font-family="sans-serif" font-size="13" font-weight="bold" lengthAdjust="spacing" textLength="19" x="315" y="1021.145">alt</text><text fill="#000000" font-family="sans-serif" font-size="11" font-weight="bold" lengthAdjust="spacing" textLength="143" x="379" y="1020.2886">[msg.sender is staker]</text><line style="stroke:#181818;stroke-width:1.0;" x1="347.5" x2="389.5" y1="1046.3438" y2="1046.3438"/><line style="stroke:#181818;stroke-width:1.0;" x1="389.5" x2="389.5" y1="1046.3438" y2="1059.3438"/><line style="stroke:#181818;stroke-width:1.0;" x1="348.5" x2="389.5" y1="1059.3438" y2="1059.3438"/><polygon fill="#181818" points="358.5,1055.3438,348.5,1059.3438,358.5,1063.3438,354.5,1059.3438" style="stroke:#181818;stroke-width:1.0;"/><text fill="#000000" font-family="sans-serif" font-size="13" lengthAdjust="spacing" textLength="98" x="354.5" y="1041.2778">makeCaPay(&#183;&#183;&#183;)</text><polygon fill="#181818" points="780.5,1084.4766,790.5,1088.4766,780.5,1092.4766,784.5,1088.4766" style="stroke:#181818;stroke-width:1.0;"/><line style="stroke:#181818;stroke-width:1.0;" x1="347.5" x2="786.5" y1="1088.4766" y2="1088.4766"/><text fill="#000000" font-family="sans-serif" font-size="13" lengthAdjust="spacing" textLength="60" x="354.5" y="1083.4106">caPay(&#183;&#183;&#183;)</text><line style="stroke:#181818;stroke-width:1.0;" x1="802.5" x2="844.5" y1="1117.6094" y2="1117.6094"/><line style="stroke:#181818;stroke-width:1.0;" x1="844.5" x2="844.5" y1="1117.6094" y2="1130.6094"/><line style="stroke:#181818;stroke-width:1.0;" x1="803.5" x2="844.5" y1="1130.6094" y2="1130.6094"/><polygon fill="#181818" points="813.5,1126.6094,803.5,1130.6094,813.5,1134.6094,809.5,1130.6094" style="stroke:#181818;stroke-width:1.0;"/><text fill="#000000" font-family="sans-serif" font-size="13" lengthAdjust="spacing" textLength="106" x="809.5" y="1112.5435">Transfer rewards</text><polygon fill="#181818" points="353.5,1158.7422,343.5,1162.7422,353.5,1166.7422,349.5,1162.7422" style="stroke:#181818;stroke-width:1.0;"/><line style="stroke:#181818;stroke-width:1.0;stroke-dasharray:2.0,2.0;" x1="347.5" x2="796.5" y1="1162.7422" y2="1162.7422"/><text fill="#000000" font-family="sans-serif" font-size="13" lengthAdjust="spacing" textLength="53" x="359.5" y="1157.6763">Success</text><path d="M807,1143.6094 L807,1168.6094 L940,1168.6094 L940,1153.6094 L930,1143.6094 L807,1143.6094 " fill="#FEFFDD" style="stroke:#181818;stroke-width:0.5;"/><path d="M930,1143.6094 L930,1153.6094 L940,1153.6094 L930,1143.6094 " fill="#FEFFDD" style="stroke:#181818;stroke-width:0.5;"/><text fill="#000000" font-family="sans-serif" font-size="13" lengthAdjust="spacing" textLength="112" x="813" y="1160.6763">DOUBLE REWARD</text><!--SRC=[dLNTRjem6BtFKtngRs2YNTQRILMfH26qg0CYVZfDfKAkuu15OaUs0qLLdsltUxBPJaX92jKq8K5YVp_d77_7N4crZSYr4t2SneGfU7K0RX1UtGgUig3D8ovWiwIAE6_ErTSysb5KHGIIz3cYUApGYh95hGvJ9hDdw4PyCsErEvGaM_2HMi8PZ5ECYPHX6e7tGd2gA6Trnq5OwHOdlgq5Kqd42I09gNvm4YGKnJH16jX9tiVkxlgSThkTxwvR3lGU7lesYgpNCPowhkTTkBOHNID5ijAE-OQpwwBKPONEZ86DR02L-LepH94a3K2nraODmtovOK8PPrXlIRfWIAL2FoQ2Sa7Ljal8t41gGEtFR_EfpmplW5G05QzLSivkeOJsWGWQRW55Mcf_7_bv6A45D9kWH4gE9AzjSbyV1rgGiSPCWYuNfW2nn8rolKwZ421hq3GLBTl_aiJIFWW7BmbUzMmo6PWiFGP1BMjkgnnBp9zka2I-u6QyBFmMnWPEdoWK88LUiqeMwjj1_6Rj48MFPsZXPC-b0Arv7b7mjU-MD8eKd5eNGJUD8aWBezGgNSsvBOWoDcZP7Qj9KDUk13WeGTje1uh612AELvSpflCd-dN2JPKfCwkcQ-5Eisd5hSDL4vxD_hd9rzjnOXinhf4AkbWgtU3YsrcdzGj6tdWowhKdlU50z-YdKi46KGMXTczO8cLBL05RBsgFSPfp4ldvkY-kcz4h353ohTcn2-z5HYJcwymdsiFwHwNInkrvoeGwH9_jJdZVN16e2hF4TC3VTPmnGopva4HOS6GMfqcmC_CTbVfIsnu9Z3NiDlBHriwgF-eDsZs_zMC-6TvxWtchqz5IZnl5_PC7jRtvi3iVJrhtlS4jVAcEQzLSkLJOzidl7UUmmXLr9m8n6MfX1GdrNm0edbrGMLY9oIYBaCNDxbHFu5FRMgi_ck9FZzPNJx2xjVOS4yl5kTIoQqHKveT-t0xlukv8VpAD-4FWFy_WdaeR90Av5rF2a__h7HpF0bbf2Zl3wSqFJ_ljPslKgURjZ-5V]--></g></svg>