<?xml version="1.0" encoding="us-ascii" standalone="no"?><svg xmlns="http://www.w3.org/2000/svg" xmlns:xlink="http://www.w3.org/1999/xlink" contentStyleType="text/css" height="1601px" preserveAspectRatio="none" style="width:790px;height:1601px;background:#FFFFFF;" version="1.1" viewBox="0 0 790 1601" width="790px" zoomAndPan="magnify"><defs/><g><text fill="#000000" font-family="sans-serif" font-size="14" font-weight="bold" lengthAdjust="spacing" textLength="222" x="285" y="27.9951">publicStaking() Staking Flow</text><text fill="#000000" font-family="sans-serif" font-size="14" font-weight="bold" lengthAdjust="spacing" textLength="227" x="282.5" y="44.292">(Failed Path - Error Handling)</text><rect fill="#FFD700" height="1242.1406" style="stroke:#181818;stroke-width:1.0;" width="10" x="417.5" y="211.4219"/><rect fill="#00EE20" height="177.7344" style="stroke:#181818;stroke-width:1.0;" width="10" x="681.5" y="910.6953"/><rect fill="#00EE20" height="30" style="stroke:#181818;stroke-width:1.0;" width="10" x="681.5" y="1117.5625"/><rect fill="#00EE20" height="126.3359" style="stroke:#181818;stroke-width:1.0;" width="10" x="681.5" y="1327.2266"/><rect fill="#F5B7B1" height="1235.0078" style="stroke:#000000;stroke-width:1.5;" width="773" x="10" y="268.5547"/><rect fill="#FFFFFF" height="1152.4766" style="stroke:none;stroke-width:1.0;" width="773" x="10" y="351.0859"/><rect fill="#F5B7B1" height="1081.5391" style="stroke:#000000;stroke-width:1.5;" width="753" x="20" y="415.0234"/><rect fill="#FFFFFF" height="999.0078" style="stroke:none;stroke-width:1.0;" width="753" x="20" y="497.5547"/><rect fill="#F5B7B1" height="928.0703" style="stroke:#000000;stroke-width:1.5;" width="733" x="30" y="561.4922"/><rect fill="#FFFFFF" height="845.5391" style="stroke:none;stroke-width:1.0;" width="733" x="30" y="644.0234"/><rect fill="#F5B7B1" height="732.4688" style="stroke:#000000;stroke-width:1.5;" width="713" x="40" y="750.0938"/><rect fill="#FFFFFF" height="649.9375" style="stroke:none;stroke-width:1.0;" width="713" x="40" y="832.625"/><rect fill="#F5B7B1" height="549.8672" style="stroke:#000000;stroke-width:1.5;" width="693" x="50" y="925.6953"/><rect fill="#FFFFFF" height="423.0703" style="stroke:none;stroke-width:1.0;" width="693" x="50" y="1052.4922"/><rect fill="#FFFFFF" height="221.7344" style="stroke:#000000;stroke-width:1.5;" width="673" x="60" y="1246.8281"/><rect fill="#F5B7B1" height="119.3359" style="stroke:#000000;stroke-width:1.5;" width="653" x="70" y="1342.2266"/><rect fill="#FFFFFF" height="43.9375" style="stroke:none;stroke-width:1.0;" width="653" x="70" y="1417.625"/><line style="stroke:#181818;stroke-width:0.5;stroke-dasharray:5.0,5.0;" x1="121" x2="121" y1="134.8906" y2="1520.5625"/><line style="stroke:#181818;stroke-width:0.5;stroke-dasharray:5.0,5.0;" x1="422" x2="422" y1="134.8906" y2="1520.5625"/><line style="stroke:#181818;stroke-width:0.5;stroke-dasharray:5.0,5.0;" x1="686" x2="686" y1="134.8906" y2="1520.5625"/><text fill="#000000" font-family="sans-serif" font-size="14" lengthAdjust="spacing" textLength="77" x="80" y="131.5889">Public User</text><ellipse cx="121.5" cy="67.0938" fill="#E2E2F0" rx="8" ry="8" style="stroke:#181818;stroke-width:0.5;"/><path d="M121.5,75.0938 L121.5,102.0938 M108.5,83.0938 L134.5,83.0938 M121.5,102.0938 L108.5,117.0938 M121.5,102.0938 L134.5,117.0938 " fill="none" style="stroke:#181818;stroke-width:0.5;"/><text fill="#000000" font-family="sans-serif" font-size="14" lengthAdjust="spacing" textLength="77" x="80" y="1532.5576">Public User</text><ellipse cx="121.5" cy="1544.3594" fill="#E2E2F0" rx="8" ry="8" style="stroke:#181818;stroke-width:0.5;"/><path d="M121.5,1552.3594 L121.5,1579.3594 M108.5,1560.3594 L134.5,1560.3594 M121.5,1579.3594 L108.5,1594.3594 M121.5,1579.3594 L134.5,1594.3594 " fill="none" style="stroke:#181818;stroke-width:0.5;"/><rect fill="#FFD700" height="30.2969" rx="2.5" ry="2.5" style="stroke:#181818;stroke-width:0.5;" width="65" x="390" y="103.5938"/><text fill="#000000" font-family="sans-serif" font-size="14" lengthAdjust="spacing" textLength="51" x="397" y="123.5889">Staking</text><rect fill="#FFD700" height="30.2969" rx="2.5" ry="2.5" style="stroke:#181818;stroke-width:0.5;" width="65" x="390" y="1519.5625"/><text fill="#000000" font-family="sans-serif" font-size="14" lengthAdjust="spacing" textLength="51" x="397" y="1539.5576">Staking</text><rect fill="#00EE20" height="30.2969" rx="2.5" ry="2.5" style="stroke:#181818;stroke-width:0.5;" width="53" x="660" y="103.5938"/><text fill="#000000" font-family="sans-serif" font-size="14" lengthAdjust="spacing" textLength="39" x="667" y="123.5889">EVVM</text><rect fill="#00EE20" height="30.2969" rx="2.5" ry="2.5" style="stroke:#181818;stroke-width:0.5;" width="53" x="660" y="1519.5625"/><text fill="#000000" font-family="sans-serif" font-size="14" lengthAdjust="spacing" textLength="39" x="667" y="1539.5576">EVVM</text><rect fill="#FFD700" height="1242.1406" style="stroke:#181818;stroke-width:1.0;" width="10" x="417.5" y="211.4219"/><rect fill="#00EE20" height="177.7344" style="stroke:#181818;stroke-width:1.0;" width="10" x="681.5" y="910.6953"/><rect fill="#00EE20" height="30" style="stroke:#181818;stroke-width:1.0;" width="10" x="681.5" y="1117.5625"/><rect fill="#00EE20" height="126.3359" style="stroke:#181818;stroke-width:1.0;" width="10" x="681.5" y="1327.2266"/><polygon fill="#181818" points="405.5,207.4219,415.5,211.4219,405.5,215.4219,409.5,211.4219" style="stroke:#181818;stroke-width:1.0;"/><line style="stroke:#181818;stroke-width:1.0;" x1="121.5" x2="411.5" y1="211.4219" y2="211.4219"/><text fill="#000000" font-family="sans-serif" font-size="13" lengthAdjust="spacing" textLength="90" x="128.5" y="160.9575">publicStaking(</text><text fill="#000000" font-family="sans-serif" font-size="13" lengthAdjust="spacing" textLength="255" x="136.5" y="176.0903">user, isStaking=true, amountOfStaking,</text><text fill="#000000" font-family="sans-serif" font-size="13" lengthAdjust="spacing" textLength="137" x="136.5" y="191.2231">nonce, signature, (&#183;&#183;&#183;)</text><text fill="#000000" font-family="sans-serif" font-size="13" lengthAdjust="spacing" textLength="5" x="128.5" y="206.356">)</text><line style="stroke:#181818;stroke-width:1.0;" x1="427.5" x2="469.5" y1="240.5547" y2="240.5547"/><line style="stroke:#181818;stroke-width:1.0;" x1="469.5" x2="469.5" y1="240.5547" y2="253.5547"/><line style="stroke:#181818;stroke-width:1.0;" x1="428.5" x2="469.5" y1="253.5547" y2="253.5547"/><polygon fill="#181818" points="438.5,249.5547,428.5,253.5547,438.5,257.5547,434.5,253.5547" style="stroke:#181818;stroke-width:1.0;"/><text fill="#000000" font-family="sans-serif" font-size="13" lengthAdjust="spacing" textLength="239" x="434.5" y="235.4888">Verify allowPublicStaking.flag == true</text><path d="M10,268.5547 L74,268.5547 L74,275.6875 L64,285.6875 L10,285.6875 L10,268.5547 " fill="#EEEEEE" style="stroke:#000000;stroke-width:1.5;"/><rect fill="none" height="1235.0078" style="stroke:#000000;stroke-width:1.5;" width="773" x="10" y="268.5547"/><text fill="#000000" font-family="sans-serif" font-size="13" font-weight="bold" lengthAdjust="spacing" textLength="19" x="25" y="281.6216">alt</text><text fill="#000000" font-family="sans-serif" font-size="11" font-weight="bold" lengthAdjust="spacing" textLength="219" x="89" y="280.7651">[allowPublicStaking.flag == false]</text><line style="stroke:#181818;stroke-width:2.0;" x1="128.5" x2="138.5" y1="319.9531" y2="329.9531"/><line style="stroke:#181818;stroke-width:2.0;" x1="128.5" x2="138.5" y1="329.9531" y2="319.9531"/><line style="stroke:#181818;stroke-width:1.0;" x1="133.5" x2="416.5" y1="324.9531" y2="324.9531"/><text fill="#000000" font-family="sans-serif" font-size="13" lengthAdjust="spacing" textLength="102" x="138.5" y="319.8872">Revert (generic)</text><path d="M432,290.6875 L432,345.6875 L644,345.6875 L644,300.6875 L634,290.6875 L432,290.6875 " fill="#FEFFDD" style="stroke:#181818;stroke-width:0.5;"/><path d="M634,290.6875 L634,300.6875 L644,300.6875 L634,290.6875 " fill="#FEFFDD" style="stroke:#181818;stroke-width:0.5;"/><text fill="#000000" font-family="sans-serif" font-size="13" lengthAdjust="spacing" textLength="191" x="438" y="307.7544">PUBLIC PHASE NOT STARTED:</text><text fill="#000000" font-family="sans-serif" font-size="13" lengthAdjust="spacing" textLength="153" x="438" y="322.8872">Governance has not yet</text><text fill="#000000" font-family="sans-serif" font-size="13" lengthAdjust="spacing" textLength="142" x="438" y="338.02">enabled public staking</text><line style="stroke:#000000;stroke-width:1.0;stroke-dasharray:2.0,2.0;" x1="10" x2="783" y1="352.0859" y2="352.0859"/><text fill="#000000" font-family="sans-serif" font-size="11" font-weight="bold" lengthAdjust="spacing" textLength="156" x="15" y="362.2964">[Public staking enabled]</text><line style="stroke:#181818;stroke-width:1.0;" x1="427.5" x2="469.5" y1="387.0234" y2="387.0234"/><line style="stroke:#181818;stroke-width:1.0;" x1="469.5" x2="469.5" y1="387.0234" y2="400.0234"/><line style="stroke:#181818;stroke-width:1.0;" x1="428.5" x2="469.5" y1="400.0234" y2="400.0234"/><polygon fill="#181818" points="438.5,396.0234,428.5,400.0234,438.5,404.0234,434.5,400.0234" style="stroke:#181818;stroke-width:1.0;"/><text fill="#000000" font-family="sans-serif" font-size="13" lengthAdjust="spacing" textLength="214" x="434.5" y="381.9575">verifyMessageSignedForStake(&#183;&#183;&#183;)</text><path d="M20,415.0234 L84,415.0234 L84,422.1563 L74,432.1563 L20,432.1563 L20,415.0234 " fill="#EEEEEE" style="stroke:#000000;stroke-width:1.5;"/><rect fill="none" height="1081.5391" style="stroke:#000000;stroke-width:1.5;" width="753" x="20" y="415.0234"/><text fill="#000000" font-family="sans-serif" font-size="13" font-weight="bold" lengthAdjust="spacing" textLength="19" x="35" y="428.0903">alt</text><text fill="#000000" font-family="sans-serif" font-size="11" font-weight="bold" lengthAdjust="spacing" textLength="118" x="99" y="427.2339">[Invalid signature]</text><line style="stroke:#181818;stroke-width:2.0;" x1="128.5" x2="138.5" y1="466.4219" y2="476.4219"/><line style="stroke:#181818;stroke-width:2.0;" x1="128.5" x2="138.5" y1="476.4219" y2="466.4219"/><line style="stroke:#181818;stroke-width:1.0;" x1="133.5" x2="416.5" y1="471.4219" y2="471.4219"/><text fill="#000000" font-family="sans-serif" font-size="13" lengthAdjust="spacing" textLength="242" x="138.5" y="466.356">Revert with InvalidSignatureOnStaking</text><path d="M432,437.1563 L432,492.1563 L648,492.1563 L648,447.1563 L638,437.1563 L432,437.1563 " fill="#FEFFDD" style="stroke:#181818;stroke-width:0.5;"/><path d="M638,437.1563 L638,447.1563 L648,447.1563 L638,437.1563 " fill="#FEFFDD" style="stroke:#181818;stroke-width:0.5;"/><text fill="#000000" font-family="sans-serif" font-size="13" lengthAdjust="spacing" textLength="117" x="438" y="454.2231">SECURITY: EIP-712</text><text fill="#000000" font-family="sans-serif" font-size="13" lengthAdjust="spacing" textLength="142" x="438" y="469.356">signature must match</text><text fill="#000000" font-family="sans-serif" font-size="13" lengthAdjust="spacing" textLength="195" x="438" y="484.4888">user, amountOfStaking, nonce</text><line style="stroke:#000000;stroke-width:1.0;stroke-dasharray:2.0,2.0;" x1="20" x2="773" y1="498.5547" y2="498.5547"/><text fill="#000000" font-family="sans-serif" font-size="11" font-weight="bold" lengthAdjust="spacing" textLength="107" x="25" y="508.7651">[Signature valid]</text><line style="stroke:#181818;stroke-width:1.0;" x1="427.5" x2="469.5" y1="533.4922" y2="533.4922"/><line style="stroke:#181818;stroke-width:1.0;" x1="469.5" x2="469.5" y1="533.4922" y2="546.4922"/><line style="stroke:#181818;stroke-width:1.0;" x1="428.5" x2="469.5" y1="546.4922" y2="546.4922"/><polygon fill="#181818" points="438.5,542.4922,428.5,546.4922,438.5,550.4922,434.5,546.4922" style="stroke:#181818;stroke-width:1.0;"/><text fill="#000000" font-family="sans-serif" font-size="13" lengthAdjust="spacing" textLength="240" x="434.5" y="528.4263">checkIfStakeNonceUsed(user, nonce)</text><path d="M30,561.4922 L94,561.4922 L94,568.625 L84,578.625 L30,578.625 L30,561.4922 " fill="#EEEEEE" style="stroke:#000000;stroke-width:1.5;"/><rect fill="none" height="928.0703" style="stroke:#000000;stroke-width:1.5;" width="733" x="30" y="561.4922"/><text fill="#000000" font-family="sans-serif" font-size="13" font-weight="bold" lengthAdjust="spacing" textLength="19" x="45" y="574.5591">alt</text><text fill="#000000" font-family="sans-serif" font-size="11" font-weight="bold" lengthAdjust="spacing" textLength="137" x="109" y="573.7026">[Nonce already used]</text><line style="stroke:#181818;stroke-width:2.0;" x1="128.5" x2="138.5" y1="612.8906" y2="622.8906"/><line style="stroke:#181818;stroke-width:2.0;" x1="128.5" x2="138.5" y1="622.8906" y2="612.8906"/><line style="stroke:#181818;stroke-width:1.0;" x1="133.5" x2="416.5" y1="617.8906" y2="617.8906"/><text fill="#000000" font-family="sans-serif" font-size="13" lengthAdjust="spacing" textLength="244" x="138.5" y="612.8247">Revert with StakingNonceAlreadyUsed</text><path d="M432,583.625 L432,638.625 L584,638.625 L584,593.625 L574,583.625 L432,583.625 " fill="#FEFFDD" style="stroke:#181818;stroke-width:0.5;"/><path d="M574,583.625 L574,593.625 L584,593.625 L574,583.625 " fill="#FEFFDD" style="stroke:#181818;stroke-width:0.5;"/><text fill="#000000" font-family="sans-serif" font-size="13" lengthAdjust="spacing" textLength="85" x="438" y="600.6919">ANTI-REPLAY:</text><text fill="#000000" font-family="sans-serif" font-size="13" lengthAdjust="spacing" textLength="131" x="438" y="615.8247">Each nonce can only</text><text fill="#000000" font-family="sans-serif" font-size="13" lengthAdjust="spacing" textLength="86" x="438" y="630.9575">be used once</text><line style="stroke:#000000;stroke-width:1.0;stroke-dasharray:2.0,2.0;" x1="30" x2="763" y1="645.0234" y2="645.0234"/><text fill="#000000" font-family="sans-serif" font-size="11" font-weight="bold" lengthAdjust="spacing" textLength="113" x="35" y="655.2339">[Nonce available]</text><line style="stroke:#181818;stroke-width:1.0;" x1="427.5" x2="469.5" y1="679.9609" y2="679.9609"/><line style="stroke:#181818;stroke-width:1.0;" x1="469.5" x2="469.5" y1="679.9609" y2="692.9609"/><line style="stroke:#181818;stroke-width:1.0;" x1="428.5" x2="469.5" y1="692.9609" y2="692.9609"/><polygon fill="#181818" points="438.5,688.9609,428.5,692.9609,438.5,696.9609,434.5,692.9609" style="stroke:#181818;stroke-width:1.0;"/><text fill="#000000" font-family="sans-serif" font-size="13" lengthAdjust="spacing" textLength="150" x="434.5" y="674.895">stakingBaseProcess(&#183;&#183;&#183;)</text><line style="stroke:#181818;stroke-width:1.0;" x1="427.5" x2="469.5" y1="722.0938" y2="722.0938"/><line style="stroke:#181818;stroke-width:1.0;" x1="469.5" x2="469.5" y1="722.0938" y2="735.0938"/><line style="stroke:#181818;stroke-width:1.0;" x1="428.5" x2="469.5" y1="735.0938" y2="735.0938"/><polygon fill="#181818" points="438.5,731.0938,428.5,735.0938,438.5,739.0938,434.5,735.0938" style="stroke:#181818;stroke-width:1.0;"/><text fill="#000000" font-family="sans-serif" font-size="13" lengthAdjust="spacing" textLength="101" x="434.5" y="717.0278">Check time lock</text><path d="M40,750.0938 L104,750.0938 L104,757.2266 L94,767.2266 L40,767.2266 L40,750.0938 " fill="#EEEEEE" style="stroke:#000000;stroke-width:1.5;"/><rect fill="none" height="732.4688" style="stroke:#000000;stroke-width:1.5;" width="713" x="40" y="750.0938"/><text fill="#000000" font-family="sans-serif" font-size="13" font-weight="bold" lengthAdjust="spacing" textLength="19" x="55" y="763.1606">alt</text><text fill="#000000" font-family="sans-serif" font-size="11" font-weight="bold" lengthAdjust="spacing" textLength="148" x="119" y="762.3042">[Time lock not expired]</text><line style="stroke:#181818;stroke-width:2.0;" x1="128.5" x2="138.5" y1="801.4922" y2="811.4922"/><line style="stroke:#181818;stroke-width:2.0;" x1="128.5" x2="138.5" y1="811.4922" y2="801.4922"/><line style="stroke:#181818;stroke-width:1.0;" x1="133.5" x2="416.5" y1="806.4922" y2="806.4922"/><text fill="#000000" font-family="sans-serif" font-size="13" lengthAdjust="spacing" textLength="272" x="138.5" y="801.4263">Revert with AddressMustWaitToStakeAgain</text><path d="M432,772.2266 L432,827.2266 L625,827.2266 L625,782.2266 L615,772.2266 L432,772.2266 " fill="#FEFFDD" style="stroke:#181818;stroke-width:0.5;"/><path d="M615,772.2266 L615,782.2266 L625,782.2266 L615,772.2266 " fill="#FEFFDD" style="stroke:#181818;stroke-width:0.5;"/><text fill="#000000" font-family="sans-serif" font-size="13" lengthAdjust="spacing" textLength="160" x="438" y="789.2935">Must wait after unstaking</text><text fill="#000000" font-family="sans-serif" font-size="13" lengthAdjust="spacing" textLength="130" x="438" y="804.4263">before staking again</text><text fill="#000000" font-family="sans-serif" font-size="13" lengthAdjust="spacing" textLength="172" x="438" y="819.5591">(Prevents gaming rewards)</text><line style="stroke:#000000;stroke-width:1.0;stroke-dasharray:2.0,2.0;" x1="40" x2="753" y1="833.625" y2="833.625"/><text fill="#000000" font-family="sans-serif" font-size="11" font-weight="bold" lengthAdjust="spacing" textLength="121" x="45" y="843.8354">[Time lock passed]</text><line style="stroke:#181818;stroke-width:1.0;" x1="427.5" x2="469.5" y1="868.5625" y2="868.5625"/><line style="stroke:#181818;stroke-width:1.0;" x1="469.5" x2="469.5" y1="868.5625" y2="881.5625"/><line style="stroke:#181818;stroke-width:1.0;" x1="428.5" x2="469.5" y1="881.5625" y2="881.5625"/><polygon fill="#181818" points="438.5,877.5625,428.5,881.5625,438.5,885.5625,434.5,881.5625" style="stroke:#181818;stroke-width:1.0;"/><text fill="#000000" font-family="sans-serif" font-size="13" lengthAdjust="spacing" textLength="81" x="434.5" y="863.4966">makePay(&#183;&#183;&#183;)</text><polygon fill="#181818" points="669.5,906.6953,679.5,910.6953,669.5,914.6953,673.5,910.6953" style="stroke:#181818;stroke-width:1.0;"/><line style="stroke:#181818;stroke-width:1.0;" x1="427.5" x2="675.5" y1="910.6953" y2="910.6953"/><text fill="#000000" font-family="sans-serif" font-size="13" lengthAdjust="spacing" textLength="45" x="434.5" y="905.6294">pay(&#183;&#183;&#183;)</text><path d="M50,925.6953 L114,925.6953 L114,932.8281 L104,942.8281 L50,942.8281 L50,925.6953 " fill="#EEEEEE" style="stroke:#000000;stroke-width:1.5;"/><rect fill="none" height="549.8672" style="stroke:#000000;stroke-width:1.5;" width="693" x="50" y="925.6953"/><text fill="#000000" font-family="sans-serif" font-size="13" font-weight="bold" lengthAdjust="spacing" textLength="19" x="65" y="938.7622">alt</text><text fill="#000000" font-family="sans-serif" font-size="11" font-weight="bold" lengthAdjust="spacing" textLength="97" x="129" y="937.9058">[Payment fails]</text><line style="stroke:#181818;stroke-width:2.0;" x1="434.5" x2="444.5" y1="958.9609" y2="968.9609"/><line style="stroke:#181818;stroke-width:2.0;" x1="434.5" x2="444.5" y1="968.9609" y2="958.9609"/><line style="stroke:#181818;stroke-width:1.0;" x1="439.5" x2="680.5" y1="963.9609" y2="963.9609"/><text fill="#000000" font-family="sans-serif" font-size="13" lengthAdjust="spacing" textLength="41" x="444.5" y="958.895">Revert</text><line style="stroke:#181818;stroke-width:2.0;" x1="128.5" x2="138.5" y1="1013.793" y2="1023.793"/><line style="stroke:#181818;stroke-width:2.0;" x1="128.5" x2="138.5" y1="1023.793" y2="1013.793"/><line style="stroke:#181818;stroke-width:1.0;" x1="133.5" x2="416.5" y1="1018.793" y2="1018.793"/><text fill="#000000" font-family="sans-serif" font-size="13" lengthAdjust="spacing" textLength="92" x="138.5" y="1013.7271">Payment error</text><path d="M432,976.9609 L432,1046.9609 L636,1046.9609 L636,986.9609 L626,976.9609 L432,976.9609 " fill="#FEFFDD" style="stroke:#181818;stroke-width:0.5;"/><path d="M626,976.9609 L626,986.9609 L636,986.9609 L626,976.9609 " fill="#FEFFDD" style="stroke:#181818;stroke-width:0.5;"/><text fill="#000000" font-family="sans-serif" font-size="13" lengthAdjust="spacing" textLength="60" x="438" y="994.0278">Could be:</text><text fill="#000000" font-family="sans-serif" font-size="13" lengthAdjust="spacing" textLength="160" x="438" y="1009.1606">&#8226; Invalid signature_EVVM</text><text fill="#000000" font-family="sans-serif" font-size="13" lengthAdjust="spacing" textLength="183" x="438" y="1024.2935">&#8226; Nonce_EVVM already used</text><text fill="#000000" font-family="sans-serif" font-size="13" lengthAdjust="spacing" textLength="134" x="438" y="1039.4263">&#8226; Insufficient balance</text><line style="stroke:#000000;stroke-width:1.0;stroke-dasharray:2.0,2.0;" x1="50" x2="743" y1="1053.4922" y2="1053.4922"/><text fill="#000000" font-family="sans-serif" font-size="11" font-weight="bold" lengthAdjust="spacing" textLength="129" x="55" y="1063.7026">[Payment succeeds]</text><polygon fill="#181818" points="438.5,1084.4297,428.5,1088.4297,438.5,1092.4297,434.5,1088.4297" style="stroke:#181818;stroke-width:1.0;"/><line style="stroke:#181818;stroke-width:1.0;stroke-dasharray:2.0,2.0;" x1="432.5" x2="685.5" y1="1088.4297" y2="1088.4297"/><text fill="#000000" font-family="sans-serif" font-size="13" lengthAdjust="spacing" textLength="53" x="444.5" y="1083.3638">Success</text><polygon fill="#181818" points="669.5,1113.5625,679.5,1117.5625,669.5,1121.5625,673.5,1117.5625" style="stroke:#181818;stroke-width:1.0;"/><line style="stroke:#181818;stroke-width:1.0;" x1="427.5" x2="675.5" y1="1117.5625" y2="1117.5625"/><text fill="#000000" font-family="sans-serif" font-size="13" lengthAdjust="spacing" textLength="151" x="434.5" y="1112.4966">pointStaker(user, 0x01)</text><line style="stroke:#181818;stroke-width:1.0;" x1="427.5" x2="469.5" y1="1176.6953" y2="1176.6953"/><line style="stroke:#181818;stroke-width:1.0;" x1="469.5" x2="469.5" y1="1176.6953" y2="1189.6953"/><line style="stroke:#181818;stroke-width:1.0;" x1="428.5" x2="469.5" y1="1189.6953" y2="1189.6953"/><polygon fill="#181818" points="438.5,1185.6953,428.5,1189.6953,438.5,1193.6953,434.5,1189.6953" style="stroke:#181818;stroke-width:1.0;"/><text fill="#000000" font-family="sans-serif" font-size="13" lengthAdjust="spacing" textLength="124" x="434.5" y="1171.6294">Update userHistory</text><line style="stroke:#181818;stroke-width:1.0;" x1="427.5" x2="469.5" y1="1218.8281" y2="1218.8281"/><line style="stroke:#181818;stroke-width:1.0;" x1="469.5" x2="469.5" y1="1218.8281" y2="1231.8281"/><line style="stroke:#181818;stroke-width:1.0;" x1="428.5" x2="469.5" y1="1231.8281" y2="1231.8281"/><polygon fill="#181818" points="438.5,1227.8281,428.5,1231.8281,438.5,1235.8281,434.5,1231.8281" style="stroke:#181818;stroke-width:1.0;"/><text fill="#000000" font-family="sans-serif" font-size="13" lengthAdjust="spacing" textLength="219" x="434.5" y="1213.7622">stakingNonce[user][nonce] = true</text><path d="M60,1246.8281 L124,1246.8281 L124,1253.9609 L114,1263.9609 L60,1263.9609 L60,1246.8281 " fill="#EEEEEE" style="stroke:#000000;stroke-width:1.5;"/><rect fill="none" height="221.7344" style="stroke:#000000;stroke-width:1.5;" width="673" x="60" y="1246.8281"/><text fill="#000000" font-family="sans-serif" font-size="13" font-weight="bold" lengthAdjust="spacing" textLength="19" x="75" y="1259.895">alt</text><text fill="#000000" font-family="sans-serif" font-size="11" font-weight="bold" lengthAdjust="spacing" textLength="143" x="139" y="1259.0386">[msg.sender is staker]</text><line style="stroke:#181818;stroke-width:1.0;" x1="427.5" x2="469.5" y1="1285.0938" y2="1285.0938"/><line style="stroke:#181818;stroke-width:1.0;" x1="469.5" x2="469.5" y1="1285.0938" y2="1298.0938"/><line style="stroke:#181818;stroke-width:1.0;" x1="428.5" x2="469.5" y1="1298.0938" y2="1298.0938"/><polygon fill="#181818" points="438.5,1294.0938,428.5,1298.0938,438.5,1302.0938,434.5,1298.0938" style="stroke:#181818;stroke-width:1.0;"/><text fill="#000000" font-family="sans-serif" font-size="13" lengthAdjust="spacing" textLength="98" x="434.5" y="1280.0278">makeCaPay(&#183;&#183;&#183;)</text><polygon fill="#181818" points="669.5,1323.2266,679.5,1327.2266,669.5,1331.2266,673.5,1327.2266" style="stroke:#181818;stroke-width:1.0;"/><line style="stroke:#181818;stroke-width:1.0;" x1="427.5" x2="675.5" y1="1327.2266" y2="1327.2266"/><text fill="#000000" font-family="sans-serif" font-size="13" lengthAdjust="spacing" textLength="60" x="434.5" y="1322.1606">caPay(&#183;&#183;&#183;)</text><path d="M70,1342.2266 L134,1342.2266 L134,1349.3594 L124,1359.3594 L70,1359.3594 L70,1342.2266 " fill="#EEEEEE" style="stroke:#000000;stroke-width:1.5;"/><rect fill="none" height="119.3359" style="stroke:#000000;stroke-width:1.5;" width="653" x="70" y="1342.2266"/><text fill="#000000" font-family="sans-serif" font-size="13" font-weight="bold" lengthAdjust="spacing" textLength="19" x="85" y="1355.2935">alt</text><text fill="#000000" font-family="sans-serif" font-size="11" font-weight="bold" lengthAdjust="spacing" textLength="90" x="149" y="1354.437">[Reward fails]</text><line style="stroke:#181818;stroke-width:2.0;" x1="434.5" x2="444.5" y1="1375.4922" y2="1385.4922"/><line style="stroke:#181818;stroke-width:2.0;" x1="434.5" x2="444.5" y1="1385.4922" y2="1375.4922"/><line style="stroke:#181818;stroke-width:1.0;" x1="439.5" x2="680.5" y1="1380.4922" y2="1380.4922"/><text fill="#000000" font-family="sans-serif" font-size="13" lengthAdjust="spacing" textLength="31" x="444.5" y="1375.4263">Error</text><line style="stroke:#181818;stroke-width:2.0;" x1="128.5" x2="138.5" y1="1404.625" y2="1414.625"/><line style="stroke:#181818;stroke-width:2.0;" x1="128.5" x2="138.5" y1="1414.625" y2="1404.625"/><line style="stroke:#181818;stroke-width:1.0;" x1="133.5" x2="416.5" y1="1409.625" y2="1409.625"/><text fill="#000000" font-family="sans-serif" font-size="13" lengthAdjust="spacing" textLength="84" x="138.5" y="1404.5591">Reward failed</text><line style="stroke:#000000;stroke-width:1.0;stroke-dasharray:2.0,2.0;" x1="70" x2="723" y1="1418.625" y2="1418.625"/><text fill="#000000" font-family="sans-serif" font-size="11" font-weight="bold" lengthAdjust="spacing" textLength="97" x="75" y="1428.8354">[Rewards sent]</text><polygon fill="#181818" points="433.5,1449.5625,423.5,1453.5625,433.5,1457.5625,429.5,1453.5625" style="stroke:#181818;stroke-width:1.0;"/><line style="stroke:#181818;stroke-width:1.0;stroke-dasharray:2.0,2.0;" x1="427.5" x2="685.5" y1="1453.5625" y2="1453.5625"/><text fill="#000000" font-family="sans-serif" font-size="13" lengthAdjust="spacing" textLength="53" x="439.5" y="1448.4966">Success</text><!--SRC=[hLRTQjj85BxNKnoI6nlYhbCeWT0K75Tk34qY_9Ebr6KPIqVs47baPaPsJ2dqMVObzduVPPzapunaMx9anSkMa4GUdVETxtpdP_nUwKs47vmWzfC52WtV7O1RvZz_ad4YWcuSnHBMSwxH-U6y_ospTZJN4S8ocKRS7shspCMiqOJi2NfHl9w8He_n20Fmc9v32rmf2UgEYI0YcwRZC5_JmPbdGM2iK9u1Kv3GWxDaKdEVBnanEijWxLkLXJZlzJvUjTj5G_VfwTvQuMgrWFDsstNVjXt784Bhmyxt-e3uH82DUW5SPMStMYPu0Mn18kZ7C3kzC9OY5ZwzKdmcc4uaFJR-_ilyD2UYQPBYAwQnHDJP7XI8FA7auGPOH8fvUL9lmeZDuEO6317IAj9m7hwRNaqlwun35Yca0i8kHEl5faQX1hX2gQ4nGq51_QOr4p5HbNmsrsJXZMy_zxlWtNM6BZmyZc0uwWn6xiVhYVWKaxDWb3dCILzoWmtgYK31fgR6gQ3Rg1RQGU82vxPtm2kyXypDALBD2xEomjoZKco6Gz8QWruiJRwubJkDOlxarUcB5OjuiA-FjQYLPCsfGJE_uTRjKGnpoPIq6hhTyQ0_-d8DRjzhNLs-dOXTH5WaIiE2QNy-4MbZ7JPIsaKxQFkGrsj70omhfvn4NYn_ZlvptuBZWm6cOGeQQMGRg5cCTAYPzQ4JYIpO6762dTdhmcKfMOnE2Z4-H2X8rtaOzLi3r_lS-KATvJ9_df84dmc8HRIPY2bQ5b0GgK0_BrP6VqNhnhHLETUZmcLFjqoX9sEVkgtGNAS3TKq5GFC5GXJxpyUzyxAFjkPsdl1boUM1Rg-htma2IRJlgUD-ProFOji4dHdZeeHKg8BnW3Mv00irmIOY2sJK3sEvts3CWD4wzoJ55Lh1Z2tCkSGrau5gbk8K3lA5sYUyP4fLv7ey-RpO2yhGOvlAKhs6Ocy6kW1gt7Shl72Bl1eaNrbYPo_Ja5fIbIojB0QRIhhFAgrgfN6v1RO1q5ogbJw5OdVZ90fWYZHl__pyixmZ_p0tP_hE3fFzN5W8MqULX27TjoRsb4NiS3wFgbEu33BoAl5znA1Ee4BTXyPULPi7M2ZRQQIEz4RCXRPZ9BCTsdvfNpOhlK_hbLz5S2_5U1aO94FlZYlw7hNvdu0gjyM_6jXlN-rI_WRPLv2JuUqSf8LUgDaRXIAWbkNfLpUiRjRQKU-okc6lvL9TOFyamDDBMni-lnO6TcFMR8NZsy4zEkXrzyGkNCMkhPhCr8DAHUDv0i6Jf_E_3465hJhu9bPY8whJgpe_FCj_tZwR_-RtNm00]--></g></svg>