<?xml version="1.0" encoding="us-ascii" standalone="no"?><svg xmlns="http://www.w3.org/2000/svg" xmlns:xlink="http://www.w3.org/1999/xlink" contentStyleType="text/css" height="1457px" preserveAspectRatio="none" style="width:771px;height:1457px;background:#FFFFFF;" version="1.1" viewBox="0 0 771 1457" width="771px" zoomAndPan="magnify"><defs/><g><text fill="#000000" font-family="sans-serif" font-size="14" font-weight="bold" lengthAdjust="spacing" textLength="242" x="265.5" y="27.9951">publicStaking() Unstaking Flow</text><text fill="#000000" font-family="sans-serif" font-size="14" font-weight="bold" lengthAdjust="spacing" textLength="227" x="273" y="44.292">(Failed Path - Error Handling)</text><rect fill="#FFD700" height="1104.9453" style="stroke:#181818;stroke-width:1.0;" width="10" x="408.5" y="211.4219"/><rect fill="#00EE20" height="30" style="stroke:#181818;stroke-width:1.0;" width="10" x="672.5" y="768.7656"/><rect fill="#00EE20" height="126.3359" style="stroke:#181818;stroke-width:1.0;" width="10" x="672.5" y="926.1641"/><rect fill="#00EE20" height="126.3359" style="stroke:#181818;stroke-width:1.0;" width="10" x="672.5" y="1190.0313"/><rect fill="#F5B7B1" height="1090.8125" style="stroke:#000000;stroke-width:1.5;" width="754" x="10" y="268.5547"/><rect fill="#FFFFFF" height="1044.5469" style="stroke:none;stroke-width:1.0;" width="754" x="10" y="314.8203"/><rect fill="#F5B7B1" height="973.6094" style="stroke:#000000;stroke-width:1.5;" width="734" x="20" y="378.7578"/><rect fill="#FFFFFF" height="927.3438" style="stroke:none;stroke-width:1.0;" width="734" x="20" y="425.0234"/><rect fill="#F5B7B1" height="856.4063" style="stroke:#000000;stroke-width:1.5;" width="714" x="30" y="488.9609"/><rect fill="#FFFFFF" height="810.1406" style="stroke:none;stroke-width:1.0;" width="714" x="30" y="535.2266"/><rect fill="#FFFFFF" height="214.6016" style="stroke:#000000;stroke-width:1.5;" width="674" x="50" y="599.1641"/><rect fill="#F5B7B1" height="141.3359" style="stroke:#000000;stroke-width:1.5;" width="654" x="60" y="665.4297"/><rect fill="#FFFFFF" height="73.9375" style="stroke:none;stroke-width:1.0;" width="654" x="60" y="732.8281"/><rect fill="#F5B7B1" height="397.2031" style="stroke:#000000;stroke-width:1.5;" width="694" x="40" y="941.1641"/><rect fill="#FFFFFF" height="321.8047" style="stroke:none;stroke-width:1.0;" width="694" x="40" y="1016.5625"/><rect fill="#FFFFFF" height="221.7344" style="stroke:#000000;stroke-width:1.5;" width="674" x="50" y="1109.6328"/><rect fill="#F5B7B1" height="119.3359" style="stroke:#000000;stroke-width:1.5;" width="654" x="60" y="1205.0313"/><rect fill="#FFFFFF" height="43.9375" style="stroke:none;stroke-width:1.0;" width="654" x="60" y="1280.4297"/><line style="stroke:#181818;stroke-width:0.5;stroke-dasharray:5.0,5.0;" x1="111" x2="111" y1="134.8906" y2="1376.3672"/><line style="stroke:#181818;stroke-width:0.5;stroke-dasharray:5.0,5.0;" x1="413" x2="413" y1="134.8906" y2="1376.3672"/><line style="stroke:#181818;stroke-width:0.5;stroke-dasharray:5.0,5.0;" x1="677" x2="677" y1="134.8906" y2="1376.3672"/><text fill="#000000" font-family="sans-serif" font-size="14" lengthAdjust="spacing" textLength="77" x="70" y="131.5889">Public User</text><ellipse cx="111.5" cy="67.0938" fill="#E2E2F0" rx="8" ry="8" style="stroke:#181818;stroke-width:0.5;"/><path d="M111.5,75.0938 L111.5,102.0938 M98.5,83.0938 L124.5,83.0938 M111.5,102.0938 L98.5,117.0938 M111.5,102.0938 L124.5,117.0938 " fill="none" style="stroke:#181818;stroke-width:0.5;"/><text fill="#000000" font-family="sans-serif" font-size="14" lengthAdjust="spacing" textLength="77" x="70" y="1388.3623">Public User</text><ellipse cx="111.5" cy="1400.1641" fill="#E2E2F0" rx="8" ry="8" style="stroke:#181818;stroke-width:0.5;"/><path d="M111.5,1408.1641 L111.5,1435.1641 M98.5,1416.1641 L124.5,1416.1641 M111.5,1435.1641 L98.5,1450.1641 M111.5,1435.1641 L124.5,1450.1641 " fill="none" style="stroke:#181818;stroke-width:0.5;"/><rect fill="#FFD700" height="30.2969" rx="2.5" ry="2.5" style="stroke:#181818;stroke-width:0.5;" width="65" x="381" y="103.5938"/><text fill="#000000" font-family="sans-serif" font-size="14" lengthAdjust="spacing" textLength="51" x="388" y="123.5889">Staking</text><rect fill="#FFD700" height="30.2969" rx="2.5" ry="2.5" style="stroke:#181818;stroke-width:0.5;" width="65" x="381" y="1375.3672"/><text fill="#000000" font-family="sans-serif" font-size="14" lengthAdjust="spacing" textLength="51" x="388" y="1395.3623">Staking</text><rect fill="#00EE20" height="30.2969" rx="2.5" ry="2.5" style="stroke:#181818;stroke-width:0.5;" width="53" x="651" y="103.5938"/><text fill="#000000" font-family="sans-serif" font-size="14" lengthAdjust="spacing" textLength="39" x="658" y="123.5889">EVVM</text><rect fill="#00EE20" height="30.2969" rx="2.5" ry="2.5" style="stroke:#181818;stroke-width:0.5;" width="53" x="651" y="1375.3672"/><text fill="#000000" font-family="sans-serif" font-size="14" lengthAdjust="spacing" textLength="39" x="658" y="1395.3623">EVVM</text><rect fill="#FFD700" height="1104.9453" style="stroke:#181818;stroke-width:1.0;" width="10" x="408.5" y="211.4219"/><rect fill="#00EE20" height="30" style="stroke:#181818;stroke-width:1.0;" width="10" x="672.5" y="768.7656"/><rect fill="#00EE20" height="126.3359" style="stroke:#181818;stroke-width:1.0;" width="10" x="672.5" y="926.1641"/><rect fill="#00EE20" height="126.3359" style="stroke:#181818;stroke-width:1.0;" width="10" x="672.5" y="1190.0313"/><polygon fill="#181818" points="396.5,207.4219,406.5,211.4219,396.5,215.4219,400.5,211.4219" style="stroke:#181818;stroke-width:1.0;"/><line style="stroke:#181818;stroke-width:1.0;" x1="111.5" x2="402.5" y1="211.4219" y2="211.4219"/><text fill="#000000" font-family="sans-serif" font-size="13" lengthAdjust="spacing" textLength="90" x="118.5" y="160.9575">publicStaking(</text><text fill="#000000" font-family="sans-serif" font-size="13" lengthAdjust="spacing" textLength="259" x="126.5" y="176.0903">user, isStaking=false, amountOfStaking,</text><text fill="#000000" font-family="sans-serif" font-size="13" lengthAdjust="spacing" textLength="137" x="126.5" y="191.2231">nonce, signature, (&#183;&#183;&#183;)</text><text fill="#000000" font-family="sans-serif" font-size="13" lengthAdjust="spacing" textLength="5" x="118.5" y="206.356">)</text><line style="stroke:#181818;stroke-width:1.0;" x1="418.5" x2="460.5" y1="240.5547" y2="240.5547"/><line style="stroke:#181818;stroke-width:1.0;" x1="460.5" x2="460.5" y1="240.5547" y2="253.5547"/><line style="stroke:#181818;stroke-width:1.0;" x1="419.5" x2="460.5" y1="253.5547" y2="253.5547"/><polygon fill="#181818" points="429.5,249.5547,419.5,253.5547,429.5,257.5547,425.5,253.5547" style="stroke:#181818;stroke-width:1.0;"/><text fill="#000000" font-family="sans-serif" font-size="13" lengthAdjust="spacing" textLength="239" x="425.5" y="235.4888">Verify allowPublicStaking.flag == true</text><path d="M10,268.5547 L74,268.5547 L74,275.6875 L64,285.6875 L10,285.6875 L10,268.5547 " fill="#EEEEEE" style="stroke:#000000;stroke-width:1.5;"/><rect fill="none" height="1090.8125" style="stroke:#000000;stroke-width:1.5;" width="754" x="10" y="268.5547"/><text fill="#000000" font-family="sans-serif" font-size="13" font-weight="bold" lengthAdjust="spacing" textLength="19" x="25" y="281.6216">alt</text><text fill="#000000" font-family="sans-serif" font-size="11" font-weight="bold" lengthAdjust="spacing" textLength="219" x="89" y="280.7651">[allowPublicStaking.flag == false]</text><line style="stroke:#181818;stroke-width:2.0;" x1="118.5" x2="128.5" y1="301.8203" y2="311.8203"/><line style="stroke:#181818;stroke-width:2.0;" x1="118.5" x2="128.5" y1="311.8203" y2="301.8203"/><line style="stroke:#181818;stroke-width:1.0;" x1="123.5" x2="407.5" y1="306.8203" y2="306.8203"/><text fill="#000000" font-family="sans-serif" font-size="13" lengthAdjust="spacing" textLength="102" x="128.5" y="301.7544">Revert (generic)</text><line style="stroke:#000000;stroke-width:1.0;stroke-dasharray:2.0,2.0;" x1="10" x2="764" y1="315.8203" y2="315.8203"/><text fill="#000000" font-family="sans-serif" font-size="11" font-weight="bold" lengthAdjust="spacing" textLength="156" x="15" y="326.0308">[Public staking enabled]</text><line style="stroke:#181818;stroke-width:1.0;" x1="418.5" x2="460.5" y1="350.7578" y2="350.7578"/><line style="stroke:#181818;stroke-width:1.0;" x1="460.5" x2="460.5" y1="350.7578" y2="363.7578"/><line style="stroke:#181818;stroke-width:1.0;" x1="419.5" x2="460.5" y1="363.7578" y2="363.7578"/><polygon fill="#181818" points="429.5,359.7578,419.5,363.7578,429.5,367.7578,425.5,363.7578" style="stroke:#181818;stroke-width:1.0;"/><text fill="#000000" font-family="sans-serif" font-size="13" lengthAdjust="spacing" textLength="214" x="425.5" y="345.6919">verifyMessageSignedForStake(&#183;&#183;&#183;)</text><path d="M20,378.7578 L84,378.7578 L84,385.8906 L74,395.8906 L20,395.8906 L20,378.7578 " fill="#EEEEEE" style="stroke:#000000;stroke-width:1.5;"/><rect fill="none" height="973.6094" style="stroke:#000000;stroke-width:1.5;" width="734" x="20" y="378.7578"/><text fill="#000000" font-family="sans-serif" font-size="13" font-weight="bold" lengthAdjust="spacing" textLength="19" x="35" y="391.8247">alt</text><text fill="#000000" font-family="sans-serif" font-size="11" font-weight="bold" lengthAdjust="spacing" textLength="118" x="99" y="390.9683">[Invalid signature]</text><line style="stroke:#181818;stroke-width:2.0;" x1="118.5" x2="128.5" y1="412.0234" y2="422.0234"/><line style="stroke:#181818;stroke-width:2.0;" x1="118.5" x2="128.5" y1="422.0234" y2="412.0234"/><line style="stroke:#181818;stroke-width:1.0;" x1="123.5" x2="407.5" y1="417.0234" y2="417.0234"/><text fill="#000000" font-family="sans-serif" font-size="13" lengthAdjust="spacing" textLength="242" x="128.5" y="411.9575">Revert with InvalidSignatureOnStaking</text><line style="stroke:#000000;stroke-width:1.0;stroke-dasharray:2.0,2.0;" x1="20" x2="754" y1="426.0234" y2="426.0234"/><text fill="#000000" font-family="sans-serif" font-size="11" font-weight="bold" lengthAdjust="spacing" textLength="107" x="25" y="436.2339">[Signature valid]</text><line style="stroke:#181818;stroke-width:1.0;" x1="418.5" x2="460.5" y1="460.9609" y2="460.9609"/><line style="stroke:#181818;stroke-width:1.0;" x1="460.5" x2="460.5" y1="460.9609" y2="473.9609"/><line style="stroke:#181818;stroke-width:1.0;" x1="419.5" x2="460.5" y1="473.9609" y2="473.9609"/><polygon fill="#181818" points="429.5,469.9609,419.5,473.9609,429.5,477.9609,425.5,473.9609" style="stroke:#181818;stroke-width:1.0;"/><text fill="#000000" font-family="sans-serif" font-size="13" lengthAdjust="spacing" textLength="240" x="425.5" y="455.895">verifyAsyncNonce(user, nonce)</text><path d="M30,488.9609 L94,488.9609 L94,496.0938 L84,506.0938 L30,506.0938 L30,488.9609 " fill="#EEEEEE" style="stroke:#000000;stroke-width:1.5;"/><rect fill="none" height="856.4063" style="stroke:#000000;stroke-width:1.5;" width="714" x="30" y="488.9609"/><text fill="#000000" font-family="sans-serif" font-size="13" font-weight="bold" lengthAdjust="spacing" textLength="19" x="45" y="502.0278">alt</text><text fill="#000000" font-family="sans-serif" font-size="11" font-weight="bold" lengthAdjust="spacing" textLength="137" x="109" y="501.1714">[Nonce already used]</text><line style="stroke:#181818;stroke-width:2.0;" x1="118.5" x2="128.5" y1="522.2266" y2="532.2266"/><line style="stroke:#181818;stroke-width:2.0;" x1="118.5" x2="128.5" y1="532.2266" y2="522.2266"/><line style="stroke:#181818;stroke-width:1.0;" x1="123.5" x2="407.5" y1="527.2266" y2="527.2266"/><text fill="#000000" font-family="sans-serif" font-size="13" lengthAdjust="spacing" textLength="244" x="128.5" y="522.1606">Revert with StakingNonceAlreadyUsed</text><line style="stroke:#000000;stroke-width:1.0;stroke-dasharray:2.0,2.0;" x1="30" x2="744" y1="536.2266" y2="536.2266"/><text fill="#000000" font-family="sans-serif" font-size="11" font-weight="bold" lengthAdjust="spacing" textLength="113" x="35" y="546.437">[Nonce available]</text><line style="stroke:#181818;stroke-width:1.0;" x1="418.5" x2="460.5" y1="571.1641" y2="571.1641"/><line style="stroke:#181818;stroke-width:1.0;" x1="460.5" x2="460.5" y1="571.1641" y2="584.1641"/><line style="stroke:#181818;stroke-width:1.0;" x1="419.5" x2="460.5" y1="584.1641" y2="584.1641"/><polygon fill="#181818" points="429.5,580.1641,419.5,584.1641,429.5,588.1641,425.5,584.1641" style="stroke:#181818;stroke-width:1.0;"/><text fill="#000000" font-family="sans-serif" font-size="13" lengthAdjust="spacing" textLength="150" x="425.5" y="566.0981">stakingBaseProcess(&#183;&#183;&#183;)</text><path d="M50,599.1641 L114,599.1641 L114,606.2969 L104,616.2969 L50,616.2969 L50,599.1641 " fill="#EEEEEE" style="stroke:#000000;stroke-width:1.5;"/><rect fill="none" height="214.6016" style="stroke:#000000;stroke-width:1.5;" width="674" x="50" y="599.1641"/><text fill="#000000" font-family="sans-serif" font-size="13" font-weight="bold" lengthAdjust="spacing" textLength="19" x="65" y="612.231">alt</text><text fill="#000000" font-family="sans-serif" font-size="11" font-weight="bold" lengthAdjust="spacing" textLength="155" x="129" y="611.3745">[Full unstaking attempt]</text><line style="stroke:#181818;stroke-width:1.0;" x1="418.5" x2="460.5" y1="637.4297" y2="637.4297"/><line style="stroke:#181818;stroke-width:1.0;" x1="460.5" x2="460.5" y1="637.4297" y2="650.4297"/><line style="stroke:#181818;stroke-width:1.0;" x1="419.5" x2="460.5" y1="650.4297" y2="650.4297"/><polygon fill="#181818" points="429.5,646.4297,419.5,650.4297,429.5,654.4297,425.5,650.4297" style="stroke:#181818;stroke-width:1.0;"/><text fill="#000000" font-family="sans-serif" font-size="13" lengthAdjust="spacing" textLength="101" x="425.5" y="632.3638">Check time lock</text><path d="M60,665.4297 L124,665.4297 L124,672.5625 L114,682.5625 L60,682.5625 L60,665.4297 " fill="#EEEEEE" style="stroke:#000000;stroke-width:1.5;"/><rect fill="none" height="141.3359" style="stroke:#000000;stroke-width:1.5;" width="654" x="60" y="665.4297"/><text fill="#000000" font-family="sans-serif" font-size="13" font-weight="bold" lengthAdjust="spacing" textLength="19" x="75" y="678.4966">alt</text><text fill="#000000" font-family="sans-serif" font-size="11" font-weight="bold" lengthAdjust="spacing" textLength="148" x="139" y="677.6401">[Time lock not expired]</text><line style="stroke:#181818;stroke-width:2.0;" x1="118.5" x2="128.5" y1="709.2617" y2="719.2617"/><line style="stroke:#181818;stroke-width:2.0;" x1="118.5" x2="128.5" y1="719.2617" y2="709.2617"/><line style="stroke:#181818;stroke-width:1.0;" x1="123.5" x2="407.5" y1="714.2617" y2="714.2617"/><text fill="#000000" font-family="sans-serif" font-size="13" lengthAdjust="spacing" textLength="273" x="128.5" y="709.1958">Revert with AddressMustWaitToFullUnstake</text><path d="M423,687.5625 L423,727.5625 L613,727.5625 L613,697.5625 L603,687.5625 L423,687.5625 " fill="#FEFFDD" style="stroke:#181818;stroke-width:0.5;"/><path d="M603,687.5625 L603,697.5625 L613,697.5625 L603,687.5625 " fill="#FEFFDD" style="stroke:#181818;stroke-width:0.5;"/><text fill="#000000" font-family="sans-serif" font-size="13" lengthAdjust="spacing" textLength="137" x="429" y="704.6294">21-DAY RESTRICTION:</text><text fill="#000000" font-family="sans-serif" font-size="13" lengthAdjust="spacing" textLength="169" x="429" y="719.7622">Must wait for full unstaking</text><line style="stroke:#000000;stroke-width:1.0;stroke-dasharray:2.0,2.0;" x1="60" x2="714" y1="733.8281" y2="733.8281"/><text fill="#000000" font-family="sans-serif" font-size="11" font-weight="bold" lengthAdjust="spacing" textLength="121" x="65" y="744.0386">[Time lock passed]</text><polygon fill="#181818" points="660.5,764.7656,670.5,768.7656,660.5,772.7656,664.5,768.7656" style="stroke:#181818;stroke-width:1.0;"/><line style="stroke:#181818;stroke-width:1.0;" x1="418.5" x2="666.5" y1="768.7656" y2="768.7656"/><text fill="#000000" font-family="sans-serif" font-size="13" lengthAdjust="spacing" textLength="151" x="425.5" y="763.6997">pointStaker(user, 0x00)</text><line style="stroke:#181818;stroke-width:1.0;" x1="418.5" x2="460.5" y1="841.8984" y2="841.8984"/><line style="stroke:#181818;stroke-width:1.0;" x1="460.5" x2="460.5" y1="841.8984" y2="854.8984"/><line style="stroke:#181818;stroke-width:1.0;" x1="419.5" x2="460.5" y1="854.8984" y2="854.8984"/><polygon fill="#181818" points="429.5,850.8984,419.5,854.8984,429.5,858.8984,425.5,854.8984" style="stroke:#181818;stroke-width:1.0;"/><text fill="#000000" font-family="sans-serif" font-size="13" lengthAdjust="spacing" textLength="124" x="425.5" y="836.8325">Update userHistory</text><line style="stroke:#181818;stroke-width:1.0;" x1="418.5" x2="460.5" y1="884.0313" y2="884.0313"/><line style="stroke:#181818;stroke-width:1.0;" x1="460.5" x2="460.5" y1="884.0313" y2="897.0313"/><line style="stroke:#181818;stroke-width:1.0;" x1="419.5" x2="460.5" y1="897.0313" y2="897.0313"/><polygon fill="#181818" points="429.5,893.0313,419.5,897.0313,429.5,901.0313,425.5,897.0313" style="stroke:#181818;stroke-width:1.0;"/><text fill="#000000" font-family="sans-serif" font-size="13" lengthAdjust="spacing" textLength="98" x="425.5" y="878.9653">makeCaPay(&#183;&#183;&#183;)</text><polygon fill="#181818" points="660.5,922.1641,670.5,926.1641,660.5,930.1641,664.5,926.1641" style="stroke:#181818;stroke-width:1.0;"/><line style="stroke:#181818;stroke-width:1.0;" x1="418.5" x2="666.5" y1="926.1641" y2="926.1641"/><text fill="#000000" font-family="sans-serif" font-size="13" lengthAdjust="spacing" textLength="60" x="425.5" y="921.0981">caPay(&#183;&#183;&#183;)</text><path d="M40,941.1641 L104,941.1641 L104,948.2969 L94,958.2969 L40,958.2969 L40,941.1641 " fill="#EEEEEE" style="stroke:#000000;stroke-width:1.5;"/><rect fill="none" height="397.2031" style="stroke:#000000;stroke-width:1.5;" width="694" x="40" y="941.1641"/><text fill="#000000" font-family="sans-serif" font-size="13" font-weight="bold" lengthAdjust="spacing" textLength="19" x="55" y="954.231">alt</text><text fill="#000000" font-family="sans-serif" font-size="11" font-weight="bold" lengthAdjust="spacing" textLength="142" x="119" y="953.3745">[Refund transfer fails]</text><line style="stroke:#181818;stroke-width:2.0;" x1="425.5" x2="435.5" y1="974.4297" y2="984.4297"/><line style="stroke:#181818;stroke-width:2.0;" x1="425.5" x2="435.5" y1="984.4297" y2="974.4297"/><line style="stroke:#181818;stroke-width:1.0;" x1="430.5" x2="671.5" y1="979.4297" y2="979.4297"/><text fill="#000000" font-family="sans-serif" font-size="13" lengthAdjust="spacing" textLength="31" x="435.5" y="974.3638">Error</text><line style="stroke:#181818;stroke-width:2.0;" x1="118.5" x2="128.5" y1="1003.5625" y2="1013.5625"/><line style="stroke:#181818;stroke-width:2.0;" x1="118.5" x2="128.5" y1="1013.5625" y2="1003.5625"/><line style="stroke:#181818;stroke-width:1.0;" x1="123.5" x2="407.5" y1="1008.5625" y2="1008.5625"/><text fill="#000000" font-family="sans-serif" font-size="13" lengthAdjust="spacing" textLength="82" x="128.5" y="1003.4966">Refund failed</text><line style="stroke:#000000;stroke-width:1.0;stroke-dasharray:2.0,2.0;" x1="40" x2="734" y1="1017.5625" y2="1017.5625"/><text fill="#000000" font-family="sans-serif" font-size="11" font-weight="bold" lengthAdjust="spacing" textLength="119" x="45" y="1027.7729">[Refund succeeds]</text><polygon fill="#181818" points="429.5,1048.5,419.5,1052.5,429.5,1056.5,425.5,1052.5" style="stroke:#181818;stroke-width:1.0;"/><line style="stroke:#181818;stroke-width:1.0;stroke-dasharray:2.0,2.0;" x1="423.5" x2="676.5" y1="1052.5" y2="1052.5"/><text fill="#000000" font-family="sans-serif" font-size="13" lengthAdjust="spacing" textLength="53" x="435.5" y="1047.4341">Success</text><line style="stroke:#181818;stroke-width:1.0;" x1="418.5" x2="460.5" y1="1081.6328" y2="1081.6328"/><line style="stroke:#181818;stroke-width:1.0;" x1="460.5" x2="460.5" y1="1081.6328" y2="1094.6328"/><line style="stroke:#181818;stroke-width:1.0;" x1="419.5" x2="460.5" y1="1094.6328" y2="1094.6328"/><polygon fill="#181818" points="429.5,1090.6328,419.5,1094.6328,429.5,1098.6328,425.5,1094.6328" style="stroke:#181818;stroke-width:1.0;"/><text fill="#000000" font-family="sans-serif" font-size="13" lengthAdjust="spacing" textLength="219" x="425.5" y="1076.5669">markAsyncNonceAsUsed(user, nonce)</text><path d="M50,1109.6328 L114,1109.6328 L114,1116.7656 L104,1126.7656 L50,1126.7656 L50,1109.6328 " fill="#EEEEEE" style="stroke:#000000;stroke-width:1.5;"/><rect fill="none" height="221.7344" style="stroke:#000000;stroke-width:1.5;" width="674" x="50" y="1109.6328"/><text fill="#000000" font-family="sans-serif" font-size="13" font-weight="bold" lengthAdjust="spacing" textLength="19" x="65" y="1122.6997">alt</text><text fill="#000000" font-family="sans-serif" font-size="11" font-weight="bold" lengthAdjust="spacing" textLength="143" x="129" y="1121.8433">[msg.sender is staker]</text><line style="stroke:#181818;stroke-width:1.0;" x1="418.5" x2="460.5" y1="1147.8984" y2="1147.8984"/><line style="stroke:#181818;stroke-width:1.0;" x1="460.5" x2="460.5" y1="1147.8984" y2="1160.8984"/><line style="stroke:#181818;stroke-width:1.0;" x1="419.5" x2="460.5" y1="1160.8984" y2="1160.8984"/><polygon fill="#181818" points="429.5,1156.8984,419.5,1160.8984,429.5,1164.8984,425.5,1160.8984" style="stroke:#181818;stroke-width:1.0;"/><text fill="#000000" font-family="sans-serif" font-size="13" lengthAdjust="spacing" textLength="98" x="425.5" y="1142.8325">makeCaPay(&#183;&#183;&#183;)</text><polygon fill="#181818" points="660.5,1186.0313,670.5,1190.0313,660.5,1194.0313,664.5,1190.0313" style="stroke:#181818;stroke-width:1.0;"/><line style="stroke:#181818;stroke-width:1.0;" x1="418.5" x2="666.5" y1="1190.0313" y2="1190.0313"/><text fill="#000000" font-family="sans-serif" font-size="13" lengthAdjust="spacing" textLength="60" x="425.5" y="1184.9653">caPay(&#183;&#183;&#183;)</text><path d="M60,1205.0313 L124,1205.0313 L124,1212.1641 L114,1222.1641 L60,1222.1641 L60,1205.0313 " fill="#EEEEEE" style="stroke:#000000;stroke-width:1.5;"/><rect fill="none" height="119.3359" style="stroke:#000000;stroke-width:1.5;" width="654" x="60" y="1205.0313"/><text fill="#000000" font-family="sans-serif" font-size="13" font-weight="bold" lengthAdjust="spacing" textLength="19" x="75" y="1218.0981">alt</text><text fill="#000000" font-family="sans-serif" font-size="11" font-weight="bold" lengthAdjust="spacing" textLength="90" x="139" y="1217.2417">[Reward fails]</text><line style="stroke:#181818;stroke-width:2.0;" x1="425.5" x2="435.5" y1="1238.2969" y2="1248.2969"/><line style="stroke:#181818;stroke-width:2.0;" x1="425.5" x2="435.5" y1="1248.2969" y2="1238.2969"/><line style="stroke:#181818;stroke-width:1.0;" x1="430.5" x2="671.5" y1="1243.2969" y2="1243.2969"/><text fill="#000000" font-family="sans-serif" font-size="13" lengthAdjust="spacing" textLength="31" x="435.5" y="1238.231">Error</text><line style="stroke:#181818;stroke-width:2.0;" x1="118.5" x2="128.5" y1="1267.4297" y2="1277.4297"/><line style="stroke:#181818;stroke-width:2.0;" x1="118.5" x2="128.5" y1="1277.4297" y2="1267.4297"/><line style="stroke:#181818;stroke-width:1.0;" x1="123.5" x2="407.5" y1="1272.4297" y2="1272.4297"/><text fill="#000000" font-family="sans-serif" font-size="13" lengthAdjust="spacing" textLength="84" x="128.5" y="1267.3638">Reward failed</text><line style="stroke:#000000;stroke-width:1.0;stroke-dasharray:2.0,2.0;" x1="60" x2="714" y1="1281.4297" y2="1281.4297"/><text fill="#000000" font-family="sans-serif" font-size="11" font-weight="bold" lengthAdjust="spacing" textLength="97" x="65" y="1291.6401">[Rewards sent]</text><polygon fill="#181818" points="424.5,1312.3672,414.5,1316.3672,424.5,1320.3672,420.5,1316.3672" style="stroke:#181818;stroke-width:1.0;"/><line style="stroke:#181818;stroke-width:1.0;stroke-dasharray:2.0,2.0;" x1="418.5" x2="676.5" y1="1316.3672" y2="1316.3672"/><text fill="#000000" font-family="sans-serif" font-size="13" lengthAdjust="spacing" textLength="53" x="430.5" y="1311.3013">Success</text><!--SRC=[bLPTJ-9057sVNt6ZBv28YoOR4wCcYh3we190DnlrOMXlOKAPafafI3Rxk_PzVzdUcPRQKZvg231Cp_quzvwvmuKson2lc1zvyHIbWTyCu8PxanygYgNVYi98mM8i3B8_xE9RYcP6c11X5Wz3uVKDdmWvgjNXMUfa3PqmMhp9MeUB47teSZE61hIL8cTtNFeXOUgCSS_Gna7NkO5dZUe0k8QO5cp6bH6Uc77AwI0DuPwkGXnsEhTdpMOHs7vvUN0edC-dSDXijjkdJSQiHsXSPRRdQwc_IN1HZq3eTEyouA768-1JgeDv2jBj8mkLaVJeaHOZoKsiQ5dxzzU-wc-oRbc9EJTOofIjDWgPlA0ImH9uI2NhvhCw3a8-WijBC2f6AbPeu33uFZmRdkm2kxIfXv25Q7muRXIgXtDK1ceZb1JKgpiOGpA0GzTZI5knCaN9XzH0LlINptxkidz0hVa8-rGGz3kHiadXgYP95FkHft0lvpmK_cSH7M9dtWj1Cahj-Ykp9vbM8BDtYpof30lEb9KZvHbvO_GczwxV-6WRJRhqQuawNEFhnKZhn9mDxIZa_j8oy3FOVdOf5-VZEd7nlEuX-v7dc4QTqu6pBIkdk9LlkhhX6higygYJMUCAnevZ4gmJXo74sM7dnk1qPWhehU5QjhnWn1GXZBn9oQYqaQ_jO6L6dJ207pEXrefJhSpNlg-8w4EipKykp22oZ9BfXHlTKJW49KPZGvvEJngtrx-Wr-uFUlUjmVtJu_cRjBvWGSuWe9aM52gqqMLfCz_EJw8phlK-ZbV9kAEf5Wbfd79LgjZcHxDPtsYTZQd2gDo4zB60BISkY_dPt_jrzppphKURvftGT14iAnXDYLgBT_boiqRB5V4AuA_nPzjasCE0xaQQorpgWCGLqAdJvR9OlwI_p-pT1SYgIDNv3zpjoRPf94NfsFCG_Mtn2-NhMwmkG_TrkDhHrhdXzMgflB-wWVaEwHrMxQmdxAPwTAn9ILGGaLpwgFQTWbqwgNG4lwgXhv-bpUO5RIsuyhT8wglIsYMnBCoMwLAKcaLJ6-WVufwaAkcjgkusu7QDrFL1j6quhQ_jjtt_1m00]--></g></svg>