<?xml version="1.0" encoding="us-ascii" standalone="no"?><svg xmlns="http://www.w3.org/2000/svg" xmlns:xlink="http://www.w3.org/1999/xlink" contentStyleType="text/css" height="1591px" preserveAspectRatio="none" style="width:989px;height:1591px;background:#FFFFFF;" version="1.1" viewBox="0 0 989 1591" width="989px" zoomAndPan="magnify"><defs/><g><text fill="#000000" font-family="sans-serif" font-size="14" font-weight="bold" lengthAdjust="spacing" textLength="301" x="345" y="27.9951">addCustomMetadata Transaction Flow</text><text fill="#000000" font-family="sans-serif" font-size="14" font-weight="bold" lengthAdjust="spacing" textLength="227" x="382" y="44.292">(Failed Path - Error Handling)</text><rect fill="#00CEEE" height="1334.9453" style="stroke:#181818;stroke-width:1.0;" width="10" x="355" y="166.0234"/><rect fill="#00EE20" height="283.8047" style="stroke:#181818;stroke-width:1.0;" width="10" x="720" y="762.7656"/><rect fill="#00EE20" height="160.4688" style="stroke:#181818;stroke-width:1.0;" width="10" x="720" y="1164.1016"/><rect fill="#F5B7B1" height="1270.8125" style="stroke:#000000;stroke-width:1.5;" width="972" x="10" y="223.1563"/><rect fill="#FFFFFF" height="1209.4141" style="stroke:none;stroke-width:1.0;" width="972" x="10" y="284.5547"/><rect fill="#F5B7B1" height="1138.4766" style="stroke:#000000;stroke-width:1.5;" width="952" x="20" y="348.4922"/><rect fill="#FFFFFF" height="1077.0781" style="stroke:none;stroke-width:1.0;" width="952" x="20" y="409.8906"/><rect fill="#F5B7B1" height="1006.1406" style="stroke:#000000;stroke-width:1.5;" width="932" x="30" y="473.8281"/><rect fill="#FFFFFF" height="944.7422" style="stroke:none;stroke-width:1.0;" width="932" x="30" y="535.2266"/><rect fill="#F5B7B1" height="873.8047" style="stroke:#000000;stroke-width:1.5;" width="912" x="40" y="599.1641"/><rect fill="#FFFFFF" height="812.4063" style="stroke:none;stroke-width:1.0;" width="912" x="40" y="660.5625"/><rect fill="#FFFFFF" height="90.2031" style="stroke:#000000;stroke-width:1.5;" width="463.5" x="298" y="724.5"/><rect fill="#FFFFFF" height="43.9375" style="stroke:none;stroke-width:1.0;" width="463.5" x="298" y="770.7656"/><rect fill="#F5B7B1" height="183.7344" style="stroke:#000000;stroke-width:1.5;" width="863" x="60" y="870.8359"/><rect fill="#FFFFFF" height="86.0703" style="stroke:none;stroke-width:1.0;" width="863" x="60" y="968.5"/><rect fill="#FFFFFF" height="271" style="stroke:#000000;stroke-width:1.5;" width="892" x="50" y="1068.5703"/><rect fill="#F5B7B1" height="153.4688" style="stroke:#000000;stroke-width:1.5;" width="872" x="60" y="1179.1016"/><rect fill="#FFFFFF" height="86.0703" style="stroke:none;stroke-width:1.0;" width="872" x="60" y="1246.5"/><line style="stroke:#181818;stroke-width:0.5;stroke-dasharray:5.0,5.0;" x1="125" x2="125" y1="134.8906" y2="1510.9688"/><line style="stroke:#181818;stroke-width:0.5;stroke-dasharray:5.0,5.0;" x1="360" x2="360" y1="134.8906" y2="1510.9688"/><line style="stroke:#181818;stroke-width:0.5;stroke-dasharray:5.0,5.0;" x1="724.5" x2="724.5" y1="134.8906" y2="1510.9688"/><text fill="#000000" font-family="sans-serif" font-size="14" lengthAdjust="spacing" textLength="104" x="70" y="131.5889">User or Service</text><ellipse cx="125" cy="67.0938" fill="#E2E2F0" rx="8" ry="8" style="stroke:#181818;stroke-width:0.5;"/><path d="M125,75.0938 L125,102.0938 M112,83.0938 L138,83.0938 M125,102.0938 L112,117.0938 M125,102.0938 L138,117.0938 " fill="none" style="stroke:#181818;stroke-width:0.5;"/><text fill="#000000" font-family="sans-serif" font-size="14" lengthAdjust="spacing" textLength="104" x="70" y="1522.9639">User or Service</text><ellipse cx="125" cy="1534.7656" fill="#E2E2F0" rx="8" ry="8" style="stroke:#181818;stroke-width:0.5;"/><path d="M125,1542.7656 L125,1569.7656 M112,1550.7656 L138,1550.7656 M125,1569.7656 L112,1584.7656 M125,1569.7656 L138,1584.7656 " fill="none" style="stroke:#181818;stroke-width:0.5;"/><rect fill="#00CEEE" height="30.2969" rx="2.5" ry="2.5" style="stroke:#181818;stroke-width:0.5;" width="104" x="308" y="103.5938"/><text fill="#000000" font-family="sans-serif" font-size="14" lengthAdjust="spacing" textLength="90" x="315" y="123.5889">NameService</text><rect fill="#00CEEE" height="30.2969" rx="2.5" ry="2.5" style="stroke:#181818;stroke-width:0.5;" width="104" x="308" y="1509.9688"/><text fill="#000000" font-family="sans-serif" font-size="14" lengthAdjust="spacing" textLength="90" x="315" y="1529.9639">NameService</text><rect fill="#00EE20" height="30.2969" rx="2.5" ry="2.5" style="stroke:#181818;stroke-width:0.5;" width="53" x="698.5" y="103.5938"/><text fill="#000000" font-family="sans-serif" font-size="14" lengthAdjust="spacing" textLength="39" x="705.5" y="123.5889">EVVM</text><rect fill="#00EE20" height="30.2969" rx="2.5" ry="2.5" style="stroke:#181818;stroke-width:0.5;" width="53" x="698.5" y="1509.9688"/><text fill="#000000" font-family="sans-serif" font-size="14" lengthAdjust="spacing" textLength="39" x="705.5" y="1529.9639">EVVM</text><rect fill="#00CEEE" height="1334.9453" style="stroke:#181818;stroke-width:1.0;" width="10" x="355" y="166.0234"/><rect fill="#00EE20" height="283.8047" style="stroke:#181818;stroke-width:1.0;" width="10" x="720" y="762.7656"/><rect fill="#00EE20" height="160.4688" style="stroke:#181818;stroke-width:1.0;" width="10" x="720" y="1164.1016"/><polygon fill="#181818" points="343,162.0234,353,166.0234,343,170.0234,347,166.0234" style="stroke:#181818;stroke-width:1.0;"/><line style="stroke:#181818;stroke-width:1.0;" x1="125" x2="349" y1="166.0234" y2="166.0234"/><text fill="#000000" font-family="sans-serif" font-size="13" lengthAdjust="spacing" textLength="157" x="132" y="160.9575">addCustomMetadata(&#183;&#183;&#183;)</text><line style="stroke:#181818;stroke-width:1.0;" x1="365" x2="407" y1="195.1563" y2="195.1563"/><line style="stroke:#181818;stroke-width:1.0;" x1="407" x2="407" y1="195.1563" y2="208.1563"/><line style="stroke:#181818;stroke-width:1.0;" x1="366" x2="407" y1="208.1563" y2="208.1563"/><polygon fill="#181818" points="376,204.1563,366,208.1563,376,212.1563,372,208.1563" style="stroke:#181818;stroke-width:1.0;"/><text fill="#000000" font-family="sans-serif" font-size="13" lengthAdjust="spacing" textLength="149" x="372" y="190.0903">onlyOwnerOfIdentity(&#183;&#183;&#183;)</text><path d="M10,223.1563 L74,223.1563 L74,230.2891 L64,240.2891 L10,240.2891 L10,223.1563 " fill="#EEEEEE" style="stroke:#000000;stroke-width:1.5;"/><rect fill="none" height="1270.8125" style="stroke:#000000;stroke-width:1.5;" width="972" x="10" y="223.1563"/><text fill="#000000" font-family="sans-serif" font-size="13" font-weight="bold" lengthAdjust="spacing" textLength="19" x="25" y="236.2231">alt</text><text fill="#000000" font-family="sans-serif" font-size="11" font-weight="bold" lengthAdjust="spacing" textLength="208" x="89" y="235.3667">[User does not own the identity]</text><line style="stroke:#181818;stroke-width:2.0;" x1="132" x2="142" y1="271.5547" y2="281.5547"/><line style="stroke:#181818;stroke-width:2.0;" x1="132" x2="142" y1="281.5547" y2="271.5547"/><line style="stroke:#181818;stroke-width:1.0;" x1="137" x2="354" y1="276.5547" y2="276.5547"/><text fill="#000000" font-family="sans-serif" font-size="13" lengthAdjust="spacing" textLength="70" x="142" y="256.356">Revert with</text><text fill="#000000" font-family="sans-serif" font-size="13" lengthAdjust="spacing" textLength="124" x="142" y="271.4888">NotOwnerOfIdentity</text><line style="stroke:#000000;stroke-width:1.0;stroke-dasharray:2.0,2.0;" x1="10" x2="982" y1="285.5547" y2="285.5547"/><text fill="#000000" font-family="sans-serif" font-size="11" font-weight="bold" lengthAdjust="spacing" textLength="155" x="15" y="295.7651">[User owns the identity]</text><line style="stroke:#181818;stroke-width:1.0;" x1="365" x2="407" y1="320.4922" y2="320.4922"/><line style="stroke:#181818;stroke-width:1.0;" x1="407" x2="407" y1="320.4922" y2="333.4922"/><line style="stroke:#181818;stroke-width:1.0;" x1="366" x2="407" y1="333.4922" y2="333.4922"/><polygon fill="#181818" points="376,329.4922,366,333.4922,376,337.4922,372,333.4922" style="stroke:#181818;stroke-width:1.0;"/><text fill="#000000" font-family="sans-serif" font-size="13" lengthAdjust="spacing" textLength="171" x="372" y="315.4263">verifyAsyncNonce(user, nonce)</text><path d="M20,348.4922 L84,348.4922 L84,355.625 L74,365.625 L20,365.625 L20,348.4922 " fill="#EEEEEE" style="stroke:#000000;stroke-width:1.5;"/><rect fill="none" height="1138.4766" style="stroke:#000000;stroke-width:1.5;" width="952" x="20" y="348.4922"/><text fill="#000000" font-family="sans-serif" font-size="13" font-weight="bold" lengthAdjust="spacing" textLength="19" x="35" y="361.5591">alt</text><text fill="#000000" font-family="sans-serif" font-size="11" font-weight="bold" lengthAdjust="spacing" textLength="271" x="99" y="360.7026">[nameServiceNonce[user][nonce] == true]</text><line style="stroke:#181818;stroke-width:2.0;" x1="132" x2="142" y1="396.8906" y2="406.8906"/><line style="stroke:#181818;stroke-width:2.0;" x1="132" x2="142" y1="406.8906" y2="396.8906"/><line style="stroke:#181818;stroke-width:1.0;" x1="137" x2="354" y1="401.8906" y2="401.8906"/><text fill="#000000" font-family="sans-serif" font-size="13" lengthAdjust="spacing" textLength="70" x="142" y="381.6919">Revert with</text><text fill="#000000" font-family="sans-serif" font-size="13" lengthAdjust="spacing" textLength="122" x="142" y="396.8247">NonceAlreadyUsed</text><line style="stroke:#000000;stroke-width:1.0;stroke-dasharray:2.0,2.0;" x1="20" x2="972" y1="410.8906" y2="410.8906"/><text fill="#000000" font-family="sans-serif" font-size="11" font-weight="bold" lengthAdjust="spacing" textLength="128" x="25" y="421.1011">[Nonce is available]</text><line style="stroke:#181818;stroke-width:1.0;" x1="365" x2="407" y1="445.8281" y2="445.8281"/><line style="stroke:#181818;stroke-width:1.0;" x1="407" x2="407" y1="445.8281" y2="458.8281"/><line style="stroke:#181818;stroke-width:1.0;" x1="366" x2="407" y1="458.8281" y2="458.8281"/><polygon fill="#181818" points="376,454.8281,366,458.8281,376,462.8281,372,458.8281" style="stroke:#181818;stroke-width:1.0;"/><text fill="#000000" font-family="sans-serif" font-size="13" lengthAdjust="spacing" textLength="188" x="372" y="440.7622">verify bytes(value).length &gt; 0</text><path d="M30,473.8281 L94,473.8281 L94,480.9609 L84,490.9609 L30,490.9609 L30,473.8281 " fill="#EEEEEE" style="stroke:#000000;stroke-width:1.5;"/><rect fill="none" height="1006.1406" style="stroke:#000000;stroke-width:1.5;" width="932" x="30" y="473.8281"/><text fill="#000000" font-family="sans-serif" font-size="13" font-weight="bold" lengthAdjust="spacing" textLength="19" x="45" y="486.895">alt</text><text fill="#000000" font-family="sans-serif" font-size="11" font-weight="bold" lengthAdjust="spacing" textLength="144" x="109" y="486.0386">[value is empty string]</text><line style="stroke:#181818;stroke-width:2.0;" x1="132" x2="142" y1="522.2266" y2="532.2266"/><line style="stroke:#181818;stroke-width:2.0;" x1="132" x2="142" y1="532.2266" y2="522.2266"/><line style="stroke:#181818;stroke-width:1.0;" x1="137" x2="354" y1="527.2266" y2="527.2266"/><text fill="#000000" font-family="sans-serif" font-size="13" lengthAdjust="spacing" textLength="70" x="142" y="507.0278">Revert with</text><text fill="#000000" font-family="sans-serif" font-size="13" lengthAdjust="spacing" textLength="152" x="142" y="522.1606">EmptyCustomMetadata</text><line style="stroke:#000000;stroke-width:1.0;stroke-dasharray:2.0,2.0;" x1="30" x2="962" y1="536.2266" y2="536.2266"/><text fill="#000000" font-family="sans-serif" font-size="11" font-weight="bold" lengthAdjust="spacing" textLength="129" x="35" y="546.437">[Value is not empty]</text><line style="stroke:#181818;stroke-width:1.0;" x1="365" x2="407" y1="571.1641" y2="571.1641"/><line style="stroke:#181818;stroke-width:1.0;" x1="407" x2="407" y1="571.1641" y2="584.1641"/><line style="stroke:#181818;stroke-width:1.0;" x1="366" x2="407" y1="584.1641" y2="584.1641"/><polygon fill="#181818" points="376,580.1641,366,584.1641,376,588.1641,372,584.1641" style="stroke:#181818;stroke-width:1.0;"/><text fill="#000000" font-family="sans-serif" font-size="13" lengthAdjust="spacing" textLength="313" x="372" y="566.0981">verifyMessageSignedForAddCustomMetadata(&#183;&#183;&#183;)</text><path d="M40,599.1641 L104,599.1641 L104,606.2969 L94,616.2969 L40,616.2969 L40,599.1641 " fill="#EEEEEE" style="stroke:#000000;stroke-width:1.5;"/><rect fill="none" height="873.8047" style="stroke:#000000;stroke-width:1.5;" width="912" x="40" y="599.1641"/><text fill="#000000" font-family="sans-serif" font-size="13" font-weight="bold" lengthAdjust="spacing" textLength="19" x="55" y="612.231">alt</text><text fill="#000000" font-family="sans-serif" font-size="11" font-weight="bold" lengthAdjust="spacing" textLength="181" x="119" y="611.3745">[Signature verification fails]</text><line style="stroke:#181818;stroke-width:2.0;" x1="132" x2="142" y1="647.5625" y2="657.5625"/><line style="stroke:#181818;stroke-width:2.0;" x1="132" x2="142" y1="657.5625" y2="647.5625"/><line style="stroke:#181818;stroke-width:1.0;" x1="137" x2="354" y1="652.5625" y2="652.5625"/><text fill="#000000" font-family="sans-serif" font-size="13" lengthAdjust="spacing" textLength="70" x="142" y="632.3638">Revert with</text><text fill="#000000" font-family="sans-serif" font-size="13" lengthAdjust="spacing" textLength="206" x="142" y="647.4966">InvalidSignatureOnNameService</text><line style="stroke:#000000;stroke-width:1.0;stroke-dasharray:2.0,2.0;" x1="40" x2="952" y1="661.5625" y2="661.5625"/><text fill="#000000" font-family="sans-serif" font-size="11" font-weight="bold" lengthAdjust="spacing" textLength="122" x="45" y="671.7729">[Signature is valid]</text><line style="stroke:#181818;stroke-width:1.0;" x1="365" x2="407" y1="696.5" y2="696.5"/><line style="stroke:#181818;stroke-width:1.0;" x1="407" x2="407" y1="696.5" y2="709.5"/><line style="stroke:#181818;stroke-width:1.0;" x1="366" x2="407" y1="709.5" y2="709.5"/><polygon fill="#181818" points="376,705.5,366,709.5,376,713.5,372,709.5" style="stroke:#181818;stroke-width:1.0;"/><text fill="#000000" font-family="sans-serif" font-size="13" lengthAdjust="spacing" textLength="322" x="372" y="691.4341">makePay(&#183;&#183;&#183;, getPriceToAddCustomMetadata(), &#183;&#183;&#183;)</text><path d="M298,724.5 L362,724.5 L362,731.6328 L352,741.6328 L298,741.6328 L298,724.5 " fill="#EEEEEE" style="stroke:#000000;stroke-width:1.5;"/><rect fill="none" height="90.2031" style="stroke:#000000;stroke-width:1.5;" width="463.5" x="298" y="724.5"/><text fill="#000000" font-family="sans-serif" font-size="13" font-weight="bold" lengthAdjust="spacing" textLength="19" x="313" y="737.5669">alt</text><text fill="#000000" font-family="sans-serif" font-size="11" font-weight="bold" lengthAdjust="spacing" textLength="177" x="377" y="736.7104">[priorityFlag_EVVM == true]</text><polygon fill="#181818" points="708,758.7656,718,762.7656,708,766.7656,712,762.7656" style="stroke:#181818;stroke-width:1.0;"/><line style="stroke:#181818;stroke-width:1.0;" x1="365" x2="714" y1="762.7656" y2="762.7656"/><text fill="#000000" font-family="sans-serif" font-size="13" lengthAdjust="spacing" textLength="131" x="372" y="757.6997">payStaker_async(&#183;&#183;&#183;)</text><line style="stroke:#000000;stroke-width:1.0;stroke-dasharray:2.0,2.0;" x1="298" x2="761.5" y1="771.7656" y2="771.7656"/><text fill="#000000" font-family="sans-serif" font-size="11" font-weight="bold" lengthAdjust="spacing" textLength="183" x="303" y="781.9761">[priorityFlag_EVVM == false]</text><polygon fill="#181818" points="708,802.7031,718,806.7031,708,810.7031,712,806.7031" style="stroke:#181818;stroke-width:1.0;"/><line style="stroke:#181818;stroke-width:1.0;" x1="365" x2="714" y1="806.7031" y2="806.7031"/><text fill="#000000" font-family="sans-serif" font-size="13" lengthAdjust="spacing" textLength="123" x="372" y="801.6372">payStaker_sync(&#183;&#183;&#183;)</text><line style="stroke:#181818;stroke-width:1.0;" x1="730" x2="772" y1="842.8359" y2="842.8359"/><line style="stroke:#181818;stroke-width:1.0;" x1="772" x2="772" y1="842.8359" y2="855.8359"/><line style="stroke:#181818;stroke-width:1.0;" x1="731" x2="772" y1="855.8359" y2="855.8359"/><polygon fill="#181818" points="741,851.8359,731,855.8359,741,859.8359,737,855.8359" style="stroke:#181818;stroke-width:1.0;"/><text fill="#000000" font-family="sans-serif" font-size="13" lengthAdjust="spacing" textLength="140" x="737" y="837.77">Verify payment inputs</text><path d="M60,870.8359 L124,870.8359 L124,877.9688 L114,887.9688 L60,887.9688 L60,870.8359 " fill="#EEEEEE" style="stroke:#000000;stroke-width:1.5;"/><rect fill="none" height="183.7344" style="stroke:#000000;stroke-width:1.5;" width="863" x="60" y="870.8359"/><text fill="#000000" font-family="sans-serif" font-size="13" font-weight="bold" lengthAdjust="spacing" textLength="19" x="75" y="883.9028">alt</text><text fill="#000000" font-family="sans-serif" font-size="11" font-weight="bold" lengthAdjust="spacing" textLength="174" x="139" y="883.0464">[Payment verification fails]</text><line style="stroke:#181818;stroke-width:2.0;" x1="132" x2="142" y1="937.3672" y2="947.3672"/><line style="stroke:#181818;stroke-width:2.0;" x1="132" x2="142" y1="947.3672" y2="937.3672"/><line style="stroke:#181818;stroke-width:1.0;" x1="137" x2="719" y1="942.3672" y2="942.3672"/><text fill="#000000" font-family="sans-serif" font-size="13" lengthAdjust="spacing" textLength="70" x="142" y="922.1685">Revert with</text><text fill="#000000" font-family="sans-serif" font-size="13" lengthAdjust="spacing" textLength="92" x="142" y="937.3013">payment error</text><path d="M735,892.9688 L735,962.9688 L913,962.9688 L913,902.9688 L903,892.9688 L735,892.9688 " fill="#FEFFDD" style="stroke:#181818;stroke-width:0.5;"/><path d="M903,892.9688 L903,902.9688 L913,902.9688 L903,892.9688 " fill="#FEFFDD" style="stroke:#181818;stroke-width:0.5;"/><text fill="#000000" font-family="sans-serif" font-size="13" lengthAdjust="spacing" textLength="60" x="741" y="910.0356">Could be:</text><text fill="#000000" font-family="sans-serif" font-size="13" lengthAdjust="spacing" textLength="134" x="741" y="925.1685">&#8226; Insufficient balance</text><text fill="#000000" font-family="sans-serif" font-size="13" lengthAdjust="spacing" textLength="136" x="741" y="940.3013">&#8226; Invalid EVVM nonce</text><text fill="#000000" font-family="sans-serif" font-size="13" lengthAdjust="spacing" textLength="157" x="741" y="955.4341">&#8226; Invalid EVVM signature</text><line style="stroke:#000000;stroke-width:1.0;stroke-dasharray:2.0,2.0;" x1="60" x2="923" y1="969.5" y2="969.5"/><text fill="#000000" font-family="sans-serif" font-size="11" font-weight="bold" lengthAdjust="spacing" textLength="129" x="65" y="979.7104">[Payment succeeds]</text><line style="stroke:#181818;stroke-width:1.0;" x1="730" x2="772" y1="1004.4375" y2="1004.4375"/><line style="stroke:#181818;stroke-width:1.0;" x1="772" x2="772" y1="1004.4375" y2="1017.4375"/><line style="stroke:#181818;stroke-width:1.0;" x1="731" x2="772" y1="1017.4375" y2="1017.4375"/><polygon fill="#181818" points="741,1013.4375,731,1017.4375,741,1021.4375,737,1017.4375" style="stroke:#181818;stroke-width:1.0;"/><text fill="#000000" font-family="sans-serif" font-size="13" lengthAdjust="spacing" textLength="108" x="737" y="999.3716">Update balances</text><polygon fill="#181818" points="376,1042.5703,366,1046.5703,376,1050.5703,372,1046.5703" style="stroke:#181818;stroke-width:1.0;"/><line style="stroke:#181818;stroke-width:1.0;" x1="370" x2="724" y1="1046.5703" y2="1046.5703"/><text fill="#000000" font-family="sans-serif" font-size="13" lengthAdjust="spacing" textLength="127" x="382" y="1041.5044">Payment processed</text><path d="M50,1068.5703 L114,1068.5703 L114,1075.7031 L104,1085.7031 L50,1085.7031 L50,1068.5703 " fill="#EEEEEE" style="stroke:#000000;stroke-width:1.5;"/><rect fill="none" height="271" style="stroke:#000000;stroke-width:1.5;" width="892" x="50" y="1068.5703"/><text fill="#000000" font-family="sans-serif" font-size="13" font-weight="bold" lengthAdjust="spacing" textLength="19" x="65" y="1081.6372">alt</text><text fill="#000000" font-family="sans-serif" font-size="11" font-weight="bold" lengthAdjust="spacing" textLength="197" x="129" y="1080.7808">[isAddressStaker(msg.sender)]</text><line style="stroke:#181818;stroke-width:1.0;" x1="365" x2="407" y1="1121.9688" y2="1121.9688"/><line style="stroke:#181818;stroke-width:1.0;" x1="407" x2="407" y1="1121.9688" y2="1134.9688"/><line style="stroke:#181818;stroke-width:1.0;" x1="366" x2="407" y1="1134.9688" y2="1134.9688"/><polygon fill="#181818" points="376,1130.9688,366,1134.9688,376,1138.9688,372,1134.9688" style="stroke:#181818;stroke-width:1.0;"/><text fill="#000000" font-family="sans-serif" font-size="13" lengthAdjust="spacing" textLength="161" x="372" y="1101.77">makeCaPay(msg.sender,</text><text fill="#000000" font-family="sans-serif" font-size="13" lengthAdjust="spacing" textLength="313" x="372" y="1116.9028">5x reward + 50% fee refund + priorityFee_EVVM)</text><polygon fill="#181818" points="708,1160.1016,718,1164.1016,708,1168.1016,712,1164.1016" style="stroke:#181818;stroke-width:1.0;"/><line style="stroke:#181818;stroke-width:1.0;" x1="365" x2="714" y1="1164.1016" y2="1164.1016"/><text fill="#000000" font-family="sans-serif" font-size="13" lengthAdjust="spacing" textLength="60" x="372" y="1159.0356">caPay(&#183;&#183;&#183;)</text><path d="M60,1179.1016 L124,1179.1016 L124,1186.2344 L114,1196.2344 L60,1196.2344 L60,1179.1016 " fill="#EEEEEE" style="stroke:#000000;stroke-width:1.5;"/><rect fill="none" height="153.4688" style="stroke:#000000;stroke-width:1.5;" width="872" x="60" y="1179.1016"/><text fill="#000000" font-family="sans-serif" font-size="13" font-weight="bold" lengthAdjust="spacing" textLength="19" x="75" y="1192.1685">alt</text><text fill="#000000" font-family="sans-serif" font-size="11" font-weight="bold" lengthAdjust="spacing" textLength="80" x="139" y="1191.312">[caPay fails]</text><line style="stroke:#181818;stroke-width:2.0;" x1="132" x2="142" y1="1230.5" y2="1240.5"/><line style="stroke:#181818;stroke-width:2.0;" x1="132" x2="142" y1="1240.5" y2="1230.5"/><line style="stroke:#181818;stroke-width:1.0;" x1="137" x2="719" y1="1235.5" y2="1235.5"/><text fill="#000000" font-family="sans-serif" font-size="13" lengthAdjust="spacing" textLength="70" x="142" y="1215.3013">Revert with</text><text fill="#000000" font-family="sans-serif" font-size="13" lengthAdjust="spacing" textLength="73" x="142" y="1230.4341">caPay error</text><path d="M735,1201.2344 L735,1241.2344 L909,1241.2344 L909,1211.2344 L899,1201.2344 L735,1201.2344 " fill="#FEFFDD" style="stroke:#181818;stroke-width:0.5;"/><path d="M899,1201.2344 L899,1211.2344 L909,1211.2344 L899,1201.2344 " fill="#FEFFDD" style="stroke:#181818;stroke-width:0.5;"/><text fill="#000000" font-family="sans-serif" font-size="13" lengthAdjust="spacing" textLength="153" x="741" y="1218.3013">Contract balance issues</text><text fill="#000000" font-family="sans-serif" font-size="13" lengthAdjust="spacing" textLength="134" x="741" y="1233.4341">or other EVVM errors</text><line style="stroke:#000000;stroke-width:1.0;stroke-dasharray:2.0,2.0;" x1="60" x2="932" y1="1247.5" y2="1247.5"/><text fill="#000000" font-family="sans-serif" font-size="11" font-weight="bold" lengthAdjust="spacing" textLength="112" x="65" y="1257.7104">[caPay succeeds]</text><line style="stroke:#181818;stroke-width:1.0;" x1="730" x2="772" y1="1282.4375" y2="1282.4375"/><line style="stroke:#181818;stroke-width:1.0;" x1="772" x2="772" y1="1282.4375" y2="1295.4375"/><line style="stroke:#181818;stroke-width:1.0;" x1="731" x2="772" y1="1295.4375" y2="1295.4375"/><polygon fill="#181818" points="741,1291.4375,731,1295.4375,741,1299.4375,737,1295.4375" style="stroke:#181818;stroke-width:1.0;"/><text fill="#000000" font-family="sans-serif" font-size="13" lengthAdjust="spacing" textLength="183" x="737" y="1277.3716">Update balances for rewards</text><polygon fill="#181818" points="376,1320.5703,366,1324.5703,376,1328.5703,372,1324.5703" style="stroke:#181818;stroke-width:1.0;"/><line style="stroke:#181818;stroke-width:1.0;" x1="370" x2="724" y1="1324.5703" y2="1324.5703"/><text fill="#000000" font-family="sans-serif" font-size="13" lengthAdjust="spacing" textLength="118" x="382" y="1319.5044">Reward distributed</text><line style="stroke:#181818;stroke-width:1.0;" x1="365" x2="407" y1="1367.7031" y2="1367.7031"/><line style="stroke:#181818;stroke-width:1.0;" x1="407" x2="407" y1="1367.7031" y2="1380.7031"/><line style="stroke:#181818;stroke-width:1.0;" x1="366" x2="407" y1="1380.7031" y2="1380.7031"/><polygon fill="#181818" points="376,1376.7031,366,1380.7031,376,1384.7031,372,1380.7031" style="stroke:#181818;stroke-width:1.0;"/><text fill="#000000" font-family="sans-serif" font-size="13" lengthAdjust="spacing" textLength="301" x="372" y="1362.6372">identityCustomMetadata[identity][slot] = value</text><line style="stroke:#181818;stroke-width:1.0;" x1="365" x2="407" y1="1409.8359" y2="1409.8359"/><line style="stroke:#181818;stroke-width:1.0;" x1="407" x2="407" y1="1409.8359" y2="1422.8359"/><line style="stroke:#181818;stroke-width:1.0;" x1="366" x2="407" y1="1422.8359" y2="1422.8359"/><polygon fill="#181818" points="376,1418.8359,366,1422.8359,376,1426.8359,372,1422.8359" style="stroke:#181818;stroke-width:1.0;"/><text fill="#000000" font-family="sans-serif" font-size="13" lengthAdjust="spacing" textLength="341" x="372" y="1404.77">identityDetails[identity].customMetadataMaxSlots++</text><line style="stroke:#181818;stroke-width:1.0;" x1="365" x2="407" y1="1451.9688" y2="1451.9688"/><line style="stroke:#181818;stroke-width:1.0;" x1="407" x2="407" y1="1451.9688" y2="1464.9688"/><line style="stroke:#181818;stroke-width:1.0;" x1="366" x2="407" y1="1464.9688" y2="1464.9688"/><polygon fill="#181818" points="376,1460.9688,366,1464.9688,376,1468.9688,372,1464.9688" style="stroke:#181818;stroke-width:1.0;"/><text fill="#000000" font-family="sans-serif" font-size="13" lengthAdjust="spacing" textLength="257" x="372" y="1446.9028">nameServiceNonce[user][nonce] = true</text><!--SRC=[fLRRRjiu47tdLmnI58YHoxe5WW916o3rEhj-o0LDcvSu26XnP1ELIOEax0X5WNvBVwBl-odx9Jka8bcoPTdfse0jqvnpvd9coFVMPGcUCQ6ZT8hAmJS6zFh8ewz_6PqgqTE9Dh2OI8ViEtl_n_D-nYD7wtjVB1gWXriqSndX7d0BAQsn6JTEHdB62NFlYa-nkaCjVyEhRhVNx_Vh1lsxkykm4-VpgT_Ixx_jCkQaIn2u4BtKEZszHCS5Tnm-6wuiUIIrWej4BuPg_uBB10NSS3U18-WRGqx-pPL8f1ft6FC-mj5PpPFJTUJzVtxvTyU7A-VSOQFhhBgu1gfLabql59hhU20enT9b9IpZYODNySdetUWDX5mAZPGVxK0l5BW9Wdos2NMf4Js5J1F39voZSR2GRZ9KLzgji0LBXeabZqCXSoOYi7M6TOhLM8X7njaWlj8gme4zdrEM-IZ1Cg10vJ-gWLKmWk6zz_lXNldd1_Zm0Pn9CLZj72DPdYS6kSWe5b7QXeTgf64dI0kyS9Kr4pL72gFCeTsVyoJ5pd62QanoEeDkdN0rth3Ta-9qvZAmpf3eofqxnjZtjdKrrY3A7zLmxmfchw30pZRpDeTyYTRoCTxAiK9neStvnfvez6Or5nw7kzHW3YyZ7heqfchOcj6EQHaeoguK9UorgWoNDS3QGZLHIxSeMG6HjNkpcgmf_uetlEZaGnYZkp7qrsUzdh3E8PGDlqeISfNxD3DI6-h3YuIF7_q4N6kD5k_2e3o56Szk7Rbc7hdDLDHOgvAwc6cr8RkwgvgrHWzZJZj-oyLM3r69zdA6JHvo2NsNDoqnXBDCgbdgx7QKgbvldcrtKElIWMQf5cwWFtoQ4wGfgKQE9uviUpfD18pmTAZ-_V4J1igcCNaWFSI89vm6MV5F42o40eGXsh1k2u6t5hI8rgPHX2ZQOYoJ_6Kcl6YUNMetgVTCmJOpcWohSxlw4bWJPgCmsjf8Mkf0G_YvolQdTdnioGXDPnULhhTvZ_j6Ny8S3jN94nXSS2FW04wwho56gYF6T5-YXR9B44EJDDE-e6CYlfmq_wULDz9M6o2GjIX-c-fp-ysQRz2zSeO2A1H51RGfsg6Y6vkc-ud91HqGDwYjekYSlbNFspKDCN7d1TuEKHVCfrmMGlfJVvIw3IBVHUYRfc3p95GlFS6AQr_ziBelbX_kRQ8TNS_owynlWlz9iAIa9UfnLAExv4-tH6CF3bv8iELEcP-RR5CgYsV_7J9NgKK5cVq7]--></g></svg>