<?xml version="1.0" encoding="us-ascii" standalone="no"?><svg xmlns="http://www.w3.org/2000/svg" xmlns:xlink="http://www.w3.org/1999/xlink" contentStyleType="text/css" height="1077px" preserveAspectRatio="none" style="width:860px;height:1077px;background:#FFFFFF;" version="1.1" viewBox="0 0 860 1077" width="860px" zoomAndPan="magnify"><defs/><g><text fill="#000000" font-family="sans-serif" font-size="14" font-weight="bold" lengthAdjust="spacing" textLength="259" x="301.5" y="27.9951">flushUsername Transaction Flow</text><text fill="#000000" font-family="sans-serif" font-size="14" font-weight="bold" lengthAdjust="spacing" textLength="285" x="288.5" y="44.292">(Happy Path - Successful Execution)</text><rect fill="#00CEEE" height="805.3906" style="stroke:#181818;stroke-width:1.0;" width="10" x="198" y="166.0234"/><rect fill="#00EE20" height="137.3359" style="stroke:#181818;stroke-width:1.0;" width="10" x="573" y="445.0859"/><rect fill="#00EE20" height="96.9648" style="stroke:#181818;stroke-width:1.0;" width="10" x="573" y="726.0859"/><rect fill="#FFFFFF" height="90.2031" style="stroke:#000000;stroke-width:1.5;" width="473.5" x="141" y="406.8203"/><rect fill="#FFFFFF" height="43.9375" style="stroke:none;stroke-width:1.0;" width="473.5" x="141" y="453.0859"/><line style="stroke:#181818;stroke-width:0.5;stroke-dasharray:5.0,5.0;" x1="60" x2="60" y1="134.8906" y2="996.4141"/><line style="stroke:#181818;stroke-width:0.5;stroke-dasharray:5.0,5.0;" x1="203" x2="203" y1="134.8906" y2="996.4141"/><line style="stroke:#181818;stroke-width:0.5;stroke-dasharray:5.0,5.0;" x1="577.5" x2="577.5" y1="134.8906" y2="996.4141"/><text fill="#000000" font-family="sans-serif" font-size="14" lengthAdjust="spacing" textLength="104" x="5" y="131.5889">User or Service</text><ellipse cx="60" cy="67.0938" fill="#E2E2F0" rx="8" ry="8" style="stroke:#181818;stroke-width:0.5;"/><path d="M60,75.0938 L60,102.0938 M47,83.0938 L73,83.0938 M60,102.0938 L47,117.0938 M60,102.0938 L73,117.0938 " fill="none" style="stroke:#181818;stroke-width:0.5;"/><text fill="#000000" font-family="sans-serif" font-size="14" lengthAdjust="spacing" textLength="104" x="5" y="1008.4092">User or Service</text><ellipse cx="60" cy="1020.2109" fill="#E2E2F0" rx="8" ry="8" style="stroke:#181818;stroke-width:0.5;"/><path d="M60,1028.2109 L60,1055.2109 M47,1036.2109 L73,1036.2109 M60,1055.2109 L47,1070.2109 M60,1055.2109 L73,1070.2109 " fill="none" style="stroke:#181818;stroke-width:0.5;"/><rect fill="#00CEEE" height="30.2969" rx="2.5" ry="2.5" style="stroke:#181818;stroke-width:0.5;" width="104" x="151" y="103.5938"/><text fill="#000000" font-family="sans-serif" font-size="14" lengthAdjust="spacing" textLength="90" x="158" y="123.5889">NameService</text><rect fill="#00CEEE" height="30.2969" rx="2.5" ry="2.5" style="stroke:#181818;stroke-width:0.5;" width="104" x="151" y="995.4141"/><text fill="#000000" font-family="sans-serif" font-size="14" lengthAdjust="spacing" textLength="90" x="158" y="1015.4092">NameService</text><rect fill="#00EE20" height="30.2969" rx="2.5" ry="2.5" style="stroke:#181818;stroke-width:0.5;" width="53" x="551.5" y="103.5938"/><text fill="#000000" font-family="sans-serif" font-size="14" lengthAdjust="spacing" textLength="39" x="558.5" y="123.5889">EVVM</text><rect fill="#00EE20" height="30.2969" rx="2.5" ry="2.5" style="stroke:#181818;stroke-width:0.5;" width="53" x="551.5" y="995.4141"/><text fill="#000000" font-family="sans-serif" font-size="14" lengthAdjust="spacing" textLength="39" x="558.5" y="1015.4092">EVVM</text><rect fill="#00CEEE" height="805.3906" style="stroke:#181818;stroke-width:1.0;" width="10" x="198" y="166.0234"/><rect fill="#00EE20" height="137.3359" style="stroke:#181818;stroke-width:1.0;" width="10" x="573" y="445.0859"/><rect fill="#00EE20" height="96.9648" style="stroke:#181818;stroke-width:1.0;" width="10" x="573" y="726.0859"/><polygon fill="#181818" points="186,162.0234,196,166.0234,186,170.0234,190,166.0234" style="stroke:#181818;stroke-width:1.0;"/><line style="stroke:#181818;stroke-width:1.0;" x1="60" x2="192" y1="166.0234" y2="166.0234"/><text fill="#000000" font-family="sans-serif" font-size="13" lengthAdjust="spacing" textLength="119" x="67" y="160.9575">flushUsername(&#183;&#183;&#183;)</text><line style="stroke:#181818;stroke-width:1.0;" x1="208" x2="250" y1="195.1563" y2="195.1563"/><line style="stroke:#181818;stroke-width:1.0;" x1="250" x2="250" y1="195.1563" y2="208.1563"/><line style="stroke:#181818;stroke-width:1.0;" x1="209" x2="250" y1="208.1563" y2="208.1563"/><polygon fill="#181818" points="219,204.1563,209,208.1563,219,212.1563,215,208.1563" style="stroke:#181818;stroke-width:1.0;"/><text fill="#000000" font-family="sans-serif" font-size="13" lengthAdjust="spacing" textLength="171" x="215" y="190.0903">verifyIfNonceIsAvailable(&#183;&#183;&#183;)</text><line style="stroke:#181818;stroke-width:1.0;" x1="208" x2="250" y1="237.2891" y2="237.2891"/><line style="stroke:#181818;stroke-width:1.0;" x1="250" x2="250" y1="237.2891" y2="250.2891"/><line style="stroke:#181818;stroke-width:1.0;" x1="209" x2="250" y1="250.2891" y2="250.2891"/><polygon fill="#181818" points="219,246.2891,209,250.2891,219,254.2891,215,250.2891" style="stroke:#181818;stroke-width:1.0;"/><text fill="#000000" font-family="sans-serif" font-size="13" lengthAdjust="spacing" textLength="149" x="215" y="232.2231">onlyOwnerOfIdentity(&#183;&#183;&#183;)</text><line style="stroke:#181818;stroke-width:1.0;" x1="208" x2="250" y1="294.5547" y2="294.5547"/><line style="stroke:#181818;stroke-width:1.0;" x1="250" x2="250" y1="294.5547" y2="307.5547"/><line style="stroke:#181818;stroke-width:1.0;" x1="209" x2="250" y1="307.5547" y2="307.5547"/><polygon fill="#181818" points="219,303.5547,209,307.5547,219,311.5547,215,307.5547" style="stroke:#181818;stroke-width:1.0;"/><text fill="#000000" font-family="sans-serif" font-size="13" lengthAdjust="spacing" textLength="159" x="215" y="274.356">verify username is active</text><text fill="#000000" font-family="sans-serif" font-size="13" lengthAdjust="spacing" textLength="278" x="215" y="289.4888">(not expired &amp; flagNotAUsername != 0x01)</text><line style="stroke:#181818;stroke-width:1.0;" x1="208" x2="250" y1="336.6875" y2="336.6875"/><line style="stroke:#181818;stroke-width:1.0;" x1="250" x2="250" y1="336.6875" y2="349.6875"/><line style="stroke:#181818;stroke-width:1.0;" x1="209" x2="250" y1="349.6875" y2="349.6875"/><polygon fill="#181818" points="219,345.6875,209,349.6875,219,353.6875,215,349.6875" style="stroke:#181818;stroke-width:1.0;"/><text fill="#000000" font-family="sans-serif" font-size="13" lengthAdjust="spacing" textLength="277" x="215" y="331.6216">verifyMessageSignedForFlushUsername(&#183;&#183;&#183;)</text><line style="stroke:#181818;stroke-width:1.0;" x1="208" x2="250" y1="378.8203" y2="378.8203"/><line style="stroke:#181818;stroke-width:1.0;" x1="250" x2="250" y1="378.8203" y2="391.8203"/><line style="stroke:#181818;stroke-width:1.0;" x1="209" x2="250" y1="391.8203" y2="391.8203"/><polygon fill="#181818" points="219,387.8203,209,391.8203,219,395.8203,215,391.8203" style="stroke:#181818;stroke-width:1.0;"/><text fill="#000000" font-family="sans-serif" font-size="13" lengthAdjust="spacing" textLength="351" x="215" y="373.7544">makePay(&#183;&#183;&#183;, getPriceToFlushUsername(username), &#183;&#183;&#183;)</text><path d="M141,406.8203 L205,406.8203 L205,413.9531 L195,423.9531 L141,423.9531 L141,406.8203 " fill="#EEEEEE" style="stroke:#000000;stroke-width:1.5;"/><rect fill="none" height="90.2031" style="stroke:#000000;stroke-width:1.5;" width="473.5" x="141" y="406.8203"/><text fill="#000000" font-family="sans-serif" font-size="13" font-weight="bold" lengthAdjust="spacing" textLength="19" x="156" y="419.8872">alt</text><text fill="#000000" font-family="sans-serif" font-size="11" font-weight="bold" lengthAdjust="spacing" textLength="177" x="220" y="419.0308">[priorityFlag_EVVM == true]</text><polygon fill="#181818" points="561,441.0859,571,445.0859,561,449.0859,565,445.0859" style="stroke:#181818;stroke-width:1.0;"/><line style="stroke:#181818;stroke-width:1.0;" x1="208" x2="567" y1="445.0859" y2="445.0859"/><text fill="#000000" font-family="sans-serif" font-size="13" lengthAdjust="spacing" textLength="131" x="215" y="440.02">payStaker_async(&#183;&#183;&#183;)</text><line style="stroke:#000000;stroke-width:1.0;stroke-dasharray:2.0,2.0;" x1="141" x2="614.5" y1="454.0859" y2="454.0859"/><text fill="#000000" font-family="sans-serif" font-size="11" font-weight="bold" lengthAdjust="spacing" textLength="183" x="146" y="464.2964">[priorityFlag_EVVM == false]</text><polygon fill="#181818" points="561,485.0234,571,489.0234,561,493.0234,565,489.0234" style="stroke:#181818;stroke-width:1.0;"/><line style="stroke:#181818;stroke-width:1.0;" x1="208" x2="567" y1="489.0234" y2="489.0234"/><text fill="#000000" font-family="sans-serif" font-size="13" lengthAdjust="spacing" textLength="123" x="215" y="483.9575">payStaker_sync(&#183;&#183;&#183;)</text><line style="stroke:#181818;stroke-width:1.0;" x1="583" x2="625" y1="540.2891" y2="540.2891"/><line style="stroke:#181818;stroke-width:1.0;" x1="625" x2="625" y1="540.2891" y2="553.2891"/><line style="stroke:#181818;stroke-width:1.0;" x1="584" x2="625" y1="553.2891" y2="553.2891"/><polygon fill="#181818" points="594,549.2891,584,553.2891,594,557.2891,590,553.2891" style="stroke:#181818;stroke-width:1.0;"/><text fill="#000000" font-family="sans-serif" font-size="13" lengthAdjust="spacing" textLength="140" x="590" y="520.0903">Verify payment inputs</text><text fill="#000000" font-family="sans-serif" font-size="13" lengthAdjust="spacing" textLength="134" x="590" y="535.2231">and update balances</text><polygon fill="#181818" points="219,578.4219,209,582.4219,219,586.4219,215,582.4219" style="stroke:#181818;stroke-width:1.0;"/><line style="stroke:#181818;stroke-width:1.0;" x1="213" x2="577" y1="582.4219" y2="582.4219"/><text fill="#000000" font-family="sans-serif" font-size="13" lengthAdjust="spacing" textLength="207" x="225" y="577.356">Payment processed successfully</text><line style="stroke:#181818;stroke-width:1.0;" x1="208" x2="250" y1="641.8203" y2="641.8203"/><line style="stroke:#181818;stroke-width:1.0;" x1="250" x2="250" y1="641.8203" y2="654.8203"/><line style="stroke:#181818;stroke-width:1.0;" x1="209" x2="250" y1="654.8203" y2="654.8203"/><polygon fill="#181818" points="219,650.8203,209,654.8203,219,658.8203,215,654.8203" style="stroke:#181818;stroke-width:1.0;"/><text fill="#000000" font-family="sans-serif" font-size="13" lengthAdjust="spacing" textLength="233" x="215" y="606.4888">for loop: delete all custom metadata</text><text fill="#000000" font-family="sans-serif" font-size="13" lengthAdjust="spacing" textLength="291" x="215" y="621.6216">for (i = 0; i &lt; customMetadataMaxSlots; i++)</text><text fill="#000000" font-family="sans-serif" font-size="13" lengthAdjust="spacing" textLength="314" x="215" y="636.7544">{ delete identityCustomMetadata[username][i] }</text><line style="stroke:#181818;stroke-width:1.0;" x1="208" x2="250" y1="683.9531" y2="683.9531"/><line style="stroke:#181818;stroke-width:1.0;" x1="250" x2="250" y1="683.9531" y2="696.9531"/><line style="stroke:#181818;stroke-width:1.0;" x1="209" x2="250" y1="696.9531" y2="696.9531"/><polygon fill="#181818" points="219,692.9531,209,696.9531,219,700.9531,215,696.9531" style="stroke:#181818;stroke-width:1.0;"/><text fill="#000000" font-family="sans-serif" font-size="13" lengthAdjust="spacing" textLength="94" x="215" y="678.8872">makeCaPay(..)</text><polygon fill="#181818" points="561,722.0859,571,726.0859,561,730.0859,565,726.0859" style="stroke:#181818;stroke-width:1.0;"/><line style="stroke:#181818;stroke-width:1.0;" x1="208" x2="567" y1="726.0859" y2="726.0859"/><text fill="#000000" font-family="sans-serif" font-size="13" lengthAdjust="spacing" textLength="60" x="215" y="721.02">caPay(&#183;&#183;&#183;)</text><line style="stroke:#181818;stroke-width:1.0;" x1="583" x2="625" y1="770.3516" y2="770.3516"/><line style="stroke:#181818;stroke-width:1.0;" x1="625" x2="625" y1="770.3516" y2="783.3516"/><line style="stroke:#181818;stroke-width:1.0;" x1="584" x2="625" y1="783.3516" y2="783.3516"/><polygon fill="#181818" points="594,779.3516,584,783.3516,594,787.3516,590,783.3516" style="stroke:#181818;stroke-width:1.0;"/><text fill="#000000" font-family="sans-serif" font-size="13" lengthAdjust="spacing" textLength="129" x="590" y="750.1528">Update balances for</text><text fill="#000000" font-family="sans-serif" font-size="13" lengthAdjust="spacing" textLength="94" x="590" y="765.2856">staker rewards</text><polygon fill="#181818" points="219,819.0508,209,823.0508,219,827.0508,215,823.0508" style="stroke:#181818;stroke-width:1.0;"/><line style="stroke:#181818;stroke-width:1.0;" x1="213" x2="577" y1="823.0508" y2="823.0508"/><text fill="#000000" font-family="sans-serif" font-size="13" lengthAdjust="spacing" textLength="198" x="225" y="817.9849">Reward distributed successfully</text><path d="M588,796.3516 L588,836.3516 L853,836.3516 L853,806.3516 L843,796.3516 L588,796.3516 " fill="#FEFFDD" style="stroke:#181818;stroke-width:0.5;"/><path d="M843,796.3516 L843,806.3516 L853,806.3516 L843,796.3516 " fill="#FEFFDD" style="stroke:#181818;stroke-width:0.5;"/><text fill="#000000" font-family="sans-serif" font-size="13" lengthAdjust="spacing" textLength="244" x="594" y="813.4185">Reward: (5x reward * metadata count)</text><text fill="#000000" font-family="sans-serif" font-size="13" lengthAdjust="spacing" textLength="83" x="594" y="828.5513">+ priority fee</text><line style="stroke:#181818;stroke-width:1.0;" x1="208" x2="250" y1="923.2813" y2="923.2813"/><line style="stroke:#181818;stroke-width:1.0;" x1="250" x2="250" y1="923.2813" y2="936.2813"/><line style="stroke:#181818;stroke-width:1.0;" x1="209" x2="250" y1="936.2813" y2="936.2813"/><polygon fill="#181818" points="219,932.2813,209,936.2813,219,940.2813,215,936.2813" style="stroke:#181818;stroke-width:1.0;"/><text fill="#000000" font-family="sans-serif" font-size="13" lengthAdjust="spacing" textLength="210" x="215" y="857.6841">Reset identityDetails[username]:</text><text fill="#000000" font-family="sans-serif" font-size="13" lengthAdjust="spacing" textLength="235" x="215" y="872.8169">owner = address(0), expireDate = 0,</text><text fill="#000000" font-family="sans-serif" font-size="13" lengthAdjust="spacing" textLength="198" x="215" y="887.9497">customMetadataMaxSlots = 0,</text><text fill="#000000" font-family="sans-serif" font-size="13" lengthAdjust="spacing" textLength="172" x="215" y="903.0825">flagNotAUsername = 0x00</text><text fill="#000000" font-family="sans-serif" font-size="13" lengthAdjust="spacing" textLength="132" x="215" y="918.2153">(keep offerMaxSlots)</text><path d="M462,865.25 L462,920.25 L676,920.25 L676,875.25 L666,865.25 L462,865.25 " fill="#FEFFDD" style="stroke:#181818;stroke-width:0.5;"/><path d="M666,865.25 L666,875.25 L676,875.25 L666,865.25 " fill="#FEFFDD" style="stroke:#181818;stroke-width:0.5;"/><text fill="#000000" font-family="sans-serif" font-size="13" lengthAdjust="spacing" textLength="193" x="468" y="882.3169">CRITICAL: Username becomes</text><text fill="#000000" font-family="sans-serif" font-size="13" lengthAdjust="spacing" textLength="172" x="468" y="897.4497">available for re-registration</text><text fill="#000000" font-family="sans-serif" font-size="13" lengthAdjust="spacing" textLength="175" x="468" y="912.5825">Offers remain to honor bids</text><line style="stroke:#181818;stroke-width:1.0;" x1="208" x2="250" y1="970.4141" y2="970.4141"/><line style="stroke:#181818;stroke-width:1.0;" x1="250" x2="250" y1="970.4141" y2="983.4141"/><line style="stroke:#181818;stroke-width:1.0;" x1="203" x2="250" y1="983.4141" y2="983.4141"/><polygon fill="#181818" points="213,979.4141,203,983.4141,213,987.4141,209,983.4141" style="stroke:#181818;stroke-width:1.0;"/><text fill="#000000" font-family="sans-serif" font-size="13" lengthAdjust="spacing" textLength="257" x="215" y="965.3481">nameServiceNonce[user][nonce] = true</text><!--SRC=[ZLNRRjD047tVhnYAX1BQGa3Y9RH89RWGgJSbfIzrXIRsE5brlMljhjD4YE_YdIzZrd6Sc9QsoOkzU-PspipumFcbeayYDKcPa_RmKm3_FcDo-zMQKgS3euo5kvdq97w9WxSrNc3Y-NpdkoCB_30cEvS9xG0wAFbC56YzJ6I1x7Fd37FQHkZDExpizGPH5BKDegkhqmf9ytaU857qlYU4bruHPAfqin0uk85BYzfnDj9eE5RcBjQTRrWKIxX0FuDz69T9GivbfO9eGKaPW5qXjF44Lavd7lemC7cXY0_AjTUK-9sHiHvHRkRauEZa15Bq2AXJoF6MN8EEDSvHAfo4v9WCI_kMfj9vYoiViHwEHj5LD1eFFvz4O0fQtGWHNC3-fnOZ_NQ5dJ-_mxzRSIxdo6a-n9_OFhpdSKvMPijXTcPqGaDtjCvtu_nHSwFLylnEaptFXYctYVJBPrgk0c-8bGwgCfYq3ci0j2YafHHUST4uFJF-g57snI7q5hrtpujmoXhZbCPogYazDlRuOGeVzHHKlS1rPNim9NzX-UhIjBsjY-dkmKORvU5bDIPGM6aiCtJC1Vq8dGo7X-1jITLe_PD1rU1zA70vzXpU_a2tr4cJSB1eP6yD0ob7ZqRCa17F2jcAI3eLee9ie5Sh4TcYsX5I5wLttFKy2MMHXjGcg90xopMMRMOlQil2cZ2ChBThnb8jHKgj6f-GAOoOCgRehwQK09M2f7JUv92Jnp2biGweZWJkeOyWuQ06dDRtfxWOA-CTt-tkTcFzS-rBrkqzQC6lrvBVNCiR-FMCFXfWwAGtR-xtNCrfWfjMwuh_QDoMuNkRwq14h5sb8U-SExJf__WVLRUGXfqa9wL_Me3jzRYoxaFdmwAE0wyRfY7XpuHd2dURDeICw0cAHkJ8DsH_OLzIkGtB_LYRi6vOFanJotbsUZnjgsNn9QJ9kkx5-c5Hwyjx2wNQ9prUFBT41PWi8xiswVxpGHWDBuU3enFcV6qyeSJav9xSzUV1hUFp7AK6Rs1cDECcaiLvd9EjjsfDLtJSNElmV0Fr2jcMQij0_0K0]--></g></svg>