<?xml version="1.0" encoding="us-ascii" standalone="no"?><svg xmlns="http://www.w3.org/2000/svg" xmlns:xlink="http://www.w3.org/1999/xlink" contentStyleType="text/css" height="1596px" preserveAspectRatio="none" style="width:981px;height:1596px;background:#FFFFFF;" version="1.1" viewBox="0 0 981 1596" width="981px" zoomAndPan="magnify"><defs/><g><text fill="#000000" font-family="sans-serif" font-size="14" font-weight="bold" lengthAdjust="spacing" textLength="259" x="362" y="27.9951">flushUsername Transaction Flow</text><text fill="#000000" font-family="sans-serif" font-size="14" font-weight="bold" lengthAdjust="spacing" textLength="227" x="378" y="44.292">(Failed Path - Error Handling)</text><rect fill="#00CEEE" height="1290.0781" style="stroke:#181818;stroke-width:1.0;" width="10" x="347" y="166.0234"/><rect fill="#00EE20" height="283.8047" style="stroke:#181818;stroke-width:1.0;" width="10" x="722" y="799.0313"/><rect fill="#00EE20" height="160.4688" style="stroke:#181818;stroke-width:1.0;" width="10" x="722" y="1176.2344"/><rect fill="#F5B7B1" height="1275.9453" style="stroke:#000000;stroke-width:1.5;" width="964" x="10" y="223.1563"/><rect fill="#FFFFFF" height="1214.5469" style="stroke:none;stroke-width:1.0;" width="964" x="10" y="284.5547"/><rect fill="#F5B7B1" height="1143.6094" style="stroke:#000000;stroke-width:1.5;" width="944" x="20" y="348.4922"/><rect fill="#FFFFFF" height="1082.2109" style="stroke:none;stroke-width:1.0;" width="944" x="20" y="409.8906"/><rect fill="#F5B7B1" height="1011.2734" style="stroke:#000000;stroke-width:1.5;" width="924" x="30" y="473.8281"/><rect fill="#FFFFFF" height="913.6094" style="stroke:none;stroke-width:1.0;" width="924" x="30" y="571.4922"/><rect fill="#F5B7B1" height="842.6719" style="stroke:#000000;stroke-width:1.5;" width="904" x="40" y="635.4297"/><rect fill="#FFFFFF" height="781.2734" style="stroke:none;stroke-width:1.0;" width="904" x="40" y="696.8281"/><rect fill="#FFFFFF" height="90.2031" style="stroke:#000000;stroke-width:1.5;" width="473.5" x="290" y="760.7656"/><rect fill="#FFFFFF" height="43.9375" style="stroke:none;stroke-width:1.0;" width="473.5" x="290" y="807.0313"/><rect fill="#F5B7B1" height="183.7344" style="stroke:#000000;stroke-width:1.5;" width="875" x="50" y="907.1016"/><rect fill="#FFFFFF" height="86.0703" style="stroke:none;stroke-width:1.0;" width="875" x="50" y="1004.7656"/><rect fill="#F5B7B1" height="279.8672" style="stroke:#000000;stroke-width:1.5;" width="884" x="50" y="1191.2344"/><rect fill="#FFFFFF" height="212.4688" style="stroke:none;stroke-width:1.0;" width="884" x="50" y="1258.6328"/><line style="stroke:#181818;stroke-width:0.5;stroke-dasharray:5.0,5.0;" x1="115" x2="115" y1="134.8906" y2="1516.1016"/><line style="stroke:#181818;stroke-width:0.5;stroke-dasharray:5.0,5.0;" x1="352" x2="352" y1="134.8906" y2="1516.1016"/><line style="stroke:#181818;stroke-width:0.5;stroke-dasharray:5.0,5.0;" x1="726.5" x2="726.5" y1="134.8906" y2="1516.1016"/><text fill="#000000" font-family="sans-serif" font-size="14" lengthAdjust="spacing" textLength="104" x="60" y="131.5889">User or Service</text><ellipse cx="115" cy="67.0938" fill="#E2E2F0" rx="8" ry="8" style="stroke:#181818;stroke-width:0.5;"/><path d="M115,75.0938 L115,102.0938 M102,83.0938 L128,83.0938 M115,102.0938 L102,117.0938 M115,102.0938 L128,117.0938 " fill="none" style="stroke:#181818;stroke-width:0.5;"/><text fill="#000000" font-family="sans-serif" font-size="14" lengthAdjust="spacing" textLength="104" x="60" y="1528.0967">User or Service</text><ellipse cx="115" cy="1539.8984" fill="#E2E2F0" rx="8" ry="8" style="stroke:#181818;stroke-width:0.5;"/><path d="M115,1547.8984 L115,1574.8984 M102,1555.8984 L128,1555.8984 M115,1574.8984 L102,1589.8984 M115,1574.8984 L128,1589.8984 " fill="none" style="stroke:#181818;stroke-width:0.5;"/><rect fill="#00CEEE" height="30.2969" rx="2.5" ry="2.5" style="stroke:#181818;stroke-width:0.5;" width="104" x="300" y="103.5938"/><text fill="#000000" font-family="sans-serif" font-size="14" lengthAdjust="spacing" textLength="90" x="307" y="123.5889">NameService</text><rect fill="#00CEEE" height="30.2969" rx="2.5" ry="2.5" style="stroke:#181818;stroke-width:0.5;" width="104" x="300" y="1515.1016"/><text fill="#000000" font-family="sans-serif" font-size="14" lengthAdjust="spacing" textLength="90" x="307" y="1535.0967">NameService</text><rect fill="#00EE20" height="30.2969" rx="2.5" ry="2.5" style="stroke:#181818;stroke-width:0.5;" width="53" x="700.5" y="103.5938"/><text fill="#000000" font-family="sans-serif" font-size="14" lengthAdjust="spacing" textLength="39" x="707.5" y="123.5889">EVVM</text><rect fill="#00EE20" height="30.2969" rx="2.5" ry="2.5" style="stroke:#181818;stroke-width:0.5;" width="53" x="700.5" y="1515.1016"/><text fill="#000000" font-family="sans-serif" font-size="14" lengthAdjust="spacing" textLength="39" x="707.5" y="1535.0967">EVVM</text><rect fill="#00CEEE" height="1290.0781" style="stroke:#181818;stroke-width:1.0;" width="10" x="347" y="166.0234"/><rect fill="#00EE20" height="283.8047" style="stroke:#181818;stroke-width:1.0;" width="10" x="722" y="799.0313"/><rect fill="#00EE20" height="160.4688" style="stroke:#181818;stroke-width:1.0;" width="10" x="722" y="1176.2344"/><polygon fill="#181818" points="335,162.0234,345,166.0234,335,170.0234,339,166.0234" style="stroke:#181818;stroke-width:1.0;"/><line style="stroke:#181818;stroke-width:1.0;" x1="115" x2="341" y1="166.0234" y2="166.0234"/><text fill="#000000" font-family="sans-serif" font-size="13" lengthAdjust="spacing" textLength="119" x="122" y="160.9575">flushUsername(&#183;&#183;&#183;)</text><line style="stroke:#181818;stroke-width:1.0;" x1="357" x2="399" y1="195.1563" y2="195.1563"/><line style="stroke:#181818;stroke-width:1.0;" x1="399" x2="399" y1="195.1563" y2="208.1563"/><line style="stroke:#181818;stroke-width:1.0;" x1="358" x2="399" y1="208.1563" y2="208.1563"/><polygon fill="#181818" points="368,204.1563,358,208.1563,368,212.1563,364,208.1563" style="stroke:#181818;stroke-width:1.0;"/><text fill="#000000" font-family="sans-serif" font-size="13" lengthAdjust="spacing" textLength="171" x="364" y="190.0903">verifyAsyncNonce(user, nonce)</text><path d="M10,223.1563 L74,223.1563 L74,230.2891 L64,240.2891 L10,240.2891 L10,223.1563 " fill="#EEEEEE" style="stroke:#000000;stroke-width:1.5;"/><rect fill="none" height="1275.9453" style="stroke:#000000;stroke-width:1.5;" width="964" x="10" y="223.1563"/><text fill="#000000" font-family="sans-serif" font-size="13" font-weight="bold" lengthAdjust="spacing" textLength="19" x="25" y="236.2231">alt</text><text fill="#000000" font-family="sans-serif" font-size="11" font-weight="bold" lengthAdjust="spacing" textLength="271" x="89" y="235.3667">[nonce already used]</text><line style="stroke:#181818;stroke-width:2.0;" x1="122" x2="132" y1="271.5547" y2="281.5547"/><line style="stroke:#181818;stroke-width:2.0;" x1="122" x2="132" y1="281.5547" y2="271.5547"/><line style="stroke:#181818;stroke-width:1.0;" x1="127" x2="346" y1="276.5547" y2="276.5547"/><text fill="#000000" font-family="sans-serif" font-size="13" lengthAdjust="spacing" textLength="70" x="132" y="256.356">Revert with</text><text fill="#000000" font-family="sans-serif" font-size="13" lengthAdjust="spacing" textLength="122" x="132" y="271.4888">AsyncNonceAlreadyUsed()</text><line style="stroke:#000000;stroke-width:1.0;stroke-dasharray:2.0,2.0;" x1="10" x2="974" y1="285.5547" y2="285.5547"/><text fill="#000000" font-family="sans-serif" font-size="11" font-weight="bold" lengthAdjust="spacing" textLength="128" x="15" y="295.7651">[Nonce is available]</text><line style="stroke:#181818;stroke-width:1.0;" x1="357" x2="399" y1="320.4922" y2="320.4922"/><line style="stroke:#181818;stroke-width:1.0;" x1="399" x2="399" y1="320.4922" y2="333.4922"/><line style="stroke:#181818;stroke-width:1.0;" x1="358" x2="399" y1="333.4922" y2="333.4922"/><polygon fill="#181818" points="368,329.4922,358,333.4922,368,337.4922,364,333.4922" style="stroke:#181818;stroke-width:1.0;"/><text fill="#000000" font-family="sans-serif" font-size="13" lengthAdjust="spacing" textLength="149" x="364" y="315.4263">onlyOwnerOfIdentity(&#183;&#183;&#183;)</text><path d="M20,348.4922 L84,348.4922 L84,355.625 L74,365.625 L20,365.625 L20,348.4922 " fill="#EEEEEE" style="stroke:#000000;stroke-width:1.5;"/><rect fill="none" height="1143.6094" style="stroke:#000000;stroke-width:1.5;" width="944" x="20" y="348.4922"/><text fill="#000000" font-family="sans-serif" font-size="13" font-weight="bold" lengthAdjust="spacing" textLength="19" x="35" y="361.5591">alt</text><text fill="#000000" font-family="sans-serif" font-size="11" font-weight="bold" lengthAdjust="spacing" textLength="222" x="99" y="360.7026">[User does not own the username]</text><line style="stroke:#181818;stroke-width:2.0;" x1="122" x2="132" y1="396.8906" y2="406.8906"/><line style="stroke:#181818;stroke-width:2.0;" x1="122" x2="132" y1="406.8906" y2="396.8906"/><line style="stroke:#181818;stroke-width:1.0;" x1="127" x2="346" y1="401.8906" y2="401.8906"/><text fill="#000000" font-family="sans-serif" font-size="13" lengthAdjust="spacing" textLength="70" x="132" y="381.6919">Revert with</text><text fill="#000000" font-family="sans-serif" font-size="13" lengthAdjust="spacing" textLength="124" x="132" y="396.8247">NotOwnerOfIdentity</text><line style="stroke:#000000;stroke-width:1.0;stroke-dasharray:2.0,2.0;" x1="20" x2="964" y1="410.8906" y2="410.8906"/><text fill="#000000" font-family="sans-serif" font-size="11" font-weight="bold" lengthAdjust="spacing" textLength="169" x="25" y="421.1011">[User owns the username]</text><line style="stroke:#181818;stroke-width:1.0;" x1="357" x2="399" y1="445.8281" y2="445.8281"/><line style="stroke:#181818;stroke-width:1.0;" x1="399" x2="399" y1="445.8281" y2="458.8281"/><line style="stroke:#181818;stroke-width:1.0;" x1="358" x2="399" y1="458.8281" y2="458.8281"/><polygon fill="#181818" points="368,454.8281,358,458.8281,368,462.8281,364,458.8281" style="stroke:#181818;stroke-width:1.0;"/><text fill="#000000" font-family="sans-serif" font-size="13" lengthAdjust="spacing" textLength="159" x="364" y="440.7622">verify username is active</text><path d="M30,473.8281 L94,473.8281 L94,480.9609 L84,490.9609 L30,490.9609 L30,473.8281 " fill="#EEEEEE" style="stroke:#000000;stroke-width:1.5;"/><rect fill="none" height="1011.2734" style="stroke:#000000;stroke-width:1.5;" width="924" x="30" y="473.8281"/><text fill="#000000" font-family="sans-serif" font-size="13" font-weight="bold" lengthAdjust="spacing" textLength="19" x="45" y="486.895">alt</text><text fill="#000000" font-family="sans-serif" font-size="11" font-weight="bold" lengthAdjust="spacing" textLength="327" x="109" y="486.0386">[username expired OR flagNotAUsername == 0x01]</text><line style="stroke:#181818;stroke-width:2.0;" x1="122" x2="132" y1="540.3594" y2="550.3594"/><line style="stroke:#181818;stroke-width:2.0;" x1="122" x2="132" y1="550.3594" y2="540.3594"/><line style="stroke:#181818;stroke-width:1.0;" x1="127" x2="346" y1="545.3594" y2="545.3594"/><text fill="#000000" font-family="sans-serif" font-size="13" lengthAdjust="spacing" textLength="70" x="132" y="525.1606">Revert with</text><text fill="#000000" font-family="sans-serif" font-size="13" lengthAdjust="spacing" textLength="208" x="132" y="540.2935">FlushUsernameVerificationFailed</text><path d="M362,495.9609 L362,565.9609 L541,565.9609 L541,505.9609 L531,495.9609 L362,495.9609 " fill="#FEFFDD" style="stroke:#181818;stroke-width:0.5;"/><path d="M531,495.9609 L531,505.9609 L541,505.9609 L531,495.9609 " fill="#FEFFDD" style="stroke:#181818;stroke-width:0.5;"/><text fill="#000000" font-family="sans-serif" font-size="13" lengthAdjust="spacing" textLength="84" x="368" y="513.0278">Cannot flush:</text><text fill="#000000" font-family="sans-serif" font-size="13" lengthAdjust="spacing" textLength="128" x="368" y="528.1606">&#8226; Expired username</text><text fill="#000000" font-family="sans-serif" font-size="13" lengthAdjust="spacing" textLength="146" x="368" y="543.2935">&#8226; Pre-registration hash</text><text fill="#000000" font-family="sans-serif" font-size="13" lengthAdjust="spacing" textLength="158" x="368" y="558.4263">&#8226; Invalid username state</text><line style="stroke:#000000;stroke-width:1.0;stroke-dasharray:2.0,2.0;" x1="30" x2="954" y1="572.4922" y2="572.4922"/><text fill="#000000" font-family="sans-serif" font-size="11" font-weight="bold" lengthAdjust="spacing" textLength="132" x="35" y="582.7026">[Username is active]</text><line style="stroke:#181818;stroke-width:1.0;" x1="357" x2="399" y1="607.4297" y2="607.4297"/><line style="stroke:#181818;stroke-width:1.0;" x1="399" x2="399" y1="607.4297" y2="620.4297"/><line style="stroke:#181818;stroke-width:1.0;" x1="358" x2="399" y1="620.4297" y2="620.4297"/><polygon fill="#181818" points="368,616.4297,358,620.4297,368,624.4297,364,620.4297" style="stroke:#181818;stroke-width:1.0;"/><text fill="#000000" font-family="sans-serif" font-size="13" lengthAdjust="spacing" textLength="277" x="364" y="602.3638">verifyMessageSignedForFlushUsername(&#183;&#183;&#183;)</text><path d="M40,635.4297 L104,635.4297 L104,642.5625 L94,652.5625 L40,652.5625 L40,635.4297 " fill="#EEEEEE" style="stroke:#000000;stroke-width:1.5;"/><rect fill="none" height="842.6719" style="stroke:#000000;stroke-width:1.5;" width="904" x="40" y="635.4297"/><text fill="#000000" font-family="sans-serif" font-size="13" font-weight="bold" lengthAdjust="spacing" textLength="19" x="55" y="648.4966">alt</text><text fill="#000000" font-family="sans-serif" font-size="11" font-weight="bold" lengthAdjust="spacing" textLength="181" x="119" y="647.6401">[Signature verification fails]</text><line style="stroke:#181818;stroke-width:2.0;" x1="122" x2="132" y1="683.8281" y2="693.8281"/><line style="stroke:#181818;stroke-width:2.0;" x1="122" x2="132" y1="693.8281" y2="683.8281"/><line style="stroke:#181818;stroke-width:1.0;" x1="127" x2="346" y1="688.8281" y2="688.8281"/><text fill="#000000" font-family="sans-serif" font-size="13" lengthAdjust="spacing" textLength="70" x="132" y="668.6294">Revert with</text><text fill="#000000" font-family="sans-serif" font-size="13" lengthAdjust="spacing" textLength="206" x="132" y="683.7622">InvalidSignatureOnNameService</text><line style="stroke:#000000;stroke-width:1.0;stroke-dasharray:2.0,2.0;" x1="40" x2="944" y1="697.8281" y2="697.8281"/><text fill="#000000" font-family="sans-serif" font-size="11" font-weight="bold" lengthAdjust="spacing" textLength="122" x="45" y="708.0386">[Signature is valid]</text><line style="stroke:#181818;stroke-width:1.0;" x1="357" x2="399" y1="732.7656" y2="732.7656"/><line style="stroke:#181818;stroke-width:1.0;" x1="399" x2="399" y1="732.7656" y2="745.7656"/><line style="stroke:#181818;stroke-width:1.0;" x1="358" x2="399" y1="745.7656" y2="745.7656"/><polygon fill="#181818" points="368,741.7656,358,745.7656,368,749.7656,364,745.7656" style="stroke:#181818;stroke-width:1.0;"/><text fill="#000000" font-family="sans-serif" font-size="13" lengthAdjust="spacing" textLength="351" x="364" y="727.6997">makePay(&#183;&#183;&#183;, getPriceToFlushUsername(username), &#183;&#183;&#183;)</text><path d="M290,760.7656 L354,760.7656 L354,767.8984 L344,777.8984 L290,777.8984 L290,760.7656 " fill="#EEEEEE" style="stroke:#000000;stroke-width:1.5;"/><rect fill="none" height="90.2031" style="stroke:#000000;stroke-width:1.5;" width="473.5" x="290" y="760.7656"/><text fill="#000000" font-family="sans-serif" font-size="13" font-weight="bold" lengthAdjust="spacing" textLength="19" x="305" y="773.8325">alt</text><text fill="#000000" font-family="sans-serif" font-size="11" font-weight="bold" lengthAdjust="spacing" textLength="177" x="369" y="772.9761">[priorityFlag_EVVM == true]</text><polygon fill="#181818" points="710,795.0313,720,799.0313,710,803.0313,714,799.0313" style="stroke:#181818;stroke-width:1.0;"/><line style="stroke:#181818;stroke-width:1.0;" x1="357" x2="716" y1="799.0313" y2="799.0313"/><text fill="#000000" font-family="sans-serif" font-size="13" lengthAdjust="spacing" textLength="131" x="364" y="793.9653">payStaker_async(&#183;&#183;&#183;)</text><line style="stroke:#000000;stroke-width:1.0;stroke-dasharray:2.0,2.0;" x1="290" x2="763.5" y1="808.0313" y2="808.0313"/><text fill="#000000" font-family="sans-serif" font-size="11" font-weight="bold" lengthAdjust="spacing" textLength="183" x="295" y="818.2417">[priorityFlag_EVVM == false]</text><polygon fill="#181818" points="710,838.9688,720,842.9688,710,846.9688,714,842.9688" style="stroke:#181818;stroke-width:1.0;"/><line style="stroke:#181818;stroke-width:1.0;" x1="357" x2="716" y1="842.9688" y2="842.9688"/><text fill="#000000" font-family="sans-serif" font-size="13" lengthAdjust="spacing" textLength="123" x="364" y="837.9028">payStaker_sync(&#183;&#183;&#183;)</text><line style="stroke:#181818;stroke-width:1.0;" x1="732" x2="774" y1="879.1016" y2="879.1016"/><line style="stroke:#181818;stroke-width:1.0;" x1="774" x2="774" y1="879.1016" y2="892.1016"/><line style="stroke:#181818;stroke-width:1.0;" x1="733" x2="774" y1="892.1016" y2="892.1016"/><polygon fill="#181818" points="743,888.1016,733,892.1016,743,896.1016,739,892.1016" style="stroke:#181818;stroke-width:1.0;"/><text fill="#000000" font-family="sans-serif" font-size="13" lengthAdjust="spacing" textLength="140" x="739" y="874.0356">Verify payment inputs</text><path d="M50,907.1016 L114,907.1016 L114,914.2344 L104,924.2344 L50,924.2344 L50,907.1016 " fill="#EEEEEE" style="stroke:#000000;stroke-width:1.5;"/><rect fill="none" height="183.7344" style="stroke:#000000;stroke-width:1.5;" width="875" x="50" y="907.1016"/><text fill="#000000" font-family="sans-serif" font-size="13" font-weight="bold" lengthAdjust="spacing" textLength="19" x="65" y="920.1685">alt</text><text fill="#000000" font-family="sans-serif" font-size="11" font-weight="bold" lengthAdjust="spacing" textLength="174" x="129" y="919.312">[Payment verification fails]</text><line style="stroke:#181818;stroke-width:2.0;" x1="122" x2="132" y1="973.6328" y2="983.6328"/><line style="stroke:#181818;stroke-width:2.0;" x1="122" x2="132" y1="983.6328" y2="973.6328"/><line style="stroke:#181818;stroke-width:1.0;" x1="127" x2="721" y1="978.6328" y2="978.6328"/><text fill="#000000" font-family="sans-serif" font-size="13" lengthAdjust="spacing" textLength="70" x="132" y="958.4341">Revert with</text><text fill="#000000" font-family="sans-serif" font-size="13" lengthAdjust="spacing" textLength="92" x="132" y="973.5669">payment error</text><path d="M737,929.2344 L737,999.2344 L915,999.2344 L915,939.2344 L905,929.2344 L737,929.2344 " fill="#FEFFDD" style="stroke:#181818;stroke-width:0.5;"/><path d="M905,929.2344 L905,939.2344 L915,939.2344 L905,929.2344 " fill="#FEFFDD" style="stroke:#181818;stroke-width:0.5;"/><text fill="#000000" font-family="sans-serif" font-size="13" lengthAdjust="spacing" textLength="60" x="743" y="946.3013">Could be:</text><text fill="#000000" font-family="sans-serif" font-size="13" lengthAdjust="spacing" textLength="134" x="743" y="961.4341">&#8226; Insufficient balance</text><text fill="#000000" font-family="sans-serif" font-size="13" lengthAdjust="spacing" textLength="136" x="743" y="976.5669">&#8226; Invalid EVVM nonce</text><text fill="#000000" font-family="sans-serif" font-size="13" lengthAdjust="spacing" textLength="157" x="743" y="991.6997">&#8226; Invalid EVVM signature</text><line style="stroke:#000000;stroke-width:1.0;stroke-dasharray:2.0,2.0;" x1="50" x2="925" y1="1005.7656" y2="1005.7656"/><text fill="#000000" font-family="sans-serif" font-size="11" font-weight="bold" lengthAdjust="spacing" textLength="129" x="55" y="1015.9761">[Payment succeeds]</text><line style="stroke:#181818;stroke-width:1.0;" x1="732" x2="774" y1="1040.7031" y2="1040.7031"/><line style="stroke:#181818;stroke-width:1.0;" x1="774" x2="774" y1="1040.7031" y2="1053.7031"/><line style="stroke:#181818;stroke-width:1.0;" x1="733" x2="774" y1="1053.7031" y2="1053.7031"/><polygon fill="#181818" points="743,1049.7031,733,1053.7031,743,1057.7031,739,1053.7031" style="stroke:#181818;stroke-width:1.0;"/><text fill="#000000" font-family="sans-serif" font-size="13" lengthAdjust="spacing" textLength="108" x="739" y="1035.6372">Update balances</text><polygon fill="#181818" points="368,1078.8359,358,1082.8359,368,1086.8359,364,1082.8359" style="stroke:#181818;stroke-width:1.0;"/><line style="stroke:#181818;stroke-width:1.0;" x1="362" x2="726" y1="1082.8359" y2="1082.8359"/><text fill="#000000" font-family="sans-serif" font-size="13" lengthAdjust="spacing" textLength="127" x="374" y="1077.77">Payment processed</text><line style="stroke:#181818;stroke-width:1.0;" x1="357" x2="399" y1="1134.1016" y2="1134.1016"/><line style="stroke:#181818;stroke-width:1.0;" x1="399" x2="399" y1="1134.1016" y2="1147.1016"/><line style="stroke:#181818;stroke-width:1.0;" x1="358" x2="399" y1="1147.1016" y2="1147.1016"/><polygon fill="#181818" points="368,1143.1016,358,1147.1016,368,1151.1016,364,1147.1016" style="stroke:#181818;stroke-width:1.0;"/><text fill="#000000" font-family="sans-serif" font-size="13" lengthAdjust="spacing" textLength="161" x="364" y="1113.9028">makeCaPay(msg.sender,</text><text fill="#000000" font-family="sans-serif" font-size="13" lengthAdjust="spacing" textLength="285" x="364" y="1129.0356">(5x reward * metadata) + priorityFee_EVVM)</text><polygon fill="#181818" points="710,1172.2344,720,1176.2344,710,1180.2344,714,1176.2344" style="stroke:#181818;stroke-width:1.0;"/><line style="stroke:#181818;stroke-width:1.0;" x1="357" x2="716" y1="1176.2344" y2="1176.2344"/><text fill="#000000" font-family="sans-serif" font-size="13" lengthAdjust="spacing" textLength="60" x="364" y="1171.1685">caPay(&#183;&#183;&#183;)</text><path d="M50,1191.2344 L114,1191.2344 L114,1198.3672 L104,1208.3672 L50,1208.3672 L50,1191.2344 " fill="#EEEEEE" style="stroke:#000000;stroke-width:1.5;"/><rect fill="none" height="279.8672" style="stroke:#000000;stroke-width:1.5;" width="884" x="50" y="1191.2344"/><text fill="#000000" font-family="sans-serif" font-size="13" font-weight="bold" lengthAdjust="spacing" textLength="19" x="65" y="1204.3013">alt</text><text fill="#000000" font-family="sans-serif" font-size="11" font-weight="bold" lengthAdjust="spacing" textLength="80" x="129" y="1203.4448">[caPay fails]</text><line style="stroke:#181818;stroke-width:2.0;" x1="122" x2="132" y1="1242.6328" y2="1252.6328"/><line style="stroke:#181818;stroke-width:2.0;" x1="122" x2="132" y1="1252.6328" y2="1242.6328"/><line style="stroke:#181818;stroke-width:1.0;" x1="127" x2="721" y1="1247.6328" y2="1247.6328"/><text fill="#000000" font-family="sans-serif" font-size="13" lengthAdjust="spacing" textLength="70" x="132" y="1227.4341">Revert with</text><text fill="#000000" font-family="sans-serif" font-size="13" lengthAdjust="spacing" textLength="73" x="132" y="1242.5669">caPay error</text><path d="M737,1213.3672 L737,1253.3672 L911,1253.3672 L911,1223.3672 L901,1213.3672 L737,1213.3672 " fill="#FEFFDD" style="stroke:#181818;stroke-width:0.5;"/><path d="M901,1213.3672 L901,1223.3672 L911,1223.3672 L901,1213.3672 " fill="#FEFFDD" style="stroke:#181818;stroke-width:0.5;"/><text fill="#000000" font-family="sans-serif" font-size="13" lengthAdjust="spacing" textLength="153" x="743" y="1230.4341">Contract balance issues</text><text fill="#000000" font-family="sans-serif" font-size="13" lengthAdjust="spacing" textLength="134" x="743" y="1245.5669">or other EVVM errors</text><line style="stroke:#000000;stroke-width:1.0;stroke-dasharray:2.0,2.0;" x1="50" x2="934" y1="1259.6328" y2="1259.6328"/><text fill="#000000" font-family="sans-serif" font-size="11" font-weight="bold" lengthAdjust="spacing" textLength="112" x="55" y="1269.8433">[caPay succeeds]</text><line style="stroke:#181818;stroke-width:1.0;" x1="732" x2="774" y1="1294.5703" y2="1294.5703"/><line style="stroke:#181818;stroke-width:1.0;" x1="774" x2="774" y1="1294.5703" y2="1307.5703"/><line style="stroke:#181818;stroke-width:1.0;" x1="733" x2="774" y1="1307.5703" y2="1307.5703"/><polygon fill="#181818" points="743,1303.5703,733,1307.5703,743,1311.5703,739,1307.5703" style="stroke:#181818;stroke-width:1.0;"/><text fill="#000000" font-family="sans-serif" font-size="13" lengthAdjust="spacing" textLength="183" x="739" y="1289.5044">Update balances for rewards</text><polygon fill="#181818" points="368,1332.7031,358,1336.7031,368,1340.7031,364,1336.7031" style="stroke:#181818;stroke-width:1.0;"/><line style="stroke:#181818;stroke-width:1.0;" x1="362" x2="726" y1="1336.7031" y2="1336.7031"/><text fill="#000000" font-family="sans-serif" font-size="13" lengthAdjust="spacing" textLength="118" x="374" y="1331.6372">Reward distributed</text><line style="stroke:#181818;stroke-width:1.0;" x1="357" x2="399" y1="1365.8359" y2="1365.8359"/><line style="stroke:#181818;stroke-width:1.0;" x1="399" x2="399" y1="1365.8359" y2="1378.8359"/><line style="stroke:#181818;stroke-width:1.0;" x1="358" x2="399" y1="1378.8359" y2="1378.8359"/><polygon fill="#181818" points="368,1374.8359,358,1378.8359,368,1382.8359,364,1378.8359" style="stroke:#181818;stroke-width:1.0;"/><text fill="#000000" font-family="sans-serif" font-size="13" lengthAdjust="spacing" textLength="233" x="364" y="1360.77">for loop: delete all custom metadata</text><line style="stroke:#181818;stroke-width:1.0;" x1="357" x2="399" y1="1407.9688" y2="1407.9688"/><line style="stroke:#181818;stroke-width:1.0;" x1="399" x2="399" y1="1407.9688" y2="1420.9688"/><line style="stroke:#181818;stroke-width:1.0;" x1="358" x2="399" y1="1420.9688" y2="1420.9688"/><polygon fill="#181818" points="368,1416.9688,358,1420.9688,368,1424.9688,364,1420.9688" style="stroke:#181818;stroke-width:1.0;"/><text fill="#000000" font-family="sans-serif" font-size="13" lengthAdjust="spacing" textLength="206" x="364" y="1402.9028">Reset identityDetails[username]</text><line style="stroke:#181818;stroke-width:1.0;" x1="357" x2="399" y1="1455.1016" y2="1455.1016"/><line style="stroke:#181818;stroke-width:1.0;" x1="399" x2="399" y1="1455.1016" y2="1468.1016"/><line style="stroke:#181818;stroke-width:1.0;" x1="352" x2="399" y1="1468.1016" y2="1468.1016"/><polygon fill="#181818" points="362,1464.1016,352,1468.1016,362,1472.1016,358,1468.1016" style="stroke:#181818;stroke-width:1.0;"/><text fill="#000000" font-family="sans-serif" font-size="13" lengthAdjust="spacing" textLength="257" x="364" y="1450.0356">markAsyncNonceAsUsed(user, nonce)</text><!--SRC=[fLR1Rjj83BthAuZqKc-JNNU1ee3H5iXcxTqSsXX9cqiI5BH4sOEEPuIPaHsZM62_fJ_HUp-bNrBEo98bMvMTD04IUKm-Ff9lIBsoRYNfJPJeE9-JSl0v0lxv2-DF_nYTg-HCIsrWEHEEel-YLt-ixIEC7PyVVR1aW1-ko2n4J4U05d8-Yp8qJiGYGyOyUeTpgbkepMTuqk-V3OV3fiFm-lfjiAJ5OkvDXiC_-r7aX9C4gSpjp0VsCF3UeBBCHcW58wcNj-hf28Ma1CRePd02GsEOuB-e4YdKj1T5dX-Sl6cm63HHdtxxwdzxFasnG4UjbAFwuGxWWen8L-VfEwrYEhUd2sQ54xd1Zb0wU9A-cBoSFA_x1eSRp_BkHlddEtZz6fp9AVIc4VG-L9kZNHB7Sx0KRdQh0iAfD8J9YbDAWbz4qZBtq4e85Y0iO4ahsWNVpaWhkRfOAZ8NwNd2OX5kLIKJ8lW_zQI2EX9Dt77jG2yLk1a5nXuuc1-SaTkAN7c7XtfkXIQNoZQZjOThxrhb5KhaDL3phsTOsT5z9WoBxkAIbOHJvdjQIPIxrx_lFwy03invL5VajUSbOlGwB_JTXDESk17JcMEKCrI-ta7HWrlr_VylC5pJA_aMfsD39uQcmZeJW666TbPyTQuMACN60QpZQz28MNtOBlxF2dTWyT-IjJYbAp5Lb8oq6RNUp5Ocs-tn6EXoGmNqkdwGSW5jm-d0bgohKi5UgDfesm5i7DIBjA75LGg8KJURxKBDyHEDiRnznp0bDpRyrNlTB5RPlTunL5DdEr2eLy4hCq8RlbiZLl17FuCRWsSFmp2g1v3XwienFVCHxKh5hVsgGfVJjJ7cjwtgbMjbc29RF8fY9qDIINTBWv67t41V5-E38uHjAbIMExiVfQxPyTht0CLk2BJBjQH1VWMs5wWnDtGk4vZGe1m1Da-PWV0G4vJ8AwCv7483mefgERUbo3iRMcPhypWcIhfoh8hy8KkyQDQKkbsQzwQCbXdDZfQILj-46i9i5SR3x-iP-XixjzFVBGEGEUOtbHVtO6Y99e7VO4uEEI_imREDp8c2odlx9TGkzHWtOs8NvB3xrwdM4E2HyYny3nQduYqLLqhaqMbpihUAN-uqBtfJg2wWsKx95M5_GN2GSioYRmyHtsNHwSIlMp79tIFLrzgIlGhqbANMsO3n9J4sIWbnRfsULygB7WvxIPPupAtVoVvc81R2JRbsxXw1kET5k5X7-mgdEhRopksjp_dosVyFXZy1_G40]--></g></svg>