<?xml version="1.0" encoding="us-ascii" standalone="no"?><svg xmlns="http://www.w3.org/2000/svg" xmlns:xlink="http://www.w3.org/1999/xlink" contentStyleType="text/css" height="1566px" preserveAspectRatio="none" style="width:1005px;height:1566px;background:#FFFFFF;" version="1.1" viewBox="0 0 1005 1566" width="1005px" zoomAndPan="magnify"><defs/><g><text fill="#000000" font-family="sans-serif" font-size="14" font-weight="bold" lengthAdjust="spacing" textLength="311" x="348" y="27.9951">flushCustomMetadata Transaction Flow</text><text fill="#000000" font-family="sans-serif" font-size="14" font-weight="bold" lengthAdjust="spacing" textLength="227" x="390" y="44.292">(Failed Path - Error Handling)</text><rect fill="#00CEEE" height="1259.8125" style="stroke:#181818;stroke-width:1.0;" width="10" x="345" y="166.0234"/><rect fill="#00EE20" height="283.8047" style="stroke:#181818;stroke-width:1.0;" width="10" x="746" y="768.7656"/><rect fill="#00EE20" height="160.4688" style="stroke:#181818;stroke-width:1.0;" width="10" x="746" y="1145.9688"/><rect fill="#F5B7B1" height="1245.6797" style="stroke:#000000;stroke-width:1.5;" width="988" x="10" y="223.1563"/><rect fill="#FFFFFF" height="1184.2813" style="stroke:none;stroke-width:1.0;" width="988" x="10" y="284.5547"/><rect fill="#F5B7B1" height="1113.3438" style="stroke:#000000;stroke-width:1.5;" width="968" x="20" y="348.4922"/><rect fill="#FFFFFF" height="1051.9453" style="stroke:none;stroke-width:1.0;" width="968" x="20" y="409.8906"/><rect fill="#F5B7B1" height="981.0078" style="stroke:#000000;stroke-width:1.5;" width="948" x="30" y="473.8281"/><rect fill="#FFFFFF" height="919.6094" style="stroke:none;stroke-width:1.0;" width="948" x="30" y="535.2266"/><rect fill="#F5B7B1" height="848.6719" style="stroke:#000000;stroke-width:1.5;" width="928" x="40" y="599.1641"/><rect fill="#FFFFFF" height="781.2734" style="stroke:none;stroke-width:1.0;" width="928" x="40" y="666.5625"/><rect fill="#FFFFFF" height="90.2031" style="stroke:#000000;stroke-width:1.5;" width="499.5" x="288" y="730.5"/><rect fill="#FFFFFF" height="43.9375" style="stroke:none;stroke-width:1.0;" width="499.5" x="288" y="776.7656"/><rect fill="#F5B7B1" height="183.7344" style="stroke:#000000;stroke-width:1.5;" width="899" x="50" y="876.8359"/><rect fill="#FFFFFF" height="86.0703" style="stroke:none;stroke-width:1.0;" width="899" x="50" y="974.5"/><rect fill="#F5B7B1" height="279.8672" style="stroke:#000000;stroke-width:1.5;" width="908" x="50" y="1160.9688"/><rect fill="#FFFFFF" height="212.4688" style="stroke:none;stroke-width:1.0;" width="908" x="50" y="1228.3672"/><line style="stroke:#181818;stroke-width:0.5;stroke-dasharray:5.0,5.0;" x1="115" x2="115" y1="134.8906" y2="1485.8359"/><line style="stroke:#181818;stroke-width:0.5;stroke-dasharray:5.0,5.0;" x1="350" x2="350" y1="134.8906" y2="1485.8359"/><line style="stroke:#181818;stroke-width:0.5;stroke-dasharray:5.0,5.0;" x1="750.5" x2="750.5" y1="134.8906" y2="1485.8359"/><text fill="#000000" font-family="sans-serif" font-size="14" lengthAdjust="spacing" textLength="104" x="60" y="131.5889">User or Service</text><ellipse cx="115" cy="67.0938" fill="#E2E2F0" rx="8" ry="8" style="stroke:#181818;stroke-width:0.5;"/><path d="M115,75.0938 L115,102.0938 M102,83.0938 L128,83.0938 M115,102.0938 L102,117.0938 M115,102.0938 L128,117.0938 " fill="none" style="stroke:#181818;stroke-width:0.5;"/><text fill="#000000" font-family="sans-serif" font-size="14" lengthAdjust="spacing" textLength="104" x="60" y="1497.8311">User or Service</text><ellipse cx="115" cy="1509.6328" fill="#E2E2F0" rx="8" ry="8" style="stroke:#181818;stroke-width:0.5;"/><path d="M115,1517.6328 L115,1544.6328 M102,1525.6328 L128,1525.6328 M115,1544.6328 L102,1559.6328 M115,1544.6328 L128,1559.6328 " fill="none" style="stroke:#181818;stroke-width:0.5;"/><rect fill="#00CEEE" height="30.2969" rx="2.5" ry="2.5" style="stroke:#181818;stroke-width:0.5;" width="104" x="298" y="103.5938"/><text fill="#000000" font-family="sans-serif" font-size="14" lengthAdjust="spacing" textLength="90" x="305" y="123.5889">NameService</text><rect fill="#00CEEE" height="30.2969" rx="2.5" ry="2.5" style="stroke:#181818;stroke-width:0.5;" width="104" x="298" y="1484.8359"/><text fill="#000000" font-family="sans-serif" font-size="14" lengthAdjust="spacing" textLength="90" x="305" y="1504.8311">NameService</text><rect fill="#00EE20" height="30.2969" rx="2.5" ry="2.5" style="stroke:#181818;stroke-width:0.5;" width="53" x="724.5" y="103.5938"/><text fill="#000000" font-family="sans-serif" font-size="14" lengthAdjust="spacing" textLength="39" x="731.5" y="123.5889">EVVM</text><rect fill="#00EE20" height="30.2969" rx="2.5" ry="2.5" style="stroke:#181818;stroke-width:0.5;" width="53" x="724.5" y="1484.8359"/><text fill="#000000" font-family="sans-serif" font-size="14" lengthAdjust="spacing" textLength="39" x="731.5" y="1504.8311">EVVM</text><rect fill="#00CEEE" height="1259.8125" style="stroke:#181818;stroke-width:1.0;" width="10" x="345" y="166.0234"/><rect fill="#00EE20" height="283.8047" style="stroke:#181818;stroke-width:1.0;" width="10" x="746" y="768.7656"/><rect fill="#00EE20" height="160.4688" style="stroke:#181818;stroke-width:1.0;" width="10" x="746" y="1145.9688"/><polygon fill="#181818" points="333,162.0234,343,166.0234,333,170.0234,337,166.0234" style="stroke:#181818;stroke-width:1.0;"/><line style="stroke:#181818;stroke-width:1.0;" x1="115" x2="339" y1="166.0234" y2="166.0234"/><text fill="#000000" font-family="sans-serif" font-size="13" lengthAdjust="spacing" textLength="163" x="122" y="160.9575">flushCustomMetadata(&#183;&#183;&#183;)</text><line style="stroke:#181818;stroke-width:1.0;" x1="355" x2="397" y1="195.1563" y2="195.1563"/><line style="stroke:#181818;stroke-width:1.0;" x1="397" x2="397" y1="195.1563" y2="208.1563"/><line style="stroke:#181818;stroke-width:1.0;" x1="356" x2="397" y1="208.1563" y2="208.1563"/><polygon fill="#181818" points="366,204.1563,356,208.1563,366,212.1563,362,208.1563" style="stroke:#181818;stroke-width:1.0;"/><text fill="#000000" font-family="sans-serif" font-size="13" lengthAdjust="spacing" textLength="149" x="362" y="190.0903">onlyOwnerOfIdentity(&#183;&#183;&#183;)</text><path d="M10,223.1563 L74,223.1563 L74,230.2891 L64,240.2891 L10,240.2891 L10,223.1563 " fill="#EEEEEE" style="stroke:#000000;stroke-width:1.5;"/><rect fill="none" height="1245.6797" style="stroke:#000000;stroke-width:1.5;" width="988" x="10" y="223.1563"/><text fill="#000000" font-family="sans-serif" font-size="13" font-weight="bold" lengthAdjust="spacing" textLength="19" x="25" y="236.2231">alt</text><text fill="#000000" font-family="sans-serif" font-size="11" font-weight="bold" lengthAdjust="spacing" textLength="208" x="89" y="235.3667">[User does not own the identity]</text><line style="stroke:#181818;stroke-width:2.0;" x1="122" x2="132" y1="271.5547" y2="281.5547"/><line style="stroke:#181818;stroke-width:2.0;" x1="122" x2="132" y1="281.5547" y2="271.5547"/><line style="stroke:#181818;stroke-width:1.0;" x1="127" x2="344" y1="276.5547" y2="276.5547"/><text fill="#000000" font-family="sans-serif" font-size="13" lengthAdjust="spacing" textLength="70" x="132" y="256.356">Revert with</text><text fill="#000000" font-family="sans-serif" font-size="13" lengthAdjust="spacing" textLength="124" x="132" y="271.4888">NotOwnerOfIdentity</text><line style="stroke:#000000;stroke-width:1.0;stroke-dasharray:2.0,2.0;" x1="10" x2="998" y1="285.5547" y2="285.5547"/><text fill="#000000" font-family="sans-serif" font-size="11" font-weight="bold" lengthAdjust="spacing" textLength="155" x="15" y="295.7651">[User owns the identity]</text><line style="stroke:#181818;stroke-width:1.0;" x1="355" x2="397" y1="320.4922" y2="320.4922"/><line style="stroke:#181818;stroke-width:1.0;" x1="397" x2="397" y1="320.4922" y2="333.4922"/><line style="stroke:#181818;stroke-width:1.0;" x1="356" x2="397" y1="333.4922" y2="333.4922"/><polygon fill="#181818" points="366,329.4922,356,333.4922,366,337.4922,362,333.4922" style="stroke:#181818;stroke-width:1.0;"/><text fill="#000000" font-family="sans-serif" font-size="13" lengthAdjust="spacing" textLength="171" x="362" y="315.4263">verifyIfNonceIsAvailable(&#183;&#183;&#183;)</text><path d="M20,348.4922 L84,348.4922 L84,355.625 L74,365.625 L20,365.625 L20,348.4922 " fill="#EEEEEE" style="stroke:#000000;stroke-width:1.5;"/><rect fill="none" height="1113.3438" style="stroke:#000000;stroke-width:1.5;" width="968" x="20" y="348.4922"/><text fill="#000000" font-family="sans-serif" font-size="13" font-weight="bold" lengthAdjust="spacing" textLength="19" x="35" y="361.5591">alt</text><text fill="#000000" font-family="sans-serif" font-size="11" font-weight="bold" lengthAdjust="spacing" textLength="271" x="99" y="360.7026">[nameServiceNonce[user][nonce] == true]</text><line style="stroke:#181818;stroke-width:2.0;" x1="122" x2="132" y1="396.8906" y2="406.8906"/><line style="stroke:#181818;stroke-width:2.0;" x1="122" x2="132" y1="406.8906" y2="396.8906"/><line style="stroke:#181818;stroke-width:1.0;" x1="127" x2="344" y1="401.8906" y2="401.8906"/><text fill="#000000" font-family="sans-serif" font-size="13" lengthAdjust="spacing" textLength="70" x="132" y="381.6919">Revert with</text><text fill="#000000" font-family="sans-serif" font-size="13" lengthAdjust="spacing" textLength="122" x="132" y="396.8247">NonceAlreadyUsed</text><line style="stroke:#000000;stroke-width:1.0;stroke-dasharray:2.0,2.0;" x1="20" x2="988" y1="410.8906" y2="410.8906"/><text fill="#000000" font-family="sans-serif" font-size="11" font-weight="bold" lengthAdjust="spacing" textLength="128" x="25" y="421.1011">[Nonce is available]</text><line style="stroke:#181818;stroke-width:1.0;" x1="355" x2="397" y1="445.8281" y2="445.8281"/><line style="stroke:#181818;stroke-width:1.0;" x1="397" x2="397" y1="445.8281" y2="458.8281"/><line style="stroke:#181818;stroke-width:1.0;" x1="356" x2="397" y1="458.8281" y2="458.8281"/><polygon fill="#181818" points="366,454.8281,356,458.8281,366,462.8281,362,458.8281" style="stroke:#181818;stroke-width:1.0;"/><text fill="#000000" font-family="sans-serif" font-size="13" lengthAdjust="spacing" textLength="321" x="362" y="440.7622">verifyMessageSignedForFlushCustomMetadata(&#183;&#183;&#183;)</text><path d="M30,473.8281 L94,473.8281 L94,480.9609 L84,490.9609 L30,490.9609 L30,473.8281 " fill="#EEEEEE" style="stroke:#000000;stroke-width:1.5;"/><rect fill="none" height="981.0078" style="stroke:#000000;stroke-width:1.5;" width="948" x="30" y="473.8281"/><text fill="#000000" font-family="sans-serif" font-size="13" font-weight="bold" lengthAdjust="spacing" textLength="19" x="45" y="486.895">alt</text><text fill="#000000" font-family="sans-serif" font-size="11" font-weight="bold" lengthAdjust="spacing" textLength="181" x="109" y="486.0386">[Signature verification fails]</text><line style="stroke:#181818;stroke-width:2.0;" x1="122" x2="132" y1="522.2266" y2="532.2266"/><line style="stroke:#181818;stroke-width:2.0;" x1="122" x2="132" y1="532.2266" y2="522.2266"/><line style="stroke:#181818;stroke-width:1.0;" x1="127" x2="344" y1="527.2266" y2="527.2266"/><text fill="#000000" font-family="sans-serif" font-size="13" lengthAdjust="spacing" textLength="70" x="132" y="507.0278">Revert with</text><text fill="#000000" font-family="sans-serif" font-size="13" lengthAdjust="spacing" textLength="206" x="132" y="522.1606">InvalidSignatureOnNameService</text><line style="stroke:#000000;stroke-width:1.0;stroke-dasharray:2.0,2.0;" x1="30" x2="978" y1="536.2266" y2="536.2266"/><text fill="#000000" font-family="sans-serif" font-size="11" font-weight="bold" lengthAdjust="spacing" textLength="122" x="35" y="546.437">[Signature is valid]</text><line style="stroke:#181818;stroke-width:1.0;" x1="355" x2="397" y1="571.1641" y2="571.1641"/><line style="stroke:#181818;stroke-width:1.0;" x1="397" x2="397" y1="571.1641" y2="584.1641"/><line style="stroke:#181818;stroke-width:1.0;" x1="356" x2="397" y1="584.1641" y2="584.1641"/><polygon fill="#181818" points="366,580.1641,356,584.1641,366,588.1641,362,584.1641" style="stroke:#181818;stroke-width:1.0;"/><text fill="#000000" font-family="sans-serif" font-size="13" lengthAdjust="spacing" textLength="232" x="362" y="566.0981">verify customMetadataMaxSlots &gt; 0</text><path d="M40,599.1641 L104,599.1641 L104,606.2969 L94,616.2969 L40,616.2969 L40,599.1641 " fill="#EEEEEE" style="stroke:#000000;stroke-width:1.5;"/><rect fill="none" height="848.6719" style="stroke:#000000;stroke-width:1.5;" width="928" x="40" y="599.1641"/><text fill="#000000" font-family="sans-serif" font-size="13" font-weight="bold" lengthAdjust="spacing" textLength="19" x="55" y="612.231">alt</text><text fill="#000000" font-family="sans-serif" font-size="11" font-weight="bold" lengthAdjust="spacing" textLength="209" x="119" y="611.3745">[customMetadataMaxSlots == 0]</text><line style="stroke:#181818;stroke-width:2.0;" x1="122" x2="132" y1="650.5625" y2="660.5625"/><line style="stroke:#181818;stroke-width:2.0;" x1="122" x2="132" y1="660.5625" y2="650.5625"/><line style="stroke:#181818;stroke-width:1.0;" x1="127" x2="344" y1="655.5625" y2="655.5625"/><text fill="#000000" font-family="sans-serif" font-size="13" lengthAdjust="spacing" textLength="70" x="132" y="635.3638">Revert with</text><text fill="#000000" font-family="sans-serif" font-size="13" lengthAdjust="spacing" textLength="152" x="132" y="650.4966">EmptyCustomMetadata</text><path d="M360,621.2969 L360,661.2969 L548,661.2969 L548,631.2969 L538,621.2969 L360,621.2969 " fill="#FEFFDD" style="stroke:#181818;stroke-width:0.5;"/><path d="M538,621.2969 L538,631.2969 L548,631.2969 L538,621.2969 " fill="#FEFFDD" style="stroke:#181818;stroke-width:0.5;"/><text fill="#000000" font-family="sans-serif" font-size="13" lengthAdjust="spacing" textLength="167" x="366" y="638.3638">No metadata entries exist</text><text fill="#000000" font-family="sans-serif" font-size="13" lengthAdjust="spacing" textLength="47" x="366" y="653.4966">to flush</text><line style="stroke:#000000;stroke-width:1.0;stroke-dasharray:2.0,2.0;" x1="40" x2="968" y1="667.5625" y2="667.5625"/><text fill="#000000" font-family="sans-serif" font-size="11" font-weight="bold" lengthAdjust="spacing" textLength="148" x="45" y="677.7729">[Has metadata entries]</text><line style="stroke:#181818;stroke-width:1.0;" x1="355" x2="397" y1="702.5" y2="702.5"/><line style="stroke:#181818;stroke-width:1.0;" x1="397" x2="397" y1="702.5" y2="715.5"/><line style="stroke:#181818;stroke-width:1.0;" x1="356" x2="397" y1="715.5" y2="715.5"/><polygon fill="#181818" points="366,711.5,356,715.5,366,719.5,362,715.5" style="stroke:#181818;stroke-width:1.0;"/><text fill="#000000" font-family="sans-serif" font-size="13" lengthAdjust="spacing" textLength="377" x="362" y="697.4341">makePay(&#183;&#183;&#183;, getPriceToFlushCustomMetadata(identity), &#183;&#183;&#183;)</text><path d="M288,730.5 L352,730.5 L352,737.6328 L342,747.6328 L288,747.6328 L288,730.5 " fill="#EEEEEE" style="stroke:#000000;stroke-width:1.5;"/><rect fill="none" height="90.2031" style="stroke:#000000;stroke-width:1.5;" width="499.5" x="288" y="730.5"/><text fill="#000000" font-family="sans-serif" font-size="13" font-weight="bold" lengthAdjust="spacing" textLength="19" x="303" y="743.5669">alt</text><text fill="#000000" font-family="sans-serif" font-size="11" font-weight="bold" lengthAdjust="spacing" textLength="177" x="367" y="742.7104">[priorityFlag_EVVM == true]</text><polygon fill="#181818" points="734,764.7656,744,768.7656,734,772.7656,738,768.7656" style="stroke:#181818;stroke-width:1.0;"/><line style="stroke:#181818;stroke-width:1.0;" x1="355" x2="740" y1="768.7656" y2="768.7656"/><text fill="#000000" font-family="sans-serif" font-size="13" lengthAdjust="spacing" textLength="131" x="362" y="763.6997">payStaker_async(&#183;&#183;&#183;)</text><line style="stroke:#000000;stroke-width:1.0;stroke-dasharray:2.0,2.0;" x1="288" x2="787.5" y1="777.7656" y2="777.7656"/><text fill="#000000" font-family="sans-serif" font-size="11" font-weight="bold" lengthAdjust="spacing" textLength="183" x="293" y="787.9761">[priorityFlag_EVVM == false]</text><polygon fill="#181818" points="734,808.7031,744,812.7031,734,816.7031,738,812.7031" style="stroke:#181818;stroke-width:1.0;"/><line style="stroke:#181818;stroke-width:1.0;" x1="355" x2="740" y1="812.7031" y2="812.7031"/><text fill="#000000" font-family="sans-serif" font-size="13" lengthAdjust="spacing" textLength="123" x="362" y="807.6372">payStaker_sync(&#183;&#183;&#183;)</text><line style="stroke:#181818;stroke-width:1.0;" x1="756" x2="798" y1="848.8359" y2="848.8359"/><line style="stroke:#181818;stroke-width:1.0;" x1="798" x2="798" y1="848.8359" y2="861.8359"/><line style="stroke:#181818;stroke-width:1.0;" x1="757" x2="798" y1="861.8359" y2="861.8359"/><polygon fill="#181818" points="767,857.8359,757,861.8359,767,865.8359,763,861.8359" style="stroke:#181818;stroke-width:1.0;"/><text fill="#000000" font-family="sans-serif" font-size="13" lengthAdjust="spacing" textLength="140" x="763" y="843.77">Verify payment inputs</text><path d="M50,876.8359 L114,876.8359 L114,883.9688 L104,893.9688 L50,893.9688 L50,876.8359 " fill="#EEEEEE" style="stroke:#000000;stroke-width:1.5;"/><rect fill="none" height="183.7344" style="stroke:#000000;stroke-width:1.5;" width="899" x="50" y="876.8359"/><text fill="#000000" font-family="sans-serif" font-size="13" font-weight="bold" lengthAdjust="spacing" textLength="19" x="65" y="889.9028">alt</text><text fill="#000000" font-family="sans-serif" font-size="11" font-weight="bold" lengthAdjust="spacing" textLength="174" x="129" y="889.0464">[Payment verification fails]</text><line style="stroke:#181818;stroke-width:2.0;" x1="122" x2="132" y1="943.3672" y2="953.3672"/><line style="stroke:#181818;stroke-width:2.0;" x1="122" x2="132" y1="953.3672" y2="943.3672"/><line style="stroke:#181818;stroke-width:1.0;" x1="127" x2="745" y1="948.3672" y2="948.3672"/><text fill="#000000" font-family="sans-serif" font-size="13" lengthAdjust="spacing" textLength="70" x="132" y="928.1685">Revert with</text><text fill="#000000" font-family="sans-serif" font-size="13" lengthAdjust="spacing" textLength="92" x="132" y="943.3013">payment error</text><path d="M761,898.9688 L761,968.9688 L939,968.9688 L939,908.9688 L929,898.9688 L761,898.9688 " fill="#FEFFDD" style="stroke:#181818;stroke-width:0.5;"/><path d="M929,898.9688 L929,908.9688 L939,908.9688 L929,898.9688 " fill="#FEFFDD" style="stroke:#181818;stroke-width:0.5;"/><text fill="#000000" font-family="sans-serif" font-size="13" lengthAdjust="spacing" textLength="60" x="767" y="916.0356">Could be:</text><text fill="#000000" font-family="sans-serif" font-size="13" lengthAdjust="spacing" textLength="134" x="767" y="931.1685">&#8226; Insufficient balance</text><text fill="#000000" font-family="sans-serif" font-size="13" lengthAdjust="spacing" textLength="136" x="767" y="946.3013">&#8226; Invalid EVVM nonce</text><text fill="#000000" font-family="sans-serif" font-size="13" lengthAdjust="spacing" textLength="157" x="767" y="961.4341">&#8226; Invalid EVVM signature</text><line style="stroke:#000000;stroke-width:1.0;stroke-dasharray:2.0,2.0;" x1="50" x2="949" y1="975.5" y2="975.5"/><text fill="#000000" font-family="sans-serif" font-size="11" font-weight="bold" lengthAdjust="spacing" textLength="129" x="55" y="985.7104">[Payment succeeds]</text><line style="stroke:#181818;stroke-width:1.0;" x1="756" x2="798" y1="1010.4375" y2="1010.4375"/><line style="stroke:#181818;stroke-width:1.0;" x1="798" x2="798" y1="1010.4375" y2="1023.4375"/><line style="stroke:#181818;stroke-width:1.0;" x1="757" x2="798" y1="1023.4375" y2="1023.4375"/><polygon fill="#181818" points="767,1019.4375,757,1023.4375,767,1027.4375,763,1023.4375" style="stroke:#181818;stroke-width:1.0;"/><text fill="#000000" font-family="sans-serif" font-size="13" lengthAdjust="spacing" textLength="108" x="763" y="1005.3716">Update balances</text><polygon fill="#181818" points="366,1048.5703,356,1052.5703,366,1056.5703,362,1052.5703" style="stroke:#181818;stroke-width:1.0;"/><line style="stroke:#181818;stroke-width:1.0;" x1="360" x2="750" y1="1052.5703" y2="1052.5703"/><text fill="#000000" font-family="sans-serif" font-size="13" lengthAdjust="spacing" textLength="127" x="372" y="1047.5044">Payment processed</text><line style="stroke:#181818;stroke-width:1.0;" x1="355" x2="397" y1="1103.8359" y2="1103.8359"/><line style="stroke:#181818;stroke-width:1.0;" x1="397" x2="397" y1="1103.8359" y2="1116.8359"/><line style="stroke:#181818;stroke-width:1.0;" x1="356" x2="397" y1="1116.8359" y2="1116.8359"/><polygon fill="#181818" points="366,1112.8359,356,1116.8359,366,1120.8359,362,1116.8359" style="stroke:#181818;stroke-width:1.0;"/><text fill="#000000" font-family="sans-serif" font-size="13" lengthAdjust="spacing" textLength="161" x="362" y="1083.6372">makeCaPay(msg.sender,</text><text fill="#000000" font-family="sans-serif" font-size="13" lengthAdjust="spacing" textLength="266" x="362" y="1098.77">(5x reward * entries) + priorityFee_EVVM)</text><polygon fill="#181818" points="734,1141.9688,744,1145.9688,734,1149.9688,738,1145.9688" style="stroke:#181818;stroke-width:1.0;"/><line style="stroke:#181818;stroke-width:1.0;" x1="355" x2="740" y1="1145.9688" y2="1145.9688"/><text fill="#000000" font-family="sans-serif" font-size="13" lengthAdjust="spacing" textLength="60" x="362" y="1140.9028">caPay(&#183;&#183;&#183;)</text><path d="M50,1160.9688 L114,1160.9688 L114,1168.1016 L104,1178.1016 L50,1178.1016 L50,1160.9688 " fill="#EEEEEE" style="stroke:#000000;stroke-width:1.5;"/><rect fill="none" height="279.8672" style="stroke:#000000;stroke-width:1.5;" width="908" x="50" y="1160.9688"/><text fill="#000000" font-family="sans-serif" font-size="13" font-weight="bold" lengthAdjust="spacing" textLength="19" x="65" y="1174.0356">alt</text><text fill="#000000" font-family="sans-serif" font-size="11" font-weight="bold" lengthAdjust="spacing" textLength="80" x="129" y="1173.1792">[caPay fails]</text><line style="stroke:#181818;stroke-width:2.0;" x1="122" x2="132" y1="1212.3672" y2="1222.3672"/><line style="stroke:#181818;stroke-width:2.0;" x1="122" x2="132" y1="1222.3672" y2="1212.3672"/><line style="stroke:#181818;stroke-width:1.0;" x1="127" x2="745" y1="1217.3672" y2="1217.3672"/><text fill="#000000" font-family="sans-serif" font-size="13" lengthAdjust="spacing" textLength="70" x="132" y="1197.1685">Revert with</text><text fill="#000000" font-family="sans-serif" font-size="13" lengthAdjust="spacing" textLength="73" x="132" y="1212.3013">caPay error</text><path d="M761,1183.1016 L761,1223.1016 L935,1223.1016 L935,1193.1016 L925,1183.1016 L761,1183.1016 " fill="#FEFFDD" style="stroke:#181818;stroke-width:0.5;"/><path d="M925,1183.1016 L925,1193.1016 L935,1193.1016 L925,1183.1016 " fill="#FEFFDD" style="stroke:#181818;stroke-width:0.5;"/><text fill="#000000" font-family="sans-serif" font-size="13" lengthAdjust="spacing" textLength="153" x="767" y="1200.1685">Contract balance issues</text><text fill="#000000" font-family="sans-serif" font-size="13" lengthAdjust="spacing" textLength="134" x="767" y="1215.3013">or other EVVM errors</text><line style="stroke:#000000;stroke-width:1.0;stroke-dasharray:2.0,2.0;" x1="50" x2="958" y1="1229.3672" y2="1229.3672"/><text fill="#000000" font-family="sans-serif" font-size="11" font-weight="bold" lengthAdjust="spacing" textLength="112" x="55" y="1239.5776">[caPay succeeds]</text><line style="stroke:#181818;stroke-width:1.0;" x1="756" x2="798" y1="1264.3047" y2="1264.3047"/><line style="stroke:#181818;stroke-width:1.0;" x1="798" x2="798" y1="1264.3047" y2="1277.3047"/><line style="stroke:#181818;stroke-width:1.0;" x1="757" x2="798" y1="1277.3047" y2="1277.3047"/><polygon fill="#181818" points="767,1273.3047,757,1277.3047,767,1281.3047,763,1277.3047" style="stroke:#181818;stroke-width:1.0;"/><text fill="#000000" font-family="sans-serif" font-size="13" lengthAdjust="spacing" textLength="183" x="763" y="1259.2388">Update balances for rewards</text><polygon fill="#181818" points="366,1302.4375,356,1306.4375,366,1310.4375,362,1306.4375" style="stroke:#181818;stroke-width:1.0;"/><line style="stroke:#181818;stroke-width:1.0;" x1="360" x2="750" y1="1306.4375" y2="1306.4375"/><text fill="#000000" font-family="sans-serif" font-size="13" lengthAdjust="spacing" textLength="118" x="372" y="1301.3716">Reward distributed</text><line style="stroke:#181818;stroke-width:1.0;" x1="355" x2="397" y1="1335.5703" y2="1335.5703"/><line style="stroke:#181818;stroke-width:1.0;" x1="397" x2="397" y1="1335.5703" y2="1348.5703"/><line style="stroke:#181818;stroke-width:1.0;" x1="356" x2="397" y1="1348.5703" y2="1348.5703"/><polygon fill="#181818" points="366,1344.5703,356,1348.5703,366,1352.5703,362,1348.5703" style="stroke:#181818;stroke-width:1.0;"/><text fill="#000000" font-family="sans-serif" font-size="13" lengthAdjust="spacing" textLength="229" x="362" y="1330.5044">for loop: delete all metadata entries</text><line style="stroke:#181818;stroke-width:1.0;" x1="355" x2="397" y1="1377.7031" y2="1377.7031"/><line style="stroke:#181818;stroke-width:1.0;" x1="397" x2="397" y1="1377.7031" y2="1390.7031"/><line style="stroke:#181818;stroke-width:1.0;" x1="356" x2="397" y1="1390.7031" y2="1390.7031"/><polygon fill="#181818" points="366,1386.7031,356,1390.7031,366,1394.7031,362,1390.7031" style="stroke:#181818;stroke-width:1.0;"/><text fill="#000000" font-family="sans-serif" font-size="13" lengthAdjust="spacing" textLength="346" x="362" y="1372.6372">identityDetails[identity].customMetadataMaxSlots = 0</text><line style="stroke:#181818;stroke-width:1.0;" x1="355" x2="397" y1="1424.8359" y2="1424.8359"/><line style="stroke:#181818;stroke-width:1.0;" x1="397" x2="397" y1="1424.8359" y2="1437.8359"/><line style="stroke:#181818;stroke-width:1.0;" x1="350" x2="397" y1="1437.8359" y2="1437.8359"/><polygon fill="#181818" points="360,1433.8359,350,1437.8359,360,1441.8359,356,1437.8359" style="stroke:#181818;stroke-width:1.0;"/><text fill="#000000" font-family="sans-serif" font-size="13" lengthAdjust="spacing" textLength="257" x="362" y="1419.77">nameServiceNonce[user][nonce] = true</text><!--SRC=[fLRDRjiu4BxhAGRffUwctMo1ea2G1cYzzjQ7_A1fSec3OYoERA8qAP2K7QCeq6VfI_I-Zx9FiYCgiYLRbftK0MA9dldcc-776Puulr1q6WaJPrFI7hv5m9yF67_znvfCYwvHni9y8Zr5twEJFn_i8umzhnzSExB03rTaPpAc0q076Qz5ALelOvaYOnwSuvIg5dhr3i-EZhgzNg_kqBkvEGkMD9jDSvDUx_LH57df5K6YCZVfPiwRwHbv5EWHFblKZZb9ew6lp7oed_THAX9mYNu2Bw5dBTFyY5eegSUTACfPmilJ6fVZ9kpd__xA_pfvodA6dXhfHzN53LYZrU9YhibU90F1PPP-iOIDK7bubhmPlHtz1Q6UmX3No7WmSmr-GY0VVCBUr0BTXsfpX4yq8-jXBlragC-DNuiMF2DIZXc7pImYSG1NZx0POZqNZYEJnI0vDpgcWNi_uphZID4oeH0g_rTDh88H76zptdUtEd- -WtVlmDkCWjVUERBdUsK9nO9p4KlVy53DD5Y2T80brQWvK7EcP-GSZkbAZZM9lh7z5edKEAoN84T0dragW6MCGQu9at9BXpsp7-WPAYcMa1UwSiPgOCkNQabMLBWi0IdQpg2vB13NId26zrVAU0UdSDGSVxqSM_nP2dM0FIlIcwP-KT-MJHZ3kLivddZsFZSmBTi7YzzAFdHqBvqVQc-AHh01K5ke5lGZzwfrjAWzZVMoJl4hNMBP5mvXJFxIya-VJPFYoWFREOHb8raF5wfTy4kjD9RD-mh7N_Bkkd7aMdY69dmCAIwkF9EqNz0jTBmX-bheibVM6lYwLRM2ZGmJP8idKMnbI5gqRsqmoY5Nq3U5wZb2c9DIfvbtkr6gYhzyyDrn_Ei4cjLUqg1yh3KNgAhrhicKW14T3_L_Ftx2GBiiOGOoXnYXGcwGvI-X6q3OWD2S6zPTsJrQDxJCrcLnJ2JQSbmM-JeLkMWUABMxr4zF6IsrXXshyw3w4LGJPgCm7dzgkvYVswaRlt8CGFQGRnzlxi7I7As05sK_wC0VAvKJ1P5tTYkeMUanhdh59iX-nwzLh2704zLP-EwjJIuF4ovtdKUIoyWDDT_N3DzDR26wWEPQ5LU4_GszGS8nYsrxZFO-5HijU7POEShy4yNNk2Kx1PXJLiQanuolYB5HgJr6qKxSSi3ypL2iWTlo_UxLji7DS_lnONRS2uiPjQkSUilTf_58Lvj_-Pn_1yCjeFy3]--></g></svg>