<?xml version="1.0" encoding="us-ascii" standalone="no"?><svg xmlns="http://www.w3.org/2000/svg" xmlns:xlink="http://www.w3.org/1999/xlink" contentStyleType="text/css" height="1164px" preserveAspectRatio="none" style="width:875px;height:1164px;background:#FFFFFF;" version="1.1" viewBox="0 0 875 1164" width="875px" zoomAndPan="magnify"><defs/><g><text fill="#000000" font-family="sans-serif" font-size="14" font-weight="bold" lengthAdjust="spacing" textLength="332" x="272.5" y="27.9951">removeCustomMetadata Transaction Flow</text><text fill="#000000" font-family="sans-serif" font-size="14" font-weight="bold" lengthAdjust="spacing" textLength="285" x="296" y="44.292">(Happy Path - Successful Execution)</text><rect fill="#00CEEE" height="907.1953" style="stroke:#181818;stroke-width:1.0;" width="10" x="261" y="166.0234"/><rect fill="#00EE20" height="137.3359" style="stroke:#181818;stroke-width:1.0;" width="10" x="634" y="429.9531"/><rect fill="#00EE20" height="96.9648" style="stroke:#181818;stroke-width:1.0;" width="10" x="634" y="950.6875"/><rect fill="#FFFFFF" height="90.2031" style="stroke:#000000;stroke-width:1.5;" width="471.5" x="204" y="391.6875"/><rect fill="#FFFFFF" height="43.9375" style="stroke:none;stroke-width:1.0;" width="471.5" x="204" y="437.9531"/><rect fill="#FFFFFF" height="189.7344" style="stroke:#000000;stroke-width:1.5;" width="664" x="204" y="582.2891"/><rect fill="#FFFFFF" height="122.3359" style="stroke:none;stroke-width:1.0;" width="664" x="204" y="649.6875"/><rect fill="#FFFFFF" height="195.9297" style="stroke:#000000;stroke-width:1.5;" width="630" x="204" y="870.2891"/><line style="stroke:#181818;stroke-width:0.5;stroke-dasharray:5.0,5.0;" x1="60" x2="60" y1="134.8906" y2="1083.2188"/><line style="stroke:#181818;stroke-width:0.5;stroke-dasharray:5.0,5.0;" x1="266" x2="266" y1="134.8906" y2="1083.2188"/><line style="stroke:#181818;stroke-width:0.5;stroke-dasharray:5.0,5.0;" x1="638.5" x2="638.5" y1="134.8906" y2="1083.2188"/><text fill="#000000" font-family="sans-serif" font-size="14" lengthAdjust="spacing" textLength="104" x="5" y="131.5889">User or Service</text><ellipse cx="60" cy="67.0938" fill="#E2E2F0" rx="8" ry="8" style="stroke:#181818;stroke-width:0.5;"/><path d="M60,75.0938 L60,102.0938 M47,83.0938 L73,83.0938 M60,102.0938 L47,117.0938 M60,102.0938 L73,117.0938 " fill="none" style="stroke:#181818;stroke-width:0.5;"/><text fill="#000000" font-family="sans-serif" font-size="14" lengthAdjust="spacing" textLength="104" x="5" y="1095.2139">User or Service</text><ellipse cx="60" cy="1107.0156" fill="#E2E2F0" rx="8" ry="8" style="stroke:#181818;stroke-width:0.5;"/><path d="M60,1115.0156 L60,1142.0156 M47,1123.0156 L73,1123.0156 M60,1142.0156 L47,1157.0156 M60,1142.0156 L73,1157.0156 " fill="none" style="stroke:#181818;stroke-width:0.5;"/><rect fill="#00CEEE" height="30.2969" rx="2.5" ry="2.5" style="stroke:#181818;stroke-width:0.5;" width="104" x="214" y="103.5938"/><text fill="#000000" font-family="sans-serif" font-size="14" lengthAdjust="spacing" textLength="90" x="221" y="123.5889">NameService</text><rect fill="#00CEEE" height="30.2969" rx="2.5" ry="2.5" style="stroke:#181818;stroke-width:0.5;" width="104" x="214" y="1082.2188"/><text fill="#000000" font-family="sans-serif" font-size="14" lengthAdjust="spacing" textLength="90" x="221" y="1102.2139">NameService</text><rect fill="#00EE20" height="30.2969" rx="2.5" ry="2.5" style="stroke:#181818;stroke-width:0.5;" width="53" x="612.5" y="103.5938"/><text fill="#000000" font-family="sans-serif" font-size="14" lengthAdjust="spacing" textLength="39" x="619.5" y="123.5889">EVVM</text><rect fill="#00EE20" height="30.2969" rx="2.5" ry="2.5" style="stroke:#181818;stroke-width:0.5;" width="53" x="612.5" y="1082.2188"/><text fill="#000000" font-family="sans-serif" font-size="14" lengthAdjust="spacing" textLength="39" x="619.5" y="1102.2139">EVVM</text><rect fill="#00CEEE" height="907.1953" style="stroke:#181818;stroke-width:1.0;" width="10" x="261" y="166.0234"/><rect fill="#00EE20" height="137.3359" style="stroke:#181818;stroke-width:1.0;" width="10" x="634" y="429.9531"/><rect fill="#00EE20" height="96.9648" style="stroke:#181818;stroke-width:1.0;" width="10" x="634" y="950.6875"/><polygon fill="#181818" points="249,162.0234,259,166.0234,249,170.0234,253,166.0234" style="stroke:#181818;stroke-width:1.0;"/><line style="stroke:#181818;stroke-width:1.0;" x1="60" x2="255" y1="166.0234" y2="166.0234"/><text fill="#000000" font-family="sans-serif" font-size="13" lengthAdjust="spacing" textLength="182" x="67" y="160.9575">removeCustomMetadata(&#183;&#183;&#183;)</text><line style="stroke:#181818;stroke-width:1.0;" x1="271" x2="313" y1="195.1563" y2="195.1563"/><line style="stroke:#181818;stroke-width:1.0;" x1="313" x2="313" y1="195.1563" y2="208.1563"/><line style="stroke:#181818;stroke-width:1.0;" x1="272" x2="313" y1="208.1563" y2="208.1563"/><polygon fill="#181818" points="282,204.1563,272,208.1563,282,212.1563,278,208.1563" style="stroke:#181818;stroke-width:1.0;"/><text fill="#000000" font-family="sans-serif" font-size="13" lengthAdjust="spacing" textLength="149" x="278" y="190.0903">onlyOwnerOfIdentity(&#183;&#183;&#183;)</text><line style="stroke:#181818;stroke-width:1.0;" x1="271" x2="313" y1="237.2891" y2="237.2891"/><line style="stroke:#181818;stroke-width:1.0;" x1="313" x2="313" y1="237.2891" y2="250.2891"/><line style="stroke:#181818;stroke-width:1.0;" x1="272" x2="313" y1="250.2891" y2="250.2891"/><polygon fill="#181818" points="282,246.2891,272,250.2891,282,254.2891,278,250.2891" style="stroke:#181818;stroke-width:1.0;"/><text fill="#000000" font-family="sans-serif" font-size="13" lengthAdjust="spacing" textLength="171" x="278" y="232.2231">verifyIfNonceIsAvailable(&#183;&#183;&#183;)</text><line style="stroke:#181818;stroke-width:1.0;" x1="271" x2="313" y1="279.4219" y2="279.4219"/><line style="stroke:#181818;stroke-width:1.0;" x1="313" x2="313" y1="279.4219" y2="292.4219"/><line style="stroke:#181818;stroke-width:1.0;" x1="272" x2="313" y1="292.4219" y2="292.4219"/><polygon fill="#181818" points="282,288.4219,272,292.4219,282,296.4219,278,292.4219" style="stroke:#181818;stroke-width:1.0;"/><text fill="#000000" font-family="sans-serif" font-size="13" lengthAdjust="spacing" textLength="340" x="278" y="274.356">verifyMessageSignedForRemoveCustomMetadata(&#183;&#183;&#183;)</text><line style="stroke:#181818;stroke-width:1.0;" x1="271" x2="313" y1="321.5547" y2="321.5547"/><line style="stroke:#181818;stroke-width:1.0;" x1="313" x2="313" y1="321.5547" y2="334.5547"/><line style="stroke:#181818;stroke-width:1.0;" x1="272" x2="313" y1="334.5547" y2="334.5547"/><polygon fill="#181818" points="282,330.5547,272,334.5547,282,338.5547,278,334.5547" style="stroke:#181818;stroke-width:1.0;"/><text fill="#000000" font-family="sans-serif" font-size="13" lengthAdjust="spacing" textLength="246" x="278" y="316.4888">verify key &lt; customMetadataMaxSlots</text><line style="stroke:#181818;stroke-width:1.0;" x1="271" x2="313" y1="363.6875" y2="363.6875"/><line style="stroke:#181818;stroke-width:1.0;" x1="313" x2="313" y1="363.6875" y2="376.6875"/><line style="stroke:#181818;stroke-width:1.0;" x1="272" x2="313" y1="376.6875" y2="376.6875"/><polygon fill="#181818" points="282,372.6875,272,376.6875,282,380.6875,278,376.6875" style="stroke:#181818;stroke-width:1.0;"/><text fill="#000000" font-family="sans-serif" font-size="13" lengthAdjust="spacing" textLength="349" x="278" y="358.6216">makePay(&#183;&#183;&#183;, getPriceToRemoveCustomMetadata(), &#183;&#183;&#183;)</text><path d="M204,391.6875 L268,391.6875 L268,398.8203 L258,408.8203 L204,408.8203 L204,391.6875 " fill="#EEEEEE" style="stroke:#000000;stroke-width:1.5;"/><rect fill="none" height="90.2031" style="stroke:#000000;stroke-width:1.5;" width="471.5" x="204" y="391.6875"/><text fill="#000000" font-family="sans-serif" font-size="13" font-weight="bold" lengthAdjust="spacing" textLength="19" x="219" y="404.7544">alt</text><text fill="#000000" font-family="sans-serif" font-size="11" font-weight="bold" lengthAdjust="spacing" textLength="177" x="283" y="403.8979">[priorityFlag_EVVM == true]</text><polygon fill="#181818" points="622,425.9531,632,429.9531,622,433.9531,626,429.9531" style="stroke:#181818;stroke-width:1.0;"/><line style="stroke:#181818;stroke-width:1.0;" x1="271" x2="628" y1="429.9531" y2="429.9531"/><text fill="#000000" font-family="sans-serif" font-size="13" lengthAdjust="spacing" textLength="131" x="278" y="424.8872">payStaker_async(&#183;&#183;&#183;)</text><line style="stroke:#000000;stroke-width:1.0;stroke-dasharray:2.0,2.0;" x1="204" x2="675.5" y1="438.9531" y2="438.9531"/><text fill="#000000" font-family="sans-serif" font-size="11" font-weight="bold" lengthAdjust="spacing" textLength="183" x="209" y="449.1636">[priorityFlag_EVVM == false]</text><polygon fill="#181818" points="622,469.8906,632,473.8906,622,477.8906,626,473.8906" style="stroke:#181818;stroke-width:1.0;"/><line style="stroke:#181818;stroke-width:1.0;" x1="271" x2="628" y1="473.8906" y2="473.8906"/><text fill="#000000" font-family="sans-serif" font-size="13" lengthAdjust="spacing" textLength="123" x="278" y="468.8247">payStaker_sync(&#183;&#183;&#183;)</text><line style="stroke:#181818;stroke-width:1.0;" x1="644" x2="686" y1="525.1563" y2="525.1563"/><line style="stroke:#181818;stroke-width:1.0;" x1="686" x2="686" y1="525.1563" y2="538.1563"/><line style="stroke:#181818;stroke-width:1.0;" x1="645" x2="686" y1="538.1563" y2="538.1563"/><polygon fill="#181818" points="655,534.1563,645,538.1563,655,542.1563,651,538.1563" style="stroke:#181818;stroke-width:1.0;"/><text fill="#000000" font-family="sans-serif" font-size="13" lengthAdjust="spacing" textLength="140" x="651" y="504.9575">Verify payment inputs</text><text fill="#000000" font-family="sans-serif" font-size="13" lengthAdjust="spacing" textLength="134" x="651" y="520.0903">and update balances</text><polygon fill="#181818" points="282,563.2891,272,567.2891,282,571.2891,278,567.2891" style="stroke:#181818;stroke-width:1.0;"/><line style="stroke:#181818;stroke-width:1.0;" x1="276" x2="638" y1="567.2891" y2="567.2891"/><text fill="#000000" font-family="sans-serif" font-size="13" lengthAdjust="spacing" textLength="207" x="288" y="562.2231">Payment processed successfully</text><path d="M204,582.2891 L268,582.2891 L268,589.4219 L258,599.4219 L204,599.4219 L204,582.2891 " fill="#EEEEEE" style="stroke:#000000;stroke-width:1.5;"/><rect fill="none" height="189.7344" style="stroke:#000000;stroke-width:1.5;" width="664" x="204" y="582.2891"/><text fill="#000000" font-family="sans-serif" font-size="13" font-weight="bold" lengthAdjust="spacing" textLength="19" x="219" y="595.356">alt</text><text fill="#000000" font-family="sans-serif" font-size="11" font-weight="bold" lengthAdjust="spacing" textLength="244" x="283" y="594.4995">[key == customMetadataMaxSlots - 1]</text><line style="stroke:#181818;stroke-width:1.0;" x1="271" x2="313" y1="624.6211" y2="624.6211"/><line style="stroke:#181818;stroke-width:1.0;" x1="313" x2="313" y1="624.6211" y2="637.6211"/><line style="stroke:#181818;stroke-width:1.0;" x1="272" x2="313" y1="637.6211" y2="637.6211"/><polygon fill="#181818" points="282,633.6211,272,637.6211,282,641.6211,278,637.6211" style="stroke:#181818;stroke-width:1.0;"/><text fill="#000000" font-family="sans-serif" font-size="13" lengthAdjust="spacing" textLength="291" x="278" y="619.5552">delete identityCustomMetadata[identity][key]</text><path d="M581,604.4219 L581,644.4219 L785,644.4219 L785,614.4219 L775,604.4219 L581,604.4219 " fill="#FEFFDD" style="stroke:#181818;stroke-width:0.5;"/><path d="M775,604.4219 L775,614.4219 L785,614.4219 L775,604.4219 " fill="#FEFFDD" style="stroke:#181818;stroke-width:0.5;"/><text fill="#000000" font-family="sans-serif" font-size="13" lengthAdjust="spacing" textLength="183" x="587" y="621.4888">Last element - simple delete</text><text fill="#000000" font-family="sans-serif" font-size="13" lengthAdjust="spacing" textLength="93" x="587" y="636.6216">O(1) operation</text><line style="stroke:#000000;stroke-width:1.0;stroke-dasharray:2.0,2.0;" x1="204" x2="868" y1="650.6875" y2="650.6875"/><text fill="#000000" font-family="sans-serif" font-size="11" font-weight="bold" lengthAdjust="spacing" textLength="235" x="209" y="660.8979">[key &lt; customMetadataMaxSlots - 1]</text><line style="stroke:#181818;stroke-width:1.0;" x1="271" x2="313" y1="700.7578" y2="700.7578"/><line style="stroke:#181818;stroke-width:1.0;" x1="313" x2="313" y1="700.7578" y2="713.7578"/><line style="stroke:#181818;stroke-width:1.0;" x1="272" x2="313" y1="713.7578" y2="713.7578"/><polygon fill="#181818" points="282,709.7578,272,713.7578,282,717.7578,278,713.7578" style="stroke:#181818;stroke-width:1.0;"/><text fill="#000000" font-family="sans-serif" font-size="13" lengthAdjust="spacing" textLength="189" x="278" y="680.5591">for loop: shift all elements left</text><text fill="#000000" font-family="sans-serif" font-size="13" lengthAdjust="spacing" textLength="172" x="278" y="695.6919">from key position to fill gap</text><line style="stroke:#181818;stroke-width:1.0;" x1="271" x2="313" y1="746.957" y2="746.957"/><line style="stroke:#181818;stroke-width:1.0;" x1="313" x2="313" y1="746.957" y2="759.957"/><line style="stroke:#181818;stroke-width:1.0;" x1="272" x2="313" y1="759.957" y2="759.957"/><polygon fill="#181818" points="282,755.957,272,759.957,282,763.957,278,759.957" style="stroke:#181818;stroke-width:1.0;"/><text fill="#000000" font-family="sans-serif" font-size="13" lengthAdjust="spacing" textLength="329" x="278" y="741.8911">delete identityCustomMetadata[identity][maxSlots]</text><path d="M619,726.7578 L619,766.7578 L848,766.7578 L848,736.7578 L838,726.7578 L619,726.7578 " fill="#FEFFDD" style="stroke:#181818;stroke-width:0.5;"/><path d="M838,726.7578 L838,736.7578 L848,736.7578 L838,726.7578 " fill="#FEFFDD" style="stroke:#181818;stroke-width:0.5;"/><text fill="#000000" font-family="sans-serif" font-size="13" lengthAdjust="spacing" textLength="191" x="625" y="743.8247">Reorder array - shift elements</text><text fill="#000000" font-family="sans-serif" font-size="13" lengthAdjust="spacing" textLength="208" x="625" y="758.9575">O(n) operation - more expensive</text><line style="stroke:#181818;stroke-width:1.0;" x1="271" x2="313" y1="800.1563" y2="800.1563"/><line style="stroke:#181818;stroke-width:1.0;" x1="313" x2="313" y1="800.1563" y2="813.1563"/><line style="stroke:#181818;stroke-width:1.0;" x1="272" x2="313" y1="813.1563" y2="813.1563"/><polygon fill="#181818" points="282,809.1563,272,813.1563,282,817.1563,278,813.1563" style="stroke:#181818;stroke-width:1.0;"/><text fill="#000000" font-family="sans-serif" font-size="13" lengthAdjust="spacing" textLength="329" x="278" y="795.0903">identityDetails[identity].customMetadataMaxSlots--</text><line style="stroke:#181818;stroke-width:1.0;" x1="271" x2="313" y1="842.2891" y2="842.2891"/><line style="stroke:#181818;stroke-width:1.0;" x1="313" x2="313" y1="842.2891" y2="855.2891"/><line style="stroke:#181818;stroke-width:1.0;" x1="272" x2="313" y1="855.2891" y2="855.2891"/><polygon fill="#181818" points="282,851.2891,272,855.2891,282,859.2891,278,855.2891" style="stroke:#181818;stroke-width:1.0;"/><text fill="#000000" font-family="sans-serif" font-size="13" lengthAdjust="spacing" textLength="257" x="278" y="837.2231">nameServiceNonce[user][nonce] = true</text><path d="M204,870.2891 L268,870.2891 L268,877.4219 L258,887.4219 L204,887.4219 L204,870.2891 " fill="#EEEEEE" style="stroke:#000000;stroke-width:1.5;"/><rect fill="none" height="195.9297" style="stroke:#000000;stroke-width:1.5;" width="630" x="204" y="870.2891"/><text fill="#000000" font-family="sans-serif" font-size="13" font-weight="bold" lengthAdjust="spacing" textLength="19" x="219" y="883.356">alt</text><text fill="#000000" font-family="sans-serif" font-size="11" font-weight="bold" lengthAdjust="spacing" textLength="197" x="283" y="882.4995">[isAddressStaker(msg.sender)]</text><line style="stroke:#181818;stroke-width:1.0;" x1="271" x2="313" y1="908.5547" y2="908.5547"/><line style="stroke:#181818;stroke-width:1.0;" x1="313" x2="313" y1="908.5547" y2="921.5547"/><line style="stroke:#181818;stroke-width:1.0;" x1="272" x2="313" y1="921.5547" y2="921.5547"/><polygon fill="#181818" points="282,917.5547,272,921.5547,282,925.5547,278,921.5547" style="stroke:#181818;stroke-width:1.0;"/><text fill="#000000" font-family="sans-serif" font-size="13" lengthAdjust="spacing" textLength="94" x="278" y="903.4888">makeCaPay(..)</text><polygon fill="#181818" points="622,946.6875,632,950.6875,622,954.6875,626,950.6875" style="stroke:#181818;stroke-width:1.0;"/><line style="stroke:#181818;stroke-width:1.0;" x1="271" x2="628" y1="950.6875" y2="950.6875"/><text fill="#000000" font-family="sans-serif" font-size="13" lengthAdjust="spacing" textLength="60" x="278" y="945.6216">caPay(&#183;&#183;&#183;)</text><line style="stroke:#181818;stroke-width:1.0;" x1="644" x2="686" y1="994.9531" y2="994.9531"/><line style="stroke:#181818;stroke-width:1.0;" x1="686" x2="686" y1="994.9531" y2="1007.9531"/><line style="stroke:#181818;stroke-width:1.0;" x1="645" x2="686" y1="1007.9531" y2="1007.9531"/><polygon fill="#181818" points="655,1003.9531,645,1007.9531,655,1011.9531,651,1007.9531" style="stroke:#181818;stroke-width:1.0;"/><text fill="#000000" font-family="sans-serif" font-size="13" lengthAdjust="spacing" textLength="129" x="651" y="974.7544">Update balances for</text><text fill="#000000" font-family="sans-serif" font-size="13" lengthAdjust="spacing" textLength="94" x="651" y="989.8872">staker rewards</text><polygon fill="#181818" points="282,1043.6523,272,1047.6523,282,1051.6523,278,1047.6523" style="stroke:#181818;stroke-width:1.0;"/><line style="stroke:#181818;stroke-width:1.0;" x1="276" x2="638" y1="1047.6523" y2="1047.6523"/><text fill="#000000" font-family="sans-serif" font-size="13" lengthAdjust="spacing" textLength="198" x="288" y="1042.5864">Reward distributed successfully</text><path d="M649,1020.9531 L649,1060.9531 L819,1060.9531 L819,1030.9531 L809,1020.9531 L649,1020.9531 " fill="#FEFFDD" style="stroke:#181818;stroke-width:0.5;"/><path d="M809,1020.9531 L809,1030.9531 L819,1030.9531 L809,1020.9531 " fill="#FEFFDD" style="stroke:#181818;stroke-width:0.5;"/><text fill="#000000" font-family="sans-serif" font-size="13" lengthAdjust="spacing" textLength="99" x="655" y="1038.02">Staker receives</text><text fill="#000000" font-family="sans-serif" font-size="13" lengthAdjust="spacing" textLength="149" x="655" y="1053.1528">5x reward + priority fee</text><!--SRC=[hLLDJzj04BtlhnZ1XQY4GgLU421H6YXI-H01BWIXmJiEAzQxrkxQnAhwkthlB-kiuoGsZGALcbmIP-RDcpVp9di-L9eEXBH9aP49y4C0lxvWydpYR67aaTNMmSkJ2YH-YhsFJRp09F3pjHjF3lZ3a5of4be3z53mCv6Z2ofHEJBcsZbcr8umY- -mlhrzD1WCkWc3szkpEfBACeiXWy6dRI622fh0KMPBEYfyiDaP1PGO4AuT6i-ab3LmhEtBo6nympolu1B34_HXM2G9UPyM6WOJIeeOs1F2sC20QlmKO1UkQc38PfYF5JnJ1Sf8cepC5LadoNb0vx02BBWyCcNKkXgPaJbXkedr0KfqYdpCpgrNiP0GKHFe7tGwtrtQoSRlN_7TgoLM9JA_PNA9ziE_WAtHrSMB8NUHdaeUgmhL0dTbPabEfTLfUcvDGgV-i4IbyL7JFwMViT8ufg4Q6vB7rbsjxFCTWFKSzY3f89pXPAXjy6yWPFXCbpZhVnF652uT_tHjbzBgRS9Y0Zh0Uhtxa3jb7Sjuh77y4DSJzlSXk89glxmYK6_jBkHO3GDNTm_eAvFCEuuPy-5sDfoqfvKLK-I8TvNiL2GZXQX35g6tKsKvepQ-CdaH_CYWaL3aCb9xH8sy1NwUsHNsiidCdOtM8Wb-RZ9T2KcT7Zjgnd5oDyldoMxTMTPYjxeaJOoaclNkJl5kzlZ-ZalTJz7QLl-ER5H6g1leWrTPpfTbYZao5nixFR0vEQpTsvxAgaLy7_6KpwMsDjy5_wJI07m_PamyQ4h3oAJEPdMbsG61O25L73Z6_Fz9apMyb-ZJ7BlcrlKRgZEQKI7JKeW3CkjupfESZ5SbJHTk9SaPZQ_CIsc_eBMrNDn-_mt0rhVwUDt5ctj_P-BdUsZCsbv2vG-bTBolKyTiP7wyvPaukTxR6iUhSeJnhcnjJSDNk3B1nG5QPV_uookNtdIj6BTdP7nDcFy-Nj19tqdhihog8q0g7vnwBC9hZyRCrpvTzD9UYE6iP48yNzw0pvEcFdoOdof8gHbz2xJ5IFm1]--></g></svg>