<?xml version="1.0" encoding="us-ascii" standalone="no"?><svg xmlns="http://www.w3.org/2000/svg" xmlns:xlink="http://www.w3.org/1999/xlink" contentStyleType="text/css" height="1727px" preserveAspectRatio="none" style="width:997px;height:1727px;background:#FFFFFF;" version="1.1" viewBox="0 0 997 1727" width="997px" zoomAndPan="magnify"><defs/><g><text fill="#000000" font-family="sans-serif" font-size="14" font-weight="bold" lengthAdjust="spacing" textLength="332" x="333.5" y="27.9951">removeCustomMetadata Transaction Flow</text><text fill="#000000" font-family="sans-serif" font-size="14" font-weight="bold" lengthAdjust="spacing" textLength="227" x="386" y="44.292">(Failed Path - Error Handling)</text><rect fill="#00CEEE" height="1421.1484" style="stroke:#181818;stroke-width:1.0;" width="10" x="355" y="166.0234"/><rect fill="#00EE20" height="283.8047" style="stroke:#181818;stroke-width:1.0;" width="10" x="728" y="768.7656"/><rect fill="#00EE20" height="160.4688" style="stroke:#181818;stroke-width:1.0;" width="10" x="728" y="1426.7031"/><rect fill="#F5B7B1" height="1407.0156" style="stroke:#000000;stroke-width:1.5;" width="980" x="10" y="223.1563"/><rect fill="#FFFFFF" height="1345.6172" style="stroke:none;stroke-width:1.0;" width="980" x="10" y="284.5547"/><rect fill="#F5B7B1" height="1274.6797" style="stroke:#000000;stroke-width:1.5;" width="960" x="20" y="348.4922"/><rect fill="#FFFFFF" height="1213.2813" style="stroke:none;stroke-width:1.0;" width="960" x="20" y="409.8906"/><rect fill="#F5B7B1" height="1142.3438" style="stroke:#000000;stroke-width:1.5;" width="940" x="30" y="473.8281"/><rect fill="#FFFFFF" height="1080.9453" style="stroke:none;stroke-width:1.0;" width="940" x="30" y="535.2266"/><rect fill="#F5B7B1" height="1010.0078" style="stroke:#000000;stroke-width:1.5;" width="920" x="40" y="599.1641"/><rect fill="#FFFFFF" height="942.6094" style="stroke:none;stroke-width:1.0;" width="920" x="40" y="666.5625"/><rect fill="#FFFFFF" height="90.2031" style="stroke:#000000;stroke-width:1.5;" width="471.5" x="298" y="730.5"/><rect fill="#FFFFFF" height="43.9375" style="stroke:none;stroke-width:1.0;" width="471.5" x="298" y="776.7656"/><rect fill="#F5B7B1" height="183.7344" style="stroke:#000000;stroke-width:1.5;" width="871" x="60" y="876.8359"/><rect fill="#FFFFFF" height="86.0703" style="stroke:none;stroke-width:1.0;" width="871" x="60" y="974.5"/><rect fill="#FFFFFF" height="158.3359" style="stroke:#000000;stroke-width:1.5;" width="415" x="298" y="1074.5703"/><rect fill="#FFFFFF" height="99.0703" style="stroke:none;stroke-width:1.0;" width="415" x="298" y="1133.8359"/><rect fill="#FFFFFF" height="271" style="stroke:#000000;stroke-width:1.5;" width="900" x="50" y="1331.1719"/><rect fill="#F5B7B1" height="153.4688" style="stroke:#000000;stroke-width:1.5;" width="880" x="60" y="1441.7031"/><rect fill="#FFFFFF" height="86.0703" style="stroke:none;stroke-width:1.0;" width="880" x="60" y="1509.1016"/><line style="stroke:#181818;stroke-width:0.5;stroke-dasharray:5.0,5.0;" x1="125" x2="125" y1="134.8906" y2="1647.1719"/><line style="stroke:#181818;stroke-width:0.5;stroke-dasharray:5.0,5.0;" x1="360" x2="360" y1="134.8906" y2="1647.1719"/><line style="stroke:#181818;stroke-width:0.5;stroke-dasharray:5.0,5.0;" x1="732.5" x2="732.5" y1="134.8906" y2="1647.1719"/><text fill="#000000" font-family="sans-serif" font-size="14" lengthAdjust="spacing" textLength="104" x="70" y="131.5889">User or Service</text><ellipse cx="125" cy="67.0938" fill="#E2E2F0" rx="8" ry="8" style="stroke:#181818;stroke-width:0.5;"/><path d="M125,75.0938 L125,102.0938 M112,83.0938 L138,83.0938 M125,102.0938 L112,117.0938 M125,102.0938 L138,117.0938 " fill="none" style="stroke:#181818;stroke-width:0.5;"/><text fill="#000000" font-family="sans-serif" font-size="14" lengthAdjust="spacing" textLength="104" x="70" y="1659.167">User or Service</text><ellipse cx="125" cy="1670.9688" fill="#E2E2F0" rx="8" ry="8" style="stroke:#181818;stroke-width:0.5;"/><path d="M125,1678.9688 L125,1705.9688 M112,1686.9688 L138,1686.9688 M125,1705.9688 L112,1720.9688 M125,1705.9688 L138,1720.9688 " fill="none" style="stroke:#181818;stroke-width:0.5;"/><rect fill="#00CEEE" height="30.2969" rx="2.5" ry="2.5" style="stroke:#181818;stroke-width:0.5;" width="104" x="308" y="103.5938"/><text fill="#000000" font-family="sans-serif" font-size="14" lengthAdjust="spacing" textLength="90" x="315" y="123.5889">NameService</text><rect fill="#00CEEE" height="30.2969" rx="2.5" ry="2.5" style="stroke:#181818;stroke-width:0.5;" width="104" x="308" y="1646.1719"/><text fill="#000000" font-family="sans-serif" font-size="14" lengthAdjust="spacing" textLength="90" x="315" y="1666.167">NameService</text><rect fill="#00EE20" height="30.2969" rx="2.5" ry="2.5" style="stroke:#181818;stroke-width:0.5;" width="53" x="706.5" y="103.5938"/><text fill="#000000" font-family="sans-serif" font-size="14" lengthAdjust="spacing" textLength="39" x="713.5" y="123.5889">EVVM</text><rect fill="#00EE20" height="30.2969" rx="2.5" ry="2.5" style="stroke:#181818;stroke-width:0.5;" width="53" x="706.5" y="1646.1719"/><text fill="#000000" font-family="sans-serif" font-size="14" lengthAdjust="spacing" textLength="39" x="713.5" y="1666.167">EVVM</text><rect fill="#00CEEE" height="1421.1484" style="stroke:#181818;stroke-width:1.0;" width="10" x="355" y="166.0234"/><rect fill="#00EE20" height="283.8047" style="stroke:#181818;stroke-width:1.0;" width="10" x="728" y="768.7656"/><rect fill="#00EE20" height="160.4688" style="stroke:#181818;stroke-width:1.0;" width="10" x="728" y="1426.7031"/><polygon fill="#181818" points="343,162.0234,353,166.0234,343,170.0234,347,166.0234" style="stroke:#181818;stroke-width:1.0;"/><line style="stroke:#181818;stroke-width:1.0;" x1="125" x2="349" y1="166.0234" y2="166.0234"/><text fill="#000000" font-family="sans-serif" font-size="13" lengthAdjust="spacing" textLength="182" x="132" y="160.9575">removeCustomMetadata(&#183;&#183;&#183;)</text><line style="stroke:#181818;stroke-width:1.0;" x1="365" x2="407" y1="195.1563" y2="195.1563"/><line style="stroke:#181818;stroke-width:1.0;" x1="407" x2="407" y1="195.1563" y2="208.1563"/><line style="stroke:#181818;stroke-width:1.0;" x1="366" x2="407" y1="208.1563" y2="208.1563"/><polygon fill="#181818" points="376,204.1563,366,208.1563,376,212.1563,372,208.1563" style="stroke:#181818;stroke-width:1.0;"/><text fill="#000000" font-family="sans-serif" font-size="13" lengthAdjust="spacing" textLength="149" x="372" y="190.0903">onlyOwnerOfIdentity(&#183;&#183;&#183;)</text><path d="M10,223.1563 L74,223.1563 L74,230.2891 L64,240.2891 L10,240.2891 L10,223.1563 " fill="#EEEEEE" style="stroke:#000000;stroke-width:1.5;"/><rect fill="none" height="1407.0156" style="stroke:#000000;stroke-width:1.5;" width="980" x="10" y="223.1563"/><text fill="#000000" font-family="sans-serif" font-size="13" font-weight="bold" lengthAdjust="spacing" textLength="19" x="25" y="236.2231">alt</text><text fill="#000000" font-family="sans-serif" font-size="11" font-weight="bold" lengthAdjust="spacing" textLength="208" x="89" y="235.3667">[User does not own the identity]</text><line style="stroke:#181818;stroke-width:2.0;" x1="132" x2="142" y1="271.5547" y2="281.5547"/><line style="stroke:#181818;stroke-width:2.0;" x1="132" x2="142" y1="281.5547" y2="271.5547"/><line style="stroke:#181818;stroke-width:1.0;" x1="137" x2="354" y1="276.5547" y2="276.5547"/><text fill="#000000" font-family="sans-serif" font-size="13" lengthAdjust="spacing" textLength="70" x="142" y="256.356">Revert with</text><text fill="#000000" font-family="sans-serif" font-size="13" lengthAdjust="spacing" textLength="124" x="142" y="271.4888">NotOwnerOfIdentity</text><line style="stroke:#000000;stroke-width:1.0;stroke-dasharray:2.0,2.0;" x1="10" x2="990" y1="285.5547" y2="285.5547"/><text fill="#000000" font-family="sans-serif" font-size="11" font-weight="bold" lengthAdjust="spacing" textLength="155" x="15" y="295.7651">[User owns the identity]</text><line style="stroke:#181818;stroke-width:1.0;" x1="365" x2="407" y1="320.4922" y2="320.4922"/><line style="stroke:#181818;stroke-width:1.0;" x1="407" x2="407" y1="320.4922" y2="333.4922"/><line style="stroke:#181818;stroke-width:1.0;" x1="366" x2="407" y1="333.4922" y2="333.4922"/><polygon fill="#181818" points="376,329.4922,366,333.4922,376,337.4922,372,333.4922" style="stroke:#181818;stroke-width:1.0;"/><text fill="#000000" font-family="sans-serif" font-size="13" lengthAdjust="spacing" textLength="171" x="372" y="315.4263">verifyIfNonceIsAvailable(&#183;&#183;&#183;)</text><path d="M20,348.4922 L84,348.4922 L84,355.625 L74,365.625 L20,365.625 L20,348.4922 " fill="#EEEEEE" style="stroke:#000000;stroke-width:1.5;"/><rect fill="none" height="1274.6797" style="stroke:#000000;stroke-width:1.5;" width="960" x="20" y="348.4922"/><text fill="#000000" font-family="sans-serif" font-size="13" font-weight="bold" lengthAdjust="spacing" textLength="19" x="35" y="361.5591">alt</text><text fill="#000000" font-family="sans-serif" font-size="11" font-weight="bold" lengthAdjust="spacing" textLength="271" x="99" y="360.7026">[nameServiceNonce[user][nonce] == true]</text><line style="stroke:#181818;stroke-width:2.0;" x1="132" x2="142" y1="396.8906" y2="406.8906"/><line style="stroke:#181818;stroke-width:2.0;" x1="132" x2="142" y1="406.8906" y2="396.8906"/><line style="stroke:#181818;stroke-width:1.0;" x1="137" x2="354" y1="401.8906" y2="401.8906"/><text fill="#000000" font-family="sans-serif" font-size="13" lengthAdjust="spacing" textLength="70" x="142" y="381.6919">Revert with</text><text fill="#000000" font-family="sans-serif" font-size="13" lengthAdjust="spacing" textLength="122" x="142" y="396.8247">NonceAlreadyUsed</text><line style="stroke:#000000;stroke-width:1.0;stroke-dasharray:2.0,2.0;" x1="20" x2="980" y1="410.8906" y2="410.8906"/><text fill="#000000" font-family="sans-serif" font-size="11" font-weight="bold" lengthAdjust="spacing" textLength="128" x="25" y="421.1011">[Nonce is available]</text><line style="stroke:#181818;stroke-width:1.0;" x1="365" x2="407" y1="445.8281" y2="445.8281"/><line style="stroke:#181818;stroke-width:1.0;" x1="407" x2="407" y1="445.8281" y2="458.8281"/><line style="stroke:#181818;stroke-width:1.0;" x1="366" x2="407" y1="458.8281" y2="458.8281"/><polygon fill="#181818" points="376,454.8281,366,458.8281,376,462.8281,372,458.8281" style="stroke:#181818;stroke-width:1.0;"/><text fill="#000000" font-family="sans-serif" font-size="13" lengthAdjust="spacing" textLength="340" x="372" y="440.7622">verifyMessageSignedForRemoveCustomMetadata(&#183;&#183;&#183;)</text><path d="M30,473.8281 L94,473.8281 L94,480.9609 L84,490.9609 L30,490.9609 L30,473.8281 " fill="#EEEEEE" style="stroke:#000000;stroke-width:1.5;"/><rect fill="none" height="1142.3438" style="stroke:#000000;stroke-width:1.5;" width="940" x="30" y="473.8281"/><text fill="#000000" font-family="sans-serif" font-size="13" font-weight="bold" lengthAdjust="spacing" textLength="19" x="45" y="486.895">alt</text><text fill="#000000" font-family="sans-serif" font-size="11" font-weight="bold" lengthAdjust="spacing" textLength="181" x="109" y="486.0386">[Signature verification fails]</text><line style="stroke:#181818;stroke-width:2.0;" x1="132" x2="142" y1="522.2266" y2="532.2266"/><line style="stroke:#181818;stroke-width:2.0;" x1="132" x2="142" y1="532.2266" y2="522.2266"/><line style="stroke:#181818;stroke-width:1.0;" x1="137" x2="354" y1="527.2266" y2="527.2266"/><text fill="#000000" font-family="sans-serif" font-size="13" lengthAdjust="spacing" textLength="70" x="142" y="507.0278">Revert with</text><text fill="#000000" font-family="sans-serif" font-size="13" lengthAdjust="spacing" textLength="206" x="142" y="522.1606">InvalidSignatureOnNameService</text><line style="stroke:#000000;stroke-width:1.0;stroke-dasharray:2.0,2.0;" x1="30" x2="970" y1="536.2266" y2="536.2266"/><text fill="#000000" font-family="sans-serif" font-size="11" font-weight="bold" lengthAdjust="spacing" textLength="122" x="35" y="546.437">[Signature is valid]</text><line style="stroke:#181818;stroke-width:1.0;" x1="365" x2="407" y1="571.1641" y2="571.1641"/><line style="stroke:#181818;stroke-width:1.0;" x1="407" x2="407" y1="571.1641" y2="584.1641"/><line style="stroke:#181818;stroke-width:1.0;" x1="366" x2="407" y1="584.1641" y2="584.1641"/><polygon fill="#181818" points="376,580.1641,366,584.1641,376,588.1641,372,584.1641" style="stroke:#181818;stroke-width:1.0;"/><text fill="#000000" font-family="sans-serif" font-size="13" lengthAdjust="spacing" textLength="246" x="372" y="566.0981">verify key &lt; customMetadataMaxSlots</text><path d="M40,599.1641 L104,599.1641 L104,606.2969 L94,616.2969 L40,616.2969 L40,599.1641 " fill="#EEEEEE" style="stroke:#000000;stroke-width:1.5;"/><rect fill="none" height="1010.0078" style="stroke:#000000;stroke-width:1.5;" width="920" x="40" y="599.1641"/><text fill="#000000" font-family="sans-serif" font-size="13" font-weight="bold" lengthAdjust="spacing" textLength="19" x="55" y="612.231">alt</text><text fill="#000000" font-family="sans-serif" font-size="11" font-weight="bold" lengthAdjust="spacing" textLength="223" x="119" y="611.3745">[key &gt;= customMetadataMaxSlots]</text><line style="stroke:#181818;stroke-width:2.0;" x1="132" x2="142" y1="650.5625" y2="660.5625"/><line style="stroke:#181818;stroke-width:2.0;" x1="132" x2="142" y1="660.5625" y2="650.5625"/><line style="stroke:#181818;stroke-width:1.0;" x1="137" x2="354" y1="655.5625" y2="655.5625"/><text fill="#000000" font-family="sans-serif" font-size="13" lengthAdjust="spacing" textLength="70" x="142" y="635.3638">Revert with</text><text fill="#000000" font-family="sans-serif" font-size="13" lengthAdjust="spacing" textLength="63" x="142" y="650.4966">InvalidKey</text><path d="M370,621.2969 L370,661.2969 L544,661.2969 L544,631.2969 L534,621.2969 L370,621.2969 " fill="#FEFFDD" style="stroke:#181818;stroke-width:0.5;"/><path d="M534,621.2969 L534,631.2969 L544,631.2969 L534,621.2969 " fill="#FEFFDD" style="stroke:#181818;stroke-width:0.5;"/><text fill="#000000" font-family="sans-serif" font-size="13" lengthAdjust="spacing" textLength="153" x="376" y="638.3638">Key index out of bounds</text><text fill="#000000" font-family="sans-serif" font-size="13" lengthAdjust="spacing" textLength="141" x="376" y="653.4966">or no metadata exists</text><line style="stroke:#000000;stroke-width:1.0;stroke-dasharray:2.0,2.0;" x1="40" x2="960" y1="667.5625" y2="667.5625"/><text fill="#000000" font-family="sans-serif" font-size="11" font-weight="bold" lengthAdjust="spacing" textLength="84" x="45" y="677.7729">[Key is valid]</text><line style="stroke:#181818;stroke-width:1.0;" x1="365" x2="407" y1="702.5" y2="702.5"/><line style="stroke:#181818;stroke-width:1.0;" x1="407" x2="407" y1="702.5" y2="715.5"/><line style="stroke:#181818;stroke-width:1.0;" x1="366" x2="407" y1="715.5" y2="715.5"/><polygon fill="#181818" points="376,711.5,366,715.5,376,719.5,372,715.5" style="stroke:#181818;stroke-width:1.0;"/><text fill="#000000" font-family="sans-serif" font-size="13" lengthAdjust="spacing" textLength="349" x="372" y="697.4341">makePay(&#183;&#183;&#183;, getPriceToRemoveCustomMetadata(), &#183;&#183;&#183;)</text><path d="M298,730.5 L362,730.5 L362,737.6328 L352,747.6328 L298,747.6328 L298,730.5 " fill="#EEEEEE" style="stroke:#000000;stroke-width:1.5;"/><rect fill="none" height="90.2031" style="stroke:#000000;stroke-width:1.5;" width="471.5" x="298" y="730.5"/><text fill="#000000" font-family="sans-serif" font-size="13" font-weight="bold" lengthAdjust="spacing" textLength="19" x="313" y="743.5669">alt</text><text fill="#000000" font-family="sans-serif" font-size="11" font-weight="bold" lengthAdjust="spacing" textLength="177" x="377" y="742.7104">[priorityFlag_EVVM == true]</text><polygon fill="#181818" points="716,764.7656,726,768.7656,716,772.7656,720,768.7656" style="stroke:#181818;stroke-width:1.0;"/><line style="stroke:#181818;stroke-width:1.0;" x1="365" x2="722" y1="768.7656" y2="768.7656"/><text fill="#000000" font-family="sans-serif" font-size="13" lengthAdjust="spacing" textLength="131" x="372" y="763.6997">payStaker_async(&#183;&#183;&#183;)</text><line style="stroke:#000000;stroke-width:1.0;stroke-dasharray:2.0,2.0;" x1="298" x2="769.5" y1="777.7656" y2="777.7656"/><text fill="#000000" font-family="sans-serif" font-size="11" font-weight="bold" lengthAdjust="spacing" textLength="183" x="303" y="787.9761">[priorityFlag_EVVM == false]</text><polygon fill="#181818" points="716,808.7031,726,812.7031,716,816.7031,720,812.7031" style="stroke:#181818;stroke-width:1.0;"/><line style="stroke:#181818;stroke-width:1.0;" x1="365" x2="722" y1="812.7031" y2="812.7031"/><text fill="#000000" font-family="sans-serif" font-size="13" lengthAdjust="spacing" textLength="123" x="372" y="807.6372">payStaker_sync(&#183;&#183;&#183;)</text><line style="stroke:#181818;stroke-width:1.0;" x1="738" x2="780" y1="848.8359" y2="848.8359"/><line style="stroke:#181818;stroke-width:1.0;" x1="780" x2="780" y1="848.8359" y2="861.8359"/><line style="stroke:#181818;stroke-width:1.0;" x1="739" x2="780" y1="861.8359" y2="861.8359"/><polygon fill="#181818" points="749,857.8359,739,861.8359,749,865.8359,745,861.8359" style="stroke:#181818;stroke-width:1.0;"/><text fill="#000000" font-family="sans-serif" font-size="13" lengthAdjust="spacing" textLength="140" x="745" y="843.77">Verify payment inputs</text><path d="M60,876.8359 L124,876.8359 L124,883.9688 L114,893.9688 L60,893.9688 L60,876.8359 " fill="#EEEEEE" style="stroke:#000000;stroke-width:1.5;"/><rect fill="none" height="183.7344" style="stroke:#000000;stroke-width:1.5;" width="871" x="60" y="876.8359"/><text fill="#000000" font-family="sans-serif" font-size="13" font-weight="bold" lengthAdjust="spacing" textLength="19" x="75" y="889.9028">alt</text><text fill="#000000" font-family="sans-serif" font-size="11" font-weight="bold" lengthAdjust="spacing" textLength="174" x="139" y="889.0464">[Payment verification fails]</text><line style="stroke:#181818;stroke-width:2.0;" x1="132" x2="142" y1="943.3672" y2="953.3672"/><line style="stroke:#181818;stroke-width:2.0;" x1="132" x2="142" y1="953.3672" y2="943.3672"/><line style="stroke:#181818;stroke-width:1.0;" x1="137" x2="727" y1="948.3672" y2="948.3672"/><text fill="#000000" font-family="sans-serif" font-size="13" lengthAdjust="spacing" textLength="70" x="142" y="928.1685">Revert with</text><text fill="#000000" font-family="sans-serif" font-size="13" lengthAdjust="spacing" textLength="92" x="142" y="943.3013">payment error</text><path d="M743,898.9688 L743,968.9688 L921,968.9688 L921,908.9688 L911,898.9688 L743,898.9688 " fill="#FEFFDD" style="stroke:#181818;stroke-width:0.5;"/><path d="M911,898.9688 L911,908.9688 L921,908.9688 L911,898.9688 " fill="#FEFFDD" style="stroke:#181818;stroke-width:0.5;"/><text fill="#000000" font-family="sans-serif" font-size="13" lengthAdjust="spacing" textLength="60" x="749" y="916.0356">Could be:</text><text fill="#000000" font-family="sans-serif" font-size="13" lengthAdjust="spacing" textLength="134" x="749" y="931.1685">&#8226; Insufficient balance</text><text fill="#000000" font-family="sans-serif" font-size="13" lengthAdjust="spacing" textLength="136" x="749" y="946.3013">&#8226; Invalid EVVM nonce</text><text fill="#000000" font-family="sans-serif" font-size="13" lengthAdjust="spacing" textLength="157" x="749" y="961.4341">&#8226; Invalid EVVM signature</text><line style="stroke:#000000;stroke-width:1.0;stroke-dasharray:2.0,2.0;" x1="60" x2="931" y1="975.5" y2="975.5"/><text fill="#000000" font-family="sans-serif" font-size="11" font-weight="bold" lengthAdjust="spacing" textLength="129" x="65" y="985.7104">[Payment succeeds]</text><line style="stroke:#181818;stroke-width:1.0;" x1="738" x2="780" y1="1010.4375" y2="1010.4375"/><line style="stroke:#181818;stroke-width:1.0;" x1="780" x2="780" y1="1010.4375" y2="1023.4375"/><line style="stroke:#181818;stroke-width:1.0;" x1="739" x2="780" y1="1023.4375" y2="1023.4375"/><polygon fill="#181818" points="749,1019.4375,739,1023.4375,749,1027.4375,745,1023.4375" style="stroke:#181818;stroke-width:1.0;"/><text fill="#000000" font-family="sans-serif" font-size="13" lengthAdjust="spacing" textLength="108" x="745" y="1005.3716">Update balances</text><polygon fill="#181818" points="376,1048.5703,366,1052.5703,376,1056.5703,372,1052.5703" style="stroke:#181818;stroke-width:1.0;"/><line style="stroke:#181818;stroke-width:1.0;" x1="370" x2="732" y1="1052.5703" y2="1052.5703"/><text fill="#000000" font-family="sans-serif" font-size="13" lengthAdjust="spacing" textLength="127" x="382" y="1047.5044">Payment processed</text><path d="M298,1074.5703 L362,1074.5703 L362,1081.7031 L352,1091.7031 L298,1091.7031 L298,1074.5703 " fill="#EEEEEE" style="stroke:#000000;stroke-width:1.5;"/><rect fill="none" height="158.3359" style="stroke:#000000;stroke-width:1.5;" width="415" x="298" y="1074.5703"/><text fill="#000000" font-family="sans-serif" font-size="13" font-weight="bold" lengthAdjust="spacing" textLength="19" x="313" y="1087.6372">alt</text><text fill="#000000" font-family="sans-serif" font-size="11" font-weight="bold" lengthAdjust="spacing" textLength="244" x="377" y="1086.7808">[key == customMetadataMaxSlots - 1]</text><line style="stroke:#181818;stroke-width:1.0;" x1="365" x2="407" y1="1112.8359" y2="1112.8359"/><line style="stroke:#181818;stroke-width:1.0;" x1="407" x2="407" y1="1112.8359" y2="1125.8359"/><line style="stroke:#181818;stroke-width:1.0;" x1="366" x2="407" y1="1125.8359" y2="1125.8359"/><polygon fill="#181818" points="376,1121.8359,366,1125.8359,376,1129.8359,372,1125.8359" style="stroke:#181818;stroke-width:1.0;"/><text fill="#000000" font-family="sans-serif" font-size="13" lengthAdjust="spacing" textLength="291" x="372" y="1107.77">delete identityCustomMetadata[identity][key]</text><line style="stroke:#000000;stroke-width:1.0;stroke-dasharray:2.0,2.0;" x1="298" x2="713" y1="1134.8359" y2="1134.8359"/><text fill="#000000" font-family="sans-serif" font-size="11" font-weight="bold" lengthAdjust="spacing" textLength="235" x="303" y="1145.0464">[key &lt; customMetadataMaxSlots - 1]</text><line style="stroke:#181818;stroke-width:1.0;" x1="365" x2="407" y1="1169.7734" y2="1169.7734"/><line style="stroke:#181818;stroke-width:1.0;" x1="407" x2="407" y1="1169.7734" y2="1182.7734"/><line style="stroke:#181818;stroke-width:1.0;" x1="366" x2="407" y1="1182.7734" y2="1182.7734"/><polygon fill="#181818" points="376,1178.7734,366,1182.7734,376,1186.7734,372,1182.7734" style="stroke:#181818;stroke-width:1.0;"/><text fill="#000000" font-family="sans-serif" font-size="13" lengthAdjust="spacing" textLength="171" x="372" y="1164.7075">for loop: shift elements left</text><line style="stroke:#181818;stroke-width:1.0;" x1="365" x2="407" y1="1211.9063" y2="1211.9063"/><line style="stroke:#181818;stroke-width:1.0;" x1="407" x2="407" y1="1211.9063" y2="1224.9063"/><line style="stroke:#181818;stroke-width:1.0;" x1="366" x2="407" y1="1224.9063" y2="1224.9063"/><polygon fill="#181818" points="376,1220.9063,366,1224.9063,376,1228.9063,372,1224.9063" style="stroke:#181818;stroke-width:1.0;"/><text fill="#000000" font-family="sans-serif" font-size="13" lengthAdjust="spacing" textLength="329" x="372" y="1206.8403">delete identityCustomMetadata[identity][maxSlots]</text><line style="stroke:#181818;stroke-width:1.0;" x1="365" x2="407" y1="1261.0391" y2="1261.0391"/><line style="stroke:#181818;stroke-width:1.0;" x1="407" x2="407" y1="1261.0391" y2="1274.0391"/><line style="stroke:#181818;stroke-width:1.0;" x1="366" x2="407" y1="1274.0391" y2="1274.0391"/><polygon fill="#181818" points="376,1270.0391,366,1274.0391,376,1278.0391,372,1274.0391" style="stroke:#181818;stroke-width:1.0;"/><text fill="#000000" font-family="sans-serif" font-size="13" lengthAdjust="spacing" textLength="329" x="372" y="1255.9731">identityDetails[identity].customMetadataMaxSlots--</text><line style="stroke:#181818;stroke-width:1.0;" x1="365" x2="407" y1="1303.1719" y2="1303.1719"/><line style="stroke:#181818;stroke-width:1.0;" x1="407" x2="407" y1="1303.1719" y2="1316.1719"/><line style="stroke:#181818;stroke-width:1.0;" x1="366" x2="407" y1="1316.1719" y2="1316.1719"/><polygon fill="#181818" points="376,1312.1719,366,1316.1719,376,1320.1719,372,1316.1719" style="stroke:#181818;stroke-width:1.0;"/><text fill="#000000" font-family="sans-serif" font-size="13" lengthAdjust="spacing" textLength="257" x="372" y="1298.106">nameServiceNonce[user][nonce] = true</text><path d="M50,1331.1719 L114,1331.1719 L114,1338.3047 L104,1348.3047 L50,1348.3047 L50,1331.1719 " fill="#EEEEEE" style="stroke:#000000;stroke-width:1.5;"/><rect fill="none" height="271" style="stroke:#000000;stroke-width:1.5;" width="900" x="50" y="1331.1719"/><text fill="#000000" font-family="sans-serif" font-size="13" font-weight="bold" lengthAdjust="spacing" textLength="19" x="65" y="1344.2388">alt</text><text fill="#000000" font-family="sans-serif" font-size="11" font-weight="bold" lengthAdjust="spacing" textLength="197" x="129" y="1343.3823">[isAddressStaker(msg.sender)]</text><line style="stroke:#181818;stroke-width:1.0;" x1="365" x2="407" y1="1384.5703" y2="1384.5703"/><line style="stroke:#181818;stroke-width:1.0;" x1="407" x2="407" y1="1384.5703" y2="1397.5703"/><line style="stroke:#181818;stroke-width:1.0;" x1="366" x2="407" y1="1397.5703" y2="1397.5703"/><polygon fill="#181818" points="376,1393.5703,366,1397.5703,376,1401.5703,372,1397.5703" style="stroke:#181818;stroke-width:1.0;"/><text fill="#000000" font-family="sans-serif" font-size="13" lengthAdjust="spacing" textLength="161" x="372" y="1364.3716">makeCaPay(msg.sender,</text><text fill="#000000" font-family="sans-serif" font-size="13" lengthAdjust="spacing" textLength="197" x="372" y="1379.5044">5x reward + priorityFee_EVVM)</text><polygon fill="#181818" points="716,1422.7031,726,1426.7031,716,1430.7031,720,1426.7031" style="stroke:#181818;stroke-width:1.0;"/><line style="stroke:#181818;stroke-width:1.0;" x1="365" x2="722" y1="1426.7031" y2="1426.7031"/><text fill="#000000" font-family="sans-serif" font-size="13" lengthAdjust="spacing" textLength="60" x="372" y="1421.6372">caPay(&#183;&#183;&#183;)</text><path d="M60,1441.7031 L124,1441.7031 L124,1448.8359 L114,1458.8359 L60,1458.8359 L60,1441.7031 " fill="#EEEEEE" style="stroke:#000000;stroke-width:1.5;"/><rect fill="none" height="153.4688" style="stroke:#000000;stroke-width:1.5;" width="880" x="60" y="1441.7031"/><text fill="#000000" font-family="sans-serif" font-size="13" font-weight="bold" lengthAdjust="spacing" textLength="19" x="75" y="1454.77">alt</text><text fill="#000000" font-family="sans-serif" font-size="11" font-weight="bold" lengthAdjust="spacing" textLength="80" x="139" y="1453.9136">[caPay fails]</text><line style="stroke:#181818;stroke-width:2.0;" x1="132" x2="142" y1="1493.1016" y2="1503.1016"/><line style="stroke:#181818;stroke-width:2.0;" x1="132" x2="142" y1="1503.1016" y2="1493.1016"/><line style="stroke:#181818;stroke-width:1.0;" x1="137" x2="727" y1="1498.1016" y2="1498.1016"/><text fill="#000000" font-family="sans-serif" font-size="13" lengthAdjust="spacing" textLength="70" x="142" y="1477.9028">Revert with</text><text fill="#000000" font-family="sans-serif" font-size="13" lengthAdjust="spacing" textLength="73" x="142" y="1493.0356">caPay error</text><path d="M743,1463.8359 L743,1503.8359 L917,1503.8359 L917,1473.8359 L907,1463.8359 L743,1463.8359 " fill="#FEFFDD" style="stroke:#181818;stroke-width:0.5;"/><path d="M907,1463.8359 L907,1473.8359 L917,1473.8359 L907,1463.8359 " fill="#FEFFDD" style="stroke:#181818;stroke-width:0.5;"/><text fill="#000000" font-family="sans-serif" font-size="13" lengthAdjust="spacing" textLength="153" x="749" y="1480.9028">Contract balance issues</text><text fill="#000000" font-family="sans-serif" font-size="13" lengthAdjust="spacing" textLength="134" x="749" y="1496.0356">or other EVVM errors</text><line style="stroke:#000000;stroke-width:1.0;stroke-dasharray:2.0,2.0;" x1="60" x2="940" y1="1510.1016" y2="1510.1016"/><text fill="#000000" font-family="sans-serif" font-size="11" font-weight="bold" lengthAdjust="spacing" textLength="112" x="65" y="1520.312">[caPay succeeds]</text><line style="stroke:#181818;stroke-width:1.0;" x1="738" x2="780" y1="1545.0391" y2="1545.0391"/><line style="stroke:#181818;stroke-width:1.0;" x1="780" x2="780" y1="1545.0391" y2="1558.0391"/><line style="stroke:#181818;stroke-width:1.0;" x1="739" x2="780" y1="1558.0391" y2="1558.0391"/><polygon fill="#181818" points="749,1554.0391,739,1558.0391,749,1562.0391,745,1558.0391" style="stroke:#181818;stroke-width:1.0;"/><text fill="#000000" font-family="sans-serif" font-size="13" lengthAdjust="spacing" textLength="183" x="745" y="1539.9731">Update balances for rewards</text><polygon fill="#181818" points="371,1583.1719,361,1587.1719,371,1591.1719,367,1587.1719" style="stroke:#181818;stroke-width:1.0;"/><line style="stroke:#181818;stroke-width:1.0;" x1="365" x2="732" y1="1587.1719" y2="1587.1719"/><text fill="#000000" font-family="sans-serif" font-size="13" lengthAdjust="spacing" textLength="118" x="377" y="1582.106">Reward distributed</text><!--SRC=[jLRRRkCs47tNLmooBmcQRBC55WM2943gEgrHv89aDo-niQ35aKs48WsIyWMB0lsM_aJV-odzaWufovPiIRQtQ08aiioPS-Pmvf2NrYqaNaTSnrcAoi7N2EZd9nQ__M9qfdX7IsrWDXOEez-Zo- -NwoCMEtf_zDcY0NfuHZCLCHu1iv3HksZ2Z1Enc33AUNJFKYolKElFyExylDFjTgi1tPUNkx0IfzFKB-bsVpYF8YUSH32OwYbsCkjqUeUESUOOV39CMI8bj89RgMTzTNpBX4GEZyoDuGownX3FNvdYKgZHIHHvcd1sNI5pKPly-E-__E-9BrfCcSFQ0gBoowsyMid5mqoXUKXwd8GMRh5A6p7fu5toSVZZy0C4HRb6Kaaxq3C5RemWbZ5XTof0yw0t8JpX58s3cN3ZlhhNRWCjH4OeBJ4EsvaZ4O2j8cn3RDP2E29Pz99xhMBisPif2Ss64bS51IZ_frnOAKS8VFMy1w_AFm_WwWgSoJ14xLqZHTv8Wumlg1Q-YWqFvKh3IX0MM44rgWUgh_GEhMKZV1OZXVnMcwUs7gcGsDJ0fs0kCvXd5Z4B3PiGAxiAsBFydfeoAVWgvOCgZLabsUf3MPCr5T8bP8gQ6TJh0c-uW4k8AqBSiVcprCxMCzWKn6UuljednM6g_8QBxMXDPHin6ZiAeWKW5CSvw8p6B86XTplRLsGIIaDQ-0hEXQrXKdbHbZNahHLqfwWfUyD7LjZ2AOpGFHhwwfEkRRYJKrWPo2PEa3WdD3526vhhMyb6NxolRerQ2y5WlnSmOOjdH-pC5sONAjxgzGfquP4LwzvSLPQibc72QCKtKMnbY8gtxsLOv5EkKx_apKu8uOGKQfBjweZDDdzSnkwO-Yg1-WOlQA0_p-e5AlTvHsUImn0l-kgVF_w4dh9PGWo4Jp5aaf4n5j-4deMm0S6KQzxRmZHQDxIercPnZCZRQbo9_7d2VTCiARM7LCUcG9iOJO7bSw3ymx7IcBMDqJP6tgYkceoAhXSVzkdLAd6E4jtwuAsEzslnUl1Aq8DMlTji-Dke9UI2Kkl91TYnIAZP97gDBKXCtFzNQReaFTXlUrenYwm_4mpDsHhbVRrGPsS70koup-GUszPImjvmRgXbS-CwJktelQL2qPmSBh4_F3hC7n_hDATzzN5EDzePCno-M_iiOh3PUfG3F3Tcw-Fglnm6ZR1b2mrWBPwvopVp-6RNh75EvGmLK7WIxPVDCByXQBenczmIGyO6lohDQ0xVweYxNJ7CPRwVkrDK- -Cfxm9EjnaZXfbhiCaDgrGDDyf3dBNfsAq_UZVdl1nPFFl_OM43qty1]--></g></svg>