<?xml version="1.0" encoding="us-ascii" standalone="no"?><svg xmlns="http://www.w3.org/2000/svg" xmlns:xlink="http://www.w3.org/1999/xlink" contentStyleType="text/css" height="414px" preserveAspectRatio="none" style="width:851px;height:414px;background:#FFFFFF;" version="1.1" viewBox="0 0 851 414" width="851px" zoomAndPan="magnify"><defs/><g><text fill="#000000" font-family="sans-serif" font-size="14" font-weight="bold" lengthAdjust="spacing" textLength="312" x="273.25" y="27.9951">Contract Address Pay Transaction Flow</text><text fill="#000000" font-family="sans-serif" font-size="14" font-weight="bold" lengthAdjust="spacing" textLength="285" x="286.75" y="44.292">(Happy Path - Successful Execution)</text><rect fill="#FFFFFF" height="261.3281" style="stroke:#181818;stroke-width:1.0;" width="10" x="58.5" y="99.8906"/><rect fill="#00EE20" height="240.1953" style="stroke:#181818;stroke-width:1.0;" width="10" x="301.5" y="121.0234"/><rect fill="#FFFFFF" height="59.2656" style="stroke:#000000;stroke-width:1.5;" width="281" x="270" y="273.8203"/><line style="stroke:#181818;stroke-width:0.5;stroke-dasharray:5.0,5.0;" x1="63" x2="63" y1="89.8906" y2="379.2188"/><line style="stroke:#181818;stroke-width:0.5;stroke-dasharray:5.0,5.0;" x1="306" x2="306" y1="89.8906" y2="379.2188"/><rect fill="#E2E2F0" height="30.2969" rx="2.5" ry="2.5" style="stroke:#181818;stroke-width:0.5;" width="117" x="5" y="58.5938"/><text fill="#000000" font-family="sans-serif" font-size="14" lengthAdjust="spacing" textLength="103" x="12" y="78.5889">Smart Contract</text><rect fill="#E2E2F0" height="30.2969" rx="2.5" ry="2.5" style="stroke:#181818;stroke-width:0.5;" width="117" x="5" y="378.2188"/><text fill="#000000" font-family="sans-serif" font-size="14" lengthAdjust="spacing" textLength="103" x="12" y="398.2139">Smart Contract</text><rect fill="#00EE20" height="30.2969" rx="2.5" ry="2.5" style="stroke:#181818;stroke-width:0.5;" width="53" x="280" y="58.5938"/><text fill="#000000" font-family="sans-serif" font-size="14" lengthAdjust="spacing" textLength="39" x="287" y="78.5889">EVVM</text><rect fill="#00EE20" height="30.2969" rx="2.5" ry="2.5" style="stroke:#181818;stroke-width:0.5;" width="53" x="280" y="378.2188"/><text fill="#000000" font-family="sans-serif" font-size="14" lengthAdjust="spacing" textLength="39" x="287" y="398.2139">EVVM</text><rect fill="#FFFFFF" height="261.3281" style="stroke:#181818;stroke-width:1.0;" width="10" x="58.5" y="99.8906"/><rect fill="#00EE20" height="240.1953" style="stroke:#181818;stroke-width:1.0;" width="10" x="301.5" y="121.0234"/><polygon fill="#181818" points="289.5,117.0234,299.5,121.0234,289.5,125.0234,293.5,121.0234" style="stroke:#181818;stroke-width:1.0;"/><line style="stroke:#181818;stroke-width:1.0;" x1="68.5" x2="295.5" y1="121.0234" y2="121.0234"/><text fill="#000000" font-family="sans-serif" font-size="13" lengthAdjust="spacing" textLength="60" x="75.5" y="115.9575">caPay(&#183;&#183;&#183;)</text><line style="stroke:#181818;stroke-width:1.0;" x1="311.5" x2="353.5" y1="180.4219" y2="180.4219"/><line style="stroke:#181818;stroke-width:1.0;" x1="353.5" x2="353.5" y1="180.4219" y2="193.4219"/><line style="stroke:#181818;stroke-width:1.0;" x1="312.5" x2="353.5" y1="193.4219" y2="193.4219"/><polygon fill="#181818" points="322.5,189.4219,312.5,193.4219,322.5,197.4219,318.5,193.4219" style="stroke:#181818;stroke-width:1.0;"/><text fill="#000000" font-family="sans-serif" font-size="13" lengthAdjust="spacing" textLength="73" x="318.5" y="145.0903">assembly {</text><text fill="#000000" font-family="sans-serif" font-size="13" lengthAdjust="spacing" textLength="210" x="334.5" y="160.2231">size := extcodesize(msg.sender)</text><text fill="#000000" font-family="sans-serif" font-size="13" lengthAdjust="spacing" textLength="8" x="318.5" y="175.356">}</text><path d="M556,137.5234 L556,192.5234 L738,192.5234 L738,147.5234 L728,137.5234 L556,137.5234 " fill="#FEFFDD" style="stroke:#181818;stroke-width:0.5;"/><path d="M728,137.5234 L728,147.5234 L738,147.5234 L728,137.5234 " fill="#FEFFDD" style="stroke:#181818;stroke-width:0.5;"/><text fill="#000000" font-family="sans-serif" font-size="13" lengthAdjust="spacing" textLength="161" x="562" y="154.5903">SECURITY: Only contracts</text><text fill="#000000" font-family="sans-serif" font-size="13" lengthAdjust="spacing" textLength="90" x="562" y="169.7231">can call caPay</text><text fill="#000000" font-family="sans-serif" font-size="13" lengthAdjust="spacing" textLength="115" x="562" y="184.856">EOAs are rejected</text><line style="stroke:#181818;stroke-width:1.0;" x1="311.5" x2="353.5" y1="234.1875" y2="234.1875"/><line style="stroke:#181818;stroke-width:1.0;" x1="353.5" x2="353.5" y1="234.1875" y2="247.1875"/><line style="stroke:#181818;stroke-width:1.0;" x1="312.5" x2="353.5" y1="247.1875" y2="247.1875"/><polygon fill="#181818" points="322.5,243.1875,312.5,247.1875,322.5,251.1875,318.5,247.1875" style="stroke:#181818;stroke-width:1.0;"/><text fill="#000000" font-family="sans-serif" font-size="13" lengthAdjust="spacing" textLength="312" x="318.5" y="229.1216">_updateBalance(msg.sender, to, token, amount)</text><path d="M642,206.4219 L642,261.4219 L844,261.4219 L844,216.4219 L834,206.4219 L642,206.4219 " fill="#FEFFDD" style="stroke:#181818;stroke-width:0.5;"/><path d="M834,206.4219 L834,216.4219 L844,216.4219 L834,206.4219 " fill="#FEFFDD" style="stroke:#181818;stroke-width:0.5;"/><text fill="#000000" font-family="sans-serif" font-size="13" lengthAdjust="spacing" textLength="143" x="648" y="223.4888">No signature required:</text><text fill="#000000" font-family="sans-serif" font-size="13" lengthAdjust="spacing" textLength="160" x="648" y="238.6216">Contract itself authorizes</text><text fill="#000000" font-family="sans-serif" font-size="13" lengthAdjust="spacing" textLength="181" x="648" y="253.7544">Must have sufficient balance</text><path d="M270,273.8203 L334,273.8203 L334,280.9531 L324,290.9531 L270,290.9531 L270,273.8203 " fill="#EEEEEE" style="stroke:#000000;stroke-width:1.5;"/><rect fill="none" height="59.2656" style="stroke:#000000;stroke-width:1.5;" width="281" x="270" y="273.8203"/><text fill="#000000" font-family="sans-serif" font-size="13" font-weight="bold" lengthAdjust="spacing" textLength="19" x="285" y="286.8872">alt</text><text fill="#000000" font-family="sans-serif" font-size="11" font-weight="bold" lengthAdjust="spacing" textLength="197" x="349" y="286.0308">[isAddressStaker(msg.sender)]</text><line style="stroke:#181818;stroke-width:1.0;" x1="311.5" x2="353.5" y1="312.0859" y2="312.0859"/><line style="stroke:#181818;stroke-width:1.0;" x1="353.5" x2="353.5" y1="312.0859" y2="325.0859"/><line style="stroke:#181818;stroke-width:1.0;" x1="312.5" x2="353.5" y1="325.0859" y2="325.0859"/><polygon fill="#181818" points="322.5,321.0859,312.5,325.0859,322.5,329.0859,318.5,325.0859" style="stroke:#181818;stroke-width:1.0;"/><text fill="#000000" font-family="sans-serif" font-size="13" lengthAdjust="spacing" textLength="181" x="318.5" y="307.02">_giveReward(msg.sender, 1)</text><polygon fill="#181818" points="74.5,357.2188,64.5,361.2188,74.5,365.2188,70.5,361.2188" style="stroke:#181818;stroke-width:1.0;"/><line style="stroke:#181818;stroke-width:1.0;stroke-dasharray:2.0,2.0;" x1="68.5" x2="305.5" y1="361.2188" y2="361.2188"/><text fill="#000000" font-family="sans-serif" font-size="13" lengthAdjust="spacing" textLength="209" x="80.5" y="356.1528">Payment completed successfully</text><!--SRC=[PLBRRjim37tNLn3jImoqMxR7e2lG1jxbeUlGT0K661XOYKcqo98dKKczej-rzttPwDozoH0WMZpY8S-vIDmwkbGcw5oJPtXM0DUe5nzYoDwCWmiHLdFBf5xKnUjjjcemijMsGK6SJ6g9O1myHzHy0fX0RuD-OldmSBE-fkMoXjFXi2pV3fLYouxsUBWo9b9Ay0LRk8_ea_oqmSDx5rQL7tp4fcdbakTm3fEijUHEiuFoYNJk4WkbEiGIcGuyTWSulznK7u56gJ3uyxlxYWEapsqT7J2O4jMFheNdoeEiP7yHZDu1FR4EXhfmKAVPgqJUK2mg_w9ya4UZdSrPy9Do_FNkq_st4TnwUMN7AbLUenT6pcreLRwylKg0KQ3qWpIJ-O_BzzmO8NoD3hq-Bdi67Bgz87y6M8kENFHfV0x2VEQHyxh0psmZcL7bznfOJkIcW9dd8KfJGl0c9uOvBWbIdav5qyujZvlYCd77SBhs2TYqLN32kA1uF0_LpUpVDcPsINUqmcXwFRmfb9nsNKl-Ni9HPusrMNMe6qSo7E6qCu9hbJBKa_CutZlYBm00]--></g></svg>