<?xml version="1.0" encoding="us-ascii" standalone="no"?><svg xmlns="http://www.w3.org/2000/svg" xmlns:xlink="http://www.w3.org/1999/xlink" contentStyleType="text/css" height="541px" preserveAspectRatio="none" style="width:674px;height:541px;background:#FFFFFF;" version="1.1" viewBox="0 0 674 541" width="674px" zoomAndPan="magnify"><defs/><g><text fill="#000000" font-family="sans-serif" font-size="14" font-weight="bold" lengthAdjust="spacing" textLength="312" x="182.25" y="27.9951">Contract Address Pay Transaction Flow</text><text fill="#000000" font-family="sans-serif" font-size="14" font-weight="bold" lengthAdjust="spacing" textLength="227" x="224.75" y="44.292">(Failed Path - Error Handling)</text><rect fill="#FFFFFF" height="374.2031" style="stroke:#181818;stroke-width:1.0;" width="10" x="83.5" y="99.8906"/><rect fill="#00EE20" height="353.0703" style="stroke:#181818;stroke-width:1.0;" width="10" x="326.5" y="121.0234"/><rect fill="#F5B7B1" height="280.6719" style="stroke:#000000;stroke-width:1.5;" width="657.5" x="10" y="208.4219"/><rect fill="#FFFFFF" height="234.4063" style="stroke:none;stroke-width:1.0;" width="657.5" x="10" y="254.6875"/><rect fill="#F5B7B1" height="163.4688" style="stroke:#000000;stroke-width:1.5;" width="566" x="20" y="318.625"/><rect fill="#FFFFFF" height="117.2031" style="stroke:none;stroke-width:1.0;" width="566" x="20" y="364.8906"/><rect fill="#FFFFFF" height="59.2656" style="stroke:#000000;stroke-width:1.5;" width="281" x="295" y="386.6953"/><line style="stroke:#181818;stroke-width:0.5;stroke-dasharray:5.0,5.0;" x1="88" x2="88" y1="89.8906" y2="506.0938"/><line style="stroke:#181818;stroke-width:0.5;stroke-dasharray:5.0,5.0;" x1="331" x2="331" y1="89.8906" y2="506.0938"/><rect fill="#E2E2F0" height="30.2969" rx="2.5" ry="2.5" style="stroke:#181818;stroke-width:0.5;" width="117" x="30" y="58.5938"/><text fill="#000000" font-family="sans-serif" font-size="14" lengthAdjust="spacing" textLength="103" x="37" y="78.5889">Smart Contract</text><rect fill="#E2E2F0" height="30.2969" rx="2.5" ry="2.5" style="stroke:#181818;stroke-width:0.5;" width="117" x="30" y="505.0938"/><text fill="#000000" font-family="sans-serif" font-size="14" lengthAdjust="spacing" textLength="103" x="37" y="525.0889">Smart Contract</text><rect fill="#00EE20" height="30.2969" rx="2.5" ry="2.5" style="stroke:#181818;stroke-width:0.5;" width="53" x="305" y="58.5938"/><text fill="#000000" font-family="sans-serif" font-size="14" lengthAdjust="spacing" textLength="39" x="312" y="78.5889">EVVM</text><rect fill="#00EE20" height="30.2969" rx="2.5" ry="2.5" style="stroke:#181818;stroke-width:0.5;" width="53" x="305" y="505.0938"/><text fill="#000000" font-family="sans-serif" font-size="14" lengthAdjust="spacing" textLength="39" x="312" y="525.0889">EVVM</text><rect fill="#FFFFFF" height="374.2031" style="stroke:#181818;stroke-width:1.0;" width="10" x="83.5" y="99.8906"/><rect fill="#00EE20" height="353.0703" style="stroke:#181818;stroke-width:1.0;" width="10" x="326.5" y="121.0234"/><polygon fill="#181818" points="314.5,117.0234,324.5,121.0234,314.5,125.0234,318.5,121.0234" style="stroke:#181818;stroke-width:1.0;"/><line style="stroke:#181818;stroke-width:1.0;" x1="93.5" x2="320.5" y1="121.0234" y2="121.0234"/><text fill="#000000" font-family="sans-serif" font-size="13" lengthAdjust="spacing" textLength="60" x="100.5" y="115.9575">caPay(&#183;&#183;&#183;)</text><line style="stroke:#181818;stroke-width:1.0;" x1="336.5" x2="378.5" y1="180.4219" y2="180.4219"/><line style="stroke:#181818;stroke-width:1.0;" x1="378.5" x2="378.5" y1="180.4219" y2="193.4219"/><line style="stroke:#181818;stroke-width:1.0;" x1="337.5" x2="378.5" y1="193.4219" y2="193.4219"/><polygon fill="#181818" points="347.5,189.4219,337.5,193.4219,347.5,197.4219,343.5,193.4219" style="stroke:#181818;stroke-width:1.0;"/><text fill="#000000" font-family="sans-serif" font-size="13" lengthAdjust="spacing" textLength="73" x="343.5" y="145.0903">assembly {</text><text fill="#000000" font-family="sans-serif" font-size="13" lengthAdjust="spacing" textLength="210" x="359.5" y="160.2231">size := extcodesize(msg.sender)</text><text fill="#000000" font-family="sans-serif" font-size="13" lengthAdjust="spacing" textLength="8" x="343.5" y="175.356">}</text><path d="M10,208.4219 L74,208.4219 L74,215.5547 L64,225.5547 L10,225.5547 L10,208.4219 " fill="#EEEEEE" style="stroke:#000000;stroke-width:1.5;"/><rect fill="none" height="280.6719" style="stroke:#000000;stroke-width:1.5;" width="657.5" x="10" y="208.4219"/><text fill="#000000" font-family="sans-serif" font-size="13" font-weight="bold" lengthAdjust="spacing" textLength="19" x="25" y="221.4888">alt</text><text fill="#000000" font-family="sans-serif" font-size="11" font-weight="bold" lengthAdjust="spacing" textLength="165" x="89" y="220.6323">[size == 0 (EOA address)]</text><line style="stroke:#181818;stroke-width:2.0;" x1="100.5" x2="110.5" y1="241.6875" y2="251.6875"/><line style="stroke:#181818;stroke-width:2.0;" x1="100.5" x2="110.5" y1="251.6875" y2="241.6875"/><line style="stroke:#181818;stroke-width:1.0;" x1="105.5" x2="325.5" y1="246.6875" y2="246.6875"/><text fill="#000000" font-family="sans-serif" font-size="13" lengthAdjust="spacing" textLength="132" x="110.5" y="241.6216">Revert with NotAnCA</text><line style="stroke:#000000;stroke-width:1.0;stroke-dasharray:2.0,2.0;" x1="10" x2="667.5" y1="255.6875" y2="255.6875"/><text fill="#000000" font-family="sans-serif" font-size="11" font-weight="bold" lengthAdjust="spacing" textLength="185" x="15" y="265.8979">[size &gt; 0 (Contract address)]</text><line style="stroke:#181818;stroke-width:1.0;" x1="336.5" x2="378.5" y1="290.625" y2="290.625"/><line style="stroke:#181818;stroke-width:1.0;" x1="378.5" x2="378.5" y1="290.625" y2="303.625"/><line style="stroke:#181818;stroke-width:1.0;" x1="337.5" x2="378.5" y1="303.625" y2="303.625"/><polygon fill="#181818" points="347.5,299.625,337.5,303.625,347.5,307.625,343.5,303.625" style="stroke:#181818;stroke-width:1.0;"/><text fill="#000000" font-family="sans-serif" font-size="13" lengthAdjust="spacing" textLength="312" x="343.5" y="285.5591">_updateBalance(msg.sender, to, token, amount)</text><path d="M20,318.625 L84,318.625 L84,325.7578 L74,335.7578 L20,335.7578 L20,318.625 " fill="#EEEEEE" style="stroke:#000000;stroke-width:1.5;"/><rect fill="none" height="163.4688" style="stroke:#000000;stroke-width:1.5;" width="566" x="20" y="318.625"/><text fill="#000000" font-family="sans-serif" font-size="13" font-weight="bold" lengthAdjust="spacing" textLength="19" x="35" y="331.6919">alt</text><text fill="#000000" font-family="sans-serif" font-size="11" font-weight="bold" lengthAdjust="spacing" textLength="199" x="99" y="330.8354">[_updateBalance returns false]</text><line style="stroke:#181818;stroke-width:2.0;" x1="100.5" x2="110.5" y1="351.8906" y2="361.8906"/><line style="stroke:#181818;stroke-width:2.0;" x1="100.5" x2="110.5" y1="361.8906" y2="351.8906"/><line style="stroke:#181818;stroke-width:1.0;" x1="105.5" x2="325.5" y1="356.8906" y2="356.8906"/><text fill="#000000" font-family="sans-serif" font-size="13" lengthAdjust="spacing" textLength="209" x="110.5" y="351.8247">Revert with UpdateBalanceFailed</text><line style="stroke:#000000;stroke-width:1.0;stroke-dasharray:2.0,2.0;" x1="20" x2="586" y1="365.8906" y2="365.8906"/><text fill="#000000" font-family="sans-serif" font-size="11" font-weight="bold" lengthAdjust="spacing" textLength="177" x="25" y="376.1011">[_updateBalance succeeds]</text><path d="M295,386.6953 L359,386.6953 L359,393.8281 L349,403.8281 L295,403.8281 L295,386.6953 " fill="#EEEEEE" style="stroke:#000000;stroke-width:1.5;"/><rect fill="none" height="59.2656" style="stroke:#000000;stroke-width:1.5;" width="281" x="295" y="386.6953"/><text fill="#000000" font-family="sans-serif" font-size="13" font-weight="bold" lengthAdjust="spacing" textLength="19" x="310" y="399.7622">alt</text><text fill="#000000" font-family="sans-serif" font-size="11" font-weight="bold" lengthAdjust="spacing" textLength="197" x="374" y="398.9058">[isAddressStaker(msg.sender)]</text><line style="stroke:#181818;stroke-width:1.0;" x1="336.5" x2="378.5" y1="424.9609" y2="424.9609"/><line style="stroke:#181818;stroke-width:1.0;" x1="378.5" x2="378.5" y1="424.9609" y2="437.9609"/><line style="stroke:#181818;stroke-width:1.0;" x1="337.5" x2="378.5" y1="437.9609" y2="437.9609"/><polygon fill="#181818" points="347.5,433.9609,337.5,437.9609,347.5,441.9609,343.5,437.9609" style="stroke:#181818;stroke-width:1.0;"/><text fill="#000000" font-family="sans-serif" font-size="13" lengthAdjust="spacing" textLength="181" x="343.5" y="419.895">_giveReward(msg.sender, 1)</text><polygon fill="#181818" points="99.5,470.0938,89.5,474.0938,99.5,478.0938,95.5,474.0938" style="stroke:#181818;stroke-width:1.0;"/><line style="stroke:#181818;stroke-width:1.0;stroke-dasharray:2.0,2.0;" x1="93.5" x2="330.5" y1="474.0938" y2="474.0938"/><text fill="#000000" font-family="sans-serif" font-size="13" lengthAdjust="spacing" textLength="209" x="105.5" y="469.0278">Payment completed successfully</text><!--SRC=[ZLDDQnin4BthLmpnnOQaTGgb46A3OpRjfHyaRKw6CfR6Zh1MCjBiEcx8xygzlwpQbIFljZbq5y6EDE_DUwFPoy1xGrEXdAnAiWoF0k0AvUQZTvLLSsUSXzszPX9FulBj8LjiqREMUeiHSN9RnWZcph97oIU00UGXw2SMTtUVssEgwn86ut5Hl1iBmPeDPJpCbF8K0dp3FNptQ4FSrCx2jN6xXHrUepQauYdVmnaKtaU1dz0ge-rw94IJN2FJKSBB1vnDK-4Ba1Z9Xx-VctTqXFHbjT4HWo5GkJHxU5nOY4_GlmWk9a0FB9sY9XoMOVqca5NaHmlx5CKOXi7g_VB3yZpbJoOmXc7nTGQON8v4mvLAFMJDiTmDrHIxkjFHvXV7CpkVjQc2J20Oj5UIEASDPUvUZxT3ddtyhBOgchr2WrPs9Py2ksPjo9u2bl7wkSFIjTAd04zSUHjWXL5Qc_mVddvqATATPcYItV7vLy5GIKcaGX-GLIQC3eT1kcNSaE_UJKv_hJrhNTCDxT2hNc_EZwYuys_bH1DvEdxZaBN_b7JbrX37gMsLXx2gZDbdgABU1BwsduVvfNwp_W00]--></g></svg>