<?xml version="1.0" encoding="us-ascii" standalone="no"?><svg xmlns="http://www.w3.org/2000/svg" xmlns:xlink="http://www.w3.org/1999/xlink" contentStyleType="text/css" height="1383px" preserveAspectRatio="none" style="width:892px;height:1383px;background:#FFFFFF;" version="1.1" viewBox="0 0 892 1383" width="892px" zoomAndPan="magnify"><defs/><g><text fill="#000000" font-family="sans-serif" font-size="14" font-weight="bold" lengthAdjust="spacing" textLength="243" x="320.5" y="27.9951">Disperse Pay Transaction Flow</text><text fill="#000000" font-family="sans-serif" font-size="14" font-weight="bold" lengthAdjust="spacing" textLength="285" x="299.5" y="44.292">(Happy Path - Successful Execution)</text><rect fill="#FFFFFF" height="1139.7969" style="stroke:#181818;stroke-width:1.0;" width="10" x="51" y="144.8906"/><rect fill="#00EE20" height="1118.6641" style="stroke:#181818;stroke-width:1.0;" width="10" x="311" y="166.0234"/><rect fill="#FFFFFF" height="59.2656" style="stroke:#000000;stroke-width:1.5;" width="271.5" x="279.5" y="223.1563"/><rect fill="#FFFFFF" height="59.2656" style="stroke:#000000;stroke-width:1.5;" width="238.5" x="279.5" y="338.5547"/><rect fill="#FFFFFF" height="190.6016" style="stroke:#000000;stroke-width:1.5;" width="435.5" x="279.5" y="604.6172"/><rect fill="#FFFFFF" height="56.9375" style="stroke:none;stroke-width:1.0;" width="435.5" x="279.5" y="738.2813"/><rect fill="#FFFFFF" height="166.4688" style="stroke:#000000;stroke-width:1.5;" width="543.5" x="279.5" y="959.8828"/><rect fill="#FFFFFF" height="65.0703" style="stroke:none;stroke-width:1.0;" width="543.5" x="279.5" y="1061.2813"/><rect fill="#FFFFFF" height="116.2031" style="stroke:#000000;stroke-width:1.5;" width="305.5" x="279.5" y="1140.3516"/><rect fill="#FFFFFF" height="56.9375" style="stroke:none;stroke-width:1.0;" width="305.5" x="279.5" y="1199.6172"/><line style="stroke:#181818;stroke-width:0.5;stroke-dasharray:5.0,5.0;" x1="56" x2="56" y1="134.8906" y2="1302.6875"/><line style="stroke:#181818;stroke-width:0.5;stroke-dasharray:5.0,5.0;" x1="315.5" x2="315.5" y1="134.8906" y2="1302.6875"/><line style="stroke:#181818;stroke-width:0.5;stroke-dasharray:5.0,5.0;" x1="653" x2="653" y1="134.8906" y2="1302.6875"/><text fill="#000000" font-family="sans-serif" font-size="14" lengthAdjust="spacing" textLength="96" x="5" y="131.5889">Fisher or User</text><ellipse cx="56" cy="67.0938" fill="#E2E2F0" rx="8" ry="8" style="stroke:#181818;stroke-width:0.5;"/><path d="M56,75.0938 L56,102.0938 M43,83.0938 L69,83.0938 M56,102.0938 L43,117.0938 M56,102.0938 L69,117.0938 " fill="none" style="stroke:#181818;stroke-width:0.5;"/><text fill="#000000" font-family="sans-serif" font-size="14" lengthAdjust="spacing" textLength="96" x="5" y="1314.6826">Fisher or User</text><ellipse cx="56" cy="1326.4844" fill="#E2E2F0" rx="8" ry="8" style="stroke:#181818;stroke-width:0.5;"/><path d="M56,1334.4844 L56,1361.4844 M43,1342.4844 L69,1342.4844 M56,1361.4844 L43,1376.4844 M56,1361.4844 L69,1376.4844 " fill="none" style="stroke:#181818;stroke-width:0.5;"/><rect fill="#00EE20" height="30.2969" rx="2.5" ry="2.5" style="stroke:#181818;stroke-width:0.5;" width="53" x="289.5" y="103.5938"/><text fill="#000000" font-family="sans-serif" font-size="14" lengthAdjust="spacing" textLength="39" x="296.5" y="123.5889">EVVM</text><rect fill="#00EE20" height="30.2969" rx="2.5" ry="2.5" style="stroke:#181818;stroke-width:0.5;" width="53" x="289.5" y="1301.6875"/><text fill="#000000" font-family="sans-serif" font-size="14" lengthAdjust="spacing" textLength="39" x="296.5" y="1321.6826">EVVM</text><rect fill="#00CEEE" height="30.2969" rx="2.5" ry="2.5" style="stroke:#181818;stroke-width:0.5;" width="104" x="601" y="103.5938"/><text fill="#000000" font-family="sans-serif" font-size="14" lengthAdjust="spacing" textLength="90" x="608" y="123.5889">NameService</text><rect fill="#00CEEE" height="30.2969" rx="2.5" ry="2.5" style="stroke:#181818;stroke-width:0.5;" width="104" x="601" y="1301.6875"/><text fill="#000000" font-family="sans-serif" font-size="14" lengthAdjust="spacing" textLength="90" x="608" y="1321.6826">NameService</text><rect fill="#FFFFFF" height="1139.7969" style="stroke:#181818;stroke-width:1.0;" width="10" x="51" y="144.8906"/><rect fill="#00EE20" height="1118.6641" style="stroke:#181818;stroke-width:1.0;" width="10" x="311" y="166.0234"/><polygon fill="#181818" points="299,162.0234,309,166.0234,299,170.0234,303,166.0234" style="stroke:#181818;stroke-width:1.0;"/><line style="stroke:#181818;stroke-width:1.0;" x1="61" x2="305" y1="166.0234" y2="166.0234"/><text fill="#000000" font-family="sans-serif" font-size="13" lengthAdjust="spacing" textLength="99" x="68" y="160.9575">dispersePay(&#183;&#183;&#183;)</text><line style="stroke:#181818;stroke-width:1.0;" x1="321" x2="363" y1="195.1563" y2="195.1563"/><line style="stroke:#181818;stroke-width:1.0;" x1="363" x2="363" y1="195.1563" y2="208.1563"/><line style="stroke:#181818;stroke-width:1.0;" x1="322" x2="363" y1="208.1563" y2="208.1563"/><polygon fill="#181818" points="332,204.1563,322,208.1563,332,212.1563,328,208.1563" style="stroke:#181818;stroke-width:1.0;"/><text fill="#000000" font-family="sans-serif" font-size="13" lengthAdjust="spacing" textLength="244" x="328" y="190.0903">verifyMessageSignedForDispersePay()</text><path d="M279.5,223.1563 L343.5,223.1563 L343.5,230.2891 L333.5,240.2891 L279.5,240.2891 L279.5,223.1563 " fill="#EEEEEE" style="stroke:#000000;stroke-width:1.5;"/><rect fill="none" height="59.2656" style="stroke:#000000;stroke-width:1.5;" width="271.5" x="279.5" y="223.1563"/><text fill="#000000" font-family="sans-serif" font-size="13" font-weight="bold" lengthAdjust="spacing" textLength="19" x="294.5" y="236.2231">alt</text><text fill="#000000" font-family="sans-serif" font-size="11" font-weight="bold" lengthAdjust="spacing" textLength="157" x="358.5" y="235.3667">[executor != address(0)]</text><line style="stroke:#181818;stroke-width:1.0;" x1="321" x2="363" y1="261.4219" y2="261.4219"/><line style="stroke:#181818;stroke-width:1.0;" x1="363" x2="363" y1="261.4219" y2="274.4219"/><line style="stroke:#181818;stroke-width:1.0;" x1="322" x2="363" y1="274.4219" y2="274.4219"/><polygon fill="#181818" points="332,270.4219,322,274.4219,332,278.4219,328,274.4219" style="stroke:#181818;stroke-width:1.0;"/><text fill="#000000" font-family="sans-serif" font-size="13" lengthAdjust="spacing" textLength="211" x="328" y="256.356">verify if msg.sender == executor</text><line style="stroke:#181818;stroke-width:1.0;" x1="321" x2="363" y1="310.5547" y2="310.5547"/><line style="stroke:#181818;stroke-width:1.0;" x1="363" x2="363" y1="310.5547" y2="323.5547"/><line style="stroke:#181818;stroke-width:1.0;" x1="322" x2="363" y1="323.5547" y2="323.5547"/><polygon fill="#181818" points="332,319.5547,322,323.5547,332,327.5547,328,323.5547" style="stroke:#181818;stroke-width:1.0;"/><text fill="#000000" font-family="sans-serif" font-size="13" lengthAdjust="spacing" textLength="238" x="328" y="305.4888">verify balance (amount + priorityFee)</text><path d="M279.5,338.5547 L343.5,338.5547 L343.5,345.6875 L333.5,355.6875 L279.5,355.6875 L279.5,338.5547 " fill="#EEEEEE" style="stroke:#000000;stroke-width:1.5;"/><rect fill="none" height="59.2656" style="stroke:#000000;stroke-width:1.5;" width="238.5" x="279.5" y="338.5547"/><text fill="#000000" font-family="sans-serif" font-size="13" font-weight="bold" lengthAdjust="spacing" textLength="19" x="294.5" y="351.6216">alt</text><text fill="#000000" font-family="sans-serif" font-size="11" font-weight="bold" lengthAdjust="spacing" textLength="136" x="358.5" y="350.7651">[priorityFlag == true]</text><line style="stroke:#181818;stroke-width:1.0;" x1="321" x2="363" y1="376.8203" y2="376.8203"/><line style="stroke:#181818;stroke-width:1.0;" x1="363" x2="363" y1="376.8203" y2="389.8203"/><line style="stroke:#181818;stroke-width:1.0;" x1="322" x2="363" y1="389.8203" y2="389.8203"/><polygon fill="#181818" points="332,385.8203,322,389.8203,332,393.8203,328,389.8203" style="stroke:#181818;stroke-width:1.0;"/><text fill="#000000" font-family="sans-serif" font-size="13" lengthAdjust="spacing" textLength="178" x="328" y="371.7544">verify async nonce not used</text><line style="stroke:#181818;stroke-width:1.0;" x1="321" x2="363" y1="437.5859" y2="437.5859"/><line style="stroke:#181818;stroke-width:1.0;" x1="363" x2="363" y1="437.5859" y2="450.5859"/><line style="stroke:#181818;stroke-width:1.0;" x1="322" x2="363" y1="450.5859" y2="450.5859"/><polygon fill="#181818" points="332,446.5859,322,450.5859,332,454.5859,328,450.5859" style="stroke:#181818;stroke-width:1.0;"/><text fill="#000000" font-family="sans-serif" font-size="13" lengthAdjust="spacing" textLength="313" x="328" y="432.52">balances[from][token] -= (amount + priorityFee)</text><path d="M653,409.8203 L653,464.8203 L870,464.8203 L870,419.8203 L860,409.8203 L653,409.8203 " fill="#FEFFDD" style="stroke:#181818;stroke-width:0.5;"/><path d="M860,409.8203 L860,419.8203 L870,419.8203 L860,409.8203 " fill="#FEFFDD" style="stroke:#181818;stroke-width:0.5;"/><text fill="#000000" font-family="sans-serif" font-size="13" lengthAdjust="spacing" textLength="196" x="659" y="426.8872">IMPORTANT: Balance deducted</text><text fill="#000000" font-family="sans-serif" font-size="13" lengthAdjust="spacing" textLength="130" x="659" y="442.02">UPFRONT to prevent</text><text fill="#000000" font-family="sans-serif" font-size="13" lengthAdjust="spacing" textLength="125" x="659" y="457.1528">re-entrancy attacks</text><line style="stroke:#181818;stroke-width:1.0;" x1="321" x2="363" y1="491.3516" y2="491.3516"/><line style="stroke:#181818;stroke-width:1.0;" x1="363" x2="363" y1="491.3516" y2="504.3516"/><line style="stroke:#181818;stroke-width:1.0;" x1="322" x2="363" y1="504.3516" y2="504.3516"/><polygon fill="#181818" points="332,500.3516,322,504.3516,332,508.3516,328,504.3516" style="stroke:#181818;stroke-width:1.0;"/><text fill="#000000" font-family="sans-serif" font-size="13" lengthAdjust="spacing" textLength="154" x="328" y="486.2856">acomulatedAmount = 0</text><rect fill="#EEEEEE" height="3" style="stroke:#EEEEEE;stroke-width:1.0;" width="885" x="0" y="532.918"/><line style="stroke:#000000;stroke-width:1.0;" x1="0" x2="885" y1="532.918" y2="532.918"/><line style="stroke:#000000;stroke-width:1.0;" x1="0" x2="885" y1="535.918" y2="535.918"/><rect fill="#EEEEEE" height="23.1328" style="stroke:#000000;stroke-width:2.0;" width="131" x="377" y="522.3516"/><text fill="#000000" font-family="sans-serif" font-size="13" font-weight="bold" lengthAdjust="spacing" textLength="112" x="383" y="538.4185">Begin For Loop</text><line style="stroke:#181818;stroke-width:1.0;" x1="321" x2="363" y1="576.6172" y2="576.6172"/><line style="stroke:#181818;stroke-width:1.0;" x1="363" x2="363" y1="576.6172" y2="589.6172"/><line style="stroke:#181818;stroke-width:1.0;" x1="322" x2="363" y1="589.6172" y2="589.6172"/><polygon fill="#181818" points="332,585.6172,322,589.6172,332,593.6172,328,589.6172" style="stroke:#181818;stroke-width:1.0;"/><text fill="#000000" font-family="sans-serif" font-size="13" lengthAdjust="spacing" textLength="268" x="328" y="571.5513">acomulatedAmount += toData[i].amount</text><path d="M279.5,604.6172 L343.5,604.6172 L343.5,611.75 L333.5,621.75 L279.5,621.75 L279.5,604.6172 " fill="#EEEEEE" style="stroke:#000000;stroke-width:1.5;"/><rect fill="none" height="190.6016" style="stroke:#000000;stroke-width:1.5;" width="435.5" x="279.5" y="604.6172"/><text fill="#000000" font-family="sans-serif" font-size="13" font-weight="bold" lengthAdjust="spacing" textLength="19" x="294.5" y="617.6841">alt</text><text fill="#000000" font-family="sans-serif" font-size="11" font-weight="bold" lengthAdjust="spacing" textLength="173" x="358.5" y="616.8276">[toData[i].to_identity != ""]</text><polygon fill="#181818" points="641,638.8828,651,642.8828,641,646.8828,645,642.8828" style="stroke:#181818;stroke-width:1.0;"/><line style="stroke:#181818;stroke-width:1.0;" x1="321" x2="647" y1="642.8828" y2="642.8828"/><text fill="#000000" font-family="sans-serif" font-size="13" lengthAdjust="spacing" textLength="229" x="328" y="637.8169">strictVerifyIfIdentityExist(to_identity)</text><polygon fill="#181818" points="332,668.0156,322,672.0156,332,676.0156,328,672.0156" style="stroke:#181818;stroke-width:1.0;"/><line style="stroke:#181818;stroke-width:1.0;stroke-dasharray:2.0,2.0;" x1="326" x2="652" y1="672.0156" y2="672.0156"/><text fill="#000000" font-family="sans-serif" font-size="13" lengthAdjust="spacing" textLength="69" x="338" y="666.9497">return true</text><polygon fill="#181818" points="641,697.1484,651,701.1484,641,705.1484,645,701.1484" style="stroke:#181818;stroke-width:1.0;"/><line style="stroke:#181818;stroke-width:1.0;" x1="321" x2="647" y1="701.1484" y2="701.1484"/><text fill="#000000" font-family="sans-serif" font-size="13" lengthAdjust="spacing" textLength="199" x="328" y="696.0825">getOwnerOfIdentity(to_identity)</text><polygon fill="#181818" points="332,726.2813,322,730.2813,332,734.2813,328,730.2813" style="stroke:#181818;stroke-width:1.0;"/><line style="stroke:#181818;stroke-width:1.0;stroke-dasharray:2.0,2.0;" x1="326" x2="652" y1="730.2813" y2="730.2813"/><text fill="#000000" font-family="sans-serif" font-size="13" lengthAdjust="spacing" textLength="136" x="338" y="725.2153">return owner address</text><line style="stroke:#000000;stroke-width:1.0;stroke-dasharray:2.0,2.0;" x1="279.5" x2="715" y1="739.2813" y2="739.2813"/><text fill="#000000" font-family="sans-serif" font-size="11" font-weight="bold" lengthAdjust="spacing" textLength="177" x="284.5" y="749.4917">[toData[i].to_identity == ""]</text><line style="stroke:#181818;stroke-width:1.0;" x1="321" x2="363" y1="774.2188" y2="774.2188"/><line style="stroke:#181818;stroke-width:1.0;" x1="363" x2="363" y1="774.2188" y2="787.2188"/><line style="stroke:#181818;stroke-width:1.0;" x1="322" x2="363" y1="787.2188" y2="787.2188"/><polygon fill="#181818" points="332,783.2188,322,787.2188,332,791.2188,328,787.2188" style="stroke:#181818;stroke-width:1.0;"/><text fill="#000000" font-family="sans-serif" font-size="13" lengthAdjust="spacing" textLength="159" x="328" y="769.1528">use toData[i].to_address</text><line style="stroke:#181818;stroke-width:1.0;" x1="321" x2="363" y1="823.3516" y2="823.3516"/><line style="stroke:#181818;stroke-width:1.0;" x1="363" x2="363" y1="823.3516" y2="836.3516"/><line style="stroke:#181818;stroke-width:1.0;" x1="322" x2="363" y1="836.3516" y2="836.3516"/><polygon fill="#181818" points="332,832.3516,322,836.3516,332,840.3516,328,836.3516" style="stroke:#181818;stroke-width:1.0;"/><text fill="#000000" font-family="sans-serif" font-size="13" lengthAdjust="spacing" textLength="297" x="328" y="818.2856">balances[to_aux][token] += toData[i].amount</text><rect fill="#EEEEEE" height="3" style="stroke:#EEEEEE;stroke-width:1.0;" width="885" x="0" y="864.918"/><line style="stroke:#000000;stroke-width:1.0;" x1="0" x2="885" y1="864.918" y2="864.918"/><line style="stroke:#000000;stroke-width:1.0;" x1="0" x2="885" y1="867.918" y2="867.918"/><rect fill="#EEEEEE" height="23.1328" style="stroke:#000000;stroke-width:2.0;" width="117" x="384" y="854.3516"/><text fill="#000000" font-family="sans-serif" font-size="13" font-weight="bold" lengthAdjust="spacing" textLength="98" x="390" y="870.4185">End For Loop</text><line style="stroke:#181818;stroke-width:1.0;" x1="321" x2="363" y1="920.25" y2="920.25"/><line style="stroke:#181818;stroke-width:1.0;" x1="363" x2="363" y1="920.25" y2="933.25"/><line style="stroke:#181818;stroke-width:1.0;" x1="322" x2="363" y1="933.25" y2="933.25"/><polygon fill="#181818" points="332,929.25,322,933.25,332,937.25,328,933.25" style="stroke:#181818;stroke-width:1.0;"/><text fill="#000000" font-family="sans-serif" font-size="13" lengthAdjust="spacing" textLength="245" x="328" y="915.1841">verify acomulatedAmount == amount</text><path d="M585,892.4844 L585,947.4844 L796,947.4844 L796,902.4844 L786,892.4844 L585,892.4844 " fill="#FEFFDD" style="stroke:#181818;stroke-width:0.5;"/><path d="M786,892.4844 L786,902.4844 L796,902.4844 L786,892.4844 " fill="#FEFFDD" style="stroke:#181818;stroke-width:0.5;"/><text fill="#000000" font-family="sans-serif" font-size="13" lengthAdjust="spacing" textLength="172" x="591" y="909.5513">CRITICAL: Sum of individual</text><text fill="#000000" font-family="sans-serif" font-size="13" lengthAdjust="spacing" textLength="166" x="591" y="924.6841">amounts must equal total</text><text fill="#000000" font-family="sans-serif" font-size="13" lengthAdjust="spacing" textLength="190" x="591" y="939.8169">Prevents over/under payment</text><path d="M279.5,959.8828 L343.5,959.8828 L343.5,967.0156 L333.5,977.0156 L279.5,977.0156 L279.5,959.8828 " fill="#EEEEEE" style="stroke:#000000;stroke-width:1.5;"/><rect fill="none" height="166.4688" style="stroke:#000000;stroke-width:1.5;" width="543.5" x="279.5" y="959.8828"/><text fill="#000000" font-family="sans-serif" font-size="13" font-weight="bold" lengthAdjust="spacing" textLength="19" x="294.5" y="972.9497">alt</text><text fill="#000000" font-family="sans-serif" font-size="11" font-weight="bold" lengthAdjust="spacing" textLength="197" x="358.5" y="972.0933">[isAddressStaker(msg.sender)]</text><line style="stroke:#181818;stroke-width:1.0;" x1="321" x2="363" y1="998.1484" y2="998.1484"/><line style="stroke:#181818;stroke-width:1.0;" x1="363" x2="363" y1="998.1484" y2="1011.1484"/><line style="stroke:#181818;stroke-width:1.0;" x1="322" x2="363" y1="1011.1484" y2="1011.1484"/><polygon fill="#181818" points="332,1007.1484,322,1011.1484,332,1015.1484,328,1011.1484" style="stroke:#181818;stroke-width:1.0;"/><text fill="#000000" font-family="sans-serif" font-size="13" lengthAdjust="spacing" textLength="181" x="328" y="993.0825">_giveReward(msg.sender, 1)</text><line style="stroke:#181818;stroke-width:1.0;" x1="321" x2="363" y1="1040.2813" y2="1040.2813"/><line style="stroke:#181818;stroke-width:1.0;" x1="363" x2="363" y1="1040.2813" y2="1053.2813"/><line style="stroke:#181818;stroke-width:1.0;" x1="322" x2="363" y1="1053.2813" y2="1053.2813"/><polygon fill="#181818" points="332,1049.2813,322,1053.2813,332,1057.2813,328,1053.2813" style="stroke:#181818;stroke-width:1.0;"/><text fill="#000000" font-family="sans-serif" font-size="13" lengthAdjust="spacing" textLength="286" x="328" y="1035.2153">balances[msg.sender][token] += priorityFee</text><path d="M626,1027.6484 L626,1052.6484 L803,1052.6484 L803,1037.6484 L793,1027.6484 L626,1027.6484 " fill="#FEFFDD" style="stroke:#181818;stroke-width:0.5;"/><path d="M793,1027.6484 L793,1037.6484 L803,1037.6484 L793,1027.6484 " fill="#FEFFDD" style="stroke:#181818;stroke-width:0.5;"/><text fill="#000000" font-family="sans-serif" font-size="13" lengthAdjust="spacing" textLength="156" x="632" y="1044.7153">Staker keeps priority fee</text><line style="stroke:#000000;stroke-width:1.0;stroke-dasharray:2.0,2.0;" x1="279.5" x2="823" y1="1062.2813" y2="1062.2813"/><text fill="#000000" font-family="sans-serif" font-size="11" font-weight="bold" lengthAdjust="spacing" textLength="87" x="284.5" y="1072.4917">[not a staker]</text><line style="stroke:#181818;stroke-width:1.0;" x1="321" x2="363" y1="1101.2852" y2="1101.2852"/><line style="stroke:#181818;stroke-width:1.0;" x1="363" x2="363" y1="1101.2852" y2="1114.2852"/><line style="stroke:#181818;stroke-width:1.0;" x1="322" x2="363" y1="1114.2852" y2="1114.2852"/><polygon fill="#181818" points="332,1110.2852,322,1114.2852,332,1118.2852,328,1114.2852" style="stroke:#181818;stroke-width:1.0;"/><text fill="#000000" font-family="sans-serif" font-size="13" lengthAdjust="spacing" textLength="240" x="328" y="1096.2192">balances[from][token] += priorityFee</text><path d="M580,1081.0859 L580,1121.0859 L766,1121.0859 L766,1091.0859 L756,1081.0859 L580,1081.0859 " fill="#FEFFDD" style="stroke:#181818;stroke-width:0.5;"/><path d="M756,1081.0859 L756,1091.0859 L766,1091.0859 L756,1081.0859 " fill="#FEFFDD" style="stroke:#181818;stroke-width:0.5;"/><text fill="#000000" font-family="sans-serif" font-size="13" lengthAdjust="spacing" textLength="129" x="586" y="1098.1528">Priority fee refunded</text><text fill="#000000" font-family="sans-serif" font-size="13" lengthAdjust="spacing" textLength="165" x="586" y="1113.2856">if not processed by staker</text><path d="M279.5,1140.3516 L343.5,1140.3516 L343.5,1147.4844 L333.5,1157.4844 L279.5,1157.4844 L279.5,1140.3516 " fill="#EEEEEE" style="stroke:#000000;stroke-width:1.5;"/><rect fill="none" height="116.2031" style="stroke:#000000;stroke-width:1.5;" width="305.5" x="279.5" y="1140.3516"/><text fill="#000000" font-family="sans-serif" font-size="13" font-weight="bold" lengthAdjust="spacing" textLength="19" x="294.5" y="1153.4185">alt</text><text fill="#000000" font-family="sans-serif" font-size="11" font-weight="bold" lengthAdjust="spacing" textLength="136" x="358.5" y="1152.562">[priorityFlag == true]</text><line style="stroke:#181818;stroke-width:1.0;" x1="321" x2="363" y1="1178.6172" y2="1178.6172"/><line style="stroke:#181818;stroke-width:1.0;" x1="363" x2="363" y1="1178.6172" y2="1191.6172"/><line style="stroke:#181818;stroke-width:1.0;" x1="322" x2="363" y1="1191.6172" y2="1191.6172"/><polygon fill="#181818" points="332,1187.6172,322,1191.6172,332,1195.6172,328,1191.6172" style="stroke:#181818;stroke-width:1.0;"/><text fill="#000000" font-family="sans-serif" font-size="13" lengthAdjust="spacing" textLength="245" x="328" y="1173.5513">asyncUsedNonce[from][nonce] = true</text><line style="stroke:#000000;stroke-width:1.0;stroke-dasharray:2.0,2.0;" x1="279.5" x2="585" y1="1200.6172" y2="1200.6172"/><text fill="#000000" font-family="sans-serif" font-size="11" font-weight="bold" lengthAdjust="spacing" textLength="142" x="284.5" y="1210.8276">[priorityFlag == false]</text><line style="stroke:#181818;stroke-width:1.0;" x1="321" x2="363" y1="1235.5547" y2="1235.5547"/><line style="stroke:#181818;stroke-width:1.0;" x1="363" x2="363" y1="1235.5547" y2="1248.5547"/><line style="stroke:#181818;stroke-width:1.0;" x1="322" x2="363" y1="1248.5547" y2="1248.5547"/><polygon fill="#181818" points="332,1244.5547,322,1248.5547,332,1252.5547,328,1248.5547" style="stroke:#181818;stroke-width:1.0;"/><text fill="#000000" font-family="sans-serif" font-size="13" lengthAdjust="spacing" textLength="195" x="328" y="1230.4888">nextSyncUsedNonce[from]++</text><polygon fill="#181818" points="67,1280.6875,57,1284.6875,67,1288.6875,63,1284.6875" style="stroke:#181818;stroke-width:1.0;"/><line style="stroke:#181818;stroke-width:1.0;stroke-dasharray:2.0,2.0;" x1="61" x2="315" y1="1284.6875" y2="1284.6875"/><text fill="#000000" font-family="sans-serif" font-size="13" lengthAdjust="spacing" textLength="226" x="73" y="1279.6216">Transaction completed successfully</text><!--SRC=[dLN1Rjf04BtxAwRaGfIIq1vHY4I8QP4QG41oIQ9eunt32dlNtLsJM5M_g_T-MMTjOkn2I5KuOBmpRzxCl9azDpQByCBZAaXZb1P-U42VInQilcYLIjvNaTBml1GMlP_U-Td6tcE1fVUDWJ1Br42FDmPr0vW1VC4WTOTUmhGLWKWOuJRyszlhudozZk6etVRzp-swoOZ5E4Ez5W7cbh4qph3l-xxdULRO2E5Ac0IrGPYm3EQQIKDCX98mYDJplMn-PKcIqQ5TGWjcQH2WCM4QWP-p8iFZdBjOCuibLQ_atBee-7M0Rm9HdERlN-vxN76ivk3b_xQUQzGYpAufC5lWJ2maye7ILnKyno6oS9INTLkm3rrWd6joRBQFypxiHGOHGcmMfmObfzftkvKy97-33ZonYCa0eSbYwgk54qYqK5hOR81O9rGUH6pXuArEyG0TPZ8PW5GENIeBgK6-byc6WhaBjOeVxgnQeNo0LlSjJWI6eCLYQSbvU3qPJ-UzqRn3wYnIuSZJm2A_bpUJmNGyceDLX81h4lAzrDYYNr98G1Ij9KMR7KOiK74QKKTvhs3G1UedfNo92q6QegPyKogX8hplUaA5KbVCiZlnS5eaLAlgzj2gHy696-NfUjver8hhLDy1OxK8x6rUuM4ut9ZxByBOPiM_a8bpQMsfQRIfbhjjAv0NQCVF4lMuHFrNGENSNYNgOKHJU32txavk6pnIIDsbn3oa6cUNlfIwsLjl2kbBVh1nhwhTQJrDNu5Iqrr_EfmF-xrl7TecCQWGXEHYBNZAedjPED2cIeq5_4xlY9Dr9vD2XWOKnJjByqbDMEPsh5UJXJ2z8lcPPIlKpUraxrq1ZmknnYa-CyqhfX_XqrxhidPRqshzAjEMUzSIB_Z02Z4nfIM4P5fhlPjuHd9rnWSfr8R-lU2JIZoIN-WAI7DEcy_5IxHoUnqvF6MleGlj_CSMozSNtLvyv3ROXcQ-pHvWurNDzs_OaD7XFbo9BtQs2troKbMvCtzT_vtQVKRoJ28aUO8fRx4eypoEkzTNzHt1Udy0]--></g></svg>