<?xml version="1.0" encoding="us-ascii" standalone="no"?><svg xmlns="http://www.w3.org/2000/svg" xmlns:xlink="http://www.w3.org/1999/xlink" contentStyleType="text/css" height="1018px" preserveAspectRatio="none" style="width:798px;height:1018px;background:#FFFFFF;" version="1.1" viewBox="0 0 798 1018" width="798px" zoomAndPan="magnify"><defs/><g><text fill="#000000" font-family="sans-serif" font-size="14" font-weight="bold" lengthAdjust="spacing" textLength="387" x="201.75" y="27.9951">Disperse Contract Address Pay Transaction Flow</text><text fill="#000000" font-family="sans-serif" font-size="14" font-weight="bold" lengthAdjust="spacing" textLength="227" x="281.75" y="44.292">(Failed Path - Error Handling)</text><rect fill="#FFFFFF" height="844.5391" style="stroke:#181818;stroke-width:1.0;" width="10" x="93.5" y="99.8906"/><rect fill="#00EE20" height="823.4063" style="stroke:#181818;stroke-width:1.0;" width="10" x="352.5" y="121.0234"/><rect fill="#F5B7B1" height="758.0078" style="stroke:#000000;stroke-width:1.5;" width="771.5" x="10" y="208.4219"/><rect fill="#FFFFFF" height="711.7422" style="stroke:none;stroke-width:1.0;" width="771.5" x="10" y="254.6875"/><rect fill="#F5B7B1" height="640.8047" style="stroke:#000000;stroke-width:1.5;" width="751.5" x="20" y="318.625"/><rect fill="#FFFFFF" height="594.5391" style="stroke:none;stroke-width:1.0;" width="751.5" x="20" y="364.8906"/><rect fill="#F5B7B1" height="118.3359" style="stroke:#000000;stroke-width:1.5;" width="731.5" x="30" y="556.2266"/><rect fill="#FFFFFF" height="56.9375" style="stroke:none;stroke-width:1.0;" width="731.5" x="30" y="617.625"/><rect fill="#F5B7B1" height="178.6016" style="stroke:#000000;stroke-width:1.5;" width="582" x="30" y="773.8281"/><rect fill="#FFFFFF" height="117.2031" style="stroke:none;stroke-width:1.0;" width="582" x="30" y="835.2266"/><rect fill="#FFFFFF" height="59.2656" style="stroke:#000000;stroke-width:1.5;" width="281" x="321" y="857.0313"/><line style="stroke:#181818;stroke-width:0.5;stroke-dasharray:5.0,5.0;" x1="98" x2="98" y1="89.8906" y2="983.4297"/><line style="stroke:#181818;stroke-width:0.5;stroke-dasharray:5.0,5.0;" x1="357" x2="357" y1="89.8906" y2="983.4297"/><rect fill="#E2E2F0" height="30.2969" rx="2.5" ry="2.5" style="stroke:#181818;stroke-width:0.5;" width="117" x="40" y="58.5938"/><text fill="#000000" font-family="sans-serif" font-size="14" lengthAdjust="spacing" textLength="103" x="47" y="78.5889">Smart Contract</text><rect fill="#E2E2F0" height="30.2969" rx="2.5" ry="2.5" style="stroke:#181818;stroke-width:0.5;" width="117" x="40" y="982.4297"/><text fill="#000000" font-family="sans-serif" font-size="14" lengthAdjust="spacing" textLength="103" x="47" y="1002.4248">Smart Contract</text><rect fill="#00EE20" height="30.2969" rx="2.5" ry="2.5" style="stroke:#181818;stroke-width:0.5;" width="53" x="331" y="58.5938"/><text fill="#000000" font-family="sans-serif" font-size="14" lengthAdjust="spacing" textLength="39" x="338" y="78.5889">EVVM</text><rect fill="#00EE20" height="30.2969" rx="2.5" ry="2.5" style="stroke:#181818;stroke-width:0.5;" width="53" x="331" y="982.4297"/><text fill="#000000" font-family="sans-serif" font-size="14" lengthAdjust="spacing" textLength="39" x="338" y="1002.4248">EVVM</text><rect fill="#FFFFFF" height="844.5391" style="stroke:#181818;stroke-width:1.0;" width="10" x="93.5" y="99.8906"/><rect fill="#00EE20" height="823.4063" style="stroke:#181818;stroke-width:1.0;" width="10" x="352.5" y="121.0234"/><polygon fill="#181818" points="340.5,117.0234,350.5,121.0234,340.5,125.0234,344.5,121.0234" style="stroke:#181818;stroke-width:1.0;"/><line style="stroke:#181818;stroke-width:1.0;" x1="103.5" x2="346.5" y1="121.0234" y2="121.0234"/><text fill="#000000" font-family="sans-serif" font-size="13" lengthAdjust="spacing" textLength="116" x="110.5" y="115.9575">disperseCaPay(&#183;&#183;&#183;)</text><line style="stroke:#181818;stroke-width:1.0;" x1="362.5" x2="404.5" y1="180.4219" y2="180.4219"/><line style="stroke:#181818;stroke-width:1.0;" x1="404.5" x2="404.5" y1="180.4219" y2="193.4219"/><line style="stroke:#181818;stroke-width:1.0;" x1="363.5" x2="404.5" y1="193.4219" y2="193.4219"/><polygon fill="#181818" points="373.5,189.4219,363.5,193.4219,373.5,197.4219,369.5,193.4219" style="stroke:#181818;stroke-width:1.0;"/><text fill="#000000" font-family="sans-serif" font-size="13" lengthAdjust="spacing" textLength="73" x="369.5" y="145.0903">assembly {</text><text fill="#000000" font-family="sans-serif" font-size="13" lengthAdjust="spacing" textLength="210" x="385.5" y="160.2231">size := extcodesize(msg.sender)</text><text fill="#000000" font-family="sans-serif" font-size="13" lengthAdjust="spacing" textLength="8" x="369.5" y="175.356">}</text><path d="M10,208.4219 L74,208.4219 L74,215.5547 L64,225.5547 L10,225.5547 L10,208.4219 " fill="#EEEEEE" style="stroke:#000000;stroke-width:1.5;"/><rect fill="none" height="758.0078" style="stroke:#000000;stroke-width:1.5;" width="771.5" x="10" y="208.4219"/><text fill="#000000" font-family="sans-serif" font-size="13" font-weight="bold" lengthAdjust="spacing" textLength="19" x="25" y="221.4888">alt</text><text fill="#000000" font-family="sans-serif" font-size="11" font-weight="bold" lengthAdjust="spacing" textLength="165" x="89" y="220.6323">[size == 0 (EOA address)]</text><line style="stroke:#181818;stroke-width:2.0;" x1="110.5" x2="120.5" y1="241.6875" y2="251.6875"/><line style="stroke:#181818;stroke-width:2.0;" x1="110.5" x2="120.5" y1="251.6875" y2="241.6875"/><line style="stroke:#181818;stroke-width:1.0;" x1="115.5" x2="351.5" y1="246.6875" y2="246.6875"/><text fill="#000000" font-family="sans-serif" font-size="13" lengthAdjust="spacing" textLength="132" x="120.5" y="241.6216">Revert with NotAnCA</text><line style="stroke:#000000;stroke-width:1.0;stroke-dasharray:2.0,2.0;" x1="10" x2="781.5" y1="255.6875" y2="255.6875"/><text fill="#000000" font-family="sans-serif" font-size="11" font-weight="bold" lengthAdjust="spacing" textLength="185" x="15" y="265.8979">[size &gt; 0 (Contract address)]</text><line style="stroke:#181818;stroke-width:1.0;" x1="362.5" x2="404.5" y1="290.625" y2="290.625"/><line style="stroke:#181818;stroke-width:1.0;" x1="404.5" x2="404.5" y1="290.625" y2="303.625"/><line style="stroke:#181818;stroke-width:1.0;" x1="363.5" x2="404.5" y1="303.625" y2="303.625"/><polygon fill="#181818" points="373.5,299.625,363.5,303.625,373.5,307.625,369.5,303.625" style="stroke:#181818;stroke-width:1.0;"/><text fill="#000000" font-family="sans-serif" font-size="13" lengthAdjust="spacing" textLength="307" x="369.5" y="285.5591">verify balances[msg.sender][token] &gt;= amount</text><path d="M20,318.625 L84,318.625 L84,325.7578 L74,335.7578 L20,335.7578 L20,318.625 " fill="#EEEEEE" style="stroke:#000000;stroke-width:1.5;"/><rect fill="none" height="640.8047" style="stroke:#000000;stroke-width:1.5;" width="751.5" x="20" y="318.625"/><text fill="#000000" font-family="sans-serif" font-size="13" font-weight="bold" lengthAdjust="spacing" textLength="19" x="35" y="331.6919">alt</text><text fill="#000000" font-family="sans-serif" font-size="11" font-weight="bold" lengthAdjust="spacing" textLength="138" x="99" y="330.8354">[insufficient balance]</text><line style="stroke:#181818;stroke-width:2.0;" x1="110.5" x2="120.5" y1="351.8906" y2="361.8906"/><line style="stroke:#181818;stroke-width:2.0;" x1="110.5" x2="120.5" y1="361.8906" y2="351.8906"/><line style="stroke:#181818;stroke-width:1.0;" x1="115.5" x2="351.5" y1="356.8906" y2="356.8906"/><text fill="#000000" font-family="sans-serif" font-size="13" lengthAdjust="spacing" textLength="193" x="120.5" y="351.8247">Revert with InsufficientBalance</text><line style="stroke:#000000;stroke-width:1.0;stroke-dasharray:2.0,2.0;" x1="20" x2="771.5" y1="365.8906" y2="365.8906"/><text fill="#000000" font-family="sans-serif" font-size="11" font-weight="bold" lengthAdjust="spacing" textLength="126" x="25" y="376.1011">[sufficient balance]</text><line style="stroke:#181818;stroke-width:1.0;" x1="362.5" x2="404.5" y1="400.8281" y2="400.8281"/><line style="stroke:#181818;stroke-width:1.0;" x1="404.5" x2="404.5" y1="400.8281" y2="413.8281"/><line style="stroke:#181818;stroke-width:1.0;" x1="363.5" x2="404.5" y1="413.8281" y2="413.8281"/><polygon fill="#181818" points="373.5,409.8281,363.5,413.8281,373.5,417.8281,369.5,413.8281" style="stroke:#181818;stroke-width:1.0;"/><text fill="#000000" font-family="sans-serif" font-size="13" lengthAdjust="spacing" textLength="263" x="369.5" y="395.7622">balances[msg.sender][token] -= amount</text><line style="stroke:#181818;stroke-width:1.0;" x1="362.5" x2="404.5" y1="442.9609" y2="442.9609"/><line style="stroke:#181818;stroke-width:1.0;" x1="404.5" x2="404.5" y1="442.9609" y2="455.9609"/><line style="stroke:#181818;stroke-width:1.0;" x1="363.5" x2="404.5" y1="455.9609" y2="455.9609"/><polygon fill="#181818" points="373.5,451.9609,363.5,455.9609,373.5,459.9609,369.5,455.9609" style="stroke:#181818;stroke-width:1.0;"/><text fill="#000000" font-family="sans-serif" font-size="13" lengthAdjust="spacing" textLength="154" x="369.5" y="437.895">acomulatedAmount = 0</text><rect fill="#EEEEEE" height="3" style="stroke:#EEEEEE;stroke-width:1.0;" width="791.5" x="0" y="484.5273"/><line style="stroke:#000000;stroke-width:1.0;" x1="0" x2="791.5" y1="484.5273" y2="484.5273"/><line style="stroke:#000000;stroke-width:1.0;" x1="0" x2="791.5" y1="487.5273" y2="487.5273"/><rect fill="#EEEEEE" height="23.1328" style="stroke:#000000;stroke-width:2.0;" width="131" x="330.25" y="473.9609"/><text fill="#000000" font-family="sans-serif" font-size="13" font-weight="bold" lengthAdjust="spacing" textLength="112" x="336.25" y="490.0278">Begin For Loop</text><line style="stroke:#181818;stroke-width:1.0;" x1="362.5" x2="404.5" y1="528.2266" y2="528.2266"/><line style="stroke:#181818;stroke-width:1.0;" x1="404.5" x2="404.5" y1="528.2266" y2="541.2266"/><line style="stroke:#181818;stroke-width:1.0;" x1="363.5" x2="404.5" y1="541.2266" y2="541.2266"/><polygon fill="#181818" points="373.5,537.2266,363.5,541.2266,373.5,545.2266,369.5,541.2266" style="stroke:#181818;stroke-width:1.0;"/><text fill="#000000" font-family="sans-serif" font-size="13" lengthAdjust="spacing" textLength="268" x="369.5" y="523.1606">acomulatedAmount += toData[i].amount</text><path d="M30,556.2266 L94,556.2266 L94,563.3594 L84,573.3594 L30,573.3594 L30,556.2266 " fill="#EEEEEE" style="stroke:#000000;stroke-width:1.5;"/><rect fill="none" height="118.3359" style="stroke:#000000;stroke-width:1.5;" width="731.5" x="30" y="556.2266"/><text fill="#000000" font-family="sans-serif" font-size="13" font-weight="bold" lengthAdjust="spacing" textLength="19" x="45" y="569.2935">alt</text><text fill="#000000" font-family="sans-serif" font-size="11" font-weight="bold" lengthAdjust="spacing" textLength="198" x="109" y="568.437">[acomulatedAmount &gt; amount]</text><line style="stroke:#181818;stroke-width:2.0;" x1="110.5" x2="120.5" y1="604.625" y2="614.625"/><line style="stroke:#181818;stroke-width:2.0;" x1="110.5" x2="120.5" y1="614.625" y2="604.625"/><line style="stroke:#181818;stroke-width:1.0;" x1="115.5" x2="351.5" y1="609.625" y2="609.625"/><text fill="#000000" font-family="sans-serif" font-size="13" lengthAdjust="spacing" textLength="165" x="120.5" y="589.4263">Revert with InvalidAmount</text><text fill="#000000" font-family="sans-serif" font-size="13" lengthAdjust="spacing" textLength="195" x="120.5" y="604.5591">(acomulatedAmount, amount)</text><line style="stroke:#000000;stroke-width:1.0;stroke-dasharray:2.0,2.0;" x1="30" x2="761.5" y1="618.625" y2="618.625"/><text fill="#000000" font-family="sans-serif" font-size="11" font-weight="bold" lengthAdjust="spacing" textLength="134" x="35" y="628.8354">[amount valid so far]</text><line style="stroke:#181818;stroke-width:1.0;" x1="362.5" x2="404.5" y1="653.5625" y2="653.5625"/><line style="stroke:#181818;stroke-width:1.0;" x1="404.5" x2="404.5" y1="653.5625" y2="666.5625"/><line style="stroke:#181818;stroke-width:1.0;" x1="363.5" x2="404.5" y1="666.5625" y2="666.5625"/><polygon fill="#181818" points="373.5,662.5625,363.5,666.5625,373.5,670.5625,369.5,666.5625" style="stroke:#181818;stroke-width:1.0;"/><text fill="#000000" font-family="sans-serif" font-size="13" lengthAdjust="spacing" textLength="380" x="369.5" y="648.4966">balances[toData[i].toAddress][token] += toData[i].amount</text><rect fill="#EEEEEE" height="3" style="stroke:#EEEEEE;stroke-width:1.0;" width="791.5" x="0" y="702.1289"/><line style="stroke:#000000;stroke-width:1.0;" x1="0" x2="791.5" y1="702.1289" y2="702.1289"/><line style="stroke:#000000;stroke-width:1.0;" x1="0" x2="791.5" y1="705.1289" y2="705.1289"/><rect fill="#EEEEEE" height="23.1328" style="stroke:#000000;stroke-width:2.0;" width="117" x="337.25" y="691.5625"/><text fill="#000000" font-family="sans-serif" font-size="13" font-weight="bold" lengthAdjust="spacing" textLength="98" x="343.25" y="707.6294">End For Loop</text><line style="stroke:#181818;stroke-width:1.0;" x1="362.5" x2="404.5" y1="745.8281" y2="745.8281"/><line style="stroke:#181818;stroke-width:1.0;" x1="404.5" x2="404.5" y1="745.8281" y2="758.8281"/><line style="stroke:#181818;stroke-width:1.0;" x1="363.5" x2="404.5" y1="758.8281" y2="758.8281"/><polygon fill="#181818" points="373.5,754.8281,363.5,758.8281,373.5,762.8281,369.5,758.8281" style="stroke:#181818;stroke-width:1.0;"/><text fill="#000000" font-family="sans-serif" font-size="13" lengthAdjust="spacing" textLength="245" x="369.5" y="740.7622">verify acomulatedAmount == amount</text><path d="M30,773.8281 L94,773.8281 L94,780.9609 L84,790.9609 L30,790.9609 L30,773.8281 " fill="#EEEEEE" style="stroke:#000000;stroke-width:1.5;"/><rect fill="none" height="178.6016" style="stroke:#000000;stroke-width:1.5;" width="582" x="30" y="773.8281"/><text fill="#000000" font-family="sans-serif" font-size="13" font-weight="bold" lengthAdjust="spacing" textLength="19" x="45" y="786.895">alt</text><text fill="#000000" font-family="sans-serif" font-size="11" font-weight="bold" lengthAdjust="spacing" textLength="203" x="109" y="786.0386">[acomulatedAmount != amount]</text><line style="stroke:#181818;stroke-width:2.0;" x1="110.5" x2="120.5" y1="822.2266" y2="832.2266"/><line style="stroke:#181818;stroke-width:2.0;" x1="110.5" x2="120.5" y1="832.2266" y2="822.2266"/><line style="stroke:#181818;stroke-width:1.0;" x1="115.5" x2="351.5" y1="827.2266" y2="827.2266"/><text fill="#000000" font-family="sans-serif" font-size="13" lengthAdjust="spacing" textLength="165" x="120.5" y="807.0278">Revert with InvalidAmount</text><text fill="#000000" font-family="sans-serif" font-size="13" lengthAdjust="spacing" textLength="195" x="120.5" y="822.1606">(acomulatedAmount, amount)</text><line style="stroke:#000000;stroke-width:1.0;stroke-dasharray:2.0,2.0;" x1="30" x2="612" y1="836.2266" y2="836.2266"/><text fill="#000000" font-family="sans-serif" font-size="11" font-weight="bold" lengthAdjust="spacing" textLength="158" x="35" y="846.437">[amounts match exactly]</text><path d="M321,857.0313 L385,857.0313 L385,864.1641 L375,874.1641 L321,874.1641 L321,857.0313 " fill="#EEEEEE" style="stroke:#000000;stroke-width:1.5;"/><rect fill="none" height="59.2656" style="stroke:#000000;stroke-width:1.5;" width="281" x="321" y="857.0313"/><text fill="#000000" font-family="sans-serif" font-size="13" font-weight="bold" lengthAdjust="spacing" textLength="19" x="336" y="870.0981">alt</text><text fill="#000000" font-family="sans-serif" font-size="11" font-weight="bold" lengthAdjust="spacing" textLength="197" x="400" y="869.2417">[isAddressStaker(msg.sender)]</text><line style="stroke:#181818;stroke-width:1.0;" x1="362.5" x2="404.5" y1="895.2969" y2="895.2969"/><line style="stroke:#181818;stroke-width:1.0;" x1="404.5" x2="404.5" y1="895.2969" y2="908.2969"/><line style="stroke:#181818;stroke-width:1.0;" x1="363.5" x2="404.5" y1="908.2969" y2="908.2969"/><polygon fill="#181818" points="373.5,904.2969,363.5,908.2969,373.5,912.2969,369.5,908.2969" style="stroke:#181818;stroke-width:1.0;"/><text fill="#000000" font-family="sans-serif" font-size="13" lengthAdjust="spacing" textLength="181" x="369.5" y="890.231">_giveReward(msg.sender, 1)</text><polygon fill="#181818" points="109.5,940.4297,99.5,944.4297,109.5,948.4297,105.5,944.4297" style="stroke:#181818;stroke-width:1.0;"/><line style="stroke:#181818;stroke-width:1.0;stroke-dasharray:2.0,2.0;" x1="103.5" x2="356.5" y1="944.4297" y2="944.4297"/><text fill="#000000" font-family="sans-serif" font-size="13" lengthAdjust="spacing" textLength="225" x="115.5" y="939.3638">Distribution completed successfully</text><!--SRC=[pLNRRXen47tVhvY65r13IYfLbL0M2GXfApLjbLHv0LIPzInOU6raUo4qodVrlL_MsKltmYNbiI34UZrpvfmvizuhwxOIUnxNGHoXSl3a0GnOiFnWTApuK4jjOBCG3hrdx-fD7ksjc74Y42j66MVt4QrWg9KpB71dm2m4-Q8UE7fuk4stSRsEeD7fZ4PlEvxdX9C8ryAkq5WiWA3FkK5huHlRmdV3bAMRGYkuaNepKSqR9YHosdKBQCF866BwaIakXPgtF2y9NZE71HVmYgjsBwFG1PvN7JAgqlpzA_csojmwqNHLvZ9hCPh9BJnD5D37Yfy8NH_mqGMQOx9iHdP-OL5nDAs9UYPMqa4ZV3TxFxlCudqVEj0SVUq3o-Isl0GhA_LOak_27QwH-hmHfFUBTdqrx1CbIHrhf0PbUBq4hcXX3RC2N6WWI15kOSOaKm7QSSbtEdPwYMeAFHzOHCFWIf2g2g5i78RaSJ8zEKuQT8ACJvNSmKvgnhOgxtYPdNg5kfTajMko3YIpG4Unf2dW_JGEo2cl22RV1ZWND8qqTf-rNj6TV_BPWtpjWzFNpB6nc5xiq2akgjtUG-ZjgZYfxMicHOv0Jz8kw7cEsQg1bg8gfcI1aEA1rH0oSu39lY6bQgVpvxnmvgMcr8aeNZDaf7ZDZcCsv4E_R_3UI9pcmIl_Vp31GiHSiA3ZXuh9xU6qGakMAMpU_7l7bcYgnrKjvK0JVyp56kzmmmolf9t3PJqpyUWeamoIC2izelU0Cs8MfqSzzMGbaNf2Jtz0SsF3MEv8urWxhO_j5M-aWrFqzp_v_G40]--></g></svg>