<?xml version="1.0" encoding="us-ascii" standalone="no"?><svg xmlns="http://www.w3.org/2000/svg" xmlns:xlink="http://www.w3.org/1999/xlink" contentStyleType="text/css" height="1769px" preserveAspectRatio="none" style="width:967px;height:1769px;background:#FFFFFF;" version="1.1" viewBox="0 0 967 1769" width="967px" zoomAndPan="magnify"><defs/><g><text fill="#000000" font-family="sans-serif" font-size="14" font-weight="bold" lengthAdjust="spacing" textLength="243" x="358" y="27.9951">Disperse Pay Transaction Flow</text><text fill="#000000" font-family="sans-serif" font-size="14" font-weight="bold" lengthAdjust="spacing" textLength="227" x="366" y="44.292">(Failed Path - Error Handling)</text><rect fill="#FFFFFF" height="1505.0781" style="stroke:#181818;stroke-width:1.0;" width="10" x="86" y="144.8906"/><rect fill="#00EE20" height="1483.9453" style="stroke:#181818;stroke-width:1.0;" width="10" x="406" y="166.0234"/><rect fill="#F5B7B1" height="1448.8125" style="stroke:#000000;stroke-width:1.5;" width="940" x="10" y="223.1563"/><rect fill="#FFFFFF" height="1402.5469" style="stroke:none;stroke-width:1.0;" width="940" x="10" y="269.4219"/><rect fill="#FFFFFF" height="119.5313" style="stroke:#000000;stroke-width:1.5;" width="626" x="20" y="291.2266"/><rect fill="#F5B7B1" height="46.2656" style="stroke:#000000;stroke-width:1.5;" width="417.5" x="30" y="357.4922"/><rect fill="#FFFFFF" height="119.5313" style="stroke:#000000;stroke-width:1.5;" width="593" x="20" y="424.7578"/><rect fill="#F5B7B1" height="46.2656" style="stroke:#000000;stroke-width:1.5;" width="417.5" x="30" y="491.0234"/><rect fill="#F5B7B1" height="1064.5469" style="stroke:#000000;stroke-width:1.5;" width="920" x="20" y="600.4219"/><rect fill="#FFFFFF" height="1018.2813" style="stroke:none;stroke-width:1.0;" width="920" x="20" y="646.6875"/><rect fill="#FFFFFF" height="270.6719" style="stroke:#000000;stroke-width:1.5;" width="565.5" x="364.5" y="838.0234"/><rect fill="#F5B7B1" height="132.3359" style="stroke:#000000;stroke-width:1.5;" width="435.5" x="374.5" y="912.4219"/><rect fill="#FFFFFF" height="73.0703" style="stroke:none;stroke-width:1.0;" width="435.5" x="374.5" y="971.6875"/><rect fill="#FFFFFF" height="56.9375" style="stroke:none;stroke-width:1.0;" width="565.5" x="364.5" y="1051.7578"/><rect fill="#F5B7B1" height="407.875" style="stroke:#000000;stroke-width:1.5;" width="701" x="30" y="1250.0938"/><rect fill="#FFFFFF" height="346.4766" style="stroke:none;stroke-width:1.0;" width="701" x="30" y="1311.4922"/><rect fill="#FFFFFF" height="158.3359" style="stroke:#000000;stroke-width:1.5;" width="346.5" x="374.5" y="1333.2969"/><rect fill="#FFFFFF" height="56.9375" style="stroke:none;stroke-width:1.0;" width="346.5" x="374.5" y="1434.6953"/><rect fill="#FFFFFF" height="116.2031" style="stroke:#000000;stroke-width:1.5;" width="305.5" x="374.5" y="1505.6328"/><rect fill="#FFFFFF" height="56.9375" style="stroke:none;stroke-width:1.0;" width="305.5" x="374.5" y="1564.8984"/><line style="stroke:#181818;stroke-width:0.5;stroke-dasharray:5.0,5.0;" x1="91" x2="91" y1="134.8906" y2="1688.9688"/><line style="stroke:#181818;stroke-width:0.5;stroke-dasharray:5.0,5.0;" x1="410.5" x2="410.5" y1="134.8906" y2="1688.9688"/><line style="stroke:#181818;stroke-width:0.5;stroke-dasharray:5.0,5.0;" x1="748" x2="748" y1="134.8906" y2="1688.9688"/><text fill="#000000" font-family="sans-serif" font-size="14" lengthAdjust="spacing" textLength="96" x="40" y="131.5889">Fisher or User</text><ellipse cx="91" cy="67.0938" fill="#E2E2F0" rx="8" ry="8" style="stroke:#181818;stroke-width:0.5;"/><path d="M91,75.0938 L91,102.0938 M78,83.0938 L104,83.0938 M91,102.0938 L78,117.0938 M91,102.0938 L104,117.0938 " fill="none" style="stroke:#181818;stroke-width:0.5;"/><text fill="#000000" font-family="sans-serif" font-size="14" lengthAdjust="spacing" textLength="96" x="40" y="1700.9639">Fisher or User</text><ellipse cx="91" cy="1712.7656" fill="#E2E2F0" rx="8" ry="8" style="stroke:#181818;stroke-width:0.5;"/><path d="M91,1720.7656 L91,1747.7656 M78,1728.7656 L104,1728.7656 M91,1747.7656 L78,1762.7656 M91,1747.7656 L104,1762.7656 " fill="none" style="stroke:#181818;stroke-width:0.5;"/><rect fill="#00EE20" height="30.2969" rx="2.5" ry="2.5" style="stroke:#181818;stroke-width:0.5;" width="53" x="384.5" y="103.5938"/><text fill="#000000" font-family="sans-serif" font-size="14" lengthAdjust="spacing" textLength="39" x="391.5" y="123.5889">EVVM</text><rect fill="#00EE20" height="30.2969" rx="2.5" ry="2.5" style="stroke:#181818;stroke-width:0.5;" width="53" x="384.5" y="1687.9688"/><text fill="#000000" font-family="sans-serif" font-size="14" lengthAdjust="spacing" textLength="39" x="391.5" y="1707.9639">EVVM</text><rect fill="#00CEEE" height="30.2969" rx="2.5" ry="2.5" style="stroke:#181818;stroke-width:0.5;" width="104" x="696" y="103.5938"/><text fill="#000000" font-family="sans-serif" font-size="14" lengthAdjust="spacing" textLength="90" x="703" y="123.5889">NameService</text><rect fill="#00CEEE" height="30.2969" rx="2.5" ry="2.5" style="stroke:#181818;stroke-width:0.5;" width="104" x="696" y="1687.9688"/><text fill="#000000" font-family="sans-serif" font-size="14" lengthAdjust="spacing" textLength="90" x="703" y="1707.9639">NameService</text><rect fill="#FFFFFF" height="1505.0781" style="stroke:#181818;stroke-width:1.0;" width="10" x="86" y="144.8906"/><rect fill="#00EE20" height="1483.9453" style="stroke:#181818;stroke-width:1.0;" width="10" x="406" y="166.0234"/><polygon fill="#181818" points="394,162.0234,404,166.0234,394,170.0234,398,166.0234" style="stroke:#181818;stroke-width:1.0;"/><line style="stroke:#181818;stroke-width:1.0;" x1="96" x2="400" y1="166.0234" y2="166.0234"/><text fill="#000000" font-family="sans-serif" font-size="13" lengthAdjust="spacing" textLength="99" x="103" y="160.9575">dispersePay(&#183;&#183;&#183;)</text><line style="stroke:#181818;stroke-width:1.0;" x1="416" x2="458" y1="195.1563" y2="195.1563"/><line style="stroke:#181818;stroke-width:1.0;" x1="458" x2="458" y1="195.1563" y2="208.1563"/><line style="stroke:#181818;stroke-width:1.0;" x1="417" x2="458" y1="208.1563" y2="208.1563"/><polygon fill="#181818" points="427,204.1563,417,208.1563,427,212.1563,423,208.1563" style="stroke:#181818;stroke-width:1.0;"/><text fill="#000000" font-family="sans-serif" font-size="13" lengthAdjust="spacing" textLength="244" x="423" y="190.0903">verifyMessageSignedForDispersePay()</text><path d="M10,223.1563 L74,223.1563 L74,230.2891 L64,240.2891 L10,240.2891 L10,223.1563 " fill="#EEEEEE" style="stroke:#000000;stroke-width:1.5;"/><rect fill="none" height="1448.8125" style="stroke:#000000;stroke-width:1.5;" width="940" x="10" y="223.1563"/><text fill="#000000" font-family="sans-serif" font-size="13" font-weight="bold" lengthAdjust="spacing" textLength="19" x="25" y="236.2231">alt</text><text fill="#000000" font-family="sans-serif" font-size="11" font-weight="bold" lengthAdjust="spacing" textLength="134" x="89" y="235.3667">[Signature is invalid]</text><line style="stroke:#181818;stroke-width:2.0;" x1="103" x2="113" y1="256.4219" y2="266.4219"/><line style="stroke:#181818;stroke-width:2.0;" x1="103" x2="113" y1="266.4219" y2="256.4219"/><line style="stroke:#181818;stroke-width:1.0;" x1="108" x2="405" y1="261.4219" y2="261.4219"/><text fill="#000000" font-family="sans-serif" font-size="13" lengthAdjust="spacing" textLength="176" x="113" y="256.356">Revert with InvalidSignature</text><line style="stroke:#000000;stroke-width:1.0;stroke-dasharray:2.0,2.0;" x1="10" x2="950" y1="270.4219" y2="270.4219"/><text fill="#000000" font-family="sans-serif" font-size="11" font-weight="bold" lengthAdjust="spacing" textLength="122" x="15" y="280.6323">[Signature is valid]</text><path d="M20,291.2266 L84,291.2266 L84,298.3594 L74,308.3594 L20,308.3594 L20,291.2266 " fill="#EEEEEE" style="stroke:#000000;stroke-width:1.5;"/><rect fill="none" height="119.5313" style="stroke:#000000;stroke-width:1.5;" width="626" x="20" y="291.2266"/><text fill="#000000" font-family="sans-serif" font-size="13" font-weight="bold" lengthAdjust="spacing" textLength="19" x="35" y="304.2935">alt</text><text fill="#000000" font-family="sans-serif" font-size="11" font-weight="bold" lengthAdjust="spacing" textLength="157" x="99" y="303.437">[executor != address(0)]</text><line style="stroke:#181818;stroke-width:1.0;" x1="416" x2="458" y1="329.4922" y2="329.4922"/><line style="stroke:#181818;stroke-width:1.0;" x1="458" x2="458" y1="329.4922" y2="342.4922"/><line style="stroke:#181818;stroke-width:1.0;" x1="417" x2="458" y1="342.4922" y2="342.4922"/><polygon fill="#181818" points="427,338.4922,417,342.4922,427,346.4922,423,342.4922" style="stroke:#181818;stroke-width:1.0;"/><text fill="#000000" font-family="sans-serif" font-size="13" lengthAdjust="spacing" textLength="211" x="423" y="324.4263">verify if msg.sender == executor</text><path d="M30,357.4922 L94,357.4922 L94,364.625 L84,374.625 L30,374.625 L30,357.4922 " fill="#EEEEEE" style="stroke:#000000;stroke-width:1.5;"/><rect fill="none" height="46.2656" style="stroke:#000000;stroke-width:1.5;" width="417.5" x="30" y="357.4922"/><text fill="#000000" font-family="sans-serif" font-size="13" font-weight="bold" lengthAdjust="spacing" textLength="19" x="45" y="370.5591">alt</text><text fill="#000000" font-family="sans-serif" font-size="11" font-weight="bold" lengthAdjust="spacing" textLength="162" x="109" y="369.7026">[msg.sender != executor]</text><line style="stroke:#181818;stroke-width:2.0;" x1="103" x2="113" y1="390.7578" y2="400.7578"/><line style="stroke:#181818;stroke-width:2.0;" x1="103" x2="113" y1="400.7578" y2="390.7578"/><line style="stroke:#181818;stroke-width:1.0;" x1="108" x2="405" y1="395.7578" y2="395.7578"/><text fill="#000000" font-family="sans-serif" font-size="13" lengthAdjust="spacing" textLength="232" x="113" y="390.6919">Revert with SenderIsNotTheExecutor</text><path d="M20,424.7578 L84,424.7578 L84,431.8906 L74,441.8906 L20,441.8906 L20,424.7578 " fill="#EEEEEE" style="stroke:#000000;stroke-width:1.5;"/><rect fill="none" height="119.5313" style="stroke:#000000;stroke-width:1.5;" width="593" x="20" y="424.7578"/><text fill="#000000" font-family="sans-serif" font-size="13" font-weight="bold" lengthAdjust="spacing" textLength="19" x="35" y="437.8247">alt</text><text fill="#000000" font-family="sans-serif" font-size="11" font-weight="bold" lengthAdjust="spacing" textLength="136" x="99" y="436.9683">[priorityFlag == true]</text><line style="stroke:#181818;stroke-width:1.0;" x1="416" x2="458" y1="463.0234" y2="463.0234"/><line style="stroke:#181818;stroke-width:1.0;" x1="458" x2="458" y1="463.0234" y2="476.0234"/><line style="stroke:#181818;stroke-width:1.0;" x1="417" x2="458" y1="476.0234" y2="476.0234"/><polygon fill="#181818" points="427,472.0234,417,476.0234,427,480.0234,423,476.0234" style="stroke:#181818;stroke-width:1.0;"/><text fill="#000000" font-family="sans-serif" font-size="13" lengthAdjust="spacing" textLength="178" x="423" y="457.9575">verify async nonce not used</text><path d="M30,491.0234 L94,491.0234 L94,498.1563 L84,508.1563 L30,508.1563 L30,491.0234 " fill="#EEEEEE" style="stroke:#000000;stroke-width:1.5;"/><rect fill="none" height="46.2656" style="stroke:#000000;stroke-width:1.5;" width="417.5" x="30" y="491.0234"/><text fill="#000000" font-family="sans-serif" font-size="13" font-weight="bold" lengthAdjust="spacing" textLength="19" x="45" y="504.0903">alt</text><text fill="#000000" font-family="sans-serif" font-size="11" font-weight="bold" lengthAdjust="spacing" textLength="136" x="109" y="503.2339">[nonce already used]</text><line style="stroke:#181818;stroke-width:2.0;" x1="103" x2="113" y1="524.2891" y2="534.2891"/><line style="stroke:#181818;stroke-width:2.0;" x1="103" x2="113" y1="534.2891" y2="524.2891"/><line style="stroke:#181818;stroke-width:1.0;" x1="108" x2="405" y1="529.2891" y2="529.2891"/><text fill="#000000" font-family="sans-serif" font-size="13" lengthAdjust="spacing" textLength="193" x="113" y="524.2231">Revert with InvalidAsyncNonce</text><line style="stroke:#181818;stroke-width:1.0;" x1="416" x2="458" y1="572.4219" y2="572.4219"/><line style="stroke:#181818;stroke-width:1.0;" x1="458" x2="458" y1="572.4219" y2="585.4219"/><line style="stroke:#181818;stroke-width:1.0;" x1="417" x2="458" y1="585.4219" y2="585.4219"/><polygon fill="#181818" points="427,581.4219,417,585.4219,427,589.4219,423,585.4219" style="stroke:#181818;stroke-width:1.0;"/><text fill="#000000" font-family="sans-serif" font-size="13" lengthAdjust="spacing" textLength="238" x="423" y="567.356">verify balance (amount + priorityFee)</text><path d="M20,600.4219 L84,600.4219 L84,607.5547 L74,617.5547 L20,617.5547 L20,600.4219 " fill="#EEEEEE" style="stroke:#000000;stroke-width:1.5;"/><rect fill="none" height="1064.5469" style="stroke:#000000;stroke-width:1.5;" width="920" x="20" y="600.4219"/><text fill="#000000" font-family="sans-serif" font-size="13" font-weight="bold" lengthAdjust="spacing" textLength="19" x="35" y="613.4888">alt</text><text fill="#000000" font-family="sans-serif" font-size="11" font-weight="bold" lengthAdjust="spacing" textLength="138" x="99" y="612.6323">[not enough balance]</text><line style="stroke:#181818;stroke-width:2.0;" x1="103" x2="113" y1="633.6875" y2="643.6875"/><line style="stroke:#181818;stroke-width:2.0;" x1="103" x2="113" y1="643.6875" y2="633.6875"/><line style="stroke:#181818;stroke-width:1.0;" x1="108" x2="405" y1="638.6875" y2="638.6875"/><text fill="#000000" font-family="sans-serif" font-size="13" lengthAdjust="spacing" textLength="193" x="113" y="633.6216">Revert with InsufficientBalance</text><line style="stroke:#000000;stroke-width:1.0;stroke-dasharray:2.0,2.0;" x1="20" x2="940" y1="647.6875" y2="647.6875"/><text fill="#000000" font-family="sans-serif" font-size="11" font-weight="bold" lengthAdjust="spacing" textLength="140" x="25" y="657.8979">[has enough balance]</text><line style="stroke:#181818;stroke-width:1.0;" x1="416" x2="458" y1="682.625" y2="682.625"/><line style="stroke:#181818;stroke-width:1.0;" x1="458" x2="458" y1="682.625" y2="695.625"/><line style="stroke:#181818;stroke-width:1.0;" x1="417" x2="458" y1="695.625" y2="695.625"/><polygon fill="#181818" points="427,691.625,417,695.625,427,699.625,423,695.625" style="stroke:#181818;stroke-width:1.0;"/><text fill="#000000" font-family="sans-serif" font-size="13" lengthAdjust="spacing" textLength="313" x="423" y="677.5591">balances[from][token] -= (amount + priorityFee)</text><line style="stroke:#181818;stroke-width:1.0;" x1="416" x2="458" y1="724.7578" y2="724.7578"/><line style="stroke:#181818;stroke-width:1.0;" x1="458" x2="458" y1="724.7578" y2="737.7578"/><line style="stroke:#181818;stroke-width:1.0;" x1="417" x2="458" y1="737.7578" y2="737.7578"/><polygon fill="#181818" points="427,733.7578,417,737.7578,427,741.7578,423,737.7578" style="stroke:#181818;stroke-width:1.0;"/><text fill="#000000" font-family="sans-serif" font-size="13" lengthAdjust="spacing" textLength="154" x="423" y="719.6919">acomulatedAmount = 0</text><rect fill="#EEEEEE" height="3" style="stroke:#EEEEEE;stroke-width:1.0;" width="960" x="0" y="766.3242"/><line style="stroke:#000000;stroke-width:1.0;" x1="0" x2="960" y1="766.3242" y2="766.3242"/><line style="stroke:#000000;stroke-width:1.0;" x1="0" x2="960" y1="769.3242" y2="769.3242"/><rect fill="#EEEEEE" height="23.1328" style="stroke:#000000;stroke-width:2.0;" width="131" x="414.5" y="755.7578"/><text fill="#000000" font-family="sans-serif" font-size="13" font-weight="bold" lengthAdjust="spacing" textLength="112" x="420.5" y="771.8247">Begin For Loop</text><line style="stroke:#181818;stroke-width:1.0;" x1="416" x2="458" y1="810.0234" y2="810.0234"/><line style="stroke:#181818;stroke-width:1.0;" x1="458" x2="458" y1="810.0234" y2="823.0234"/><line style="stroke:#181818;stroke-width:1.0;" x1="417" x2="458" y1="823.0234" y2="823.0234"/><polygon fill="#181818" points="427,819.0234,417,823.0234,427,827.0234,423,823.0234" style="stroke:#181818;stroke-width:1.0;"/><text fill="#000000" font-family="sans-serif" font-size="13" lengthAdjust="spacing" textLength="268" x="423" y="804.9575">acomulatedAmount += toData[i].amount</text><path d="M364.5,838.0234 L428.5,838.0234 L428.5,845.1563 L418.5,855.1563 L364.5,855.1563 L364.5,838.0234 " fill="#EEEEEE" style="stroke:#000000;stroke-width:1.5;"/><rect fill="none" height="270.6719" style="stroke:#000000;stroke-width:1.5;" width="565.5" x="364.5" y="838.0234"/><text fill="#000000" font-family="sans-serif" font-size="13" font-weight="bold" lengthAdjust="spacing" textLength="19" x="379.5" y="851.0903">alt</text><text fill="#000000" font-family="sans-serif" font-size="11" font-weight="bold" lengthAdjust="spacing" textLength="173" x="443.5" y="850.2339">[toData[i].to_identity != ""]</text><polygon fill="#181818" points="736,882.8555,746,886.8555,736,890.8555,740,886.8555" style="stroke:#181818;stroke-width:1.0;"/><line style="stroke:#181818;stroke-width:1.0;" x1="416" x2="742" y1="886.8555" y2="886.8555"/><text fill="#000000" font-family="sans-serif" font-size="13" lengthAdjust="spacing" textLength="229" x="423" y="881.7896">strictVerifyIfIdentityExist(to_identity)</text><path d="M753,860.1563 L753,900.1563 L915,900.1563 L915,870.1563 L905,860.1563 L753,860.1563 " fill="#FEFFDD" style="stroke:#181818;stroke-width:0.5;"/><path d="M905,860.1563 L905,870.1563 L915,870.1563 L905,860.1563 " fill="#FEFFDD" style="stroke:#181818;stroke-width:0.5;"/><text fill="#000000" font-family="sans-serif" font-size="13" lengthAdjust="spacing" textLength="141" x="759" y="877.2231">Identity validation fails</text><text fill="#000000" font-family="sans-serif" font-size="13" lengthAdjust="spacing" textLength="118" x="759" y="892.356">but loop continues</text><path d="M374.5,912.4219 L438.5,912.4219 L438.5,919.5547 L428.5,929.5547 L374.5,929.5547 L374.5,912.4219 " fill="#EEEEEE" style="stroke:#000000;stroke-width:1.5;"/><rect fill="none" height="132.3359" style="stroke:#000000;stroke-width:1.5;" width="435.5" x="374.5" y="912.4219"/><text fill="#000000" font-family="sans-serif" font-size="13" font-weight="bold" lengthAdjust="spacing" textLength="19" x="389.5" y="925.4888">alt</text><text fill="#000000" font-family="sans-serif" font-size="11" font-weight="bold" lengthAdjust="spacing" textLength="154" x="453.5" y="924.6323">[Identity does not exist]</text><line style="stroke:#181818;stroke-width:1.0;" x1="416" x2="458" y1="950.6875" y2="950.6875"/><line style="stroke:#181818;stroke-width:1.0;" x1="458" x2="458" y1="950.6875" y2="963.6875"/><line style="stroke:#181818;stroke-width:1.0;" x1="417" x2="458" y1="963.6875" y2="963.6875"/><polygon fill="#181818" points="427,959.6875,417,963.6875,427,967.6875,423,963.6875" style="stroke:#181818;stroke-width:1.0;"/><text fill="#000000" font-family="sans-serif" font-size="13" lengthAdjust="spacing" textLength="166" x="423" y="945.6216">to_aux remains undefined</text><line style="stroke:#000000;stroke-width:1.0;stroke-dasharray:2.0,2.0;" x1="374.5" x2="810" y1="972.6875" y2="972.6875"/><text fill="#000000" font-family="sans-serif" font-size="11" font-weight="bold" lengthAdjust="spacing" textLength="101" x="379.5" y="982.8979">[Identity exists]</text><polygon fill="#181818" points="736,1003.625,746,1007.625,736,1011.625,740,1007.625" style="stroke:#181818;stroke-width:1.0;"/><line style="stroke:#181818;stroke-width:1.0;" x1="416" x2="742" y1="1007.625" y2="1007.625"/><text fill="#000000" font-family="sans-serif" font-size="13" lengthAdjust="spacing" textLength="199" x="423" y="1002.5591">getOwnerOfIdentity(to_identity)</text><polygon fill="#181818" points="427,1032.7578,417,1036.7578,427,1040.7578,423,1036.7578" style="stroke:#181818;stroke-width:1.0;"/><line style="stroke:#181818;stroke-width:1.0;stroke-dasharray:2.0,2.0;" x1="421" x2="747" y1="1036.7578" y2="1036.7578"/><text fill="#000000" font-family="sans-serif" font-size="13" lengthAdjust="spacing" textLength="136" x="433" y="1031.6919">return owner address</text><line style="stroke:#000000;stroke-width:1.0;stroke-dasharray:2.0,2.0;" x1="364.5" x2="930" y1="1052.7578" y2="1052.7578"/><text fill="#000000" font-family="sans-serif" font-size="11" font-weight="bold" lengthAdjust="spacing" textLength="177" x="369.5" y="1062.9683">[toData[i].to_identity == ""]</text><line style="stroke:#181818;stroke-width:1.0;" x1="416" x2="458" y1="1087.6953" y2="1087.6953"/><line style="stroke:#181818;stroke-width:1.0;" x1="458" x2="458" y1="1087.6953" y2="1100.6953"/><line style="stroke:#181818;stroke-width:1.0;" x1="417" x2="458" y1="1100.6953" y2="1100.6953"/><polygon fill="#181818" points="427,1096.6953,417,1100.6953,427,1104.6953,423,1100.6953" style="stroke:#181818;stroke-width:1.0;"/><text fill="#000000" font-family="sans-serif" font-size="13" lengthAdjust="spacing" textLength="159" x="423" y="1082.6294">use toData[i].to_address</text><line style="stroke:#181818;stroke-width:1.0;" x1="416" x2="458" y1="1136.8281" y2="1136.8281"/><line style="stroke:#181818;stroke-width:1.0;" x1="458" x2="458" y1="1136.8281" y2="1149.8281"/><line style="stroke:#181818;stroke-width:1.0;" x1="417" x2="458" y1="1149.8281" y2="1149.8281"/><polygon fill="#181818" points="427,1145.8281,417,1149.8281,427,1153.8281,423,1149.8281" style="stroke:#181818;stroke-width:1.0;"/><text fill="#000000" font-family="sans-serif" font-size="13" lengthAdjust="spacing" textLength="297" x="423" y="1131.7622">balances[to_aux][token] += toData[i].amount</text><rect fill="#EEEEEE" height="3" style="stroke:#EEEEEE;stroke-width:1.0;" width="960" x="0" y="1178.3945"/><line style="stroke:#000000;stroke-width:1.0;" x1="0" x2="960" y1="1178.3945" y2="1178.3945"/><line style="stroke:#000000;stroke-width:1.0;" x1="0" x2="960" y1="1181.3945" y2="1181.3945"/><rect fill="#EEEEEE" height="23.1328" style="stroke:#000000;stroke-width:2.0;" width="117" x="421.5" y="1167.8281"/><text fill="#000000" font-family="sans-serif" font-size="13" font-weight="bold" lengthAdjust="spacing" textLength="98" x="427.5" y="1183.895">End For Loop</text><line style="stroke:#181818;stroke-width:1.0;" x1="416" x2="458" y1="1222.0938" y2="1222.0938"/><line style="stroke:#181818;stroke-width:1.0;" x1="458" x2="458" y1="1222.0938" y2="1235.0938"/><line style="stroke:#181818;stroke-width:1.0;" x1="417" x2="458" y1="1235.0938" y2="1235.0938"/><polygon fill="#181818" points="427,1231.0938,417,1235.0938,427,1239.0938,423,1235.0938" style="stroke:#181818;stroke-width:1.0;"/><text fill="#000000" font-family="sans-serif" font-size="13" lengthAdjust="spacing" textLength="245" x="423" y="1217.0278">verify acomulatedAmount == amount</text><path d="M30,1250.0938 L94,1250.0938 L94,1257.2266 L84,1267.2266 L30,1267.2266 L30,1250.0938 " fill="#EEEEEE" style="stroke:#000000;stroke-width:1.5;"/><rect fill="none" height="407.875" style="stroke:#000000;stroke-width:1.5;" width="701" x="30" y="1250.0938"/><text fill="#000000" font-family="sans-serif" font-size="13" font-weight="bold" lengthAdjust="spacing" textLength="19" x="45" y="1263.1606">alt</text><text fill="#000000" font-family="sans-serif" font-size="11" font-weight="bold" lengthAdjust="spacing" textLength="203" x="109" y="1262.3042">[acomulatedAmount != amount]</text><line style="stroke:#181818;stroke-width:2.0;" x1="103" x2="113" y1="1298.4922" y2="1308.4922"/><line style="stroke:#181818;stroke-width:2.0;" x1="103" x2="113" y1="1308.4922" y2="1298.4922"/><line style="stroke:#181818;stroke-width:1.0;" x1="108" x2="405" y1="1303.4922" y2="1303.4922"/><text fill="#000000" font-family="sans-serif" font-size="13" lengthAdjust="spacing" textLength="70" x="113" y="1283.2935">Revert with</text><text fill="#000000" font-family="sans-serif" font-size="13" lengthAdjust="spacing" textLength="286" x="113" y="1298.4263">InvalidAmount(acomulatedAmount, amount)</text><line style="stroke:#000000;stroke-width:1.0;stroke-dasharray:2.0,2.0;" x1="30" x2="731" y1="1312.4922" y2="1312.4922"/><text fill="#000000" font-family="sans-serif" font-size="11" font-weight="bold" lengthAdjust="spacing" textLength="108" x="35" y="1322.7026">[amounts match]</text><path d="M374.5,1333.2969 L438.5,1333.2969 L438.5,1340.4297 L428.5,1350.4297 L374.5,1350.4297 L374.5,1333.2969 " fill="#EEEEEE" style="stroke:#000000;stroke-width:1.5;"/><rect fill="none" height="158.3359" style="stroke:#000000;stroke-width:1.5;" width="346.5" x="374.5" y="1333.2969"/><text fill="#000000" font-family="sans-serif" font-size="13" font-weight="bold" lengthAdjust="spacing" textLength="19" x="389.5" y="1346.3638">alt</text><text fill="#000000" font-family="sans-serif" font-size="11" font-weight="bold" lengthAdjust="spacing" textLength="197" x="453.5" y="1345.5073">[isAddressStaker(msg.sender)]</text><line style="stroke:#181818;stroke-width:1.0;" x1="416" x2="458" y1="1371.5625" y2="1371.5625"/><line style="stroke:#181818;stroke-width:1.0;" x1="458" x2="458" y1="1371.5625" y2="1384.5625"/><line style="stroke:#181818;stroke-width:1.0;" x1="417" x2="458" y1="1384.5625" y2="1384.5625"/><polygon fill="#181818" points="427,1380.5625,417,1384.5625,427,1388.5625,423,1384.5625" style="stroke:#181818;stroke-width:1.0;"/><text fill="#000000" font-family="sans-serif" font-size="13" lengthAdjust="spacing" textLength="181" x="423" y="1366.4966">_giveReward(msg.sender, 1)</text><line style="stroke:#181818;stroke-width:1.0;" x1="416" x2="458" y1="1413.6953" y2="1413.6953"/><line style="stroke:#181818;stroke-width:1.0;" x1="458" x2="458" y1="1413.6953" y2="1426.6953"/><line style="stroke:#181818;stroke-width:1.0;" x1="417" x2="458" y1="1426.6953" y2="1426.6953"/><polygon fill="#181818" points="427,1422.6953,417,1426.6953,427,1430.6953,423,1426.6953" style="stroke:#181818;stroke-width:1.0;"/><text fill="#000000" font-family="sans-serif" font-size="13" lengthAdjust="spacing" textLength="286" x="423" y="1408.6294">balances[msg.sender][token] += priorityFee</text><line style="stroke:#000000;stroke-width:1.0;stroke-dasharray:2.0,2.0;" x1="374.5" x2="721" y1="1435.6953" y2="1435.6953"/><text fill="#000000" font-family="sans-serif" font-size="11" font-weight="bold" lengthAdjust="spacing" textLength="87" x="379.5" y="1445.9058">[not a staker]</text><line style="stroke:#181818;stroke-width:1.0;" x1="416" x2="458" y1="1470.6328" y2="1470.6328"/><line style="stroke:#181818;stroke-width:1.0;" x1="458" x2="458" y1="1470.6328" y2="1483.6328"/><line style="stroke:#181818;stroke-width:1.0;" x1="417" x2="458" y1="1483.6328" y2="1483.6328"/><polygon fill="#181818" points="427,1479.6328,417,1483.6328,427,1487.6328,423,1483.6328" style="stroke:#181818;stroke-width:1.0;"/><text fill="#000000" font-family="sans-serif" font-size="13" lengthAdjust="spacing" textLength="240" x="423" y="1465.5669">balances[from][token] += priorityFee</text><path d="M374.5,1505.6328 L438.5,1505.6328 L438.5,1512.7656 L428.5,1522.7656 L374.5,1522.7656 L374.5,1505.6328 " fill="#EEEEEE" style="stroke:#000000;stroke-width:1.5;"/><rect fill="none" height="116.2031" style="stroke:#000000;stroke-width:1.5;" width="305.5" x="374.5" y="1505.6328"/><text fill="#000000" font-family="sans-serif" font-size="13" font-weight="bold" lengthAdjust="spacing" textLength="19" x="389.5" y="1518.6997">alt</text><text fill="#000000" font-family="sans-serif" font-size="11" font-weight="bold" lengthAdjust="spacing" textLength="136" x="453.5" y="1517.8433">[priorityFlag == true]</text><line style="stroke:#181818;stroke-width:1.0;" x1="416" x2="458" y1="1543.8984" y2="1543.8984"/><line style="stroke:#181818;stroke-width:1.0;" x1="458" x2="458" y1="1543.8984" y2="1556.8984"/><line style="stroke:#181818;stroke-width:1.0;" x1="417" x2="458" y1="1556.8984" y2="1556.8984"/><polygon fill="#181818" points="427,1552.8984,417,1556.8984,427,1560.8984,423,1556.8984" style="stroke:#181818;stroke-width:1.0;"/><text fill="#000000" font-family="sans-serif" font-size="13" lengthAdjust="spacing" textLength="245" x="423" y="1538.8325">asyncUsedNonce[from][nonce] = true</text><line style="stroke:#000000;stroke-width:1.0;stroke-dasharray:2.0,2.0;" x1="374.5" x2="680" y1="1565.8984" y2="1565.8984"/><text fill="#000000" font-family="sans-serif" font-size="11" font-weight="bold" lengthAdjust="spacing" textLength="142" x="379.5" y="1576.1089">[priorityFlag == false]</text><line style="stroke:#181818;stroke-width:1.0;" x1="416" x2="458" y1="1600.8359" y2="1600.8359"/><line style="stroke:#181818;stroke-width:1.0;" x1="458" x2="458" y1="1600.8359" y2="1613.8359"/><line style="stroke:#181818;stroke-width:1.0;" x1="417" x2="458" y1="1613.8359" y2="1613.8359"/><polygon fill="#181818" points="427,1609.8359,417,1613.8359,427,1617.8359,423,1613.8359" style="stroke:#181818;stroke-width:1.0;"/><text fill="#000000" font-family="sans-serif" font-size="13" lengthAdjust="spacing" textLength="195" x="423" y="1595.77">nextSyncUsedNonce[from]++</text><polygon fill="#181818" points="102,1645.9688,92,1649.9688,102,1653.9688,98,1649.9688" style="stroke:#181818;stroke-width:1.0;"/><line style="stroke:#181818;stroke-width:1.0;stroke-dasharray:2.0,2.0;" x1="96" x2="410" y1="1649.9688" y2="1649.9688"/><text fill="#000000" font-family="sans-serif" font-size="13" lengthAdjust="spacing" textLength="226" x="108" y="1644.9028">Transaction completed successfully</text><!--SRC=[bLRRRkCs47tNLqoS5nlPRBq55WM2TO1a8xS1kjbYlSrB4YmOSIGJaKY3f7n1qU_gUx-iGzBMnPOlLO0uCUUSENEbFXcxol4wuYef2vGM_eg0dbkMlFsgLIdvPvKh3Okfi1Zz7NtwQMqViSJIzxsnC5FKG7_-QL3tW1d09IQbEuncJ5kHY1aZtbxy-FWbdC_d1PmFXt7yyx1jyi0AdA2UYmIzPI6DC_mSnt4KMM5pX3jXPgWDmXzi1TyrauQ422LXdAl5i-oFcSYHqwcTmYN4MfEEtvZakP3PmAiMSsQn4XbLQY-lWx8hu6iVvAB_xp_kPz00DjL7_hyQEKSjqjKND8PbE16PH3vM-gx1vpJa5ixJZw-_l7u0PyDigH640I7dB1VS5o0GB-jaNi4t97eB2q6XtGVJ2avASahAkQzJcpLmUbBlEPXKl6SZO9nhajmV3hnLxNuhBX0f52PxRr1oglbeL6TnWsl6rZ0zwp0z8Sg9Hz-R1sM_Jp7UPg3JQFEv7TzC2wM5NOrpbZcbLfTu93fcLZ81gMI2zDj2QP1t1XPCMAwHyLNRxFJItJXl3uvfVppTEbzPpfo0FYjeG2rSrC4Y3g9TjPOOLPbDDyZePAMcJ5EQJjeBjsjeqDNejQcRw3RzlZolpyrJgbNnycJL6yeNk1mTYgI3XYMgA7EQHNuJO2COrZwfrhUO2Le85C_lIitec-XagWlg57N7B7iIB- -3ggZT0o7gsiYg7u9JWaYqQ_DUhwCNhlqckm9ZjKZieo_ZVNg_XiLBOMo_mJDeKJHhkO40LsX2PHsuPUyUEa7G8fjQybg1VDynlorJMfFcMRwM5dANeqIHYIpHx51jPOnaid896WicA2Qw830LSdi26lrHUVTAz_E736LelouawgzLTlOdnZqETLchqqXRJu9o59krrbOcQwLDbTtr7EsjvzeVpNuRkksp6kL3un1oMWt4mHuaIR7a9pNtPgtjZ0jj_C3QrM8xvcSxviTNnxFSR3cFx6-JlbjJ3gBEQeH3kl-PJQRHxZG4As5kGhOdbhsXxjVtpU1O5__8n1o_uO9fte2zWmz7aLNHQbYpS8tzjNSYtDWosWLEzCdkMYlpaADcm_sVEt7VXdJN5BtQSNzLhMNu2_05EXYQSMwxInaT7lCdSMadkoulBWv76LWSJTsFpRT3whzPZjH_OCg4ycdICizNBGgEhNUylMU7taAyhkW_]--></g></svg>