<?xml version="1.0" encoding="us-ascii" standalone="no"?><svg xmlns="http://www.w3.org/2000/svg" xmlns:xlink="http://www.w3.org/1999/xlink" contentStyleType="text/css" height="734px" preserveAspectRatio="none" style="width:784px;height:734px;background:#FFFFFF;" version="1.1" viewBox="0 0 784 734" width="784px" zoomAndPan="magnify"><defs/><g><text fill="#000000" font-family="sans-serif" font-size="14" font-weight="bold" lengthAdjust="spacing" textLength="387" x="194.75" y="27.9951">Disperse Contract Address Pay Transaction Flow</text><text fill="#000000" font-family="sans-serif" font-size="14" font-weight="bold" lengthAdjust="spacing" textLength="285" x="245.75" y="44.292">(Happy Path - Successful Execution)</text><rect fill="#FFFFFF" height="581.5234" style="stroke:#181818;stroke-width:1.0;" width="10" x="58.5" y="99.8906"/><rect fill="#00EE20" height="560.3906" style="stroke:#181818;stroke-width:1.0;" width="10" x="317.5" y="121.0234"/><rect fill="#FFFFFF" height="59.2656" style="stroke:#000000;stroke-width:1.5;" width="281" x="286" y="594.0156"/><line style="stroke:#181818;stroke-width:0.5;stroke-dasharray:5.0,5.0;" x1="63" x2="63" y1="89.8906" y2="699.4141"/><line style="stroke:#181818;stroke-width:0.5;stroke-dasharray:5.0,5.0;" x1="322" x2="322" y1="89.8906" y2="699.4141"/><rect fill="#E2E2F0" height="30.2969" rx="2.5" ry="2.5" style="stroke:#181818;stroke-width:0.5;" width="117" x="5" y="58.5938"/><text fill="#000000" font-family="sans-serif" font-size="14" lengthAdjust="spacing" textLength="103" x="12" y="78.5889">Smart Contract</text><rect fill="#E2E2F0" height="30.2969" rx="2.5" ry="2.5" style="stroke:#181818;stroke-width:0.5;" width="117" x="5" y="698.4141"/><text fill="#000000" font-family="sans-serif" font-size="14" lengthAdjust="spacing" textLength="103" x="12" y="718.4092">Smart Contract</text><rect fill="#00EE20" height="30.2969" rx="2.5" ry="2.5" style="stroke:#181818;stroke-width:0.5;" width="53" x="296" y="58.5938"/><text fill="#000000" font-family="sans-serif" font-size="14" lengthAdjust="spacing" textLength="39" x="303" y="78.5889">EVVM</text><rect fill="#00EE20" height="30.2969" rx="2.5" ry="2.5" style="stroke:#181818;stroke-width:0.5;" width="53" x="296" y="698.4141"/><text fill="#000000" font-family="sans-serif" font-size="14" lengthAdjust="spacing" textLength="39" x="303" y="718.4092">EVVM</text><rect fill="#FFFFFF" height="581.5234" style="stroke:#181818;stroke-width:1.0;" width="10" x="58.5" y="99.8906"/><rect fill="#00EE20" height="560.3906" style="stroke:#181818;stroke-width:1.0;" width="10" x="317.5" y="121.0234"/><polygon fill="#181818" points="305.5,117.0234,315.5,121.0234,305.5,125.0234,309.5,121.0234" style="stroke:#181818;stroke-width:1.0;"/><line style="stroke:#181818;stroke-width:1.0;" x1="68.5" x2="311.5" y1="121.0234" y2="121.0234"/><text fill="#000000" font-family="sans-serif" font-size="13" lengthAdjust="spacing" textLength="116" x="75.5" y="115.9575">disperseCaPay(&#183;&#183;&#183;)</text><line style="stroke:#181818;stroke-width:1.0;" x1="327.5" x2="369.5" y1="180.4219" y2="180.4219"/><line style="stroke:#181818;stroke-width:1.0;" x1="369.5" x2="369.5" y1="180.4219" y2="193.4219"/><line style="stroke:#181818;stroke-width:1.0;" x1="328.5" x2="369.5" y1="193.4219" y2="193.4219"/><polygon fill="#181818" points="338.5,189.4219,328.5,193.4219,338.5,197.4219,334.5,193.4219" style="stroke:#181818;stroke-width:1.0;"/><text fill="#000000" font-family="sans-serif" font-size="13" lengthAdjust="spacing" textLength="73" x="334.5" y="145.0903">assembly {</text><text fill="#000000" font-family="sans-serif" font-size="13" lengthAdjust="spacing" textLength="210" x="350.5" y="160.2231">size := extcodesize(msg.sender)</text><text fill="#000000" font-family="sans-serif" font-size="13" lengthAdjust="spacing" textLength="8" x="334.5" y="175.356">}</text><line style="stroke:#181818;stroke-width:1.0;" x1="327.5" x2="369.5" y1="222.5547" y2="222.5547"/><line style="stroke:#181818;stroke-width:1.0;" x1="369.5" x2="369.5" y1="222.5547" y2="235.5547"/><line style="stroke:#181818;stroke-width:1.0;" x1="328.5" x2="369.5" y1="235.5547" y2="235.5547"/><polygon fill="#181818" points="338.5,231.5547,328.5,235.5547,338.5,239.5547,334.5,235.5547" style="stroke:#181818;stroke-width:1.0;"/><text fill="#000000" font-family="sans-serif" font-size="13" lengthAdjust="spacing" textLength="307" x="334.5" y="217.4888">verify balances[msg.sender][token] &gt;= amount</text><line style="stroke:#181818;stroke-width:1.0;" x1="327.5" x2="369.5" y1="264.6875" y2="264.6875"/><line style="stroke:#181818;stroke-width:1.0;" x1="369.5" x2="369.5" y1="264.6875" y2="277.6875"/><line style="stroke:#181818;stroke-width:1.0;" x1="328.5" x2="369.5" y1="277.6875" y2="277.6875"/><polygon fill="#181818" points="338.5,273.6875,328.5,277.6875,338.5,281.6875,334.5,277.6875" style="stroke:#181818;stroke-width:1.0;"/><text fill="#000000" font-family="sans-serif" font-size="13" lengthAdjust="spacing" textLength="263" x="334.5" y="259.6216">balances[msg.sender][token] -= amount</text><line style="stroke:#181818;stroke-width:1.0;" x1="327.5" x2="369.5" y1="306.8203" y2="306.8203"/><line style="stroke:#181818;stroke-width:1.0;" x1="369.5" x2="369.5" y1="306.8203" y2="319.8203"/><line style="stroke:#181818;stroke-width:1.0;" x1="328.5" x2="369.5" y1="319.8203" y2="319.8203"/><polygon fill="#181818" points="338.5,315.8203,328.5,319.8203,338.5,323.8203,334.5,319.8203" style="stroke:#181818;stroke-width:1.0;"/><text fill="#000000" font-family="sans-serif" font-size="13" lengthAdjust="spacing" textLength="154" x="334.5" y="301.7544">acomulatedAmount = 0</text><rect fill="#EEEEEE" height="3" style="stroke:#EEEEEE;stroke-width:1.0;" width="777.5" x="0" y="348.3867"/><line style="stroke:#000000;stroke-width:1.0;" x1="0" x2="777.5" y1="348.3867" y2="348.3867"/><line style="stroke:#000000;stroke-width:1.0;" x1="0" x2="777.5" y1="351.3867" y2="351.3867"/><rect fill="#EEEEEE" height="23.1328" style="stroke:#000000;stroke-width:2.0;" width="131" x="323.25" y="337.8203"/><text fill="#000000" font-family="sans-serif" font-size="13" font-weight="bold" lengthAdjust="spacing" textLength="112" x="329.25" y="353.8872">Begin For Loop</text><line style="stroke:#181818;stroke-width:1.0;" x1="327.5" x2="369.5" y1="403.7188" y2="403.7188"/><line style="stroke:#181818;stroke-width:1.0;" x1="369.5" x2="369.5" y1="403.7188" y2="416.7188"/><line style="stroke:#181818;stroke-width:1.0;" x1="328.5" x2="369.5" y1="416.7188" y2="416.7188"/><polygon fill="#181818" points="338.5,412.7188,328.5,416.7188,338.5,420.7188,334.5,416.7188" style="stroke:#181818;stroke-width:1.0;"/><text fill="#000000" font-family="sans-serif" font-size="13" lengthAdjust="spacing" textLength="268" x="334.5" y="398.6528">acomulatedAmount += toData[i].amount</text><path d="M614,375.9531 L614,430.9531 L762,430.9531 L762,385.9531 L752,375.9531 L614,375.9531 " fill="#FEFFDD" style="stroke:#181818;stroke-width:0.5;"/><path d="M752,375.9531 L752,385.9531 L762,385.9531 L752,375.9531 " fill="#FEFFDD" style="stroke:#181818;stroke-width:0.5;"/><text fill="#000000" font-family="sans-serif" font-size="13" lengthAdjust="spacing" textLength="127" x="620" y="393.02">Accumulating totals</text><text fill="#000000" font-family="sans-serif" font-size="13" lengthAdjust="spacing" textLength="102" x="620" y="408.1528">to verify against</text><text fill="#000000" font-family="sans-serif" font-size="13" lengthAdjust="spacing" textLength="109" x="620" y="423.2856">declared amount</text><line style="stroke:#181818;stroke-width:1.0;" x1="327.5" x2="369.5" y1="457.4844" y2="457.4844"/><line style="stroke:#181818;stroke-width:1.0;" x1="369.5" x2="369.5" y1="457.4844" y2="470.4844"/><line style="stroke:#181818;stroke-width:1.0;" x1="328.5" x2="369.5" y1="470.4844" y2="470.4844"/><polygon fill="#181818" points="338.5,466.4844,328.5,470.4844,338.5,474.4844,334.5,470.4844" style="stroke:#181818;stroke-width:1.0;"/><text fill="#000000" font-family="sans-serif" font-size="13" lengthAdjust="spacing" textLength="380" x="334.5" y="452.4185">balances[toData[i].toAddress][token] += toData[i].amount</text><rect fill="#EEEEEE" height="3" style="stroke:#EEEEEE;stroke-width:1.0;" width="777.5" x="0" y="499.0508"/><line style="stroke:#000000;stroke-width:1.0;" x1="0" x2="777.5" y1="499.0508" y2="499.0508"/><line style="stroke:#000000;stroke-width:1.0;" x1="0" x2="777.5" y1="502.0508" y2="502.0508"/><rect fill="#EEEEEE" height="23.1328" style="stroke:#000000;stroke-width:2.0;" width="117" x="330.25" y="488.4844"/><text fill="#000000" font-family="sans-serif" font-size="13" font-weight="bold" lengthAdjust="spacing" textLength="98" x="336.25" y="504.5513">End For Loop</text><line style="stroke:#181818;stroke-width:1.0;" x1="327.5" x2="369.5" y1="554.3828" y2="554.3828"/><line style="stroke:#181818;stroke-width:1.0;" x1="369.5" x2="369.5" y1="554.3828" y2="567.3828"/><line style="stroke:#181818;stroke-width:1.0;" x1="328.5" x2="369.5" y1="567.3828" y2="567.3828"/><polygon fill="#181818" points="338.5,563.3828,328.5,567.3828,338.5,571.3828,334.5,567.3828" style="stroke:#181818;stroke-width:1.0;"/><text fill="#000000" font-family="sans-serif" font-size="13" lengthAdjust="spacing" textLength="245" x="334.5" y="549.3169">verify acomulatedAmount == amount</text><path d="M591,526.6172 L591,581.6172 L749,581.6172 L749,536.6172 L739,526.6172 L591,526.6172 " fill="#FEFFDD" style="stroke:#181818;stroke-width:0.5;"/><path d="M739,526.6172 L739,536.6172 L749,536.6172 L739,526.6172 " fill="#FEFFDD" style="stroke:#181818;stroke-width:0.5;"/><text fill="#000000" font-family="sans-serif" font-size="13" lengthAdjust="spacing" textLength="119" x="597" y="543.6841">CRITICAL: Prevents</text><text fill="#000000" font-family="sans-serif" font-size="13" lengthAdjust="spacing" textLength="104" x="597" y="558.8169">over-distribution</text><text fill="#000000" font-family="sans-serif" font-size="13" lengthAdjust="spacing" textLength="137" x="597" y="573.9497">Exact match required</text><path d="M286,594.0156 L350,594.0156 L350,601.1484 L340,611.1484 L286,611.1484 L286,594.0156 " fill="#EEEEEE" style="stroke:#000000;stroke-width:1.5;"/><rect fill="none" height="59.2656" style="stroke:#000000;stroke-width:1.5;" width="281" x="286" y="594.0156"/><text fill="#000000" font-family="sans-serif" font-size="13" font-weight="bold" lengthAdjust="spacing" textLength="19" x="301" y="607.0825">alt</text><text fill="#000000" font-family="sans-serif" font-size="11" font-weight="bold" lengthAdjust="spacing" textLength="197" x="365" y="606.2261">[isAddressStaker(msg.sender)]</text><line style="stroke:#181818;stroke-width:1.0;" x1="327.5" x2="369.5" y1="632.2813" y2="632.2813"/><line style="stroke:#181818;stroke-width:1.0;" x1="369.5" x2="369.5" y1="632.2813" y2="645.2813"/><line style="stroke:#181818;stroke-width:1.0;" x1="328.5" x2="369.5" y1="645.2813" y2="645.2813"/><polygon fill="#181818" points="338.5,641.2813,328.5,645.2813,338.5,649.2813,334.5,645.2813" style="stroke:#181818;stroke-width:1.0;"/><text fill="#000000" font-family="sans-serif" font-size="13" lengthAdjust="spacing" textLength="181" x="334.5" y="627.2153">_giveReward(msg.sender, 1)</text><polygon fill="#181818" points="74.5,677.4141,64.5,681.4141,74.5,685.4141,70.5,681.4141" style="stroke:#181818;stroke-width:1.0;"/><line style="stroke:#181818;stroke-width:1.0;stroke-dasharray:2.0,2.0;" x1="68.5" x2="321.5" y1="681.4141" y2="681.4141"/><text fill="#000000" font-family="sans-serif" font-size="13" lengthAdjust="spacing" textLength="225" x="80.5" y="676.3481">Distribution completed successfully</text><!--SRC=[XLF1Rjim3BthAuZsac1Bb-qOr07IrDiAT43H5Bt4mS38h2D4bZn9TfeL_QxUzsMZCyT9bgsrBwBqdiX7FPxxiDOq5AcLPKucm9C0k42v_E9iQTAnrTR1Qg42YMTn_g51Ym9TK58Lo8oJISuHZAq93cKu0VGWc-0G6D_VVziSKrNbSDhln_6dlX111KrmgNn1pbDx4OpIr97tS8Dhk7DeF6ygQ-2pjgl4TBvYKQpvC2oW1vDIIiO-b1hYHv9b3UmAKJCg3DGM1A9TzOP_wXX0sgGU8wVg_7gf_-wEUrZj9jfnqNlAvteDJua1_hpwIJ28W1w3j2dLOIVtsPadavBh9kRvw8gAd7fOmnmr6XOntS5dqs2NP6OmZ01pVf1mH7wDrVil2wNDIytYqj46016mj2Y22yeKTvWV_ThQ0gBeRUgx28Azn81JDJjhyXdBVNCgMmHcZ2HxgwOeap4qeFQ92NQh6pDKneU4IvSQ7QLlIjsb2xOnIQlvNzNKmcAJlYfhMynHOzeU7cWQtrxTNOr7rmEuSLJnuB0aotVqs4l1gVd6W8c97skdvHZa0XpzA1NBOrVg0AUReGBb6m6JW4jo-rOHjPt-gl9xfYgwfHMwT0_w7Zvs1Q-seXZVkdnG3rPR4U_dXIQM1xwT6BqM8gK3k-_7xIp_1W00]--></g></svg>