<?xml version="1.0" encoding="us-ascii" standalone="no"?><svg xmlns="http://www.w3.org/2000/svg" xmlns:xlink="http://www.w3.org/1999/xlink" contentStyleType="text/css" height="983px" preserveAspectRatio="none" style="width:889px;height:983px;background:#FFFFFF;" version="1.1" viewBox="0 0 889 983" width="889px" zoomAndPan="magnify"><defs/><g><text fill="#000000" font-family="sans-serif" font-size="14" font-weight="bold" lengthAdjust="spacing" textLength="168" x="362" y="27.9951">Pay Transaction Flow</text><text fill="#000000" font-family="sans-serif" font-size="14" font-weight="bold" lengthAdjust="spacing" textLength="285" x="303.5" y="44.292">(Happy Path - Successful Execution)</text><rect fill="#FFFFFF" height="749.1953" style="stroke:#181818;stroke-width:1.0;" width="10" x="51" y="144.8906"/><rect fill="#00EE20" height="719.0625" style="stroke:#181818;stroke-width:1.0;" width="10" x="311" y="166.0234"/><rect fill="#FFFFFF" height="82.5313" style="stroke:#000000;stroke-width:1.5;" width="503.5" x="279.5" y="261.5547"/><rect fill="#FFFFFF" height="132.3359" style="stroke:#000000;stroke-width:1.5;" width="468.5" x="279.5" y="358.0859"/><rect fill="#FFFFFF" height="56.9375" style="stroke:none;stroke-width:1.0;" width="468.5" x="279.5" y="433.4844"/><rect fill="#FFFFFF" height="163.9297" style="stroke:#000000;stroke-width:1.5;" width="613.5" x="269.5" y="546.5547"/><rect fill="#FFFFFF" height="82.5313" style="stroke:#000000;stroke-width:1.5;" width="593.5" x="279.5" y="570.6875"/><rect fill="#FFFFFF" height="132.4688" style="stroke:#000000;stroke-width:1.5;" width="485.5" x="279.5" y="724.4844"/><rect fill="#FFFFFF" height="65.0703" style="stroke:none;stroke-width:1.0;" width="485.5" x="279.5" y="791.8828"/><line style="stroke:#181818;stroke-width:0.5;stroke-dasharray:5.0,5.0;" x1="56" x2="56" y1="134.8906" y2="903.0859"/><line style="stroke:#181818;stroke-width:0.5;stroke-dasharray:5.0,5.0;" x1="315.5" x2="315.5" y1="134.8906" y2="903.0859"/><line style="stroke:#181818;stroke-width:0.5;stroke-dasharray:5.0,5.0;" x1="686" x2="686" y1="134.8906" y2="903.0859"/><text fill="#000000" font-family="sans-serif" font-size="14" lengthAdjust="spacing" textLength="96" x="5" y="131.5889">Fisher or User</text><ellipse cx="56" cy="67.0938" fill="#E2E2F0" rx="8" ry="8" style="stroke:#181818;stroke-width:0.5;"/><path d="M56,75.0938 L56,102.0938 M43,83.0938 L69,83.0938 M56,102.0938 L43,117.0938 M56,102.0938 L69,117.0938 " fill="none" style="stroke:#181818;stroke-width:0.5;"/><text fill="#000000" font-family="sans-serif" font-size="14" lengthAdjust="spacing" textLength="96" x="5" y="915.0811">Fisher or User</text><ellipse cx="56" cy="926.8828" fill="#E2E2F0" rx="8" ry="8" style="stroke:#181818;stroke-width:0.5;"/><path d="M56,934.8828 L56,961.8828 M43,942.8828 L69,942.8828 M56,961.8828 L43,976.8828 M56,961.8828 L69,976.8828 " fill="none" style="stroke:#181818;stroke-width:0.5;"/><rect fill="#00EE20" height="30.2969" rx="2.5" ry="2.5" style="stroke:#181818;stroke-width:0.5;" width="53" x="289.5" y="103.5938"/><text fill="#000000" font-family="sans-serif" font-size="14" lengthAdjust="spacing" textLength="39" x="296.5" y="123.5889">EVVM</text><rect fill="#00EE20" height="30.2969" rx="2.5" ry="2.5" style="stroke:#181818;stroke-width:0.5;" width="53" x="289.5" y="902.0859"/><text fill="#000000" font-family="sans-serif" font-size="14" lengthAdjust="spacing" textLength="39" x="296.5" y="922.0811">EVVM</text><rect fill="#00CEEE" height="30.2969" rx="2.5" ry="2.5" style="stroke:#181818;stroke-width:0.5;" width="104" x="634" y="103.5938"/><text fill="#000000" font-family="sans-serif" font-size="14" lengthAdjust="spacing" textLength="90" x="641" y="123.5889">NameService</text><rect fill="#00CEEE" height="30.2969" rx="2.5" ry="2.5" style="stroke:#181818;stroke-width:0.5;" width="104" x="634" y="902.0859"/><text fill="#000000" font-family="sans-serif" font-size="14" lengthAdjust="spacing" textLength="90" x="641" y="922.0811">NameService</text><rect fill="#FFFFFF" height="749.1953" style="stroke:#181818;stroke-width:1.0;" width="10" x="51" y="144.8906"/><rect fill="#00EE20" height="719.0625" style="stroke:#181818;stroke-width:1.0;" width="10" x="311" y="166.0234"/><polygon fill="#181818" points="299,162.0234,309,166.0234,299,170.0234,303,166.0234" style="stroke:#181818;stroke-width:1.0;"/><line style="stroke:#181818;stroke-width:1.0;" x1="61" x2="305" y1="166.0234" y2="166.0234"/><text fill="#000000" font-family="sans-serif" font-size="13" lengthAdjust="spacing" textLength="45" x="68" y="160.9575">pay(&#183;&#183;&#183;)</text><line style="stroke:#181818;stroke-width:1.0;" x1="321" x2="363" y1="214.3555" y2="214.3555"/><line style="stroke:#181818;stroke-width:1.0;" x1="363" x2="363" y1="214.3555" y2="227.3555"/><line style="stroke:#181818;stroke-width:1.0;" x1="322" x2="363" y1="227.3555" y2="227.3555"/><polygon fill="#181818" points="332,223.3555,322,227.3555,332,231.3555,328,227.3555" style="stroke:#181818;stroke-width:1.0;"/><text fill="#000000" font-family="sans-serif" font-size="13" lengthAdjust="spacing" textLength="248" x="328" y="209.2896">verifyMessageSignedForPay(signature)</text><path d="M588,179.0234 L588,249.0234 L790,249.0234 L790,189.0234 L780,179.0234 L588,179.0234 " fill="#FEFFDD" style="stroke:#181818;stroke-width:0.5;"/><path d="M780,179.0234 L780,189.0234 L790,189.0234 L780,179.0234 " fill="#FEFFDD" style="stroke:#181818;stroke-width:0.5;"/><text fill="#000000" font-family="sans-serif" font-size="13" lengthAdjust="spacing" textLength="181" x="594" y="196.0903">CRITICAL: Signature includes</text><text fill="#000000" font-family="sans-serif" font-size="13" lengthAdjust="spacing" textLength="154" x="594" y="211.2231">all payment parameters</text><text fill="#000000" font-family="sans-serif" font-size="13" lengthAdjust="spacing" textLength="133" x="594" y="226.356">+ EvvmID to prevent</text><text fill="#000000" font-family="sans-serif" font-size="13" lengthAdjust="spacing" textLength="167" x="594" y="241.4888">cross-chain replay attacks</text><path d="M279.5,261.5547 L343.5,261.5547 L343.5,268.6875 L333.5,278.6875 L279.5,278.6875 L279.5,261.5547 " fill="#EEEEEE" style="stroke:#000000;stroke-width:1.5;"/><rect fill="none" height="82.5313" style="stroke:#000000;stroke-width:1.5;" width="503.5" x="279.5" y="261.5547"/><text fill="#000000" font-family="sans-serif" font-size="13" font-weight="bold" lengthAdjust="spacing" textLength="19" x="294.5" y="274.6216">alt</text><text fill="#000000" font-family="sans-serif" font-size="11" font-weight="bold" lengthAdjust="spacing" textLength="157" x="358.5" y="273.7651">[executor != address(0)]</text><line style="stroke:#181818;stroke-width:1.0;" x1="321" x2="363" y1="311.4531" y2="311.4531"/><line style="stroke:#181818;stroke-width:1.0;" x1="363" x2="363" y1="311.4531" y2="324.4531"/><line style="stroke:#181818;stroke-width:1.0;" x1="322" x2="363" y1="324.4531" y2="324.4531"/><polygon fill="#181818" points="332,320.4531,322,324.4531,332,328.4531,328,324.4531" style="stroke:#181818;stroke-width:1.0;"/><text fill="#000000" font-family="sans-serif" font-size="13" lengthAdjust="spacing" textLength="211" x="328" y="306.3872">verify if msg.sender == executor</text><path d="M551,283.6875 L551,338.6875 L763,338.6875 L763,293.6875 L753,283.6875 L551,283.6875 " fill="#FEFFDD" style="stroke:#181818;stroke-width:0.5;"/><path d="M753,283.6875 L753,293.6875 L763,293.6875 L753,283.6875 " fill="#FEFFDD" style="stroke:#181818;stroke-width:0.5;"/><text fill="#000000" font-family="sans-serif" font-size="13" lengthAdjust="spacing" textLength="114" x="557" y="300.7544">Allows delegation:</text><text fill="#000000" font-family="sans-serif" font-size="13" lengthAdjust="spacing" textLength="126" x="557" y="315.8872">User signs, but only</text><text fill="#000000" font-family="sans-serif" font-size="13" lengthAdjust="spacing" textLength="191" x="557" y="331.02">specified executor can submit</text><path d="M279.5,358.0859 L343.5,358.0859 L343.5,365.2188 L333.5,375.2188 L279.5,375.2188 L279.5,358.0859 " fill="#EEEEEE" style="stroke:#000000;stroke-width:1.5;"/><rect fill="none" height="132.3359" style="stroke:#000000;stroke-width:1.5;" width="468.5" x="279.5" y="358.0859"/><text fill="#000000" font-family="sans-serif" font-size="13" font-weight="bold" lengthAdjust="spacing" textLength="19" x="294.5" y="371.1528">alt</text><text fill="#000000" font-family="sans-serif" font-size="11" font-weight="bold" lengthAdjust="spacing" textLength="112" x="358.5" y="370.2964">[to_identity != ""]</text><polygon fill="#181818" points="674,392.3516,684,396.3516,674,400.3516,678,396.3516" style="stroke:#181818;stroke-width:1.0;"/><line style="stroke:#181818;stroke-width:1.0;" x1="321" x2="680" y1="396.3516" y2="396.3516"/><text fill="#000000" font-family="sans-serif" font-size="13" lengthAdjust="spacing" textLength="294" x="328" y="391.2856">verifyStrictAndGetOwnerOfIdentity(to_identity)</text><polygon fill="#181818" points="332,421.4844,322,425.4844,332,429.4844,328,425.4844" style="stroke:#181818;stroke-width:1.0;"/><line style="stroke:#181818;stroke-width:1.0;stroke-dasharray:2.0,2.0;" x1="326" x2="685" y1="425.4844" y2="425.4844"/><text fill="#000000" font-family="sans-serif" font-size="13" lengthAdjust="spacing" textLength="127" x="338" y="420.4185">return valid address</text><line style="stroke:#000000;stroke-width:1.0;stroke-dasharray:2.0,2.0;" x1="279.5" x2="748" y1="434.4844" y2="434.4844"/><text fill="#000000" font-family="sans-serif" font-size="11" font-weight="bold" lengthAdjust="spacing" textLength="116" x="284.5" y="444.6948">[to_identity == ""]</text><line style="stroke:#181818;stroke-width:1.0;" x1="321" x2="363" y1="469.4219" y2="469.4219"/><line style="stroke:#181818;stroke-width:1.0;" x1="363" x2="363" y1="469.4219" y2="482.4219"/><line style="stroke:#181818;stroke-width:1.0;" x1="322" x2="363" y1="482.4219" y2="482.4219"/><polygon fill="#181818" points="332,478.4219,322,482.4219,332,486.4219,328,482.4219" style="stroke:#181818;stroke-width:1.0;"/><text fill="#000000" font-family="sans-serif" font-size="13" lengthAdjust="spacing" textLength="98" x="328" y="464.356">use to_address</text><line style="stroke:#181818;stroke-width:1.0;" x1="321" x2="363" y1="518.5547" y2="518.5547"/><line style="stroke:#181818;stroke-width:1.0;" x1="363" x2="363" y1="518.5547" y2="531.5547"/><line style="stroke:#181818;stroke-width:1.0;" x1="322" x2="363" y1="531.5547" y2="531.5547"/><polygon fill="#181818" points="332,527.5547,322,531.5547,332,535.5547,328,531.5547" style="stroke:#181818;stroke-width:1.0;"/><text fill="#000000" font-family="sans-serif" font-size="13" lengthAdjust="spacing" textLength="266" x="328" y="513.4888">_updateBalance(from, to, token, amount)</text><path d="M269.5,546.5547 L333.5,546.5547 L333.5,553.6875 L323.5,563.6875 L269.5,563.6875 L269.5,546.5547 " fill="#EEEEEE" style="stroke:#000000;stroke-width:1.5;"/><rect fill="none" height="163.9297" style="stroke:#000000;stroke-width:1.5;" width="613.5" x="269.5" y="546.5547"/><text fill="#000000" font-family="sans-serif" font-size="13" font-weight="bold" lengthAdjust="spacing" textLength="19" x="284.5" y="559.6216">alt</text><text fill="#000000" font-family="sans-serif" font-size="11" font-weight="bold" lengthAdjust="spacing" textLength="197" x="348.5" y="558.7651">[isAddressStaker(msg.sender)]</text><path d="M279.5,570.6875 L343.5,570.6875 L343.5,577.8203 L333.5,587.8203 L279.5,587.8203 L279.5,570.6875 " fill="#EEEEEE" style="stroke:#000000;stroke-width:1.5;"/><rect fill="none" height="82.5313" style="stroke:#000000;stroke-width:1.5;" width="593.5" x="279.5" y="570.6875"/><text fill="#000000" font-family="sans-serif" font-size="13" font-weight="bold" lengthAdjust="spacing" textLength="19" x="294.5" y="583.7544">alt</text><text fill="#000000" font-family="sans-serif" font-size="11" font-weight="bold" lengthAdjust="spacing" textLength="105" x="358.5" y="582.8979">[priorityFee &gt; 0]</text><line style="stroke:#181818;stroke-width:1.0;" x1="321" x2="363" y1="620.5859" y2="620.5859"/><line style="stroke:#181818;stroke-width:1.0;" x1="363" x2="363" y1="620.5859" y2="633.5859"/><line style="stroke:#181818;stroke-width:1.0;" x1="322" x2="363" y1="633.5859" y2="633.5859"/><polygon fill="#181818" points="332,629.5859,322,633.5859,332,637.5859,328,633.5859" style="stroke:#181818;stroke-width:1.0;"/><text fill="#000000" font-family="sans-serif" font-size="13" lengthAdjust="spacing" textLength="346" x="328" y="615.52">_updateBalance(from, msg.sender, token, priorityFee)</text><path d="M686,592.8203 L686,647.8203 L853,647.8203 L853,602.8203 L843,592.8203 L686,592.8203 " fill="#FEFFDD" style="stroke:#181818;stroke-width:0.5;"/><path d="M843,592.8203 L843,602.8203 L853,602.8203 L843,592.8203 " fill="#FEFFDD" style="stroke:#181818;stroke-width:0.5;"/><text fill="#000000" font-family="sans-serif" font-size="13" lengthAdjust="spacing" textLength="146" x="692" y="609.8872">Priority fee incentivizes</text><text fill="#000000" font-family="sans-serif" font-size="13" lengthAdjust="spacing" textLength="141" x="692" y="625.02">stakers to process txs</text><text fill="#000000" font-family="sans-serif" font-size="13" lengthAdjust="spacing" textLength="133" x="692" y="640.1528">Paid ONLY to stakers</text><line style="stroke:#181818;stroke-width:1.0;" x1="321" x2="363" y1="685.418" y2="685.418"/><line style="stroke:#181818;stroke-width:1.0;" x1="363" x2="363" y1="685.418" y2="698.418"/><line style="stroke:#181818;stroke-width:1.0;" x1="322" x2="363" y1="698.418" y2="698.418"/><polygon fill="#181818" points="332,694.418,322,698.418,332,702.418,328,698.418" style="stroke:#181818;stroke-width:1.0;"/><text fill="#000000" font-family="sans-serif" font-size="13" lengthAdjust="spacing" textLength="181" x="328" y="680.3521">_giveReward(msg.sender, 1)</text><path d="M521,665.2188 L521,705.2188 L646,705.2188 L646,675.2188 L636,665.2188 L521,665.2188 " fill="#FEFFDD" style="stroke:#181818;stroke-width:0.5;"/><path d="M636,665.2188 L636,675.2188 L646,675.2188 L636,665.2188 " fill="#FEFFDD" style="stroke:#181818;stroke-width:0.5;"/><text fill="#000000" font-family="sans-serif" font-size="13" lengthAdjust="spacing" textLength="104" x="527" y="682.2856">Staker reward in</text><text fill="#000000" font-family="sans-serif" font-size="13" lengthAdjust="spacing" textLength="95" x="527" y="697.4185">Principal Token</text><path d="M279.5,724.4844 L343.5,724.4844 L343.5,731.6172 L333.5,741.6172 L279.5,741.6172 L279.5,724.4844 " fill="#EEEEEE" style="stroke:#000000;stroke-width:1.5;"/><rect fill="none" height="132.4688" style="stroke:#000000;stroke-width:1.5;" width="485.5" x="279.5" y="724.4844"/><text fill="#000000" font-family="sans-serif" font-size="13" font-weight="bold" lengthAdjust="spacing" textLength="19" x="294.5" y="737.5513">alt</text><text fill="#000000" font-family="sans-serif" font-size="11" font-weight="bold" lengthAdjust="spacing" textLength="136" x="358.5" y="736.6948">[priorityFlag == true]</text><line style="stroke:#181818;stroke-width:1.0;" x1="321" x2="363" y1="766.8164" y2="766.8164"/><line style="stroke:#181818;stroke-width:1.0;" x1="363" x2="363" y1="766.8164" y2="779.8164"/><line style="stroke:#181818;stroke-width:1.0;" x1="322" x2="363" y1="779.8164" y2="779.8164"/><polygon fill="#181818" points="332,775.8164,322,779.8164,332,783.8164,328,779.8164" style="stroke:#181818;stroke-width:1.0;"/><text fill="#000000" font-family="sans-serif" font-size="13" lengthAdjust="spacing" textLength="245" x="328" y="761.7505">asyncUsedNonce[from][nonce] = true</text><path d="M585,746.6172 L585,786.6172 L745,786.6172 L745,756.6172 L735,746.6172 L585,746.6172 " fill="#FEFFDD" style="stroke:#181818;stroke-width:0.5;"/><path d="M735,746.6172 L735,756.6172 L745,756.6172 L735,746.6172 " fill="#FEFFDD" style="stroke:#181818;stroke-width:0.5;"/><text fill="#000000" font-family="sans-serif" font-size="13" lengthAdjust="spacing" textLength="139" x="591" y="763.6841">Async: Custom nonce</text><text fill="#000000" font-family="sans-serif" font-size="13" lengthAdjust="spacing" textLength="133" x="591" y="778.8169">for parallel execution</text><line style="stroke:#000000;stroke-width:1.0;stroke-dasharray:2.0,2.0;" x1="279.5" x2="765" y1="792.8828" y2="792.8828"/><text fill="#000000" font-family="sans-serif" font-size="11" font-weight="bold" lengthAdjust="spacing" textLength="142" x="284.5" y="803.0933">[priorityFlag == false]</text><line style="stroke:#181818;stroke-width:1.0;" x1="321" x2="363" y1="831.8867" y2="831.8867"/><line style="stroke:#181818;stroke-width:1.0;" x1="363" x2="363" y1="831.8867" y2="844.8867"/><line style="stroke:#181818;stroke-width:1.0;" x1="322" x2="363" y1="844.8867" y2="844.8867"/><polygon fill="#181818" points="332,840.8867,322,844.8867,332,848.8867,328,844.8867" style="stroke:#181818;stroke-width:1.0;"/><text fill="#000000" font-family="sans-serif" font-size="13" lengthAdjust="spacing" textLength="195" x="328" y="826.8208">nextSyncUsedNonce[from]++</text><path d="M535,811.6875 L535,851.6875 L706,851.6875 L706,821.6875 L696,811.6875 L535,811.6875 " fill="#FEFFDD" style="stroke:#181818;stroke-width:0.5;"/><path d="M696,811.6875 L696,821.6875 L706,821.6875 L696,811.6875 " fill="#FEFFDD" style="stroke:#181818;stroke-width:0.5;"/><text fill="#000000" font-family="sans-serif" font-size="13" lengthAdjust="spacing" textLength="150" x="541" y="828.7544">Sync: Sequential nonce</text><text fill="#000000" font-family="sans-serif" font-size="13" lengthAdjust="spacing" textLength="137" x="541" y="843.8872">for ordered execution</text><polygon fill="#181818" points="72,881.0859,62,885.0859,72,889.0859,68,885.0859" style="stroke:#181818;stroke-width:1.0;"/><line style="stroke:#181818;stroke-width:1.0;stroke-dasharray:2.0,2.0;" x1="66" x2="315" y1="885.0859" y2="885.0859"/><text fill="#000000" font-family="sans-serif" font-size="13" lengthAdjust="spacing" textLength="226" x="78" y="880.02">Transaction completed successfully</text><!--SRC=[RPJRRXen48Rlzoccv0QKqD9UeX29K4YHSb988rKXYXnx5gnuxQtjNRAj-bozxvDrR8uR44BosZFZR_wPyQdpbSApH1XUPAWz_4u0pXb_lR2cq69WbB6mc4kFoP_azDFAEc7SqtvZ9DqSBT3okqFR0EQWe0KaERDUSfapYjWOFZnSnJCiomoEEftXy4kdRdBDCfoWBIN7Q9bf5mm7m-4mIRpq2k6MLN1lcNPqjpGQHieifhhvZULvHOT-3csO59oZSscXOFY6l0Y6hKWhI-OnmYMHi7ssfEb2pghclx_XrzeQraYJ-BNrAD7AjBgYYzWC9tAcKOoC9Rwcem_c2ukjH1iAO-LixibZS3U-7m_wbrsOh2r0QguAWMwgcLA18ifFgf0K7Ytj7yEGBXn_1MyWjrZI-LHpQvnhypcJ6YpcYbHXtbF17EMfF1p5OW76zAam7th0XB04s-oqgBO01xC1cKBcPXyTQa7oz7gR2D6dbarVaVGE12gSiI1nTwf3_I6axqxWfV1WjAgcskN8PIfHR7auq-2AbqpwXAwgCNlpB0KbANqLi1kD6cveYJNjn5l9VL-B2_Gt2uts9XslF9ixKPRv1iVsDb-B9B-6aYafrj8ag1mUmkZjOQoYK1C5mur_IEMToNEH2-gbSwQOvjXChSbEo2VyNr6V0Cjemdoh9e5q_MN4YMUlQ9lRaYnpsJ7DhJIM64U8S0QTU7m0z235Dko6PYTSQnEhLlRRbGMa6BitI5JANw63NQHroqOrOGJ1lz7-BIEDRwulVuIJbT5IJTBh4EnCbdY72sP5SvVnSsk_2vSAKJc3DV7GRPQew45HS1zoskklJOgApK9blItm40LpbURKqEBQK9QFGRAdHntMJx3ZLP-9u4E3NZXlCeZ6KvrIluU1LWhLQW9eMchDzfufPNHu24hZcv_iSnqV7r0ceapmPn5AH7Biu1XBWcxcCT9iMvTkYuzZj_RGSfFbYfuaGNExVbvLbIG2QyzbyXy0]--></g></svg>