<?xml version="1.0" encoding="us-ascii" standalone="no"?><svg xmlns="http://www.w3.org/2000/svg" xmlns:xlink="http://www.w3.org/1999/xlink" contentStyleType="text/css" height="1413px" preserveAspectRatio="none" style="width:879px;height:1413px;background:#FFFFFF;" version="1.1" viewBox="0 0 879 1413" width="879px" zoomAndPan="magnify"><defs/><g><text fill="#000000" font-family="sans-serif" font-size="14" font-weight="bold" lengthAdjust="spacing" textLength="168" x="356.5" y="27.9951">Pay Transaction Flow</text><text fill="#000000" font-family="sans-serif" font-size="14" font-weight="bold" lengthAdjust="spacing" textLength="227" x="327" y="44.292">(Failed Path - Error Handling)</text><rect fill="#00EE20" height="1156.5391" style="stroke:#181818;stroke-width:1.0;" width="10" x="367" y="166.0234"/><rect fill="#F5B7B1" height="1092.4063" style="stroke:#000000;stroke-width:1.5;" width="862" x="10" y="223.1563"/><rect fill="#FFFFFF" height="1046.1406" style="stroke:none;stroke-width:1.0;" width="862" x="10" y="269.4219"/><rect fill="#FFFFFF" height="119.5313" style="stroke:#000000;stroke-width:1.5;" width="567" x="40" y="291.2266"/><rect fill="#F5B7B1" height="46.2656" style="stroke:#000000;stroke-width:1.5;" width="358.5" x="50" y="357.4922"/><rect fill="#FFFFFF" height="155.7969" style="stroke:#000000;stroke-width:1.5;" width="597" x="40" y="424.7578"/><rect fill="#F5B7B1" height="82.5313" style="stroke:#000000;stroke-width:1.5;" width="535" x="50" y="491.0234"/><rect fill="#FFFFFF" height="207.4063" style="stroke:#000000;stroke-width:1.5;" width="774" x="40" y="594.5547"/><rect fill="#F5B7B1" height="90.2031" style="stroke:#000000;stroke-width:1.5;" width="754" x="50" y="647.8203"/><rect fill="#FFFFFF" height="43.9375" style="stroke:none;stroke-width:1.0;" width="754" x="50" y="694.0859"/><rect fill="#FFFFFF" height="56.9375" style="stroke:none;stroke-width:1.0;" width="774" x="40" y="745.0234"/><rect fill="#F5B7B1" height="427.2031" style="stroke:#000000;stroke-width:1.5;" width="742" x="20" y="881.3594"/><rect fill="#FFFFFF" height="380.9375" style="stroke:none;stroke-width:1.0;" width="742" x="20" y="927.625"/><rect fill="#FFFFFF" height="192.7969" style="stroke:#000000;stroke-width:1.5;" width="722" x="30" y="949.4297"/><rect fill="#FFFFFF" height="119.5313" style="stroke:#000000;stroke-width:1.5;" width="702" x="40" y="973.5625"/><rect fill="#F5B7B1" height="46.2656" style="stroke:#000000;stroke-width:1.5;" width="358.5" x="50" y="1039.8281"/><rect fill="#FFFFFF" height="116.2031" style="stroke:#000000;stroke-width:1.5;" width="305.5" x="335.5" y="1156.2266"/><rect fill="#FFFFFF" height="56.9375" style="stroke:none;stroke-width:1.0;" width="305.5" x="335.5" y="1215.4922"/><line style="stroke:#181818;stroke-width:0.5;stroke-dasharray:5.0,5.0;" x1="111" x2="111" y1="134.8906" y2="1332.5625"/><line style="stroke:#181818;stroke-width:0.5;stroke-dasharray:5.0,5.0;" x1="371.5" x2="371.5" y1="134.8906" y2="1332.5625"/><line style="stroke:#181818;stroke-width:0.5;stroke-dasharray:5.0,5.0;" x1="742" x2="742" y1="134.8906" y2="1332.5625"/><text fill="#000000" font-family="sans-serif" font-size="14" lengthAdjust="spacing" textLength="96" x="60" y="131.5889">Fisher or User</text><ellipse cx="111" cy="67.0938" fill="#E2E2F0" rx="8" ry="8" style="stroke:#181818;stroke-width:0.5;"/><path d="M111,75.0938 L111,102.0938 M98,83.0938 L124,83.0938 M111,102.0938 L98,117.0938 M111,102.0938 L124,117.0938 " fill="none" style="stroke:#181818;stroke-width:0.5;"/><text fill="#000000" font-family="sans-serif" font-size="14" lengthAdjust="spacing" textLength="96" x="60" y="1344.5576">Fisher or User</text><ellipse cx="111" cy="1356.3594" fill="#E2E2F0" rx="8" ry="8" style="stroke:#181818;stroke-width:0.5;"/><path d="M111,1364.3594 L111,1391.3594 M98,1372.3594 L124,1372.3594 M111,1391.3594 L98,1406.3594 M111,1391.3594 L124,1406.3594 " fill="none" style="stroke:#181818;stroke-width:0.5;"/><rect fill="#00EE20" height="30.2969" rx="2.5" ry="2.5" style="stroke:#181818;stroke-width:0.5;" width="53" x="345.5" y="103.5938"/><text fill="#000000" font-family="sans-serif" font-size="14" lengthAdjust="spacing" textLength="39" x="352.5" y="123.5889">EVVM</text><rect fill="#00EE20" height="30.2969" rx="2.5" ry="2.5" style="stroke:#181818;stroke-width:0.5;" width="53" x="345.5" y="1331.5625"/><text fill="#000000" font-family="sans-serif" font-size="14" lengthAdjust="spacing" textLength="39" x="352.5" y="1351.5576">EVVM</text><rect fill="#00CEEE" height="30.2969" rx="2.5" ry="2.5" style="stroke:#181818;stroke-width:0.5;" width="104" x="690" y="103.5938"/><text fill="#000000" font-family="sans-serif" font-size="14" lengthAdjust="spacing" textLength="90" x="697" y="123.5889">NameService</text><rect fill="#00CEEE" height="30.2969" rx="2.5" ry="2.5" style="stroke:#181818;stroke-width:0.5;" width="104" x="690" y="1331.5625"/><text fill="#000000" font-family="sans-serif" font-size="14" lengthAdjust="spacing" textLength="90" x="697" y="1351.5576">NameService</text><rect fill="#00EE20" height="1156.5391" style="stroke:#181818;stroke-width:1.0;" width="10" x="367" y="166.0234"/><polygon fill="#181818" points="355,162.0234,365,166.0234,355,170.0234,359,166.0234" style="stroke:#181818;stroke-width:1.0;"/><line style="stroke:#181818;stroke-width:1.0;" x1="111" x2="361" y1="166.0234" y2="166.0234"/><text fill="#000000" font-family="sans-serif" font-size="13" lengthAdjust="spacing" textLength="45" x="118" y="160.9575">pay(&#183;&#183;&#183;)</text><line style="stroke:#181818;stroke-width:1.0;" x1="377" x2="419" y1="195.1563" y2="195.1563"/><line style="stroke:#181818;stroke-width:1.0;" x1="419" x2="419" y1="195.1563" y2="208.1563"/><line style="stroke:#181818;stroke-width:1.0;" x1="378" x2="419" y1="208.1563" y2="208.1563"/><polygon fill="#181818" points="388,204.1563,378,208.1563,388,212.1563,384,208.1563" style="stroke:#181818;stroke-width:1.0;"/><text fill="#000000" font-family="sans-serif" font-size="13" lengthAdjust="spacing" textLength="248" x="384" y="190.0903">verifyMessageSignedForPay(signature)</text><path d="M10,223.1563 L74,223.1563 L74,230.2891 L64,240.2891 L10,240.2891 L10,223.1563 " fill="#EEEEEE" style="stroke:#000000;stroke-width:1.5;"/><rect fill="none" height="1092.4063" style="stroke:#000000;stroke-width:1.5;" width="862" x="10" y="223.1563"/><text fill="#000000" font-family="sans-serif" font-size="13" font-weight="bold" lengthAdjust="spacing" textLength="19" x="25" y="236.2231">alt</text><text fill="#000000" font-family="sans-serif" font-size="11" font-weight="bold" lengthAdjust="spacing" textLength="134" x="89" y="235.3667">[Signature is invalid]</text><line style="stroke:#181818;stroke-width:2.0;" x1="118" x2="128" y1="256.4219" y2="266.4219"/><line style="stroke:#181818;stroke-width:2.0;" x1="118" x2="128" y1="266.4219" y2="256.4219"/><line style="stroke:#181818;stroke-width:1.0;" x1="123" x2="366" y1="261.4219" y2="261.4219"/><text fill="#000000" font-family="sans-serif" font-size="13" lengthAdjust="spacing" textLength="176" x="128" y="256.356">Revert with InvalidSignature</text><line style="stroke:#000000;stroke-width:1.0;stroke-dasharray:2.0,2.0;" x1="10" x2="872" y1="270.4219" y2="270.4219"/><text fill="#000000" font-family="sans-serif" font-size="11" font-weight="bold" lengthAdjust="spacing" textLength="122" x="15" y="280.6323">[Signature is valid]</text><path d="M40,291.2266 L104,291.2266 L104,298.3594 L94,308.3594 L40,308.3594 L40,291.2266 " fill="#EEEEEE" style="stroke:#000000;stroke-width:1.5;"/><rect fill="none" height="119.5313" style="stroke:#000000;stroke-width:1.5;" width="567" x="40" y="291.2266"/><text fill="#000000" font-family="sans-serif" font-size="13" font-weight="bold" lengthAdjust="spacing" textLength="19" x="55" y="304.2935">alt</text><text fill="#000000" font-family="sans-serif" font-size="11" font-weight="bold" lengthAdjust="spacing" textLength="157" x="119" y="303.437">[executor != address(0)]</text><line style="stroke:#181818;stroke-width:1.0;" x1="377" x2="419" y1="329.4922" y2="329.4922"/><line style="stroke:#181818;stroke-width:1.0;" x1="419" x2="419" y1="329.4922" y2="342.4922"/><line style="stroke:#181818;stroke-width:1.0;" x1="378" x2="419" y1="342.4922" y2="342.4922"/><polygon fill="#181818" points="388,338.4922,378,342.4922,388,346.4922,384,342.4922" style="stroke:#181818;stroke-width:1.0;"/><text fill="#000000" font-family="sans-serif" font-size="13" lengthAdjust="spacing" textLength="211" x="384" y="324.4263">verify if msg.sender == executor</text><path d="M50,357.4922 L114,357.4922 L114,364.625 L104,374.625 L50,374.625 L50,357.4922 " fill="#EEEEEE" style="stroke:#000000;stroke-width:1.5;"/><rect fill="none" height="46.2656" style="stroke:#000000;stroke-width:1.5;" width="358.5" x="50" y="357.4922"/><text fill="#000000" font-family="sans-serif" font-size="13" font-weight="bold" lengthAdjust="spacing" textLength="19" x="65" y="370.5591">alt</text><text fill="#000000" font-family="sans-serif" font-size="11" font-weight="bold" lengthAdjust="spacing" textLength="162" x="129" y="369.7026">[msg.sender != executor]</text><line style="stroke:#181818;stroke-width:2.0;" x1="118" x2="128" y1="390.7578" y2="400.7578"/><line style="stroke:#181818;stroke-width:2.0;" x1="118" x2="128" y1="400.7578" y2="390.7578"/><line style="stroke:#181818;stroke-width:1.0;" x1="123" x2="366" y1="395.7578" y2="395.7578"/><text fill="#000000" font-family="sans-serif" font-size="13" lengthAdjust="spacing" textLength="232" x="128" y="390.6919">Revert with SenderIsNotTheExecutor</text><path d="M40,424.7578 L104,424.7578 L104,431.8906 L94,441.8906 L40,441.8906 L40,424.7578 " fill="#EEEEEE" style="stroke:#000000;stroke-width:1.5;"/><rect fill="none" height="155.7969" style="stroke:#000000;stroke-width:1.5;" width="597" x="40" y="424.7578"/><text fill="#000000" font-family="sans-serif" font-size="13" font-weight="bold" lengthAdjust="spacing" textLength="19" x="55" y="437.8247">alt</text><text fill="#000000" font-family="sans-serif" font-size="11" font-weight="bold" lengthAdjust="spacing" textLength="136" x="119" y="436.9683">[priorityFlag == true]</text><line style="stroke:#181818;stroke-width:1.0;" x1="377" x2="419" y1="463.0234" y2="463.0234"/><line style="stroke:#181818;stroke-width:1.0;" x1="419" x2="419" y1="463.0234" y2="476.0234"/><line style="stroke:#181818;stroke-width:1.0;" x1="378" x2="419" y1="476.0234" y2="476.0234"/><polygon fill="#181818" points="388,472.0234,378,476.0234,388,480.0234,384,476.0234" style="stroke:#181818;stroke-width:1.0;"/><text fill="#000000" font-family="sans-serif" font-size="13" lengthAdjust="spacing" textLength="241" x="384" y="457.9575">check asyncUsedNonce[from][nonce]</text><path d="M50,491.0234 L114,491.0234 L114,498.1563 L104,508.1563 L50,508.1563 L50,491.0234 " fill="#EEEEEE" style="stroke:#000000;stroke-width:1.5;"/><rect fill="none" height="82.5313" style="stroke:#000000;stroke-width:1.5;" width="535" x="50" y="491.0234"/><text fill="#000000" font-family="sans-serif" font-size="13" font-weight="bold" lengthAdjust="spacing" textLength="19" x="65" y="504.0903">alt</text><text fill="#000000" font-family="sans-serif" font-size="11" font-weight="bold" lengthAdjust="spacing" textLength="259" x="129" y="503.2339">[asyncUsedNonce[from][nonce] == true]</text><line style="stroke:#181818;stroke-width:2.0;" x1="118" x2="128" y1="542.4219" y2="552.4219"/><line style="stroke:#181818;stroke-width:2.0;" x1="118" x2="128" y1="552.4219" y2="542.4219"/><line style="stroke:#181818;stroke-width:1.0;" x1="123" x2="366" y1="547.4219" y2="547.4219"/><text fill="#000000" font-family="sans-serif" font-size="13" lengthAdjust="spacing" textLength="193" x="128" y="542.356">Revert with InvalidAsyncNonce</text><path d="M382,513.1563 L382,568.1563 L575,568.1563 L575,523.1563 L565,513.1563 L382,513.1563 " fill="#FEFFDD" style="stroke:#181818;stroke-width:0.5;"/><path d="M565,513.1563 L565,523.1563 L575,523.1563 L565,513.1563 " fill="#FEFFDD" style="stroke:#181818;stroke-width:0.5;"/><text fill="#000000" font-family="sans-serif" font-size="13" lengthAdjust="spacing" textLength="154" x="388" y="530.2231">Prevents replay attacks:</text><text fill="#000000" font-family="sans-serif" font-size="13" lengthAdjust="spacing" textLength="172" x="388" y="545.356">Each async nonce can only</text><text fill="#000000" font-family="sans-serif" font-size="13" lengthAdjust="spacing" textLength="86" x="388" y="560.4888">be used once</text><path d="M40,594.5547 L104,594.5547 L104,601.6875 L94,611.6875 L40,611.6875 L40,594.5547 " fill="#EEEEEE" style="stroke:#000000;stroke-width:1.5;"/><rect fill="none" height="207.4063" style="stroke:#000000;stroke-width:1.5;" width="774" x="40" y="594.5547"/><text fill="#000000" font-family="sans-serif" font-size="13" font-weight="bold" lengthAdjust="spacing" textLength="19" x="55" y="607.6216">alt</text><text fill="#000000" font-family="sans-serif" font-size="11" font-weight="bold" lengthAdjust="spacing" textLength="112" x="119" y="606.7651">[to_identity != ""]</text><polygon fill="#181818" points="730,628.8203,740,632.8203,730,636.8203,734,632.8203" style="stroke:#181818;stroke-width:1.0;"/><line style="stroke:#181818;stroke-width:1.0;" x1="377" x2="736" y1="632.8203" y2="632.8203"/><text fill="#000000" font-family="sans-serif" font-size="13" lengthAdjust="spacing" textLength="294" x="384" y="627.7544">verifyStrictAndGetOwnerOfIdentity(to_identity)</text><path d="M50,647.8203 L114,647.8203 L114,654.9531 L104,664.9531 L50,664.9531 L50,647.8203 " fill="#EEEEEE" style="stroke:#000000;stroke-width:1.5;"/><rect fill="none" height="90.2031" style="stroke:#000000;stroke-width:1.5;" width="754" x="50" y="647.8203"/><text fill="#000000" font-family="sans-serif" font-size="13" font-weight="bold" lengthAdjust="spacing" textLength="19" x="65" y="660.8872">alt</text><text fill="#000000" font-family="sans-serif" font-size="11" font-weight="bold" lengthAdjust="spacing" textLength="189" x="129" y="660.0308">[Identity not found or invalid]</text><line style="stroke:#181818;stroke-width:2.0;" x1="118" x2="128" y1="681.0859" y2="691.0859"/><line style="stroke:#181818;stroke-width:2.0;" x1="118" x2="128" y1="691.0859" y2="681.0859"/><line style="stroke:#181818;stroke-width:1.0;" x1="123" x2="366" y1="686.0859" y2="686.0859"/><text fill="#000000" font-family="sans-serif" font-size="13" lengthAdjust="spacing" textLength="165" x="128" y="681.02">Revert from NameService</text><line style="stroke:#000000;stroke-width:1.0;stroke-dasharray:2.0,2.0;" x1="50" x2="804" y1="695.0859" y2="695.0859"/><text fill="#000000" font-family="sans-serif" font-size="11" font-weight="bold" lengthAdjust="spacing" textLength="201" x="55" y="705.2964">[Identity resolved successfully]</text><polygon fill="#181818" points="388,726.0234,378,730.0234,388,734.0234,384,730.0234" style="stroke:#181818;stroke-width:1.0;"/><line style="stroke:#181818;stroke-width:1.0;stroke-dasharray:2.0,2.0;" x1="382" x2="741" y1="730.0234" y2="730.0234"/><text fill="#000000" font-family="sans-serif" font-size="13" lengthAdjust="spacing" textLength="127" x="394" y="724.9575">return valid address</text><line style="stroke:#000000;stroke-width:1.0;stroke-dasharray:2.0,2.0;" x1="40" x2="814" y1="746.0234" y2="746.0234"/><text fill="#000000" font-family="sans-serif" font-size="11" font-weight="bold" lengthAdjust="spacing" textLength="116" x="45" y="756.2339">[to_identity == ""]</text><line style="stroke:#181818;stroke-width:1.0;" x1="377" x2="419" y1="780.9609" y2="780.9609"/><line style="stroke:#181818;stroke-width:1.0;" x1="419" x2="419" y1="780.9609" y2="793.9609"/><line style="stroke:#181818;stroke-width:1.0;" x1="378" x2="419" y1="793.9609" y2="793.9609"/><polygon fill="#181818" points="388,789.9609,378,793.9609,388,797.9609,384,793.9609" style="stroke:#181818;stroke-width:1.0;"/><text fill="#000000" font-family="sans-serif" font-size="13" lengthAdjust="spacing" textLength="98" x="384" y="775.895">use to_address</text><line style="stroke:#181818;stroke-width:1.0;" x1="377" x2="419" y1="841.7266" y2="841.7266"/><line style="stroke:#181818;stroke-width:1.0;" x1="419" x2="419" y1="841.7266" y2="854.7266"/><line style="stroke:#181818;stroke-width:1.0;" x1="378" x2="419" y1="854.7266" y2="854.7266"/><polygon fill="#181818" points="388,850.7266,378,854.7266,388,858.7266,384,854.7266" style="stroke:#181818;stroke-width:1.0;"/><text fill="#000000" font-family="sans-serif" font-size="13" lengthAdjust="spacing" textLength="266" x="384" y="836.6606">_updateBalance(from, to, token, amount)</text><path d="M662,813.9609 L662,868.9609 L852,868.9609 L852,823.9609 L842,813.9609 L662,813.9609 " fill="#FEFFDD" style="stroke:#181818;stroke-width:0.5;"/><path d="M842,813.9609 L842,823.9609 L852,823.9609 L842,813.9609 " fill="#FEFFDD" style="stroke:#181818;stroke-width:0.5;"/><text fill="#000000" font-family="sans-serif" font-size="13" lengthAdjust="spacing" textLength="73" x="668" y="831.0278">Must verify:</text><text fill="#000000" font-family="sans-serif" font-size="13" lengthAdjust="spacing" textLength="169" x="668" y="846.1606">balances[from][token] &gt;=</text><text fill="#000000" font-family="sans-serif" font-size="13" lengthAdjust="spacing" textLength="136" x="668" y="861.2935">amount + priorityFee</text><path d="M20,881.3594 L84,881.3594 L84,888.4922 L74,898.4922 L20,898.4922 L20,881.3594 " fill="#EEEEEE" style="stroke:#000000;stroke-width:1.5;"/><rect fill="none" height="427.2031" style="stroke:#000000;stroke-width:1.5;" width="742" x="20" y="881.3594"/><text fill="#000000" font-family="sans-serif" font-size="13" font-weight="bold" lengthAdjust="spacing" textLength="19" x="35" y="894.4263">alt</text><text fill="#000000" font-family="sans-serif" font-size="11" font-weight="bold" lengthAdjust="spacing" textLength="340" x="99" y="893.5698">[Update balance fails (insufficient balance or other)]</text><line style="stroke:#181818;stroke-width:2.0;" x1="118" x2="128" y1="914.625" y2="924.625"/><line style="stroke:#181818;stroke-width:2.0;" x1="118" x2="128" y1="924.625" y2="914.625"/><line style="stroke:#181818;stroke-width:1.0;" x1="123" x2="366" y1="919.625" y2="919.625"/><text fill="#000000" font-family="sans-serif" font-size="13" lengthAdjust="spacing" textLength="209" x="128" y="914.5591">Revert with UpdateBalanceFailed</text><line style="stroke:#000000;stroke-width:1.0;stroke-dasharray:2.0,2.0;" x1="20" x2="762" y1="928.625" y2="928.625"/><text fill="#000000" font-family="sans-serif" font-size="11" font-weight="bold" lengthAdjust="spacing" textLength="175" x="25" y="938.8354">[Update balance succeeds]</text><path d="M30,949.4297 L94,949.4297 L94,956.5625 L84,966.5625 L30,966.5625 L30,949.4297 " fill="#EEEEEE" style="stroke:#000000;stroke-width:1.5;"/><rect fill="none" height="192.7969" style="stroke:#000000;stroke-width:1.5;" width="722" x="30" y="949.4297"/><text fill="#000000" font-family="sans-serif" font-size="13" font-weight="bold" lengthAdjust="spacing" textLength="19" x="45" y="962.4966">alt</text><text fill="#000000" font-family="sans-serif" font-size="11" font-weight="bold" lengthAdjust="spacing" textLength="197" x="109" y="961.6401">[isAddressStaker(msg.sender)]</text><path d="M40,973.5625 L104,973.5625 L104,980.6953 L94,990.6953 L40,990.6953 L40,973.5625 " fill="#EEEEEE" style="stroke:#000000;stroke-width:1.5;"/><rect fill="none" height="119.5313" style="stroke:#000000;stroke-width:1.5;" width="702" x="40" y="973.5625"/><text fill="#000000" font-family="sans-serif" font-size="13" font-weight="bold" lengthAdjust="spacing" textLength="19" x="55" y="986.6294">alt</text><text fill="#000000" font-family="sans-serif" font-size="11" font-weight="bold" lengthAdjust="spacing" textLength="105" x="119" y="985.7729">[priorityFee &gt; 0]</text><line style="stroke:#181818;stroke-width:1.0;" x1="377" x2="419" y1="1011.8281" y2="1011.8281"/><line style="stroke:#181818;stroke-width:1.0;" x1="419" x2="419" y1="1011.8281" y2="1024.8281"/><line style="stroke:#181818;stroke-width:1.0;" x1="378" x2="419" y1="1024.8281" y2="1024.8281"/><polygon fill="#181818" points="388,1020.8281,378,1024.8281,388,1028.8281,384,1024.8281" style="stroke:#181818;stroke-width:1.0;"/><text fill="#000000" font-family="sans-serif" font-size="13" lengthAdjust="spacing" textLength="346" x="384" y="1006.7622">_updateBalance(from, msg.sender, token, priorityFee)</text><path d="M50,1039.8281 L114,1039.8281 L114,1046.9609 L104,1056.9609 L50,1056.9609 L50,1039.8281 " fill="#EEEEEE" style="stroke:#000000;stroke-width:1.5;"/><rect fill="none" height="46.2656" style="stroke:#000000;stroke-width:1.5;" width="358.5" x="50" y="1039.8281"/><text fill="#000000" font-family="sans-serif" font-size="13" font-weight="bold" lengthAdjust="spacing" textLength="19" x="65" y="1052.895">alt</text><text fill="#000000" font-family="sans-serif" font-size="11" font-weight="bold" lengthAdjust="spacing" textLength="162" x="129" y="1052.0386">[Priority fee update fails]</text><line style="stroke:#181818;stroke-width:2.0;" x1="118" x2="128" y1="1073.0938" y2="1083.0938"/><line style="stroke:#181818;stroke-width:2.0;" x1="118" x2="128" y1="1083.0938" y2="1073.0938"/><line style="stroke:#181818;stroke-width:1.0;" x1="123" x2="366" y1="1078.0938" y2="1078.0938"/><text fill="#000000" font-family="sans-serif" font-size="13" lengthAdjust="spacing" textLength="209" x="128" y="1073.0278">Revert with UpdateBalanceFailed</text><line style="stroke:#181818;stroke-width:1.0;" x1="377" x2="419" y1="1121.2266" y2="1121.2266"/><line style="stroke:#181818;stroke-width:1.0;" x1="419" x2="419" y1="1121.2266" y2="1134.2266"/><line style="stroke:#181818;stroke-width:1.0;" x1="378" x2="419" y1="1134.2266" y2="1134.2266"/><polygon fill="#181818" points="388,1130.2266,378,1134.2266,388,1138.2266,384,1134.2266" style="stroke:#181818;stroke-width:1.0;"/><text fill="#000000" font-family="sans-serif" font-size="13" lengthAdjust="spacing" textLength="181" x="384" y="1116.1606">_giveReward(msg.sender, 1)</text><path d="M335.5,1156.2266 L399.5,1156.2266 L399.5,1163.3594 L389.5,1173.3594 L335.5,1173.3594 L335.5,1156.2266 " fill="#EEEEEE" style="stroke:#000000;stroke-width:1.5;"/><rect fill="none" height="116.2031" style="stroke:#000000;stroke-width:1.5;" width="305.5" x="335.5" y="1156.2266"/><text fill="#000000" font-family="sans-serif" font-size="13" font-weight="bold" lengthAdjust="spacing" textLength="19" x="350.5" y="1169.2935">alt</text><text fill="#000000" font-family="sans-serif" font-size="11" font-weight="bold" lengthAdjust="spacing" textLength="136" x="414.5" y="1168.437">[priorityFlag == true]</text><line style="stroke:#181818;stroke-width:1.0;" x1="377" x2="419" y1="1194.4922" y2="1194.4922"/><line style="stroke:#181818;stroke-width:1.0;" x1="419" x2="419" y1="1194.4922" y2="1207.4922"/><line style="stroke:#181818;stroke-width:1.0;" x1="378" x2="419" y1="1207.4922" y2="1207.4922"/><polygon fill="#181818" points="388,1203.4922,378,1207.4922,388,1211.4922,384,1207.4922" style="stroke:#181818;stroke-width:1.0;"/><text fill="#000000" font-family="sans-serif" font-size="13" lengthAdjust="spacing" textLength="245" x="384" y="1189.4263">asyncUsedNonce[from][nonce] = true</text><line style="stroke:#000000;stroke-width:1.0;stroke-dasharray:2.0,2.0;" x1="335.5" x2="641" y1="1216.4922" y2="1216.4922"/><text fill="#000000" font-family="sans-serif" font-size="11" font-weight="bold" lengthAdjust="spacing" textLength="142" x="340.5" y="1226.7026">[priorityFlag == false]</text><line style="stroke:#181818;stroke-width:1.0;" x1="377" x2="419" y1="1251.4297" y2="1251.4297"/><line style="stroke:#181818;stroke-width:1.0;" x1="419" x2="419" y1="1251.4297" y2="1264.4297"/><line style="stroke:#181818;stroke-width:1.0;" x1="378" x2="419" y1="1264.4297" y2="1264.4297"/><polygon fill="#181818" points="388,1260.4297,378,1264.4297,388,1268.4297,384,1264.4297" style="stroke:#181818;stroke-width:1.0;"/><text fill="#000000" font-family="sans-serif" font-size="13" lengthAdjust="spacing" textLength="195" x="384" y="1246.3638">nextSyncUsedNonce[from]++</text><polygon fill="#181818" points="122,1296.5625,112,1300.5625,122,1304.5625,118,1300.5625" style="stroke:#181818;stroke-width:1.0;"/><line style="stroke:#181818;stroke-width:1.0;stroke-dasharray:2.0,2.0;" x1="116" x2="366" y1="1300.5625" y2="1300.5625"/><text fill="#000000" font-family="sans-serif" font-size="13" lengthAdjust="spacing" textLength="226" x="128" y="1295.4966">Transaction completed successfully</text><!--SRC=[dLRRRjD047tVhvYcBuvA84L2I1MfL2gdzA4NDPGNMg6jTvoikjcDTjT98yHtySwNCUlDnNPCG2YAOdlFd9avSua_EBzKUCg4oOefQW_V6S17dZrVM5DeSMwKiR2OI8_i1_lmPeLcFFFql3EKRe8MwFBUeUq0Tr3G1R0PjrvcSiQ9iPD- -N9Ldk5yFeN3VZzDt_Rha6i-nH7QkSomH4wr2y3pD4qPyz8hX5k-XC-MQqU-fT4mL6Rne9CXbme5dVe9z22rbeBvnBLGKe-xZ9NXz4wZwnEOyMNowsVuT4CESiuzriDYvTtMOevMviihT8wFSIJ76iNGM0ecSNJ3VM6Ht73buJ1_z_J-wHX6w-SW7KWzvqeA4XKYO-ybIdG2TqZS7XQI8h-Ci8rfYMUe7C9XgNwTDNAMeD9pXE0BPaMeoy40k12MOaxwtHArTTz836GEKpT-xL0BYcemsB1ixAgvLQ07BT2_P3agBI_TjV6V9vWshUcKhN-RkSsiD5RwvL3nSOZIsmB_b5asmUoPkcYfCsfBSMrqXbzpQwQFNtMuVcnDRGz-n-6_LVCiC9PiDKDjA1yhnnDFPhUMxBHtO76cgCEvzpHyxkH1fpoRnA2WZ08ohi5ejNpGJnYy2gXHxrFFcszIa1iICDIjqzcHBWpSkYT6tihCdsbnWVvceT7Uv9ShwwJ2r6sLSOqCQK8UTaXO3zKns2zWq1qgws0RQMKODawenusQanIko3BgzxnGQbdp4XBhRNl38isGZWEq7f9T2Ikkgj8DMgLRCLCQ0Lpbt9IY0VrMp0GjdezSSQfW4b9-HRRX-upw5V0fwUQZlhLkkIgSNnM9EkGfshjLhvR6Zt0wUD2H08wsOuF8cfMwBuE05Glaj4WT95Ax8izfCOS_W_KPLT1uslJDPTBQ_VVLvE9wZkkiAMqZWBA4A1ohzrN4IdSMXHrv_emssIwYRgtSRIi34KwXNuFzQr6sRZR5gT1sTpYh-jwkW91J094yYhnZzP-2rinrOxXqsx1jantBETxXWbkHL7CyxjQ6WUsJjMqJjxZQkrSRUxpI74qtEQV3VNuqllZHhgkZe_QCeZMPhmIllbfaPZfJwDlMIk0eUGJMtX_ORm00]--></g></svg>