<?xml version="1.0" encoding="us-ascii" standalone="no"?><svg xmlns="http://www.w3.org/2000/svg" xmlns:xlink="http://www.w3.org/1999/xlink" contentStyleType="text/css" height="1892px" preserveAspectRatio="none" style="width:963px;height:1892px;background:#FFFFFF;" version="1.1" viewBox="0 0 963 1892" width="963px" zoomAndPan="magnify"><defs/><g><text fill="#000000" font-family="sans-serif" font-size="14" font-weight="bold" lengthAdjust="spacing" textLength="234" x="360.5" y="27.9951">Pay Multiple Transaction Flow</text><text fill="#000000" font-family="sans-serif" font-size="14" font-weight="bold" lengthAdjust="spacing" textLength="227" x="364" y="44.292">(Failed Path - Error Handling)</text><rect fill="#00EE20" height="1628.0781" style="stroke:#181818;stroke-width:1.0;" width="10" x="479" y="166.0234"/><rect fill="#F5B7B1" height="1383.2813" style="stroke:#000000;stroke-width:1.5;" width="936" x="10" y="266.2891"/><rect fill="#FFFFFF" height="1300.75" style="stroke:none;stroke-width:1.0;" width="936" x="10" y="348.8203"/><rect fill="#FFFFFF" height="162.7969" style="stroke:#000000;stroke-width:1.5;" width="410.5" x="437.5" y="370.625"/><rect fill="#F5B7B1" height="89.5313" style="stroke:#000000;stroke-width:1.5;" width="390.5" x="447.5" y="436.8906"/><rect fill="#F5B7B1" height="1053.0156" style="stroke:#000000;stroke-width:1.5;" width="528.5" x="407.5" y="589.5547"/><rect fill="#FFFFFF" height="963.4844" style="stroke:none;stroke-width:1.0;" width="528.5" x="407.5" y="679.0859"/><rect fill="#FFFFFF" height="250.6719" style="stroke:#000000;stroke-width:1.5;" width="488.5" x="437.5" y="743.0234"/><rect fill="#F5B7B1" height="133.4688" style="stroke:#000000;stroke-width:1.5;" width="468.5" x="447.5" y="796.2891"/><rect fill="#FFFFFF" height="43.9375" style="stroke:none;stroke-width:1.0;" width="468.5" x="447.5" y="885.8203"/><rect fill="#FFFFFF" height="56.9375" style="stroke:none;stroke-width:1.0;" width="488.5" x="437.5" y="936.7578"/><rect fill="#F5B7B1" height="585.7422" style="stroke:#000000;stroke-width:1.5;" width="456.5" x="417.5" y="1049.8281"/><rect fill="#FFFFFF" height="496.2109" style="stroke:none;stroke-width:1.0;" width="456.5" x="417.5" y="1139.3594"/><rect fill="#F5B7B1" height="425.2734" style="stroke:#000000;stroke-width:1.5;" width="436.5" x="427.5" y="1203.2969"/><rect fill="#FFFFFF" height="335.7422" style="stroke:none;stroke-width:1.0;" width="436.5" x="427.5" y="1292.8281"/><rect fill="#FFFFFF" height="306.9375" style="stroke:#000000;stroke-width:1.5;" width="416.5" x="437.5" y="1314.6328"/><rect fill="#F5B7B1" height="161.6016" style="stroke:#000000;stroke-width:1.5;" width="246" x="447.5" y="1380.8984"/><rect fill="#FFFFFF" height="72.0703" style="stroke:none;stroke-width:1.0;" width="246" x="447.5" y="1470.4297"/><rect fill="#FFFFFF" height="72.0703" style="stroke:none;stroke-width:1.0;" width="416.5" x="437.5" y="1549.5"/><rect fill="#FFFFFF" height="59.2656" style="stroke:#000000;stroke-width:1.5;" width="485" x="447.5" y="1706.7031"/><line style="stroke:#181818;stroke-width:0.5;stroke-dasharray:5.0,5.0;" x1="71" x2="71" y1="134.8906" y2="1812.1016"/><line style="stroke:#181818;stroke-width:0.5;stroke-dasharray:5.0,5.0;" x1="483.5" x2="483.5" y1="134.8906" y2="1812.1016"/><line style="stroke:#181818;stroke-width:0.5;stroke-dasharray:5.0,5.0;" x1="854" x2="854" y1="134.8906" y2="1812.1016"/><text fill="#000000" font-family="sans-serif" font-size="14" lengthAdjust="spacing" textLength="96" x="20" y="131.5889">Fisher or User</text><ellipse cx="71" cy="67.0938" fill="#E2E2F0" rx="8" ry="8" style="stroke:#181818;stroke-width:0.5;"/><path d="M71,75.0938 L71,102.0938 M58,83.0938 L84,83.0938 M71,102.0938 L58,117.0938 M71,102.0938 L84,117.0938 " fill="none" style="stroke:#181818;stroke-width:0.5;"/><text fill="#000000" font-family="sans-serif" font-size="14" lengthAdjust="spacing" textLength="96" x="20" y="1824.0967">Fisher or User</text><ellipse cx="71" cy="1835.8984" fill="#E2E2F0" rx="8" ry="8" style="stroke:#181818;stroke-width:0.5;"/><path d="M71,1843.8984 L71,1870.8984 M58,1851.8984 L84,1851.8984 M71,1870.8984 L58,1885.8984 M71,1870.8984 L84,1885.8984 " fill="none" style="stroke:#181818;stroke-width:0.5;"/><rect fill="#00EE20" height="30.2969" rx="2.5" ry="2.5" style="stroke:#181818;stroke-width:0.5;" width="53" x="457.5" y="103.5938"/><text fill="#000000" font-family="sans-serif" font-size="14" lengthAdjust="spacing" textLength="39" x="464.5" y="123.5889">EVVM</text><rect fill="#00EE20" height="30.2969" rx="2.5" ry="2.5" style="stroke:#181818;stroke-width:0.5;" width="53" x="457.5" y="1811.1016"/><text fill="#000000" font-family="sans-serif" font-size="14" lengthAdjust="spacing" textLength="39" x="464.5" y="1831.0967">EVVM</text><rect fill="#00CEEE" height="30.2969" rx="2.5" ry="2.5" style="stroke:#181818;stroke-width:0.5;" width="104" x="802" y="103.5938"/><text fill="#000000" font-family="sans-serif" font-size="14" lengthAdjust="spacing" textLength="90" x="809" y="123.5889">NameService</text><rect fill="#00CEEE" height="30.2969" rx="2.5" ry="2.5" style="stroke:#181818;stroke-width:0.5;" width="104" x="802" y="1811.1016"/><text fill="#000000" font-family="sans-serif" font-size="14" lengthAdjust="spacing" textLength="90" x="809" y="1831.0967">NameService</text><rect fill="#00EE20" height="1628.0781" style="stroke:#181818;stroke-width:1.0;" width="10" x="479" y="166.0234"/><polygon fill="#181818" points="467,162.0234,477,166.0234,467,170.0234,471,166.0234" style="stroke:#181818;stroke-width:1.0;"/><line style="stroke:#181818;stroke-width:1.0;" x1="71" x2="473" y1="166.0234" y2="166.0234"/><text fill="#000000" font-family="sans-serif" font-size="13" lengthAdjust="spacing" textLength="146" x="78" y="160.9575">payMultiple(PayData[])</text><rect fill="#EEEEEE" height="3" style="stroke:#EEEEEE;stroke-width:1.0;" width="956" x="0" y="194.5898"/><line style="stroke:#000000;stroke-width:1.0;" x1="0" x2="956" y1="194.5898" y2="194.5898"/><line style="stroke:#000000;stroke-width:1.0;" x1="0" x2="956" y1="197.5898" y2="197.5898"/><rect fill="#EEEEEE" height="23.1328" style="stroke:#000000;stroke-width:2.0;" width="131" x="412.5" y="184.0234"/><text fill="#000000" font-family="sans-serif" font-size="13" font-weight="bold" lengthAdjust="spacing" textLength="112" x="418.5" y="200.0903">Begin For Loop</text><line style="stroke:#181818;stroke-width:1.0;" x1="489" x2="531" y1="238.2891" y2="238.2891"/><line style="stroke:#181818;stroke-width:1.0;" x1="531" x2="531" y1="238.2891" y2="251.2891"/><line style="stroke:#181818;stroke-width:1.0;" x1="490" x2="531" y1="251.2891" y2="251.2891"/><polygon fill="#181818" points="500,247.2891,490,251.2891,500,255.2891,496,251.2891" style="stroke:#181818;stroke-width:1.0;"/><text fill="#000000" font-family="sans-serif" font-size="13" lengthAdjust="spacing" textLength="255" x="496" y="233.2231">verifyMessageSignedForPay(PayData[i])</text><path d="M10,266.2891 L74,266.2891 L74,273.4219 L64,283.4219 L10,283.4219 L10,266.2891 " fill="#EEEEEE" style="stroke:#000000;stroke-width:1.5;"/><rect fill="none" height="1383.2813" style="stroke:#000000;stroke-width:1.5;" width="936" x="10" y="266.2891"/><text fill="#000000" font-family="sans-serif" font-size="13" font-weight="bold" lengthAdjust="spacing" textLength="19" x="25" y="279.356">alt</text><text fill="#000000" font-family="sans-serif" font-size="11" font-weight="bold" lengthAdjust="spacing" textLength="222" x="89" y="278.4995">[Signature of PayData[i] is invalid]</text><line style="stroke:#181818;stroke-width:2.0;" x1="78" x2="88" y1="317.6875" y2="327.6875"/><line style="stroke:#181818;stroke-width:2.0;" x1="78" x2="88" y1="327.6875" y2="317.6875"/><line style="stroke:#181818;stroke-width:1.0;" x1="83" x2="478" y1="322.6875" y2="322.6875"/><text fill="#000000" font-family="sans-serif" font-size="13" lengthAdjust="spacing" textLength="176" x="88" y="317.6216">Revert with InvalidSignature</text><path d="M494,288.4219 L494,343.4219 L666,343.4219 L666,298.4219 L656,288.4219 L494,288.4219 " fill="#FEFFDD" style="stroke:#181818;stroke-width:0.5;"/><path d="M656,288.4219 L656,298.4219 L666,298.4219 L656,288.4219 " fill="#FEFFDD" style="stroke:#181818;stroke-width:0.5;"/><text fill="#000000" font-family="sans-serif" font-size="13" lengthAdjust="spacing" textLength="151" x="500" y="305.4888">FATAL: Invalid signature</text><text fill="#000000" font-family="sans-serif" font-size="13" lengthAdjust="spacing" textLength="126" x="500" y="320.6216">reverts entire batch</text><text fill="#000000" font-family="sans-serif" font-size="13" lengthAdjust="spacing" textLength="130" x="500" y="335.7544">NO partial execution</text><line style="stroke:#000000;stroke-width:1.0;stroke-dasharray:2.0,2.0;" x1="10" x2="946" y1="349.8203" y2="349.8203"/><text fill="#000000" font-family="sans-serif" font-size="11" font-weight="bold" lengthAdjust="spacing" textLength="122" x="15" y="360.0308">[Signature is valid]</text><path d="M437.5,370.625 L501.5,370.625 L501.5,377.7578 L491.5,387.7578 L437.5,387.7578 L437.5,370.625 " fill="#EEEEEE" style="stroke:#000000;stroke-width:1.5;"/><rect fill="none" height="162.7969" style="stroke:#000000;stroke-width:1.5;" width="410.5" x="437.5" y="370.625"/><text fill="#000000" font-family="sans-serif" font-size="13" font-weight="bold" lengthAdjust="spacing" textLength="19" x="452.5" y="383.6919">alt</text><text fill="#000000" font-family="sans-serif" font-size="11" font-weight="bold" lengthAdjust="spacing" textLength="228" x="516.5" y="382.8354">[payData[i].executor != address(0)]</text><line style="stroke:#181818;stroke-width:1.0;" x1="489" x2="531" y1="408.8906" y2="408.8906"/><line style="stroke:#181818;stroke-width:1.0;" x1="531" x2="531" y1="408.8906" y2="421.8906"/><line style="stroke:#181818;stroke-width:1.0;" x1="490" x2="531" y1="421.8906" y2="421.8906"/><polygon fill="#181818" points="500,417.8906,490,421.8906,500,425.8906,496,421.8906" style="stroke:#181818;stroke-width:1.0;"/><text fill="#000000" font-family="sans-serif" font-size="13" lengthAdjust="spacing" textLength="282" x="496" y="403.8247">verify if msg.sender == payData[i].executor</text><path d="M447.5,436.8906 L511.5,436.8906 L511.5,444.0234 L501.5,454.0234 L447.5,454.0234 L447.5,436.8906 " fill="#EEEEEE" style="stroke:#000000;stroke-width:1.5;"/><rect fill="none" height="89.5313" style="stroke:#000000;stroke-width:1.5;" width="390.5" x="447.5" y="436.8906"/><text fill="#000000" font-family="sans-serif" font-size="13" font-weight="bold" lengthAdjust="spacing" textLength="19" x="462.5" y="449.9575">alt</text><text fill="#000000" font-family="sans-serif" font-size="11" font-weight="bold" lengthAdjust="spacing" textLength="233" x="526.5" y="449.1011">[msg.sender != payData[i].executor]</text><line style="stroke:#181818;stroke-width:1.0;" x1="489" x2="531" y1="505.4219" y2="505.4219"/><line style="stroke:#181818;stroke-width:1.0;" x1="531" x2="531" y1="505.4219" y2="518.4219"/><line style="stroke:#181818;stroke-width:1.0;" x1="490" x2="531" y1="518.4219" y2="518.4219"/><polygon fill="#181818" points="500,514.4219,490,518.4219,500,522.4219,496,518.4219" style="stroke:#181818;stroke-width:1.0;"/><text fill="#000000" font-family="sans-serif" font-size="13" lengthAdjust="spacing" textLength="137" x="496" y="470.0903">failedTransactions++</text><text fill="#000000" font-family="sans-serif" font-size="13" lengthAdjust="spacing" textLength="105" x="496" y="485.2231">results[i] = false</text><text fill="#000000" font-family="sans-serif" font-size="13" lengthAdjust="spacing" textLength="161" x="496" y="500.356">continue to next iteration</text><path d="M669,462.5234 L669,517.5234 L818,517.5234 L818,472.5234 L808,462.5234 L669,462.5234 " fill="#FEFFDD" style="stroke:#181818;stroke-width:0.5;"/><path d="M808,462.5234 L808,472.5234 L818,472.5234 L808,462.5234 " fill="#FEFFDD" style="stroke:#181818;stroke-width:0.5;"/><text fill="#000000" font-family="sans-serif" font-size="13" lengthAdjust="spacing" textLength="105" x="675" y="479.5903">Non-fatal errors:</text><text fill="#000000" font-family="sans-serif" font-size="13" lengthAdjust="spacing" textLength="116" x="675" y="494.7231">Mark as failed and</text><text fill="#000000" font-family="sans-serif" font-size="13" lengthAdjust="spacing" textLength="128" x="675" y="509.856">continue processing</text><line style="stroke:#181818;stroke-width:1.0;" x1="489" x2="531" y1="561.5547" y2="561.5547"/><line style="stroke:#181818;stroke-width:1.0;" x1="531" x2="531" y1="561.5547" y2="574.5547"/><line style="stroke:#181818;stroke-width:1.0;" x1="490" x2="531" y1="574.5547" y2="574.5547"/><polygon fill="#181818" points="500,570.5547,490,574.5547,500,578.5547,496,574.5547" style="stroke:#181818;stroke-width:1.0;"/><text fill="#000000" font-family="sans-serif" font-size="13" lengthAdjust="spacing" textLength="214" x="496" y="556.4888">verify nonce based on priorityFlag</text><path d="M407.5,589.5547 L471.5,589.5547 L471.5,596.6875 L461.5,606.6875 L407.5,606.6875 L407.5,589.5547 " fill="#EEEEEE" style="stroke:#000000;stroke-width:1.5;"/><rect fill="none" height="1053.0156" style="stroke:#000000;stroke-width:1.5;" width="528.5" x="407.5" y="589.5547"/><text fill="#000000" font-family="sans-serif" font-size="13" font-weight="bold" lengthAdjust="spacing" textLength="19" x="422.5" y="602.6216">alt</text><text fill="#000000" font-family="sans-serif" font-size="11" font-weight="bold" lengthAdjust="spacing" textLength="215" x="486.5" y="601.7651">[nonce is invalid or already used]</text><line style="stroke:#181818;stroke-width:1.0;" x1="489" x2="531" y1="658.0859" y2="658.0859"/><line style="stroke:#181818;stroke-width:1.0;" x1="531" x2="531" y1="658.0859" y2="671.0859"/><line style="stroke:#181818;stroke-width:1.0;" x1="490" x2="531" y1="671.0859" y2="671.0859"/><polygon fill="#181818" points="500,667.0859,490,671.0859,500,675.0859,496,671.0859" style="stroke:#181818;stroke-width:1.0;"/><text fill="#000000" font-family="sans-serif" font-size="13" lengthAdjust="spacing" textLength="137" x="496" y="622.7544">failedTransactions++</text><text fill="#000000" font-family="sans-serif" font-size="13" lengthAdjust="spacing" textLength="105" x="496" y="637.8872">results[i] = false</text><text fill="#000000" font-family="sans-serif" font-size="13" lengthAdjust="spacing" textLength="161" x="496" y="653.02">continue to next iteration</text><line style="stroke:#000000;stroke-width:1.0;stroke-dasharray:2.0,2.0;" x1="407.5" x2="936" y1="680.0859" y2="680.0859"/><text fill="#000000" font-family="sans-serif" font-size="11" font-weight="bold" lengthAdjust="spacing" textLength="99" x="412.5" y="690.2964">[nonce is valid]</text><line style="stroke:#181818;stroke-width:1.0;" x1="489" x2="531" y1="715.0234" y2="715.0234"/><line style="stroke:#181818;stroke-width:1.0;" x1="531" x2="531" y1="715.0234" y2="728.0234"/><line style="stroke:#181818;stroke-width:1.0;" x1="490" x2="531" y1="728.0234" y2="728.0234"/><polygon fill="#181818" points="500,724.0234,490,728.0234,500,732.0234,496,728.0234" style="stroke:#181818;stroke-width:1.0;"/><text fill="#000000" font-family="sans-serif" font-size="13" lengthAdjust="spacing" textLength="148" x="496" y="709.9575">update nonce mapping</text><path d="M437.5,743.0234 L501.5,743.0234 L501.5,750.1563 L491.5,760.1563 L437.5,760.1563 L437.5,743.0234 " fill="#EEEEEE" style="stroke:#000000;stroke-width:1.5;"/><rect fill="none" height="250.6719" style="stroke:#000000;stroke-width:1.5;" width="488.5" x="437.5" y="743.0234"/><text fill="#000000" font-family="sans-serif" font-size="13" font-weight="bold" lengthAdjust="spacing" textLength="19" x="452.5" y="756.0903">alt</text><text fill="#000000" font-family="sans-serif" font-size="11" font-weight="bold" lengthAdjust="spacing" textLength="112" x="516.5" y="755.2339">[to_identity != ""]</text><polygon fill="#181818" points="842,777.2891,852,781.2891,842,785.2891,846,781.2891" style="stroke:#181818;stroke-width:1.0;"/><line style="stroke:#181818;stroke-width:1.0;" x1="489" x2="848" y1="781.2891" y2="781.2891"/><text fill="#000000" font-family="sans-serif" font-size="13" lengthAdjust="spacing" textLength="294" x="496" y="776.2231">verifyStrictAndGetOwnerOfIdentity(to_identity)</text><path d="M447.5,796.2891 L511.5,796.2891 L511.5,803.4219 L501.5,813.4219 L447.5,813.4219 L447.5,796.2891 " fill="#EEEEEE" style="stroke:#000000;stroke-width:1.5;"/><rect fill="none" height="133.4688" style="stroke:#000000;stroke-width:1.5;" width="468.5" x="447.5" y="796.2891"/><text fill="#000000" font-family="sans-serif" font-size="13" font-weight="bold" lengthAdjust="spacing" textLength="19" x="462.5" y="809.356">alt</text><text fill="#000000" font-family="sans-serif" font-size="11" font-weight="bold" lengthAdjust="spacing" textLength="189" x="526.5" y="808.4995">[Identity not found or invalid]</text><line style="stroke:#181818;stroke-width:1.0;" x1="489" x2="531" y1="864.8203" y2="864.8203"/><line style="stroke:#181818;stroke-width:1.0;" x1="531" x2="531" y1="864.8203" y2="877.8203"/><line style="stroke:#181818;stroke-width:1.0;" x1="490" x2="531" y1="877.8203" y2="877.8203"/><polygon fill="#181818" points="500,873.8203,490,877.8203,500,881.8203,496,877.8203" style="stroke:#181818;stroke-width:1.0;"/><text fill="#000000" font-family="sans-serif" font-size="13" lengthAdjust="spacing" textLength="137" x="496" y="829.4888">failedTransactions++</text><text fill="#000000" font-family="sans-serif" font-size="13" lengthAdjust="spacing" textLength="105" x="496" y="844.6216">results[i] = false</text><text fill="#000000" font-family="sans-serif" font-size="13" lengthAdjust="spacing" textLength="161" x="496" y="859.7544">continue to next iteration</text><line style="stroke:#000000;stroke-width:1.0;stroke-dasharray:2.0,2.0;" x1="447.5" x2="916" y1="886.8203" y2="886.8203"/><text fill="#000000" font-family="sans-serif" font-size="11" font-weight="bold" lengthAdjust="spacing" textLength="201" x="452.5" y="897.0308">[Identity resolved successfully]</text><polygon fill="#181818" points="500,917.7578,490,921.7578,500,925.7578,496,921.7578" style="stroke:#181818;stroke-width:1.0;"/><line style="stroke:#181818;stroke-width:1.0;stroke-dasharray:2.0,2.0;" x1="494" x2="853" y1="921.7578" y2="921.7578"/><text fill="#000000" font-family="sans-serif" font-size="13" lengthAdjust="spacing" textLength="127" x="506" y="916.6919">return valid address</text><line style="stroke:#000000;stroke-width:1.0;stroke-dasharray:2.0,2.0;" x1="437.5" x2="926" y1="937.7578" y2="937.7578"/><text fill="#000000" font-family="sans-serif" font-size="11" font-weight="bold" lengthAdjust="spacing" textLength="116" x="442.5" y="947.9683">[to_identity == ""]</text><line style="stroke:#181818;stroke-width:1.0;" x1="489" x2="531" y1="972.6953" y2="972.6953"/><line style="stroke:#181818;stroke-width:1.0;" x1="531" x2="531" y1="972.6953" y2="985.6953"/><line style="stroke:#181818;stroke-width:1.0;" x1="490" x2="531" y1="985.6953" y2="985.6953"/><polygon fill="#181818" points="500,981.6953,490,985.6953,500,989.6953,496,985.6953" style="stroke:#181818;stroke-width:1.0;"/><text fill="#000000" font-family="sans-serif" font-size="13" lengthAdjust="spacing" textLength="98" x="496" y="967.6294">use to_address</text><line style="stroke:#181818;stroke-width:1.0;" x1="489" x2="531" y1="1021.8281" y2="1021.8281"/><line style="stroke:#181818;stroke-width:1.0;" x1="531" x2="531" y1="1021.8281" y2="1034.8281"/><line style="stroke:#181818;stroke-width:1.0;" x1="490" x2="531" y1="1034.8281" y2="1034.8281"/><polygon fill="#181818" points="500,1030.8281,490,1034.8281,500,1038.8281,496,1034.8281" style="stroke:#181818;stroke-width:1.0;"/><text fill="#000000" font-family="sans-serif" font-size="13" lengthAdjust="spacing" textLength="238" x="496" y="1016.7622">verify balance (amount + priorityFee)</text><path d="M417.5,1049.8281 L481.5,1049.8281 L481.5,1056.9609 L471.5,1066.9609 L417.5,1066.9609 L417.5,1049.8281 " fill="#EEEEEE" style="stroke:#000000;stroke-width:1.5;"/><rect fill="none" height="585.7422" style="stroke:#000000;stroke-width:1.5;" width="456.5" x="417.5" y="1049.8281"/><text fill="#000000" font-family="sans-serif" font-size="13" font-weight="bold" lengthAdjust="spacing" textLength="19" x="432.5" y="1062.895">alt</text><text fill="#000000" font-family="sans-serif" font-size="11" font-weight="bold" lengthAdjust="spacing" textLength="138" x="496.5" y="1062.0386">[not enough balance]</text><line style="stroke:#181818;stroke-width:1.0;" x1="489" x2="531" y1="1118.3594" y2="1118.3594"/><line style="stroke:#181818;stroke-width:1.0;" x1="531" x2="531" y1="1118.3594" y2="1131.3594"/><line style="stroke:#181818;stroke-width:1.0;" x1="490" x2="531" y1="1131.3594" y2="1131.3594"/><polygon fill="#181818" points="500,1127.3594,490,1131.3594,500,1135.3594,496,1131.3594" style="stroke:#181818;stroke-width:1.0;"/><text fill="#000000" font-family="sans-serif" font-size="13" lengthAdjust="spacing" textLength="137" x="496" y="1083.0278">failedTransactions++</text><text fill="#000000" font-family="sans-serif" font-size="13" lengthAdjust="spacing" textLength="105" x="496" y="1098.1606">results[i] = false</text><text fill="#000000" font-family="sans-serif" font-size="13" lengthAdjust="spacing" textLength="161" x="496" y="1113.2935">continue to next iteration</text><line style="stroke:#000000;stroke-width:1.0;stroke-dasharray:2.0,2.0;" x1="417.5" x2="874" y1="1140.3594" y2="1140.3594"/><text fill="#000000" font-family="sans-serif" font-size="11" font-weight="bold" lengthAdjust="spacing" textLength="140" x="422.5" y="1150.5698">[has enough balance]</text><line style="stroke:#181818;stroke-width:1.0;" x1="489" x2="531" y1="1175.2969" y2="1175.2969"/><line style="stroke:#181818;stroke-width:1.0;" x1="531" x2="531" y1="1175.2969" y2="1188.2969"/><line style="stroke:#181818;stroke-width:1.0;" x1="490" x2="531" y1="1188.2969" y2="1188.2969"/><polygon fill="#181818" points="500,1184.2969,490,1188.2969,500,1192.2969,496,1188.2969" style="stroke:#181818;stroke-width:1.0;"/><text fill="#000000" font-family="sans-serif" font-size="13" lengthAdjust="spacing" textLength="266" x="496" y="1170.231">_updateBalance(from, to, token, amount)</text><path d="M427.5,1203.2969 L491.5,1203.2969 L491.5,1210.4297 L481.5,1220.4297 L427.5,1220.4297 L427.5,1203.2969 " fill="#EEEEEE" style="stroke:#000000;stroke-width:1.5;"/><rect fill="none" height="425.2734" style="stroke:#000000;stroke-width:1.5;" width="436.5" x="427.5" y="1203.2969"/><text fill="#000000" font-family="sans-serif" font-size="13" font-weight="bold" lengthAdjust="spacing" textLength="19" x="442.5" y="1216.3638">alt</text><text fill="#000000" font-family="sans-serif" font-size="11" font-weight="bold" lengthAdjust="spacing" textLength="146" x="506.5" y="1215.5073">[payment update fails]</text><line style="stroke:#181818;stroke-width:1.0;" x1="489" x2="531" y1="1271.8281" y2="1271.8281"/><line style="stroke:#181818;stroke-width:1.0;" x1="531" x2="531" y1="1271.8281" y2="1284.8281"/><line style="stroke:#181818;stroke-width:1.0;" x1="490" x2="531" y1="1284.8281" y2="1284.8281"/><polygon fill="#181818" points="500,1280.8281,490,1284.8281,500,1288.8281,496,1284.8281" style="stroke:#181818;stroke-width:1.0;"/><text fill="#000000" font-family="sans-serif" font-size="13" lengthAdjust="spacing" textLength="137" x="496" y="1236.4966">failedTransactions++</text><text fill="#000000" font-family="sans-serif" font-size="13" lengthAdjust="spacing" textLength="105" x="496" y="1251.6294">results[i] = false</text><text fill="#000000" font-family="sans-serif" font-size="13" lengthAdjust="spacing" textLength="161" x="496" y="1266.7622">continue to next iteration</text><line style="stroke:#000000;stroke-width:1.0;stroke-dasharray:2.0,2.0;" x1="427.5" x2="864" y1="1293.8281" y2="1293.8281"/><text fill="#000000" font-family="sans-serif" font-size="11" font-weight="bold" lengthAdjust="spacing" textLength="178" x="432.5" y="1304.0386">[payment update succeeds]</text><path d="M437.5,1314.6328 L501.5,1314.6328 L501.5,1321.7656 L491.5,1331.7656 L437.5,1331.7656 L437.5,1314.6328 " fill="#EEEEEE" style="stroke:#000000;stroke-width:1.5;"/><rect fill="none" height="306.9375" style="stroke:#000000;stroke-width:1.5;" width="416.5" x="437.5" y="1314.6328"/><text fill="#000000" font-family="sans-serif" font-size="13" font-weight="bold" lengthAdjust="spacing" textLength="19" x="452.5" y="1327.6997">alt</text><text fill="#000000" font-family="sans-serif" font-size="11" font-weight="bold" lengthAdjust="spacing" textLength="320" x="516.5" y="1326.8433">[priorityFee &gt; 0 &amp;&amp; isAddressStaker(msg.sender)]</text><line style="stroke:#181818;stroke-width:1.0;" x1="489" x2="531" y1="1352.8984" y2="1352.8984"/><line style="stroke:#181818;stroke-width:1.0;" x1="531" x2="531" y1="1352.8984" y2="1365.8984"/><line style="stroke:#181818;stroke-width:1.0;" x1="490" x2="531" y1="1365.8984" y2="1365.8984"/><polygon fill="#181818" points="500,1361.8984,490,1365.8984,500,1369.8984,496,1365.8984" style="stroke:#181818;stroke-width:1.0;"/><text fill="#000000" font-family="sans-serif" font-size="13" lengthAdjust="spacing" textLength="346" x="496" y="1347.8325">_updateBalance(from, msg.sender, token, priorityFee)</text><path d="M447.5,1380.8984 L511.5,1380.8984 L511.5,1388.0313 L501.5,1398.0313 L447.5,1398.0313 L447.5,1380.8984 " fill="#EEEEEE" style="stroke:#000000;stroke-width:1.5;"/><rect fill="none" height="161.6016" style="stroke:#000000;stroke-width:1.5;" width="246" x="447.5" y="1380.8984"/><text fill="#000000" font-family="sans-serif" font-size="13" font-weight="bold" lengthAdjust="spacing" textLength="19" x="462.5" y="1393.9653">alt</text><text fill="#000000" font-family="sans-serif" font-size="11" font-weight="bold" lengthAdjust="spacing" textLength="162" x="526.5" y="1393.1089">[priority fee update fails]</text><line style="stroke:#181818;stroke-width:1.0;" x1="489" x2="531" y1="1449.4297" y2="1449.4297"/><line style="stroke:#181818;stroke-width:1.0;" x1="531" x2="531" y1="1449.4297" y2="1462.4297"/><line style="stroke:#181818;stroke-width:1.0;" x1="490" x2="531" y1="1462.4297" y2="1462.4297"/><polygon fill="#181818" points="500,1458.4297,490,1462.4297,500,1466.4297,496,1462.4297" style="stroke:#181818;stroke-width:1.0;"/><text fill="#000000" font-family="sans-serif" font-size="13" lengthAdjust="spacing" textLength="137" x="496" y="1414.0981">failedTransactions++</text><text fill="#000000" font-family="sans-serif" font-size="13" lengthAdjust="spacing" textLength="105" x="496" y="1429.231">results[i] = false</text><text fill="#000000" font-family="sans-serif" font-size="13" lengthAdjust="spacing" textLength="161" x="496" y="1444.3638">continue to next iteration</text><line style="stroke:#000000;stroke-width:1.0;stroke-dasharray:2.0,2.0;" x1="447.5" x2="693.5" y1="1471.4297" y2="1471.4297"/><text fill="#000000" font-family="sans-serif" font-size="11" font-weight="bold" lengthAdjust="spacing" textLength="145" x="452.5" y="1481.6401">[priority fee succeeds]</text><line style="stroke:#181818;stroke-width:1.0;" x1="489" x2="531" y1="1521.5" y2="1521.5"/><line style="stroke:#181818;stroke-width:1.0;" x1="531" x2="531" y1="1521.5" y2="1534.5"/><line style="stroke:#181818;stroke-width:1.0;" x1="490" x2="531" y1="1534.5" y2="1534.5"/><polygon fill="#181818" points="500,1530.5,490,1534.5,500,1538.5,496,1534.5" style="stroke:#181818;stroke-width:1.0;"/><text fill="#000000" font-family="sans-serif" font-size="13" lengthAdjust="spacing" textLength="169" x="496" y="1501.3013">successfulTransactions++</text><text fill="#000000" font-family="sans-serif" font-size="13" lengthAdjust="spacing" textLength="101" x="496" y="1516.4341">results[i] = true</text><line style="stroke:#000000;stroke-width:1.0;stroke-dasharray:2.0,2.0;" x1="437.5" x2="854" y1="1550.5" y2="1550.5"/><text fill="#000000" font-family="sans-serif" font-size="11" font-weight="bold" lengthAdjust="spacing" textLength="199" x="442.5" y="1560.7104">[no priority fee or not a staker]</text><line style="stroke:#181818;stroke-width:1.0;" x1="489" x2="531" y1="1600.5703" y2="1600.5703"/><line style="stroke:#181818;stroke-width:1.0;" x1="531" x2="531" y1="1600.5703" y2="1613.5703"/><line style="stroke:#181818;stroke-width:1.0;" x1="490" x2="531" y1="1613.5703" y2="1613.5703"/><polygon fill="#181818" points="500,1609.5703,490,1613.5703,500,1617.5703,496,1613.5703" style="stroke:#181818;stroke-width:1.0;"/><text fill="#000000" font-family="sans-serif" font-size="13" lengthAdjust="spacing" textLength="169" x="496" y="1580.3716">successfulTransactions++</text><text fill="#000000" font-family="sans-serif" font-size="13" lengthAdjust="spacing" textLength="101" x="496" y="1595.5044">results[i] = true</text><rect fill="#EEEEEE" height="3" style="stroke:#EEEEEE;stroke-width:1.0;" width="956" x="0" y="1677.1367"/><line style="stroke:#000000;stroke-width:1.0;" x1="0" x2="956" y1="1677.1367" y2="1677.1367"/><line style="stroke:#000000;stroke-width:1.0;" x1="0" x2="956" y1="1680.1367" y2="1680.1367"/><rect fill="#EEEEEE" height="23.1328" style="stroke:#000000;stroke-width:2.0;" width="117" x="419.5" y="1666.5703"/><text fill="#000000" font-family="sans-serif" font-size="13" font-weight="bold" lengthAdjust="spacing" textLength="98" x="425.5" y="1682.6372">End For Loop</text><path d="M447.5,1706.7031 L511.5,1706.7031 L511.5,1713.8359 L501.5,1723.8359 L447.5,1723.8359 L447.5,1706.7031 " fill="#EEEEEE" style="stroke:#000000;stroke-width:1.5;"/><rect fill="none" height="59.2656" style="stroke:#000000;stroke-width:1.5;" width="485" x="447.5" y="1706.7031"/><text fill="#000000" font-family="sans-serif" font-size="13" font-weight="bold" lengthAdjust="spacing" textLength="19" x="462.5" y="1719.77">alt</text><text fill="#000000" font-family="sans-serif" font-size="11" font-weight="bold" lengthAdjust="spacing" textLength="401" x="526.5" y="1718.9136">[isAddressStaker(msg.sender) &amp;&amp; successfulTransactions &gt; 0]</text><line style="stroke:#181818;stroke-width:1.0;" x1="489" x2="531" y1="1744.9688" y2="1744.9688"/><line style="stroke:#181818;stroke-width:1.0;" x1="531" x2="531" y1="1744.9688" y2="1757.9688"/><line style="stroke:#181818;stroke-width:1.0;" x1="490" x2="531" y1="1757.9688" y2="1757.9688"/><polygon fill="#181818" points="500,1753.9688,490,1757.9688,500,1761.9688,496,1757.9688" style="stroke:#181818;stroke-width:1.0;"/><text fill="#000000" font-family="sans-serif" font-size="13" lengthAdjust="spacing" textLength="320" x="496" y="1739.9028">_giveReward(msg.sender, successfulTransactions)</text><polygon fill="#181818" points="82,1790.1016,72,1794.1016,82,1798.1016,78,1794.1016" style="stroke:#181818;stroke-width:1.0;"/><line style="stroke:#181818;stroke-width:1.0;stroke-dasharray:2.0,2.0;" x1="76" x2="483" y1="1794.1016" y2="1794.1016"/><text fill="#000000" font-family="sans-serif" font-size="13" lengthAdjust="spacing" textLength="384" x="88" y="1789.0356">return (successfulTransactions, failedTransactions, results[])</text><!--SRC=[lLPXRzis4FtENt5rW496uiuRC0m8wW19PtS5ccHekdwPXu2HJZ8HcHH8oeunxB_lI5eIvSX1lpG10jZ9uxl7Tuz7lZTsL-85orHQhr5Q-9S1NF7qyQDMjSm-g59fsAw4HVOVU__J7iruQkdleuKmAzH07_yog4V03TJq0LZ5jHMfg3WnZkRVlbtx_-5ciuQJwNG-_sNQXzpmDTwXteWKFN8jZGD-cC_dZ5bXIuG_-GwkwzAAYhvyrLmQ4Y6KX4MfjakPBBWeCIEONS44vbgJgZ-up4eXYp5ZNjVa8cWuXuhl6hA4c7_dbl_zpzZjIsounRvKDfl15HQ2QX7fPwKgcCqOyvYESeDQvBjhD8ONU2SAYHd1YRmj8AW2uwM5a_pNXzyUVWQ7uhRM22g73WN2W90RNegCkW6XmEGfU7iENv1AMTWAskcd06k9F5ugse4MnSeIUd7vzVBpUGC4qo2NKdiUQekqWYGyS9kkblBc5dnhU0duX6djFFQi34k3SEB342adhK6f1_dT1KZLxkTT82Bltio0PvacZvBfs2_ezdTW98WSrgPuPr1cj6rgmG1XIn6x6grwy_AgWUAvZr6KBtDwwgmob1RZUZCZ21cnbAaYtsIDO1L8VB90czQyjQlvwJNZHib9Jch8MnTGSxwKrrm_kiY7ma29ZQWhhL8oYoBScINteP1xouVTaqgchgU6EEcGL5eeBUnkKVA27HeMi5tet87cfKQUxLpcClQZlGhxYEBLAkeEmK3zkifu2rxpgefzwaSZq5frBp8NTxjpqHYD1fFWXa_ZuvtL8hMNClk8zdOhKT_cd_OCISGsxX75tZPebmF8tKnrxiQd-pN367lSAYC-LMue9wPENThokYntpwGvLoQTD8rq-cNeJtEc-wLarBUeRDo3sT4UD1qsVi4XVvlzu_b_u2LtiKZucaotSDeT0SJnuDnm7KAfwcBLh7wrGJ7erCfTcT-jvpwSXgk0J7AjrcTKqVq-eZo3uCFneDASz0-0_Q5ospEldi-ZOJrGvvEAsNE1yVtJzHikO0fltz90kGn9khFy4NNItHJZPqpVQt77qLezcBIZlk_1a9FE5yr_hIOC-X-hFEh-4ONTN7bHfTKr3WkH0vEoTrlqzT60TMUPW_5jPZzOug6ytkIBRci_jMZapUaEw3qaez2-a50Nu66PBjv3Ju7xGcpm2swvpf8ufiCiuo0mS139_hMv7_J9yAApWVYTGUEPU-zcs7jKi_y1]--></g></svg>