<?xml version="1.0" encoding="us-ascii" standalone="no"?><svg xmlns="http://www.w3.org/2000/svg" xmlns:xlink="http://www.w3.org/1999/xlink" contentStyleType="text/css" height="1176px" preserveAspectRatio="none" style="width:948px;height:1176px;background:#FFFFFF;" version="1.1" viewBox="0 0 948 1176" width="948px" zoomAndPan="magnify"><defs/><g><text fill="#000000" font-family="sans-serif" font-size="14" font-weight="bold" lengthAdjust="spacing" textLength="317" x="316.5" y="27.9951">confirmServiceStaking Transaction Flow</text><text fill="#000000" font-family="sans-serif" font-size="14" font-weight="bold" lengthAdjust="spacing" textLength="227" x="361.5" y="44.292">(Failed Path - Error Handling)</text><rect fill="#FFD700" height="974" style="stroke:#181818;stroke-width:1.0;" width="10" x="491.5" y="121.0234"/><rect fill="#00EE20" height="29.1328" style="stroke:#181818;stroke-width:1.0;" width="10" x="869.5" y="553.2969"/><rect fill="#00EE20" height="29.1328" style="stroke:#181818;stroke-width:1.0;" width="10" x="869.5" y="611.5625"/><rect fill="#00EE20" height="29.1328" style="stroke:#181818;stroke-width:1.0;" width="10" x="869.5" y="1036.7578"/><rect fill="#F5B7B1" height="945.8672" style="stroke:#000000;stroke-width:1.5;" width="931" x="10" y="178.1563"/><rect fill="#FFFFFF" height="899.6016" style="stroke:none;stroke-width:1.0;" width="931" x="10" y="224.4219"/><rect fill="#F5B7B1" height="828.6641" style="stroke:#000000;stroke-width:1.5;" width="911" x="20" y="288.3594"/><rect fill="#FFFFFF" height="746.1328" style="stroke:none;stroke-width:1.0;" width="911" x="20" y="370.8906"/><rect fill="#F5B7B1" height="675.1953" style="stroke:#000000;stroke-width:1.5;" width="891" x="30" y="434.8281"/><rect fill="#FFFFFF" height="592.6641" style="stroke:none;stroke-width:1.0;" width="891" x="30" y="517.3594"/><rect fill="#F5B7B1" height="317.6641" style="stroke:#000000;stroke-width:1.5;" width="871" x="40" y="785.3594"/><rect fill="#FFFFFF" height="220" style="stroke:none;stroke-width:1.0;" width="871" x="40" y="883.0234"/><line style="stroke:#181818;stroke-width:0.5;stroke-dasharray:5.0,5.0;" x1="113" x2="113" y1="89.8906" y2="1141.0234"/><line style="stroke:#181818;stroke-width:0.5;stroke-dasharray:5.0,5.0;" x1="496" x2="496" y1="89.8906" y2="1141.0234"/><line style="stroke:#181818;stroke-width:0.5;stroke-dasharray:5.0,5.0;" x1="874" x2="874" y1="89.8906" y2="1141.0234"/><rect fill="#E2E2F0" height="30.2969" rx="2.5" ry="2.5" style="stroke:#181818;stroke-width:0.5;" width="127" x="50" y="58.5938"/><text fill="#000000" font-family="sans-serif" font-size="14" lengthAdjust="spacing" textLength="113" x="57" y="78.5889">Service Contract</text><rect fill="#E2E2F0" height="30.2969" rx="2.5" ry="2.5" style="stroke:#181818;stroke-width:0.5;" width="127" x="50" y="1140.0234"/><text fill="#000000" font-family="sans-serif" font-size="14" lengthAdjust="spacing" textLength="113" x="57" y="1160.0186">Service Contract</text><rect fill="#FFD700" height="30.2969" rx="2.5" ry="2.5" style="stroke:#181818;stroke-width:0.5;" width="65" x="464" y="58.5938"/><text fill="#000000" font-family="sans-serif" font-size="14" lengthAdjust="spacing" textLength="51" x="471" y="78.5889">Staking</text><rect fill="#FFD700" height="30.2969" rx="2.5" ry="2.5" style="stroke:#181818;stroke-width:0.5;" width="65" x="464" y="1140.0234"/><text fill="#000000" font-family="sans-serif" font-size="14" lengthAdjust="spacing" textLength="51" x="471" y="1160.0186">Staking</text><rect fill="#00EE20" height="30.2969" rx="2.5" ry="2.5" style="stroke:#181818;stroke-width:0.5;" width="53" x="848" y="58.5938"/><text fill="#000000" font-family="sans-serif" font-size="14" lengthAdjust="spacing" textLength="39" x="855" y="78.5889">EVVM</text><rect fill="#00EE20" height="30.2969" rx="2.5" ry="2.5" style="stroke:#181818;stroke-width:0.5;" width="53" x="848" y="1140.0234"/><text fill="#000000" font-family="sans-serif" font-size="14" lengthAdjust="spacing" textLength="39" x="855" y="1160.0186">EVVM</text><rect fill="#FFD700" height="974" style="stroke:#181818;stroke-width:1.0;" width="10" x="491.5" y="121.0234"/><rect fill="#00EE20" height="29.1328" style="stroke:#181818;stroke-width:1.0;" width="10" x="869.5" y="553.2969"/><rect fill="#00EE20" height="29.1328" style="stroke:#181818;stroke-width:1.0;" width="10" x="869.5" y="611.5625"/><rect fill="#00EE20" height="29.1328" style="stroke:#181818;stroke-width:1.0;" width="10" x="869.5" y="1036.7578"/><polygon fill="#181818" points="479.5,117.0234,489.5,121.0234,479.5,125.0234,483.5,121.0234" style="stroke:#181818;stroke-width:1.0;"/><line style="stroke:#181818;stroke-width:1.0;" x1="113.5" x2="485.5" y1="121.0234" y2="121.0234"/><text fill="#000000" font-family="sans-serif" font-size="13" lengthAdjust="spacing" textLength="153" x="120.5" y="115.9575">confirmServiceStaking()</text><line style="stroke:#181818;stroke-width:1.0;" x1="501.5" x2="543.5" y1="150.1563" y2="150.1563"/><line style="stroke:#181818;stroke-width:1.0;" x1="543.5" x2="543.5" y1="150.1563" y2="163.1563"/><line style="stroke:#181818;stroke-width:1.0;" x1="502.5" x2="543.5" y1="163.1563" y2="163.1563"/><polygon fill="#181818" points="512.5,159.1563,502.5,163.1563,512.5,167.1563,508.5,163.1563" style="stroke:#181818;stroke-width:1.0;"/><text fill="#000000" font-family="sans-serif" font-size="13" lengthAdjust="spacing" textLength="141" x="508.5" y="145.0903">onlyCA modifier check</text><path d="M10,178.1563 L74,178.1563 L74,185.2891 L64,195.2891 L10,195.2891 L10,178.1563 " fill="#EEEEEE" style="stroke:#000000;stroke-width:1.5;"/><rect fill="none" height="945.8672" style="stroke:#000000;stroke-width:1.5;" width="931" x="10" y="178.1563"/><text fill="#000000" font-family="sans-serif" font-size="13" font-weight="bold" lengthAdjust="spacing" textLength="19" x="25" y="191.2231">alt</text><text fill="#000000" font-family="sans-serif" font-size="11" font-weight="bold" lengthAdjust="spacing" textLength="157" x="89" y="190.3667">[Caller is not a contract]</text><line style="stroke:#181818;stroke-width:2.0;" x1="120.5" x2="130.5" y1="211.4219" y2="221.4219"/><line style="stroke:#181818;stroke-width:2.0;" x1="120.5" x2="130.5" y1="221.4219" y2="211.4219"/><line style="stroke:#181818;stroke-width:1.0;" x1="125.5" x2="490.5" y1="216.4219" y2="216.4219"/><text fill="#000000" font-family="sans-serif" font-size="13" lengthAdjust="spacing" textLength="215" x="130.5" y="211.356">Revert with AddressIsNotAService</text><line style="stroke:#000000;stroke-width:1.0;stroke-dasharray:2.0,2.0;" x1="10" x2="941" y1="225.4219" y2="225.4219"/><text fill="#000000" font-family="sans-serif" font-size="11" font-weight="bold" lengthAdjust="spacing" textLength="132" x="15" y="235.6323">[Caller is a contract]</text><line style="stroke:#181818;stroke-width:1.0;" x1="501.5" x2="543.5" y1="260.3594" y2="260.3594"/><line style="stroke:#181818;stroke-width:1.0;" x1="543.5" x2="543.5" y1="260.3594" y2="273.3594"/><line style="stroke:#181818;stroke-width:1.0;" x1="502.5" x2="543.5" y1="273.3594" y2="273.3594"/><polygon fill="#181818" points="512.5,269.3594,502.5,273.3594,512.5,277.3594,508.5,273.3594" style="stroke:#181818;stroke-width:1.0;"/><text fill="#000000" font-family="sans-serif" font-size="13" lengthAdjust="spacing" textLength="247" x="508.5" y="255.2935">Verify timestamp == block.timestamp</text><path d="M20,288.3594 L84,288.3594 L84,295.4922 L74,305.4922 L20,305.4922 L20,288.3594 " fill="#EEEEEE" style="stroke:#000000;stroke-width:1.5;"/><rect fill="none" height="828.6641" style="stroke:#000000;stroke-width:1.5;" width="911" x="20" y="288.3594"/><text fill="#000000" font-family="sans-serif" font-size="13" font-weight="bold" lengthAdjust="spacing" textLength="19" x="35" y="301.4263">alt</text><text fill="#000000" font-family="sans-serif" font-size="11" font-weight="bold" lengthAdjust="spacing" textLength="204" x="99" y="300.5698">[timestamp != block.timestamp]</text><line style="stroke:#181818;stroke-width:2.0;" x1="120.5" x2="130.5" y1="339.7578" y2="349.7578"/><line style="stroke:#181818;stroke-width:2.0;" x1="120.5" x2="130.5" y1="349.7578" y2="339.7578"/><line style="stroke:#181818;stroke-width:1.0;" x1="125.5" x2="490.5" y1="344.7578" y2="344.7578"/><text fill="#000000" font-family="sans-serif" font-size="13" lengthAdjust="spacing" textLength="277" x="130.5" y="339.6919">Revert with ServiceDoesNotStakeInSameTx</text><path d="M506,310.4922 L506,365.4922 L699,365.4922 L699,320.4922 L689,310.4922 L506,310.4922 " fill="#FEFFDD" style="stroke:#181818;stroke-width:0.5;"/><path d="M689,310.4922 L689,320.4922 L699,320.4922 L689,310.4922 " fill="#FEFFDD" style="stroke:#181818;stroke-width:0.5;"/><text fill="#000000" font-family="sans-serif" font-size="13" lengthAdjust="spacing" textLength="172" x="512" y="327.5591">FATAL: Must call all 3 steps</text><text fill="#000000" font-family="sans-serif" font-size="13" lengthAdjust="spacing" textLength="127" x="512" y="342.6919">in same transaction</text><text fill="#000000" font-family="sans-serif" font-size="13" lengthAdjust="spacing" textLength="124" x="512" y="357.8247">Tokens may be lost</text><line style="stroke:#000000;stroke-width:1.0;stroke-dasharray:2.0,2.0;" x1="20" x2="931" y1="371.8906" y2="371.8906"/><text fill="#000000" font-family="sans-serif" font-size="11" font-weight="bold" lengthAdjust="spacing" textLength="175" x="25" y="382.1011">[Same transaction verified]</text><line style="stroke:#181818;stroke-width:1.0;" x1="501.5" x2="543.5" y1="406.8281" y2="406.8281"/><line style="stroke:#181818;stroke-width:1.0;" x1="543.5" x2="543.5" y1="406.8281" y2="419.8281"/><line style="stroke:#181818;stroke-width:1.0;" x1="502.5" x2="543.5" y1="419.8281" y2="419.8281"/><polygon fill="#181818" points="512.5,415.8281,502.5,419.8281,512.5,423.8281,508.5,419.8281" style="stroke:#181818;stroke-width:1.0;"/><text fill="#000000" font-family="sans-serif" font-size="13" lengthAdjust="spacing" textLength="319" x="508.5" y="401.7622">Verify msg.sender == serviceStakingData.service</text><path d="M30,434.8281 L94,434.8281 L94,441.9609 L84,451.9609 L30,451.9609 L30,434.8281 " fill="#EEEEEE" style="stroke:#000000;stroke-width:1.5;"/><rect fill="none" height="675.1953" style="stroke:#000000;stroke-width:1.5;" width="891" x="30" y="434.8281"/><text fill="#000000" font-family="sans-serif" font-size="13" font-weight="bold" lengthAdjust="spacing" textLength="19" x="45" y="447.895">alt</text><text fill="#000000" font-family="sans-serif" font-size="11" font-weight="bold" lengthAdjust="spacing" textLength="214" x="109" y="447.0386">[msg.sender != prepared service]</text><line style="stroke:#181818;stroke-width:2.0;" x1="120.5" x2="130.5" y1="486.2266" y2="496.2266"/><line style="stroke:#181818;stroke-width:2.0;" x1="120.5" x2="130.5" y1="496.2266" y2="486.2266"/><line style="stroke:#181818;stroke-width:1.0;" x1="125.5" x2="490.5" y1="491.2266" y2="491.2266"/><text fill="#000000" font-family="sans-serif" font-size="13" lengthAdjust="spacing" textLength="188" x="130.5" y="486.1606">Revert with AddressMismatch</text><path d="M506,456.9609 L506,511.9609 L656,511.9609 L656,466.9609 L646,456.9609 L506,456.9609 " fill="#FEFFDD" style="stroke:#181818;stroke-width:0.5;"/><path d="M646,456.9609 L646,466.9609 L656,466.9609 L646,456.9609 " fill="#FEFFDD" style="stroke:#181818;stroke-width:0.5;"/><text fill="#000000" font-family="sans-serif" font-size="13" lengthAdjust="spacing" textLength="129" x="512" y="474.0278">Wrong service trying</text><text fill="#000000" font-family="sans-serif" font-size="13" lengthAdjust="spacing" textLength="129" x="512" y="489.1606">to confirm another's</text><text fill="#000000" font-family="sans-serif" font-size="13" lengthAdjust="spacing" textLength="124" x="512" y="504.2935">staking preparation</text><line style="stroke:#000000;stroke-width:1.0;stroke-dasharray:2.0,2.0;" x1="30" x2="921" y1="518.3594" y2="518.3594"/><text fill="#000000" font-family="sans-serif" font-size="11" font-weight="bold" lengthAdjust="spacing" textLength="151" x="35" y="528.5698">[Service authenticated]</text><polygon fill="#181818" points="857.5,549.2969,867.5,553.2969,857.5,557.2969,861.5,553.2969" style="stroke:#181818;stroke-width:1.0;"/><line style="stroke:#181818;stroke-width:1.0;" x1="501.5" x2="863.5" y1="553.2969" y2="553.2969"/><text fill="#000000" font-family="sans-serif" font-size="13" lengthAdjust="spacing" textLength="191" x="508.5" y="548.231">Query current service balance</text><polygon fill="#181818" points="512.5,578.4297,502.5,582.4297,512.5,586.4297,508.5,582.4297" style="stroke:#181818;stroke-width:1.0;"/><line style="stroke:#181818;stroke-width:1.0;stroke-dasharray:2.0,2.0;" x1="506.5" x2="873.5" y1="582.4297" y2="582.4297"/><text fill="#000000" font-family="sans-serif" font-size="13" lengthAdjust="spacing" textLength="127" x="518.5" y="577.3638">serviceBalanceAfter</text><polygon fill="#181818" points="857.5,607.5625,867.5,611.5625,857.5,615.5625,861.5,611.5625" style="stroke:#181818;stroke-width:1.0;"/><line style="stroke:#181818;stroke-width:1.0;" x1="501.5" x2="863.5" y1="611.5625" y2="611.5625"/><text fill="#000000" font-family="sans-serif" font-size="13" lengthAdjust="spacing" textLength="249" x="508.5" y="606.4966">Query current staking contract balance</text><polygon fill="#181818" points="512.5,636.6953,502.5,640.6953,512.5,644.6953,508.5,640.6953" style="stroke:#181818;stroke-width:1.0;"/><line style="stroke:#181818;stroke-width:1.0;stroke-dasharray:2.0,2.0;" x1="506.5" x2="873.5" y1="640.6953" y2="640.6953"/><text fill="#000000" font-family="sans-serif" font-size="13" lengthAdjust="spacing" textLength="135" x="518.5" y="635.6294">contractBalanceAfter</text><line style="stroke:#181818;stroke-width:1.0;" x1="501.5" x2="543.5" y1="684.9609" y2="684.9609"/><line style="stroke:#181818;stroke-width:1.0;" x1="543.5" x2="543.5" y1="684.9609" y2="697.9609"/><line style="stroke:#181818;stroke-width:1.0;" x1="502.5" x2="543.5" y1="697.9609" y2="697.9609"/><polygon fill="#181818" points="512.5,693.9609,502.5,697.9609,512.5,701.9609,508.5,697.9609" style="stroke:#181818;stroke-width:1.0;"/><text fill="#000000" font-family="sans-serif" font-size="13" lengthAdjust="spacing" textLength="187" x="508.5" y="664.7622">Calculate expected payment:</text><text fill="#000000" font-family="sans-serif" font-size="13" lengthAdjust="spacing" textLength="354" x="508.5" y="679.895">totalRequired = amountOfStaking * PRICE_OF_STAKING</text><line style="stroke:#181818;stroke-width:1.0;" x1="501.5" x2="543.5" y1="757.3594" y2="757.3594"/><line style="stroke:#181818;stroke-width:1.0;" x1="543.5" x2="543.5" y1="757.3594" y2="770.3594"/><line style="stroke:#181818;stroke-width:1.0;" x1="502.5" x2="543.5" y1="770.3594" y2="770.3594"/><polygon fill="#181818" points="512.5,766.3594,502.5,770.3594,512.5,774.3594,508.5,770.3594" style="stroke:#181818;stroke-width:1.0;"/><text fill="#000000" font-family="sans-serif" font-size="13" lengthAdjust="spacing" textLength="101" x="508.5" y="722.0278">Verify payment:</text><text fill="#000000" font-family="sans-serif" font-size="13" lengthAdjust="spacing" textLength="291" x="508.5" y="737.1606">serviceBefore - totalRequired == serviceAfter</text><text fill="#000000" font-family="sans-serif" font-size="13" lengthAdjust="spacing" textLength="313" x="508.5" y="752.2935">contractBefore + totalRequired == contractAfter</text><path d="M40,785.3594 L104,785.3594 L104,792.4922 L94,802.4922 L40,802.4922 L40,785.3594 " fill="#EEEEEE" style="stroke:#000000;stroke-width:1.5;"/><rect fill="none" height="317.6641" style="stroke:#000000;stroke-width:1.5;" width="871" x="40" y="785.3594"/><text fill="#000000" font-family="sans-serif" font-size="13" font-weight="bold" lengthAdjust="spacing" textLength="19" x="55" y="798.4263">alt</text><text fill="#000000" font-family="sans-serif" font-size="11" font-weight="bold" lengthAdjust="spacing" textLength="203" x="119" y="797.5698">[Payment amounts don't match]</text><line style="stroke:#181818;stroke-width:2.0;" x1="120.5" x2="130.5" y1="844.3242" y2="854.3242"/><line style="stroke:#181818;stroke-width:2.0;" x1="120.5" x2="130.5" y1="854.3242" y2="844.3242"/><line style="stroke:#181818;stroke-width:1.0;" x1="125.5" x2="490.5" y1="849.3242" y2="849.3242"/><text fill="#000000" font-family="sans-serif" font-size="13" lengthAdjust="spacing" textLength="354" x="130.5" y="844.2583">Revert with ServiceDoesNotFulfillCorrectStakingAmount</text><path d="M506,807.4922 L506,877.4922 L715,877.4922 L715,817.4922 L705,807.4922 L506,807.4922 " fill="#FEFFDD" style="stroke:#181818;stroke-width:0.5;"/><path d="M705,807.4922 L705,817.4922 L715,817.4922 L705,807.4922 " fill="#FEFFDD" style="stroke:#181818;stroke-width:0.5;"/><text fill="#000000" font-family="sans-serif" font-size="13" lengthAdjust="spacing" textLength="105" x="512" y="824.5591">CRITICAL ERROR:</text><text fill="#000000" font-family="sans-serif" font-size="13" lengthAdjust="spacing" textLength="134" x="512" y="839.6919">- Wrong amount paid</text><text fill="#000000" font-family="sans-serif" font-size="13" lengthAdjust="spacing" textLength="113" x="512" y="854.8247">- caPay not called</text><text fill="#000000" font-family="sans-serif" font-size="13" lengthAdjust="spacing" textLength="188" x="512" y="869.9575">- Tokens lost if not in same tx</text><line style="stroke:#000000;stroke-width:1.0;stroke-dasharray:2.0,2.0;" x1="40" x2="911" y1="884.0234" y2="884.0234"/><text fill="#000000" font-family="sans-serif" font-size="11" font-weight="bold" lengthAdjust="spacing" textLength="118" x="45" y="894.2339">[Payment verified]</text><line style="stroke:#181818;stroke-width:1.0;" x1="501.5" x2="543.5" y1="994.625" y2="994.625"/><line style="stroke:#181818;stroke-width:1.0;" x1="543.5" x2="543.5" y1="994.625" y2="1007.625"/><line style="stroke:#181818;stroke-width:1.0;" x1="502.5" x2="543.5" y1="1007.625" y2="1007.625"/><polygon fill="#181818" points="512.5,1003.625,502.5,1007.625,512.5,1011.625,508.5,1007.625" style="stroke:#181818;stroke-width:1.0;"/><text fill="#000000" font-family="sans-serif" font-size="13" lengthAdjust="spacing" textLength="133" x="508.5" y="913.895">stakingBaseProcess(</text><text fill="#000000" font-family="sans-serif" font-size="13" lengthAdjust="spacing" textLength="289" x="516.5" y="929.0278">AccountMetadata{service, IsAService=true},</text><text fill="#000000" font-family="sans-serif" font-size="13" lengthAdjust="spacing" textLength="99" x="516.5" y="944.1606">isStaking=true,</text><text fill="#000000" font-family="sans-serif" font-size="13" lengthAdjust="spacing" textLength="116" x="516.5" y="959.2935">amountOfStaking,</text><text fill="#000000" font-family="sans-serif" font-size="13" lengthAdjust="spacing" textLength="186" x="516.5" y="974.4263">0, 0, 0, false, address(0), 0x0</text><text fill="#000000" font-family="sans-serif" font-size="13" lengthAdjust="spacing" textLength="5" x="508.5" y="989.5591">)</text><polygon fill="#181818" points="857.5,1032.7578,867.5,1036.7578,857.5,1040.7578,861.5,1036.7578" style="stroke:#181818;stroke-width:1.0;"/><line style="stroke:#181818;stroke-width:1.0;" x1="501.5" x2="863.5" y1="1036.7578" y2="1036.7578"/><text fill="#000000" font-family="sans-serif" font-size="13" lengthAdjust="spacing" textLength="168" x="508.5" y="1031.6919">pointStaker(service, 0x01)</text><polygon fill="#181818" points="512.5,1061.8906,502.5,1065.8906,512.5,1069.8906,508.5,1065.8906" style="stroke:#181818;stroke-width:1.0;"/><line style="stroke:#181818;stroke-width:1.0;stroke-dasharray:2.0,2.0;" x1="506.5" x2="873.5" y1="1065.8906" y2="1065.8906"/><text fill="#000000" font-family="sans-serif" font-size="13" lengthAdjust="spacing" textLength="99" x="518.5" y="1060.8247">Status updated</text><polygon fill="#181818" points="124.5,1091.0234,114.5,1095.0234,124.5,1099.0234,120.5,1095.0234" style="stroke:#181818;stroke-width:1.0;"/><line style="stroke:#181818;stroke-width:1.0;stroke-dasharray:2.0,2.0;" x1="118.5" x2="495.5" y1="1095.0234" y2="1095.0234"/><text fill="#000000" font-family="sans-serif" font-size="13" lengthAdjust="spacing" textLength="200" x="130.5" y="1089.9575">Staking completed successfully</text><!--SRC=[hLLjRzis4FwkNt5hFZJUuinTKHG8cWAAOtV6cYQpZUoBWOAcJZ5XYlH8oh5HzB_lA56o96TPkms8OvcwU-wvvrxuphgznFTHedcUeNBm9GAuOdpzmUXS9KCjjO77bN0OVOtU_HoiemqpJd2nOUJnOePcApZ2K2jd67SlW5cmvM77qh6rK0-bGVaC9-FnzTl1e6qukh-_AQnmkytWP30OZNuPH94JJY9mhL9XiX0sOCBSC6Kfkj0Anb8_BjJfc0c92Tmnju8-Z8oXN7vbAf5atukYG17wxsio5q-3d_OYZxnb3ezuHzL12qOhkH_6aEb4f08Dy1NoTHGnwU0aVRDyktm5GoOblH4Mb7R0VEH2FYe0r4ZzNQKaWKvnYyR1ew1yuYGnQEt4Vj8k3cmBpmYbHJWfQjQ8qS1l1sYolaSZqZquaI4TPXkul8Ibr7nzNX-LCVo_PYu7Zn-UzlYcd48QrnfzLbvxdAWPot2-gq58AmGZ7bQEdCVnFFvu0JUvTS0fLV2VrnG8DtQXX09Bpk0EdR5GSxr6PI5ZUrWYI6rT3LqyDDMRTRnXw_KHc4J7EJqXOsOVpYsgX0f0EjfMHrqpnyvjesmrWQwq3HJITcEG1eMQkklxFKrp8sp675-rd5l2_c4quLGWpkm9Tg6ShiO369clqBmacQke9JNcXMe1rpzQqWPebXECei6dqMh8sf6ss08Ny7kEPWyyDyPlgehTaaccEahKqzhQ7qsBuaM_LRO0U5NYnQb3qt99i0NxdMp3-seA_p_Q5U9_vds0fBN1Sraux3R8gJImONj_FrpuBd1CJl7FNFW-l0IMqKtXRjDg4Vy8TzF9SFJvTlnvDez_ctpwy0qHmyWSebJ5m5GRMj7GYLhFKv7kGjKYbFO_7TjN5iVwj4lG6Bsxaat8q4AYrKi7nwFpBvRRE9Ufa7AegJku2zB5HPmZwDPa3gUJ-MGOVuJHT7ex9Q7wOLXBagIWIFmXPyI-k5dyOiJYBEm-l_H0fCNBUaVkZiAs-wunkvKinzlmsHA7fojcySveJdleTA40OiuzyHjqBA6b-2MeTmOJMzrhbyxa-FNCMmiRj2hEYgDE_nLdWxFmbp8YVWQiN7odWnwTxWOBrNkMT9ZWZHQgl8RCQKsBt5_rZfp_UNB_Pde9tkKMyarIRC2knxEpssBjKUl6czNR9jj8zFDhS-ubJtCfzy-NkXCs16XtWpemhPxzj__y1G00]--></g></svg>