<?xml version="1.0" encoding="us-ascii" standalone="no"?><svg xmlns="http://www.w3.org/2000/svg" xmlns:xlink="http://www.w3.org/1999/xlink" contentStyleType="text/css" height="1511px" preserveAspectRatio="none" style="width:929px;height:1511px;background:#FFFFFF;" version="1.1" viewBox="0 0 929 1511" width="929px" zoomAndPan="magnify"><defs/><g><text fill="#000000" font-family="sans-serif" font-size="14" font-weight="bold" lengthAdjust="spacing" textLength="276" x="327.5" y="27.9951">serviceUnstaking Transaction Flow</text><text fill="#000000" font-family="sans-serif" font-size="14" font-weight="bold" lengthAdjust="spacing" textLength="227" x="352" y="44.292">(Failed Path - Error Handling)</text><rect fill="#FFD700" height="947.8672" style="stroke:#181818;stroke-width:1.0;" width="10" x="388.5" y="151.2891"/><rect fill="#00EE20" height="126.3359" style="stroke:#181818;stroke-width:1.0;" width="10" x="840.5" y="885.4219"/><rect fill="#00EE20" height="29.1328" style="stroke:#181818;stroke-width:1.0;" width="10" x="840.5" y="1040.8906"/><rect fill="#00EE20" height="126.3359" style="stroke:#181818;stroke-width:1.0;" width="10" x="840.5" y="1274.8906"/><rect fill="#F5B7B1" height="1250.9375" style="stroke:#000000;stroke-width:1.5;" width="912" x="10" y="208.4219"/><rect fill="#FFFFFF" height="1204.6719" style="stroke:none;stroke-width:1.0;" width="912" x="10" y="254.6875"/><rect fill="#F5B7B1" height="1046.2031" style="stroke:#000000;stroke-width:1.5;" width="892" x="20" y="406.1563"/><rect fill="#FFFFFF" height="978.8047" style="stroke:none;stroke-width:1.0;" width="892" x="20" y="473.5547"/><rect fill="#FFFFFF" height="892.7344" style="stroke:#000000;stroke-width:1.5;" width="872" x="30" y="552.625"/><rect fill="#F5B7B1" height="480.1328" style="stroke:#000000;stroke-width:1.5;" width="852" x="40" y="634.0234"/><rect fill="#FFFFFF" height="382.4688" style="stroke:none;stroke-width:1.0;" width="852" x="40" y="731.6875"/><rect fill="#F5B7B1" height="206.7344" style="stroke:#000000;stroke-width:1.5;" width="832" x="50" y="900.4219"/><rect fill="#FFFFFF" height="131.3359" style="stroke:none;stroke-width:1.0;" width="832" x="50" y="975.8203"/><rect fill="#FFFFFF" height="324.2031" style="stroke:none;stroke-width:1.0;" width="872" x="30" y="1121.1563"/><rect fill="#F5B7B1" height="148.4688" style="stroke:#000000;stroke-width:1.5;" width="832" x="50" y="1289.8906"/><rect fill="#FFFFFF" height="73.0703" style="stroke:none;stroke-width:1.0;" width="832" x="50" y="1365.2891"/><line style="stroke:#181818;stroke-width:0.5;stroke-dasharray:5.0,5.0;" x1="123" x2="123" y1="89.8906" y2="1476.3594"/><line style="stroke:#181818;stroke-width:0.5;stroke-dasharray:5.0,5.0;" x1="393" x2="393" y1="89.8906" y2="1476.3594"/><line style="stroke:#181818;stroke-width:0.5;stroke-dasharray:5.0,5.0;" x1="845" x2="845" y1="89.8906" y2="1476.3594"/><rect fill="#E2E2F0" height="30.2969" rx="2.5" ry="2.5" style="stroke:#181818;stroke-width:0.5;" width="127" x="60" y="58.5938"/><text fill="#000000" font-family="sans-serif" font-size="14" lengthAdjust="spacing" textLength="113" x="67" y="78.5889">Service Contract</text><rect fill="#E2E2F0" height="30.2969" rx="2.5" ry="2.5" style="stroke:#181818;stroke-width:0.5;" width="127" x="60" y="1475.3594"/><text fill="#000000" font-family="sans-serif" font-size="14" lengthAdjust="spacing" textLength="113" x="67" y="1495.3545">Service Contract</text><rect fill="#FFD700" height="30.2969" rx="2.5" ry="2.5" style="stroke:#181818;stroke-width:0.5;" width="65" x="361" y="58.5938"/><text fill="#000000" font-family="sans-serif" font-size="14" lengthAdjust="spacing" textLength="51" x="368" y="78.5889">Staking</text><rect fill="#FFD700" height="30.2969" rx="2.5" ry="2.5" style="stroke:#181818;stroke-width:0.5;" width="65" x="361" y="1475.3594"/><text fill="#000000" font-family="sans-serif" font-size="14" lengthAdjust="spacing" textLength="51" x="368" y="1495.3545">Staking</text><rect fill="#00EE20" height="30.2969" rx="2.5" ry="2.5" style="stroke:#181818;stroke-width:0.5;" width="53" x="819" y="58.5938"/><text fill="#000000" font-family="sans-serif" font-size="14" lengthAdjust="spacing" textLength="39" x="826" y="78.5889">EVVM</text><rect fill="#00EE20" height="30.2969" rx="2.5" ry="2.5" style="stroke:#181818;stroke-width:0.5;" width="53" x="819" y="1475.3594"/><text fill="#000000" font-family="sans-serif" font-size="14" lengthAdjust="spacing" textLength="39" x="826" y="1495.3545">EVVM</text><rect fill="#FFD700" height="947.8672" style="stroke:#181818;stroke-width:1.0;" width="10" x="388.5" y="151.2891"/><rect fill="#00EE20" height="126.3359" style="stroke:#181818;stroke-width:1.0;" width="10" x="840.5" y="885.4219"/><rect fill="#00EE20" height="29.1328" style="stroke:#181818;stroke-width:1.0;" width="10" x="840.5" y="1040.8906"/><rect fill="#00EE20" height="126.3359" style="stroke:#181818;stroke-width:1.0;" width="10" x="840.5" y="1274.8906"/><polygon fill="#181818" points="376.5,147.2891,386.5,151.2891,376.5,155.2891,380.5,151.2891" style="stroke:#181818;stroke-width:1.0;"/><line style="stroke:#181818;stroke-width:1.0;" x1="123.5" x2="382.5" y1="151.2891" y2="151.2891"/><text fill="#000000" font-family="sans-serif" font-size="13" lengthAdjust="spacing" textLength="114" x="130.5" y="115.9575">serviceUnstaking(</text><text fill="#000000" font-family="sans-serif" font-size="13" lengthAdjust="spacing" textLength="112" x="138.5" y="131.0903">amountOfStaking</text><text fill="#000000" font-family="sans-serif" font-size="13" lengthAdjust="spacing" textLength="5" x="130.5" y="146.2231">)</text><line style="stroke:#181818;stroke-width:1.0;" x1="398.5" x2="440.5" y1="180.4219" y2="180.4219"/><line style="stroke:#181818;stroke-width:1.0;" x1="440.5" x2="440.5" y1="180.4219" y2="193.4219"/><line style="stroke:#181818;stroke-width:1.0;" x1="399.5" x2="440.5" y1="193.4219" y2="193.4219"/><polygon fill="#181818" points="409.5,189.4219,399.5,193.4219,409.5,197.4219,405.5,193.4219" style="stroke:#181818;stroke-width:1.0;"/><text fill="#000000" font-family="sans-serif" font-size="13" lengthAdjust="spacing" textLength="141" x="405.5" y="175.356">onlyCA modifier check</text><path d="M10,208.4219 L74,208.4219 L74,215.5547 L64,225.5547 L10,225.5547 L10,208.4219 " fill="#EEEEEE" style="stroke:#000000;stroke-width:1.5;"/><rect fill="none" height="1250.9375" style="stroke:#000000;stroke-width:1.5;" width="912" x="10" y="208.4219"/><text fill="#000000" font-family="sans-serif" font-size="13" font-weight="bold" lengthAdjust="spacing" textLength="19" x="25" y="221.4888">alt</text><text fill="#000000" font-family="sans-serif" font-size="11" font-weight="bold" lengthAdjust="spacing" textLength="157" x="89" y="220.6323">[Caller is not a contract]</text><line style="stroke:#181818;stroke-width:2.0;" x1="130.5" x2="140.5" y1="241.6875" y2="251.6875"/><line style="stroke:#181818;stroke-width:2.0;" x1="130.5" x2="140.5" y1="251.6875" y2="241.6875"/><line style="stroke:#181818;stroke-width:1.0;" x1="135.5" x2="387.5" y1="246.6875" y2="246.6875"/><text fill="#000000" font-family="sans-serif" font-size="13" lengthAdjust="spacing" textLength="215" x="140.5" y="241.6216">Revert with AddressIsNotAService</text><line style="stroke:#000000;stroke-width:1.0;stroke-dasharray:2.0,2.0;" x1="10" x2="922" y1="255.6875" y2="255.6875"/><text fill="#000000" font-family="sans-serif" font-size="11" font-weight="bold" lengthAdjust="spacing" textLength="132" x="15" y="265.8979">[Caller is a contract]</text><line style="stroke:#181818;stroke-width:1.0;" x1="398.5" x2="440.5" y1="336.0234" y2="336.0234"/><line style="stroke:#181818;stroke-width:1.0;" x1="440.5" x2="440.5" y1="336.0234" y2="349.0234"/><line style="stroke:#181818;stroke-width:1.0;" x1="399.5" x2="440.5" y1="349.0234" y2="349.0234"/><polygon fill="#181818" points="409.5,345.0234,399.5,349.0234,409.5,353.0234,405.5,349.0234" style="stroke:#181818;stroke-width:1.0;"/><text fill="#000000" font-family="sans-serif" font-size="13" lengthAdjust="spacing" textLength="177" x="405.5" y="285.5591">Retrieve AccountMetadata{</text><text fill="#000000" font-family="sans-serif" font-size="13" lengthAdjust="spacing" textLength="139" x="413.5" y="300.6919">account: msg.sender,</text><text fill="#000000" font-family="sans-serif" font-size="13" lengthAdjust="spacing" textLength="100" x="413.5" y="315.8247">IsAService: true</text><text fill="#000000" font-family="sans-serif" font-size="13" lengthAdjust="spacing" textLength="8" x="405.5" y="330.9575">}</text><line style="stroke:#181818;stroke-width:1.0;" x1="398.5" x2="440.5" y1="378.1563" y2="378.1563"/><line style="stroke:#181818;stroke-width:1.0;" x1="440.5" x2="440.5" y1="378.1563" y2="391.1563"/><line style="stroke:#181818;stroke-width:1.0;" x1="399.5" x2="440.5" y1="391.1563" y2="391.1563"/><polygon fill="#181818" points="409.5,387.1563,399.5,391.1563,409.5,395.1563,405.5,391.1563" style="stroke:#181818;stroke-width:1.0;"/><text fill="#000000" font-family="sans-serif" font-size="13" lengthAdjust="spacing" textLength="277" x="405.5" y="373.0903">Verify service has sufficient staking balance</text><path d="M20,406.1563 L84,406.1563 L84,413.2891 L74,423.2891 L20,423.2891 L20,406.1563 " fill="#EEEEEE" style="stroke:#000000;stroke-width:1.5;"/><rect fill="none" height="1046.2031" style="stroke:#000000;stroke-width:1.5;" width="892" x="20" y="406.1563"/><text fill="#000000" font-family="sans-serif" font-size="13" font-weight="bold" lengthAdjust="spacing" textLength="19" x="35" y="419.2231">alt</text><text fill="#000000" font-family="sans-serif" font-size="11" font-weight="bold" lengthAdjust="spacing" textLength="318" x="99" y="418.3667">[amountOfStaking &gt; stakingData.stakingBalance]</text><line style="stroke:#181818;stroke-width:2.0;" x1="130.5" x2="140.5" y1="449.9883" y2="459.9883"/><line style="stroke:#181818;stroke-width:2.0;" x1="130.5" x2="140.5" y1="459.9883" y2="449.9883"/><line style="stroke:#181818;stroke-width:1.0;" x1="135.5" x2="387.5" y1="454.9883" y2="454.9883"/><text fill="#000000" font-family="sans-serif" font-size="13" lengthAdjust="spacing" textLength="241" x="140.5" y="449.9224">Revert with InsufficientStakingBalance</text><path d="M403,428.2891 L403,468.2891 L604,468.2891 L604,438.2891 L594,428.2891 L403,428.2891 " fill="#FEFFDD" style="stroke:#181818;stroke-width:0.5;"/><path d="M594,428.2891 L594,438.2891 L604,438.2891 L594,428.2891 " fill="#FEFFDD" style="stroke:#181818;stroke-width:0.5;"/><text fill="#000000" font-family="sans-serif" font-size="13" lengthAdjust="spacing" textLength="139" x="409" y="445.356">Cannot unstake more</text><text fill="#000000" font-family="sans-serif" font-size="13" lengthAdjust="spacing" textLength="180" x="409" y="460.4888">than current staked amount</text><line style="stroke:#000000;stroke-width:1.0;stroke-dasharray:2.0,2.0;" x1="20" x2="912" y1="474.5547" y2="474.5547"/><text fill="#000000" font-family="sans-serif" font-size="11" font-weight="bold" lengthAdjust="spacing" textLength="127" x="25" y="484.7651">[Sufficient balance]</text><line style="stroke:#181818;stroke-width:1.0;" x1="398.5" x2="440.5" y1="524.625" y2="524.625"/><line style="stroke:#181818;stroke-width:1.0;" x1="440.5" x2="440.5" y1="524.625" y2="537.625"/><line style="stroke:#181818;stroke-width:1.0;" x1="399.5" x2="440.5" y1="537.625" y2="537.625"/><polygon fill="#181818" points="409.5,533.625,399.5,537.625,409.5,541.625,405.5,537.625" style="stroke:#181818;stroke-width:1.0;"/><text fill="#000000" font-family="sans-serif" font-size="13" lengthAdjust="spacing" textLength="146" x="405.5" y="504.4263">Calculate token return:</text><text fill="#000000" font-family="sans-serif" font-size="13" lengthAdjust="spacing" textLength="428" x="405.5" y="519.5591">amountOfTokenToReturn = amountOfStaking * PRICE_OF_STAKING</text><path d="M30,552.625 L94,552.625 L94,559.7578 L84,569.7578 L30,569.7578 L30,552.625 " fill="#EEEEEE" style="stroke:#000000;stroke-width:1.5;"/><rect fill="none" height="892.7344" style="stroke:#000000;stroke-width:1.5;" width="872" x="30" y="552.625"/><text fill="#000000" font-family="sans-serif" font-size="13" font-weight="bold" lengthAdjust="spacing" textLength="19" x="45" y="565.6919">alt</text><text fill="#000000" font-family="sans-serif" font-size="11" font-weight="bold" lengthAdjust="spacing" textLength="432" x="109" y="564.8354">[Full unstaking (amountOfStaking == stakingData.stakingBalance)]</text><line style="stroke:#181818;stroke-width:1.0;" x1="398.5" x2="440.5" y1="606.0234" y2="606.0234"/><line style="stroke:#181818;stroke-width:1.0;" x1="440.5" x2="440.5" y1="606.0234" y2="619.0234"/><line style="stroke:#181818;stroke-width:1.0;" x1="399.5" x2="440.5" y1="619.0234" y2="619.0234"/><polygon fill="#181818" points="409.5,615.0234,399.5,619.0234,409.5,623.0234,405.5,619.0234" style="stroke:#181818;stroke-width:1.0;"/><text fill="#000000" font-family="sans-serif" font-size="13" lengthAdjust="spacing" textLength="105" x="405.5" y="585.8247">Check time lock:</text><text fill="#000000" font-family="sans-serif" font-size="13" lengthAdjust="spacing" textLength="334" x="405.5" y="600.9575">block.timestamp &gt;= (stakingTimestamp + 21 days)</text><path d="M40,634.0234 L104,634.0234 L104,641.1563 L94,651.1563 L40,651.1563 L40,634.0234 " fill="#EEEEEE" style="stroke:#000000;stroke-width:1.5;"/><rect fill="none" height="480.1328" style="stroke:#000000;stroke-width:1.5;" width="852" x="40" y="634.0234"/><text fill="#000000" font-family="sans-serif" font-size="13" font-weight="bold" lengthAdjust="spacing" textLength="19" x="55" y="647.0903">alt</text><text fill="#000000" font-family="sans-serif" font-size="11" font-weight="bold" lengthAdjust="spacing" textLength="148" x="119" y="646.2339">[Time lock not expired]</text><line style="stroke:#181818;stroke-width:2.0;" x1="130.5" x2="140.5" y1="692.9883" y2="702.9883"/><line style="stroke:#181818;stroke-width:2.0;" x1="130.5" x2="140.5" y1="702.9883" y2="692.9883"/><line style="stroke:#181818;stroke-width:1.0;" x1="135.5" x2="387.5" y1="697.9883" y2="697.9883"/><text fill="#000000" font-family="sans-serif" font-size="13" lengthAdjust="spacing" textLength="204" x="140.5" y="692.9224">Revert with TimeLockNotExpired</text><path d="M403,656.1563 L403,726.1563 L610,726.1563 L610,666.1563 L600,656.1563 L403,656.1563 " fill="#FEFFDD" style="stroke:#181818;stroke-width:0.5;"/><path d="M600,656.1563 L600,666.1563 L610,666.1563 L600,656.1563 " fill="#FEFFDD" style="stroke:#181818;stroke-width:0.5;"/><text fill="#000000" font-family="sans-serif" font-size="13" lengthAdjust="spacing" textLength="158" x="409" y="673.2231">RESTRICTION VIOLATION:</text><text fill="#000000" font-family="sans-serif" font-size="13" lengthAdjust="spacing" textLength="143" x="409" y="688.356">Full unstaking requires</text><text fill="#000000" font-family="sans-serif" font-size="13" lengthAdjust="spacing" textLength="136" x="409" y="703.4888">21-day waiting period</text><text fill="#000000" font-family="sans-serif" font-size="13" lengthAdjust="spacing" textLength="186" x="409" y="718.6216">Use partial unstaking instead</text><line style="stroke:#000000;stroke-width:1.0;stroke-dasharray:2.0,2.0;" x1="40" x2="892" y1="732.6875" y2="732.6875"/><text fill="#000000" font-family="sans-serif" font-size="11" font-weight="bold" lengthAdjust="spacing" textLength="121" x="45" y="742.8979">[Time lock passed]</text><line style="stroke:#181818;stroke-width:1.0;" x1="398.5" x2="440.5" y1="843.2891" y2="843.2891"/><line style="stroke:#181818;stroke-width:1.0;" x1="440.5" x2="440.5" y1="843.2891" y2="856.2891"/><line style="stroke:#181818;stroke-width:1.0;" x1="399.5" x2="440.5" y1="856.2891" y2="856.2891"/><polygon fill="#181818" points="409.5,852.2891,399.5,856.2891,409.5,860.2891,405.5,856.2891" style="stroke:#181818;stroke-width:1.0;"/><text fill="#000000" font-family="sans-serif" font-size="13" lengthAdjust="spacing" textLength="133" x="405.5" y="762.5591">stakingBaseProcess(</text><text fill="#000000" font-family="sans-serif" font-size="13" lengthAdjust="spacing" textLength="116" x="413.5" y="777.6919">accountMetadata,</text><text fill="#000000" font-family="sans-serif" font-size="13" lengthAdjust="spacing" textLength="103" x="413.5" y="792.8247">isStaking=false,</text><text fill="#000000" font-family="sans-serif" font-size="13" lengthAdjust="spacing" textLength="116" x="413.5" y="807.9575">amountOfStaking,</text><text fill="#000000" font-family="sans-serif" font-size="13" lengthAdjust="spacing" textLength="186" x="413.5" y="823.0903">0, 0, 0, false, address(0), 0x0</text><text fill="#000000" font-family="sans-serif" font-size="13" lengthAdjust="spacing" textLength="5" x="405.5" y="838.2231">)</text><polygon fill="#181818" points="828.5,881.4219,838.5,885.4219,828.5,889.4219,832.5,885.4219" style="stroke:#181818;stroke-width:1.0;"/><line style="stroke:#181818;stroke-width:1.0;" x1="398.5" x2="834.5" y1="885.4219" y2="885.4219"/><text fill="#000000" font-family="sans-serif" font-size="13" lengthAdjust="spacing" textLength="60" x="405.5" y="880.356">caPay(&#183;&#183;&#183;)</text><path d="M50,900.4219 L114,900.4219 L114,907.5547 L104,917.5547 L50,917.5547 L50,900.4219 " fill="#EEEEEE" style="stroke:#000000;stroke-width:1.5;"/><rect fill="none" height="206.7344" style="stroke:#000000;stroke-width:1.5;" width="832" x="50" y="900.4219"/><text fill="#000000" font-family="sans-serif" font-size="13" font-weight="bold" lengthAdjust="spacing" textLength="19" x="65" y="913.4888">alt</text><text fill="#000000" font-family="sans-serif" font-size="11" font-weight="bold" lengthAdjust="spacing" textLength="97" x="129" y="912.6323">[caPay reverts]</text><line style="stroke:#181818;stroke-width:2.0;" x1="405.5" x2="415.5" y1="933.6875" y2="943.6875"/><line style="stroke:#181818;stroke-width:2.0;" x1="405.5" x2="415.5" y1="943.6875" y2="933.6875"/><line style="stroke:#181818;stroke-width:1.0;" x1="410.5" x2="839.5" y1="938.6875" y2="938.6875"/><text fill="#000000" font-family="sans-serif" font-size="13" lengthAdjust="spacing" textLength="90" x="415.5" y="933.6216">Transfer failed</text><line style="stroke:#181818;stroke-width:2.0;" x1="130.5" x2="140.5" y1="962.8203" y2="972.8203"/><line style="stroke:#181818;stroke-width:2.0;" x1="130.5" x2="140.5" y1="972.8203" y2="962.8203"/><line style="stroke:#181818;stroke-width:1.0;" x1="135.5" x2="387.5" y1="967.8203" y2="967.8203"/><text fill="#000000" font-family="sans-serif" font-size="13" lengthAdjust="spacing" textLength="163" x="140.5" y="962.7544">Revert with TransferFailed</text><line style="stroke:#000000;stroke-width:1.0;stroke-dasharray:2.0,2.0;" x1="50" x2="882" y1="976.8203" y2="976.8203"/><text fill="#000000" font-family="sans-serif" font-size="11" font-weight="bold" lengthAdjust="spacing" textLength="136" x="55" y="987.0308">[Transfer successful]</text><polygon fill="#181818" points="409.5,1007.7578,399.5,1011.7578,409.5,1015.7578,405.5,1011.7578" style="stroke:#181818;stroke-width:1.0;"/><line style="stroke:#181818;stroke-width:1.0;stroke-dasharray:2.0,2.0;" x1="403.5" x2="844.5" y1="1011.7578" y2="1011.7578"/><text fill="#000000" font-family="sans-serif" font-size="13" lengthAdjust="spacing" textLength="124" x="415.5" y="1006.6919">Transfer completed</text><polygon fill="#181818" points="828.5,1036.8906,838.5,1040.8906,828.5,1044.8906,832.5,1040.8906" style="stroke:#181818;stroke-width:1.0;"/><line style="stroke:#181818;stroke-width:1.0;" x1="398.5" x2="834.5" y1="1040.8906" y2="1040.8906"/><text fill="#000000" font-family="sans-serif" font-size="13" lengthAdjust="spacing" textLength="168" x="405.5" y="1035.8247">pointStaker(service, 0x00)</text><polygon fill="#181818" points="409.5,1066.0234,399.5,1070.0234,409.5,1074.0234,405.5,1070.0234" style="stroke:#181818;stroke-width:1.0;"/><line style="stroke:#181818;stroke-width:1.0;stroke-dasharray:2.0,2.0;" x1="403.5" x2="844.5" y1="1070.0234" y2="1070.0234"/><text fill="#000000" font-family="sans-serif" font-size="13" lengthAdjust="spacing" textLength="103" x="415.5" y="1064.9575">Status removed</text><polygon fill="#181818" points="134.5,1095.1563,124.5,1099.1563,134.5,1103.1563,130.5,1099.1563" style="stroke:#181818;stroke-width:1.0;"/><line style="stroke:#181818;stroke-width:1.0;stroke-dasharray:2.0,2.0;" x1="128.5" x2="392.5" y1="1099.1563" y2="1099.1563"/><text fill="#000000" font-family="sans-serif" font-size="13" lengthAdjust="spacing" textLength="216" x="140.5" y="1094.0903">Unstaking completed successfully</text><line style="stroke:#000000;stroke-width:1.0;stroke-dasharray:2.0,2.0;" x1="30" x2="902" y1="1122.1563" y2="1122.1563"/><text fill="#000000" font-family="sans-serif" font-size="11" font-weight="bold" lengthAdjust="spacing" textLength="119" x="35" y="1132.3667">[Partial unstaking]</text><line style="stroke:#181818;stroke-width:1.0;" x1="393.5" x2="435.5" y1="1232.7578" y2="1232.7578"/><line style="stroke:#181818;stroke-width:1.0;" x1="435.5" x2="435.5" y1="1232.7578" y2="1245.7578"/><line style="stroke:#181818;stroke-width:1.0;" x1="394.5" x2="435.5" y1="1245.7578" y2="1245.7578"/><polygon fill="#181818" points="404.5,1241.7578,394.5,1245.7578,404.5,1249.7578,400.5,1245.7578" style="stroke:#181818;stroke-width:1.0;"/><text fill="#000000" font-family="sans-serif" font-size="13" lengthAdjust="spacing" textLength="133" x="400.5" y="1152.0278">stakingBaseProcess(</text><text fill="#000000" font-family="sans-serif" font-size="13" lengthAdjust="spacing" textLength="116" x="408.5" y="1167.1606">accountMetadata,</text><text fill="#000000" font-family="sans-serif" font-size="13" lengthAdjust="spacing" textLength="103" x="408.5" y="1182.2935">isStaking=false,</text><text fill="#000000" font-family="sans-serif" font-size="13" lengthAdjust="spacing" textLength="116" x="408.5" y="1197.4263">amountOfStaking,</text><text fill="#000000" font-family="sans-serif" font-size="13" lengthAdjust="spacing" textLength="186" x="408.5" y="1212.5591">0, 0, 0, false, address(0), 0x0</text><text fill="#000000" font-family="sans-serif" font-size="13" lengthAdjust="spacing" textLength="5" x="400.5" y="1227.6919">)</text><polygon fill="#181818" points="828.5,1270.8906,838.5,1274.8906,828.5,1278.8906,832.5,1274.8906" style="stroke:#181818;stroke-width:1.0;"/><line style="stroke:#181818;stroke-width:1.0;" x1="393.5" x2="834.5" y1="1274.8906" y2="1274.8906"/><text fill="#000000" font-family="sans-serif" font-size="13" lengthAdjust="spacing" textLength="60" x="400.5" y="1269.8247">caPay(&#183;&#183;&#183;)</text><path d="M50,1289.8906 L114,1289.8906 L114,1297.0234 L104,1307.0234 L50,1307.0234 L50,1289.8906 " fill="#EEEEEE" style="stroke:#000000;stroke-width:1.5;"/><rect fill="none" height="148.4688" style="stroke:#000000;stroke-width:1.5;" width="832" x="50" y="1289.8906"/><text fill="#000000" font-family="sans-serif" font-size="13" font-weight="bold" lengthAdjust="spacing" textLength="19" x="65" y="1302.9575">alt</text><text fill="#000000" font-family="sans-serif" font-size="11" font-weight="bold" lengthAdjust="spacing" textLength="97" x="129" y="1302.1011">[caPay reverts]</text><line style="stroke:#181818;stroke-width:2.0;" x1="400.5" x2="410.5" y1="1323.1563" y2="1333.1563"/><line style="stroke:#181818;stroke-width:2.0;" x1="400.5" x2="410.5" y1="1333.1563" y2="1323.1563"/><line style="stroke:#181818;stroke-width:1.0;" x1="405.5" x2="839.5" y1="1328.1563" y2="1328.1563"/><text fill="#000000" font-family="sans-serif" font-size="13" lengthAdjust="spacing" textLength="90" x="410.5" y="1323.0903">Transfer failed</text><line style="stroke:#181818;stroke-width:2.0;" x1="130.5" x2="140.5" y1="1352.2891" y2="1362.2891"/><line style="stroke:#181818;stroke-width:2.0;" x1="130.5" x2="140.5" y1="1362.2891" y2="1352.2891"/><line style="stroke:#181818;stroke-width:1.0;" x1="135.5" x2="392.5" y1="1357.2891" y2="1357.2891"/><text fill="#000000" font-family="sans-serif" font-size="13" lengthAdjust="spacing" textLength="163" x="140.5" y="1352.2231">Revert with TransferFailed</text><line style="stroke:#000000;stroke-width:1.0;stroke-dasharray:2.0,2.0;" x1="50" x2="882" y1="1366.2891" y2="1366.2891"/><text fill="#000000" font-family="sans-serif" font-size="11" font-weight="bold" lengthAdjust="spacing" textLength="136" x="55" y="1376.4995">[Transfer successful]</text><polygon fill="#181818" points="404.5,1397.2266,394.5,1401.2266,404.5,1405.2266,400.5,1401.2266" style="stroke:#181818;stroke-width:1.0;"/><line style="stroke:#181818;stroke-width:1.0;stroke-dasharray:2.0,2.0;" x1="398.5" x2="844.5" y1="1401.2266" y2="1401.2266"/><text fill="#000000" font-family="sans-serif" font-size="13" lengthAdjust="spacing" textLength="124" x="410.5" y="1396.1606">Transfer completed</text><polygon fill="#181818" points="134.5,1426.3594,124.5,1430.3594,134.5,1434.3594,130.5,1430.3594" style="stroke:#181818;stroke-width:1.0;"/><line style="stroke:#181818;stroke-width:1.0;stroke-dasharray:2.0,2.0;" x1="128.5" x2="392.5" y1="1430.3594" y2="1430.3594"/><text fill="#000000" font-family="sans-serif" font-size="13" lengthAdjust="spacing" textLength="216" x="140.5" y="1425.2935">Unstaking completed successfully</text><!--SRC=[rLRRRXen47ttLuoQ5sYJT1EfgeHA94gXHMqJ13HFI9MpwmqMNflQNX9KzRlwtY_hs7jXbsjlBqs2CCFupCmvCxDvPUnAi2iIgJ1DcBJmbG2yfk7yhLQfZBfAA0qFCsuP-KPUFS-zoO9goqE-e7ZZoPZf9GyPT9MqceRs2L039ZDkU5ewv_8-SyZESDBlltaP17N7tktjH-_5bii4JeAWrxiC2B7S2bP0Vv85n4HJQJ0mLnBwGZrCPQDFkM0H3AcTmHdqjCOotb4P2VHl4f93mDbLcKTh2xSnbG0qGHxiJPodFfLDuY8jgMLR9P32K8DLKgow7KXKn6FED8Gp5iu9eSB2IVpYxkNT1NIf4FWDDo2L1GfXpYHg0INIsMEH8OAEs99f2mySw-j4aMR63CorifrS37-JC64Od7ZvAZ4g-FK0rQn7p6gEGQ0JXew1ZypIY5hwrPEIsLgGcFjpmsJ4zAcp3qmHlmLMfsmglnq8SSiqZrTbKJFN56aSOnEuHYpyxgYW4WloE5NIDfI14leDfdcUdr_djo7_EKhcGAvp6E_6G8qOQ7u_itYtIwNJBFLDmr1bZLNR6PKGfbeNXM0hPkcM8FvGrMUyBhrMybxwKD0m5QuFhPep2PhPLClML1R4J9nveaRU3kqjmfx2S3JezZxVz3-F9vttW-ktwuYUw2onVYf4Nf-xrTY4QRSF4Dyi4VVNuUO1B4yO21NEiO0xztxkBEYLBE2g3OtSVr8Qdy7b1KHqPUeXQX-gxJ8f0lWPOuyBhbbKy_wb_d0m7n05Pwst1wFM7wFUU88iJmOtrt0xkFdGSIUiSODLpRwa26QcylBY3Ak21ygj-sA1GwAYgVo4dU9N9ArUutXYT3k5cg7QPMiM5jGOJ7u_0xNLM8Xgs52h4BTDex87YjtWTm0tUMEqOug1JtSiKMyBJlE_p0rejiKQGHEjZu5Rj8Toym-65eHqI5UD7z_TRtFBlzpKjSV8GR8ssyO7G7bS1vWjJq-lmtRzKhBbdqSnBjlOFuLstZhUQ3b8Vp_6bh6cT964IKCdM9oA0-dNr2wlXYfP26RtX8zOZLzokCvIieNYsMfbkf6NxXKFcZi1Vat3FPLW69iQb2zHotzIXKClvLh_1r8ILM5Rh8x5oszlooZhgMv-9hlq7cuk1_8_JFNlJFJnJY1_DiM_Fy5_ExtaRwRspoRsQ9__enu_qj_LNYxExjszVW80]--></g></svg>