<?xml version="1.0" encoding="us-ascii" standalone="no"?><svg xmlns="http://www.w3.org/2000/svg" xmlns:xlink="http://www.w3.org/1999/xlink" contentStyleType="text/css" height="1099px" preserveAspectRatio="none" style="width:957px;height:1099px;background:#FFFFFF;" version="1.1" viewBox="0 0 957 1099" width="957px" zoomAndPan="magnify"><defs/><g><text fill="#000000" font-family="sans-serif" font-size="14" font-weight="bold" lengthAdjust="spacing" textLength="276" x="341.75" y="27.9951">serviceUnstaking Transaction Flow</text><text fill="#000000" font-family="sans-serif" font-size="14" font-weight="bold" lengthAdjust="spacing" textLength="285" x="337.25" y="44.292">(Happy Path - Successful Execution)</text><rect fill="#FFFFFF" height="955.5156" style="stroke:#181818;stroke-width:1.0;" width="10" x="63.5" y="99.8906"/><rect fill="#FFD700" height="895.1172" style="stroke:#181818;stroke-width:1.0;" width="10" x="313.5" y="151.2891"/><rect fill="#00EE20" height="29.1328" style="stroke:#181818;stroke-width:1.0;" width="10" x="765.5" y="635.2109"/><rect fill="#00EE20" height="47.2656" style="stroke:#181818;stroke-width:1.0;" width="10" x="765.5" y="711.6094"/><rect fill="#00EE20" height="29.1328" style="stroke:#181818;stroke-width:1.0;" width="10" x="765.5" y="981.1406"/><rect fill="#FFFFFF" height="665.0547" style="stroke:#000000;stroke-width:1.5;" width="674.5" x="276" y="353.2188"/><rect fill="#FFFFFF" height="251.3984" style="stroke:none;stroke-width:1.0;" width="674.5" x="276" y="766.875"/><line style="stroke:#181818;stroke-width:0.5;stroke-dasharray:5.0,5.0;" x1="68" x2="68" y1="89.8906" y2="1064.4063"/><line style="stroke:#181818;stroke-width:0.5;stroke-dasharray:5.0,5.0;" x1="318" x2="318" y1="89.8906" y2="1064.4063"/><line style="stroke:#181818;stroke-width:0.5;stroke-dasharray:5.0,5.0;" x1="770" x2="770" y1="89.8906" y2="1064.4063"/><rect fill="#E2E2F0" height="30.2969" rx="2.5" ry="2.5" style="stroke:#181818;stroke-width:0.5;" width="127" x="5" y="58.5938"/><text fill="#000000" font-family="sans-serif" font-size="14" lengthAdjust="spacing" textLength="113" x="12" y="78.5889">Service Contract</text><rect fill="#E2E2F0" height="30.2969" rx="2.5" ry="2.5" style="stroke:#181818;stroke-width:0.5;" width="127" x="5" y="1063.4063"/><text fill="#000000" font-family="sans-serif" font-size="14" lengthAdjust="spacing" textLength="113" x="12" y="1083.4014">Service Contract</text><rect fill="#FFD700" height="30.2969" rx="2.5" ry="2.5" style="stroke:#181818;stroke-width:0.5;" width="65" x="286" y="58.5938"/><text fill="#000000" font-family="sans-serif" font-size="14" lengthAdjust="spacing" textLength="51" x="293" y="78.5889">Staking</text><rect fill="#FFD700" height="30.2969" rx="2.5" ry="2.5" style="stroke:#181818;stroke-width:0.5;" width="65" x="286" y="1063.4063"/><text fill="#000000" font-family="sans-serif" font-size="14" lengthAdjust="spacing" textLength="51" x="293" y="1083.4014">Staking</text><rect fill="#00EE20" height="30.2969" rx="2.5" ry="2.5" style="stroke:#181818;stroke-width:0.5;" width="53" x="744" y="58.5938"/><text fill="#000000" font-family="sans-serif" font-size="14" lengthAdjust="spacing" textLength="39" x="751" y="78.5889">EVVM</text><rect fill="#00EE20" height="30.2969" rx="2.5" ry="2.5" style="stroke:#181818;stroke-width:0.5;" width="53" x="744" y="1063.4063"/><text fill="#000000" font-family="sans-serif" font-size="14" lengthAdjust="spacing" textLength="39" x="751" y="1083.4014">EVVM</text><rect fill="#FFFFFF" height="955.5156" style="stroke:#181818;stroke-width:1.0;" width="10" x="63.5" y="99.8906"/><rect fill="#FFD700" height="895.1172" style="stroke:#181818;stroke-width:1.0;" width="10" x="313.5" y="151.2891"/><rect fill="#00EE20" height="29.1328" style="stroke:#181818;stroke-width:1.0;" width="10" x="765.5" y="635.2109"/><rect fill="#00EE20" height="47.2656" style="stroke:#181818;stroke-width:1.0;" width="10" x="765.5" y="711.6094"/><rect fill="#00EE20" height="29.1328" style="stroke:#181818;stroke-width:1.0;" width="10" x="765.5" y="981.1406"/><polygon fill="#181818" points="301.5,147.2891,311.5,151.2891,301.5,155.2891,305.5,151.2891" style="stroke:#181818;stroke-width:1.0;"/><line style="stroke:#181818;stroke-width:1.0;" x1="73.5" x2="307.5" y1="151.2891" y2="151.2891"/><text fill="#000000" font-family="sans-serif" font-size="13" lengthAdjust="spacing" textLength="114" x="80.5" y="115.9575">serviceUnstaking(</text><text fill="#000000" font-family="sans-serif" font-size="13" lengthAdjust="spacing" textLength="112" x="88.5" y="131.0903">amountOfStaking</text><text fill="#000000" font-family="sans-serif" font-size="13" lengthAdjust="spacing" textLength="5" x="80.5" y="146.2231">)</text><line style="stroke:#181818;stroke-width:1.0;" x1="323.5" x2="365.5" y1="180.4219" y2="180.4219"/><line style="stroke:#181818;stroke-width:1.0;" x1="365.5" x2="365.5" y1="180.4219" y2="193.4219"/><line style="stroke:#181818;stroke-width:1.0;" x1="324.5" x2="365.5" y1="193.4219" y2="193.4219"/><polygon fill="#181818" points="334.5,189.4219,324.5,193.4219,334.5,197.4219,330.5,193.4219" style="stroke:#181818;stroke-width:1.0;"/><text fill="#000000" font-family="sans-serif" font-size="13" lengthAdjust="spacing" textLength="141" x="330.5" y="175.356">onlyCA modifier check</text><line style="stroke:#181818;stroke-width:1.0;" x1="323.5" x2="365.5" y1="267.9531" y2="267.9531"/><line style="stroke:#181818;stroke-width:1.0;" x1="365.5" x2="365.5" y1="267.9531" y2="280.9531"/><line style="stroke:#181818;stroke-width:1.0;" x1="324.5" x2="365.5" y1="280.9531" y2="280.9531"/><polygon fill="#181818" points="334.5,276.9531,324.5,280.9531,334.5,284.9531,330.5,280.9531" style="stroke:#181818;stroke-width:1.0;"/><text fill="#000000" font-family="sans-serif" font-size="13" lengthAdjust="spacing" textLength="177" x="330.5" y="217.4888">Retrieve AccountMetadata{</text><text fill="#000000" font-family="sans-serif" font-size="13" lengthAdjust="spacing" textLength="139" x="338.5" y="232.6216">account: msg.sender,</text><text fill="#000000" font-family="sans-serif" font-size="13" lengthAdjust="spacing" textLength="100" x="338.5" y="247.7544">IsAService: true</text><text fill="#000000" font-family="sans-serif" font-size="13" lengthAdjust="spacing" textLength="8" x="330.5" y="262.8872">}</text><line style="stroke:#181818;stroke-width:1.0;" x1="323.5" x2="365.5" y1="325.2188" y2="325.2188"/><line style="stroke:#181818;stroke-width:1.0;" x1="365.5" x2="365.5" y1="325.2188" y2="338.2188"/><line style="stroke:#181818;stroke-width:1.0;" x1="324.5" x2="365.5" y1="338.2188" y2="338.2188"/><polygon fill="#181818" points="334.5,334.2188,324.5,338.2188,334.5,342.2188,330.5,338.2188" style="stroke:#181818;stroke-width:1.0;"/><text fill="#000000" font-family="sans-serif" font-size="13" lengthAdjust="spacing" textLength="146" x="330.5" y="305.02">Calculate token return:</text><text fill="#000000" font-family="sans-serif" font-size="13" lengthAdjust="spacing" textLength="428" x="330.5" y="320.1528">amountOfTokenToReturn = amountOfStaking * PRICE_OF_STAKING</text><path d="M276,353.2188 L340,353.2188 L340,360.3516 L330,370.3516 L276,370.3516 L276,353.2188 " fill="#EEEEEE" style="stroke:#000000;stroke-width:1.5;"/><rect fill="none" height="665.0547" style="stroke:#000000;stroke-width:1.5;" width="674.5" x="276" y="353.2188"/><text fill="#000000" font-family="sans-serif" font-size="13" font-weight="bold" lengthAdjust="spacing" textLength="19" x="291" y="366.2856">alt</text><text fill="#000000" font-family="sans-serif" font-size="11" font-weight="bold" lengthAdjust="spacing" textLength="432" x="355" y="365.4292">[Full unstaking (amountOfStaking == stakingData.stakingBalance)]</text><line style="stroke:#181818;stroke-width:1.0;" x1="323.5" x2="365.5" y1="410.6836" y2="410.6836"/><line style="stroke:#181818;stroke-width:1.0;" x1="365.5" x2="365.5" y1="410.6836" y2="423.6836"/><line style="stroke:#181818;stroke-width:1.0;" x1="324.5" x2="365.5" y1="423.6836" y2="423.6836"/><polygon fill="#181818" points="334.5,419.6836,324.5,423.6836,334.5,427.6836,330.5,423.6836" style="stroke:#181818;stroke-width:1.0;"/><text fill="#000000" font-family="sans-serif" font-size="13" lengthAdjust="spacing" textLength="105" x="330.5" y="390.4849">Check time lock:</text><text fill="#000000" font-family="sans-serif" font-size="13" lengthAdjust="spacing" textLength="334" x="330.5" y="405.6177">block.timestamp &gt;= (stakingTimestamp + 21 days)</text><path d="M676,375.3516 L676,430.3516 L874,430.3516 L874,385.3516 L864,375.3516 L676,375.3516 " fill="#FEFFDD" style="stroke:#181818;stroke-width:0.5;"/><path d="M864,375.3516 L864,385.3516 L874,385.3516 L864,375.3516 " fill="#FEFFDD" style="stroke:#181818;stroke-width:0.5;"/><text fill="#000000" font-family="sans-serif" font-size="13" lengthAdjust="spacing" textLength="177" x="682" y="392.4185">RESTRICTION: Full unstaking</text><text fill="#000000" font-family="sans-serif" font-size="13" lengthAdjust="spacing" textLength="173" x="682" y="407.5513">requires 21-day lock period</text><text fill="#000000" font-family="sans-serif" font-size="13" lengthAdjust="spacing" textLength="109" x="682" y="422.6841">to prevent abuse</text><line style="stroke:#181818;stroke-width:1.0;" x1="323.5" x2="365.5" y1="532.5469" y2="532.5469"/><line style="stroke:#181818;stroke-width:1.0;" x1="365.5" x2="365.5" y1="532.5469" y2="545.5469"/><line style="stroke:#181818;stroke-width:1.0;" x1="324.5" x2="365.5" y1="545.5469" y2="545.5469"/><polygon fill="#181818" points="334.5,541.5469,324.5,545.5469,334.5,549.5469,330.5,545.5469" style="stroke:#181818;stroke-width:1.0;"/><text fill="#000000" font-family="sans-serif" font-size="13" lengthAdjust="spacing" textLength="133" x="330.5" y="451.8169">stakingBaseProcess(</text><text fill="#000000" font-family="sans-serif" font-size="13" lengthAdjust="spacing" textLength="116" x="338.5" y="466.9497">accountMetadata,</text><text fill="#000000" font-family="sans-serif" font-size="13" lengthAdjust="spacing" textLength="103" x="338.5" y="482.0825">isStaking=false,</text><text fill="#000000" font-family="sans-serif" font-size="13" lengthAdjust="spacing" textLength="116" x="338.5" y="497.2153">amountOfStaking,</text><text fill="#000000" font-family="sans-serif" font-size="13" lengthAdjust="spacing" textLength="186" x="338.5" y="512.3481">0, 0, 0, false, address(0), 0x0</text><text fill="#000000" font-family="sans-serif" font-size="13" lengthAdjust="spacing" textLength="5" x="330.5" y="527.481">)</text><path d="M536,459.3828 L536,529.3828 L771,529.3828 L771,469.3828 L761,459.3828 L536,459.3828 " fill="#FEFFDD" style="stroke:#181818;stroke-width:0.5;"/><path d="M761,459.3828 L761,469.3828 L771,469.3828 L761,459.3828 " fill="#FEFFDD" style="stroke:#181818;stroke-width:0.5;"/><text fill="#000000" font-family="sans-serif" font-size="13" lengthAdjust="spacing" textLength="133" x="542" y="476.4497">Core unstaking logic:</text><text fill="#000000" font-family="sans-serif" font-size="13" lengthAdjust="spacing" textLength="167" x="542" y="491.5825">- Updates staking balance</text><text fill="#000000" font-family="sans-serif" font-size="13" lengthAdjust="spacing" textLength="107" x="542" y="506.7153">- Records history</text><text fill="#000000" font-family="sans-serif" font-size="13" lengthAdjust="spacing" textLength="214" x="542" y="521.8481">- Updates staker status if needed</text><polygon fill="#181818" points="753.5,631.2109,763.5,635.2109,753.5,639.2109,757.5,635.2109" style="stroke:#181818;stroke-width:1.0;"/><line style="stroke:#181818;stroke-width:1.0;" x1="323.5" x2="759.5" y1="635.2109" y2="635.2109"/><text fill="#000000" font-family="sans-serif" font-size="13" lengthAdjust="spacing" textLength="43" x="330.5" y="569.6138">caPay(</text><text fill="#000000" font-family="sans-serif" font-size="13" lengthAdjust="spacing" textLength="70" x="338.5" y="584.7466">to: service,</text><text fill="#000000" font-family="sans-serif" font-size="13" lengthAdjust="spacing" textLength="221" x="338.5" y="599.8794">amount: amountOfTokenToReturn,</text><text fill="#000000" font-family="sans-serif" font-size="13" lengthAdjust="spacing" textLength="22" x="338.5" y="615.0122">(&#183;&#183;&#183;)</text><text fill="#000000" font-family="sans-serif" font-size="13" lengthAdjust="spacing" textLength="5" x="330.5" y="630.145">)</text><path d="M775,570.6797 L775,625.6797 L937,625.6797 L937,580.6797 L927,570.6797 L775,570.6797 " fill="#FEFFDD" style="stroke:#181818;stroke-width:0.5;"/><path d="M927,570.6797 L927,580.6797 L937,580.6797 L927,570.6797 " fill="#FEFFDD" style="stroke:#181818;stroke-width:0.5;"/><text fill="#000000" font-family="sans-serif" font-size="13" lengthAdjust="spacing" textLength="93" x="781" y="587.7466">Return tokens:</text><text fill="#000000" font-family="sans-serif" font-size="13" lengthAdjust="spacing" textLength="141" x="781" y="602.8794">No signatures needed</text><text fill="#000000" font-family="sans-serif" font-size="13" lengthAdjust="spacing" textLength="132" x="781" y="618.0122">for service unstaking</text><polygon fill="#181818" points="334.5,660.3438,324.5,664.3438,334.5,668.3438,330.5,664.3438" style="stroke:#181818;stroke-width:1.0;"/><line style="stroke:#181818;stroke-width:1.0;stroke-dasharray:2.0,2.0;" x1="328.5" x2="769.5" y1="664.3438" y2="664.3438"/><text fill="#000000" font-family="sans-serif" font-size="13" lengthAdjust="spacing" textLength="124" x="340.5" y="659.2778">Transfer completed</text><polygon fill="#181818" points="753.5,707.6094,763.5,711.6094,753.5,715.6094,757.5,711.6094" style="stroke:#181818;stroke-width:1.0;"/><line style="stroke:#181818;stroke-width:1.0;" x1="323.5" x2="759.5" y1="711.6094" y2="711.6094"/><text fill="#000000" font-family="sans-serif" font-size="13" lengthAdjust="spacing" textLength="168" x="330.5" y="706.5435">pointStaker(service, 0x00)</text><path d="M780,677.3438 L780,732.3438 L945,732.3438 L945,687.3438 L935,677.3438 L780,677.3438 " fill="#FEFFDD" style="stroke:#181818;stroke-width:0.5;"/><path d="M935,677.3438 L935,687.3438 L945,687.3438 L935,677.3438 " fill="#FEFFDD" style="stroke:#181818;stroke-width:0.5;"/><text fill="#000000" font-family="sans-serif" font-size="13" lengthAdjust="spacing" textLength="144" x="786" y="694.4106">Remove staker status:</text><text fill="#000000" font-family="sans-serif" font-size="13" lengthAdjust="spacing" textLength="131" x="786" y="709.5435">Service loses reward</text><text fill="#000000" font-family="sans-serif" font-size="13" lengthAdjust="spacing" textLength="112" x="786" y="724.6763">earning capability</text><polygon fill="#181818" points="334.5,754.875,324.5,758.875,334.5,762.875,330.5,758.875" style="stroke:#181818;stroke-width:1.0;"/><line style="stroke:#181818;stroke-width:1.0;stroke-dasharray:2.0,2.0;" x1="328.5" x2="769.5" y1="758.875" y2="758.875"/><text fill="#000000" font-family="sans-serif" font-size="13" lengthAdjust="spacing" textLength="103" x="340.5" y="753.8091">Status removed</text><line style="stroke:#000000;stroke-width:1.0;stroke-dasharray:2.0,2.0;" x1="276" x2="950.5" y1="767.875" y2="767.875"/><text fill="#000000" font-family="sans-serif" font-size="11" font-weight="bold" lengthAdjust="spacing" textLength="119" x="281" y="778.0854">[Partial unstaking]</text><line style="stroke:#181818;stroke-width:1.0;" x1="323.5" x2="365.5" y1="878.4766" y2="878.4766"/><line style="stroke:#181818;stroke-width:1.0;" x1="365.5" x2="365.5" y1="878.4766" y2="891.4766"/><line style="stroke:#181818;stroke-width:1.0;" x1="324.5" x2="365.5" y1="891.4766" y2="891.4766"/><polygon fill="#181818" points="334.5,887.4766,324.5,891.4766,334.5,895.4766,330.5,891.4766" style="stroke:#181818;stroke-width:1.0;"/><text fill="#000000" font-family="sans-serif" font-size="13" lengthAdjust="spacing" textLength="133" x="330.5" y="797.7466">stakingBaseProcess(</text><text fill="#000000" font-family="sans-serif" font-size="13" lengthAdjust="spacing" textLength="116" x="338.5" y="812.8794">accountMetadata,</text><text fill="#000000" font-family="sans-serif" font-size="13" lengthAdjust="spacing" textLength="103" x="338.5" y="828.0122">isStaking=false,</text><text fill="#000000" font-family="sans-serif" font-size="13" lengthAdjust="spacing" textLength="116" x="338.5" y="843.145">amountOfStaking,</text><text fill="#000000" font-family="sans-serif" font-size="13" lengthAdjust="spacing" textLength="186" x="338.5" y="858.2778">0, 0, 0, false, address(0), 0x0</text><text fill="#000000" font-family="sans-serif" font-size="13" lengthAdjust="spacing" textLength="5" x="330.5" y="873.4106">)</text><path d="M536,805.3125 L536,875.3125 L715,875.3125 L715,815.3125 L705,805.3125 L536,805.3125 " fill="#FEFFDD" style="stroke:#181818;stroke-width:0.5;"/><path d="M705,805.3125 L705,815.3125 L715,815.3125 L705,805.3125 " fill="#FEFFDD" style="stroke:#181818;stroke-width:0.5;"/><text fill="#000000" font-family="sans-serif" font-size="13" lengthAdjust="spacing" textLength="110" x="542" y="822.3794">Partial unstaking:</text><text fill="#000000" font-family="sans-serif" font-size="13" lengthAdjust="spacing" textLength="157" x="542" y="837.5122">- No time lock restriction</text><text fill="#000000" font-family="sans-serif" font-size="13" lengthAdjust="spacing" textLength="158" x="542" y="852.645">- Maintains staker status</text><text fill="#000000" font-family="sans-serif" font-size="13" lengthAdjust="spacing" textLength="126" x="542" y="867.7778">- Flexible withdrawal</text><polygon fill="#181818" points="753.5,977.1406,763.5,981.1406,753.5,985.1406,757.5,981.1406" style="stroke:#181818;stroke-width:1.0;"/><line style="stroke:#181818;stroke-width:1.0;" x1="323.5" x2="759.5" y1="981.1406" y2="981.1406"/><text fill="#000000" font-family="sans-serif" font-size="13" lengthAdjust="spacing" textLength="43" x="330.5" y="915.5435">caPay(</text><text fill="#000000" font-family="sans-serif" font-size="13" lengthAdjust="spacing" textLength="70" x="338.5" y="930.6763">to: service,</text><text fill="#000000" font-family="sans-serif" font-size="13" lengthAdjust="spacing" textLength="221" x="338.5" y="945.8091">amount: amountOfTokenToReturn,</text><text fill="#000000" font-family="sans-serif" font-size="13" lengthAdjust="spacing" textLength="22" x="338.5" y="960.9419">(&#183;&#183;&#183;)</text><text fill="#000000" font-family="sans-serif" font-size="13" lengthAdjust="spacing" textLength="5" x="330.5" y="976.0747">)</text><polygon fill="#181818" points="334.5,1006.2734,324.5,1010.2734,334.5,1014.2734,330.5,1010.2734" style="stroke:#181818;stroke-width:1.0;"/><line style="stroke:#181818;stroke-width:1.0;stroke-dasharray:2.0,2.0;" x1="328.5" x2="769.5" y1="1010.2734" y2="1010.2734"/><text fill="#000000" font-family="sans-serif" font-size="13" lengthAdjust="spacing" textLength="124" x="340.5" y="1005.2075">Transfer completed</text><polygon fill="#181818" points="84.5,1042.4063,74.5,1046.4063,84.5,1050.4063,80.5,1046.4063" style="stroke:#181818;stroke-width:1.0;"/><line style="stroke:#181818;stroke-width:1.0;stroke-dasharray:2.0,2.0;" x1="78.5" x2="317.5" y1="1046.4063" y2="1046.4063"/><text fill="#000000" font-family="sans-serif" font-size="13" lengthAdjust="spacing" textLength="216" x="90.5" y="1041.3403">Unstaking completed successfully</text><!--SRC=[pLLDRnen4BtlhnWr5sX3kisb4YgHA8Kqgf8We3qXLSOxW8NNtjfU2AhwkthlB-lO-n7OX4DxQSKYhsR7p_DctepVMRUNU1KbckSfAWVV8u3tZ6-kZSvLCj1I6zYjXSFeH_JkTUaTPSmumKN6QCUBAPgju0W3hPnXtBq0Pi4MneQdOnkXLeL3yGvdez67jt5yx3ZyykKsUE5scy9P70-7bt4KEU4aLj2VLGKnCqnPEbXe1IEfTtFL-iYoR0zZvjRGWMdEELgxp2KC7v3dth4THNx7bhaQC2fNw5pLqNMVdDQQAm2MKdRS_R8aD2UuHxG6iQWo7C5g9VU3FgGw4Kk11lWQ-UQ4xmIT4RX5w7Fkpxr5nnBcsFSGIc7hGcfN5nPLWkRSsszilonC5vp9SQv-d80VCCbpwKDtUeCA3BhSgEvSLIndtZpJas27NfCzl8Jnv6Om_7e_-ZgTzJ_Tt5rJSgM3io0S6ELIGbvNgzNStkjLmNmWKXVb-ticcUBO9Zq2F1-tJnauaI98pJSKyCAl5zv2Nca6LprebVwpslWABjz0mlQsW5QQGZHYjNO-qyFfZAZCRkxlkesuvyhWjrmOjBI_G_l3eP2X4JgPAwSXCrGZKYzRv1O3zkdOQv8MnqPxTROEYbaLE1HIs39HlIMJ5i-VqL-mnUVbKxW1InBZSUCsMHzYhz4dV0VQu45ff5u9JddimEUCpiV7BbqKrV2V9iYrIIoiXNNQx9lUf6LQN6v1B44X9fX4pJo4hku2PsEs3xoThXljW5yNdbLWy6Zz-kb_xOfMtNv74-DfWGiD1w5ROdgdmOgLedXzOOjmvsf9GwyQ1dLs0bX0xnoLCaoVfMzXdMOI7V7rdWaUXNGg1vaMoar3tbfL1dovuZ-abUej7kUVs5MJMMfBx0pkc25so8poGN2MiOMGmkrFKPiMXJG1_NbQGUP8WgkwVUpdE9EDlFtFJV0auj01f8nwj506B8tWSCFuRxUCYaR_XkBzfv741x6WMsedt3enRCValvN_tokMxfA36yCZb7BgmkFTMqE0hMzPkO-Y0x1A1xy1]--></g></svg>