<?xml version="1.0" encoding="us-ascii" standalone="no"?><svg xmlns="http://www.w3.org/2000/svg" xmlns:xlink="http://www.w3.org/1999/xlink" contentStyleType="text/css" height="483px" preserveAspectRatio="none" style="width:493px;height:483px;background:#FFFFFF;" version="1.1" viewBox="0 0 493 483" width="493px" zoomAndPan="magnify"><defs/><g><text fill="#000000" font-family="sans-serif" font-size="14" font-weight="bold" lengthAdjust="spacing" textLength="191" x="152" y="27.9951">Sync Nonce Transaction</text><text fill="#000000" font-family="sans-serif" font-size="14" font-weight="bold" lengthAdjust="spacing" textLength="174" x="160.5" y="44.292">Generic Flow Example</text><rect fill="#F5B7B1" height="146.9453" style="stroke:#000000;stroke-width:1.5;" width="476" x="10" y="238.2891"/><rect fill="#FFFFFF" height="90.0703" style="stroke:none;stroke-width:1.0;" width="476" x="10" y="295.1641"/><line style="stroke:#181818;stroke-width:0.5;stroke-dasharray:5.0,5.0;" x1="71" x2="71" y1="134.8906" y2="402.2344"/><line style="stroke:#181818;stroke-width:0.5;stroke-dasharray:5.0,5.0;" x1="221.5" x2="221.5" y1="134.8906" y2="402.2344"/><text fill="#000000" font-family="sans-serif" font-size="14" lengthAdjust="spacing" textLength="96" x="20" y="131.5889">Fisher or User</text><ellipse cx="71" cy="67.0938" fill="#E2E2F0" rx="8" ry="8" style="stroke:#181818;stroke-width:0.5;"/><path d="M71,75.0938 L71,102.0938 M58,83.0938 L84,83.0938 M71,102.0938 L58,117.0938 M71,102.0938 L84,117.0938 " fill="none" style="stroke:#181818;stroke-width:0.5;"/><text fill="#000000" font-family="sans-serif" font-size="14" lengthAdjust="spacing" textLength="96" x="20" y="414.2295">Fisher or User</text><ellipse cx="71" cy="426.0313" fill="#E2E2F0" rx="8" ry="8" style="stroke:#181818;stroke-width:0.5;"/><path d="M71,434.0313 L71,461.0313 M58,442.0313 L84,442.0313 M71,461.0313 L58,476.0313 M71,461.0313 L84,476.0313 " fill="none" style="stroke:#181818;stroke-width:0.5;"/><rect fill="#00EE20" height="30.2969" rx="2.5" ry="2.5" style="stroke:#181818;stroke-width:0.5;" width="53" x="195.5" y="103.5938"/><text fill="#000000" font-family="sans-serif" font-size="14" lengthAdjust="spacing" textLength="39" x="202.5" y="123.5889">EVVM</text><rect fill="#00EE20" height="30.2969" rx="2.5" ry="2.5" style="stroke:#181818;stroke-width:0.5;" width="53" x="195.5" y="401.2344"/><text fill="#000000" font-family="sans-serif" font-size="14" lengthAdjust="spacing" textLength="39" x="202.5" y="421.2295">EVVM</text><polygon fill="#181818" points="210,162.0234,220,166.0234,210,170.0234,214,166.0234" style="stroke:#181818;stroke-width:1.0;"/><line style="stroke:#181818;stroke-width:1.0;" x1="71" x2="216" y1="166.0234" y2="166.0234"/><text fill="#000000" font-family="sans-serif" font-size="13" lengthAdjust="spacing" textLength="127" x="78" y="160.9575">Execute transaction</text><line style="stroke:#181818;stroke-width:1.0;" x1="222" x2="264" y1="210.2891" y2="210.2891"/><line style="stroke:#181818;stroke-width:1.0;" x1="264" x2="264" y1="210.2891" y2="223.2891"/><line style="stroke:#181818;stroke-width:1.0;" x1="223" x2="264" y1="223.2891" y2="223.2891"/><polygon fill="#181818" points="233,219.2891,223,223.2891,233,227.2891,229,223.2891" style="stroke:#181818;stroke-width:1.0;"/><text fill="#000000" font-family="sans-serif" font-size="13" lengthAdjust="spacing" textLength="150" x="229" y="190.0903">Read nonce state using</text><text fill="#000000" font-family="sans-serif" font-size="13" lengthAdjust="spacing" textLength="223" x="229" y="205.2231">nextSyncUsedNonce[userAddress]</text><path d="M10,238.2891 L74,238.2891 L74,245.4219 L64,255.4219 L10,255.4219 L10,238.2891 " fill="#EEEEEE" style="stroke:#000000;stroke-width:1.5;"/><rect fill="none" height="146.9453" style="stroke:#000000;stroke-width:1.5;" width="476" x="10" y="238.2891"/><text fill="#000000" font-family="sans-serif" font-size="13" font-weight="bold" lengthAdjust="spacing" textLength="19" x="25" y="251.356">alt</text><text fill="#000000" font-family="sans-serif" font-size="11" font-weight="bold" lengthAdjust="spacing" textLength="238" x="89" y="250.4995">[transaction nonce does not equal to</text><text fill="#000000" font-family="sans-serif" font-size="11" font-weight="bold" lengthAdjust="spacing" textLength="224" x="89" y="263.3042">nextSyncUsedNonce[userAddress]]</text><polygon fill="#181818" points="82,283.1641,72,287.1641,82,291.1641,78,287.1641" style="stroke:#181818;stroke-width:1.0;"/><line style="stroke:#181818;stroke-width:1.0;stroke-dasharray:2.0,2.0;" x1="76" x2="221" y1="287.1641" y2="287.1641"/><text fill="#000000" font-family="sans-serif" font-size="13" lengthAdjust="spacing" textLength="117" x="88" y="282.0981">Revert transaction</text><line style="stroke:#000000;stroke-width:1.0;stroke-dasharray:2.0,2.0;" x1="10" x2="486" y1="296.1641" y2="296.1641"/><text fill="#000000" font-family="sans-serif" font-size="11" font-weight="bold" lengthAdjust="spacing" textLength="37" x="15" y="306.3745">[else]</text><polygon fill="#FEFFDD" points="164,314.9688,279,314.9688,289,325.9688,279,337.9688,164,337.9688,154,325.9688,164,314.9688" style="stroke:#181818;stroke-width:0.5;"/><text fill="#000000" font-family="sans-serif" font-size="13" lengthAdjust="spacing" textLength="111" x="166" y="331.0356">payment process</text><line style="stroke:#181818;stroke-width:1.0;" x1="222" x2="264" y1="364.2344" y2="364.2344"/><line style="stroke:#181818;stroke-width:1.0;" x1="264" x2="264" y1="364.2344" y2="377.2344"/><line style="stroke:#181818;stroke-width:1.0;" x1="223" x2="264" y1="377.2344" y2="377.2344"/><polygon fill="#181818" points="233,373.2344,223,377.2344,233,381.2344,229,377.2344" style="stroke:#181818;stroke-width:1.0;"/><text fill="#000000" font-family="sans-serif" font-size="13" lengthAdjust="spacing" textLength="245" x="229" y="359.1685">nextSyncUsedNonce[userAddress]++</text><!--SRC=[XL79JiCm4BtxAqRDiK8498I4gag0qfxWmD8BvU3Q0x5mni6UfAqG_yuaNSK1V1hvlNcBFKgyzZXMDfYcGcBuKW0tsdnCOsZ8tWOV8YnBnwY-bHgTRkbA6nPWC76fn0WoFYUC0z09S8Mc4L3LEh8phjQYEYXcixiDtBOLP7bU5EUvKeeTUuJ7DHcu3sGGdgAc9Eekq9ocI1YTWOaFIoXMkgezojBE0ax66xqh0Rih13wi2w_33fm7r1QeTqciXTmaH-zp8bnnbq0gs3x4IoDbhgsDcDAhTFKCsTl5ud9nTgo_bR81aumC-Dbe3np-5mGvcsnTk5sPBc2BaNzry0aXwty0khbVBiKF8GXxrwtMw_xxwXYCc1nPxEl_dMeuL4XM7lS7]--></g></svg>